<svg width="24.00000026mm" height="9.00001502mm" viewBox="0 0 9448819 3543313"  version="1.1" xmlns="http://www.w3.org/2000/svg" xmlns:xlink="http://www.w3.org/1999/xlink">
<desc>
Origin 9055113 35433070 Bound 9055108 33661411 9448819 3543313
</desc>
<g fill-rule="evenodd" fill="rgb(255, 0, 0)" stroke="black" stroke-width="1" transform="translate(0, 3543313) scale(1, -1) translate(-9055108, -33661411)">
<path id="N" d="M 17531760.00 35255904.00 L 17256170.00 35255904.00 L 17256170.00 35378950.00 L 16968499.00 35378949.00 L 16968499.00 35255904.00 L 16884824.00 35255904.00 L 16884825.00 35099679.00 L 16868971.29 35061409.29 L 16029097.45 34221534.52 L 16034979.00 34191967.00 A 120431.73 120431.73 0 1 0 15958196.87 34303709.79 L 16776584.00 35122096.02 L 16776584.00 35255904.00 L 16692909.00 35255904.00 L 16692909.00 35610234.00 L 16968499.00 35610234.00 L 16968499.00 35487189.00 L 17256170.00 35487190.00 L 17256170.00 35610234.00 L 17531760.00 35610234.00 L 17531760.00 35255904.00  z"/>
<path id="N" d="M 17026370.00 36896986.00 L 17022998.00 36891939.24 L 17022998.00 36667399.00 L 17211405.00 36667399.00 L 17211405.00 35958739.00 L 16817705.00 35958739.00 L 16817705.00 36667399.00 L 16822292.00 36667399.00 L 16822292.00 36869393.44 L 16803856.00 36896986.00 A 120419.38 120419.38 0 1 0 17026370.00 36896986.00  z"/>
<path id="N" d="M 10298422.29 34542520.29 m -210738.62 0 a 210738.62 210738.62 0 1 1 421477.24 0a 210738.62 210738.62 0 1 1 -421477.24 0M 10298422.38 34542512.09 m -140500.91 0 a 140500.91 140500.91 0 1 1 281001.82 0a 140500.91 140500.91 0 1 1 -281001.82 0"/>
<path id="N" d="M 15896444.00 34739994.00 L 15579281.70 34739994.00 L 15561845.23 34722557.45 L 15556091.00 34693630.00 A 120412.98 120412.98 0 0 0 15444834.00 34619290.00 L 15439722.82 34620306.71 L 15298470.00 34479053.00 L 15260198.59 34463202.00 L 15200309.00 34463202.00 L 15200309.00 34291731.00 L 14845979.00 34291731.00 L 14845979.00 34567321.00 L 15100990.69 34567321.00 L 15110940.00 34571442.00 L 15237783.10 34571442.00 L 15344149.00 34677807.23 L 15333577.00 34693630.00 A 120419.38 120419.38 0 0 0 15490918.00 34850971.00 L 15502744.00 34843069.44 L 15502744.00 35448654.00 L 15896444.00 35448654.00 L 15896444.00 34739994.00  z"/>
<path id="N" d="M 13129885.00 34205591.00 L 12891463.00 34205591.00 L 12703748.00 34017876.00 L 12665476.59 34002025.00 L 12574215.00 34002025.00 L 12574215.00 33780945.00 L 12180515.00 33780945.00 L 12180515.00 34135275.00 L 12574215.00 34135275.00 L 12574215.00 34110265.00 L 12643061.00 34110265.00 L 12814925.00 34282129.00 L 12814925.00 34520551.00 L 13129885.00 34520551.00 L 13129885.00 34205591.00  z"/>
<path id="N" d="M 16526370.00 36896986.00 L 16507934.00 36869393.44 L 16507934.00 36706140.00 L 16671963.00 36706140.00 L 16671963.00 36351810.00 L 16278263.00 36351810.00 L 16278263.00 36706140.00 L 16307228.00 36706140.00 L 16307228.00 36891939.24 L 16303856.00 36896986.00 A 120419.38 120419.38 0 1 0 16526370.00 36896986.00  z"/>
<path id="N" d="M 16216822.89 37034304.48 L 16197003.00 36986455.00 L 16197003.00 36899685.00 L 16205269.00 36879729.10 L 16205269.00 36806140.00 L 16178263.00 36806140.00 L 16178263.00 36365989.13 L 16133222.21 36354014.00 L 15559207.19 36354014.69 L 15509206.52 36348460.12 L 15478498.00 36361180.00 A 222382.84 222382.84 0 0 1 15311564.00 35958165.00 L 15367891.68 35934833.32 L 15448302.00 35854423.00 L 15513936.00 35810567.00 L 15559207.00 35801562.15 L 15559207.00 35779998.00 L 16133224.10 35779996.89 L 16178263.00 35768022.87 L 16178263.00 35720314.00 L 16547083.77 35720314.00 L 16592908.22 35710233.15 L 16592909.00 35155904.00 L 16605312.25 35155904.00 L 16624446.60 35109709.60 L 15924814.00 34410077.00 L 15871170.00 34410077.00 L 15791006.00 34376872.00 L 15733223.39 34319089.39 L 15716491.33 34320780.41 L 15683223.00 34334088.21 L 15683223.00 34386455.00 L 15650018.00 34466619.00 L 15597769.93 34518867.07 L 15588835.72 34529794.51 L 15593616.80 34580042.80 L 15629739.00 34616165.00 L 15639609.29 34639994.00 L 15996444.00 34639994.00 L 15996444.00 35548654.00 L 15402744.00 35548654.00 L 15402744.00 35284604.28 L 15352743.57 35263893.43 L 15318662.00 35297975.00 A 222382.84 222382.84 0 0 1 15071564.00 35297975.00 L 15068157.40 35294568.40 L 15021963.00 35313702.75 L 15021963.00 35548655.00 L 14919772.72 35548655.00 L 14910018.00 35572205.00 A 222383.27 222383.27 0 0 1 14540208.00 35572205.00 L 14530453.28 35548655.00 L 14428263.00 35548655.00 L 14428263.00 35083702.71 L 14378262.48 35050566.89 L 14328498.00 35071180.00 A 222382.84 222382.84 0 0 1 14067003.00 34809685.00 L 14077801.00 34783616.31 L 14077801.00 34411416.00 L 13997948.00 34411416.00 L 13997948.00 33935826.00 L 14552278.00 33935826.00 L 14552278.00 34062495.50 L 14602278.42 34082922.58 L 14745979.00 33939222.00 L 14745979.00 33781835.00 L 13685466.04 33781835.00 L 13669011.00 33843244.00 L 13662044.12 33857371.18 L 13656981.00 33872287.00 L 13605594.00 33961292.00 L 13595209.57 33973132.81 L 13586456.00 33986234.00 L 13513783.00 34058905.00 L 13500683.75 34067657.50 L 13488841.00 34078043.00 L 13399836.00 34129429.00 L 13384920.92 34134491.76 L 13370793.00 34141459.00 L 13271520.00 34168059.00 L 13255799.33 34169089.03 L 13240351.68 34172161.87 L 13229885.00 34182628.44 L 13229885.81 34617346.26 L 13269256.14 34646212.64 L 13418642.00 34675927.00 L 13561940.00 34735283.00 A 791199.00 791199.00 0 1 1 12577350.00 34931130.00 L 12597089.60 34911390.40 L 12577955.25 34865196.00 L 12338244.27 34865196.00 L 12061806.00 35141634.78 L 12061806.00 35173447.00 A 309345.55 309345.55 0 1 1 11795490.00 34826377.00 L 11847632.48 34840348.82 L 12080515.00 34607466.73 L 12080515.00 34310866.00 L 12612184.15 34310866.00 L 12634460.96 34261387.70 L 12614173.44 34235275.00 L 12080515.00 34235275.00 L 12080515.00 33781829.46 L 11363721.44 33781829.92 L 11363142.00 33944095.00 L 11358980.00 33986339.00 L 11350393.00 34020616.00 L 11318061.00 34098671.00 L 11291957.00 34137738.00 L 11232216.00 34197480.00 L 11193147.00 34223584.00 L 11115092.00 34255915.00 L 11069008.00 34265082.00 L 10984521.50 34265081.90 L 10938437.00 34255915.00 L 10860382.00 34223583.00 L 10821315.00 34197479.00 L 10761573.00 34137738.00 L 10735469.00 34098669.00 L 10703138.00 34020614.00 L 10694551.00 33986331.00 L 10689811.00 33932285.00 L 10689811.85 33817186.40 L 10654456.05 33781830.44 L 9175527.00 33781834.66 L 9175527.00 37084305.00 L 10689812.57 37084305.00 L 10690392.00 36912606.00 L 10694552.00 36870362.00 L 10703138.00 36836080.00 L 10735470.00 36758025.00 L 10761574.00 36718957.00 L 10821315.00 36659215.00 L 10860383.00 36633111.00 L 10938438.00 36600779.00 L 10984522.00 36591612.00 L 11069010.50 36591612.10 L 11115095.00 36600779.00 L 11193150.00 36633111.00 L 11232217.00 36659215.00 L 11291959.00 36718956.00 L 11318063.00 36758025.00 L 11350394.00 36836080.00 L 11358981.00 36870362.00 L 11363721.00 36924406.00 L 11363722.14 37084305.00 L 11945165.21 37084305.00 L 11978574.50 37034304.48 L 11960940.00 36991731.00 A 222382.84 222382.84 0 0 1 12055501.00 36763441.00 L 12079050.00 36753686.69 L 12079050.00 36719921.00 L 12751176.00 36719921.00 L 12751176.00 36851272.49 L 12763110.67 36859752.47 L 12801176.41 36870200.46 L 12864146.00 36807230.00 L 12877245.78 36798477.37 L 12889088.00 36788092.00 L 12978094.00 36736705.00 L 12993007.64 36731642.95 L 13007137.00 36724675.00 L 13106410.00 36698075.00 L 13122129.18 36697045.07 L 13137578.00 36693972.00 L 13240353.00 36693972.00 L 13255801.82 36697045.07 L 13271521.00 36698075.00 L 13370794.00 36724675.00 L 13384923.36 36731642.95 L 13399837.00 36736705.00 L 13488843.00 36788092.00 L 13500687.35 36798479.23 L 13513784.00 36807230.00 L 13586459.00 36879904.00 L 13595211.63 36893003.78 L 13605597.00 36904846.00 L 13656984.00 36993852.00 L 13662046.05 37008765.64 L 13669014.00 37022895.00 L 13685468.69 37084305.00 L 13862851.72 37084305.00 L 13883562.57 37034304.57 L 13845598.00 36996340.00 A 222382.84 222382.84 0 0 1 13906954.00 36687886.00 L 13930783.00 36678015.71 L 13930783.00 36576220.00 L 14839443.00 36576220.00 L 14839443.00 36678246.84 L 14862714.00 36687886.00 A 222383.27 222383.27 0 0 1 14924070.00 36996340.00 L 14886105.43 37034304.57 L 14906816.28 37084305.00 L 16183413.60 37084305.00 L 16216822.89 37034304.48  zM 10298420.00 34542523.82 m -309333.68 0 a 309333.68 309333.68 0 1 1 618667.36 0a 309333.68 309333.68 0 1 1 -618667.36 0M 10298422.38 35723615.09 m -140500.91 0 a 140500.91 140500.91 0 1 1 281001.82 0a 140500.91 140500.91 0 1 1 -281001.82 0M 12061806.00 36620865.00 L 11448420.00 36620865.00 L 11448420.00 36007479.00 L 12061806.00 36007479.00 L 12061806.00 36620865.00  z"/>
<path id="N" d="M 17264185.73 37000028.37 A 1654927.79 1654927.79 0 0 0 18299231.37 34901156.27 L 18283223.25 34862509.89 L 18233223.00 34872455.72 L 18233223.00 34926455.00 L 18200018.00 35006619.00 L 18168052.00 35038585.00 L 18168052.00 35155904.00 L 18182941.00 35155904.00 L 18182941.00 35710234.00 L 17707351.00 35710234.00 L 17707351.00 35155904.00 L 17862174.00 35155904.00 L 17862174.00 35038585.00 L 17850556.00 35026967.00 L 17791720.00 35026967.00 L 17791720.00 35102781.00 L 17237390.00 35102781.00 L 17237390.00 34627191.00 L 17791720.00 34627191.00 L 17791720.00 34721089.00 L 17868640.00 34721089.00 L 17891564.00 34698165.00 A 222382.84 222382.84 0 0 1 18138662.00 34698165.00 L 18176843.94 34736346.94 L 18219231.99 34708023.97 L 18108171.03 34513725.30 L 17976404.16 34342002.16 L 17841720.43 34207318.43 L 17791720.00 34228029.28 L 17791720.00 34551600.00 L 17237390.00 34551600.00 L 17237390.00 34290284.76 L 17226029.10 34273281.96 L 17199975.00 34262490.00 L 17138619.00 34201134.00 L 17136612.01 34196288.71 L 17078607.63 34186911.37 L 17037546.00 34227973.00 A 222382.84 222382.84 0 0 1 16790448.00 33858163.00 L 16849960.04 33833512.32 L 16843203.40 33782191.06 L 15300309.00 33781835.00 L 15300309.00 34128708.76 L 15317958.58 34141310.30 L 15350309.50 34154542.50 L 15421728.00 34124960.00 L 15508498.00 34124960.00 L 15588662.00 34158165.00 L 15646444.61 34215947.61 L 15663176.67 34214256.59 L 15696445.00 34200948.79 L 15696445.00 34148582.00 A 222383.27 222383.27 0 0 1 16132665.00 34148582.00 L 16132665.00 34185352.00 L 16938848.00 34991535.00 L 16972001.00 35041152.00 L 16983643.00 35099679.00 L 16983643.00 35155904.00 L 17068499.00 35155904.00 L 17068499.00 35280131.00 L 17156170.00 35280131.00 L 17156170.00 35155904.00 L 17631760.00 35155904.00 L 17631760.00 35710234.00 L 17156170.00 35710234.00 L 17156170.00 35586009.00 L 17068499.00 35586009.00 L 17068499.00 35710234.00 L 16817788.23 35710234.00 L 16771963.78 35720314.85 L 16771963.00 35858739.00 L 17311405.00 35858739.00 L 17311405.00 36767399.00 L 17124957.00 36767399.00 L 17124957.00 36879729.10 L 17133223.00 36899685.00 L 17133223.00 36983355.29 L 17134759.80 36991656.01 L 17167260.91 37025999.20 L 17264185.73 37000028.37  z"/>
<path id="N" d="M 14845536.80 35448655.00 L 14921963.00 35448655.00 L 14921963.00 34739995.00 L 14837705.74 34739995.00 L 14836370.00 34733280.00 L 14810266.00 34694211.00 L 14771197.00 34668107.00 L 14753169.00 34664520.88 L 14753170.00 34632525.00 L 14750098.00 34625108.75 L 14750098.00 34227928.92 L 14918395.08 34059631.00 L 14934797.00 34059632.00 L 14944748.10 34055510.00 L 15200309.00 34055510.00 L 15200309.00 33779920.00 L 14845979.00 33779920.00 L 14845979.00 33978972.94 L 14657709.00 34167242.00 L 14641858.00 34205513.41 L 14641857.00 34629454.00 L 14644929.00 34636870.25 L 14644929.00 34690890.96 L 14639960.00 34694211.00 L 14613856.00 34733280.00 L 14612520.26 34739995.00 L 14528263.00 34739995.00 L 14528263.00 35448655.00 L 14604689.00 35448656.00 A 120431.73 120431.73 0 1 0 14845536.80 35448655.00  z"/>
<path id="N" d="M 11961806.00 36107479.00 L 11548420.00 36107479.00 L 11548420.00 36520865.00 L 11961806.00 36520865.00 L 11961806.00 36107479.00  zM 11755115.38 36314166.09 m -140500.91 0 a 140500.91 140500.91 0 1 1 281001.82 0a 140500.91 140500.91 0 1 1 -281001.82 0"/>
<path id="N" d="M 16914005.16 34043076.16 m -120412.98 0 a 120412.98 120412.98 0 1 1 240825.96 0a 120412.98 120412.98 0 1 1 -240825.96 0"/>
<path id="N" d="M 17691720.00 34176010.00 L 17413928.00 34176010.00 L 17403868.68 34165950.68 L 17408677.00 34162738.00 A 120431.73 120431.73 0 1 0 17277440.00 34188842.00 L 17297371.96 34192806.85 L 17311319.00 34226477.00 L 17337390.00 34252548.00 L 17337390.00 34451600.00 L 17691720.00 34451600.00 L 17691720.00 34176010.00  z"/>
<path id="N" d="M 11965855.00 35133070.00 L 11959272.19 35099976.64 L 12294052.22 34765196.00 L 12574215.00 34765196.00 L 12574215.00 34410866.00 L 12180515.00 34410866.00 L 12180515.00 34651658.78 L 11870554.48 34961618.74 L 11835760.00 34938370.00 A 210736.95 210736.95 0 1 0 11965855.00 35133070.00  zM 11755115.38 35133064.09 m -140500.91 0 a 140500.91 140500.91 0 1 1 281001.82 0a 140500.91 140500.91 0 1 1 -281001.82 0"/>
<path id="N" d="M 15546370.00 36189154.00 L 15547553.71 36183203.29 L 15632925.00 36097832.00 L 15659207.00 36097832.00 L 15659207.00 36254014.00 L 16033223.00 36254014.00 L 16033223.00 36097832.00 L 16278263.00 36097832.00 L 16278263.00 36174644.00 L 16671963.00 36174644.00 L 16671963.00 35820314.00 L 16278263.00 35820314.00 L 16278263.00 35897126.00 L 16033223.00 35897126.00 L 16033223.00 35879998.00 L 15659207.00 35879998.00 L 15659207.00 35897126.00 L 15591358.00 35897126.00 L 15552954.00 35904765.00 L 15520398.00 35926519.00 L 15421578.78 36025338.22 L 15389029.00 36031813.00 A 120412.98 120412.98 0 1 0 15546370.00 36189154.00  z"/>
<path id="N" d="M 18082941.00 35255904.00 L 18069233.00 35255904.00 L 18069233.00 34988957.74 L 18100266.00 34968223.00 A 120431.73 120431.73 0 1 0 17929960.00 34797917.00 L 17915266.69 34819908.00 L 17691720.00 34819908.00 L 17691720.00 34727191.00 L 17337390.00 34727191.00 L 17337390.00 35002781.00 L 17691720.00 35002781.00 L 17691720.00 34928148.00 L 17903655.89 34928148.00 L 17929960.00 34968223.00 L 17960993.00 34988957.74 L 17960993.00 35255904.00 L 17807351.00 35255904.00 L 17807351.00 35610234.00 L 18082941.00 35610234.00 L 18082941.00 35255904.00  z"/>
<path id="N" d="M 14739443.00 36993159.70 A 120068.51 120068.51 0 0 0 14739443.00 36752422.30 L 14739443.00 36676220.00 L 14030783.00 36676220.00 L 14030503.00 36752367.00 A 120431.73 120431.73 0 1 0 14030783.00 36993159.30 L 14030783.00 37069920.00 L 14739443.00 37069920.00 L 14739443.00 36993159.70  z"/>
<path id="N" d="M 14396370.00 34806986.00 L 14380466.00 34783183.01 L 14380466.00 34311416.00 L 14452278.00 34311416.00 L 14452278.00 34035826.00 L 14097948.00 34035826.00 L 14097948.00 34311416.00 L 14179760.00 34311416.00 L 14179760.00 34798149.68 L 14173856.00 34806986.00 A 120419.38 120419.38 0 1 0 14396370.00 34806986.00  z"/>
<path id="N" d="M 12453517.00 37080908.00 L 12459708.24 37076771.00 L 12651176.00 37076771.00 L 12651176.00 36819921.00 L 12179050.00 36819921.00 L 12179050.00 36827922.00 A 120431.73 120431.73 0 0 0 12179050.00 37068770.00 L 12179050.00 37076771.00 L 12370518.57 37076771.00 L 12376710.00 37080908.00 L 12415113.00 37088547.00 L 12453517.00 37080908.00  z"/>
<path id="N" d="M 15195121.16 35113078.16 m -120412.98 0 a 120412.98 120412.98 0 1 1 240825.96 0a 120412.98 120412.98 0 1 1 -240825.96 0"/>
<path id="N" d="M 15465121.16 34343078.16 m -120412.98 0 a 120412.98 120412.98 0 1 1 240825.96 0a 120412.98 120412.98 0 1 1 -240825.96 0"/>
</g>
</svg>
