<svg width="24.00000026mm" height="9.00001502mm" viewBox="0 0 9448819 3543313"  version="1.1" xmlns="http://www.w3.org/2000/svg" xmlns:xlink="http://www.w3.org/1999/xlink">
<desc>
Origin 9055113 35433070 Bound 9055108 33661411 9448819 3543313
</desc>
<g fill-rule="evenodd" fill="rgb(128, 0, 128)" stroke="black" stroke-width="1" transform="translate(0, 3543313) scale(1, -1) translate(-9055108, -33661411)">
<path id="N" d="M 16848393.00 33661416.00 L 13582665.00 33661415.00 L 13579297.00 33712803.00 A 393702.08 393702.08 0 0 1 12795270.00 33661410.00 L 11243302.00 33661411.00 L 11243302.00 33932287.00 L 11239141.00 33974532.00 A 216540.62 216540.62 0 0 1 10810230.00 33932286.00 L 10810232.00 33661411.00 L 9055108.00 33661416.00 L 9055108.00 37204724.00 L 10810232.00 37204724.00 L 10810231.00 36924407.00 L 10814391.00 36882163.00 A 216534.17 216534.17 0 0 1 11243302.00 36924407.00 L 11243304.00 37204724.00 L 12795265.00 37204724.00 L 12798633.00 37153335.00 A 393696.46 393696.46 0 0 1 13582667.00 37204724.00 L 16848393.00 37204724.00 A 1775412.26 1775412.26 0 0 0 16848393.00 33661416.00  zM 10298419.13 34542520.48 m -241327.52 0 a 241327.52 241327.52 0 1 1 482655.04 0a 241327.52 241327.52 0 1 1 -482655.04 0M 11755112.13 35133072.48 m -241327.52 0 a 241327.52 241327.52 0 1 1 482655.04 0a 241327.52 241327.52 0 1 1 -482655.04 0M 12614215.00 34175275.00 L 12140515.00 34175275.00 L 12140515.00 33740945.00 L 12614215.00 33740945.00 L 12614215.00 34175275.00  zM 12614215.00 34805196.00 L 12140515.00 34805196.00 L 12140515.00 34370866.00 L 12614215.00 34370866.00 L 12614215.00 34805196.00  zM 10298419.13 35723623.48 m -241327.52 0 a 241327.52 241327.52 0 1 1 482655.04 0a 241327.52 241327.52 0 1 1 -482655.04 0M 11991806.00 36550865.00 L 11518420.00 36550865.00 L 11518420.00 36077479.00 L 11991806.00 36077479.00 L 11991806.00 36550865.00  zM 12651176.00 36426219.00 L 12179050.00 36426219.00 L 12179050.00 36169369.00 L 12651176.00 36169369.00 L 12651176.00 36426219.00  zM 12651176.00 37076771.00 L 12179050.00 37076771.00 L 12179050.00 36819921.00 L 12651176.00 36819921.00 L 12651176.00 37076771.00  zM 13169885.00 34560551.00 L 12774925.00 34560551.00 L 12774925.00 34165591.00 L 13169885.00 34165591.00 L 13169885.00 34560551.00  zM 13799807.00 34560551.00 L 13404847.00 34560551.00 L 13404847.00 34165591.00 L 13799807.00 34165591.00 L 13799807.00 34560551.00  zM 14492278.00 34351416.00 L 14057948.00 34351416.00 L 14057948.00 33995826.00 L 14492278.00 33995826.00 L 14492278.00 34351416.00  zM 14921963.00 35448655.00 L 14528263.00 35448655.00 L 14528263.00 34739995.00 L 14921963.00 34739995.00 L 14921963.00 35448655.00  zM 13188965.50 35433074.77 m -435161.67 0 a 435161.67 435161.67 0 1 1 870323.34 0a 435161.67 435161.67 0 1 1 -870323.34 0M 14739444.00 36363069.00 L 14030784.00 36363069.00 L 14030784.00 35969369.00 L 14739444.00 35969369.00 L 14739444.00 36363069.00  zM 14739443.00 37069920.00 L 14030783.00 37069920.00 L 14030783.00 36676220.00 L 14739443.00 36676220.00 L 14739443.00 37069920.00  zM 15240309.00 34095510.00 L 14805979.00 34095510.00 L 14805979.00 33739920.00 L 15240309.00 33739920.00 L 15240309.00 34095510.00  zM 15240309.00 34607321.00 L 14805979.00 34607321.00 L 14805979.00 34251731.00 L 15240309.00 34251731.00 L 15240309.00 34607321.00  zM 15896444.00 35448654.00 L 15502744.00 35448654.00 L 15502744.00 34739994.00 L 15896444.00 34739994.00 L 15896444.00 35448654.00  zM 16457318.00 35650234.00 L 16101728.00 35650234.00 L 16101728.00 35215904.00 L 16457318.00 35215904.00 L 16457318.00 35650234.00  zM 16033223.00 36254014.00 L 15659207.00 36254014.00 L 15659207.00 35879998.00 L 16033223.00 35879998.00 L 16033223.00 36254014.00  zM 16033223.00 36746140.00 L 15659207.00 36746140.00 L 15659207.00 36372124.00 L 16033223.00 36372124.00 L 16033223.00 36746140.00  zM 16711963.00 36746140.00 L 16238263.00 36746140.00 L 16238263.00 36311810.00 L 16711963.00 36311810.00 L 16711963.00 36746140.00  zM 17731720.00 34491600.00 L 17297390.00 34491600.00 L 17297390.00 34136010.00 L 17731720.00 34136010.00 L 17731720.00 34491600.00  zM 17731720.00 35042781.00 L 17297390.00 35042781.00 L 17297390.00 34687191.00 L 17731720.00 34687191.00 L 17731720.00 35042781.00  zM 17571760.00 35650234.00 L 17216170.00 35650234.00 L 17216170.00 35215904.00 L 17571760.00 35215904.00 L 17571760.00 35650234.00  zM 18122941.00 35650234.00 L 17767351.00 35650234.00 L 17767351.00 35215904.00 L 18122941.00 35215904.00 L 18122941.00 35650234.00  zM 17008499.00 35650234.00 L 16652909.00 35650234.00 L 16652909.00 35215904.00 L 17008499.00 35215904.00 L 17008499.00 35650234.00  zM 16711963.00 36214644.00 L 16238263.00 36214644.00 L 16238263.00 35780314.00 L 16711963.00 35780314.00 L 16711963.00 36214644.00  zM 17211405.00 36667399.00 L 16817705.00 36667399.00 L 16817705.00 35958739.00 L 17211405.00 35958739.00 L 17211405.00 36667399.00  z"/>
</g>
</svg>
