<svg width="22.00000172mm" height="9.00000232mm" viewBox="0 0 8661418 3543308"  version="1.1" xmlns="http://www.w3.org/2000/svg" xmlns:xlink="http://www.w3.org/1999/xlink">
<desc>
Origin 9055113 35433070 Bound 9055113 33661416 8661418 3543308
</desc>
<g fill-rule="evenodd" fill="rgb(255, 0, 0)" stroke="black" stroke-width="1" transform="translate(0, 3543308) scale(1, -1) translate(-9055113, -33661416)">
<path id="N" d="M 16859444.00 35653494.00 A 120431.73 120431.73 0 1 0 16859443.00 35412646.20 L 16859443.00 35336220.00 L 16150783.00 35336220.00 L 16150782.00 35412646.00 L 16114176.69 35419927.50 L 15803823.00 35109573.04 L 15803823.00 34296067.74 L 15834856.00 34275333.00 A 120431.73 120431.73 0 1 0 15664550.00 34275333.00 L 15695583.00 34296067.74 L 15695582.00 35131991.00 L 15711434.00 35170260.00 L 16037639.50 35496464.69 L 16030358.00 35533070.00 A 120431.73 120431.73 0 0 0 16150783.00 35653493.80 L 16150783.00 35729920.00 L 16859443.00 35729920.00 L 16859444.00 35653494.00  z"/>
<path id="N" d="M 16425980.00 36537008.00 L 16342305.00 36537008.00 L 16342305.00 36310235.00 L 16425980.00 36310235.00 L 16425980.00 36187190.00 L 16615113.00 36187191.00 L 16653382.00 36171339.00 L 16718508.37 36106212.63 L 16755113.00 36113494.00 A 120431.73 120431.73 0 1 0 16634689.00 35993070.00 L 16641970.37 36029674.63 L 16592695.00 36078950.00 L 16425980.00 36078950.00 L 16425980.00 35955905.00 L 16150390.00 35955905.00 L 16150390.00 36310235.00 L 16234065.00 36310235.00 L 16234065.00 36537008.00 L 16150390.00 36537008.00 L 16150390.00 36891338.00 L 16425980.00 36891338.00 L 16425980.00 36537008.00  z"/>
<path id="N" d="M 10298422.29 34542520.29 m -210738.62 0 a 210738.62 210738.62 0 1 1 421477.24 0a 210738.62 210738.62 0 1 1 -421477.24 0M 10298422.38 34542512.09 m -140500.91 0 a 140500.91 140500.91 0 1 1 281001.82 0a 140500.91 140500.91 0 1 1 -281001.82 0"/>
<path id="N" d="M 15209444.00 35553494.00 A 120431.73 120431.73 0 1 0 15209443.00 35312646.20 L 15209443.00 35236220.00 L 14500783.00 35236220.00 L 14500782.00 35312646.00 A 120431.73 120431.73 0 1 0 14500783.00 35553493.80 L 14500783.00 35629920.00 L 15209443.00 35629920.00 L 15209444.00 35553494.00  z"/>
<path id="N" d="M 13203144.00 36801180.00 L 12848814.00 36801180.00 L 12848813.00 36818551.00 A 120431.73 120431.73 0 1 0 12848814.00 37059398.80 L 12848814.00 37076770.00 L 13203144.00 37076770.00 L 13203144.00 36801180.00  z"/>
<path id="N" d="M 13067317.00 34136220.00 L 12944272.00 34136219.00 L 12928419.29 34097949.29 L 12810312.00 33979841.00 L 12772040.59 33963990.00 L 12512593.00 33963990.00 L 12512593.00 33860630.00 L 12197633.00 33860630.00 L 12197633.00 34175590.00 L 12512593.00 34175590.00 L 12512593.00 34072230.00 L 12749625.13 34072230.00 L 12813615.68 34136220.00 L 12712987.00 34136220.00 L 12712987.00 34529920.00 L 13067317.00 34529920.00 L 13067317.00 34136220.00  z"/>
<path id="N" d="M 16360555.80 34613191.78 L 16357486.00 34587309.00 L 16357486.00 34574488.00 L 16359445.00 34574488.00 L 16359445.00 34220158.00 L 16357486.00 34220158.00 L 16357486.00 34128071.20 L 16355912.00 34120158.00 L 16355912.00 33912394.00 L 16358613.94 33890708.50 L 16348907.55 33866087.04 L 16337984.84 33851469.55 L 16325205.53 33840708.00 L 16045077.00 33840708.00 L 15876880.65 34008903.65 L 15934608.00 34066631.00 L 15967813.00 34146795.00 L 15967813.00 34220158.00 L 15965745.00 34220158.00 L 15965745.00 34238557.60 L 15934608.00 34313729.00 L 15902642.00 34345695.00 L 15902642.00 34651654.00 L 16328606.96 34651654.00 L 16360555.80 34613191.78  z"/>
<path id="N" d="M 16267707.85 37056051.21 L 16322618.13 37041338.17 L 16316035.53 36991338.00 L 16050390.00 36991338.00 L 16050783.00 35727729.72 L 16027233.00 35717975.00 L 15965877.00 35656619.00 L 15932672.00 35576455.00 L 15932672.00 35531248.00 L 15641559.00 35240135.00 L 15608406.00 35190518.00 L 15596764.00 35131991.00 L 15596764.00 34345695.00 L 15564798.00 34313729.00 A 222382.84 222382.84 0 0 1 15706318.00 33972070.00 L 15782248.58 33972070.00 L 15804785.00 33936808.00 L 15913563.60 33828029.40 L 15894429.25 33781835.00 L 15068476.28 33781835.00 L 15047765.43 33831835.43 L 15075451.00 33859521.00 A 222382.84 222382.84 0 0 1 15014095.00 34167975.00 L 14990545.00 34177729.72 L 14990545.00 34279920.00 L 14081885.00 34279920.00 L 14081885.00 34177729.72 L 14058335.00 34167975.00 A 222383.27 222383.27 0 0 1 13996979.00 33859521.00 L 14024664.57 33831835.43 L 14003953.72 33781835.00 L 12612593.00 33781835.00 L 12612593.00 33865171.00 L 12772043.00 33865171.00 L 12830570.00 33876813.00 L 12880187.00 33909966.00 L 12998296.00 34028075.00 L 13003738.31 34036220.00 L 13167317.00 34036220.00 L 13167317.00 34629920.00 L 12612987.00 34629920.00 L 12612592.00 34275590.00 L 12097633.00 34275590.00 L 12097633.00 33781835.00 L 11358260.63 33781835.00 L 11327551.54 33831835.53 L 11343302.00 33890615.00 A 319256.99 319256.99 0 1 1 10710232.00 33890615.00 L 10725982.46 33831835.53 L 10695273.37 33781835.00 L 9175532.00 33781835.00 L 9175532.00 37084305.00 L 10702520.12 37084305.00 L 10728513.06 37034304.48 L 10710232.00 36966081.00 A 319256.99 319256.99 0 1 1 11343302.00 36966081.00 L 11325020.94 37034304.48 L 11351013.88 37084305.00 L 12036173.94 37084305.00 L 12046119.61 37034304.75 L 11977233.00 37005771.00 A 222383.27 222383.27 0 0 1 11915877.00 36697317.00 L 11942328.57 36670865.43 L 11921617.72 36620865.00 L 11448420.00 36620865.00 L 11448420.00 36007479.00 L 12009353.87 36007479.00 L 12019050.00 35961494.22 L 12019050.00 35504645.00 L 12691175.01 35504644.83 L 12706688.00 35461069.77 L 12706688.00 35355517.00 A 791201.40 791201.40 0 0 1 13121115.00 34735283.00 L 13254772.45 34679920.25 L 13244826.78 34629920.00 L 13242908.00 34629920.00 L 13242908.00 34036220.00 L 13502579.28 34036220.00 L 13512334.00 34012670.00 A 222383.27 222383.27 0 1 1 13820788.00 34321124.00 L 13797238.00 34330878.72 L 13797238.00 34629920.00 L 13743352.22 34629920.00 L 13733406.55 34679920.25 L 13867064.00 34735283.00 A 791199.00 791199.00 0 0 1 14251232.00 35203393.00 L 14268908.37 35292256.18 L 14292178.16 35300809.37 L 14322087.35 35303310.65 L 14377233.00 35248165.00 L 14400783.00 35238410.28 L 14400783.00 35136220.00 L 15309443.00 35136220.00 L 15309443.00 35238410.28 L 15332993.00 35248165.00 A 222383.27 222383.27 0 0 1 15332993.00 35617975.00 L 15309443.00 35627729.72 L 15309443.00 35729920.00 L 14400783.00 35729920.00 L 14400783.00 35627729.72 L 14377233.00 35617975.00 L 14322087.19 35562829.19 L 14292178.44 35565330.34 L 14268908.23 35573883.50 L 14251232.00 35662746.00 L 14200087.58 35786219.49 L 14227028.73 35836220.00 L 15049600.00 35836220.00 L 15049600.00 35961644.00 L 15094839.00 36006883.00 A 222382.84 222382.84 0 0 1 15094839.00 36253981.00 L 15049600.00 36299220.00 L 15049600.00 36348583.86 L 15084311.00 36371777.00 L 15273768.00 36561234.00 L 15463853.01 36561234.00 L 15499208.78 36525878.01 L 15499209.00 36183072.00 L 15599209.00 36183072.00 L 15599209.00 36310235.00 L 15874799.00 36310235.00 L 15874799.00 36183072.00 L 15974799.20 36183072.00 L 15974799.00 36991338.00 L 15499209.00 36991338.00 L 15499209.00 36867112.00 L 15210419.00 36867112.00 L 15151892.00 36855470.00 L 15119716.36 36833970.93 L 15061351.51 36844218.48 L 15050018.00 36871580.00 A 222383.27 222383.27 0 0 1 14821728.00 36966141.00 L 14768499.52 36944093.05 L 14718499.00 36975199.72 L 14718499.00 37084305.00 L 16053101.54 37084305.00 L 16267707.85 37056051.21  zM 10298420.00 34542523.82 m -309333.68 0 a 309333.68 309333.68 0 1 1 618667.36 0a 309333.68 309333.68 0 1 1 -618667.36 0M 10298422.38 35723615.09 m -140500.91 0 a 140500.91 140500.91 0 1 1 281001.82 0a 140500.91 140500.91 0 1 1 -281001.82 0M 11755113.00 35133075.82 m -309333.68 0 a 309333.68 309333.68 0 1 1 618667.36 0a 309333.68 309333.68 0 1 1 -618667.36 0M 15599209.00 36083072.00 L 15499209.00 36083072.00 L 15499209.00 35855905.00 L 15687002.00 35855905.00 L 15687002.00 35955905.00 L 15599209.00 35955905.00 L 15599209.00 36083072.00  zM 15974799.14 36083072.00 L 15874799.00 36083072.00 L 15874799.00 35955905.00 L 15787002.00 35955905.00 L 15787002.00 35855905.00 L 15974799.00 35855905.00 L 15974799.14 36083072.00  z"/>
<path id="N" d="M 16676764.61 36917194.66 A 1654711.27 1654711.27 0 0 0 17596112.00 35324844.46 L 17577588.53 35184146.40 L 17526267.23 35177389.87 L 17510018.00 35216619.00 A 222383.27 222383.27 0 0 1 17107003.29 35136455.71 L 17092121.54 35133132.67 L 17042121.00 35171209.76 L 17042121.00 35207738.00 L 16997645.90 35207738.00 L 16959443.00 35236220.95 L 16959443.00 35338410.28 L 16982993.00 35348165.00 A 222383.27 222383.27 0 0 1 16982993.00 35717975.00 L 16959443.00 35727729.72 L 16959443.80 35829919.40 L 16944325.61 35879920.49 L 16973223.00 35949685.00 A 222382.84 222382.84 0 0 1 16798498.00 36211180.00 L 16753291.00 36211180.00 L 16723257.00 36241214.00 L 16673640.00 36274367.00 L 16615113.00 36286009.00 L 16525980.00 36286009.00 L 16525980.00 36934653.17 L 16567554.09 36962431.91 L 16676764.61 36917194.66  z"/>
<path id="N" d="M 13691728.00 36945235.72 L 13668178.00 36935481.00 A 222383.27 222383.27 0 1 1 13915276.00 36565671.00 L 13925510.00 36575905.00 L 13951030.00 36575905.00 L 14140940.00 36385995.00 L 14140940.00 36266143.00 L 14118290.00 36243493.00 A 222382.84 222382.84 0 0 1 14118289.71 35996395.71 L 14117135.06 35994290.38 L 14055261.50 35985452.50 L 13996029.00 36044685.00 A 791226.30 791226.30 0 0 1 13416537.00 36220472.00 L 13341795.13 36205604.60 L 13303144.00 36237324.63 L 13303144.00 37084305.00 L 13691728.00 37084305.00 L 13691728.00 36945235.72  z"/>
<path id="N" d="M 17511835.11 34901155.64 A 1654914.83 1654914.83 0 0 0 16676761.19 33948942.92 L 16507871.52 33878985.35 L 16493486.09 33883206.94 L 16457871.00 33912394.41 L 16457871.00 34120158.00 L 16459445.00 34120158.00 L 16459445.00 34587308.59 L 16468106.00 34633722.00 L 17042121.00 34633722.00 L 17042121.00 34767791.00 L 17118289.00 34767791.00 L 17176816.00 34779433.00 L 17226433.00 34812586.00 L 17288807.36 34874960.00 L 17368498.00 34874960.00 L 17448662.00 34908165.00 L 17466812.63 34926315.63 L 17511835.11 34901155.64  z"/>
<path id="N" d="M 13203144.00 36289369.00 L 12848814.00 36289369.00 L 12848813.00 36306740.00 L 12801330.83 36316841.19 L 12760393.00 36275903.00 L 12722121.59 36260052.00 L 11961806.00 36260052.00 L 11961806.00 36107479.00 L 11548420.00 36107479.00 L 11548420.00 36520865.00 L 11961806.00 36520865.00 L 11961806.00 36368292.00 L 12699706.14 36368292.00 L 12733397.90 36401983.46 L 12728389.00 36427164.00 A 120431.73 120431.73 0 0 0 12848814.00 36547587.80 L 12848814.00 36564959.00 L 13203144.00 36564959.00 L 13203144.00 36289369.00  zM 11755115.38 36314166.09 m -140500.91 0 a 140500.91 140500.91 0 1 1 281001.82 0a 140500.91 140500.91 0 1 1 -281001.82 0"/>
<path id="N" d="M 14949600.00 36242965.66 L 14956018.00 36241689.00 A 120412.98 120412.98 0 0 0 14956018.00 36019175.00 L 14949600.00 36017898.34 L 14949600.00 35936220.00 L 14240940.00 35936220.00 L 14240940.00 36019491.67 L 14218042.00 36034791.00 A 120431.73 120431.73 0 0 0 14218042.00 36205097.00 L 14240940.00 36220396.33 L 14240940.00 36329920.00 L 14949600.00 36329920.00 L 14949600.00 36242965.66  z"/>
<path id="N" d="M 14618499.00 36827190.00 L 14775955.10 36827190.00 L 14779960.00 36833184.00 A 120431.73 120431.73 0 1 0 14753856.00 36701947.00 L 14750473.77 36718950.00 L 14618499.00 36718950.00 L 14618499.00 36675905.00 L 14342909.00 36675905.00 L 14342909.00 37030235.00 L 14618499.00 37030235.00 L 14618499.00 36827190.00  z"/>
<path id="N" d="M 17279029.00 34981813.00 L 17265169.57 34991073.20 L 17156558.00 34882461.00 L 17118286.59 34866610.00 L 16942121.00 34866610.00 L 16942121.00 34733722.00 L 16568105.00 34733722.00 L 16568105.00 34874699.00 L 16359445.00 34874699.00 L 16359445.00 34751654.00 L 15965745.00 34751654.00 L 15965745.00 35105984.00 L 16359445.00 35105984.00 L 16359445.00 34982939.00 L 16568105.00 34982939.00 L 16568105.00 35107738.00 L 16942121.00 35107738.00 L 16942121.00 34974850.00 L 17095871.09 34974850.00 L 17206249.06 35085227.33 L 17204689.00 35093070.00 A 120431.73 120431.73 0 1 0 17279029.00 34981813.00  z"/>
<path id="N" d="M 11755115.29 35133072.29 m -210738.62 0 a 210738.62 210738.62 0 1 1 421477.24 0a 210738.62 210738.62 0 1 1 -421477.24 0M 11755115.38 35133064.09 m -140500.91 0 a 140500.91 140500.91 0 1 1 281001.82 0a 140500.91 140500.91 0 1 1 -281001.82 0"/>
<path id="N" d="M 14067318.00 36752442.70 L 14285719.05 36534041.00 L 14953749.07 36534041.00 L 15172150.00 36752442.00 L 15210419.00 36768293.00 L 15599209.00 36768293.00 L 15599209.00 36891338.00 L 15874799.00 36891338.00 L 15874799.00 36537008.00 L 15599209.00 36537008.00 L 15599209.00 36660053.00 L 15232836.07 36660053.00 L 15014436.00 36441652.00 L 14976164.59 36425801.00 L 14263302.00 36425800.00 L 14225032.29 36441653.71 L 13990780.30 36675905.00 L 13883883.56 36675905.00 L 13876880.00 36665423.00 A 120431.73 120431.73 0 1 0 13791728.00 36870999.80 L 13791728.00 37030235.00 L 14067318.00 37030235.00 L 14067318.00 36752442.70  z"/>
<path id="N" d="M 14890546.00 34103494.00 A 120431.73 120431.73 0 1 0 14890545.00 33862646.20 L 14890545.00 33786220.00 L 14181885.00 33786220.00 L 14181884.00 33862646.00 A 120431.73 120431.73 0 1 0 14181885.00 34103493.80 L 14181885.00 34179920.00 L 14890545.00 34179920.00 L 14890546.00 34103494.00  z"/>
<path id="N" d="M 13697239.00 34256643.00 A 120431.73 120431.73 0 1 0 13576815.20 34136220.00 L 13342908.00 34136220.00 L 13342908.00 34529920.00 L 13697238.00 34529920.00 L 13697239.00 34256643.00  z"/>
<path id="N" d="M 12221205.80 36820865.00 L 12455113.00 36820865.00 L 12455113.00 36545275.00 L 12100783.00 36545275.00 L 12100782.00 36700442.00 A 120431.73 120431.73 0 1 0 12221205.80 36820865.00  z"/>
<path id="N" d="M 12591176.00 35741071.00 L 12591176.00 35604645.00 L 12119050.00 35604645.00 L 12119050.00 35861495.00 L 12470752.00 35861495.00 A 120431.73 120431.73 0 1 0 12591176.00 35741071.00  z"/>
</g>
</svg>
