<svg width="24.00000026mm" height="9.00001502mm" viewBox="0 0 9448819 3543313"  version="1.1" xmlns="http://www.w3.org/2000/svg" xmlns:xlink="http://www.w3.org/1999/xlink">
<desc>
Origin 9055113 35433070 Bound 9055108 33661411 9448819 3543313
</desc>
<g fill-rule="evenodd" fill="rgb(128, 128, 0)" stroke="black" stroke-width="1" transform="translate(0, 3543313) scale(1, -1) translate(-9055108, -33661411)">
<path id="N" d="M 15059953.00 35542730.00 L 15055361.00 35500746.00 L 15046177.00 35470570.00 L 15031417.00 35449906.00 L 15016657.00 35437442.00 L 14999273.00 35428586.00 L 14964833.00 35420714.00 L 14932361.00 35419074.00 L 14898577.00 35423994.00 A 89819.23 89819.23 0 0 0 14828713.00 35489922.00 L 14822809.00 35530922.00 L 14821825.00 35726410.00 L 14861841.00 35726410.00 L 14861841.00 35551586.00 L 14864793.00 35515506.00 L 14871353.00 35491890.00 L 14880865.00 35474834.00 L 14893657.00 35465650.00 L 14919241.00 35457450.00 L 14943841.00 35454826.00 L 14969097.00 35458106.00 A 55150.33 55150.33 0 0 1 15014033.00 35497138.00 L 15018953.00 35529610.00 L 15019937.00 35726410.00 L 15059953.00 35726410.00 L 15059953.00 35542730.00  z"/>
<path id="N" d="M 15480697.95 36483069.95 m -101959.21 0 a 101959.21 101959.21 0 1 1 203918.42 0a 101959.21 101959.21 0 1 1 -203918.42 0"/>
<path id="N" d="M 14658481.00 35719850.00 L 14679473.00 35694266.00 L 14705713.00 35672618.00 L 14741793.00 35651298.00 L 14741793.00 35615546.00 L 14735233.00 35618170.00 L 14694889.00 35639490.00 L 14667337.00 35660154.00 L 14667337.00 35423666.00 L 14630273.00 35423666.00 L 14630273.00 35727394.00 L 14654217.00 35727394.00 L 14658481.00 35719850.00  z"/>
<path id="N" d="M 17702516.00 36276030.00 L 17712027.00 36253069.00 L 17712027.00 34613069.00 L 17702516.00 34590108.00 L 17679555.00 34580597.00 L 17656594.00 34590108.00 L 17647083.00 34613069.00 L 17647083.00 36253069.00 L 17656594.00 36276030.00 L 17679555.00 36285541.00 L 17702516.00 36276030.00  z"/>
<path id="N" d="M 15672516.00 36276030.00 L 15682027.00 36253069.00 L 15682027.00 34613069.00 L 15672516.00 34590108.00 L 15649555.00 34580597.00 L 15626594.00 34590108.00 L 15617083.00 34613069.00 L 15617083.00 36253069.00 L 15626594.00 36276030.00 L 15649555.00 36285541.00 L 15672516.00 36276030.00  z"/>
</g>
</svg>
