<svg width="22.00000172mm" height="9.00000232mm" viewBox="0 0 8661418 3543308"  version="1.1" xmlns="http://www.w3.org/2000/svg" xmlns:xlink="http://www.w3.org/1999/xlink">
<desc>
Origin 9055113 35433070 Bound 9055113 33661416 8661418 3543308
</desc>
<g fill-rule="evenodd" fill="rgb(128, 0, 128)" stroke="black" stroke-width="1" transform="translate(0, 3543308) scale(1, -1) translate(-9055113, -33661416)">
<path id="N" d="M 16060997.00 33661416.00 L 9055113.00 33661416.00 L 9055113.00 37204724.00 L 16060997.00 37204724.00 A 1775412.26 1775412.26 0 0 0 16060997.00 33661416.00  zM 10298419.13 34542520.48 m -241327.52 0 a 241327.52 241327.52 0 1 1 482655.04 0a 241327.52 241327.52 0 1 1 -482655.04 0M 11026767.52 33932286.25 m -251366.75 0 a 251366.75 251366.75 0 1 1 502733.51 0a 251366.75 251366.75 0 1 1 -502733.51 0M 11755112.13 35133072.48 m -241327.52 0 a 241327.52 241327.52 0 1 1 482655.04 0a 241327.52 241327.52 0 1 1 -482655.04 0M 12591176.00 35210943.00 L 12119050.00 35210943.00 L 12119050.00 34954093.00 L 12591176.00 34954093.00 L 12591176.00 35210943.00  zM 10298419.13 35723623.48 m -241327.52 0 a 241327.52 241327.52 0 1 1 482655.04 0a 241327.52 241327.52 0 1 1 -482655.04 0M 11026767.52 36924406.25 m -251366.75 0 a 251366.75 251366.75 0 1 1 502733.51 0a 251366.75 251366.75 0 1 1 -502733.51 0M 11991806.00 36550865.00 L 11518420.00 36550865.00 L 11518420.00 36077479.00 L 11991806.00 36077479.00 L 11991806.00 36550865.00  zM 12495113.00 36860865.00 L 12060783.00 36860865.00 L 12060783.00 36505275.00 L 12495113.00 36505275.00 L 12495113.00 36860865.00  zM 12552593.00 34215590.00 L 12157633.00 34215590.00 L 12157633.00 33820630.00 L 12552593.00 33820630.00 L 12552593.00 34215590.00  zM 12552593.00 34845512.00 L 12157633.00 34845512.00 L 12157633.00 34450552.00 L 12552593.00 34450552.00 L 12552593.00 34845512.00  zM 13107317.00 34569920.00 L 12672987.00 34569920.00 L 12672987.00 34096220.00 L 13107317.00 34096220.00 L 13107317.00 34569920.00  zM 13737238.00 34569920.00 L 13302908.00 34569920.00 L 13302908.00 34096220.00 L 13737238.00 34096220.00 L 13737238.00 34569920.00  zM 12591176.00 35861495.00 L 12119050.00 35861495.00 L 12119050.00 35604645.00 L 12591176.00 35604645.00 L 12591176.00 35861495.00  zM 13494089.50 35433074.77 m -435161.67 0 a 435161.67 435161.67 0 1 1 870323.34 0a 435161.67 435161.67 0 1 1 -870323.34 0M 13243144.00 36604959.00 L 12808814.00 36604959.00 L 12808814.00 36249369.00 L 13243144.00 36249369.00 L 13243144.00 36604959.00  zM 13243144.00 37116770.00 L 12808814.00 37116770.00 L 12808814.00 36761180.00 L 13243144.00 36761180.00 L 13243144.00 37116770.00  zM 14890545.00 34179920.00 L 14181885.00 34179920.00 L 14181885.00 33786220.00 L 14890545.00 33786220.00 L 14890545.00 34179920.00  zM 14890546.00 34879920.00 L 14181886.00 34879920.00 L 14181886.00 34486220.00 L 14890546.00 34486220.00 L 14890546.00 34879920.00  zM 15209443.00 35629920.00 L 14500783.00 35629920.00 L 14500783.00 35236220.00 L 15209443.00 35236220.00 L 15209443.00 35629920.00  zM 16399445.00 35145984.00 L 15925745.00 35145984.00 L 15925745.00 34711654.00 L 16399445.00 34711654.00 L 16399445.00 35145984.00  zM 16399445.00 34614488.00 L 15925745.00 34614488.00 L 15925745.00 34180158.00 L 16399445.00 34180158.00 L 16399445.00 34614488.00  zM 16942121.00 34615612.00 L 16568105.00 34615612.00 L 16568105.00 34241596.00 L 16942121.00 34241596.00 L 16942121.00 34615612.00  zM 16942121.00 35107738.00 L 16568105.00 35107738.00 L 16568105.00 34733722.00 L 16942121.00 34733722.00 L 16942121.00 35107738.00  zM 16859443.00 35729920.00 L 16150783.00 35729920.00 L 16150783.00 35336220.00 L 16859443.00 35336220.00 L 16859443.00 35729920.00  zM 14107318.00 37070235.00 L 13751728.00 37070235.00 L 13751728.00 36635905.00 L 14107318.00 36635905.00 L 14107318.00 37070235.00  zM 14658499.00 37070235.00 L 14302909.00 37070235.00 L 14302909.00 36635905.00 L 14658499.00 36635905.00 L 14658499.00 37070235.00  zM 14949600.00 36329920.00 L 14240940.00 36329920.00 L 14240940.00 35936220.00 L 14949600.00 35936220.00 L 14949600.00 36329920.00  zM 15914799.00 36931338.00 L 15559209.00 36931338.00 L 15559209.00 36497008.00 L 15914799.00 36497008.00 L 15914799.00 36931338.00  zM 15914799.00 36350235.00 L 15559209.00 36350235.00 L 15559209.00 35915905.00 L 15914799.00 35915905.00 L 15914799.00 36350235.00  zM 16465980.00 36350235.00 L 16110390.00 36350235.00 L 16110390.00 35915905.00 L 16465980.00 35915905.00 L 16465980.00 36350235.00  zM 16465980.00 36931338.00 L 16110390.00 36931338.00 L 16110390.00 36497008.00 L 16465980.00 36497008.00 L 16465980.00 36931338.00  z"/>
</g>
</svg>
