<svg width="24.00000026mm" height="9.00001502mm" viewBox="0 0 9448819 3543313"  version="1.1" xmlns="http://www.w3.org/2000/svg" xmlns:xlink="http://www.w3.org/1999/xlink">
<desc>
Origin 9055113 35433070 Bound 9055108 33661411 9448819 3543313
</desc>
<g fill-rule="evenodd" fill="rgb(255, 0, 255)" stroke="black" stroke-width="1" transform="translate(0, 3543313) scale(1, -1) translate(-9055108, -33661411)">
<path id="N" d="M 16848393.00 33661416.00 L 13582665.00 33661415.00 L 13579297.00 33712803.00 A 393702.08 393702.08 0 0 1 12795270.00 33661410.00 L 11243302.00 33661411.00 L 11243302.00 33932287.00 L 11239141.00 33974532.00 A 216540.62 216540.62 0 0 1 10810230.00 33932286.00 L 10810232.00 33661411.00 L 9055108.00 33661416.00 L 9055108.00 37204724.00 L 10810232.00 37204724.00 L 10810231.00 36924407.00 L 10814391.00 36882163.00 A 216534.17 216534.17 0 0 1 11243302.00 36924407.00 L 11243304.00 37204724.00 L 12795265.00 37204724.00 L 12798633.00 37153335.00 A 393696.46 393696.46 0 0 1 13582667.00 37204724.00 L 16848393.00 37204724.00 A 1775412.26 1775412.26 0 0 0 16848393.00 33661416.00  zM 10298419.13 34542520.48 m -241327.52 0 a 241327.52 241327.52 0 1 1 482655.04 0a 241327.52 241327.52 0 1 1 -482655.04 0M 11755112.13 35133072.48 m -241327.52 0 a 241327.52 241327.52 0 1 1 482655.04 0a 241327.52 241327.52 0 1 1 -482655.04 0M 10298419.13 35723623.48 m -241327.52 0 a 241327.52 241327.52 0 1 1 482655.04 0a 241327.52 241327.52 0 1 1 -482655.04 0M 11991806.00 36550865.00 L 11518420.00 36550865.00 L 11518420.00 36077479.00 L 11991806.00 36077479.00 L 11991806.00 36550865.00  zM 13188965.50 35433074.77 m -435161.67 0 a 435161.67 435161.67 0 1 1 870323.34 0a 435161.67 435161.67 0 1 1 -870323.34 0M 16014555.00 36674171.00 L 15814555.00 36674171.00 L 15814555.00 36203069.00 L 16014555.00 36203069.00 L 16014555.00 36674171.00  zM 16014555.00 34663069.00 L 15814555.00 34663069.00 L 15814555.00 34191967.00 L 16014555.00 34191967.00 L 16014555.00 34663069.00  zM 16514555.00 34663069.00 L 16314555.00 34663069.00 L 16314555.00 34191967.00 L 16514555.00 34191967.00 L 16514555.00 34663069.00  zM 17014555.00 34663069.00 L 16814555.00 34663069.00 L 16814555.00 34191967.00 L 17014555.00 34191967.00 L 17014555.00 34663069.00  zM 17514555.00 34663069.00 L 17314555.00 34663069.00 L 17314555.00 34191967.00 L 17514555.00 34191967.00 L 17514555.00 34663069.00  zM 16514555.00 36674171.00 L 16314555.00 36674171.00 L 16314555.00 36203069.00 L 16514555.00 36203069.00 L 16514555.00 36674171.00  zM 17014555.00 36674171.00 L 16814555.00 36674171.00 L 16814555.00 36203069.00 L 17014555.00 36203069.00 L 17014555.00 36674171.00  zM 17514555.00 36674171.00 L 17314555.00 36674171.00 L 17314555.00 36203069.00 L 17514555.00 36203069.00 L 17514555.00 36674171.00  z"/>
</g>
</svg>
