<svg width="24.00000026mm" height="9.00001502mm" viewBox="0 0 9448819 3543313"  version="1.1" xmlns="http://www.w3.org/2000/svg" xmlns:xlink="http://www.w3.org/1999/xlink">
<desc>
Origin 9055113 35433070 Bound 9055108 33661411 9448819 3543313
</desc>
<g fill-rule="evenodd" fill="rgb(0, 0, 255)" stroke="black" stroke-width="1" transform="translate(0, 3543313) scale(1, -1) translate(-9055108, -33661411)">
<path id="N" d="M 17026370.00 36896986.00 L 17015466.00 36880666.34 L 17014555.00 36203069.00 L 16814555.00 36203069.00 L 16814760.00 36880666.34 L 16803856.00 36896986.00 A 120419.38 120419.38 0 1 0 17026370.00 36896986.00  z"/>
<path id="N" d="M 16014555.00 34254898.98 L 16025812.00 34238051.00 A 120419.38 120419.38 0 1 0 15803298.00 34238051.00 L 15814555.00 34254898.98 L 15814555.00 34663069.00 L 16014555.00 34663069.00 L 16014555.00 34254898.98  z"/>
<path id="N" d="M 16379295.00 35051339.00 L 16452824.00 34977810.00 L 16468675.00 34939538.59 L 16468675.00 34663069.00 L 16514555.00 34663069.00 L 16514555.00 34191967.00 L 16314555.00 34191967.00 L 16314555.00 34663069.00 L 16360435.00 34663069.00 L 16360435.00 34917123.78 L 16318608.22 34958950.00 L 15740607.06 34958950.00 L 15557976.58 34776318.86 L 15565258.00 34739714.00 A 120431.73 120431.73 0 0 0 15444834.00 34619290.00 L 15408228.68 34626571.51 L 15063941.00 34282283.00 L 15025669.59 34266432.00 L 10580893.00 34266432.00 L 10542623.29 34282284.71 L 10437827.40 34387080.12 L 10379067.00 34347818.00 A 210736.95 210736.95 0 1 0 10509162.00 34542518.00 L 10496934.61 34481047.94 L 10603310.07 34374672.00 L 15003254.04 34374672.00 L 15331691.51 34703108.68 L 15324410.00 34739714.00 A 120431.73 120431.73 0 0 0 15444834.00 34860138.00 L 15481438.86 34852856.58 L 15679921.00 35051339.00 L 15718192.41 35067190.00 L 16341026.00 35067191.00 L 16379295.00 35051339.00  zM 10298422.38 34542512.09 m -140500.91 0 a 140500.91 140500.91 0 1 1 281001.82 0a 140500.91 140500.91 0 1 1 -281001.82 0"/>
<path id="N" d="M 16526370.00 36896986.00 L 16515466.00 36880666.34 L 16514555.00 36203069.00 L 16314555.00 36203069.00 L 16314760.00 36880666.34 L 16303856.00 36896986.00 A 120419.38 120419.38 0 1 0 16526370.00 36896986.00  z"/>
<path id="N" d="M 10298422.29 35723623.29 m -210738.62 0 a 210738.62 210738.62 0 1 1 421477.24 0a 210738.62 210738.62 0 1 1 -421477.24 0M 10298422.38 35723615.09 m -140500.91 0 a 140500.91 140500.91 0 1 1 281001.82 0a 140500.91 140500.91 0 1 1 -281001.82 0"/>
<path id="N" d="M 14739174.16 36165948.16 m -120412.98 0 a 120412.98 120412.98 0 1 1 240825.96 0a 120412.98 120412.98 0 1 1 -240825.96 0"/>
<path id="N" d="M 14030512.16 36165948.16 m -120412.98 0 a 120412.98 120412.98 0 1 1 240825.96 0a 120412.98 120412.98 0 1 1 -240825.96 0"/>
<path id="N" d="M 16026370.00 36896986.00 L 16015466.00 36880666.34 L 16014555.00 36203069.00 L 15814555.00 36203069.00 L 15814760.00 36880666.34 L 15803856.00 36896986.00 A 120419.38 120419.38 0 1 0 16026370.00 36896986.00  z"/>
<path id="N" d="M 11961806.00 36107479.00 L 11624958.00 36107479.00 L 11209233.00 35691754.00 L 11209233.00 34825487.94 L 11460048.06 34574672.00 L 14468704.07 34574672.00 L 14619245.87 34725213.16 L 14613856.00 34733280.00 A 120419.38 120419.38 0 1 0 14725113.00 34658940.00 L 14709210.54 34662103.31 L 14529391.00 34482283.00 L 14491119.59 34466432.00 L 11437631.00 34466431.00 L 11399361.29 34482284.71 L 11116844.00 34764801.00 L 11100993.00 34803072.41 L 11100992.00 35714172.00 L 11116844.00 35752441.00 L 11548420.00 36184017.00 L 11548420.00 36520865.00 L 11961806.00 36520865.00 L 11961806.00 36107479.00  zM 11755115.38 36314166.09 m -140500.91 0 a 140500.91 140500.91 0 1 1 281001.82 0a 140500.91 140500.91 0 1 1 -281001.82 0"/>
<path id="N" d="M 14810266.00 35533809.00 L 14831000.74 35502776.00 L 16479527.00 35502777.00 L 16517796.00 35486925.00 L 16953382.00 35051339.00 L 16969233.00 35013067.59 L 16969233.00 34663069.00 L 17014555.00 34663069.00 L 17014555.00 34191967.00 L 16968396.00 34191967.00 L 16968396.00 34148769.32 L 16999150.00 34128221.00 A 120431.73 120431.73 0 1 0 16828844.00 34128221.00 L 16860156.00 34149142.15 L 16860156.00 34191967.00 L 16814555.00 34191967.00 L 16814555.00 34663069.00 L 16860993.00 34663069.00 L 16860993.00 34990652.96 L 16457109.04 35394536.00 L 14831000.74 35394536.00 L 14810266.00 35363503.00 A 120431.73 120431.73 0 1 0 14810266.00 35533809.00  z"/>
<path id="N" d="M 17514555.00 34191967.00 L 17418675.00 34191967.00 L 17418676.00 34155477.00 L 17416706.00 34150721.26 L 17434781.00 34123669.00 A 120419.38 120419.38 0 1 0 17277440.00 34188842.00 L 17310435.00 34195405.34 L 17310434.00 34377518.00 L 17314555.00 34387466.68 L 17314555.00 34663069.00 L 17514555.00 34663069.00 L 17514555.00 34191967.00  z"/>
<path id="N" d="M 15716822.89 37034304.48 L 15697003.00 36986455.00 L 15697003.00 36899685.00 L 15712801.00 36861545.24 L 15712801.00 36549178.00 L 15714555.00 36540360.05 L 15714555.00 36103069.00 L 16114555.00 36103069.00 L 16114555.00 36534749.54 L 16117425.00 36549178.00 L 16117425.00 36861545.24 L 16133223.00 36899685.00 L 16133223.00 36986455.00 L 16114212.91 37032349.44 L 16140838.64 37072197.66 L 16189387.36 37072197.66 L 16216013.09 37032349.44 L 16197003.00 36986455.00 L 16197003.00 36899685.00 L 16212801.00 36861545.24 L 16212801.00 36549178.00 L 16214555.00 36540360.05 L 16214555.00 36103069.00 L 16614555.00 36103069.00 L 16614555.00 36534749.54 L 16617425.00 36549178.00 L 16617425.00 36861545.24 L 16633223.00 36899685.00 L 16633223.00 36986455.00 L 16614212.91 37032349.44 L 16640838.64 37072197.66 L 16689387.36 37072197.66 L 16716013.09 37032349.44 L 16697003.00 36986455.00 L 16697003.00 36899685.00 L 16712801.00 36861545.24 L 16712801.00 36549178.00 L 16714555.00 36540360.05 L 16714555.00 36103069.00 L 17114555.00 36103069.00 L 17114555.00 36534749.54 L 17117425.00 36549178.00 L 17117425.00 36861545.24 L 17133223.00 36899685.00 L 17133223.00 36983355.29 L 17134759.80 36991656.01 L 17167260.91 37025999.20 L 17264185.73 37000028.37 A 1654927.79 1654927.79 0 0 0 17651620.50 34057173.14 L 17602584.31 34028862.40 L 17560561.54 34062336.16 L 17569665.15 34091967.00 L 17614555.00 34091967.00 L 17614555.00 34763069.00 L 17214555.00 34763069.00 L 17214555.00 34392293.03 L 17211616.00 34377518.00 L 17211616.00 34267311.86 L 17199975.00 34262490.00 L 17164555.43 34227070.43 L 17114555.00 34247781.28 L 17114555.00 34763069.00 L 17068052.00 34763069.00 L 17068052.00 35013070.00 L 17056410.00 35071597.00 L 17023257.00 35121214.00 L 16587671.00 35556800.00 L 16538054.00 35589953.00 L 16479527.00 35601595.00 L 14880628.00 35601595.00 L 14848662.00 35633561.00 A 222382.84 222382.84 0 1 1 14848662.00 35263751.00 L 14880628.00 35295717.00 L 16416178.00 35295717.00 L 16762174.00 34949721.00 L 16762174.00 34763069.00 L 16714555.00 34763069.00 L 16714555.00 34131521.56 L 16695887.00 34086453.00 A 222382.84 222382.84 0 0 1 16790448.00 33858163.00 L 16849960.04 33833512.32 L 16843203.40 33782191.06 L 13685466.04 33781835.00 L 13669011.00 33843244.00 L 13662044.12 33857371.18 L 13656981.00 33872287.00 L 13605594.00 33961292.00 L 13595209.57 33973132.81 L 13586456.00 33986234.00 L 13513783.00 34058905.00 L 13500683.75 34067657.50 L 13488841.00 34078043.00 L 13420302.88 34117612.68 L 13433700.19 34167613.00 L 15025672.00 34167613.00 L 15084199.00 34179255.00 L 15133816.00 34212408.00 L 15443012.00 34521604.00 L 15488219.00 34521604.00 L 15568383.00 34554809.00 L 15629739.00 34616165.00 L 15660598.01 34690665.28 L 15664554.65 34695553.42 L 15671078.99 34695703.84 L 15714555.00 34667247.32 L 15714555.00 34279073.43 L 15696445.00 34235352.00 L 15696445.00 34148582.00 L 15714555.00 34104860.57 L 15714555.00 34091967.00 L 15719895.69 34091967.00 L 15729650.00 34068418.00 A 222383.27 222383.27 0 0 1 16099460.00 34068418.00 L 16109214.31 34091967.00 L 16114555.00 34091967.00 L 16114555.00 34104860.57 L 16132665.00 34148582.00 L 16132665.00 34235352.00 L 16114555.00 34279073.43 L 16114555.00 34763069.00 L 15755188.28 34763069.00 L 15734477.43 34813069.43 L 15781539.00 34860131.00 L 16261616.00 34860131.00 L 16261616.00 34763069.00 L 16214555.00 34763069.00 L 16214555.00 34091967.00 L 16614555.00 34091967.00 L 16614555.00 34763069.00 L 16567494.00 34763069.00 L 16567494.00 34939541.00 L 16555852.00 34998068.00 L 16522699.00 35047685.00 L 16449170.00 35121214.00 L 16399553.00 35154367.00 L 16341026.00 35166009.00 L 15718190.00 35166009.00 L 15659663.00 35154367.00 L 15610046.00 35121214.00 L 15446656.00 34957824.00 L 15401449.00 34957824.00 A 222383.27 222383.27 0 0 1 15226724.00 34783099.00 L 15226724.00 34737892.00 L 14962323.00 34473491.00 L 14725677.75 34473491.00 L 14706543.40 34519685.40 L 14748112.00 34561254.00 L 14768498.00 34561254.00 A 222383.27 222383.27 0 1 1 14507003.00 34822749.00 L 14507003.00 34752721.00 L 14427773.00 34673491.00 L 13543417.87 34673491.00 L 13533472.20 34723491.25 L 13561940.00 34735283.00 A 791199.00 791199.00 0 1 1 12815991.00 34735283.00 L 12844458.80 34723491.25 L 12834513.13 34673491.00 L 11500980.00 34673491.00 L 11308052.00 34866419.00 L 11308052.00 35650823.00 L 11664708.00 36007479.00 L 12061806.00 36007479.00 L 12061806.00 36620865.00 L 11448420.00 36620865.00 L 11448420.00 36223767.00 L 11046969.00 35822316.00 L 11013816.00 35772699.00 L 11002174.00 35714172.00 L 11002174.00 34803070.00 L 11013816.00 34744543.00 L 11046969.00 34694926.00 L 11222209.60 34519685.40 L 11203075.25 34473491.00 L 10644242.00 34473491.00 L 10605113.00 34512620.00 L 10605113.00 34582895.00 A 309345.55 309345.55 0 1 1 10416799.00 34256726.00 L 10424173.39 34260983.61 L 10472749.00 34212408.00 L 10522366.00 34179255.00 L 10580893.00 34167613.00 L 10723137.07 34167613.00 L 10748126.14 34117612.52 L 10735469.00 34098669.00 L 10703138.00 34020614.00 L 10694551.00 33986331.00 L 10689811.00 33932285.00 L 10689811.85 33817186.40 L 10654456.05 33781830.44 L 9175527.00 33781834.66 L 9175527.00 37084305.00 L 10689812.57 37084305.00 L 10690392.00 36912606.00 L 10694552.00 36870362.00 L 10703138.00 36836080.00 L 10735470.00 36758025.00 L 10761574.00 36718957.00 L 10821315.00 36659215.00 L 10860383.00 36633111.00 L 10938438.00 36600779.00 L 10984522.00 36591612.00 L 11069010.50 36591612.10 L 11115095.00 36600779.00 L 11193150.00 36633111.00 L 11232217.00 36659215.00 L 11291959.00 36718956.00 L 11318063.00 36758025.00 L 11350394.00 36836080.00 L 11358981.00 36870362.00 L 11363721.00 36924406.00 L 11363722.14 37084305.00 L 12692462.31 37084305.00 L 12708917.00 37022895.00 L 12715884.95 37008765.64 L 12720947.00 36993852.00 L 12772334.00 36904846.00 L 12782721.23 36893001.65 L 12791472.00 36879905.00 L 12864146.00 36807230.00 L 12877245.78 36798477.37 L 12889088.00 36788092.00 L 12978094.00 36736705.00 L 12993007.64 36731642.95 L 13007137.00 36724675.00 L 13106410.00 36698075.00 L 13122129.18 36697045.07 L 13137578.00 36693972.00 L 13240353.00 36693972.00 L 13255801.82 36697045.07 L 13271521.00 36698075.00 L 13370794.00 36724675.00 L 13384923.36 36731642.95 L 13399837.00 36736705.00 L 13488843.00 36788092.00 L 13500687.35 36798479.23 L 13513784.00 36807230.00 L 13586459.00 36879904.00 L 13595211.63 36893003.78 L 13605597.00 36904846.00 L 13656984.00 36993852.00 L 13662046.05 37008765.64 L 13669014.00 37022895.00 L 13685468.69 37084305.00 L 15683413.60 37084305.00 L 15716822.89 37034304.48  zM 10298420.00 35723626.82 m -309333.68 0 a 309333.68 309333.68 0 1 1 618667.36 0a 309333.68 309333.68 0 1 1 -618667.36 0M 11755115.38 35133064.09 m -140500.91 0 a 140500.91 140500.91 0 1 1 281001.82 0a 140500.91 140500.91 0 1 1 -281001.82 0M 14030504.00 36165940.24 m -222382.84 0 a 222382.84 222382.84 0 1 1 444765.67 0a 222382.84 222382.84 0 1 1 -444765.67 0M 14739166.00 36165940.24 m -222382.84 0 a 222382.84 222382.84 0 1 1 444765.67 0a 222382.84 222382.84 0 1 1 -444765.67 0"/>
<path id="N" d="M 12957631.71 34117612.68 L 12889088.00 34078039.00 L 12877247.19 34067654.57 L 12864146.00 34058901.00 L 12791475.00 33986228.00 L 12782722.50 33973128.75 L 12772337.00 33961286.00 L 12720951.00 33872281.00 L 12715888.24 33857365.92 L 12708921.00 33843238.00 L 12692466.60 33781829.07 L 11363721.44 33781829.92 L 11363142.00 33944095.00 L 11358980.00 33986339.00 L 11350393.00 34020616.00 L 11318061.00 34098671.00 L 11305404.38 34117612.54 L 11312190.33 34141423.24 L 11330393.23 34167613.00 L 12944234.18 34167613.00 L 12957631.71 34117612.68  z"/>
</g>
</svg>
