<svg width="22.00000172mm" height="9.00000232mm" viewBox="0 0 8661418 3543308"  version="1.1" xmlns="http://www.w3.org/2000/svg" xmlns:xlink="http://www.w3.org/1999/xlink">
<desc>
Origin 9055113 35433070 Bound 9055113 33661416 8661418 3543308
</desc>
<g fill-rule="evenodd" fill="rgb(128, 128, 0)" stroke="black" stroke-width="1" transform="translate(0, 3543308) scale(1, -1) translate(-9055113, -33661416)">
<path id="N" d="M 14467863.00 35197066.01 L 14501647.00 35192146.01 A 89819.23 89819.23 0 0 0 14571511.01 35126218.02 L 14577415.01 35085218.02 L 14578399.03 34889730.02 L 14538383.03 34889730.02 L 14538383.01 35064554.02 L 14535431.01 35100634.02 L 14528871.01 35124250.02 L 14519359.00 35141306.02 L 14506567.00 35150490.01 L 14480983.00 35158690.01 L 14456383.00 35161314.01 L 14431127.00 35158034.01 A 55150.33 55150.33 0 0 1 14386191.01 35119002.00 L 14381271.01 35086530.00 L 14380287.03 34889730.00 L 14340271.03 34889730.00 L 14340271.01 35073410.00 L 14344863.01 35115394.00 L 14354047.00 35145570.00 L 14368807.00 35166234.00 L 14388815.00 35182306.00 L 14412431.00 35191162.01 L 14445231.00 35196738.01 L 14467863.00 35197066.01  z"/>
<path id="N" d="M 17196451.95 34383069.95 m -101959.21 0 a 101959.21 101959.21 0 1 1 203918.42 0a 101959.21 101959.21 0 1 1 -203918.42 0"/>
<path id="N" d="M 14769951.03 34888746.04 L 14746007.03 34888746.04 L 14741743.03 34896290.04 L 14720751.02 34921874.03 L 14694511.02 34943522.03 L 14658431.02 34964842.03 L 14658431.02 35000594.03 L 14664991.02 34997970.03 L 14705335.02 34976650.03 L 14732887.02 34955986.03 L 14732887.00 35192474.03 L 14769951.00 35192474.04 L 14769951.03 34888746.04  z"/>
<path id="N" d="M 17050556.00 36276032.00 L 17060067.00 36253071.00 L 17060067.00 34613071.00 L 17050556.00 34590110.00 L 17027595.00 34580599.00 L 17004634.00 34590110.00 L 16995123.00 34613071.00 L 16995123.00 36253071.00 L 17004634.00 36276032.00 L 17027595.00 36285543.00 L 17050556.00 36276032.00  z"/>
<path id="N" d="M 15020556.00 36276032.00 L 15030067.00 36253071.00 L 15030067.00 34613071.00 L 15020556.00 34590110.00 L 14997595.00 34580599.00 L 14974634.00 34590110.00 L 14965123.00 34613071.00 L 14965123.00 36253071.00 L 14974634.00 36276032.00 L 14997595.00 36285543.00 L 15020556.00 36276032.00  z"/>
</g>
</svg>
