<svg width="22.00000172mm" height="9.00000232mm" viewBox="0 0 8661418 3543308"  version="1.1" xmlns="http://www.w3.org/2000/svg" xmlns:xlink="http://www.w3.org/1999/xlink">
<desc>
Origin 9055113 35433070 Bound 9055113 33661416 8661418 3543308
</desc>
<g fill-rule="evenodd" fill="rgb(255, 0, 255)" stroke="black" stroke-width="1" transform="translate(0, 3543308) scale(1, -1) translate(-9055113, -33661416)">
<path id="N" d="M 16060997.00 33661416.00 L 9055113.00 33661416.00 L 9055113.00 37204724.00 L 16060997.00 37204724.00 A 1775412.26 1775412.26 0 0 0 16060997.00 33661416.00  zM 10298419.13 34542520.48 m -241327.52 0 a 241327.52 241327.52 0 1 1 482655.04 0a 241327.52 241327.52 0 1 1 -482655.04 0M 11026767.52 33932286.25 m -251366.75 0 a 251366.75 251366.75 0 1 1 502733.51 0a 251366.75 251366.75 0 1 1 -502733.51 0M 10298419.13 35723623.48 m -241327.52 0 a 241327.52 241327.52 0 1 1 482655.04 0a 241327.52 241327.52 0 1 1 -482655.04 0M 11026767.52 36924406.25 m -251366.75 0 a 251366.75 251366.75 0 1 1 502733.51 0a 251366.75 251366.75 0 1 1 -502733.51 0M 11755112.13 35133072.48 m -241327.52 0 a 241327.52 241327.52 0 1 1 482655.04 0a 241327.52 241327.52 0 1 1 -482655.04 0M 11991806.00 36550865.00 L 11518420.00 36550865.00 L 11518420.00 36077479.00 L 11991806.00 36077479.00 L 11991806.00 36550865.00  zM 13494089.50 35433074.77 m -435161.67 0 a 435161.67 435161.67 0 1 1 870323.34 0a 435161.67 435161.67 0 1 1 -870323.34 0M 15362595.00 34663071.00 L 15162595.00 34663071.00 L 15162595.00 34191969.00 L 15362595.00 34191969.00 L 15362595.00 34663071.00  zM 16362595.00 34663071.00 L 16162595.00 34663071.00 L 16162595.00 34191969.00 L 16362595.00 34191969.00 L 16362595.00 34663071.00  zM 16862595.00 34663071.00 L 16662595.00 34663071.00 L 16662595.00 34191969.00 L 16862595.00 34191969.00 L 16862595.00 34663071.00  zM 15862595.00 34663071.00 L 15662595.00 34663071.00 L 15662595.00 34191969.00 L 15862595.00 34191969.00 L 15862595.00 34663071.00  zM 15362595.00 36674173.00 L 15162595.00 36674173.00 L 15162595.00 36203071.00 L 15362595.00 36203071.00 L 15362595.00 36674173.00  zM 15862595.00 36674173.00 L 15662595.00 36674173.00 L 15662595.00 36203071.00 L 15862595.00 36203071.00 L 15862595.00 36674173.00  zM 16362595.00 36674173.00 L 16162595.00 36674173.00 L 16162595.00 36203071.00 L 16362595.00 36203071.00 L 16362595.00 36674173.00  zM 16862595.00 36674173.00 L 16662595.00 36674173.00 L 16662595.00 36203071.00 L 16862595.00 36203071.00 L 16862595.00 36674173.00  z"/>
</g>
</svg>
