<svg width="22.00000172mm" height="9.00000232mm" viewBox="0 0 8661418 3543308"  version="1.1" xmlns="http://www.w3.org/2000/svg" xmlns:xlink="http://www.w3.org/1999/xlink">
<desc>
Origin 9055113 35433070 Bound 9055113 33661416 8661418 3543308
</desc>
<g fill-rule="evenodd" fill="rgb(0, 0, 255)" stroke="black" stroke-width="1" transform="translate(0, 3543308) scale(1, -1) translate(-9055113, -33661416)">
<path id="N" d="M 16862595.00 36203071.00 L 16812974.00 36203071.00 L 16812974.00 36096458.18 L 16840266.00 36078223.00 A 120431.73 120431.73 0 1 0 16669960.00 36078223.00 L 16704734.00 36101457.29 L 16704734.00 36203071.00 L 16662595.00 36203071.00 L 16662595.00 36674173.00 L 16862595.00 36674173.00 L 16862595.00 36203071.00  z"/>
<path id="N" d="M 16150790.16 35533078.16 m -120412.98 0 a 120412.98 120412.98 0 1 1 240825.96 0a 120412.98 120412.98 0 1 1 -240825.96 0"/>
<path id="N" d="M 16859452.16 35533078.16 m -120412.98 0 a 120412.98 120412.98 0 1 1 240825.96 0a 120412.98 120412.98 0 1 1 -240825.96 0"/>
<path id="N" d="M 15862595.00 34228044.59 L 15870127.00 34190180.00 A 120431.73 120431.73 0 1 0 15662595.00 34272407.02 L 15662595.00 34663071.00 L 15862595.00 34663071.00 L 15862595.00 34228044.59  z"/>
<path id="N" d="M 16052280.00 37062442.00 L 16300864.00 36813858.00 L 16316715.00 36775586.59 L 16316715.00 36674173.00 L 16362595.00 36674173.00 L 16362595.00 36203071.00 L 16316715.00 36203071.00 L 16316715.00 36090553.00 L 16300862.29 36052283.29 L 15669445.00 35420865.00 L 15631173.59 35405014.00 L 15324287.12 35405014.00 L 15320701.00 35386986.00 A 120412.98 120412.98 0 1 0 15294597.00 35518223.00 L 15297917.04 35513254.00 L 15608758.03 35513254.00 L 16208475.00 36112970.03 L 16208475.00 36203071.00 L 16162595.00 36203071.00 L 16162595.00 36674173.00 L 16208475.00 36674173.00 L 16208475.00 36753171.00 L 15991593.00 36970053.00 L 12993289.09 36970053.00 L 12968071.35 36944834.93 L 12969237.00 36938975.00 A 120431.73 120431.73 0 0 0 12848813.00 36818551.00 L 12812207.66 36825832.51 L 12409233.00 36422857.03 L 12409233.00 36083070.00 L 12393380.29 36044800.29 L 12058793.00 35710212.00 L 12020521.59 35694361.00 L 11526800.01 35694361.00 L 10478093.63 34645653.74 L 10493120.00 34623165.00 A 210736.95 210736.95 0 1 0 10379067.00 34737218.00 L 10401555.74 34722191.63 L 11466114.00 35786750.00 L 11504383.00 35802601.00 L 11998106.05 35802601.00 L 12300993.00 36105487.05 L 12300992.00 36445275.00 L 12316844.00 36483544.00 L 12735670.51 36902369.66 L 12728389.00 36938975.00 A 120431.73 120431.73 0 0 0 12894897.00 37050232.00 L 12910181.48 37040019.66 L 12923469.00 37053308.00 L 12931373.33 37056581.97 L 12937233.00 37062442.00 L 12975502.00 37078293.00 L 16014011.00 37078294.00 L 16052280.00 37062442.00  zM 10298422.38 34542512.09 m -140500.91 0 a 140500.91 140500.91 0 1 1 281001.82 0a 140500.91 140500.91 0 1 1 -281001.82 0"/>
<path id="N" d="M 14500790.16 35433078.16 m -120412.98 0 a 120412.98 120412.98 0 1 1 240825.96 0a 120412.98 120412.98 0 1 1 -240825.96 0"/>
<path id="N" d="M 16362595.00 34660132.00 L 16373690.87 34660132.00 L 16386201.00 34651773.00 L 16402355.00 34648559.70 L 16402355.00 34163518.02 L 16387003.00 34126455.00 L 16387003.00 34039685.00 L 16402355.00 34002621.98 L 16402355.00 33846165.98 L 16381985.46 33840708.00 L 16045077.00 33840708.00 L 15876880.54 34008903.54 L 15934608.00 34066631.00 L 15945103.34 34091969.00 L 15962595.00 34091969.00 L 15962595.00 34134197.63 L 15967813.00 34146795.00 L 15967813.00 34233565.00 L 15962595.00 34246162.37 L 15962595.00 34660132.00 L 16162595.00 34660132.00 L 16162595.00 34663071.00 L 16362595.00 34663071.00 L 16362595.00 34660132.00  z"/>
<path id="N" d="M 16462996.00 34851340.00 L 16467145.79 34847190.00 L 16532597.00 34847191.00 L 16570866.00 34831339.00 L 16739133.07 34663071.00 L 16862595.00 34663071.00 L 16862595.00 34191969.00 L 16759346.73 34191969.00 L 16750862.29 34171489.29 L 16713228.75 34133855.40 L 16716370.00 34129154.00 A 120419.38 120419.38 0 1 0 16605113.00 34203494.00 L 16625697.83 34199399.28 L 16658475.00 34232176.15 L 16658474.00 34425202.00 L 16662595.00 34435150.68 L 16662595.00 34467571.32 L 16658475.00 34477522.41 L 16658475.00 34590654.91 L 16510179.09 34738950.00 L 16444728.00 34738949.00 L 16406458.29 34754802.71 L 16402309.79 34758951.00 L 15059654.12 34758951.00 L 15006458.52 34705754.99 L 15010971.00 34683070.00 A 120431.73 120431.73 0 1 0 14936631.00 34794327.00 L 14939822.88 34792194.34 L 14998968.00 34851340.00 L 15037237.00 34867191.00 L 16424727.00 34867192.00 L 16462996.00 34851340.00  z"/>
<path id="N" d="M 10298422.29 35723623.29 m -210738.62 0 a 210738.62 210738.62 0 1 1 421477.24 0a 210738.62 210738.62 0 1 1 -421477.24 0M 10298422.38 35723615.09 m -140500.91 0 a 140500.91 140500.91 0 1 1 281001.82 0a 140500.91 140500.91 0 1 1 -281001.82 0"/>
<path id="N" d="M 14181893.16 34683078.16 m -120412.98 0 a 120412.98 120412.98 0 1 1 240825.96 0a 120412.98 120412.98 0 1 1 -240825.96 0"/>
<path id="N" d="M 12933966.00 36512317.00 L 12954700.74 36481284.00 L 13959207.00 36481285.00 L 13997476.00 36465433.00 L 14241882.29 36221025.92 L 14257111.00 36231201.00 A 120419.38 120419.38 0 1 0 14182771.00 36119944.00 L 14183952.13 36125881.73 L 13936789.05 36373044.00 L 12954700.74 36373044.00 L 12933966.00 36342011.00 A 120431.73 120431.73 0 1 0 12933966.00 36512317.00  z"/>
<path id="N" d="M 15862595.00 36203071.00 L 15766715.00 36203071.00 L 15766715.00 36150789.00 L 15750864.00 36112520.00 L 15653146.00 36014802.00 L 15614874.59 35998951.00 L 15024156.00 35998950.00 L 14985887.00 36014802.00 L 14971301.99 36029387.01 L 14956018.00 36019175.00 A 120419.38 120419.38 0 1 0 15030358.00 36130432.00 L 15029192.44 36124572.56 L 15046574.00 36107191.00 L 15592459.00 36107191.00 L 15658475.00 36173207.00 L 15658474.00 36388622.00 L 15662595.00 36398570.68 L 15662595.00 36674173.00 L 15862595.00 36674173.00 L 15862595.00 36203071.00  z"/>
<path id="N" d="M 11961806.00 36107479.00 L 11548420.00 36107479.00 L 11548420.00 36520865.00 L 11961806.00 36520865.00 L 11961806.00 36107479.00  zM 11755115.38 36314166.09 m -140500.91 0 a 140500.91 140500.91 0 1 1 281001.82 0a 140500.91 140500.91 0 1 1 -281001.82 0"/>
<path id="N" d="M 14950266.00 36833184.00 L 14971000.74 36802151.00 L 15150152.00 36802152.00 L 15188421.00 36786300.00 L 15293382.00 36681339.00 L 15296350.15 36674173.00 L 15362595.00 36674173.00 L 15362595.00 36203071.00 L 15162595.00 36203071.00 L 15162595.00 36659050.48 L 15127734.15 36693911.00 L 14971000.74 36693911.00 L 14950266.00 36662878.00 A 120431.73 120431.73 0 1 0 14950266.00 36833184.00  z"/>
<path id="N" d="M 12652219.10 37034304.48 L 12630703.00 36982360.00 L 12630703.00 36937153.00 L 12246969.00 36553419.00 L 12213816.00 36503802.00 L 12202174.00 36445275.00 L 12202174.00 36146419.00 L 12111806.43 36056051.43 L 12061806.00 36076762.28 L 12061806.00 36620865.00 L 11448420.00 36620865.00 L 11448420.00 36007479.00 L 11992522.72 36007479.00 L 12013233.57 35957478.57 L 11957175.00 35901420.00 L 11504383.00 35901420.00 L 11445856.00 35889778.00 L 11396239.00 35856625.00 L 10378252.67 34838638.67 L 10338797.00 34849211.00 A 309333.68 309333.68 0 1 1 10605113.00 34582895.00 L 10594540.67 34622350.67 L 11567732.00 35595542.00 L 12020524.00 35595542.00 L 12079051.00 35607184.00 L 12128668.00 35640337.00 L 12463257.00 35974926.00 L 12496410.00 36024543.00 L 12508052.00 36083070.00 L 12508052.00 36381926.00 L 12580702.57 36454576.57 L 12630703.00 36433865.72 L 12630703.00 36383779.00 A 222383.27 222383.27 0 0 1 12972362.00 36242259.00 L 13004328.00 36274225.00 L 13895858.00 36274225.00 L 14085085.00 36084998.00 L 14085085.00 36076559.00 A 222383.27 222383.27 0 1 1 14264605.00 36338054.00 L 14067351.00 36535308.00 L 14017734.00 36568461.00 L 13959207.00 36580103.00 L 13004328.00 36580103.00 L 12972362.00 36612069.00 L 12892198.00 36645274.00 L 12863127.85 36645274.00 L 12840851.04 36694752.30 L 12861138.56 36720865.00 L 12892198.00 36720865.00 L 12972362.00 36754070.00 L 13033718.00 36815426.00 L 13056834.42 36871234.00 L 14635065.31 36871234.00 L 14662844.17 36829660.00 L 14647003.00 36791416.00 A 222382.84 222382.84 0 0 1 14988662.00 36563126.00 L 15012594.60 36587058.60 L 15062595.00 36575697.98 L 15062595.00 36351553.73 L 15012594.49 36323989.30 L 14953319.00 36348542.00 A 222382.84 222382.84 0 1 1 14953319.00 35912322.00 L 14960411.88 35915259.97 L 14965629.00 35911774.00 L 15024156.00 35900132.00 L 15614877.00 35900132.00 L 15673404.00 35911774.00 L 15723021.00 35944927.00 L 15820739.00 36042645.00 L 15853892.00 36092262.00 L 15856042.09 36103071.00 L 15962595.00 36103071.00 L 15962595.00 36774173.00 L 15562595.00 36774173.00 L 15562595.00 36403397.03 L 15559656.00 36388622.00 L 15559656.00 36214138.00 L 15551528.00 36206010.00 L 15462595.00 36206010.00 L 15462595.00 36774173.00 L 15340298.00 36774173.00 L 15293237.43 36821233.57 L 15313948.28 36871234.00 L 15950662.00 36871234.00 L 16062595.00 36759301.00 L 16062595.00 36106841.00 L 15567827.00 35612073.00 L 15338895.00 35612073.00 L 15332993.00 35617975.00 A 222382.84 222382.84 0 1 1 15391023.00 35306195.00 L 15631176.00 35306195.00 L 15689703.00 35317837.00 L 15739320.00 35350990.00 L 15886477.60 35498147.60 L 15937374.22 35478332.83 L 15965877.00 35409521.00 A 222383.27 222383.27 0 1 1 16274331.00 35717975.00 L 16205519.17 35746477.78 L 16185704.40 35797374.40 L 16370739.00 35982409.00 L 16403892.00 36032026.00 L 16415534.00 36090553.00 L 16415534.00 36103071.00 L 16462595.00 36103071.00 L 16462595.00 36774173.00 L 16415534.00 36774173.00 L 16403892.00 36834116.00 L 16370739.00 36883733.00 L 16242911.74 37011560.26 L 16265026.38 37056404.24 L 16476789.79 37000028.35 L 16676764.61 36917194.66 L 16837884.11 36824173.32 L 16824486.70 36774173.00 L 16562595.00 36774173.00 L 16562594.12 36103071.47 L 16563830.18 36101221.57 L 16537003.00 36036455.00 A 222382.84 222382.84 0 0 1 16711728.00 35774960.00 L 16742812.03 35774960.00 L 16752757.69 35724959.75 L 16735895.00 35717975.00 A 222383.27 222383.27 0 1 1 16902829.00 35751180.00 L 16871744.97 35751180.00 L 16861799.31 35801180.25 L 16878662.00 35808165.00 A 222383.27 222383.27 0 0 1 16973223.00 36036455.00 L 16952122.29 36087396.64 L 16962595.00 36103071.47 L 16962595.00 36676958.93 L 17007439.10 36699073.61 L 17035943.73 36677201.27 A 1654761.26 1654761.26 0 0 0 17035943.84 34188937.84 L 17007439.07 34167065.51 L 16962595.00 34189180.25 L 16962595.00 34763071.00 L 16778884.00 34763071.00 L 16640741.00 34901214.00 L 16591124.00 34934367.00 L 16532597.00 34946009.00 L 16495764.13 34946009.00 L 16483254.00 34954368.00 L 16424727.00 34966010.00 L 15037237.00 34966010.00 L 14978710.00 34954368.00 L 14929093.00 34921215.00 L 14909058.00 34901180.00 L 14847162.00 34901180.00 A 222383.27 222383.27 0 1 1 15014096.00 34498165.00 L 15016400.60 34500469.60 L 15062595.00 34481335.25 L 15062595.00 34477519.99 L 15162595.00 34477520.00 L 15162595.00 34663071.00 L 15362595.00 34663071.00 L 15362595.00 34477520.00 L 15462595.00 34477520.01 L 15462595.00 34660132.00 L 15562595.00 34660132.00 L 15562595.00 34308410.48 L 15531593.00 34233565.00 A 222382.84 222382.84 0 0 1 15706318.00 33972070.00 L 15782248.58 33972070.00 L 15804785.00 33936808.00 L 15913563.60 33828029.40 L 15894429.25 33781835.00 L 11358260.63 33781835.00 L 11327551.54 33831835.53 L 11343302.00 33890615.00 A 319256.99 319256.99 0 1 1 10710232.00 33890615.00 L 10725982.46 33831835.53 L 10695273.37 33781835.00 L 9175532.00 33781835.00 L 9175532.00 37084305.00 L 10702520.12 37084305.00 L 10728513.06 37034304.48 L 10710232.00 36966081.00 A 319256.99 319256.99 0 1 1 11343302.00 36966081.00 L 11325020.94 37034304.48 L 11351013.88 37084305.00 L 12620360.29 37084305.00 L 12652219.10 37034304.48  zM 10298420.00 35723626.82 m -309333.68 0 a 309333.68 309333.68 0 1 1 618667.36 0a 309333.68 309333.68 0 1 1 -618667.36 0M 11755115.38 35133064.09 m -140500.91 0 a 140500.91 140500.91 0 1 1 281001.82 0a 140500.91 140500.91 0 1 1 -281001.82 0M 13867064.00 34735283.00 L 13931009.72 34778009.84 L 13971399.66 34744862.56 L 13963775.00 34726455.00 A 222382.84 222382.84 0 1 1 14225270.00 34901180.00 L 14144029.07 34901180.00 L 14129459.02 34918695.86 L 14115484.92 34945766.80 L 14191876.00 35060095.00 L 14251232.00 35203393.00 L 14268908.37 35292256.18 L 14292178.16 35300809.37 L 14322087.35 35303310.65 L 14377233.00 35248165.00 A 222382.84 222382.84 0 1 1 14377233.00 35617975.00 L 14322087.19 35562829.19 L 14292178.44 35565330.34 L 14268908.23 35573883.50 L 14251232.00 35662746.00 A 791226.30 791226.30 0 1 1 13867064.00 34735283.00  zM 15162595.00 34377520.00 L 15062595.00 34377519.99 L 15062595.00 34091969.00 L 15212595.01 34091969.00 L 15212595.01 34191969.00 L 15162595.00 34191969.00 L 15162595.00 34377520.00  zM 15462595.00 34377520.01 L 15362595.00 34377520.00 L 15362595.00 34191969.00 L 15312595.01 34191969.00 L 15312595.01 34091969.00 L 15462595.00 34091969.00 L 15462595.00 34377520.01  z"/>
</g>
</svg>
