**ABCDEFGHIJKLMNOPQRSTUVWXYZabcdefghijklmnopqrstuvwxyz**************************
**PARASOLID !"#$%&'()*+,-./:;<=>?@[\]^_`{|}~0123456789**************************
**PART1;
MC=AMD64;
MC_MODEL=AMD64 Family 25 Model 33 Stepping 0, AuthenticAMD;
MC_ID=unknown;
OS=Windows_NT;
OS_RELEASE=unknown;
FRU=CAD Exchanger 3.13.0 (cadexchanger.com);
APPL=unknown;
SITE=unknown;
USER=unknown;
FORMAT=text;
GUISE=transmit;
KEY=RESC1608X55X25NL10T15_CMP-009-00017-7;
FILE=RESC1608X55X25NL10T15_CMP-009-00017-7.x_t;
DATE=Sat Nov 18 19:42:44 2023;
**PART2;
SCH=SCH_1200000_12103;
USFLD_SIZE=0;
**PART3;
**END_OF_HEADER*****************************************************************
T51 : TRANSMIT FILE created by modeller version 120000017 SCH_1200000_121030 74
 4 1 4 0 2 105 290 475 12 2 68 0 3 0 0 0 0 1000.0 1.0e-08 0 0 0 1 0 1 1 12 14 20
 18 9 19 17 70 3 0 2 0 0 4 1 20 0 4 4 1 T74 20 4 1 0 5 0 0 0 0 0 0 0 0 0 0 0 0 0
 0 0 0 0 0 0 81 1 5 7 6 13 0 0 42 0 8 80 1 6 0 7 8001 0 0 0 0 3 5 0 0 0 FFFFTFTF
FFFFFF2 79 15 7 SDL/TYSA_COLOUR83 3 8 0.82745099067688 0.82745099067688 0.827450
99067688 19 9 1 0 2 11 0 10 V13 10 2 0 2 0 0 0 0 9 13 19 11 3 0 2 0 9 12 S13 12
 4 0 2 0 13 0 0 11 0 14 13 5 5 1.0e-08 40 0 15 12 14 -0 0 40 0 10 50 14 6 0 13 4
1 0 0 +-7.9491872000000008e-04 -4.499187199999998e-04 5.5e-05 1.0 -2.44929359829
47066e-16 0.0 0.0 0.0 1.0 15 15 8 0 16 13 0 17 16 0 15 24 36 17 21 19 0 94 +18 1
7 9 0 29 0 22 18 ?2 29 18 10 0 17 23 0 -7.949187199999999e-04 4.500812800000003e
-04 4.9500000000000002e-04 16 19 11 0 ?16 0 27 20 0 0 2 30 20 12 0 19 28 0 0 +-7
.9491872000000008e-04 -4.499187199999998e-04 4.9500000000000002e-04 2.4492935982
947066e-16 1.0 0.0 17 21 0 104 77 94 22 16 19 0 74 -18 22 13 0 36 17 25 23 ?2 29
 23 14 0 22 26 18 -7.9491872000000008e-04 -4.499187199999998e-04 4.9500000000000
002e-04 17 24 0 15 30 16 25 29 27 0 87 -18 25 15 0 35 22 31 26 ?2 29 26 16 0 25
 32 23 -7.949187199999999e-04 4.500812800000003e-04 5.5e-05 16 27 17 0 ?29 19 33
 28 0 0 2 30 28 18 0 27 34 20 0 +-7.949187199999999e-04 4.500812800000003e-04 5.
5e-05 0.0 0.0 1.0 17 29 0 86 91 87 17 24 27 0 16 +17 30 0 15 36 24 31 35 33 0 81
 -18 31 19 0 39 25 46 32 ?2 29 32 20 0 31 47 26 -7.9491872000000008e-04 -4.49918
7199999998e-04 5.5e-05 16 33 21 0 ?35 27 37 34 0 0 2 30 34 22 0 33 38 28 0 +-7.9
491872000000008e-04 -4.499187199999998e-04 5.5e-05 2.4492935982947066e-16 1.0 0.
0 17 35 0 99 90 81 25 30 33 0 24 +17 36 0 15 16 30 22 39 37 0 21 +16 37 23 0 ?36
 33 48 38 0 0 2 30 38 24 0 37 49 34 0 +-7.9491872000000008e-04 -4.49918719999999
8e-04 5.5e-05 0.0 0.0 1.0 17 39 0 73 78 74 31 36 37 0 30 -14 40 25 42 1.0e-08 69
 13 44 12 41 +0 0 69 13 10 50 41 26 0 40 70 14 0 +7.9508127999999986e-04 -4.4991
872000000016e-04 5.5e-05 1.0 -2.4492935982947066e-16 0.0 0.0 0.0 1.0 81 1 42 27
 6 40 0 0 71 5 43 83 3 43 0.82745099067688 0.82745099067688 0.82745099067688 15
 44 28 0 45 40 0 17 45 0 44 53 65 46 50 48 0 58 -18 46 29 0 45 31 51 47 ?2 29 47
 30 0 46 52 32 7.9508127999999986e-04 -4.4991872000000016e-04 5.5e-05 16 48 31 0
 ?50 37 56 49 0 0 2 30 49 32 0 48 57 38 0 +7.9508127999999986e-04 -4.49918720000
00016e-04 5.5e-05 0.0 0.0 1.0 17 50 0 73 74 78 51 45 48 0 65 +18 51 33 0 50 46 5
4 52 ?2 29 52 34 0 51 55 47 7.9508127999999986e-04 -4.4991872000000016e-04 4.950
0000000000002e-04 17 53 0 44 59 45 54 58 56 0 90 +18 54 35 0 64 51 60 55 ?2 29 5
5 36 0 54 61 52 7.9508128000000004e-04 4.5008127999999986e-04 5.5e-05 16 56 37 0
 ?53 48 62 57 0 0 2 30 57 38 0 56 63 49 0 +7.9508127999999986e-04 -4.49918720000
00016e-04 5.5e-05 2.4492935982947066e-16 1.0 0.0 17 58 0 99 81 90 46 53 56 0 78
 -17 59 0 44 65 53 60 64 62 0 68 +18 60 39 0 59 54 0 61 ?2 29 61 40 0 60 0 55 7.
9508128000000004e-04 4.5008127999999986e-04 4.9500000000000002e-04 16 62 41 0 ?5
9 56 66 63 0 0 2 30 63 42 0 62 67 57 0 +7.9508128000000004e-04 4.500812799999998
6e-04 5.5e-05 0.0 0.0 1.0 17 64 0 86 87 91 54 59 62 0 53 -17 65 0 44 45 59 51 68
 66 0 77 -16 66 43 0 ?68 62 75 67 0 0 2 30 67 44 0 66 76 63 0 +7.950812799999998
6e-04 -4.4991872000000016e-04 4.9500000000000002e-04 2.4492935982947066e-16 1.0
 0.0 17 68 0 104 94 77 60 65 66 0 91 +14 69 45 71 1.0e-08 82 40 73 12 70 -0 0 82
 40 10 50 70 46 0 69 83 41 0 +-7.9491872000000008e-04 -4.499187199999998e-04 5.5
e-05 2.4492935982947066e-16 1.0 0.0 0.0 0.0 1.0 81 1 71 47 6 69 0 0 84 42 72 83
 3 72 0.82745099067688 0.82745099067688 0.82745099067688 15 73 48 0 50 69 0 17 7
4 0 73 39 50 22 77 75 0 0 -16 75 49 0 ?77 66 79 76 0 0 2 30 76 50 0 75 80 67 0 +
-7.9491872000000008e-04 -4.499187199999998e-04 4.9500000000000002e-04 1.0 -2.449
2935982947066e-16 0.0 17 77 0 104 68 21 51 74 75 0 0 +17 78 0 73 50 39 46 81 79
 0 0 +16 79 51 0 ?78 75 88 80 0 0 2 30 80 52 0 79 89 76 0 +-7.9491872000000008e-
04 -4.499187199999998e-04 5.5e-05 1.0 -2.4492935982947066e-16 0.0 17 81 0 99 35
 58 31 78 79 0 0 -14 82 53 84 1.0e-08 95 69 86 12 83 +0 0 95 69 10 50 83 54 0 82
 96 70 0 +-7.949187199999999e-04 4.500812800000003e-04 5.5e-05 2.449293598294706
6e-16 1.0 0.0 0.0 0.0 1.0 81 1 84 55 6 82 0 0 97 71 85 83 3 85 0.82745099067688
 0.82745099067688 0.82745099067688 15 86 56 0 87 82 0 17 87 0 86 29 64 25 90 88
 0 0 -16 88 57 0 ?90 79 92 89 0 0 2 30 89 58 0 88 93 80 0 +-7.949187199999999e-0
4 4.500812800000003e-04 5.5e-05 1.0 -2.4492935982947066e-16 0.0 17 90 0 99 58 35
 54 87 88 0 0 +17 91 0 86 64 29 60 94 92 0 0 +16 92 59 0 ?91 88 0 93 0 0 2 30 93
 60 0 92 0 89 0 +-7.949187199999999e-04 4.500812800000003e-04 4.9500000000000002
e-04 1.0 -2.4492935982947066e-16 0.0 17 94 0 104 21 68 17 91 92 0 0 -14 95 61 97
 1.0e-08 100 82 99 12 96 -0 0 100 82 10 50 96 62 0 95 101 83 0 +-7.9491872000000
008e-04 -4.499187199999998e-04 5.5e-05 0.0 0.0 1.0 1.0 -2.4492935982947066e-16 0
.0 81 1 97 63 6 95 0 0 102 84 98 83 3 98 0.82745099067688 0.82745099067688 0.827
45099067688 15 99 64 0 90 95 0 14 100 65 102 1.0e-08 0 95 104 12 101 +0 0 0 95 1
0 50 101 66 0 100 0 96 0 +-7.9491872000000008e-04 -4.499187199999998e-04 4.95000
00000000002e-04 0.0 0.0 1.0 1.0 -2.4492935982947066e-16 0.0 81 1 102 67 6 100 0
 0 0 97 103 83 3 103 0.82745099067688 0.82745099067688 0.82745099067688 15 104 6
8 0 21 100 0 12 105 124 0 106 0 0 0 0 1000.0 1.0e-08 0 0 0 1 0 1 1 113 115 121 1
19 110 120 118 70 106 0 105 0 0 4 1 20 0 107 107 1 T74 20 107 1 0 108 0 0 0 0 0
 0 0 0 0 0 0 0 0 0 0 0 0 0 0 81 1 108 7 6 114 0 0 143 0 109 83 3 109 0.800000011
920929 0.800000011920929 0.800000011920929 19 110 1 0 105 112 0 111 V13 111 2 0
 105 0 0 0 0 110 114 19 112 3 0 105 0 110 113 S13 113 4 0 105 0 114 0 0 112 0 14
 114 5 108 1.0e-08 141 0 116 113 115 -0 0 141 0 111 50 115 6 0 114 142 0 0 +-8.4
991872000000016e-04 -4.499187199999998e-04 0.0 1.0 -2.4492935982947066e-16 0.0 0
.0 0.0 1.0 15 116 8 0 117 114 0 17 117 0 116 125 137 118 122 120 0 197 +18 118 9
 0 130 0 123 119 ?105 29 119 10 0 118 124 0 -8.4991871999999998e-04 4.5008128000
00003e-04 5.5e-04 16 120 11 0 ?117 0 128 121 0 0 105 30 121 12 0 120 129 0 0 +-8
.4991872000000016e-04 -4.499187199999998e-04 5.5e-04 2.4492935982947066e-16 1.0
 0.0 17 122 0 190 175 197 123 117 120 0 172 -18 123 13 0 137 118 126 124 ?105 29
 124 14 0 123 127 119 -8.4991872000000016e-04 -4.499187199999998e-04 5.5e-04 17
 125 0 116 131 117 126 130 128 0 214 -18 126 15 0 136 123 132 127 ?105 29 127 16
 0 126 133 124 -8.4991871999999998e-04 4.500812800000003e-04 0.0 16 128 17 0 ?13
0 120 134 129 0 0 105 30 129 18 0 128 135 121 0 +-8.4991871999999998e-04 4.50081
2800000003e-04 0.0 0.0 0.0 1.0 17 130 0 205 200 214 118 125 128 0 117 +17 131 0
 116 137 125 132 136 134 0 181 -18 132 19 0 140 126 147 133 ?105 29 133 20 0 132
 148 127 -8.4991872000000016e-04 -4.499187199999998e-04 0.0 16 134 21 0 ?136 128
 138 135 0 0 105 30 135 22 0 134 139 129 0 +-8.4991872000000016e-04 -4.499187199
999998e-04 0.0 2.4492935982947066e-16 1.0 0.0 17 136 0 244 217 181 126 131 134 0
 125 +17 137 0 116 117 131 123 140 138 0 122 +16 138 23 0 ?137 134 149 139 0 0 1
05 30 139 24 0 138 150 135 0 +-8.4991872000000016e-04 -4.499187199999998e-04 0.0
 0.0 0.0 1.0 17 140 0 145 176 172 132 137 138 0 131 -14 141 25 143 1.0e-08 186 1
14 145 113 142 -0 0 186 114 111 50 142 26 0 141 187 115 0 +-8.4991872000000016e-
04 -4.499187199999998e-04 0.0 2.4492935982947066e-16 1.0 0.0 0.0 0.0 1.0 81 1 14
3 27 6 141 0 0 188 108 144 83 3 144 0.800000011920929 0.800000011920929 0.800000
011920929 15 145 28 0 146 141 0 17 146 0 145 154 182 147 151 149 0 0 -18 147 29
 0 263 132 152 148 ?105 29 148 30 0 147 153 133 -7.9491872000000008e-04 -4.49918
7199999998e-04 5.5e-05 16 149 31 0 ?151 138 157 150 0 0 105 30 150 32 0 149 158
 139 0 +-7.9491872000000008e-04 -4.499187199999998e-04 5.5e-05 1.0 -2.4492935982
947066e-16 0.0 17 151 0 262 257 263 152 146 149 0 0 +18 152 33 0 182 147 155 153
 ?105 29 153 34 0 152 156 148 -7.4991872000000016e-04 -4.499187199999998e-04 5.5
e-05 17 154 0 145 160 146 155 159 157 0 165 +18 155 35 0 272 152 161 156 ?105 29
 156 36 0 155 162 153 -7.9491872000000008e-04 -4.499187199999998e-04 4.950000000
0000002e-04 16 157 37 0 ?154 149 163 158 0 0 105 30 158 38 0 157 164 150 0 +-7.9
491872000000008e-04 -4.499187199999998e-04 5.5e-05 0.0 0.0 1.0 17 159 0 271 266
 272 147 154 157 0 146 -17 160 0 145 166 154 161 165 163 0 0 +18 161 39 0 281 15
5 167 162 ?105 29 162 40 0 161 168 156 -7.4991872000000016e-04 -4.49918719999999
8e-04 4.9500000000000002e-04 16 163 41 0 ?160 157 169 164 0 0 105 30 164 42 0 16
3 170 158 0 +-7.9491872000000008e-04 -4.499187199999998e-04 4.9500000000000002e-
04 1.0 -2.4492935982947066e-16 0.0 17 165 0 280 275 281 155 160 163 0 0 -17 166
 0 145 172 160 167 171 169 0 196 +18 167 43 0 175 161 177 168 ?105 29 168 44 0 1
67 178 162 -7.4991872000000016e-04 -4.499187199999998e-04 5.5e-04 16 169 45 0 ?1
66 163 173 170 0 0 105 30 170 46 0 169 174 164 0 +-7.4991872000000016e-04 -4.499
187199999998e-04 0.0 0.0 0.0 1.0 17 171 0 289 284 196 161 166 169 0 160 -17 172
 0 145 140 166 123 175 173 0 0 -16 173 47 0 ?175 169 179 174 0 0 105 30 174 48 0
 173 180 170 0 +-8.4991872000000016e-04 -4.499187199999998e-04 5.5e-04 1.0 -2.44
92935982947066e-16 0.0 17 175 0 190 191 122 167 172 173 0 166 +17 176 0 145 182
 140 177 181 179 0 245 +18 177 49 0 185 167 192 178 ?105 29 178 50 0 177 193 168
 -7.4991872000000016e-04 -4.499187199999998e-04 0.0 16 179 51 0 ?176 173 183 180
 0 0 105 30 180 52 0 179 184 174 0 +-8.4991872000000016e-04 -4.499187199999998e-
04 0.0 1.0 -2.4492935982947066e-16 0.0 17 181 0 244 136 245 132 176 179 0 0 -17
 182 0 145 146 176 152 185 183 0 254 +16 183 53 0 ?182 179 194 184 0 0 105 30 18
4 54 0 183 195 180 0 +-7.4991872000000016e-04 -4.499187199999998e-04 0.0 0.0 0.0
 1.0 17 185 0 253 248 254 177 182 183 0 176 -14 186 55 188 1.0e-08 201 141 190 1
13 187 +0 0 201 141 111 50 187 56 0 186 202 142 0 +-8.4991872000000016e-04 -4.49
9187199999998e-04 5.5e-04 0.0 0.0 1.0 1.0 -2.4492935982947066e-16 0.0 81 1 188 5
7 6 186 0 0 203 143 189 83 3 189 0.800000011920929 0.800000011920929 0.800000011
920929 15 190 58 0 122 186 0 17 191 0 190 197 175 192 196 194 0 0 +18 192 59 0 2
00 177 207 193 ?105 29 193 60 0 192 208 178 -7.4991871999999998e-04 4.5008128000
00003e-04 5.5e-04 16 194 61 0 ?191 183 198 195 0 0 105 30 195 62 0 194 199 184 0
 +-7.4991872000000016e-04 -4.499187199999998e-04 5.5e-04 2.4492935982947066e-16
 1.0 0.0 17 196 0 289 171 223 167 191 194 0 0 -17 197 0 190 122 191 118 200 198
 0 0 -16 198 63 0 ?200 194 209 199 0 0 105 30 199 64 0 198 210 195 0 +-8.4991871
999999998e-04 4.500812800000003e-04 5.5e-04 1.0 -2.4492935982947066e-16 0.0 17 2
00 0 205 218 130 192 197 198 0 223 +14 201 65 203 1.0e-08 240 186 205 113 202 +0
 0 240 186 111 50 202 66 0 201 241 187 0 +-8.4991871999999998e-04 4.500812800000
003e-04 0.0 2.4492935982947066e-16 1.0 0.0 0.0 0.0 1.0 81 1 203 67 6 201 0 0 242
 188 204 83 3 204 0.800000011920929 0.800000011920929 0.800000011920929 15 205 6
8 0 206 201 0 17 206 0 205 214 236 207 211 209 0 217 -18 207 69 0 248 192 212 20
8 ?105 29 208 70 0 207 213 193 -7.4991871999999998e-04 4.500812800000003e-04 0.0
 16 209 71 0 ?211 198 215 210 0 0 105 30 210 72 0 209 216 199 0 +-7.499187199999
9998e-04 4.500812800000003e-04 0.0 0.0 0.0 1.0 17 211 0 253 254 248 212 206 209
 0 257 +18 212 73 0 236 207 219 213 ?105 29 213 74 0 212 220 208 -7.499187199999
9998e-04 4.500812800000003e-04 5.5e-05 17 214 0 205 130 206 126 217 215 0 0 -16
 215 75 0 ?217 209 221 216 0 0 105 30 216 76 0 215 222 210 0 +-8.499187199999999
8e-04 4.500812800000003e-04 0.0 1.0 -2.4492935982947066e-16 0.0 17 217 0 244 245
 136 207 214 215 0 0 +17 218 0 205 224 200 219 223 221 0 284 -18 219 77 0 218 21
2 225 220 ?105 29 220 78 0 219 226 213 -7.4991871999999998e-04 4.500812800000003
e-04 4.9500000000000002e-04 16 221 79 0 ?223 215 227 222 0 0 105 30 222 80 0 221
 228 216 0 +-7.4991871999999998e-04 4.500812800000003e-04 0.0 0.0 0.0 1.0 17 223
 0 289 196 284 192 218 221 0 191 +17 224 0 205 230 218 225 229 227 0 0 -18 225 8
1 0 275 219 231 226 ?105 29 226 82 0 225 232 220 -7.949187199999999e-04 4.500812
800000003e-04 4.9500000000000002e-04 16 227 83 0 ?229 221 233 228 0 0 105 30 228
 84 0 227 234 222 0 +-7.949187199999999e-04 4.500812800000003e-04 4.950000000000
0002e-04 1.0 -2.4492935982947066e-16 0.0 17 229 0 280 281 275 219 224 227 0 0 +1
7 230 0 205 236 224 231 235 233 0 0 -18 231 85 0 266 225 0 232 ?105 29 232 86 0
 231 0 226 -7.949187199999999e-04 4.500812800000003e-04 5.5e-05 16 233 87 0 ?235
 227 237 234 0 0 105 30 234 88 0 233 238 228 0 +-7.949187199999999e-04 4.5008128
00000003e-04 5.5e-05 0.0 0.0 1.0 17 235 0 271 272 266 225 230 233 0 224 +17 236
 0 205 206 230 212 239 237 0 211 +16 237 89 0 ?236 233 246 238 0 0 105 30 238 90
 0 237 247 234 0 +-7.949187199999999e-04 4.500812800000003e-04 5.5e-05 1.0 -2.44
92935982947066e-16 0.0 17 239 0 262 263 257 231 236 237 0 230 -14 240 91 242 1.0
e-08 249 201 244 113 241 -0 0 249 201 111 50 241 92 0 240 250 202 0 +-8.49918720
00000016e-04 -4.499187199999998e-04 0.0 0.0 0.0 1.0 1.0 -2.4492935982947066e-16
 0.0 81 1 242 93 6 240 0 0 251 203 243 83 3 243 0.800000011920929 0.800000011920
929 0.800000011920929 15 244 94 0 217 240 0 17 245 0 244 181 217 177 248 246 0 0
 -16 246 95 0 ?248 237 255 247 0 0 105 30 247 96 0 246 256 238 0 +-7.49918720000
00016e-04 -4.499187199999998e-04 0.0 2.4492935982947066e-16 1.0 0.0 17 248 0 253
 211 185 207 245 246 0 206 +14 249 97 251 1.0e-08 258 240 253 113 250 +0 0 258 2
40 111 50 250 98 0 249 259 241 0 +-7.4991872000000016e-04 -4.499187199999998e-04
 0.0 1.0 -2.4492935982947066e-16 0.0 0.0 0.0 1.0 81 1 251 99 6 249 0 0 260 242 2
52 83 3 252 0.800000011920929 0.800000011920929 0.800000011920929 15 253 100 0 1
85 249 0 17 254 0 253 185 211 152 257 255 0 151 +16 255 101 0 ?254 246 264 256 0
 0 105 30 256 102 0 255 265 247 0 +-7.4991872000000016e-04 -4.499187199999998e-0
4 5.5e-05 -2.4492935982947066e-16 -1.0 0.0 17 257 0 262 239 151 212 254 255 0 0
 -14 258 103 260 1.0e-08 267 249 262 113 259 +0 0 267 249 111 50 259 104 0 258 2
68 250 0 +-7.9491872000000008e-04 -4.499187199999998e-04 5.5e-05 0.0 0.0 1.0 1.0
 -2.4492935982947066e-16 0.0 81 1 260 105 6 258 0 0 269 251 261 83 3 261 0.80000
0011920929 0.800000011920929 0.800000011920929 15 262 106 0 239 258 0 17 263 0 2
62 151 239 147 266 264 0 159 -16 264 107 0 ?266 255 273 265 0 0 105 30 265 108 0
 264 274 256 0 +-7.9491872000000008e-04 -4.499187199999998e-04 5.5e-05 2.4492935
982947066e-16 1.0 0.0 17 266 0 271 235 159 231 263 264 0 239 +14 267 109 269 1.0
e-08 276 258 271 113 268 +0 0 276 258 111 50 268 110 0 267 277 259 0 +-7.9491872
000000008e-04 -4.499187199999998e-04 5.5e-05 1.0 -2.4492935982947066e-16 0.0 0.0
 0.0 1.0 81 1 269 111 6 267 0 0 278 260 270 83 3 270 0.800000011920929 0.8000000
11920929 0.800000011920929 15 271 112 0 159 267 0 17 272 0 271 159 235 155 275 2
73 0 154 -16 273 113 0 ?275 264 282 274 0 0 105 30 274 114 0 273 283 265 0 +-7.9
491872000000008e-04 -4.499187199999998e-04 4.9500000000000002e-04 2.449293598294
7066e-16 1.0 0.0 17 275 0 280 229 165 225 272 273 0 235 +14 276 115 278 1.0e-08
 285 267 280 113 277 -0 0 285 267 111 50 277 116 0 276 286 268 0 +-7.94918720000
00008e-04 -4.499187199999998e-04 4.9500000000000002e-04 0.0 0.0 1.0 1.0 -2.44929
35982947066e-16 0.0 81 1 278 117 6 276 0 0 287 269 279 83 3 279 0.80000001192092
9 0.800000011920929 0.800000011920929 15 280 118 0 281 276 0 17 281 0 280 165 22
9 161 284 282 0 171 +16 282 119 0 ?281 273 0 283 0 0 105 30 283 120 0 282 0 274
 0 +-7.4991872000000016e-04 -4.499187199999998e-04 4.9500000000000002e-04 -2.449
2935982947066e-16 -1.0 0.0 17 284 0 289 223 171 219 281 282 0 229 -14 285 121 28
7 1.0e-08 0 276 289 113 286 +0 0 0 276 111 50 286 122 0 285 0 277 0 +-7.49918720
00000016e-04 -4.499187199999998e-04 0.0 1.0 -2.4492935982947066e-16 0.0 0.0 0.0
 1.0 81 1 287 123 6 285 0 0 0 278 288 83 3 288 0.800000011920929 0.8000000119209
29 0.800000011920929 15 289 124 0 171 285 0 12 290 124 0 291 0 0 0 0 1000.0 1.0e
-08 0 0 0 1 0 1 1 298 300 306 304 295 305 303 70 291 0 290 0 0 4 1 20 0 292 292
 1 T74 20 292 1 0 293 0 0 0 0 0 0 0 0 0 0 0 0 0 0 0 0 0 0 0 81 1 293 7 6 299 0 0
 328 0 294 83 3 294 0.800000011920929 0.800000011920929 0.800000011920929 19 295
 1 0 290 297 0 296 V13 296 2 0 290 0 0 0 0 295 299 19 297 3 0 290 0 295 298 S13
 298 4 0 290 0 299 0 0 297 0 14 299 5 293 1.0e-08 326 0 301 298 300 -0 0 326 0 2
96 50 300 6 0 299 327 0 0 +8.5008128000000004e-04 4.5008127999999986e-04 0.0 -1.
0 3.6739403974417062e-16 0.0 0.0 0.0 1.0 15 301 8 0 302 299 0 17 302 0 301 310 3
22 303 307 305 0 315 +18 303 9 0 382 0 308 304 ?290 29 304 10 0 303 309 0 8.5008
127999999968e-04 -4.4991872000000024e-04 5.5e-04 16 305 11 0 ?302 0 313 306 0 0
 290 30 306 12 0 305 314 0 0 +8.5008128000000004e-04 4.5008127999999986e-04 5.5e
-04 -3.6739403974417062e-16 -1.0 0.0 17 307 0 375 360 382 308 302 305 0 0 -18 30
8 13 0 322 303 311 309 ?290 29 309 14 0 308 312 304 8.5008128000000004e-04 4.500
8127999999986e-04 5.5e-04 17 310 0 301 316 302 311 315 313 0 399 -18 311 15 0 32
1 308 317 312 ?290 29 312 16 0 311 318 309 8.5008127999999968e-04 -4.49918720000
00024e-04 0.0 16 313 17 0 ?315 305 319 314 0 0 290 30 314 18 0 313 320 306 0 +8.
5008127999999968e-04 -4.4991872000000024e-04 0.0 0.0 0.0 1.0 17 315 0 390 385 39
9 303 310 313 0 0 +17 316 0 301 322 310 317 321 319 0 366 -18 317 19 0 325 311 3
32 318 ?290 29 318 20 0 317 333 312 8.5008128000000004e-04 4.5008127999999986e-0
4 0.0 16 319 21 0 ?321 313 323 320 0 0 290 30 320 22 0 319 324 314 0 +8.50081280
00000004e-04 4.5008127999999986e-04 0.0 -3.6739403974417062e-16 -1.0 0.0 17 321
 0 429 402 366 311 316 319 0 310 +17 322 0 301 302 316 308 325 323 0 357 +16 323
 23 0 ?322 319 334 324 0 0 290 30 324 24 0 323 335 320 0 +8.5008128000000004e-04
 4.5008127999999986e-04 0.0 0.0 0.0 1.0 17 325 0 330 361 357 317 322 323 0 316 -
14 326 25 328 1.0e-08 371 299 330 298 327 -0 0 371 299 296 50 327 26 0 326 372 3
00 0 +8.5008128000000004e-04 4.5008127999999986e-04 0.0 -3.6739403974417062e-16
 -1.0 0.0 0.0 0.0 1.0 81 1 328 27 6 326 0 0 373 293 329 83 3 329 0.8000000119209
29 0.800000011920929 0.800000011920929 15 330 28 0 331 326 0 17 331 0 330 339 36
7 332 336 334 0 448 -18 332 29 0 331 317 337 333 ?290 29 333 30 0 332 338 318 7.
9508127999999996e-04 4.5008127999999986e-04 5.5e-05 16 334 31 0 ?336 323 342 335
 0 0 290 30 335 32 0 334 343 324 0 +7.9508127999999996e-04 4.5008127999999986e-0
4 5.5e-05 -1.0 3.6739403974417062e-16 0.0 17 336 0 447 442 448 337 331 334 0 367
 +18 337 33 0 336 332 340 338 ?290 29 338 34 0 337 341 333 7.5008128000000004e-0
4 4.5008127999999986e-04 5.5e-05 17 339 0 330 345 331 340 344 342 0 350 +18 340
 35 0 339 337 346 341 ?290 29 341 36 0 340 347 338 7.9508127999999996e-04 4.5008
127999999986e-04 4.9500000000000002e-04 16 342 37 0 ?339 334 348 343 0 0 290 30
 343 38 0 342 349 335 0 +7.9508127999999996e-04 4.5008127999999986e-04 5.5e-05 0
.0 0.0 1.0 17 344 0 456 451 457 332 339 342 0 0 -17 345 0 330 351 339 346 350 34
8 0 356 +18 346 39 0 345 340 352 347 ?290 29 347 40 0 346 353 341 7.500812800000
0004e-04 4.5008127999999986e-04 4.9500000000000002e-04 16 348 41 0 ?345 342 354
 349 0 0 290 30 349 42 0 348 355 343 0 +7.9508127999999996e-04 4.500812799999998
6e-04 4.9500000000000002e-04 -1.0 3.6739403974417062e-16 0.0 17 350 0 465 460 46
6 340 345 348 0 457 -17 351 0 330 357 345 352 356 354 0 381 +18 352 43 0 360 346
 362 353 ?290 29 353 44 0 352 363 347 7.5008128000000004e-04 4.5008127999999986e
-04 5.5e-04 16 354 45 0 ?351 348 358 355 0 0 290 30 355 46 0 354 359 349 0 +7.50
08128000000004e-04 4.5008127999999986e-04 0.0 0.0 0.0 1.0 17 356 0 474 469 381 3
46 351 354 0 466 -17 357 0 330 325 351 308 360 358 0 307 -16 358 47 0 ?360 354 3
64 359 0 0 290 30 359 48 0 358 365 355 0 +8.5008128000000004e-04 4.5008127999999
986e-04 5.5e-04 -1.0 3.6739403974417062e-16 0.0 17 360 0 375 376 307 352 357 358
 0 351 +17 361 0 330 367 325 362 366 364 0 430 +18 362 49 0 370 352 377 363 ?290
 29 363 50 0 362 378 353 7.5008128000000004e-04 4.5008127999999986e-04 0.0 16 36
4 51 0 ?361 358 368 365 0 0 290 30 365 52 0 364 369 359 0 +8.5008128000000004e-0
4 4.5008127999999986e-04 0.0 -1.0 3.6739403974417062e-16 0.0 17 366 0 429 321 43
0 317 361 364 0 0 -17 367 0 330 331 361 337 370 368 0 439 +16 368 53 0 ?367 364
 379 369 0 0 290 30 369 54 0 368 380 365 0 +7.5008128000000004e-04 4.50081279999
99986e-04 0.0 0.0 0.0 1.0 17 370 0 438 433 439 362 367 368 0 361 -14 371 55 373
 1.0e-08 386 326 375 298 372 +0 0 386 326 296 50 372 56 0 371 387 327 0 +8.50081
28000000004e-04 4.5008127999999986e-04 5.5e-04 0.0 0.0 1.0 -1.0 3.67394039744170
62e-16 0.0 81 1 373 57 6 371 0 0 388 328 374 83 3 374 0.800000011920929 0.800000
011920929 0.800000011920929 15 375 58 0 307 371 0 17 376 0 375 382 360 377 381 3
79 0 408 +18 377 59 0 385 362 392 378 ?290 29 378 60 0 377 393 363 7.50081279999
99976e-04 -4.4991872000000024e-04 5.5e-04 16 379 61 0 ?376 368 383 380 0 0 290 3
0 380 62 0 379 384 369 0 +7.5008128000000004e-04 4.5008127999999986e-04 5.5e-04
 -3.6739403974417062e-16 -1.0 0.0 17 381 0 474 356 408 352 376 379 0 0 -17 382 0
 375 307 376 303 385 383 0 302 -16 383 63 0 ?385 379 394 384 0 0 290 30 384 64 0
 383 395 380 0 +8.5008127999999968e-04 -4.4991872000000024e-04 5.5e-04 -1.0 3.67
39403974417062e-16 0.0 17 385 0 390 403 315 377 382 383 0 376 +14 386 65 388 1.0
e-08 425 371 390 298 387 +0 0 425 371 296 50 387 66 0 386 426 372 0 +8.500812799
9999986e-04 -4.4991872000000024e-04 0.0 -3.6739403974417062e-16 -1.0 0.0 0.0 0.0
 1.0 81 1 388 67 6 386 0 0 427 373 389 83 3 389 0.800000011920929 0.800000011920
929 0.800000011920929 15 390 68 0 391 386 0 17 391 0 390 399 421 392 396 394 0 4
02 -18 392 69 0 391 377 397 393 ?290 29 393 70 0 392 398 378 7.5008127999999976e
-04 -4.4991872000000024e-04 0.0 16 394 71 0 ?396 383 400 395 0 0 290 30 395 72 0
 394 401 384 0 +7.5008127999999976e-04 -4.4991872000000024e-04 0.0 0.0 0.0 1.0 1
7 396 0 438 439 433 397 391 394 0 421 +18 397 73 0 396 392 404 398 ?290 29 398 7
4 0 397 405 393 7.5008127999999976e-04 -4.4991872000000024e-04 5.5e-05 17 399 0
 390 315 391 311 402 400 0 0 -16 400 75 0 ?402 394 406 401 0 0 290 30 401 76 0 4
00 407 395 0 +8.5008127999999968e-04 -4.4991872000000024e-04 0.0 -1.0 3.67394039
74417062e-16 0.0 17 402 0 429 430 321 392 399 400 0 433 +17 403 0 390 409 385 40
4 408 406 0 414 -18 404 77 0 403 397 410 405 ?290 29 405 78 0 404 411 398 7.5008
127999999976e-04 -4.4991872000000024e-04 4.9500000000000002e-04 16 406 79 0 ?408
 400 412 407 0 0 290 30 407 80 0 406 413 401 0 +7.5008127999999976e-04 -4.499187
2000000024e-04 0.0 0.0 0.0 1.0 17 408 0 474 381 469 377 403 406 0 0 +17 409 0 39
0 415 403 410 414 412 0 420 -18 410 81 0 409 404 416 411 ?290 29 411 82 0 410 41
7 405 7.950812799999996e-04 -4.4991872000000024e-04 4.9500000000000002e-04 16 41
2 83 0 ?414 406 418 413 0 0 290 30 413 84 0 412 419 407 0 +7.950812799999996e-04
 -4.4991872000000024e-04 4.9500000000000002e-04 -1.0 3.6739403974417062e-16 0.0
 17 414 0 465 466 460 404 409 412 0 469 +17 415 0 390 421 409 416 420 418 0 0 -1
8 416 85 0 424 410 0 417 ?290 29 417 86 0 416 0 411 7.950812799999996e-04 -4.499
1872000000024e-04 5.5e-05 16 418 87 0 ?420 412 422 419 0 0 290 30 419 88 0 418 4
23 413 0 +7.950812799999996e-04 -4.4991872000000024e-04 5.5e-05 0.0 0.0 1.0 17 4
20 0 456 457 451 410 415 418 0 460 +17 421 0 390 391 415 397 424 422 0 442 +16 4
22 89 0 ?421 418 431 423 0 0 290 30 423 90 0 422 432 419 0 +7.950812799999996e-0
4 -4.4991872000000024e-04 5.5e-05 -1.0 3.6739403974417062e-16 0.0 17 424 0 447 4
48 442 416 421 422 0 451 -14 425 91 427 1.0e-08 434 386 429 298 426 -0 0 434 386
 296 50 426 92 0 425 435 387 0 +8.5008128000000004e-04 4.5008127999999986e-04 0.
0 0.0 0.0 1.0 -1.0 3.6739403974417062e-16 0.0 81 1 427 93 6 425 0 0 436 388 428
 83 3 428 0.800000011920929 0.800000011920929 0.800000011920929 15 429 94 0 402
 425 0 17 430 0 429 366 402 362 433 431 0 0 -16 431 95 0 ?433 422 440 432 0 0 29
0 30 432 96 0 431 441 423 0 +7.5008128000000004e-04 4.5008127999999986e-04 0.0 -
3.6739403974417062e-16 -1.0 0.0 17 433 0 438 396 370 392 430 431 0 0 +14 434 97
 436 1.0e-08 443 425 438 298 435 +0 0 443 425 296 50 435 98 0 434 444 426 0 +7.5
008128000000004e-04 4.5008127999999986e-04 0.0 -1.0 3.6739403974417062e-16 0.0 0
.0 0.0 1.0 81 1 436 99 6 434 0 0 445 427 437 83 3 437 0.800000011920929 0.800000
011920929 0.800000011920929 15 438 100 0 370 434 0 17 439 0 438 370 396 337 442
 440 0 0 +16 440 101 0 ?439 431 449 441 0 0 290 30 441 102 0 440 450 432 0 +7.50
08128000000004e-04 4.5008127999999986e-04 5.5e-05 3.6739403974417062e-16 1.0 0.0
 17 442 0 447 424 336 397 439 440 0 0 -14 443 103 445 1.0e-08 452 434 447 298 44
4 +0 0 452 434 296 50 444 104 0 443 453 435 0 +7.9508127999999996e-04 4.50081279
99999986e-04 5.5e-05 0.0 0.0 1.0 -1.0 3.6739403974417062e-16 0.0 81 1 445 105 6
 443 0 0 454 436 446 83 3 446 0.800000011920929 0.800000011920929 0.800000011920
929 15 447 106 0 424 443 0 17 448 0 447 336 424 332 451 449 0 344 -16 449 107 0
 ?451 440 458 450 0 0 290 30 450 108 0 449 459 441 0 +7.9508127999999996e-04 4.5
008127999999986e-04 5.5e-05 -3.6739403974417062e-16 -1.0 0.0 17 451 0 456 420 34
4 416 448 449 0 415 +14 452 109 454 1.0e-08 461 443 456 298 453 +0 0 461 443 296
 50 453 110 0 452 462 444 0 +7.9508127999999996e-04 4.5008127999999986e-04 5.5e-
05 -1.0 3.6739403974417062e-16 0.0 0.0 0.0 1.0 81 1 454 111 6 452 0 0 463 445 45
5 83 3 455 0.800000011920929 0.800000011920929 0.800000011920929 15 456 112 0 34
4 452 0 17 457 0 456 344 420 340 460 458 0 0 -16 458 113 0 ?460 449 467 459 0 0
 290 30 459 114 0 458 468 450 0 +7.9508127999999996e-04 4.5008127999999986e-04 4
.9500000000000002e-04 -3.6739403974417062e-16 -1.0 0.0 17 460 0 465 414 350 410
 457 458 0 0 +14 461 115 463 1.0e-08 470 452 465 298 462 -0 0 470 452 296 50 462
 116 0 461 471 453 0 +7.9508127999999996e-04 4.5008127999999986e-04 4.9500000000
000002e-04 0.0 0.0 1.0 -1.0 3.6739403974417062e-16 0.0 81 1 463 117 6 461 0 0 47
2 454 464 83 3 464 0.800000011920929 0.800000011920929 0.800000011920929 15 465
 118 0 466 461 0 17 466 0 465 350 414 346 469 467 0 0 +16 467 119 0 ?466 458 0 4
68 0 0 290 30 468 120 0 467 0 459 0 +7.5008128000000004e-04 4.5008127999999986e-
04 4.9500000000000002e-04 3.6739403974417062e-16 1.0 0.0 17 469 0 474 408 356 40
4 466 467 0 0 -14 470 121 472 1.0e-08 0 461 474 298 471 +0 0 0 461 296 50 471 12
2 0 470 0 462 0 +7.5008128000000004e-04 4.5008127999999986e-04 0.0 -1.0 3.673940
3974417062e-16 0.0 0.0 0.0 1.0 81 1 472 123 6 470 0 0 0 463 473 83 3 473 0.80000
0011920929 0.800000011920929 0.800000011920929 15 474 124 0 356 470 0 12 475 68
 0 476 0 0 0 0 1000.0 1.0e-08 0 0 0 1 0 1 1 483 485 491 489 480 490 488 70 476 0
 475 0 0 4 1 20 0 477 477 1 T74 20 477 1 0 478 0 0 0 0 0 0 0 0 0 0 0 0 0 0 0 0 0
 0 0 81 1 478 7 6 484 0 0 513 0 479 83 3 479 0.1607843190431595 0.16078431904315
95 0.1607843190431595 19 480 1 0 475 482 0 481 V13 481 2 0 475 0 0 0 0 480 484 1
9 482 3 0 475 0 480 483 S13 483 4 0 475 0 484 0 0 482 0 14 484 5 478 1.0e-08 511
 0 486 483 485 -0 0 511 0 481 50 485 6 0 484 512 0 0 +-7.4991872000000016e-04 -4
.499187199999998e-04 4.9500000000000002e-04 1.0 -2.4492935982947066e-16 0.0 0.0
 0.0 1.0 15 486 8 0 487 484 0 17 487 0 486 495 507 488 492 490 0 565 +18 488 9 0
 500 0 493 489 ?475 29 489 10 0 488 494 0 -7.4991871999999998e-04 4.500812800000
0022e-04 5.5e-04 16 490 11 0 ?487 0 498 491 0 0 475 30 491 12 0 490 499 0 0 +-7.
4991872000000016e-04 -4.499187199999998e-04 5.5e-04 2.4492935982947066e-16 1.0 0
.0 17 492 0 575 548 565 493 487 490 0 545 -18 493 13 0 507 488 496 494 ?475 29 4
94 14 0 493 497 489 -7.4991872000000016e-04 -4.499187199999998e-04 5.5e-04 17 49
5 0 486 501 487 496 500 498 0 558 -18 496 15 0 506 493 502 497 ?475 29 497 16 0
 496 503 494 -7.4991871999999998e-04 4.5008128000000022e-04 4.9500000000000002e-
04 16 498 17 0 ?500 490 504 499 0 0 475 30 499 18 0 498 505 491 0 +-7.4991871999
999998e-04 4.5008128000000022e-04 4.9500000000000002e-04 0.0 0.0 1.0 17 500 0 55
7 562 558 488 495 498 0 487 +17 501 0 486 507 495 502 506 504 0 552 -18 502 19 0
 510 496 517 503 ?475 29 503 20 0 502 518 497 -7.4991872000000016e-04 -4.4991871
99999998e-04 4.9500000000000002e-04 16 504 21 0 ?506 498 508 505 0 0 475 30 505
 22 0 504 509 499 0 +-7.4991872000000016e-04 -4.499187199999998e-04 4.9500000000
000002e-04 2.4492935982947066e-16 1.0 0.0 17 506 0 570 561 552 496 501 504 0 495
 +17 507 0 486 487 501 493 510 508 0 492 +16 508 23 0 ?507 504 519 509 0 0 475 3
0 509 24 0 508 520 505 0 +-7.4991872000000016e-04 -4.499187199999998e-04 4.95000
00000000002e-04 0.0 0.0 1.0 17 510 0 544 549 545 502 507 508 0 501 -14 511 25 51
3 1.0e-08 540 484 515 483 512 +0 0 540 484 481 50 512 26 0 511 541 485 0 +7.5008
127999999986e-04 -4.4991872000000024e-04 4.9500000000000002e-04 1.0 -2.449293598
2947066e-16 0.0 0.0 0.0 1.0 81 1 513 27 6 511 0 0 542 478 514 83 3 514 0.1607843
190431595 0.1607843190431595 0.1607843190431595 15 515 28 0 516 511 0 17 516 0 5
15 524 536 517 521 519 0 549 -18 517 29 0 516 502 522 518 ?475 29 518 30 0 517 5
23 503 7.5008127999999986e-04 -4.4991872000000024e-04 4.9500000000000002e-04 16
 519 31 0 ?521 508 527 520 0 0 475 30 520 32 0 519 528 509 0 +7.5008127999999986
e-04 -4.4991872000000024e-04 4.9500000000000002e-04 0.0 0.0 1.0 17 521 0 544 545
 549 522 516 519 0 548 +18 522 33 0 536 517 525 523 ?475 29 523 34 0 522 526 518
 7.5008127999999986e-04 -4.4991872000000024e-04 5.5e-04 17 524 0 515 530 516 525
 529 527 0 561 +18 525 35 0 535 522 531 526 ?475 29 526 36 0 525 532 523 7.50081
28000000004e-04 4.5008127999999986e-04 4.9500000000000002e-04 16 527 37 0 ?524 5
19 533 528 0 0 475 30 528 38 0 527 534 520 0 +7.5008127999999986e-04 -4.49918720
00000024e-04 4.9500000000000002e-04 2.4492935982947066e-16 1.0 0.0 17 529 0 570
 552 561 517 524 527 0 0 -17 530 0 515 536 524 531 535 533 0 539 +18 531 39 0 53
0 525 0 532 ?475 29 532 40 0 531 0 526 7.5008128000000004e-04 4.5008127999999986
e-04 5.5e-04 16 533 41 0 ?530 527 537 534 0 0 475 30 534 42 0 533 538 528 0 +7.5
008128000000004e-04 4.5008127999999986e-04 4.9500000000000002e-04 0.0 0.0 1.0 17
 535 0 557 558 562 525 530 533 0 524 -17 536 0 515 516 530 522 539 537 0 521 -16
 537 43 0 ?539 533 546 538 0 0 475 30 538 44 0 537 547 534 0 +7.5008127999999986
e-04 -4.4991872000000024e-04 5.5e-04 2.4492935982947066e-16 1.0 0.0 17 539 0 575
 565 548 531 536 537 0 562 +14 540 45 542 1.0e-08 553 511 544 483 541 -0 0 553 5
11 481 50 541 46 0 540 554 512 0 +-7.4991872000000016e-04 -4.499187199999998e-04
 4.9500000000000002e-04 2.4492935982947066e-16 1.0 0.0 0.0 0.0 1.0 81 1 542 47 6
 540 0 0 555 513 543 83 3 543 0.1607843190431595 0.1607843190431595 0.1607843190
431595 15 544 48 0 521 540 0 17 545 0 544 510 521 493 548 546 0 0 -16 546 49 0 ?
548 537 550 547 0 0 475 30 547 50 0 546 551 538 0 +-7.4991872000000016e-04 -4.49
9187199999998e-04 5.5e-04 1.0 -2.4492935982947066e-16 0.0 17 548 0 575 539 492 5
22 545 546 0 0 +17 549 0 544 521 510 517 552 550 0 529 +16 550 51 0 ?549 546 559
 551 0 0 475 30 551 52 0 550 560 547 0 +-7.4991872000000016e-04 -4.4991871999999
98e-04 4.9500000000000002e-04 1.0 -2.4492935982947066e-16 0.0 17 552 0 570 506 5
29 502 549 550 0 0 -14 553 53 555 1.0e-08 566 540 557 483 554 +0 0 566 540 481 5
0 554 54 0 553 567 541 0 +-7.4991871999999998e-04 4.5008128000000022e-04 4.95000
00000000002e-04 2.4492935982947066e-16 1.0 0.0 0.0 0.0 1.0 81 1 555 55 6 553 0 0
 568 542 556 83 3 556 0.1607843190431595 0.1607843190431595 0.1607843190431595 1
5 557 56 0 558 553 0 17 558 0 557 500 535 496 561 559 0 0 -16 559 57 0 ?561 550
 563 560 0 0 475 30 560 58 0 559 564 551 0 +-7.4991871999999998e-04 4.5008128000
000022e-04 4.9500000000000002e-04 1.0 -2.4492935982947066e-16 0.0 17 561 0 570 5
29 506 525 558 559 0 0 +17 562 0 557 535 500 531 565 563 0 0 +16 563 59 0 ?562 5
59 0 564 0 0 475 30 564 60 0 563 0 560 0 +-7.4991871999999998e-04 4.500812800000
0022e-04 5.5e-04 1.0 -2.4492935982947066e-16 0.0 17 565 0 575 492 539 488 562 56
3 0 0 -14 566 61 568 1.0e-08 571 553 570 483 567 -0 0 571 553 481 50 567 62 0 56
6 572 554 0 +-7.4991872000000016e-04 -4.499187199999998e-04 4.9500000000000002e-
04 0.0 0.0 1.0 1.0 -2.4492935982947066e-16 0.0 81 1 568 63 6 566 0 0 573 555 569
 83 3 569 0.1607843190431595 0.1607843190431595 0.1607843190431595 15 570 64 0 5
61 566 0 14 571 65 573 1.0e-08 0 566 575 483 572 +0 0 0 566 481 50 572 66 0 571
 0 567 0 +-7.4991872000000016e-04 -4.499187199999998e-04 5.5e-04 0.0 0.0 1.0 1.0
 -2.4492935982947066e-16 0.0 81 1 573 67 6 571 0 0 0 568 574 83 3 574 0.16078431
90431595 0.1607843190431595 0.1607843190431595 15 575 68 0 492 571 0 1 0 
