**ABCDEFGHIJKLMNOPQRSTUVWXYZabcdefghijklmnopqrstuvwxyz**************************
**PARASOLID !"#$%&'()*+,-./:;<=>?@[\]^_`{|}~0123456789**************************
**PART1;
MC=AMD64;
MC_MODEL=AMD64 Family 23 Model 1 Stepping 2, AuthenticAMD;
MC_ID=unknown;
OS=Windows_NT;
OS_RELEASE=unknown;
FRU=CAD Exchanger 3.13.0 (cadexchanger.com);
APPL=unknown;
SITE=unknown;
USER=unknown;
FORMAT=text;
GUISE=transmit;
KEY=CL21A226MOQNNNE-Footprint-1_CMP-001-00087-3;
FILE=CL21A226MOQNNNE-Footprint-1_CMP-001-00087-3.x_t;
DATE=Sun Nov 26 22:43:25 2023;
**PART2;
SCH=SCH_1200000_12103;
USFLD_SIZE=0;
**PART3;
**END_OF_HEADER*****************************************************************
T51 : TRANSMIT FILE created by modeller version 120000017 SCH_1200000_121030 74
 4 1 4 0 2 105 206 307 12 2 68 0 3 0 0 0 0 1000.0 1.0e-08 0 0 0 1 0 1 1 12 14 20
 18 9 19 17 70 3 0 2 0 0 4 1 20 0 4 4 1 T74 20 4 1 0 5 0 0 0 0 0 0 0 0 0 0 0 0 0
 0 0 0 0 0 0 81 1 5 7 6 13 0 0 42 0 8 80 1 6 0 7 8001 0 0 0 0 3 5 0 0 0 FFFFTFTF
FFFFFF2 79 15 7 SDL/TYSA_COLOUR83 3 8 0.4589999914169312 0.3449999988079071 0.17
59999990463257 19 9 1 0 2 11 0 10 V13 10 2 0 2 0 0 0 0 9 13 19 11 3 0 2 0 9 12 S
13 12 4 0 2 0 13 0 0 11 0 14 13 5 5 1.0e-08 40 0 15 12 14 +0 0 40 0 10 50 14 6 0
 13 41 0 0 +-5.0000000000000009e-04 -6.0699999999999994e-04 1.8e-05 -2.449293598
2947066e-16 -1.0 0.0 0.0 0.0 1.0 15 15 8 0 16 13 0 17 16 0 15 24 36 17 21 19 0 2
9 -18 17 9 0 16 0 22 18 ?2 29 18 10 0 17 23 0 4.9999999999999982e-04 -6.07000000
00000012e-04 1.7999999999999996e-05 16 19 11 0 ?21 0 27 20 0 0 2 30 20 12 0 19 2
8 0 0 +4.9999999999999982e-04 -6.0700000000000012e-04 1.7999999999999996e-05 -1.
0 2.4492935982947066e-16 0.0 17 21 0 99 90 50 22 16 19 0 36 +18 22 13 0 21 17 25
 23 ?2 29 23 14 0 22 26 18 -5.0000000000000009e-04 -6.0699999999999994e-04 1.799
9999999999996e-05 17 24 0 15 30 16 25 29 27 0 35 -18 25 15 0 24 22 31 26 ?2 29 2
6 16 0 25 32 23 4.9999999999999982e-04 -6.0700000000000012e-04 0.001332 16 27 17
 0 ?29 19 33 28 0 0 2 30 28 18 0 27 34 20 0 +4.9999999999999982e-04 -6.070000000
0000012e-04 0.001332 0.0 0.0 -1.0 17 29 0 44 45 57 17 24 27 0 50 +17 30 0 15 36
 24 31 35 33 0 39 -18 31 19 0 30 25 46 32 ?2 29 32 20 0 31 47 26 -5.000000000000
0009e-04 -6.0699999999999994e-04 0.001332 16 33 21 0 ?35 27 37 34 0 0 2 30 34 22
 0 33 38 28 0 +-5.0000000000000009e-04 -6.0699999999999994e-04 0.001332 1.0 -2.4
492935982947066e-16 0.0 17 35 0 104 60 94 25 30 33 0 57 +17 36 0 15 16 30 22 39
 37 0 87 -16 37 23 0 ?39 33 48 38 0 0 2 30 38 24 0 37 49 34 0 +-5.00000000000000
09e-04 -6.0699999999999994e-04 1.7999999999999996e-05 0.0 0.0 1.0 17 39 0 86 91
 87 31 36 37 0 94 +14 40 25 42 1.0e-08 61 13 44 12 41 +0 0 61 13 10 50 41 26 0 4
0 62 14 0 +4.9999999999999982e-04 -6.0700000000000012e-04 1.8e-05 1.0 -2.4492935
982947066e-16 0.0 0.0 0.0 1.0 81 1 42 27 6 40 0 0 63 5 43 83 3 43 0.458999991416
9312 0.3449999988079071 0.1759999990463257 15 44 28 0 45 40 0 17 45 0 44 51 29 4
6 50 48 0 56 -18 46 29 0 45 31 52 47 ?2 29 47 30 0 46 53 32 5.0000000000000009e-
04 6.0699999999999994e-04 1.7999999999999996e-05 16 48 31 0 ?50 37 54 49 0 0 2 3
0 49 32 0 48 55 38 0 +5.0000000000000009e-04 6.0699999999999994e-04 1.7999999999
999996e-05 -2.4492935982947066e-16 -1.0 0.0 17 50 0 99 21 71 17 45 48 0 0 +17 51
 0 44 57 45 52 56 54 0 60 -18 52 33 0 51 46 67 53 ?2 29 53 34 0 52 68 47 5.00000
00000000009e-04 6.0699999999999994e-04 0.001332 16 54 35 0 ?56 48 58 55 0 0 2 30
 55 36 0 54 59 49 0 +5.0000000000000009e-04 6.0699999999999994e-04 0.001332 0.0
 0.0 -1.0 17 56 0 65 66 78 46 51 54 0 71 +17 57 0 44 29 51 25 60 58 0 0 -16 58 3
7 0 ?60 54 69 59 0 0 2 30 59 38 0 58 70 55 0 +4.9999999999999982e-04 -6.07000000
00000012e-04 0.001332 2.4492935982947066e-16 1.0 0.0 17 60 0 104 81 35 52 57 58
 0 78 +14 61 39 63 1.0e-08 82 40 65 12 62 +0 0 82 40 10 50 62 40 0 61 83 41 0 +5
.0000000000000009e-04 6.0699999999999994e-04 1.8e-05 2.4492935982947066e-16 1.0
 0.0 0.0 0.0 1.0 81 1 63 41 6 61 0 0 84 42 64 83 3 64 0.4589999914169312 0.34499
99988079071 0.1759999990463257 15 65 42 0 66 61 0 17 66 0 65 72 56 67 71 69 0 77
 -18 67 43 0 66 52 73 68 ?2 29 68 44 0 67 74 53 -4.9999999999999982e-04 6.070000
0000000012e-04 1.7999999999999996e-05 16 69 45 0 ?71 58 75 70 0 0 2 30 70 46 0 6
9 76 59 0 +-4.9999999999999982e-04 6.0700000000000012e-04 1.7999999999999996e-05
 1.0 -2.4492935982947066e-16 0.0 17 71 0 99 50 90 46 66 69 0 0 +17 72 0 65 78 66
 73 77 75 0 81 -18 73 47 0 72 67 0 74 ?2 29 74 48 0 73 0 68 -4.9999999999999982e
-04 6.0700000000000012e-04 0.001332 16 75 49 0 ?77 69 79 76 0 0 2 30 76 50 0 75
 80 70 0 +-4.9999999999999982e-04 6.0700000000000012e-04 0.001332 0.0 0.0 -1.0 1
7 77 0 86 87 91 67 72 75 0 90 +17 78 0 65 56 72 52 81 79 0 0 -16 79 51 0 ?81 75
 88 80 0 0 2 30 80 52 0 79 89 76 0 +5.0000000000000009e-04 6.0699999999999994e-0
4 0.001332 -1.0 2.4492935982947066e-16 0.0 17 81 0 104 94 60 73 78 79 0 91 +14 8
2 53 84 1.0e-08 95 61 86 12 83 +0 0 95 61 10 50 83 54 0 82 96 62 0 +-4.999999999
9999982e-04 6.0700000000000012e-04 1.8e-05 -1.0 2.4492935982947066e-16 0.0 0.0 0
.0 1.0 81 1 84 55 6 82 0 0 97 63 85 83 3 85 0.4589999914169312 0.344999998807907
1 0.1759999990463257 15 86 56 0 87 82 0 17 87 0 86 39 77 22 90 88 0 0 -16 88 57
 0 ?90 79 92 89 0 0 2 30 89 58 0 88 93 80 0 +-5.0000000000000009e-04 -6.06999999
99999994e-04 1.7999999999999996e-05 2.4492935982947066e-16 1.0 0.0 17 90 0 99 71
 21 67 87 88 0 0 +17 91 0 86 77 39 73 94 92 0 0 -16 92 59 0 ?94 88 0 93 0 0 2 30
 93 60 0 92 0 89 0 +-4.9999999999999982e-04 6.0700000000000012e-04 0.001332 -2.4
492935982947066e-16 -1.0 0.0 17 94 0 104 35 81 31 91 92 0 0 +14 95 61 97 1.0e-08
 100 82 99 12 96 +0 0 100 82 10 50 96 62 0 95 101 83 0 +-4.9999999999999982e-04
 6.0700000000000012e-04 1.8e-05 0.0 0.0 -1.0 2.4492935982947066e-16 1.0 0.0 81 1
 97 63 6 95 0 0 102 84 98 83 3 98 0.4589999914169312 0.3449999988079071 0.175999
9990463257 15 99 64 0 71 95 0 14 100 65 102 1.0e-08 0 95 104 12 101 +0 0 0 95 10
 50 101 66 0 100 0 96 0 +-5.0000000000000009e-04 -6.0699999999999994e-04 0.00133
2 0.0 0.0 1.0 2.4492935982947066e-16 1.0 0.0 81 1 102 67 6 100 0 0 0 97 103 83 3
 103 0.4589999914169312 0.3449999988079071 0.1759999990463257 15 104 68 0 35 100
 0 12 105 68 0 106 0 0 0 0 1000.0 1.0e-08 0 0 0 1 0 1 1 113 115 121 119 110 120
 118 70 106 0 105 0 0 4 1 20 0 107 107 1 T74 20 107 1 0 108 0 0 0 0 0 0 0 0 0 0
 0 0 0 0 0 0 0 0 0 81 1 108 7 6 114 0 0 143 0 109 83 3 109 0.7249999642372132 0.
7249999642372132 0.7249999642372132 19 110 1 0 105 112 0 111 V13 111 2 0 105 0 0
 0 0 110 114 19 112 3 0 105 0 110 113 S13 113 4 0 105 0 114 0 0 112 0 14 114 5 1
08 1.0e-08 141 0 116 113 115 +0 0 141 0 111 50 115 6 0 114 142 0 0 +4.9999999999
999982e-04 -6.2500000000000009e-04 0.0 -2.4492935982947066e-16 -1.0 0.0 0.0 0.0
 1.0 15 116 8 0 117 114 0 17 117 0 116 125 137 118 122 120 0 130 -18 118 9 0 117
 0 123 119 ?105 29 119 10 0 118 124 0 0.9999999999999998e-03 -6.2500000000000027
e-04 0.0 16 120 11 0 ?122 0 128 121 0 0 105 30 121 12 0 120 129 0 0 +0.999999999
9999998e-03 -6.2500000000000027e-04 0.0 -1.0 2.4492935982947066e-16 0.0 17 122 0
 200 191 151 123 117 120 0 137 +18 123 13 0 122 118 126 124 ?105 29 124 14 0 123
 127 119 4.9999999999999982e-04 -6.2500000000000009e-04 0.0 17 125 0 116 131 117
 126 130 128 0 136 -18 126 15 0 125 123 132 127 ?105 29 127 16 0 126 133 124 0.9
999999999999998e-03 -6.2500000000000027e-04 0.00135 16 128 17 0 ?130 120 134 129
 0 0 105 30 129 18 0 128 135 121 0 +0.9999999999999998e-03 -6.2500000000000027e-
04 0.00135 0.0 0.0 -1.0 17 130 0 145 146 158 118 125 128 0 151 +17 131 0 116 137
 125 132 136 134 0 140 -18 132 19 0 131 126 147 133 ?105 29 133 20 0 132 148 127
 4.9999999999999982e-04 -6.2500000000000009e-04 0.00135 16 134 21 0 ?136 128 138
 135 0 0 105 30 135 22 0 134 139 129 0 +4.9999999999999982e-04 -6.25000000000000
09e-04 0.00135 1.0 -2.4492935982947066e-16 0.0 17 136 0 205 161 195 126 131 134
 0 158 +17 137 0 116 117 131 123 140 138 0 188 -16 138 23 0 ?140 134 149 139 0 0
 105 30 139 24 0 138 150 135 0 +4.9999999999999982e-04 -6.2500000000000009e-04 0
.0 0.0 0.0 1.0 17 140 0 187 192 188 132 137 138 0 195 +14 141 25 143 1.0e-08 162
 114 145 113 142 +0 0 162 114 111 50 142 26 0 141 163 115 0 +0.9999999999999998e
-03 -6.2500000000000027e-04 0.0 1.0 -2.4492935982947066e-16 0.0 0.0 0.0 1.0 81 1
 143 27 6 141 0 0 164 108 144 83 3 144 0.7249999642372132 0.7249999642372132 0.7
249999642372132 15 145 28 0 146 141 0 17 146 0 145 152 130 147 151 149 0 157 -18
 147 29 0 146 132 153 148 ?105 29 148 30 0 147 154 133 0.001 6.2499999999999982e
-04 0.0 16 149 31 0 ?151 138 155 150 0 0 105 30 150 32 0 149 156 139 0 +0.001 6.
2499999999999982e-04 0.0 -2.4492935982947066e-16 -1.0 0.0 17 151 0 200 122 172 1
18 146 149 0 0 +17 152 0 145 158 146 153 157 155 0 161 -18 153 33 0 152 147 168
 154 ?105 29 154 34 0 153 169 148 0.001 6.2499999999999982e-04 0.00135 16 155 35
 0 ?157 149 159 156 0 0 105 30 156 36 0 155 160 150 0 +0.001 6.2499999999999982e
-04 0.00135 0.0 0.0 -1.0 17 157 0 166 167 179 147 152 155 0 172 +17 158 0 145 13
0 152 126 161 159 0 0 -16 159 37 0 ?161 155 170 160 0 0 105 30 160 38 0 159 171
 156 0 +0.9999999999999998e-03 -6.2500000000000027e-04 0.00135 2.449293598294706
6e-16 1.0 0.0 17 161 0 205 182 136 153 158 159 0 179 +14 162 39 164 1.0e-08 183
 141 166 113 163 +0 0 183 141 111 50 163 40 0 162 184 142 0 +0.001 6.24999999999
99982e-04 0.0 2.4492935982947066e-16 1.0 0.0 0.0 0.0 1.0 81 1 164 41 6 162 0 0 1
85 143 165 83 3 165 0.7249999642372132 0.7249999642372132 0.7249999642372132 15
 166 42 0 167 162 0 17 167 0 166 173 157 168 172 170 0 178 -18 168 43 0 167 153
 174 169 ?105 29 169 44 0 168 175 154 5.0000000000000009e-04 6.2499999999999991e
-04 0.0 16 170 45 0 ?172 159 176 171 0 0 105 30 171 46 0 170 177 160 0 +5.000000
0000000009e-04 6.2499999999999991e-04 0.0 1.0 -2.4492935982947066e-16 0.0 17 172
 0 200 151 191 147 167 170 0 0 +17 173 0 166 179 167 174 178 176 0 182 -18 174 4
7 0 173 168 0 175 ?105 29 175 48 0 174 0 169 5.0000000000000009e-04 6.2499999999
999991e-04 0.00135 16 176 49 0 ?178 170 180 177 0 0 105 30 177 50 0 176 181 171
 0 +5.0000000000000009e-04 6.2499999999999991e-04 0.00135 0.0 0.0 -1.0 17 178 0
 187 188 192 168 173 176 0 191 +17 179 0 166 157 173 153 182 180 0 0 -16 180 51
 0 ?182 176 189 181 0 0 105 30 181 52 0 180 190 177 0 +0.001 6.2499999999999982e
-04 0.00135 -1.0 2.4492935982947066e-16 0.0 17 182 0 205 195 161 174 179 180 0 1
92 +14 183 53 185 1.0e-08 196 162 187 113 184 +0 0 196 162 111 50 184 54 0 183 1
97 163 0 +5.0000000000000009e-04 6.2499999999999991e-04 0.0 -1.0 2.4492935982947
066e-16 0.0 0.0 0.0 1.0 81 1 185 55 6 183 0 0 198 164 186 83 3 186 0.72499996423
72132 0.7249999642372132 0.7249999642372132 15 187 56 0 188 183 0 17 188 0 187 1
40 178 123 191 189 0 0 -16 189 57 0 ?191 180 193 190 0 0 105 30 190 58 0 189 194
 181 0 +4.9999999999999982e-04 -6.2500000000000009e-04 0.0 2.4492935982947066e-1
6 1.0 0.0 17 191 0 200 172 122 168 188 189 0 0 +17 192 0 187 178 140 174 195 193
 0 0 -16 193 59 0 ?195 189 0 194 0 0 105 30 194 60 0 193 0 190 0 +5.000000000000
0009e-04 6.2499999999999991e-04 0.00135 -2.4492935982947066e-16 -1.0 0.0 17 195
 0 205 136 182 132 192 193 0 0 +14 196 61 198 1.0e-08 201 183 200 113 197 +0 0 2
01 183 111 50 197 62 0 196 202 184 0 +5.0000000000000009e-04 6.2499999999999991e
-04 0.0 0.0 0.0 -1.0 2.4492935982947066e-16 1.0 0.0 81 1 198 63 6 196 0 0 203 18
5 199 83 3 199 0.7249999642372132 0.7249999642372132 0.7249999642372132 15 200 6
4 0 172 196 0 14 201 65 203 1.0e-08 0 196 205 113 202 +0 0 0 196 111 50 202 66 0
 201 0 197 0 +4.9999999999999982e-04 -6.2500000000000009e-04 0.00135 0.0 0.0 1.0
 2.4492935982947066e-16 1.0 0.0 81 1 203 67 6 201 0 0 0 198 204 83 3 204 0.72499
99642372132 0.7249999642372132 0.7249999642372132 15 205 68 0 136 201 0 12 206 6
8 0 207 0 0 0 0 1000.0 1.0e-08 0 0 0 1 0 1 1 214 216 222 220 211 221 219 70 207
 0 206 0 0 4 1 20 0 208 208 1 T74 20 208 1 0 209 0 0 0 0 0 0 0 0 0 0 0 0 0 0 0 0
 0 0 0 81 1 209 7 6 215 0 0 244 0 210 83 3 210 0.7249999642372132 0.724999964237
2132 0.7249999642372132 19 211 1 0 206 213 0 212 V13 212 2 0 206 0 0 0 0 211 215
 19 213 3 0 206 0 211 214 S13 214 4 0 206 0 215 0 0 213 0 14 215 5 209 1.0e-08 2
42 0 217 214 216 +0 0 242 0 212 50 216 6 0 215 243 0 0 +-0.001 -6.24999999999999
82e-04 0.0 -2.4492935982947066e-16 -1.0 0.0 0.0 0.0 1.0 15 217 8 0 218 215 0 17
 218 0 217 226 238 219 223 221 0 231 -18 219 9 0 218 0 224 220 ?206 29 220 10 0
 219 225 0 -5.0000000000000009e-04 -6.2499999999999991e-04 0.0 16 221 11 0 ?223
 0 229 222 0 0 206 30 222 12 0 221 230 0 0 +-5.0000000000000009e-04 -6.249999999
9999991e-04 0.0 -1.0 2.4492935982947066e-16 0.0 17 223 0 301 292 252 224 218 221
 0 238 +18 224 13 0 223 219 227 225 ?206 29 225 14 0 224 228 220 -0.001 -6.24999
99999999982e-04 0.0 17 226 0 217 232 218 227 231 229 0 237 -18 227 15 0 226 224
 233 228 ?206 29 228 16 0 227 234 225 -5.0000000000000009e-04 -6.249999999999999
1e-04 0.00135 16 229 17 0 ?231 221 235 230 0 0 206 30 230 18 0 229 236 222 0 +-5
.0000000000000009e-04 -6.2499999999999991e-04 0.00135 0.0 0.0 -1.0 17 231 0 246
 247 259 219 226 229 0 252 +17 232 0 217 238 226 233 237 235 0 241 -18 233 19 0
 232 227 248 234 ?206 29 234 20 0 233 249 228 -0.001 -6.2499999999999982e-04 0.0
0135 16 235 21 0 ?237 229 239 236 0 0 206 30 236 22 0 235 240 230 0 +-0.001 -6.2
499999999999982e-04 0.00135 1.0 -2.4492935982947066e-16 0.0 17 237 0 306 262 296
 227 232 235 0 259 +17 238 0 217 218 232 224 241 239 0 289 -16 239 23 0 ?241 235
 250 240 0 0 206 30 240 24 0 239 251 236 0 +-0.001 -6.2499999999999982e-04 0.0 0
.0 0.0 1.0 17 241 0 288 293 289 233 238 239 0 296 +14 242 25 244 1.0e-08 263 215
 246 214 243 +0 0 263 215 212 50 243 26 0 242 264 216 0 +-5.0000000000000009e-04
 -6.2499999999999991e-04 0.0 1.0 -2.4492935982947066e-16 0.0 0.0 0.0 1.0 81 1 24
4 27 6 242 0 0 265 209 245 83 3 245 0.7249999642372132 0.7249999642372132 0.7249
999642372132 15 246 28 0 247 242 0 17 247 0 246 253 231 248 252 250 0 258 -18 24
8 29 0 247 233 254 249 ?206 29 249 30 0 248 255 234 -4.9999999999999982e-04 6.25
00000000000009e-04 0.0 16 250 31 0 ?252 239 256 251 0 0 206 30 251 32 0 250 257
 240 0 +-4.9999999999999982e-04 6.2500000000000009e-04 0.0 -2.4492935982947066e-
16 -1.0 0.0 17 252 0 301 223 273 219 247 250 0 0 +17 253 0 246 259 247 254 258 2
56 0 262 -18 254 33 0 253 248 269 255 ?206 29 255 34 0 254 270 249 -4.9999999999
999982e-04 6.2500000000000009e-04 0.00135 16 256 35 0 ?258 250 260 257 0 0 206 3
0 257 36 0 256 261 251 0 +-4.9999999999999982e-04 6.2500000000000009e-04 0.00135
 0.0 0.0 -1.0 17 258 0 267 268 280 248 253 256 0 273 +17 259 0 246 231 253 227 2
62 260 0 0 -16 260 37 0 ?262 256 271 261 0 0 206 30 261 38 0 260 272 257 0 +-5.0
000000000000009e-04 -6.2499999999999991e-04 0.00135 2.4492935982947066e-16 1.0 0
.0 17 262 0 306 283 237 254 259 260 0 280 +14 263 39 265 1.0e-08 284 242 267 214
 264 +0 0 284 242 212 50 264 40 0 263 285 243 0 +-4.9999999999999982e-04 6.25000
00000000009e-04 0.0 2.4492935982947066e-16 1.0 0.0 0.0 0.0 1.0 81 1 265 41 6 263
 0 0 286 244 266 83 3 266 0.7249999642372132 0.7249999642372132 0.72499996423721
32 15 267 42 0 268 263 0 17 268 0 267 274 258 269 273 271 0 279 -18 269 43 0 268
 254 275 270 ?206 29 270 44 0 269 276 255 -0.9999999999999998e-03 6.250000000000
0027e-04 0.0 16 271 45 0 ?273 260 277 272 0 0 206 30 272 46 0 271 278 261 0 +-0.
9999999999999998e-03 6.2500000000000027e-04 0.0 1.0 -2.4492935982947066e-16 0.0
 17 273 0 301 252 292 248 268 271 0 0 +17 274 0 267 280 268 275 279 277 0 283 -1
8 275 47 0 274 269 0 276 ?206 29 276 48 0 275 0 270 -0.9999999999999998e-03 6.25
00000000000027e-04 0.00135 16 277 49 0 ?279 271 281 278 0 0 206 30 278 50 0 277
 282 272 0 +-0.9999999999999998e-03 6.2500000000000027e-04 0.00135 0.0 0.0 -1.0
 17 279 0 288 289 293 269 274 277 0 292 +17 280 0 267 258 274 254 283 281 0 0 -1
6 281 51 0 ?283 277 290 282 0 0 206 30 282 52 0 281 291 278 0 +-4.99999999999999
82e-04 6.2500000000000009e-04 0.00135 -1.0 2.4492935982947066e-16 0.0 17 283 0 3
06 296 262 275 280 281 0 293 +14 284 53 286 1.0e-08 297 263 288 214 285 +0 0 297
 263 212 50 285 54 0 284 298 264 0 +-0.9999999999999998e-03 6.2500000000000027e-
04 0.0 -1.0 2.4492935982947066e-16 0.0 0.0 0.0 1.0 81 1 286 55 6 284 0 0 299 265
 287 83 3 287 0.7249999642372132 0.7249999642372132 0.7249999642372132 15 288 56
 0 289 284 0 17 289 0 288 241 279 224 292 290 0 0 -16 290 57 0 ?292 281 294 291
 0 0 206 30 291 58 0 290 295 282 0 +-0.001 -6.2499999999999982e-04 0.0 2.4492935
982947066e-16 1.0 0.0 17 292 0 301 273 223 269 289 290 0 0 +17 293 0 288 279 241
 275 296 294 0 0 -16 294 59 0 ?296 290 0 295 0 0 206 30 295 60 0 294 0 291 0 +-0
.9999999999999998e-03 6.2500000000000027e-04 0.00135 -2.4492935982947066e-16 -1.
0 0.0 17 296 0 306 237 283 233 293 294 0 0 +14 297 61 299 1.0e-08 302 284 301 21
4 298 +0 0 302 284 212 50 298 62 0 297 303 285 0 +-0.9999999999999998e-03 6.2500
000000000027e-04 0.0 0.0 0.0 -1.0 2.4492935982947066e-16 1.0 0.0 81 1 299 63 6 2
97 0 0 304 286 300 83 3 300 0.7249999642372132 0.7249999642372132 0.724999964237
2132 15 301 64 0 273 297 0 14 302 65 304 1.0e-08 0 297 306 214 303 +0 0 0 297 21
2 50 303 66 0 302 0 298 0 +-0.001 -6.2499999999999982e-04 0.00135 0.0 0.0 1.0 2.
4492935982947066e-16 1.0 0.0 81 1 304 67 6 302 0 0 0 299 305 83 3 305 0.72499996
42372132 0.7249999642372132 0.7249999642372132 15 306 68 0 237 302 0 12 307 140
 0 308 0 0 0 0 1000.0 1.0e-08 0 0 0 1 0 1 1 315 317 323 321 312 322 320 70 308 0
 307 0 0 4 1 20 0 309 309 1 T74 20 309 1 0 310 0 0 0 0 0 0 0 0 0 0 0 0 0 0 0 0 0
 0 0 81 1 310 7 6 316 0 0 345 0 311 83 3 311 0.9800000190734864 0.70599997043609
62 0.1759999990463257 19 312 1 0 307 314 0 313 V13 313 2 0 307 0 0 0 0 312 316 1
9 314 3 0 307 0 312 315 S13 315 4 0 307 0 316 0 0 314 0 14 316 5 310 1.0e-08 343
 0 318 315 317 +0 0 343 0 313 50 317 6 0 316 344 0 0 +-3.9999999999999986e-04 6.
1000000000000005e-04 1.5e-05 0.0 0.0 -1.0 2.4492935982947066e-16 1.0 0.0 15 318
 8 0 319 316 0 17 319 0 318 327 339 320 324 322 0 332 -18 320 9 0 319 0 325 321
 ?307 29 321 10 0 320 326 0 -2.9999999999999982e-04 6.1000000000000005e-04 1.499
9999999999998e-05 16 322 11 0 ?324 0 330 323 0 0 307 30 323 12 0 322 331 0 0 +-2
.9999999999999982e-04 6.1000000000000005e-04 1.4999999999999998e-05 -1.0 2.44929
35982947066e-16 0.0 17 324 0 368 369 381 325 319 322 0 339 +18 325 13 0 324 320
 328 326 ?307 29 326 14 0 325 329 321 -3.9999999999999986e-04 6.1000000000000005
e-04 1.4999999999999998e-05 17 327 0 318 333 319 328 332 330 0 338 -18 328 15 0
 421 325 334 329 ?307 29 329 16 0 328 335 326 -3.0000000000000013e-04 -6.0999999
999999988e-04 1.4999999999999998e-05 16 330 17 0 ?332 322 336 331 0 0 307 30 331
 18 0 330 337 323 0 +-3.0000000000000013e-04 -6.0999999999999988e-04 1.499999999
9999998e-05 2.4492935982947066e-16 1.0 0.0 17 332 0 402 384 421 320 327 330 0 38
1 +17 333 0 318 339 327 334 338 336 0 342 -18 334 19 0 333 328 349 335 ?307 29 3
35 20 0 334 350 329 -4.0000000000000018e-04 -6.0999999999999988e-04 1.4999999999
999998e-05 16 336 21 0 ?338 330 340 337 0 0 307 30 337 22 0 336 341 331 0 +-4.00
00000000000018e-04 -6.0999999999999988e-04 1.4999999999999998e-05 1.0 -2.4492935
982947066e-16 0.0 17 338 0 347 348 360 328 333 336 0 353 +17 339 0 318 319 333 3
25 342 340 0 374 -16 340 23 0 ?342 336 351 341 0 0 307 30 341 24 0 340 352 337 0
 +-3.9999999999999986e-04 6.1000000000000005e-04 1.4999999999999998e-05 -2.44929
35982947066e-16 -1.0 0.0 17 342 0 444 445 374 334 339 340 0 450 +14 343 25 345 1
.0e-08 364 316 347 315 344 +0 0 364 316 313 50 344 26 0 343 365 317 0 +-4.000000
0000000018e-04 -6.0999999999999988e-04 1.5e-05 -2.4492935982947066e-16 -1.0 0.0
 0.0 0.0 1.0 81 1 345 27 6 343 0 0 366 310 346 83 3 346 0.9800000190734864 0.705
9999704360962 0.1759999990463257 15 347 28 0 338 343 0 17 348 0 347 354 338 349
 353 351 0 359 -18 349 29 0 348 334 355 350 ?307 29 350 30 0 349 356 335 -3.0000
000000000013e-04 -6.0999999999999988e-04 0.001335 16 351 31 0 ?353 340 357 352 0
 0 307 30 352 32 0 351 358 341 0 +-3.0000000000000013e-04 -6.0999999999999988e-0
4 0.001335 0.0 0.0 -1.0 17 353 0 429 424 393 328 348 351 0 0 +17 354 0 347 360 3
48 355 359 357 0 363 -18 355 33 0 354 349 370 356 ?307 29 356 34 0 355 371 350 -
4.0000000000000018e-04 -6.0999999999999988e-04 0.001335 16 357 35 0 ?359 351 361
 358 0 0 307 30 358 36 0 357 362 352 0 +-4.0000000000000018e-04 -6.0999999999999
988e-04 0.001335 1.0 -2.4492935982947066e-16 0.0 17 359 0 389 390 394 349 354 35
7 0 393 +17 360 0 347 338 354 334 363 361 0 0 -16 361 37 0 ?363 357 372 362 0 0
 307 30 362 38 0 361 373 358 0 +-4.0000000000000018e-04 -6.0999999999999988e-04
 1.4999999999999998e-05 0.0 0.0 1.0 17 363 0 471 397 450 355 360 361 0 394 +14 3
64 39 366 1.0e-08 385 343 368 315 365 +0 0 385 343 313 50 365 40 0 364 386 344 0
 +-2.9999999999999982e-04 6.1000000000000005e-04 1.5e-05 2.4492935982947066e-16
 1.0 0.0 0.0 0.0 1.0 81 1 366 41 6 364 0 0 387 345 367 83 3 367 0.98000001907348
64 0.7059999704360962 0.1759999990463257 15 368 42 0 324 364 0 17 369 0 368 375
 324 370 374 372 0 380 -18 370 43 0 463 355 376 371 ?307 29 371 44 0 370 377 356
 -3.9999999999999986e-04 6.1000000000000005e-04 0.001335 16 372 45 0 ?374 361 37
8 373 0 0 307 30 373 46 0 372 379 362 0 +-3.9999999999999986e-04 6.1000000000000
005e-04 0.001335 0.0 0.0 -1.0 17 374 0 444 342 463 325 369 372 0 0 +17 375 0 368
 381 369 376 380 378 0 384 -18 376 47 0 375 370 404 377 ?307 29 377 48 0 376 405
 371 -2.9999999999999982e-04 6.1000000000000005e-04 0.001335 16 378 49 0 ?380 37
2 382 379 0 0 307 30 379 50 0 378 383 373 0 +-2.9999999999999982e-04 6.100000000
0000005e-04 0.001335 -1.0 2.4492935982947066e-16 0.0 17 380 0 389 394 390 370 37
5 378 0 397 +17 381 0 368 324 375 320 384 382 0 0 -16 382 51 0 ?384 378 391 383
 0 0 307 30 383 52 0 382 392 379 0 +-2.9999999999999982e-04 6.1000000000000005e-
04 1.4999999999999998e-05 0.0 0.0 1.0 17 384 0 402 403 332 376 381 382 0 390 +14
 385 53 387 1.0e-08 398 364 389 315 386 +0 0 398 364 313 50 386 54 0 385 399 365
 0 +-4.0000000000000018e-04 -6.0999999999999988e-04 0.001335 0.0 0.0 1.0 2.44929
35982947066e-16 1.0 0.0 81 1 387 55 6 385 0 0 400 366 388 83 3 388 0.98000001907
34864 0.7059999704360962 0.1759999990463257 15 389 56 0 359 385 0 17 390 0 389 3
80 359 376 393 391 0 408 -16 391 57 0 ?393 382 395 392 0 0 307 30 392 58 0 391 3
96 383 0 +-2.9999999999999982e-04 6.1000000000000005e-04 0.001335 -2.44929359829
47066e-16 -1.0 0.0 17 393 0 429 353 408 349 390 391 0 0 +17 394 0 389 359 380 35
5 397 395 0 0 -16 395 59 0 ?397 391 406 396 0 0 307 30 396 60 0 395 407 392 0 +-
4.0000000000000018e-04 -6.0999999999999988e-04 0.001335 2.4492935982947066e-16 1
.0 0.0 17 397 0 471 466 363 370 394 395 0 0 +14 398 61 400 1.0e-08 425 385 402 3
15 399 +0 0 425 385 313 50 399 62 0 398 426 386 0 +-3.0000000000000013e-04 -6.09
99999999999988e-04 1.5e-05 1.0 -2.4492935982947066e-16 0.0 0.0 0.0 1.0 81 1 400
 63 6 398 0 0 427 387 401 83 3 401 0.9800000190734864 0.7059999704360962 0.17599
99990463257 15 402 64 0 332 398 0 17 403 0 402 409 384 404 408 406 0 414 -18 404
 65 0 436 376 410 405 ?307 29 405 66 0 404 411 377 -2.9999999999999982e-04 6.070
0000000000012e-04 0.001332 16 406 67 0 ?408 395 412 407 0 0 307 30 407 68 0 406
 413 396 0 +-2.9999999999999982e-04 6.0700000000000012e-04 0.001332 1.7319121124
70987e-16 0.7071067811865476 0.7071067811865476 17 408 0 429 393 436 376 403 406
 0 0 +17 409 0 402 415 403 410 414 412 0 0 -18 410 69 0 420 404 416 411 ?307 29
 411 70 0 410 417 405 -2.9999999999999982e-04 6.0700000000000012e-04 1.799999999
9999996e-05 16 412 71 0 ?414 406 418 413 0 0 307 30 413 72 0 412 419 407 0 +-2.9
999999999999982e-04 6.0700000000000012e-04 1.7999999999999996e-05 0.0 0.0 1.0 17
 414 0 486 491 487 404 409 412 0 0 +17 415 0 402 421 409 416 420 418 0 424 -18 4
16 73 0 415 410 431 417 ?307 29 417 74 0 416 432 411 -3.0000000000000013e-04 -6.
0699999999999994e-04 1.7999999999999996e-05 16 418 75 0 ?420 412 422 419 0 0 307
 30 419 76 0 418 423 413 0 +-3.0000000000000013e-04 -6.0699999999999994e-04 1.79
99999999999996e-05 2.4492935982947066e-16 1.0 0.0 17 420 0 512 490 503 410 415 4
18 0 487 +17 421 0 402 332 415 328 424 422 0 327 -16 422 77 0 ?424 418 433 423 0
 0 307 30 423 78 0 422 434 419 0 +-3.0000000000000013e-04 -6.0999999999999988e-0
4 1.4999999999999998e-05 1.7319121124709866e-16 0.7071067811865476 0.70710678118
65476 17 424 0 429 430 353 416 421 422 0 435 +14 425 79 427 1.0e-08 440 398 429
 315 426 +0 0 440 398 313 50 426 80 0 425 441 399 0 +-3.0000000000000013e-04 -6.
0999999999999988e-04 1.5e-05 1.0 -2.4492935982947066e-16 0.0 0.0 0.0 1.0 81 1 42
7 81 6 425 0 0 442 400 428 83 3 428 0.9800000190734864 0.7059999704360962 0.1759
999990463257 15 429 82 0 424 425 0 17 430 0 429 436 424 431 435 433 0 439 -18 43
1 83 0 430 416 446 432 ?307 29 432 84 0 431 447 417 -3.0000000000000013e-04 -6.0
699999999999994e-04 0.001332 16 433 85 0 ?435 422 437 434 0 0 307 30 434 86 0 43
3 438 423 0 +-3.0000000000000013e-04 -6.0699999999999994e-04 0.001332 0.0 0.0 -1
.0 17 435 0 499 500 504 416 430 433 0 503 +17 436 0 429 408 430 404 439 437 0 49
4 -16 437 87 0 ?439 433 448 438 0 0 307 30 438 88 0 437 449 434 0 +-2.9999999999
999982e-04 6.0700000000000012e-04 0.001332 -2.4492935982947066e-16 -1.0 0.0 17 4
39 0 517 507 494 431 436 437 0 504 +14 440 89 442 1.0e-08 467 425 444 315 441 +0
 0 467 425 313 50 441 90 0 440 468 426 0 +-3.9999999999999986e-04 6.100000000000
0005e-04 1.5e-05 -1.0 2.4492935982947066e-16 0.0 0.0 0.0 1.0 81 1 442 91 6 440 0
 0 469 427 443 83 3 443 0.9800000190734864 0.7059999704360962 0.1759999990463257
 15 444 92 0 342 440 0 17 445 0 444 451 342 446 450 448 0 456 -18 446 93 0 445 4
31 452 447 ?307 29 447 94 0 446 453 432 -4.0000000000000018e-04 -6.0699999999999
994e-04 1.7999999999999996e-05 16 448 95 0 ?450 437 454 449 0 0 307 30 449 96 0
 448 455 438 0 +-4.0000000000000018e-04 -6.0699999999999994e-04 1.79999999999999
96e-05 -1.7319121124709866e-16 -0.7071067811865476 -0.7071067811865476 17 450 0
 471 363 478 334 445 448 0 360 +17 451 0 444 457 445 452 456 454 0 462 -18 452 9
7 0 451 446 458 453 ?307 29 453 98 0 452 459 447 -3.9999999999999986e-04 6.07000
00000000012e-04 1.7999999999999996e-05 16 454 99 0 ?456 448 460 455 0 0 307 30 4
55 100 0 454 461 449 0 +-3.9999999999999986e-04 6.0700000000000012e-04 1.7999999
999999996e-05 -2.4492935982947066e-16 -1.0 0.0 17 456 0 512 503 490 446 451 454
 0 478 +17 457 0 444 463 451 458 462 460 0 466 -18 458 101 0 457 452 473 459 ?30
7 29 459 102 0 458 474 453 -3.9999999999999986e-04 6.0700000000000012e-04 0.0013
32 16 460 103 0 ?462 454 464 461 0 0 307 30 461 104 0 460 465 455 0 +-3.99999999
99999986e-04 6.0700000000000012e-04 0.001332 0.0 0.0 -1.0 17 462 0 486 487 491 4
52 457 460 0 490 +17 463 0 444 374 457 370 466 464 0 369 -16 464 105 0 ?466 460
 475 465 0 0 307 30 465 106 0 464 476 461 0 +-3.9999999999999986e-04 6.100000000
0000005e-04 0.001335 -1.731912112470987e-16 -0.7071067811865476 -0.7071067811865
476 17 466 0 471 472 397 458 463 464 0 477 +14 467 107 469 1.0e-08 482 440 471 3
15 468 +0 0 482 440 313 50 468 108 0 467 483 441 0 +-4.0000000000000018e-04 -6.0
699999999999994e-04 1.8e-05 -1.0 2.4492935982947066e-16 0.0 0.0 0.0 1.0 81 1 469
 109 6 467 0 0 484 442 470 83 3 470 0.9800000190734864 0.7059999704360962 0.1759
999990463257 15 471 110 0 450 467 0 17 472 0 471 478 466 473 477 475 0 481 -18 4
73 111 0 472 458 0 474 ?307 29 474 112 0 473 0 459 -4.0000000000000018e-04 -6.06
99999999999994e-04 0.001332 16 475 113 0 ?477 464 479 476 0 0 307 30 476 114 0 4
75 480 465 0 +-4.0000000000000018e-04 -6.0699999999999994e-04 0.001332 2.4492935
982947066e-16 1.0 0.0 17 477 0 517 494 507 458 472 475 0 491 +17 478 0 471 450 4
72 446 481 479 0 500 -16 479 115 0 ?481 475 488 480 0 0 307 30 480 116 0 479 489
 476 0 +-4.0000000000000018e-04 -6.0699999999999994e-04 1.7999999999999996e-05 0
.0 0.0 1.0 17 481 0 499 504 500 473 478 479 0 507 +14 482 117 484 1.0e-08 495 46
7 486 315 483 +0 0 495 467 313 50 483 118 0 482 496 468 0 +-3.9999999999999986e-
04 6.0700000000000012e-04 1.8e-05 -2.4492935982947066e-16 -1.0 0.0 0.0 0.0 1.0 8
1 1 484 119 6 482 0 0 497 469 485 83 3 485 0.9800000190734864 0.7059999704360962
 0.1759999990463257 15 486 120 0 487 482 0 17 487 0 486 414 462 410 490 488 0 40
9 -16 488 121 0 ?490 479 492 489 0 0 307 30 489 122 0 488 493 480 0 +-2.99999999
99999982e-04 6.0700000000000012e-04 1.7999999999999996e-05 -1.0 2.44929359829470
66e-16 0.0 17 490 0 512 456 420 452 487 488 0 0 +17 491 0 486 462 414 458 494 49
2 0 0 -16 492 123 0 ?494 488 501 493 0 0 307 30 493 124 0 492 502 489 0 +-3.9999
999999999986e-04 6.0700000000000012e-04 0.001332 1.0 -2.4492935982947066e-16 0.0
 17 494 0 517 439 477 404 491 492 0 403 +14 495 125 497 1.0e-08 508 482 499 315
 496 +0 0 508 482 313 50 496 126 0 495 509 483 0 +-3.0000000000000013e-04 -6.069
9999999999994e-04 1.8e-05 2.4492935982947066e-16 1.0 0.0 0.0 0.0 1.0 81 1 497 12
7 6 495 0 0 510 484 498 83 3 498 0.9800000190734864 0.7059999704360962 0.1759999
990463257 15 499 128 0 500 495 0 17 500 0 499 481 435 446 503 501 0 0 -16 501 12
9 0 ?503 492 505 502 0 0 307 30 502 130 0 501 506 493 0 +-4.0000000000000018e-04
 -6.0699999999999994e-04 1.7999999999999996e-05 1.0 -2.4492935982947066e-16 0.0
 17 503 0 512 420 456 416 500 501 0 0 +17 504 0 499 435 481 431 507 505 0 0 -16
 505 131 0 ?507 501 0 506 0 0 307 30 506 132 0 505 0 502 0 +-3.0000000000000013e
-04 -6.0699999999999994e-04 0.001332 -1.0 2.4492935982947066e-16 0.0 17 507 0 51
7 477 439 473 504 505 0 0 +14 508 133 510 1.0e-08 513 495 512 315 509 +0 0 513 4
95 313 50 509 134 0 508 514 496 0 +-4.0000000000000018e-04 -6.0699999999999994e-
04 1.8e-05 0.0 0.0 1.0 2.4492935982947066e-16 1.0 0.0 81 1 510 135 6 508 0 0 515
 497 511 83 3 511 0.9800000190734864 0.7059999704360962 0.1759999990463257 15 51
2 136 0 503 508 0 14 513 137 515 1.0e-08 0 508 517 315 514 +0 0 0 508 313 50 514
 138 0 513 0 509 0 +-3.0000000000000013e-04 -6.0699999999999994e-04 0.001332 0.0
 0.0 -1.0 2.4492935982947066e-16 1.0 0.0 81 1 515 139 6 513 0 0 0 510 516 83 3 5
16 0.9800000190734864 0.7059999704360962 0.1759999990463257 15 517 140 0 507 513
 0 1 0 
