**ABCDEFGHIJKLMNOPQRSTUVWXYZabcdefghijklmnopqrstuvwxyz**************************
**PARASOLID !"#$%&'()*+,-./:;<=>?@[\]^_`{|}~0123456789**************************
**PART1;
MC=AMD64;
MC_MODEL=AMD64 Family 23 Model 1 Stepping 2, AuthenticAMD;
MC_ID=unknown;
OS=Windows_NT;
OS_RELEASE=unknown;
FRU=CAD Exchanger 3.13.0 (cadexchanger.com);
APPL=unknown;
SITE=unknown;
USER=unknown;
FORMAT=text;
GUISE=transmit;
KEY=FSM2JMTR-Footprint-1_CMP-00028-00007-1;
FILE=FSM2JMTR-Footprint-1_CMP-00028-00007-1.x_t;
DATE=Fri Nov 24 23:05:30 2023;
**PART2;
SCH=SCH_1200000_12103;
USFLD_SIZE=0;
**PART3;
**END_OF_HEADER*****************************************************************
T51 : TRANSMIT FILE created by modeller version 120000017 SCH_1200000_121030 74
 4 1 4 0 2 53 154 255 12 2 29 0 3 0 0 0 0 1000.0 1.0e-08 0 0 0 1 0 1 1 12 14 20
 18 9 19 17 70 3 0 2 0 0 4 1 20 0 4 4 1 T74 20 4 1 0 5 0 0 0 0 0 0 0 0 0 0 0 0 0
 0 0 0 0 0 0 81 1 5 7 6 13 0 0 45 0 8 80 1 6 0 7 8001 0 0 0 0 3 5 0 0 0 FFFFTFTF
FFFFFF2 79 15 7 SDL/TYSA_COLOUR83 3 8 0.5879999995231628 0.5879999995231628 0.58
79999995231628 19 9 1 0 2 11 0 10 V13 10 2 0 2 0 0 0 0 9 13 19 11 3 0 2 0 9 12 S
13 12 4 0 2 0 13 0 0 11 0 14 13 5 5 1.0e-08 43 0 15 12 14 +0 0 43 0 10 51 14 6 0
 13 44 0 0 +-0.002398 5.8734060487107068e-19 0.005004 0.0 0.0 1.0 1.498600000000
0002e-04 1.0 -2.4492935982947066e-16 0.0 15 15 8 0 16 13 0 17 16 0 15 24 36 17 2
3 19 0 36 -18 17 9 0 23 0 25 18 1.4000000000002899e-07 2 29 18 10 0 17 26 0 -0.0
02548 6.240800088454912e-19 0.005006 16 19 11 0 ?23 0 27 20 0 0 2 133 20 12 0 19
 21 0 0 +21 -0.00254786 6.4239827566713732e-19 0.005006 -0.00254786 6.7910338953
11819e-19 0.005006 3.1415926535897931 9.4247779607693794 31 21 13 0 2 28 20 22 +
-0.002398 5.8734060487107068e-19 0.005006 0.0 0.0 1.0 1.0 -2.4492935982947066e-1
6 0.0 1.4986000000000002e-04 141 22 20 22 22 21 17 23 0 52 23 23 17 16 19 0 16 +
17 24 0 15 37 16 25 36 27 0 42 -18 25 14 0 24 17 0 26 1.4000000000002899e-07 2 2
9 26 15 0 25 0 18 -0.002548 6.240800088454912e-19 0.005004 16 27 16 0 ?36 19 38
 28 0 0 2 133 28 17 0 27 29 21 0 +29 -0.00254786 6.791033895311819e-19 0.005004
 -0.00254786 6.791033895311819e-19 0.005006 0.0 0.0020000000000007 134 29 18 0 2
 39 28 30 +31 35 141 30 28 30 30 29 136 31 1 2 3 2 1 FFF1 32 33 34 45 6 32 -0.00
254786 6.791033895311819e-19 0.005004 -0.00254786 6.791033895311819e-19 0.005006
 127 2 33 2 2 128 2 34 0.0 0.0020000000000007 135 35 1 0 17 36 0 15 16 37 17 24
 27 0 0 +17 37 0 15 36 24 25 42 38 0 0 -16 38 19 0 ?42 27 0 39 0 0 2 133 39 20 0
 38 40 29 0 +40 -0.00254786 6.0569316180309283e-19 0.005004 -0.00254786 5.689880
4793904842e-19 0.005004 3.1415926535897931 9.4247779607693794 31 40 21 0 2 0 39
 41 +-0.002398 5.8734060487107068e-19 0.005004 0.0 0.0 -1.0 1.0 -2.4492935982947
066e-16 0.0 1.4986000000000002e-04 141 41 39 41 41 40 17 42 0 47 42 42 25 37 38
 0 37 +14 43 22 45 1.0e-08 48 13 47 12 44 -0 0 48 13 10 50 44 23 0 43 49 14 0 +-
0.002398 5.8734060487107068e-19 0.005004 0.0 0.0 1.0 2.4492935982947066e-16 1.0
 0.0 81 1 45 24 6 43 0 0 50 5 46 83 3 46 0.5879999995231628 0.5879999995231628 0
.5879999995231628 15 47 25 0 42 43 0 14 48 26 50 1.0e-08 0 43 52 12 49 +0 0 0 43
 10 50 49 27 0 48 0 44 0 +-0.002398 5.8734060487107068e-19 0.005006 0.0 0.0 1.0
 2.4492935982947066e-16 1.0 0.0 81 1 50 28 6 48 0 0 0 45 51 83 3 51 0.5879999995
231628 0.5879999995231628 0.5879999995231628 15 52 29 0 23 48 0 12 53 68 0 54 0
 0 0 0 1000.0 1.0e-08 0 0 0 1 0 1 1 61 63 69 67 58 68 66 70 54 0 53 0 0 4 1 20 0
 55 55 1 T74 20 55 1 0 56 0 0 0 0 0 0 0 0 0 0 0 0 0 0 0 0 0 0 0 81 1 56 7 6 62 0
 0 91 0 57 83 3 57 0.1960000097751618 0.1960000097751618 0.1960000097751618 19 5
8 1 0 53 60 0 59 V13 59 2 0 53 0 0 0 0 58 62 19 60 3 0 53 0 58 61 S13 61 4 0 53
 0 62 0 0 60 0 14 62 5 56 1.0e-08 89 0 64 61 63 +0 0 89 0 59 50 63 6 0 62 90 0 0
 +-0.002997 -0.001753 6.0e-06 -2.4492935982947066e-16 -1.0 0.0 0.0 0.0 1.0 15 64
 8 0 65 62 0 17 65 0 64 73 85 66 70 68 0 78 -18 66 9 0 65 0 71 67 ?53 29 67 10 0
 66 72 0 0.002997 -0.001753 6.0e-06 16 68 11 0 ?70 0 76 69 0 0 53 30 69 12 0 68
 77 0 0 +0.002997 -0.001753 6.0e-06 -1.0 2.4492935982947066e-16 0.0 17 70 0 148
 139 99 71 65 68 0 85 +18 71 13 0 70 66 74 72 ?53 29 72 14 0 71 75 67 -0.002997
 -0.001753 6.0e-06 17 73 0 64 79 65 74 78 76 0 84 -18 74 15 0 73 71 80 75 ?53 29
 75 16 0 74 81 72 0.002997 -0.001753 0.005004 16 76 17 0 ?78 68 82 77 0 0 53 30
 77 18 0 76 83 69 0 +0.002997 -0.001753 0.005004 0.0 0.0 -1.0 17 78 0 93 94 106
 66 73 76 0 99 +17 79 0 64 85 73 80 84 82 0 88 -18 80 19 0 79 74 95 81 ?53 29 81
 20 0 80 96 75 -0.002997 -0.001753 0.005004 16 82 21 0 ?84 76 86 83 0 0 53 30 83
 22 0 82 87 77 0 +-0.002997 -0.001753 0.005004 1.0 -2.4492935982947066e-16 0.0 1
7 84 0 153 109 143 74 79 82 0 106 +17 85 0 64 65 79 71 88 86 0 136 -16 86 23 0 ?
88 82 97 87 0 0 53 30 87 24 0 86 98 83 0 +-0.002997 -0.001753 6.0e-06 0.0 0.0 1.
0 17 88 0 135 140 136 80 85 86 0 143 +14 89 25 91 1.0e-08 110 62 93 61 90 +0 0 1
10 62 59 50 90 26 0 89 111 63 0 +0.002997 -0.001753 6.0e-06 1.0 -2.4492935982947
066e-16 0.0 0.0 0.0 1.0 81 1 91 27 6 89 0 0 112 56 92 83 3 92 0.1960000097751618
 0.1960000097751618 0.1960000097751618 15 93 28 0 94 89 0 17 94 0 93 100 78 95 9
9 97 0 105 -18 95 29 0 94 80 101 96 ?53 29 96 30 0 95 102 81 0.002997 0.001753 6
.0e-06 16 97 31 0 ?99 86 103 98 0 0 53 30 98 32 0 97 104 87 0 +0.002997 0.001753
 6.0e-06 -2.4492935982947066e-16 -1.0 0.0 17 99 0 148 70 120 66 94 97 0 0 +17 10
0 0 93 106 94 101 105 103 0 109 -18 101 33 0 100 95 116 102 ?53 29 102 34 0 101
 117 96 0.002997 0.001753 0.005004 16 103 35 0 ?105 97 107 104 0 0 53 30 104 36
 0 103 108 98 0 +0.002997 0.001753 0.005004 0.0 0.0 -1.0 17 105 0 114 115 127 95
 100 103 0 120 +17 106 0 93 78 100 74 109 107 0 0 -16 107 37 0 ?109 103 118 108
 0 0 53 30 108 38 0 107 119 104 0 +0.002997 -0.001753 0.005004 2.449293598294706
6e-16 1.0 0.0 17 109 0 153 130 84 101 106 107 0 127 +14 110 39 112 1.0e-08 131 8
9 114 61 111 +0 0 131 89 59 50 111 40 0 110 132 90 0 +0.002997 0.001753 6.0e-06
 2.4492935982947066e-16 1.0 0.0 0.0 0.0 1.0 81 1 112 41 6 110 0 0 133 91 113 83
 3 113 0.1960000097751618 0.1960000097751618 0.1960000097751618 15 114 42 0 115
 110 0 17 115 0 114 121 105 116 120 118 0 126 -18 116 43 0 115 101 122 117 ?53 2
9 117 44 0 116 123 102 -0.002997 0.001753 6.0e-06 16 118 45 0 ?120 107 124 119 0
 0 53 30 119 46 0 118 125 108 0 +-0.002997 0.001753 6.0e-06 1.0 -2.4492935982947
066e-16 0.0 17 120 0 148 99 139 95 115 118 0 0 +17 121 0 114 127 115 122 126 124
 0 130 -18 122 47 0 121 116 0 123 ?53 29 123 48 0 122 0 117 -0.002997 0.001753 0
.005004 16 124 49 0 ?126 118 128 125 0 0 53 30 125 50 0 124 129 119 0 +-0.002997
 0.001753 0.005004 0.0 0.0 -1.0 17 126 0 135 136 140 116 121 124 0 139 +17 127 0
 114 105 121 101 130 128 0 0 -16 128 51 0 ?130 124 137 129 0 0 53 30 129 52 0 12
8 138 125 0 +0.002997 0.001753 0.005004 -1.0 2.4492935982947066e-16 0.0 17 130 0
 153 143 109 122 127 128 0 140 +14 131 53 133 1.0e-08 144 110 135 61 132 +0 0 14
4 110 59 50 132 54 0 131 145 111 0 +-0.002997 0.001753 6.0e-06 -1.0 2.4492935982
947066e-16 0.0 0.0 0.0 1.0 81 1 133 55 6 131 0 0 146 112 134 83 3 134 0.19600000
97751618 0.1960000097751618 0.1960000097751618 15 135 56 0 136 131 0 17 136 0 13
5 88 126 71 139 137 0 0 -16 137 57 0 ?139 128 141 138 0 0 53 30 138 58 0 137 142
 129 0 +-0.002997 -0.001753 6.0e-06 2.4492935982947066e-16 1.0 0.0 17 139 0 148
 120 70 116 136 137 0 0 +17 140 0 135 126 88 122 143 141 0 0 -16 141 59 0 ?143 1
37 0 142 0 0 53 30 142 60 0 141 0 138 0 +-0.002997 0.001753 0.005004 -2.44929359
82947066e-16 -1.0 0.0 17 143 0 153 84 130 80 140 141 0 0 +14 144 61 146 1.0e-08
 149 131 148 61 145 +0 0 149 131 59 50 145 62 0 144 150 132 0 +-0.002997 0.00175
3 6.0e-06 0.0 0.0 -1.0 2.4492935982947066e-16 1.0 0.0 81 1 146 63 6 144 0 0 151
 133 147 83 3 147 0.1960000097751618 0.1960000097751618 0.1960000097751618 15 14
8 64 0 120 144 0 14 149 65 151 1.0e-08 0 144 153 61 150 +0 0 0 144 59 50 150 66
 0 149 0 145 0 +-0.002997 -0.001753 0.005004 0.0 0.0 1.0 2.4492935982947066e-16
 1.0 0.0 81 1 151 67 6 149 0 0 0 146 152 83 3 152 0.1960000097751618 0.196000009
7751618 0.1960000097751618 15 153 68 0 84 149 0 12 154 68 0 155 0 0 0 0 1000.0 1
.0e-08 0 0 0 1 0 1 1 162 164 170 168 159 169 167 70 155 0 154 0 0 4 1 20 0 156 1
56 1 T74 20 156 1 0 157 0 0 0 0 0 0 0 0 0 0 0 0 0 0 0 0 0 0 0 81 1 157 7 6 163 0
 0 192 0 158 83 3 158 0.5879999995231628 0.5879999995231628 0.5879999995231628 1
9 159 1 0 154 161 0 160 V13 160 2 0 154 0 0 0 0 159 163 19 161 3 0 154 0 159 162
 S13 162 4 0 154 0 163 0 0 161 0 14 163 5 157 1.0e-08 190 0 165 162 164 +0 0 190
 0 160 50 164 6 0 163 191 0 0 +0.001295 -4.9500000000000028e-04 0.0 -2.449293598
2947066e-16 -1.0 0.0 0.0 0.0 1.0 15 165 8 0 166 163 0 17 166 0 165 174 186 167 1
71 169 0 179 -18 167 9 0 166 0 172 168 ?154 29 168 10 0 167 173 0 0.003404 -4.95
0000000000009e-04 0.0 16 169 11 0 ?171 0 177 170 0 0 154 30 170 12 0 169 178 0 0
 +0.003404 -4.950000000000009e-04 0.0 -1.0 2.4492935982947066e-16 0.0 17 171 0 2
49 240 200 172 166 169 0 186 +18 172 13 0 171 167 175 173 ?154 29 173 14 0 172 1
76 168 0.001295 -4.9500000000000028e-04 0.0 17 174 0 165 180 166 175 179 177 0 1
85 -18 175 15 0 174 172 181 176 ?154 29 176 16 0 175 182 173 0.003404 -4.9500000
00000009e-04 6.0e-06 16 177 17 0 ?179 169 183 178 0 0 154 30 178 18 0 177 184 17
0 0 +0.003404 -4.950000000000009e-04 6.0e-06 0.0 0.0 -1.0 17 179 0 194 195 207 1
67 174 177 0 200 +17 180 0 165 186 174 181 185 183 0 189 -18 181 19 0 180 175 19
6 182 ?154 29 182 20 0 181 197 176 0.001295 -4.9500000000000028e-04 6.0e-06 16 1
83 21 0 ?185 177 187 184 0 0 154 30 184 22 0 183 188 178 0 +0.001295 -4.95000000
00000028e-04 6.0e-06 1.0 -2.4492935982947066e-16 0.0 17 185 0 254 210 244 175 18
0 183 0 207 +17 186 0 165 166 180 172 189 187 0 237 -16 187 23 0 ?189 183 198 18
8 0 0 154 30 188 24 0 187 199 184 0 +0.001295 -4.9500000000000028e-04 0.0 0.0 0.
0 1.0 17 189 0 236 241 237 181 186 187 0 244 +14 190 25 192 1.0e-08 211 163 194
 162 191 +0 0 211 163 160 50 191 26 0 190 212 164 0 +0.003404 -4.950000000000009
e-04 0.0 1.0 -2.4492935982947066e-16 0.0 0.0 0.0 1.0 81 1 192 27 6 190 0 0 213 1
57 193 83 3 193 0.5879999995231628 0.5879999995231628 0.5879999995231628 15 194
 28 0 195 190 0 17 195 0 194 201 179 196 200 198 0 206 -18 196 29 0 195 181 202
 197 ?154 29 197 30 0 196 203 182 0.003404 4.9499999999999912e-04 0.0 16 198 31
 0 ?200 187 204 199 0 0 154 30 199 32 0 198 205 188 0 +0.003404 4.94999999999999
12e-04 0.0 -2.4492935982947066e-16 -1.0 0.0 17 200 0 249 171 221 167 195 198 0 0
 +17 201 0 194 207 195 202 206 204 0 210 -18 202 33 0 201 196 217 203 ?154 29 20
3 34 0 202 218 197 0.003404 4.9499999999999912e-04 6.0e-06 16 204 35 0 ?206 198
 208 205 0 0 154 30 205 36 0 204 209 199 0 +0.003404 4.9499999999999912e-04 6.0e
-06 0.0 0.0 -1.0 17 206 0 215 216 228 196 201 204 0 221 +17 207 0 194 179 201 17
5 210 208 0 0 -16 208 37 0 ?210 204 219 209 0 0 154 30 209 38 0 208 220 205 0 +0
.003404 -4.950000000000009e-04 6.0e-06 2.4492935982947066e-16 1.0 0.0 17 210 0 2
54 231 185 202 207 208 0 228 +14 211 39 213 1.0e-08 232 190 215 162 212 +0 0 232
 190 160 50 212 40 0 211 233 191 0 +0.003404 4.9499999999999912e-04 0.0 2.449293
5982947066e-16 1.0 0.0 0.0 0.0 1.0 81 1 213 41 6 211 0 0 234 192 214 83 3 214 0.
5879999995231628 0.5879999995231628 0.5879999995231628 15 215 42 0 216 211 0 17
 216 0 215 222 206 217 221 219 0 227 -18 217 43 0 216 202 223 218 ?154 29 218 44
 0 217 224 203 0.001295 4.9499999999999966e-04 0.0 16 219 45 0 ?221 208 225 220
 0 0 154 30 220 46 0 219 226 209 0 +0.001295 4.9499999999999966e-04 0.0 1.0 -2.4
492935982947066e-16 0.0 17 221 0 249 200 240 196 216 219 0 0 +17 222 0 215 228 2
16 223 227 225 0 231 -18 223 47 0 222 217 0 224 ?154 29 224 48 0 223 0 218 0.001
295 4.9499999999999966e-04 6.0e-06 16 225 49 0 ?227 219 229 226 0 0 154 30 226 5
0 0 225 230 220 0 +0.001295 4.9499999999999966e-04 6.0e-06 0.0 0.0 -1.0 17 227 0
 236 237 241 217 222 225 0 240 +17 228 0 215 206 222 202 231 229 0 0 -16 229 51
 0 ?231 225 238 230 0 0 154 30 230 52 0 229 239 226 0 +0.003404 4.94999999999999
12e-04 6.0e-06 -1.0 2.4492935982947066e-16 0.0 17 231 0 254 244 210 223 228 229
 0 241 +14 232 53 234 1.0e-08 245 211 236 162 233 +0 0 245 211 160 50 233 54 0 2
32 246 212 0 +0.001295 4.9499999999999966e-04 0.0 -1.0 2.4492935982947066e-16 0.
0 0.0 0.0 1.0 81 1 234 55 6 232 0 0 247 213 235 83 3 235 0.5879999995231628 0.58
79999995231628 0.5879999995231628 15 236 56 0 237 232 0 17 237 0 236 189 227 172
 240 238 0 0 -16 238 57 0 ?240 229 242 239 0 0 154 30 239 58 0 238 243 230 0 +0.
001295 -4.9500000000000028e-04 0.0 2.4492935982947066e-16 1.0 0.0 17 240 0 249 2
21 171 217 237 238 0 0 +17 241 0 236 227 189 223 244 242 0 0 -16 242 59 0 ?244 2
38 0 243 0 0 154 30 243 60 0 242 0 239 0 +0.001295 4.9499999999999966e-04 6.0e-0
6 -2.4492935982947066e-16 -1.0 0.0 17 244 0 254 185 231 181 241 242 0 0 +14 245
 61 247 1.0e-08 250 232 249 162 246 +0 0 250 232 160 50 246 62 0 245 251 233 0 +
0.001295 4.9499999999999966e-04 0.0 0.0 0.0 -1.0 2.4492935982947066e-16 1.0 0.0
 81 1 247 63 6 245 0 0 252 234 248 83 3 248 0.5879999995231628 0.587999999523162
8 0.5879999995231628 15 249 64 0 221 245 0 14 250 65 252 1.0e-08 0 245 254 162 2
51 +0 0 0 245 160 50 251 66 0 250 0 246 0 +0.001295 -4.9500000000000028e-04 6.0e
-06 0.0 0.0 1.0 2.4492935982947066e-16 1.0 0.0 81 1 252 67 6 250 0 0 0 247 253 8
3 3 253 0.5879999995231628 0.5879999995231628 0.5879999995231628 15 254 68 0 185
 250 0 12 255 68 0 256 0 0 0 0 1000.0 1.0e-08 0 0 0 1 0 1 1 263 265 271 269 260
 270 268 70 256 0 255 0 0 4 1 20 0 257 257 1 T74 20 257 1 0 258 0 0 0 0 0 0 0 0
 0 0 0 0 0 0 0 0 0 0 0 81 1 258 7 6 264 0 0 293 0 259 83 3 259 0.587999999523162
8 0.5879999995231628 0.5879999995231628 19 260 1 0 255 262 0 261 V13 261 2 0 255
 0 0 0 0 260 264 19 262 3 0 255 0 260 263 S13 263 4 0 255 0 264 0 0 262 0 14 264
 5 258 1.0e-08 291 0 266 263 265 +0 0 291 0 261 50 265 6 0 264 292 0 0 +-0.00340
4 -4.9499999999999912e-04 0.0 -2.4492935982947066e-16 -1.0 0.0 0.0 0.0 1.0 15 26
6 8 0 267 264 0 17 267 0 266 275 287 268 272 270 0 280 -18 268 9 0 267 0 273 269
 ?255 29 269 10 0 268 274 0 -0.001295 -4.9499999999999966e-04 0.0 16 270 11 0 ?2
72 0 278 271 0 0 255 30 271 12 0 270 279 0 0 +-0.001295 -4.9499999999999966e-04
 0.0 -1.0 2.4492935982947066e-16 0.0 17 272 0 350 341 301 273 267 270 0 287 +18
 273 13 0 272 268 276 274 ?255 29 274 14 0 273 277 269 -0.003404 -4.949999999999
9912e-04 0.0 17 275 0 266 281 267 276 280 278 0 286 -18 276 15 0 308 273 282 277
 ?255 29 277 16 0 276 283 274 -0.001295 -4.9499999999999966e-04 6.0e-06 16 278 1
7 0 ?280 270 284 279 0 0 255 30 279 18 0 278 285 271 0 +-0.001295 -4.94999999999
99966e-04 6.0e-06 0.0 0.0 -1.0 17 280 0 295 296 308 268 275 278 0 301 +17 281 0
 266 287 275 282 286 284 0 290 -18 282 19 0 281 276 297 283 ?255 29 283 20 0 282
 298 277 -0.003404 -4.9499999999999912e-04 6.0e-06 16 284 21 0 ?286 278 288 285
 0 0 255 30 285 22 0 284 289 279 0 +-0.003404 -4.9499999999999912e-04 6.0e-06 1.
0 -2.4492935982947066e-16 0.0 17 286 0 355 311 345 276 281 284 0 0 +17 287 0 266
 267 281 273 290 288 0 338 -16 288 23 0 ?290 284 299 289 0 0 255 30 289 24 0 288
 300 285 0 +-0.003404 -4.9499999999999912e-04 0.0 0.0 0.0 1.0 17 290 0 337 342 3
38 282 287 288 0 345 +14 291 25 293 1.0e-08 312 264 295 263 292 +0 0 312 264 261
 50 292 26 0 291 313 265 0 +-0.001295 -4.9499999999999966e-04 0.0 1.0 -2.4492935
982947066e-16 0.0 0.0 0.0 1.0 81 1 293 27 6 291 0 0 314 258 294 83 3 294 0.58799
99995231628 0.5879999995231628 0.5879999995231628 15 295 28 0 296 291 0 17 296 0
 295 302 280 297 301 299 0 307 -18 297 29 0 322 282 303 298 ?255 29 298 30 0 297
 304 283 -0.001295 4.9500000000000028e-04 0.0 16 299 31 0 ?301 288 305 300 0 0 2
55 30 300 32 0 299 306 289 0 +-0.001295 4.9500000000000028e-04 0.0 -2.4492935982
947066e-16 -1.0 0.0 17 301 0 350 272 322 268 296 299 0 0 +17 302 0 295 308 296 3
03 307 305 0 0 -18 303 33 0 311 297 318 304 ?255 29 304 34 0 303 319 298 -0.0012
95 4.9500000000000028e-04 6.0e-06 16 305 35 0 ?307 299 309 306 0 0 255 30 306 36
 0 305 310 300 0 +-0.001295 4.9500000000000028e-04 6.0e-06 0.0 0.0 -1.0 17 307 0
 316 317 329 297 302 305 0 0 +17 308 0 295 280 302 276 311 309 0 275 -16 309 37
 0 ?311 305 320 310 0 0 255 30 310 38 0 309 321 306 0 +-0.001295 -4.949999999999
9966e-04 6.0e-06 2.4492935982947066e-16 1.0 0.0 17 311 0 355 332 286 303 308 309
 0 329 +14 312 39 314 1.0e-08 333 291 316 263 313 +0 0 333 291 261 50 313 40 0 3
12 334 292 0 +-0.001295 4.9500000000000028e-04 0.0 2.4492935982947066e-16 1.0 0.
0 0.0 0.0 1.0 81 1 314 41 6 312 0 0 335 293 315 83 3 315 0.5879999995231628 0.58
79999995231628 0.5879999995231628 15 316 42 0 317 312 0 17 317 0 316 323 307 318
 322 320 0 328 -18 318 43 0 317 303 324 319 ?255 29 319 44 0 318 325 304 -0.0034
04 4.950000000000009e-04 0.0 16 320 45 0 ?322 309 326 321 0 0 255 30 321 46 0 32
0 327 310 0 +-0.003404 4.950000000000009e-04 0.0 1.0 -2.4492935982947066e-16 0.0
 17 322 0 350 301 341 297 317 320 0 296 +17 323 0 316 329 317 324 328 326 0 332
 -18 324 47 0 323 318 0 325 ?255 29 325 48 0 324 0 319 -0.003404 4.9500000000000
09e-04 6.0e-06 16 326 49 0 ?328 320 330 327 0 0 255 30 327 50 0 326 331 321 0 +-
0.003404 4.950000000000009e-04 6.0e-06 0.0 0.0 -1.0 17 328 0 337 338 342 318 323
 326 0 341 +17 329 0 316 307 323 303 332 330 0 302 -16 330 51 0 ?332 326 339 331
 0 0 255 30 331 52 0 330 340 327 0 +-0.001295 4.9500000000000028e-04 6.0e-06 -1.
0 2.4492935982947066e-16 0.0 17 332 0 355 345 311 324 329 330 0 342 +14 333 53 3
35 1.0e-08 346 312 337 263 334 +0 0 346 312 261 50 334 54 0 333 347 313 0 +-0.00
3404 4.950000000000009e-04 0.0 -1.0 2.4492935982947066e-16 0.0 0.0 0.0 1.0 81 1
 335 55 6 333 0 0 348 314 336 83 3 336 0.5879999995231628 0.5879999995231628 0.5
879999995231628 15 337 56 0 338 333 0 17 338 0 337 290 328 273 341 339 0 0 -16 3
39 57 0 ?341 330 343 340 0 0 255 30 340 58 0 339 344 331 0 +-0.003404 -4.9499999
999999912e-04 0.0 2.4492935982947066e-16 1.0 0.0 17 341 0 350 322 272 318 338 33
9 0 0 +17 342 0 337 328 290 324 345 343 0 0 -16 343 59 0 ?345 339 0 344 0 0 255
 30 344 60 0 343 0 340 0 +-0.003404 4.950000000000009e-04 6.0e-06 -2.44929359829
47066e-16 -1.0 0.0 17 345 0 355 286 332 282 342 343 0 0 +14 346 61 348 1.0e-08 3
51 333 350 263 347 +0 0 351 333 261 50 347 62 0 346 352 334 0 +-0.003404 4.95000
0000000009e-04 0.0 0.0 0.0 -1.0 2.4492935982947066e-16 1.0 0.0 81 1 348 63 6 346
 0 0 353 335 349 83 3 349 0.5879999995231628 0.5879999995231628 0.58799999952316
28 15 350 64 0 322 346 0 14 351 65 353 1.0e-08 0 346 355 263 352 +0 0 0 346 261
 50 352 66 0 351 0 347 0 +-0.003404 -4.9499999999999912e-04 6.0e-06 0.0 0.0 1.0
 2.4492935982947066e-16 1.0 0.0 81 1 353 67 6 351 0 0 0 348 354 83 3 354 0.58799
99995231628 0.5879999995231628 0.5879999995231628 15 355 68 0 286 351 0 1 0 
