<svg width="63.17335854mm" height="66.4775912mm" viewBox="0 0 24871401 26172280"  version="1.1" xmlns="http://www.w3.org/2000/svg" xmlns:xlink="http://www.w3.org/1999/xlink">
<desc>
Origin 0 0 Bound 17667399 22461200 24871401 26172280
</desc>
<g fill-rule="evenodd" fill="rgb(188, 142, 0)" stroke="black" stroke-width="1" transform="translate(0, 26172280) scale(1, -1) translate(-17667399, -22461200)">
<path id="N" d="M 40211020.38 40997240.38 m -130459.26 0 a 130459.26 130459.26 0 1 1 260918.51 0a 130459.26 130459.26 0 1 1 -260918.51 0M 40211019.76 40997238.92 m -80284.08 0 a 80284.08 80284.08 0 1 1 160568.17 0a 80284.08 80284.08 0 1 1 -160568.17 0"/>
<path id="N" d="M 22389999.95 30179999.95 m -101959.21 0 a 101959.21 101959.21 0 1 1 203918.42 0a 101959.21 101959.21 0 1 1 -203918.42 0"/>
<path id="N" d="M 27349999.95 33639999.95 m -101959.21 0 a 101959.21 101959.21 0 1 1 203918.42 0a 101959.21 101959.21 0 1 1 -203918.42 0"/>
<path id="N" d="M 38889999.95 28979999.95 m -101959.21 0 a 101959.21 101959.21 0 1 1 203918.42 0a 101959.21 101959.21 0 1 1 -203918.42 0"/>
<path id="N" d="M 34347396.00 27612820.47 L 34347396.00 26505614.00 L 34484808.26 26368201.74 L 34518780.00 26374959.00 A 101958.15 101958.15 0 1 0 34423578.26 26306971.74 L 34273485.00 26457065.00 L 34260804.00 26487680.00 L 34260804.00 27612820.47 L 34232004.00 27632064.00 A 101958.15 101958.15 0 1 0 34347396.00 27612820.47  z"/>
<path id="N" d="M 41546038.00 46296189.00 L 41546038.00 45912331.00 A 195689.23 195689.23 0 0 0 41350349.00 45716642.00 L 40966491.00 45716642.00 A 195689.23 195689.23 0 0 0 40770802.00 45912331.00 L 40770802.00 46296189.00 A 195689.23 195689.23 0 0 0 40966491.00 46491878.00 L 41350349.00 46491878.00 A 195688.88 195688.88 0 0 0 41546038.00 46296189.00  zM 41158418.05 46104271.82 m -258101.18 0 a 258101.18 258101.18 0 1 1 516202.36 0a 258101.18 258101.18 0 1 1 -516202.36 0"/>
<path id="N" d="M 40289770.00 38875664.00 L 40053550.00 38875664.00 A 180637.35 180637.35 0 0 0 40053550.00 39236936.00 L 40289770.00 39236936.00 A 180634.12 180634.12 0 0 0 40289770.00 38875664.00  zM 40289770.00 39156653.00 L 40053550.00 39156653.00 A 100353.26 100353.26 0 0 1 40053550.00 38955947.00 L 40289770.00 38955947.00 A 100353.26 100353.26 0 0 1 40289770.00 39156653.00  z"/>
<path id="N" d="M 42018110.00 42269364.00 L 41781890.00 42269364.00 A 180637.35 180637.35 0 1 0 41781890.00 42630636.00 L 42018110.00 42630636.00 A 180634.12 180634.12 0 0 0 42018110.00 42269364.00  zM 42018110.00 42550353.00 L 41781890.00 42550353.00 A 100353.26 100353.26 0 1 1 41781890.00 42349647.00 L 42018110.00 42349647.00 A 100353.26 100353.26 0 0 1 42018110.00 42550353.00  z"/>
<path id="N" d="M 40289770.00 42127624.00 L 40053550.00 42127624.00 A 180637.35 180637.35 0 0 0 40053550.00 42488896.00 L 40289770.00 42488896.00 A 180634.12 180634.12 0 0 0 40289770.00 42127624.00  zM 40289770.00 42408613.00 L 40053550.00 42408613.00 A 100353.26 100353.26 0 0 1 40053550.00 42207907.00 L 40289770.00 42207907.00 A 100353.26 100353.26 0 0 1 40289770.00 42408613.00  z"/>
<path id="N" d="M 42018110.00 38733924.00 L 41781890.00 38733924.00 A 180637.35 180637.35 0 1 0 41781890.00 39095196.00 L 42018110.00 39095196.00 A 180634.12 180634.12 0 0 0 42018110.00 38733924.00  zM 42018110.00 39014913.00 L 41781890.00 39014913.00 A 100353.26 100353.26 0 1 1 41781890.00 38814207.00 L 42018110.00 38814207.00 A 100353.26 100353.26 0 0 1 42018110.00 39014913.00  z"/>
<path id="N" d="M 39935440.38 41784640.38 m -130459.26 0 a 130459.26 130459.26 0 1 1 260918.51 0a 130459.26 130459.26 0 1 1 -260918.51 0M 39935439.76 41784638.92 m -80284.08 0 a 80284.08 80284.08 0 1 1 160568.17 0a 80284.08 80284.08 0 1 1 -160568.17 0"/>
<path id="N" d="M 39935440.38 39579920.38 m -130459.26 0 a 130459.26 130459.26 0 1 1 260918.51 0a 130459.26 130459.26 0 1 1 -260918.51 0M 39935439.76 39579918.92 m -80284.08 0 a 80284.08 80284.08 0 1 1 160568.17 0a 80284.08 80284.08 0 1 1 -160568.17 0"/>
<path id="N" d="M 21259999.95 24369999.95 m -101959.21 0 a 101959.21 101959.21 0 1 1 203918.42 0a 101959.21 101959.21 0 1 1 -203918.42 0"/>
<path id="N" d="M 21299999.95 27929999.95 m -101959.21 0 a 101959.21 101959.21 0 1 1 203918.42 0a 101959.21 101959.21 0 1 1 -203918.42 0"/>
<path id="N" d="M 21619999.95 27929999.95 m -101959.21 0 a 101959.21 101959.21 0 1 1 203918.42 0a 101959.21 101959.21 0 1 1 -203918.42 0"/>
<path id="N" d="M 28039999.95 22849999.95 m -101959.21 0 a 101959.21 101959.21 0 1 1 203918.42 0a 101959.21 101959.21 0 1 1 -203918.42 0"/>
<path id="N" d="M 21639999.95 23939999.95 m -101959.21 0 a 101959.21 101959.21 0 1 1 203918.42 0a 101959.21 101959.21 0 1 1 -203918.42 0"/>
<path id="N" d="M 23549999.95 23594999.95 m -101959.21 0 a 101959.21 101959.21 0 1 1 203918.42 0a 101959.21 101959.21 0 1 1 -203918.42 0"/>
<path id="N" d="M 25459999.95 22849999.95 m -101959.21 0 a 101959.21 101959.21 0 1 1 203918.42 0a 101959.21 101959.21 0 1 1 -203918.42 0"/>
<path id="N" d="M 33969999.95 38279999.95 m -101959.21 0 a 101959.21 101959.21 0 1 1 203918.42 0a 101959.21 101959.21 0 1 1 -203918.42 0"/>
<path id="N" d="M 39929999.95 37209999.95 m -101959.21 0 a 101959.21 101959.21 0 1 1 203918.42 0a 101959.21 101959.21 0 1 1 -203918.42 0"/>
<path id="N" d="M 30654799.95 37435199.95 m -101959.21 0 a 101959.21 101959.21 0 1 1 203918.42 0a 101959.21 101959.21 0 1 1 -203918.42 0"/>
<path id="N" d="M 26260159.95 37880159.95 m -101959.21 0 a 101959.21 101959.21 0 1 1 203918.42 0a 101959.21 101959.21 0 1 1 -203918.42 0"/>
<path id="N" d="M 26984259.95 26375739.95 m -101959.21 0 a 101959.21 101959.21 0 1 1 203918.42 0a 101959.21 101959.21 0 1 1 -203918.42 0"/>
<path id="N" d="M 21629999.95 24369999.95 m -101959.21 0 a 101959.21 101959.21 0 1 1 203918.42 0a 101959.21 101959.21 0 1 1 -203918.42 0"/>
<path id="N" d="M 22775739.95 24394259.95 m -101959.21 0 a 101959.21 101959.21 0 1 1 203918.42 0a 101959.21 101959.21 0 1 1 -203918.42 0"/>
<path id="N" d="M 21259999.95 23939999.95 m -101959.21 0 a 101959.21 101959.21 0 1 1 203918.42 0a 101959.21 101959.21 0 1 1 -203918.42 0"/>
<path id="N" d="M 21309999.95 30929999.95 m -101959.21 0 a 101959.21 101959.21 0 1 1 203918.42 0a 101959.21 101959.21 0 1 1 -203918.42 0"/>
<path id="N" d="M 23999999.95 28899999.95 m -101959.21 0 a 101959.21 101959.21 0 1 1 203918.42 0a 101959.21 101959.21 0 1 1 -203918.42 0"/>
<path id="N" d="M 21289999.95 28284399.95 m -101959.21 0 a 101959.21 101959.21 0 1 1 203918.42 0a 101959.21 101959.21 0 1 1 -203918.42 0"/>
<path id="N" d="M 38785739.95 30834259.95 m -101959.21 0 a 101959.21 101959.21 0 1 1 203918.42 0a 101959.21 101959.21 0 1 1 -203918.42 0"/>
<path id="N" d="M 39069999.95 31414259.95 m -101959.21 0 a 101959.21 101959.21 0 1 1 203918.42 0a 101959.21 101959.21 0 1 1 -203918.42 0"/>
<path id="N" d="M 21309999.95 31329999.95 m -101959.21 0 a 101959.21 101959.21 0 1 1 203918.42 0a 101959.21 101959.21 0 1 1 -203918.42 0"/>
<path id="N" d="M 21619999.95 31329999.95 m -101959.21 0 a 101959.21 101959.21 0 1 1 203918.42 0a 101959.21 101959.21 0 1 1 -203918.42 0"/>
<path id="N" d="M 38614479.95 32274479.95 m -101959.21 0 a 101959.21 101959.21 0 1 1 203918.42 0a 101959.21 101959.21 0 1 1 -203918.42 0"/>
<path id="N" d="M 21599999.95 28289999.95 m -101959.21 0 a 101959.21 101959.21 0 1 1 203918.42 0a 101959.21 101959.21 0 1 1 -203918.42 0"/>
<path id="N" d="M 21609999.95 30939999.95 m -101959.21 0 a 101959.21 101959.21 0 1 1 203918.42 0a 101959.21 101959.21 0 1 1 -203918.42 0"/>
<path id="N" d="M 38939999.95 31879999.95 m -101959.21 0 a 101959.21 101959.21 0 1 1 203918.42 0a 101959.21 101959.21 0 1 1 -203918.42 0"/>
<path id="N" d="M 38179999.95 34279999.95 m -101959.21 0 a 101959.21 101959.21 0 1 1 203918.42 0a 101959.21 101959.21 0 1 1 -203918.42 0"/>
<path id="N" d="M 38179999.95 33579999.95 m -101959.21 0 a 101959.21 101959.21 0 1 1 203918.42 0a 101959.21 101959.21 0 1 1 -203918.42 0"/>
<path id="N" d="M 38399999.95 33819999.95 m -101959.21 0 a 101959.21 101959.21 0 1 1 203918.42 0a 101959.21 101959.21 0 1 1 -203918.42 0"/>
<path id="N" d="M 31860079.95 39769919.95 m -101959.21 0 a 101959.21 101959.21 0 1 1 203918.42 0a 101959.21 101959.21 0 1 1 -203918.42 0"/>
<path id="N" d="M 28765039.95 40794959.95 m -101959.21 0 a 101959.21 101959.21 0 1 1 203918.42 0a 101959.21 101959.21 0 1 1 -203918.42 0"/>
<path id="N" d="M 32929999.95 46129999.95 m -101959.21 0 a 101959.21 101959.21 0 1 1 203918.42 0a 101959.21 101959.21 0 1 1 -203918.42 0"/>
<path id="N" d="M 34009999.95 38839999.95 m -101959.21 0 a 101959.21 101959.21 0 1 1 203918.42 0a 101959.21 101959.21 0 1 1 -203918.42 0"/>
<path id="N" d="M 21629999.95 34919999.95 m -101959.21 0 a 101959.21 101959.21 0 1 1 203918.42 0a 101959.21 101959.21 0 1 1 -203918.42 0"/>
<path id="N" d="M 21309999.95 34919999.95 m -101959.21 0 a 101959.21 101959.21 0 1 1 203918.42 0a 101959.21 101959.21 0 1 1 -203918.42 0"/>
<path id="N" d="M 38399999.95 34029999.95 m -101959.21 0 a 101959.21 101959.21 0 1 1 203918.42 0a 101959.21 101959.21 0 1 1 -203918.42 0"/>
<path id="N" d="M 21299999.95 35299999.95 m -101959.21 0 a 101959.21 101959.21 0 1 1 203918.42 0a 101959.21 101959.21 0 1 1 -203918.42 0"/>
<path id="N" d="M 21609999.95 35299999.95 m -101959.21 0 a 101959.21 101959.21 0 1 1 203918.42 0a 101959.21 101959.21 0 1 1 -203918.42 0"/>
<path id="N" d="M 30720679.95 38315299.95 m -101959.21 0 a 101959.21 101959.21 0 1 1 203918.42 0a 101959.21 101959.21 0 1 1 -203918.42 0"/>
<path id="N" d="M 39935440.38 41154720.38 m -130459.26 0 a 130459.26 130459.26 0 1 1 260918.51 0a 130459.26 130459.26 0 1 1 -260918.51 0M 39935439.76 41154718.92 m -80284.08 0 a 80284.08 80284.08 0 1 1 160568.17 0a 80284.08 80284.08 0 1 1 -160568.17 0"/>
<path id="N" d="M 39935440.38 40209840.38 m -130459.26 0 a 130459.26 130459.26 0 1 1 260918.51 0a 130459.26 130459.26 0 1 1 -260918.51 0M 39935439.76 40209838.92 m -80284.08 0 a 80284.08 80284.08 0 1 1 160568.17 0a 80284.08 80284.08 0 1 1 -160568.17 0"/>
<path id="N" d="M 29469999.95 43179999.95 m -101959.21 0 a 101959.21 101959.21 0 1 1 203918.42 0a 101959.21 101959.21 0 1 1 -203918.42 0"/>
<path id="N" d="M 28479999.95 40499999.95 m -101959.21 0 a 101959.21 101959.21 0 1 1 203918.42 0a 101959.21 101959.21 0 1 1 -203918.42 0"/>
<path id="N" d="M 22459999.95 23870859.95 m -101959.21 0 a 101959.21 101959.21 0 1 1 203918.42 0a 101959.21 101959.21 0 1 1 -203918.42 0"/>
<path id="N" d="M 29980045.97 46783221.97 m -890107.13 0 a 890107.13 890107.13 0 1 1 1780214.27 0a 890107.13 890107.13 0 1 1 -1780214.27 0"/>
<path id="N" d="M 18848502.97 40640617.97 m -890107.13 0 a 890107.13 890107.13 0 1 1 1780214.27 0a 890107.13 890107.13 0 1 1 -1780214.27 0"/>
<path id="N" d="M 18890691.97 29592494.97 m -890107.13 0 a 890107.13 890107.13 0 1 1 1780214.27 0a 890107.13 890107.13 0 1 1 -1780214.27 0"/>
<path id="N" d="M 30825519.95 26454479.95 m -101959.21 0 a 101959.21 101959.21 0 1 1 203918.42 0a 101959.21 101959.21 0 1 1 -203918.42 0"/>
<path id="N" d="M 30024879.95 40805119.95 m -101959.21 0 a 101959.21 101959.21 0 1 1 203918.42 0a 101959.21 101959.21 0 1 1 -203918.42 0"/>
<path id="N" d="M 39320120.00 33020120.00 L 40110120.00 32230120.00 L 40137748.00 32188773.00 L 40147449.00 32140000.00 L 40147449.00 28890000.00 L 40137748.00 28841227.00 L 40110120.00 28799880.00 L 39390120.00 28079880.00 L 39348773.00 28052252.00 L 39300000.00 28042551.00 L 38695513.80 28042551.00 L 38660240.00 27989760.00 L 38577545.00 27934505.00 L 38480000.00 27915102.00 L 38265582.00 27915102.00 L 38204898.00 27854418.00 L 38204898.00 23720000.00 L 38185495.00 23622455.00 L 38130240.00 23539760.00 L 37470240.00 22879760.00 L 37387545.00 22824505.00 L 37290000.00 22805102.00 L 32032900.00 22805102.00 L 31935355.00 22824505.00 L 31852660.00 22879760.00 L 31559760.00 23172660.00 L 31504505.00 23255355.00 L 31485102.00 23352900.00 L 31485102.00 25460000.00 A 254898.66 254898.66 0 0 0 31740000.00 25714898.00 L 32165000.00 25714898.00 A 254898.66 254898.66 0 0 0 32419898.00 25460000.00 L 32419898.00 25350000.00 L 32400495.00 25252455.00 L 32345240.00 25169760.00 L 32155240.00 24979760.00 L 32072545.00 24924505.00 L 31994898.00 24909059.98 L 31994898.00 23458482.00 L 32138482.00 23314898.00 L 37184418.00 23314898.00 L 37695102.00 23825582.00 L 37695102.00 27960000.00 L 37714505.00 28057545.00 L 37769760.00 28140240.00 L 37906488.03 28276968.03 L 37924505.00 28367545.00 L 37979760.00 28450240.00 L 38139760.00 28610240.00 A 254894.01 254894.01 0 0 0 38555495.00 28527545.00 L 38573511.97 28436968.03 L 38660240.00 28350240.00 L 38695514.22 28297449.00 L 39247209.00 28297449.00 L 39892551.00 28942791.00 L 39892551.00 32087209.00 L 39177209.00 32802551.00 L 37992791.00 32802551.00 L 37697449.00 32507209.00 L 37697449.00 31480000.00 L 37695796.76 31471693.15 L 37697748.00 31468773.00 L 37707449.00 31420000.00 L 37697449.00 31370779.53 L 37697449.00 31330000.00 A 127441.40 127441.40 0 1 0 37442551.00 31330000.00 L 37442551.00 31410000.00 L 37449512.54 31445000.00 L 37442551.00 31480000.00 L 37442551.00 32560000.00 L 37452252.00 32608773.00 L 37479880.00 32650120.00 L 37849880.00 33020120.00 L 37891227.00 33047748.00 L 37940000.00 33057449.00 L 39230000.00 33057449.00 L 39278773.00 33047748.00 L 39320120.00 33020120.00  z"/>
<path id="N" d="M 38639379.95 24469379.95 m -101959.21 0 a 101959.21 101959.21 0 1 1 203918.42 0a 101959.21 101959.21 0 1 1 -203918.42 0"/>
<path id="N" d="M 37099999.95 27189999.95 m -101959.21 0 a 101959.21 101959.21 0 1 1 203918.42 0a 101959.21 101959.21 0 1 1 -203918.42 0"/>
<path id="N" d="M 25193339.95 36046659.95 m -101959.21 0 a 101959.21 101959.21 0 1 1 203918.42 0a 101959.21 101959.21 0 1 1 -203918.42 0"/>
<path id="N" d="M 39133019.95 26436979.95 m -101959.21 0 a 101959.21 101959.21 0 1 1 203918.42 0a 101959.21 101959.21 0 1 1 -203918.42 0"/>
<path id="N" d="M 39485519.95 33615519.95 m -101959.21 0 a 101959.21 101959.21 0 1 1 203918.42 0a 101959.21 101959.21 0 1 1 -203918.42 0"/>
<path id="N" d="M 39259999.95 30289999.95 m -101959.21 0 a 101959.21 101959.21 0 1 1 203918.42 0a 101959.21 101959.21 0 1 1 -203918.42 0"/>
<path id="N" d="M 23969939.95 31756039.95 m -101959.21 0 a 101959.21 101959.21 0 1 1 203918.42 0a 101959.21 101959.21 0 1 1 -203918.42 0"/>
<path id="N" d="M 23879999.95 31219999.95 m -101959.21 0 a 101959.21 101959.21 0 1 1 203918.42 0a 101959.21 101959.21 0 1 1 -203918.42 0"/>
<path id="N" d="M 34279999.95 42479999.95 m -101959.21 0 a 101959.21 101959.21 0 1 1 203918.42 0a 101959.21 101959.21 0 1 1 -203918.42 0"/>
<path id="N" d="M 34269999.95 42159999.95 m -101959.21 0 a 101959.21 101959.21 0 1 1 203918.42 0a 101959.21 101959.21 0 1 1 -203918.42 0"/>
<path id="N" d="M 24179999.95 31229999.95 m -101959.21 0 a 101959.21 101959.21 0 1 1 203918.42 0a 101959.21 101959.21 0 1 1 -203918.42 0"/>
<path id="N" d="M 30339839.95 40800159.95 m -101959.21 0 a 101959.21 101959.21 0 1 1 203918.42 0a 101959.21 101959.21 0 1 1 -203918.42 0"/>
<path id="N" d="M 39567239.95 24144179.95 m -101959.21 0 a 101959.21 101959.21 0 1 1 203918.42 0a 101959.21 101959.21 0 1 1 -203918.42 0"/>
<path id="N" d="M 40211020.38 39737400.38 m -130459.26 0 a 130459.26 130459.26 0 1 1 260918.51 0a 130459.26 130459.26 0 1 1 -260918.51 0M 40211019.76 39737398.92 m -80284.08 0 a 80284.08 80284.08 0 1 1 160568.17 0a 80284.08 80284.08 0 1 1 -160568.17 0"/>
<path id="N" d="M 40211020.38 40367320.38 m -130459.26 0 a 130459.26 130459.26 0 1 1 260918.51 0a 130459.26 130459.26 0 1 1 -260918.51 0M 40211019.76 40367318.92 m -80284.08 0 a 80284.08 80284.08 0 1 1 160568.17 0a 80284.08 80284.08 0 1 1 -160568.17 0"/>
<path id="N" d="M 40211020.38 40052360.38 m -130459.26 0 a 130459.26 130459.26 0 1 1 260918.51 0a 130459.26 130459.26 0 1 1 -260918.51 0M 40211019.76 40052358.92 m -80284.08 0 a 80284.08 80284.08 0 1 1 160568.17 0a 80284.08 80284.08 0 1 1 -160568.17 0"/>
<path id="N" d="M 40211020.38 41627160.38 m -130459.26 0 a 130459.26 130459.26 0 1 1 260918.51 0a 130459.26 130459.26 0 1 1 -260918.51 0M 40211019.76 41627158.92 m -80284.08 0 a 80284.08 80284.08 0 1 1 160568.17 0a 80284.08 80284.08 0 1 1 -160568.17 0"/>
<path id="N" d="M 40211020.38 41312200.38 m -130459.26 0 a 130459.26 130459.26 0 1 1 260918.51 0a 130459.26 130459.26 0 1 1 -260918.51 0M 40211019.76 41312198.92 m -80284.08 0 a 80284.08 80284.08 0 1 1 160568.17 0a 80284.08 80284.08 0 1 1 -160568.17 0"/>
<path id="N" d="M 30437756.00 31353564.00 L 30428898.13 31347645.36 L 30426748.00 31336836.00 L 30410172.00 31312028.00 L 28670423.29 29572279.29 L 28664198.00 29540982.00 A 101959.21 101959.21 0 1 0 28562279.29 29680423.29 L 30270970.25 31389114.25 A 98732.80 98732.80 0 1 0 30437756.00 31353564.00  z"/>
<path id="N" d="M 22677188.95 23307188.95 m -101959.21 0 a 101959.21 101959.21 0 1 1 203918.42 0a 101959.21 101959.21 0 1 1 -203918.42 0"/>
<path id="N" d="M 22669999.95 29869999.95 m -101959.21 0 a 101959.21 101959.21 0 1 1 203918.42 0a 101959.21 101959.21 0 1 1 -203918.42 0"/>
<path id="N" d="M 28139999.95 32699999.95 m -101959.21 0 a 101959.21 101959.21 0 1 1 203918.42 0a 101959.21 101959.21 0 1 1 -203918.42 0"/>
<path id="N" d="M 22469999.95 28439999.95 m -101959.21 0 a 101959.21 101959.21 0 1 1 203918.42 0a 101959.21 101959.21 0 1 1 -203918.42 0"/>
<path id="N" d="M 27820159.95 36250159.95 m -101959.21 0 a 101959.21 101959.21 0 1 1 203918.42 0a 101959.21 101959.21 0 1 1 -203918.42 0"/>
<path id="N" d="M 28135119.95 37515119.95 m -101959.21 0 a 101959.21 101959.21 0 1 1 203918.42 0a 101959.21 101959.21 0 1 1 -203918.42 0"/>
<path id="N" d="M 24104479.95 35325519.95 m -101959.21 0 a 101959.21 101959.21 0 1 1 203918.42 0a 101959.21 101959.21 0 1 1 -203918.42 0"/>
<path id="N" d="M 33252096.00 32302096.00 L 33256874.81 32294944.00 L 33760000.00 32294944.00 L 33805922.00 32275922.00 L 36146900.00 29934944.00 L 37717660.00 29934944.00 L 37763582.00 29915922.00 L 37833882.00 29845622.00 L 37852904.00 29799700.00 L 37852904.00 29329600.00 L 37833882.00 29283677.00 L 37706690.65 29156486.36 L 37711959.00 29130000.00 A 101958.15 101958.15 0 1 0 37570982.00 29224198.00 L 37595613.16 29229097.34 L 37723016.00 29356500.89 L 37723016.00 29772800.00 L 37690760.00 29805056.00 L 36120000.00 29805056.00 L 36074078.00 29824078.00 L 33733100.00 32165056.00 L 33256874.81 32165056.00 L 33252096.00 32157904.00 A 101958.15 101958.15 0 1 0 33252096.00 32302096.00  z"/>
<path id="N" d="M 23199999.95 29539999.95 m -101959.21 0 a 101959.21 101959.21 0 1 1 203918.42 0a 101959.21 101959.21 0 1 1 -203918.42 0"/>
<path id="N" d="M 39254999.95 28783539.95 m -101959.21 0 a 101959.21 101959.21 0 1 1 203918.42 0a 101959.21 101959.21 0 1 1 -203918.42 0"/>
<path id="N" d="M 32089018.00 33845802.00 L 32074597.68 33842933.68 L 31971269.00 33739605.00 L 31971269.00 33140751.34 L 31988998.00 33114218.00 A 101960.92 101960.92 0 1 0 31800602.00 33114218.00 L 31818331.00 33140751.34 L 31818331.00 33771280.00 L 31824152.00 33800544.00 L 31840728.00 33825352.00 L 31949257.93 33933881.93 L 31948041.00 33940000.00 A 101958.15 101958.15 0 1 0 32089018.00 33845802.00  z"/>
<path id="N" d="M 38499999.95 27189999.95 m -101959.21 0 a 101959.21 101959.21 0 1 1 203918.42 0a 101959.21 101959.21 0 1 1 -203918.42 0"/>
<path id="N" d="M 39935440.38 40839760.38 m -130459.26 0 a 130459.26 130459.26 0 1 1 260918.51 0a 130459.26 130459.26 0 1 1 -260918.51 0M 39935439.76 40839758.92 m -80284.08 0 a 80284.08 80284.08 0 1 1 160568.17 0a 80284.08 80284.08 0 1 1 -160568.17 0"/>
<path id="N" d="M 39079999.95 40579999.95 m -101959.21 0 a 101959.21 101959.21 0 1 1 203918.42 0a 101959.21 101959.21 0 1 1 -203918.42 0"/>
<path id="N" d="M 39039999.95 40219999.95 m -101959.21 0 a 101959.21 101959.21 0 1 1 203918.42 0a 101959.21 101959.21 0 1 1 -203918.42 0"/>
<path id="N" d="M 39834479.95 27009999.95 m -101959.21 0 a 101959.21 101959.21 0 1 1 203918.42 0a 101959.21 101959.21 0 1 1 -203918.42 0"/>
<path id="N" d="M 34259999.95 38499999.95 m -101959.21 0 a 101959.21 101959.21 0 1 1 203918.42 0a 101959.21 101959.21 0 1 1 -203918.42 0"/>
<path id="N" d="M 34843680.00 34940120.00 L 35010120.00 34773680.00 L 35037748.00 34732333.00 L 35047449.00 34683560.00 L 35047449.00 34610000.00 A 127441.40 127441.40 0 0 0 34870779.53 34492551.00 L 34266743.00 34492551.00 L 33001959.00 33227767.00 L 33001959.00 32170393.00 L 33932096.00 31240256.00 L 33954198.00 31207178.00 L 33961959.00 31168160.00 L 33961959.00 30380000.00 L 33954198.00 30340982.00 L 33932096.00 30307904.00 L 33352096.00 29727904.00 L 33319018.00 29705802.00 L 33280000.00 29698041.00 L 32991959.00 29698041.00 L 32991959.00 29480000.00 A 101958.15 101958.15 0 0 0 32890000.00 29378041.00 L 32560000.00 29378041.00 A 101958.15 101958.15 0 0 0 32458041.00 29480000.00 L 32458041.00 29757631.10 L 32455802.00 29760982.00 A 101960.92 101960.92 0 0 0 32550000.00 29901959.00 L 33237767.00 29901959.00 L 33758041.00 30422233.00 L 33758041.00 31125927.00 L 32827904.00 32056064.00 L 32805802.00 32089142.00 L 32798041.00 32128160.00 L 32798041.00 33270000.00 L 32805802.00 33309018.00 L 32827904.00 33342096.00 L 34094750.37 34608942.37 L 34092551.00 34620000.00 L 34102252.00 34668773.00 L 34129880.00 34710120.00 L 34359880.00 34940120.00 L 34401227.00 34967748.00 L 34450000.00 34977449.00 L 34753560.00 34977449.00 L 34802333.00 34967748.00 L 34843680.00 34940120.00  z"/>
<path id="N" d="M 20718144.00 28048144.00 L 21213349.00 27552939.00 L 22198148.17 27552939.00 L 22617594.00 27972402.00 A 152937.79 152937.79 0 1 0 22833887.00 27756118.00 L 22477786.17 27400001.83 L 25548789.00 24328999.00 L 27163940.00 24328999.00 A 152940.51 152940.51 0 0 0 27163940.00 24023121.00 L 25485440.00 24023121.00 L 25426913.00 24034763.00 L 25377296.00 24067916.00 L 22198151.00 27247061.00 L 21150000.00 27247061.00 L 21091473.00 27258703.00 L 21041856.00 27291856.00 L 20501856.00 27831856.00 A 152940.51 152940.51 0 0 0 20718144.00 28048144.00  z"/>
<path id="N" d="M 33608144.00 36568144.00 L 33983349.00 36192939.00 L 34600000.00 36192939.00 A 152940.51 152940.51 0 0 0 34752939.00 36040000.00 L 34752939.00 35848600.00 L 34741297.00 35790073.00 L 34708144.00 35740456.00 L 34622304.00 35654616.00 A 152940.51 152940.51 0 0 0 34406016.00 35654616.00 L 34261856.00 35798776.00 L 34228703.00 35848393.00 L 34221011.29 35887061.00 L 33920000.00 35887061.00 L 33861473.00 35898703.00 L 33811856.00 35931856.00 L 33436651.00 36307061.00 L 30103349.00 36307061.00 L 29838144.00 36041856.00 A 152940.51 152940.51 0 0 0 29621856.00 36258144.00 L 29931856.00 36568144.00 L 29981473.00 36601297.00 L 30040000.00 36612939.00 L 33500000.00 36612939.00 L 33558527.00 36601297.00 L 33608144.00 36568144.00  z"/>
<path id="N" d="M 23052405.00 34656116.00 L 22678144.00 34281856.00 L 22628527.00 34248703.00 L 22570000.00 34237061.00 L 20620000.00 34237061.00 A 152940.51 152940.51 0 1 0 20620000.00 34542939.00 L 22506650.88 34542939.00 L 22836116.00 34872405.00 A 152945.15 152945.15 0 0 0 23052405.00 34656116.00  z"/>
<path id="N" d="M 32923939.95 28599999.95 m -101959.21 0 a 101959.21 101959.21 0 1 1 203918.42 0a 101959.21 101959.21 0 1 1 -203918.42 0"/>
<path id="N" d="M 33021959.00 31280000.00 L 33017741.43 31258796.40 L 33308269.00 30968269.00 L 33324120.00 30929997.59 L 33324120.00 30314107.17 L 33342096.00 30302096.00 A 101958.15 101958.15 0 1 0 33197904.00 30302096.00 L 33215880.00 30314107.17 L 33215880.00 30907582.95 L 32941203.60 31182258.57 L 32920000.00 31178041.00 A 101958.15 101958.15 0 1 0 33021959.00 31280000.00  z"/>
<path id="N" d="M 42540000.00 22480000.00 L 17731016.00 22480000.00 L 17656747.79 39264565.99 L 17692025.36 39300000.00 L 39481567.00 39300000.00 L 39481567.00 39225585.00 A 201833.96 201833.96 0 0 1 39718895.00 39067007.00 L 39755727.50 39082263.76 L 39775336.47 39071151.02 L 39803229.81 39047819.88 L 39820726.00 38959861.00 A 252003.73 252003.73 0 0 1 40053550.00 38804293.00 L 40289770.00 38804293.00 A 252009.09 252009.09 0 0 1 40467966.00 39234496.00 L 40444763.02 39249999.65 L 40459930.40 39300000.00 L 42540000.00 39300000.00 L 42540000.00 22480000.00  zM 18570000.00 23370001.08 m -173329.42 0 a 173329.42 173329.42 0 1 1 346658.84 0a 173329.42 173329.42 0 1 1 -346658.84 0M 20770000.00 23110001.08 m -173329.42 0 a 173329.42 173329.42 0 1 1 346658.84 0a 173329.42 173329.42 0 1 1 -346658.84 0M 21495881.00 24036297.00 L 21476194.18 23988769.02 L 21423805.82 23988769.02 L 21404119.00 24036297.00 A 173331.37 173331.37 0 1 1 21404119.00 23843703.00 L 21423805.82 23891230.98 L 21476194.18 23891230.98 L 21495881.00 23843703.00 A 173331.37 173331.37 0 1 1 21495881.00 24036297.00  zM 22677189.00 23307190.08 m -173329.42 0 a 173329.42 173329.42 0 1 1 346658.84 0a 173329.42 173329.42 0 1 1 -346658.84 0M 22460000.00 23870861.08 m -173329.42 0 a 173329.42 173329.42 0 1 1 346658.84 0a 173329.42 173329.42 0 1 1 -346658.84 0M 21485881.00 24466297.00 L 21472060.05 24432930.42 L 21417939.95 24432930.42 L 21404119.00 24466297.00 A 173331.37 173331.37 0 1 1 21404119.00 24273703.00 L 21417939.95 24307069.58 L 21472060.05 24307069.58 L 21485881.00 24273703.00 A 173331.37 173331.37 0 1 1 21485881.00 24466297.00  zM 22775740.00 24394261.08 m -173329.42 0 a 173329.42 173329.42 0 1 1 346658.84 0a 173329.42 173329.42 0 1 1 -346658.84 0M 21503703.00 28434119.00 L 21474864.44 28405280.44 L 21448441.53 28389338.96 L 21409598.15 28405217.85 L 21386297.00 28428519.00 A 173329.42 173329.42 0 1 1 21193703.00 28140281.00 L 21213238.79 28132188.98 L 21213238.79 28078068.87 L 21203703.00 28074119.00 A 173331.37 173331.37 0 0 1 21396297.00 27785881.00 L 21428309.41 27817893.41 L 21460000.00 27828424.75 L 21491690.59 27817893.41 L 21523703.00 27785881.00 A 173329.42 173329.42 0 0 1 21716297.00 28074119.00 L 21685001.44 28087082.10 L 21685001.44 28141202.20 L 21696297.00 28145881.00 A 173331.37 173331.37 0 0 1 21503703.00 28434119.00  zM 22470000.00 28440001.08 m -173329.42 0 a 173329.42 173329.42 0 1 1 346658.84 0a 173329.42 173329.42 0 1 1 -346658.84 0M 23200000.00 29540001.08 m -173329.42 0 a 173329.42 173329.42 0 1 1 346658.84 0a 173329.42 173329.42 0 1 1 -346658.84 0M 23550000.00 23595001.08 m -173329.42 0 a 173329.42 173329.42 0 1 1 346658.84 0a 173329.42 173329.42 0 1 1 -346658.84 0M 20451389.00 27781389.00 L 20991389.00 27241389.00 L 21064160.00 27192765.00 L 21150000.00 27175690.00 L 22168588.00 27175690.00 L 25326829.00 24017449.00 L 25399601.00 23968824.00 L 25485440.00 23951750.00 L 27163940.00 23951750.00 A 224312.26 224312.26 0 0 1 27163940.00 24400370.00 L 25578352.00 24400370.00 L 22578718.91 27400003.09 L 22884355.00 27705653.00 A 224313.05 224313.05 0 1 1 22567126.00 28022868.00 L 22168584.31 27624310.00 L 21242912.00 27624310.00 L 20768611.00 28098611.00 A 224316.90 224316.90 0 0 1 20451389.00 27781389.00  zM 23980000.00 28280001.08 m -173329.42 0 a 173329.42 173329.42 0 1 1 346658.84 0a 173329.42 173329.42 0 1 1 -346658.84 0M 24232264.00 23145783.08 m -173329.42 0 a 173329.42 173329.42 0 1 1 346658.84 0a 173329.42 173329.42 0 1 1 -346658.84 0M 24000000.00 28900001.08 m -173329.42 0 a 173329.42 173329.42 0 1 1 346658.84 0a 173329.42 173329.42 0 1 1 -346658.84 0M 25460000.00 22850001.08 m -173329.42 0 a 173329.42 173329.42 0 1 1 346658.84 0a 173329.42 173329.42 0 1 1 -346658.84 0M 28040000.00 22850001.08 m -173329.42 0 a 173329.42 173329.42 0 1 1 346658.84 0a 173329.42 173329.42 0 1 1 -346658.84 0M 26984260.00 26375741.08 m -173329.42 0 a 173329.42 173329.42 0 1 1 346658.84 0a 173329.42 173329.42 0 1 1 -346658.84 0M 25803703.00 28085881.00 L 25857200.27 28063721.61 L 26325460.00 27595461.00 L 26373424.00 27563413.00 L 26430000.00 27552159.00 L 27912688.67 27552159.00 L 27966185.00 27530000.00 L 28033815.00 27530000.00 L 28087311.33 27552159.00 L 29475243.00 27552159.00 L 29603281.68 27424120.32 L 29615881.00 27393703.00 A 173331.37 173331.37 0 1 1 29793815.00 27660000.00 L 29785558.00 27660000.00 L 29641019.00 27804539.00 L 29593056.00 27836587.00 L 29536480.00 27847841.00 L 28087311.33 27847841.00 L 28033815.00 27870000.00 L 27966185.00 27870000.00 L 27912688.67 27847841.00 L 26491237.92 27847841.00 L 26066278.39 28272799.73 L 26044119.00 28326297.00 A 173331.37 173331.37 0 1 1 25803703.00 28085881.00  zM 18890690.00 29592488.11 m -960452.75 0 a 960452.75 960452.75 0 1 1 1920905.49 0a 960452.75 960452.75 0 1 1 -1920905.49 0M 21513703.00 31084119.00 L 21465090.69 31036693.15 L 21422335.55 31058080.45 L 21406297.00 31074119.00 A 173329.42 173329.42 0 1 1 21454909.31 30833306.85 L 21497664.45 30811919.55 L 21513703.00 30795881.00 A 173329.42 173329.42 0 1 1 21513703.00 31084119.00  zM 21523703.00 31474119.00 L 21497664.45 31448080.45 L 21465000.00 31431740.79 L 21432335.55 31448080.45 L 21406297.00 31474119.00 A 173329.42 173329.42 0 1 1 21406297.00 31185881.00 L 21432335.55 31211919.55 L 21465000.00 31228259.21 L 21497664.45 31211919.55 L 21523703.00 31185881.00 A 173329.42 173329.42 0 1 1 21523703.00 31474119.00  zM 22670000.00 29870001.08 m -173329.42 0 a 173329.42 173329.42 0 1 1 346658.84 0a 173329.42 173329.42 0 1 1 -346658.84 0M 22390000.00 30180001.08 m -173329.42 0 a 173329.42 173329.42 0 1 1 346658.84 0a 173329.42 173329.42 0 1 1 -346658.84 0M 21220000.00 31750001.08 m -173329.42 0 a 173329.42 173329.42 0 1 1 346658.84 0a 173329.42 173329.42 0 1 1 -346658.84 0M 23969940.00 31756041.08 m -173329.42 0 a 173329.42 173329.42 0 1 1 346658.84 0a 173329.42 173329.42 0 1 1 -346658.84 0M 21513703.00 35444119.00 L 21487664.45 35418080.45 L 21455000.00 35401740.79 L 21422335.55 35418080.45 L 21396297.00 35444119.00 A 173329.42 173329.42 0 1 1 21203703.00 35155881.00 L 21254140.62 35134988.97 L 21260278.24 35090682.94 L 21259113.44 35082928.70 L 21213703.00 35064119.00 A 173331.37 173331.37 0 1 1 21406297.00 34775881.00 L 21438309.41 34807893.41 L 21470000.00 34818424.75 L 21501690.59 34807893.41 L 21533703.00 34775881.00 A 173329.42 173329.42 0 1 1 21670859.36 35087082.12 L 21664740.22 35111938.91 L 21665886.57 35139142.38 L 21706297.00 35155881.00 A 173331.37 173331.37 0 1 1 21513703.00 35444119.00  zM 22785649.00 34922871.00 L 22477088.00 34614310.00 L 20620000.00 34614310.00 A 224312.26 224312.26 0 0 1 20620000.00 34165690.00 L 22570000.00 34165690.00 L 22655840.00 34182765.00 L 22728611.00 34231389.00 L 23102871.00 34605649.00 A 224305.69 224305.69 0 1 1 22785649.00 34922871.00  zM 24083703.00 31374119.00 L 24035090.69 31326693.15 L 23992335.55 31348080.45 L 23976297.00 31364119.00 A 173329.42 173329.42 0 1 1 24024909.31 31123306.85 L 24067664.45 31101919.55 L 24083703.00 31085881.00 A 173329.42 173329.42 0 1 1 24083703.00 31374119.00  zM 27350000.00 33640001.08 m -173329.42 0 a 173329.42 173329.42 0 1 1 346658.84 0a 173329.42 173329.42 0 1 1 -346658.84 0M 24104480.00 35325521.08 m -173329.42 0 a 173329.42 173329.42 0 1 1 346658.84 0a 173329.42 173329.42 0 1 1 -346658.84 0M 30195660.00 31459475.00 L 30195660.00 31414738.00 L 28527200.47 29746278.47 L 28473703.00 29724119.00 L 28425881.00 29676297.00 L 28420354.62 29662955.19 L 28361374.93 29651223.42 L 28217841.00 29794757.08 L 28217841.00 30342688.67 L 28240000.00 30396185.00 A 173329.42 173329.42 0 1 1 27900000.00 30396185.00 L 27922159.00 30342688.67 L 27922159.00 29733520.00 L 27933413.00 29676944.00 L 27965461.00 29628981.00 L 28509421.00 29085020.00 L 28557384.00 29052973.00 L 28613960.00 29041719.00 L 28767865.00 29041719.00 L 28773703.00 29035881.00 A 173329.42 173329.42 0 1 1 28836185.00 29350000.00 L 28805768.45 29337401.00 L 28675197.92 29337401.00 L 28641223.78 29371375.08 L 28652955.49 29430354.74 L 28666297.00 29435881.00 L 28714119.00 29483703.00 L 28736278.47 29537200.47 L 30460639.00 31261561.00 L 30492687.00 31309524.00 L 30493369.11 31312953.11 L 30509779.00 31329363.00 A 173329.42 173329.42 0 1 1 30195660.00 31459475.00  zM 28140000.00 32700001.08 m -173329.42 0 a 173329.42 173329.42 0 1 1 346658.84 0a 173329.42 173329.42 0 1 1 -346658.84 0M 25193340.00 36046661.08 m -173329.42 0 a 173329.42 173329.42 0 1 1 346658.84 0a 173329.42 173329.42 0 1 1 -346658.84 0M 26260160.00 37880161.08 m -173329.42 0 a 173329.42 173329.42 0 1 1 346658.84 0a 173329.42 173329.42 0 1 1 -346658.84 0M 27820160.00 36250161.08 m -173329.42 0 a 173329.42 173329.42 0 1 1 346658.84 0a 173329.42 173329.42 0 1 1 -346658.84 0M 28013703.00 37745881.00 L 28065520.27 37724417.50 L 28072050.59 37685395.73 L 28070493.07 37672357.23 L 28038823.00 37659239.00 A 173331.37 173331.37 0 1 1 28231417.00 37659239.00 L 28179599.73 37680702.50 L 28173069.41 37719724.27 L 28174626.93 37732762.77 L 28206297.00 37745881.00 A 173331.37 173331.37 0 1 1 28013703.00 37745881.00  zM 30825520.00 26454481.08 m -173329.42 0 a 173329.42 173329.42 0 1 1 346658.84 0a 173329.42 173329.42 0 1 1 -346658.84 0M 34073703.00 24774119.00 L 34051935.00 24752351.00 L 32758065.00 24752351.00 L 32736297.00 24774119.00 A 173329.42 173329.42 0 1 1 32736297.00 24485881.00 L 32758065.00 24507649.00 L 34051935.00 24507649.00 L 34073703.00 24485881.00 A 173329.42 173329.42 0 1 1 34073703.00 24774119.00  zM 34159981.00 27607863.00 L 34191945.00 27575899.00 L 34191944.00 26487680.00 L 34200482.00 26444760.00 L 34224794.00 26408374.00 L 34348780.00 26284388.58 L 34348780.00 26239185.00 A 173331.37 173331.37 0 1 1 34552595.00 26443000.00 L 34507391.42 26443000.00 L 34416255.00 26534136.85 L 34416255.00 27575899.00 L 34448219.00 27607863.00 A 173329.42 173329.42 0 1 1 34159981.00 27607863.00  zM 37310000.00 25160001.08 m -173329.42 0 a 173329.42 173329.42 0 1 1 346658.84 0a 173329.42 173329.42 0 1 1 -346658.84 0M 38500000.00 27190001.08 m -173329.42 0 a 173329.42 173329.42 0 1 1 346658.84 0a 173329.42 173329.42 0 1 1 -346658.84 0M 38639380.00 24469381.08 m -173329.42 0 a 173329.42 173329.42 0 1 1 346658.84 0a 173329.42 173329.42 0 1 1 -346658.84 0M 39567240.00 24144181.08 m -173329.42 0 a 173329.42 173329.42 0 1 1 346658.84 0a 173329.42 173329.42 0 1 1 -346658.84 0M 39950000.00 25410001.08 m -173329.42 0 a 173329.42 173329.42 0 1 1 346658.84 0a 173329.42 173329.42 0 1 1 -346658.84 0M 39133020.00 26436981.08 m -173329.42 0 a 173329.42 173329.42 0 1 1 346658.84 0a 173329.42 173329.42 0 1 1 -346658.84 0M 39834480.00 27010001.08 m -173329.42 0 a 173329.42 173329.42 0 1 1 346658.84 0a 173329.42 173329.42 0 1 1 -346658.84 0M 37100000.00 27190001.08 m -173329.42 0 a 173329.42 173329.42 0 1 1 346658.84 0a 173329.42 173329.42 0 1 1 -346658.84 0M 39230000.00 33128820.00 L 37940000.00 33128820.00 L 37863915.00 33113686.00 L 37799413.00 33070587.00 L 37429413.00 32700587.00 L 37386314.00 32636085.00 L 37371180.00 32560000.00 L 37371180.00 31480000.00 L 37378141.82 31445000.00 L 37371180.00 31410000.00 L 37371180.00 31330000.00 L 37386314.00 31253915.00 A 198822.18 198822.18 0 0 1 37768820.00 31330000.00 L 37768820.00 31369725.78 L 37778820.00 31420000.00 L 37767852.73 31475137.11 L 37768820.00 32477646.00 L 38022354.00 32731180.00 L 39147646.00 32731180.00 L 39821180.00 32057646.00 L 39821180.00 28972354.00 L 39217646.00 28368820.00 L 38730790.56 28368820.00 L 38708226.00 28398227.00 L 38637652.85 28468799.70 L 38631763.00 28513537.00 A 322761.95 322761.95 0 0 1 38091773.00 28658226.00 L 37931774.00 28498226.00 L 37880481.00 28431380.00 L 37848237.00 28353537.00 L 37842347.15 28308799.72 L 37721774.00 28188226.00 A 322761.95 322761.95 0 0 1 37627239.00 27960000.00 L 37627239.00 23853691.86 L 37156308.86 23382761.00 L 32166591.68 23382761.00 L 32062761.00 23486591.32 L 32062761.00 24849986.66 L 32136380.00 24880481.00 L 32203226.00 24931774.00 L 32393227.00 25121774.00 A 322758.15 322758.15 0 0 1 32487761.00 25350000.00 L 32487761.00 25460000.00 A 322757.30 322757.30 0 0 1 32165000.00 25782761.00 L 31740000.00 25782761.00 A 322757.30 322757.30 0 0 1 31417239.00 25460000.00 L 31417239.00 23352900.00 A 322757.30 322757.30 0 0 1 31511774.00 23124674.00 L 31804673.00 22831774.00 A 322772.32 322772.32 0 0 1 32032900.00 22737239.00 L 37290000.00 22737239.00 A 322757.30 322757.30 0 0 1 37518226.00 22831774.00 L 38178227.00 23491774.00 A 322772.32 322772.32 0 0 1 38272761.00 23720000.00 L 38272761.00 27826308.55 L 38293691.55 27847239.00 L 38480000.00 27847239.00 A 322757.30 322757.30 0 0 1 38708226.00 27941774.00 L 38730790.13 27971180.00 L 39300000.00 27971180.00 L 39376085.00 27986314.00 L 39440587.00 28029413.00 L 40160587.00 28749413.00 L 40203686.00 28813915.00 L 40218820.00 28890000.00 L 40218820.00 32140000.00 L 40203686.00 32216085.00 L 40160587.00 32280587.00 L 39370587.00 33070587.00 L 39306085.00 33113686.00 L 39230000.00 33128820.00  zM 32923940.00 28600001.08 m -173329.42 0 a 173329.42 173329.42 0 1 1 346658.84 0a 173329.42 173329.42 0 1 1 -346658.84 0M 38890000.00 28980001.08 m -173329.42 0 a 173329.42 173329.42 0 1 1 346658.84 0a 173329.42 173329.42 0 1 1 -346658.84 0M 39255000.00 28783541.08 m -173329.42 0 a 173329.42 173329.42 0 1 1 346658.84 0a 173329.42 173329.42 0 1 1 -346658.84 0M 38750000.00 30380001.08 m -173329.42 0 a 173329.42 173329.42 0 1 1 346658.84 0a 173329.42 173329.42 0 1 1 -346658.84 0M 39163703.00 30145881.00 L 39213943.31 30125070.70 L 39228437.28 30086861.09 L 39229583.61 30069999.61 L 39205881.00 30046297.00 A 173329.42 173329.42 0 1 1 39446297.00 30094119.00 L 39396056.69 30114929.30 L 39381562.72 30153138.91 L 39380416.39 30170000.39 L 39404119.00 30193703.00 A 173329.42 173329.42 0 1 1 39163703.00 30145881.00  zM 38785740.00 30834261.08 m -173329.42 0 a 173329.42 173329.42 0 1 1 346658.84 0a 173329.42 173329.42 0 1 1 -346658.84 0M 39070000.00 31414261.08 m -173329.42 0 a 173329.42 173329.42 0 1 1 346658.84 0a 173329.42 173329.42 0 1 1 -346658.84 0M 31880000.00 33973815.00 L 31880000.00 33965558.00 L 31790261.00 33875819.00 L 31758213.00 33827856.00 L 31746959.00 33771280.00 L 31746959.00 33162511.33 L 31724800.00 33109015.00 A 173329.42 173329.42 0 1 1 32064800.00 33109015.00 L 32042641.00 33162511.33 L 32042641.00 33710043.00 L 32115879.68 33783281.68 L 32146297.00 33795881.00 A 173331.37 173331.37 0 1 1 31880000.00 33973815.00  zM 29328100.00 37418101.08 m -173329.42 0 a 173329.42 173329.42 0 1 1 346658.84 0a 173329.42 173329.42 0 1 1 -346658.84 0M 30654800.00 37435201.08 m -173329.42 0 a 173329.42 173329.42 0 1 1 346658.84 0a 173329.42 173329.42 0 1 1 -346658.84 0M 33500000.00 36684310.00 L 30040000.00 36684310.00 L 29954160.00 36667235.00 L 29881389.00 36618611.00 L 29571389.00 36308611.00 A 224316.90 224316.90 0 1 1 29888611.00 35991389.00 L 30132912.00 36235690.00 L 33407088.00 36235690.00 L 33761389.00 35881389.00 L 33834161.00 35832764.00 L 33920000.00 35815690.00 L 34166366.48 35815690.00 L 34211389.00 35748309.00 L 34355549.00 35604149.00 A 224316.90 224316.90 0 0 1 34672771.00 35604149.00 L 34758611.00 35689989.00 L 34807235.00 35762760.00 L 34824310.00 35848600.00 L 34824310.00 36040000.00 A 224312.26 224312.26 0 0 1 34600000.00 36264310.00 L 34012912.00 36264310.00 L 33658611.00 36618611.00 L 33585840.00 36667235.00 L 33500000.00 36684310.00  zM 32566297.00 35575881.00 L 32588065.00 35597649.00 L 33314968.93 35597649.00 L 33335881.00 35547163.00 A 173331.37 173331.37 0 1 1 33452521.46 35813460.00 L 33423222.00 35833038.00 L 33376400.00 35842351.00 L 32588065.00 35842351.00 L 32566297.00 35864119.00 A 173329.42 173329.42 0 1 1 32566297.00 35575881.00  zM 29260000.00 37940001.08 m -173329.42 0 a 173329.42 173329.42 0 1 1 346658.84 0a 173329.42 173329.42 0 1 1 -346658.84 0M 30720680.00 38315301.08 m -173329.42 0 a 173329.42 173329.42 0 1 1 346658.84 0a 173329.42 173329.42 0 1 1 -346658.84 0M 30820000.00 38810001.08 m -173329.42 0 a 173329.42 173329.42 0 1 1 346658.84 0a 173329.42 173329.42 0 1 1 -346658.84 0M 32040000.00 38630001.08 m -173329.42 0 a 173329.42 173329.42 0 1 1 346658.84 0a 173329.42 173329.42 0 1 1 -346658.84 0M 34753560.00 35048820.00 L 34450000.00 35048820.00 L 34373915.00 35033686.00 L 34309413.00 34990587.00 L 34079413.00 34760587.00 L 34036314.00 34696085.00 L 34025228.74 34640354.74 L 32777437.00 33392563.00 L 32739864.00 33336331.00 L 32726670.00 33270000.00 L 32726670.00 32128160.00 L 32739864.00 32061829.00 L 32777437.00 32005597.00 L 33686670.00 31096364.00 L 33686670.00 30451796.00 L 33486194.42 30251320.42 L 33436478.71 30272316.10 L 33414119.00 30326297.00 L 33392351.00 30348065.00 L 33392351.00 30930000.00 L 33383038.00 30976822.00 L 33356515.00 31016515.00 L 33090000.00 31283030.00 L 33090000.00 31313815.00 A 173331.37 173331.37 0 0 1 32751750.11 31318040.13 L 32703805.56 31295273.29 L 30837401.00 33161677.02 L 30837401.00 33165768.45 L 30850000.00 33196185.00 A 173329.42 173329.42 0 1 1 30535881.00 33133703.00 L 30541719.00 33127865.00 L 30541719.00 33100440.00 L 30552973.00 33043864.00 L 30585021.00 32995901.00 L 32776099.00 30804822.02 L 32776099.00 30747311.33 L 32753940.00 30693815.00 A 173329.42 173329.42 0 1 1 33093940.00 30693815.00 L 33071781.00 30747311.33 L 33071781.00 30866060.00 L 33067207.63 30889051.20 L 33113288.10 30913681.90 L 33147649.00 30879321.00 L 33147649.00 30348065.00 L 33125881.00 30326297.00 A 173329.42 173329.42 0 0 1 33173703.00 30085881.00 L 33227683.90 30063521.29 L 33248679.58 30013805.58 L 33208204.00 29973330.00 L 32550000.00 29973330.00 L 32533258.89 29970000.00 L 32516185.00 29970000.00 L 32500411.04 29963466.18 L 32483669.00 29960136.00 L 32469475.50 29950652.21 L 32453703.00 29944119.00 L 32441631.37 29932047.37 L 32427437.00 29922563.00 L 32417952.63 29908368.63 L 32405881.00 29896297.00 L 32399347.79 29880524.50 L 32389864.00 29866331.00 L 32386533.82 29849588.96 L 32380000.00 29833815.00 L 32380000.00 29816741.11 L 32376670.00 29800000.00 L 32380000.00 29783258.89 L 32380000.00 29766185.00 L 32386670.00 29749726.39 L 32386670.00 29480000.00 L 32390000.00 29463258.89 L 32390000.00 29446185.00 L 32396533.82 29430411.04 L 32399864.00 29413669.00 L 32409347.79 29399475.50 L 32415881.00 29383703.00 L 32427952.63 29371631.37 L 32437437.00 29357437.00 L 32451631.37 29347952.63 L 32463703.00 29335881.00 L 32479475.50 29329347.79 L 32493669.00 29319864.00 L 32510411.04 29316533.82 L 32526185.00 29310000.00 L 32543258.89 29310000.00 L 32560000.00 29306670.00 L 32890000.00 29306670.00 L 32906741.11 29310000.00 L 32923815.00 29310000.00 L 32939588.96 29316533.82 L 32956331.00 29319864.00 L 32970524.50 29329347.79 L 32986297.00 29335881.00 L 32998368.63 29347952.63 L 33012563.00 29357437.00 L 33022047.37 29371631.37 L 33034119.00 29383703.00 L 33040652.21 29399475.50 L 33050136.00 29413669.00 L 33053466.18 29430411.04 L 33060000.00 29446185.00 L 33060000.00 29463258.89 L 33063330.00 29480000.00 L 33063330.00 29626670.00 L 33280000.00 29626670.00 L 33346331.00 29639864.00 L 33402563.00 29677437.00 L 33982563.00 30257437.00 L 34020136.00 30313669.00 L 34033330.00 30380000.00 L 34033330.00 31168160.00 L 34020136.00 31234491.00 L 33982563.00 31290723.00 L 33251709.66 32021576.34 L 33263441.40 32080556.02 L 33276297.00 32085881.00 L 33287869.00 32097453.00 L 33705097.00 32097453.00 L 36026275.00 29776275.00 L 36069276.00 29747543.00 L 36120000.00 29737453.00 L 37655413.00 29737453.00 L 37655413.00 29384503.00 L 37567179.99 29296269.99 L 37513703.00 29274119.00 A 173331.37 173331.37 0 1 1 37780000.00 29096185.00 L 37780000.00 29134190.00 L 37881685.00 29235875.00 L 37910417.00 29278876.00 L 37920507.00 29329600.00 L 37920507.00 29799700.00 L 37910417.00 29850424.00 L 37881685.00 29893425.00 L 37811385.00 29963725.00 L 37768384.00 29992457.00 L 37717660.00 30002547.00 L 36174903.00 30002547.00 L 34027076.94 32150373.06 L 34007904.00 32163184.00 L 33995093.06 32182356.94 L 33853725.00 32323725.00 L 33810724.00 32352457.00 L 33760000.00 32362547.00 L 33287869.00 32362547.00 L 33276297.00 32374119.00 L 33213815.00 32400000.00 L 33146185.00 32400000.00 L 33123330.52 32390533.33 L 33073330.00 32423942.55 L 33073330.00 33198204.00 L 34296306.00 34421180.00 L 34869725.78 34421180.00 L 34920000.00 34411180.00 A 198817.79 198817.79 0 0 1 35118820.00 34610000.00 L 35118820.00 34683560.00 L 35103686.00 34759645.00 L 35060587.00 34824147.00 L 34894147.00 34990587.00 L 34829645.00 35033686.00 L 34753560.00 35048820.00  zM 38146185.00 34110000.00 L 38195010.34 34110000.00 L 38226919.21 34072604.96 L 38230000.00 34063814.07 L 38230000.00 33996185.00 L 38255881.00 33933703.00 L 38264584.00 33925000.00 L 38255881.00 33916297.00 L 38230000.00 33853815.00 L 38230000.00 33796194.46 L 38224812.28 33781388.61 L 38190868.20 33750000.00 L 38146185.00 33750000.00 A 173331.37 173331.37 0 1 1 38350000.00 33546185.00 L 38350000.00 33603805.54 L 38355187.72 33618611.39 L 38389131.80 33650000.00 L 38433815.00 33650000.00 A 173331.37 173331.37 0 0 1 38544119.00 33916297.00 L 38535416.00 33925000.00 L 38544119.00 33933703.00 A 173329.42 173329.42 0 0 1 38433815.00 34200000.00 L 38384989.66 34200000.00 L 38353080.79 34237395.04 L 38350000.00 34246185.93 A 173328.22 173328.22 0 1 1 38146185.00 34110000.00  zM 38614480.00 32274481.08 m -173329.42 0 a 173329.42 173329.42 0 1 1 346658.84 0a 173329.42 173329.42 0 1 1 -346658.84 0M 34090311.48 38465433.03 L 34050613.38 38430615.40 L 34003815.00 38450000.00 A 173329.42 173329.42 0 1 1 34139688.52 38314566.97 L 34179386.62 38349384.60 L 34226185.00 38330000.00 A 173329.42 173329.42 0 1 1 34090311.48 38465433.03  zM 34010000.00 38840001.08 m -173329.42 0 a 173329.42 173329.42 0 1 1 346658.84 0a 173329.42 173329.42 0 1 1 -346658.84 0M 38940000.00 31880001.08 m -173329.42 0 a 173329.42 173329.42 0 1 1 346658.84 0a 173329.42 173329.42 0 1 1 -346658.84 0M 39485520.00 33615521.08 m -173329.42 0 a 173329.42 173329.42 0 1 1 346658.84 0a 173329.42 173329.42 0 1 1 -346658.84 0M 39930000.00 37210001.08 m -173329.42 0 a 173329.42 173329.42 0 1 1 346658.84 0a 173329.42 173329.42 0 1 1 -346658.84 0M 42018110.00 39166567.00 L 41781890.00 39166567.00 A 252009.09 252009.09 0 0 1 41781890.00 38662553.00 L 42018110.00 38662553.00 A 252009.09 252009.09 0 0 1 42018110.00 39166567.00  z"/>
<path id="N" d="M 29259999.95 37939999.95 m -101959.21 0 a 101959.21 101959.21 0 1 1 203918.42 0a 101959.21 101959.21 0 1 1 -203918.42 0"/>
<path id="N" d="M 24232263.95 23145781.95 m -101959.21 0 a 101959.21 101959.21 0 1 1 203918.42 0a 101959.21 101959.21 0 1 1 -203918.42 0"/>
<path id="N" d="M 37391019.95 40481019.95 m -101959.21 0 a 101959.21 101959.21 0 1 1 203918.42 0a 101959.21 101959.21 0 1 1 -203918.42 0"/>
<path id="N" d="M 29328099.95 37418099.95 m -101959.21 0 a 101959.21 101959.21 0 1 1 203918.42 0a 101959.21 101959.21 0 1 1 -203918.42 0"/>
<path id="N" d="M 28109999.95 37889999.95 m -101959.21 0 a 101959.21 101959.21 0 1 1 203918.42 0a 101959.21 101959.21 0 1 1 -203918.42 0"/>
<path id="N" d="M 23979999.95 28279999.95 m -101959.21 0 a 101959.21 101959.21 0 1 1 203918.42 0a 101959.21 101959.21 0 1 1 -203918.42 0"/>
<path id="N" d="M 29889999.95 39719999.95 m -101959.21 0 a 101959.21 101959.21 0 1 1 203918.42 0a 101959.21 101959.21 0 1 1 -203918.42 0"/>
<path id="N" d="M 29709919.95 41919919.95 m -101959.21 0 a 101959.21 101959.21 0 1 1 203918.42 0a 101959.21 101959.21 0 1 1 -203918.42 0"/>
<path id="N" d="M 37309999.95 25159999.95 m -101959.21 0 a 101959.21 101959.21 0 1 1 203918.42 0a 101959.21 101959.21 0 1 1 -203918.42 0"/>
<path id="N" d="M 30629999.95 40369999.95 m -101959.21 0 a 101959.21 101959.21 0 1 1 203918.42 0a 101959.21 101959.21 0 1 1 -203918.42 0"/>
<path id="N" d="M 39935440.38 40524800.38 m -130459.26 0 a 130459.26 130459.26 0 1 1 260918.51 0a 130459.26 130459.26 0 1 1 -260918.51 0M 39935439.76 40524798.92 m -80284.08 0 a 80284.08 80284.08 0 1 1 160568.17 0a 80284.08 80284.08 0 1 1 -160568.17 0"/>
<path id="N" d="M 39949999.95 25409999.95 m -101959.21 0 a 101959.21 101959.21 0 1 1 203918.42 0a 101959.21 101959.21 0 1 1 -203918.42 0"/>
<path id="N" d="M 38749999.95 30379999.95 m -101959.21 0 a 101959.21 101959.21 0 1 1 203918.42 0a 101959.21 101959.21 0 1 1 -203918.42 0"/>
<path id="N" d="M 32039999.95 38629999.95 m -101959.21 0 a 101959.21 101959.21 0 1 1 203918.42 0a 101959.21 101959.21 0 1 1 -203918.42 0"/>
<path id="N" d="M 34097904.00 24557904.00 L 34085892.83 24575880.00 L 32724107.17 24575880.00 L 32712096.00 24557904.00 A 101958.15 101958.15 0 1 0 32712096.00 24702096.00 L 32724107.17 24684120.00 L 34085892.83 24684120.00 L 34097904.00 24702096.00 A 101958.15 101958.15 0 1 0 34097904.00 24557904.00  z"/>
<path id="N" d="M 30819999.95 38809999.95 m -101959.21 0 a 101959.21 101959.21 0 1 1 203918.42 0a 101959.21 101959.21 0 1 1 -203918.42 0"/>
<path id="N" d="M 42540000.00 39450000.00 L 40150007.74 39450000.00 L 40116598.66 39500000.52 L 40133392.68 39540544.22 L 40147017.71 39549648.12 L 40171645.00 39539447.00 A 201827.66 201827.66 0 0 1 40378836.00 39849531.00 L 40333487.00 39894880.00 L 40378836.00 39940229.00 A 201827.66 201827.66 0 0 1 40378836.00 40164491.00 L 40333487.00 40209840.00 L 40378836.00 40255189.00 A 201827.66 201827.66 0 0 1 40171645.00 40565273.00 L 40147017.71 40555071.88 L 40133392.68 40564175.78 L 40103256.00 40636931.00 L 40057907.00 40682280.00 L 40103256.00 40727629.00 L 40120915.29 40770261.63 L 40171645.89 40799287.00 A 201826.52 201826.52 0 0 1 40378836.00 41109371.00 L 40333487.00 41154720.00 L 40378836.00 41200069.00 A 201827.66 201827.66 0 0 1 40378836.00 41424331.00 L 40333487.00 41469680.00 L 40378836.00 41515029.00 A 201827.66 201827.66 0 0 1 40171645.00 41825113.00 L 40147017.71 41814911.88 L 40133392.68 41824015.78 A 201832.88 201832.88 0 0 1 39974815.00 41982593.00 L 39920803.98 41982593.00 L 39878306.25 42025237.59 L 39881351.00 42040545.00 L 39881351.00 42073022.60 L 39925447.52 42096592.75 L 39957111.00 42075436.00 L 40053550.00 42056253.00 L 40289770.00 42056253.00 A 252009.09 252009.09 0 0 1 40289770.00 42560267.00 L 40053550.00 42560267.00 A 252009.09 252009.09 0 0 1 39820726.00 42404699.00 L 39811540.11 42358518.61 L 39765345.51 42339384.30 L 39756757.00 42345123.00 A 201834.80 201834.80 0 0 1 39477689.00 42158655.00 L 39477689.00 42040545.00 A 201826.85 201826.85 0 0 1 39679520.00 41838714.00 L 39694836.98 41841760.66 L 39737487.00 41799264.01 L 39737487.00 41745265.00 A 201833.96 201833.96 0 0 1 39974815.00 41586687.00 L 39999442.29 41596888.12 L 40013067.32 41587784.22 L 40043204.00 41515029.00 L 40088553.00 41469680.00 L 40043204.00 41424331.00 L 40025544.71 41381698.37 L 39974814.11 41352673.00 A 201826.52 201826.52 0 0 1 39767624.00 41042589.00 L 39812973.00 40997240.00 L 39767624.00 40951891.00 A 201827.66 201827.66 0 0 1 39767624.00 40727629.00 L 39812973.00 40682280.00 L 39767624.00 40636931.00 A 201827.66 201827.66 0 0 1 39767624.00 40412669.00 L 39812973.00 40367320.00 L 39767624.00 40321971.00 A 201827.66 201827.66 0 0 1 39974815.00 40011887.00 L 39999442.29 40022088.12 L 40013067.32 40012984.22 L 40043204.00 39940229.00 L 40088553.00 39894880.00 L 40043204.00 39849531.00 L 40025544.71 39806898.37 L 39974814.11 39777873.00 A 201826.52 201826.52 0 0 1 39737487.00 39540545.00 L 39753093.85 39502867.33 L 39718894.23 39462913.00 L 39640145.00 39462913.00 L 39608970.75 39450000.00 L 34659848.76 39450000.00 L 34650000.00 39448041.00 L 34640151.24 39450000.00 L 17670000.00 39450000.00 L 17670000.00 41300000.00 L 30880000.00 48650000.00 L 42540000.00 48650000.00 L 42540000.00 39450000.00  zM 18848501.00 40640611.11 m -960452.75 0 a 960452.75 960452.75 0 1 1 1920905.49 0a 960452.75 960452.75 0 1 1 -1920905.49 0M 28480000.00 40500001.08 m -173329.42 0 a 173329.42 173329.42 0 1 1 346658.84 0a 173329.42 173329.42 0 1 1 -346658.84 0M 28765040.00 40794961.08 m -173329.42 0 a 173329.42 173329.42 0 1 1 346658.84 0a 173329.42 173329.42 0 1 1 -346658.84 0M 29709920.00 41919921.08 m -173329.42 0 a 173329.42 173329.42 0 1 1 346658.84 0a 173329.42 173329.42 0 1 1 -346658.84 0M 29470000.00 43180001.08 m -173329.42 0 a 173329.42 173329.42 0 1 1 346658.84 0a 173329.42 173329.42 0 1 1 -346658.84 0M 29890000.00 39720001.08 m -173329.42 0 a 173329.42 173329.42 0 1 1 346658.84 0a 173329.42 173329.42 0 1 1 -346658.84 0M 30630000.00 40370001.08 m -173329.42 0 a 173329.42 173329.42 0 1 1 346658.84 0a 173329.42 173329.42 0 1 1 -346658.84 0M 30121177.00 40661001.00 L 30148172.85 40687996.85 L 30185639.22 40700498.29 L 30212544.45 40687039.55 L 30243543.00 40656041.00 A 173329.42 173329.42 0 1 1 30243543.00 40944279.00 L 30216547.15 40917283.15 L 30179080.78 40904781.71 L 30152175.55 40918240.45 L 30121177.00 40949239.00 A 173329.42 173329.42 0 1 1 30121177.00 40661001.00  zM 31324100.00 40934101.08 m -173329.42 0 a 173329.42 173329.42 0 1 1 346658.84 0a 173329.42 173329.42 0 1 1 -346658.84 0M 29980044.00 46783215.11 m -960452.75 0 a 960452.75 960452.75 0 1 1 1920905.49 0a 960452.75 960452.75 0 1 1 -1920905.49 0M 31860080.00 39769921.08 m -173329.42 0 a 173329.42 173329.42 0 1 1 346658.84 0a 173329.42 173329.42 0 1 1 -346658.84 0M 36530000.00 40430001.08 m -173329.42 0 a 173329.42 173329.42 0 1 1 346658.84 0a 173329.42 173329.42 0 1 1 -346658.84 0M 37391020.00 40481021.08 m -173329.42 0 a 173329.42 173329.42 0 1 1 346658.84 0a 173329.42 173329.42 0 1 1 -346658.84 0M 34135881.00 42383703.00 L 34164964.47 42354619.53 L 34172189.05 42312865.20 L 34161919.55 42292335.55 L 34125881.00 42256297.00 A 173329.42 173329.42 0 1 1 34414119.00 42256297.00 L 34385035.53 42285380.47 L 34377810.95 42327134.80 L 34388080.45 42347664.45 L 34424119.00 42383703.00 A 173329.42 173329.42 0 1 1 34135881.00 42383703.00  zM 32930000.00 46130001.08 m -173329.42 0 a 173329.42 173329.42 0 1 1 346658.84 0a 173329.42 173329.42 0 1 1 -346658.84 0M 38984998.56 40435344.36 L 38984998.56 40381224.25 L 38943703.00 40364119.00 A 173331.37 173331.37 0 1 1 39135001.44 40364655.64 L 39135001.44 40418775.75 L 39176297.00 40435881.00 A 173331.37 173331.37 0 1 1 38984998.56 40435344.36  zM 42018110.00 42702007.00 L 41781890.00 42702007.00 A 252009.09 252009.09 0 0 1 41781890.00 42197993.00 L 42018110.00 42197993.00 A 252009.09 252009.09 0 0 1 42018110.00 42702007.00  zM 41158418.05 44135751.82 m -258101.18 0 a 258101.18 258101.18 0 1 1 516202.36 0a 258101.18 258101.18 0 1 1 -516202.36 0M 41350349.00 46560378.00 L 40966491.00 46560378.00 A 264188.23 264188.23 0 0 1 40702302.00 46296189.00 L 40702302.00 45912331.00 A 264188.23 264188.23 0 0 1 40966491.00 45648142.00 L 41350349.00 45648142.00 A 264188.23 264188.23 0 0 1 41614538.00 45912331.00 L 41614538.00 46296189.00 A 264188.23 264188.23 0 0 1 41350349.00 46560378.00  z"/>
<path id="N" d="M 36529999.95 40429999.95 m -101959.21 0 a 101959.21 101959.21 0 1 1 203918.42 0a 101959.21 101959.21 0 1 1 -203918.42 0"/>
<path id="N" d="M 31324099.95 40934099.95 m -101959.21 0 a 101959.21 101959.21 0 1 1 203918.42 0a 101959.21 101959.21 0 1 1 -203918.42 0"/>
<path id="N" d="M 39349999.95 29949999.95 m -101959.21 0 a 101959.21 101959.21 0 1 1 203918.42 0a 101959.21 101959.21 0 1 1 -203918.42 0"/>
<path id="N" d="M 25994198.00 28269018.00 L 26000423.29 28237720.71 L 26461675.00 27776469.00 L 27934448.66 27776469.00 L 27960982.00 27794198.00 L 28000000.00 27801959.00 L 28039018.00 27794198.00 L 28065551.34 27776469.00 L 29536480.00 27776469.00 L 29565744.00 27770648.00 L 29590552.00 27754072.00 L 29753881.93 27590742.07 L 29760000.00 27591959.00 A 101958.15 101958.15 0 1 0 29665802.00 27450982.00 L 29662933.68 27465402.32 L 29504805.00 27623531.00 L 28065551.34 27623531.00 L 28039018.00 27605802.00 L 28000000.00 27598041.00 L 27960982.00 27605802.00 L 27934448.66 27623531.00 L 26430000.00 27623531.00 L 26400736.00 27629352.00 L 26375928.00 27645928.00 L 25892279.29 28129576.71 L 25860982.00 28135802.00 A 101959.21 101959.21 0 1 0 25994198.00 28269018.00  z"/>
<path id="N" d="M 30774198.00 33190982.00 L 30766029.00 33178756.22 L 30766029.00 33132114.99 L 32978012.00 30920132.00 L 32994588.00 30895323.00 L 33000409.00 30866060.00 L 33000409.00 30725551.34 L 33018138.00 30699018.00 A 101960.92 101960.92 0 1 0 32829742.00 30699018.00 L 32847471.00 30725551.34 L 32847471.00 30834385.99 L 30635488.00 33046368.00 L 30618912.00 33071176.00 L 30613091.00 33100440.00 L 30613091.00 33154438.16 L 30607904.00 33157904.00 A 101958.15 101958.15 0 1 0 30774198.00 33190982.00  z"/>
<path id="N" d="M 18569999.95 23369999.95 m -101959.21 0 a 101959.21 101959.21 0 1 1 203918.42 0a 101959.21 101959.21 0 1 1 -203918.42 0"/>
<path id="N" d="M 21219999.95 31749999.95 m -101959.21 0 a 101959.21 101959.21 0 1 1 203918.42 0a 101959.21 101959.21 0 1 1 -203918.42 0"/>
<path id="N" d="M 20769999.95 23109999.95 m -101959.21 0 a 101959.21 101959.21 0 1 1 203918.42 0a 101959.21 101959.21 0 1 1 -203918.42 0"/>
<path id="N" d="M 28164198.00 30390982.00 L 28146469.00 30364448.66 L 28146469.00 29765194.96 L 28645634.04 29266029.00 L 28818756.22 29266029.00 L 28830982.00 29274198.00 A 101960.92 101960.92 0 1 0 28797904.00 29107904.00 L 28794438.16 29113091.00 L 28613960.00 29113090.00 L 28584697.00 29118912.00 L 28559885.99 29135491.01 L 28015928.00 29679448.00 L 27999352.00 29704256.00 L 27993531.00 29733520.00 L 27993531.00 30364448.66 L 27975802.00 30390982.00 A 101960.92 101960.92 0 1 0 28164198.00 30390982.00  z"/>
<path id="N" d="M 32542096.00 35792096.00 L 32554107.17 35774120.00 L 33376400.00 35774121.00 L 33414669.00 35758269.00 L 33437563.90 35735374.10 L 33440982.00 35737658.00 A 101960.92 101960.92 0 1 0 33378447.96 35641414.04 L 33353982.00 35665880.00 L 32554107.17 35665880.00 L 32542096.00 35647904.00 A 101958.15 101958.15 0 1 0 32542096.00 35792096.00  z"/>
</g>
</svg>
