<svg width="63.17335854mm" height="66.4775912mm" viewBox="0 0 24871401 26172280"  version="1.1" xmlns="http://www.w3.org/2000/svg" xmlns:xlink="http://www.w3.org/1999/xlink">
<desc>
Origin 0 0 Bound 17667399 22461200 24871401 26172280
</desc>
<g fill-rule="evenodd" fill="rgb(128, 0, 128)" stroke="black" stroke-width="1" transform="translate(0, 26172280) scale(1, -1) translate(-17667399, -22461200)">
<path id="N" d="M 41435111.00 48633479.00 A 1183546.33 1183546.33 0 0 0 42538800.00 47529791.00 L 42538799.00 23564888.00 A 1183546.33 1183546.33 0 0 0 41435111.00 22461199.00 L 18835027.00 22461200.00 A 1183648.62 1183648.62 0 0 0 17731453.00 23560568.00 L 17729467.00 24380822.00 L 17701616.00 27500043.00 L 17701616.00 31675911.00 L 17667103.00 40715688.00 A 1183811.65 1183811.65 0 0 0 18214221.00 41640129.00 L 30662683.00 48519458.00 A 1183522.88 1183522.88 0 0 0 31099018.00 48633479.00 L 41357698.00 48633480.00 L 41435111.00 48633479.00  zM 21850550.00 24575501.00 L 21061890.00 24575501.00 L 21061890.00 23708099.00 L 21850550.00 23708099.00 L 21850550.00 24575501.00  zM 23456850.00 24131425.00 L 22983150.00 24131425.00 L 22983150.00 23697095.00 L 23456850.00 23697095.00 L 23456850.00 24131425.00  zM 23456850.00 24662905.00 L 22983150.00 24662905.00 L 22983150.00 24228575.00 L 23456850.00 24228575.00 L 23456850.00 24662905.00  zM 22834805.00 27508575.00 L 22242995.00 27508575.00 L 22242995.00 24751425.00 L 22834805.00 24751425.00 L 22834805.00 27508575.00  zM 23456850.00 28081425.00 L 22983150.00 28081425.00 L 22983150.00 27647095.00 L 23456850.00 27647095.00 L 23456850.00 28081425.00  zM 18890693.38 29592474.59 m -930321.41 0 a 930321.41 930321.41 0 1 1 1860642.83 0a 930321.41 930321.41 0 1 1 -1860642.83 0M 21850550.00 28551881.00 L 21061890.00 28551881.00 L 21061890.00 27684479.00 L 21850550.00 27684479.00 L 21850550.00 28551881.00  zM 21850550.00 31575501.00 L 21061890.00 31575501.00 L 21061890.00 30708099.00 L 21850550.00 30708099.00 L 21850550.00 31575501.00  zM 23456850.00 28612905.00 L 22983150.00 28612905.00 L 22983150.00 28178575.00 L 23456850.00 28178575.00 L 23456850.00 28612905.00  zM 23456850.00 31131425.00 L 22983150.00 31131425.00 L 22983150.00 30697095.00 L 23456850.00 30697095.00 L 23456850.00 31131425.00  zM 26526850.00 23994330.00 L 26133150.00 23994330.00 L 26133150.00 23285670.00 L 26526850.00 23285670.00 L 26526850.00 23994330.00  zM 27657008.00 23870948.00 L 27282992.00 23870948.00 L 27282992.00 23496932.00 L 27657008.00 23496932.00 L 27657008.00 23870948.00  zM 27657008.00 24363068.00 L 27282992.00 24363068.00 L 27282992.00 23989052.00 L 27657008.00 23989052.00 L 27657008.00 24363068.00  zM 27612264.00 25155760.00 L 27605433.00 25121416.75 L 27598602.00 25155760.00 A 131112.76 131112.76 0 0 1 27356358.00 25155760.00 L 27349527.50 25121419.27 L 27342697.00 25155760.00 A 131112.76 131112.76 0 0 1 27100453.00 25155760.00 L 27093622.00 25121416.75 L 27086791.00 25155760.00 A 131112.76 131112.76 0 0 1 26844547.00 25155760.00 L 26837716.50 25121419.27 L 26830886.00 25155760.00 A 131112.76 131112.76 0 0 1 26588642.00 25155760.00 L 26581811.00 25121416.75 L 26574980.00 25155760.00 A 131112.76 131112.76 0 0 1 26332736.00 25155760.00 L 26325905.50 25121419.27 L 26319075.00 25155760.00 A 131112.76 131112.76 0 0 1 26076831.00 25155760.00 L 26070000.00 25121416.75 L 26063169.00 25155760.00 A 131112.76 131112.76 0 0 1 25820925.00 25155760.00 L 25814094.50 25121419.27 L 25807264.00 25155760.00 A 131112.76 131112.76 0 0 1 25565020.00 25155760.00 L 25558189.00 25121416.75 L 25551358.00 25155760.00 A 131112.76 131112.76 0 0 1 25309114.00 25155760.00 L 25302283.50 25121419.27 L 25295453.00 25155760.00 A 131112.76 131112.76 0 0 1 25053209.00 25155760.00 L 25046378.00 25121416.75 L 25039547.00 25155760.00 A 131112.76 131112.76 0 0 1 24797303.00 25155760.00 L 24790472.50 25121419.27 L 24783642.00 25155760.00 A 131112.76 131112.76 0 0 1 24541398.00 25155760.00 L 24534567.00 25121416.75 L 24527736.00 25155760.00 A 131112.76 131112.76 0 0 1 24275513.00 25105590.00 L 24275513.00 24652834.00 A 131092.80 131092.80 0 0 1 24527736.00 24602664.00 L 24534567.00 24637007.25 L 24541398.00 24602664.00 A 131112.76 131112.76 0 0 1 24783642.00 24602664.00 L 24790472.50 24637004.73 L 24797303.00 24602664.00 A 131112.76 131112.76 0 0 1 25039547.00 24602664.00 L 25046378.00 24637007.25 L 25053209.00 24602664.00 A 131112.76 131112.76 0 0 1 25295453.00 24602664.00 L 25302283.50 24637004.73 L 25309114.00 24602664.00 A 131112.76 131112.76 0 0 1 25551358.00 24602664.00 L 25558189.00 24637007.25 L 25565020.00 24602664.00 A 131112.76 131112.76 0 0 1 25807264.00 24602664.00 L 25814094.50 24637004.73 L 25820925.00 24602664.00 A 131112.76 131112.76 0 0 1 26063169.00 24602664.00 L 26070000.00 24637007.25 L 26076831.00 24602664.00 A 131112.76 131112.76 0 0 1 26319075.00 24602664.00 L 26325905.50 24637004.73 L 26332736.00 24602664.00 A 131112.76 131112.76 0 0 1 26574980.00 24602664.00 L 26581811.00 24637007.25 L 26588642.00 24602664.00 A 131112.76 131112.76 0 0 1 26830886.00 24602664.00 L 26837716.50 24637004.73 L 26844547.00 24602664.00 A 131112.76 131112.76 0 0 1 27086791.00 24602664.00 L 27093622.00 24637007.25 L 27100453.00 24602664.00 A 131112.76 131112.76 0 0 1 27342697.00 24602664.00 L 27349527.50 24637004.73 L 27356358.00 24602664.00 A 131112.76 131112.76 0 0 1 27598602.00 24602664.00 L 27605433.00 24637007.25 L 27612264.00 24602664.00 A 131112.76 131112.76 0 0 1 27864487.00 24652834.00 L 27864487.00 25105590.00 A 131092.80 131092.80 0 0 1 27612264.00 25155760.00  zM 27612264.00 27557335.00 L 27605433.00 27522991.75 L 27598602.00 27557335.00 A 131112.76 131112.76 0 0 1 27356358.00 27557335.00 L 27349527.50 27522994.27 L 27342697.00 27557335.00 A 131112.76 131112.76 0 0 1 27100453.00 27557335.00 L 27093622.00 27522991.75 L 27086791.00 27557335.00 A 131112.76 131112.76 0 0 1 26844547.00 27557335.00 L 26837716.50 27522994.27 L 26830886.00 27557335.00 A 131112.76 131112.76 0 0 1 26588642.00 27557335.00 L 26581811.00 27522991.75 L 26574980.00 27557335.00 A 131112.76 131112.76 0 0 1 26332736.00 27557335.00 L 26325905.50 27522994.27 L 26319075.00 27557335.00 A 131112.76 131112.76 0 0 1 26076831.00 27557335.00 L 26070000.00 27522991.75 L 26063169.00 27557335.00 A 131112.76 131112.76 0 0 1 25820925.00 27557335.00 L 25814094.50 27522994.27 L 25807264.00 27557335.00 A 131112.76 131112.76 0 0 1 25565020.00 27557335.00 L 25558189.00 27522991.75 L 25551358.00 27557335.00 A 131112.76 131112.76 0 0 1 25309114.00 27557335.00 L 25302283.50 27522994.27 L 25295453.00 27557335.00 A 131112.76 131112.76 0 0 1 25053209.00 27557335.00 L 25046378.00 27522991.75 L 25039547.00 27557335.00 A 131112.76 131112.76 0 0 1 24797303.00 27557335.00 L 24790472.50 27522994.27 L 24783642.00 27557335.00 A 131112.76 131112.76 0 0 1 24541398.00 27557335.00 L 24534567.00 27522991.75 L 24527736.00 27557335.00 A 131112.76 131112.76 0 0 1 24275513.00 27507165.00 L 24275513.00 27054409.00 A 131092.80 131092.80 0 0 1 24527736.00 27004239.00 L 24534567.00 27038582.25 L 24541398.00 27004239.00 A 131112.76 131112.76 0 0 1 24783642.00 27004239.00 L 24790472.50 27038579.73 L 24797303.00 27004239.00 A 131112.76 131112.76 0 0 1 25039547.00 27004239.00 L 25046378.00 27038582.25 L 25053209.00 27004239.00 A 131112.76 131112.76 0 0 1 25295453.00 27004239.00 L 25302283.50 27038579.73 L 25309114.00 27004239.00 A 131112.76 131112.76 0 0 1 25551358.00 27004239.00 L 25558189.00 27038582.25 L 25565020.00 27004239.00 A 131112.76 131112.76 0 0 1 25807264.00 27004239.00 L 25814094.50 27038579.73 L 25820925.00 27004239.00 A 131112.76 131112.76 0 0 1 26063169.00 27004239.00 L 26070000.00 27038582.25 L 26076831.00 27004239.00 A 131112.76 131112.76 0 0 1 26319075.00 27004239.00 L 26325905.50 27038579.73 L 26332736.00 27004239.00 A 131112.76 131112.76 0 0 1 26574980.00 27004239.00 L 26581811.00 27038582.25 L 26588642.00 27004239.00 A 131112.76 131112.76 0 0 1 26830886.00 27004239.00 L 26837716.50 27038579.73 L 26844547.00 27004239.00 A 131112.76 131112.76 0 0 1 27086791.00 27004239.00 L 27093622.00 27038582.25 L 27100453.00 27004239.00 A 131112.76 131112.76 0 0 1 27342697.00 27004239.00 L 27349527.50 27038579.73 L 27356358.00 27004239.00 A 131112.76 131112.76 0 0 1 27598602.00 27004239.00 L 27605433.00 27038582.25 L 27612264.00 27004239.00 A 131112.76 131112.76 0 0 1 27864487.00 27054409.00 L 27864487.00 27507165.00 A 131092.80 131092.80 0 0 1 27612264.00 27557335.00  zM 23456850.00 31662905.00 L 22983150.00 31662905.00 L 22983150.00 31228575.00 L 23456850.00 31228575.00 L 23456850.00 31662905.00  zM 27457008.00 30870948.00 L 27082992.00 30870948.00 L 27082992.00 30496932.00 L 27457008.00 30496932.00 L 27457008.00 30870948.00  zM 27457008.00 31363068.00 L 27082992.00 31363068.00 L 27082992.00 30989052.00 L 27457008.00 30989052.00 L 27457008.00 31363068.00  zM 28107008.00 28170948.00 L 27732992.00 28170948.00 L 27732992.00 27796932.00 L 28107008.00 27796932.00 L 28107008.00 28170948.00  zM 28107008.00 28663068.00 L 27732992.00 28663068.00 L 27732992.00 28289052.00 L 28107008.00 28289052.00 L 28107008.00 28663068.00  zM 29424330.00 24286850.00 L 28715670.00 24286850.00 L 28715670.00 23893150.00 L 29424330.00 23893150.00 L 29424330.00 24286850.00  zM 29025748.00 27151898.00 L 28414252.00 27151898.00 L 28414252.00 26619142.00 L 29025748.00 26619142.00 L 29025748.00 27151898.00  zM 29883258.00 27309553.00 L 29545182.00 27309553.00 L 29545182.00 26950447.00 L 29883258.00 26950447.00 L 29883258.00 27309553.00  zM 29025748.00 27840858.00 L 28414252.00 27840858.00 L 28414252.00 27308102.00 L 29025748.00 27308102.00 L 29025748.00 27840858.00  zM 29910948.00 27967008.00 L 29536932.00 27967008.00 L 29536932.00 27592992.00 L 29910948.00 27592992.00 L 29910948.00 27967008.00  zM 28497918.00 28768558.00 L 28497918.00 28266722.00 A 76425.40 76425.40 0 0 1 28650762.00 28266722.00 L 28650762.00 28768558.00 A 76425.40 76425.40 0 0 1 28497918.00 28768558.00  zM 28753818.00 28768558.00 L 28753818.00 28266722.00 A 76425.40 76425.40 0 0 1 28906662.00 28266722.00 L 28906662.00 28768558.00 A 76425.40 76425.40 0 0 1 28753818.00 28768558.00  zM 29009718.00 28768558.00 L 29009718.00 28266722.00 A 76425.40 76425.40 0 0 1 29162562.00 28266722.00 L 29162562.00 28768558.00 A 76425.40 76425.40 0 0 1 29009718.00 28768558.00  zM 29265618.00 28768558.00 L 29265618.00 28266722.00 A 76425.40 76425.40 0 0 1 29418462.00 28266722.00 L 29418462.00 28768558.00 A 76425.40 76425.40 0 0 1 29265618.00 28768558.00  zM 30033338.00 28768558.00 L 30033338.00 28266722.00 A 76425.40 76425.40 0 0 1 30186182.00 28266722.00 L 30186182.00 28768558.00 A 76425.40 76425.40 0 0 1 30033338.00 28768558.00  zM 29521538.00 28768558.00 L 29521538.00 28266722.00 A 76425.40 76425.40 0 0 1 29674382.00 28266722.00 L 29674382.00 28768558.00 A 76425.40 76425.40 0 0 1 29521538.00 28768558.00  zM 29777438.00 28768558.00 L 29777438.00 28266722.00 A 76425.40 76425.40 0 0 1 29930282.00 28266722.00 L 29930282.00 28768558.00 A 76425.40 76425.40 0 0 1 29777438.00 28768558.00  zM 28497918.00 30993278.00 L 28497918.00 30491442.00 A 76425.40 76425.40 0 1 1 28650762.00 30491442.00 L 28650762.00 30993278.00 A 76425.40 76425.40 0 1 1 28497918.00 30993278.00  zM 28753818.00 30993278.00 L 28753818.00 30491442.00 A 76425.40 76425.40 0 1 1 28906662.00 30491442.00 L 28906662.00 30993278.00 A 76425.40 76425.40 0 1 1 28753818.00 30993278.00  zM 29009718.00 30993278.00 L 29009718.00 30491442.00 A 76425.40 76425.40 0 0 1 29162562.00 30491442.00 L 29162562.00 30993278.00 A 76425.40 76425.40 0 0 1 29009718.00 30993278.00  zM 29265618.00 30993278.00 L 29265618.00 30491442.00 A 76425.40 76425.40 0 1 1 29418462.00 30491442.00 L 29418462.00 30993278.00 A 76425.40 76425.40 0 1 1 29265618.00 30993278.00  zM 29010948.00 31617008.00 L 28636932.00 31617008.00 L 28636932.00 31242992.00 L 29010948.00 31242992.00 L 29010948.00 31617008.00  zM 29503068.00 31617008.00 L 29129052.00 31617008.00 L 29129052.00 31242992.00 L 29503068.00 31242992.00 L 29503068.00 31617008.00  zM 29521538.00 30993278.00 L 29521538.00 30491442.00 A 76425.40 76425.40 0 0 1 29674382.00 30491442.00 L 29674382.00 30993278.00 A 76425.40 76425.40 0 0 1 29521538.00 30993278.00  zM 29777438.00 30993278.00 L 29777438.00 30491442.00 A 76425.40 76425.40 0 1 1 29930282.00 30491442.00 L 29930282.00 30993278.00 A 76425.40 76425.40 0 1 1 29777438.00 30993278.00  zM 32416535.00 24331263.00 L 31903465.00 24331263.00 L 31903465.00 23759137.00 L 32416535.00 23759137.00 L 32416535.00 24331263.00  zM 32416535.00 24980863.00 L 31903465.00 24980863.00 L 31903465.00 24408737.00 L 32416535.00 24408737.00 L 32416535.00 24980863.00  zM 33202510.00 24286535.00 L 32728810.00 24286535.00 L 32728810.00 23773465.00 L 33202510.00 23773465.00 L 33202510.00 24286535.00  zM 33157008.00 24920948.00 L 32782992.00 24920948.00 L 32782992.00 24546932.00 L 33157008.00 24546932.00 L 33157008.00 24920948.00  zM 33157008.00 25413068.00 L 32782992.00 25413068.00 L 32782992.00 25039052.00 L 33157008.00 25039052.00 L 33157008.00 25413068.00  zM 31198645.00 25629743.00 L 30920257.00 25351355.00 L 31421355.00 24850257.00 L 31699743.00 25128645.00 L 31198645.00 25629743.00  zM 31456850.00 26181425.00 L 30983150.00 26181425.00 L 30983150.00 25747095.00 L 31456850.00 25747095.00 L 31456850.00 26181425.00  zM 32006850.00 26181425.00 L 31533150.00 26181425.00 L 31533150.00 25747095.00 L 32006850.00 25747095.00 L 32006850.00 26181425.00  zM 32507008.00 26170948.00 L 32132992.00 26170948.00 L 32132992.00 25796932.00 L 32507008.00 25796932.00 L 32507008.00 26170948.00  zM 33057008.00 26170948.00 L 32682992.00 26170948.00 L 32682992.00 25796932.00 L 33057008.00 25796932.00 L 33057008.00 26170948.00  zM 30494838.00 27309553.00 L 30156762.00 27309553.00 L 30156762.00 26950447.00 L 30494838.00 26950447.00 L 30494838.00 27309553.00  zM 31456850.00 26712905.00 L 30983150.00 26712905.00 L 30983150.00 26278575.00 L 31456850.00 26278575.00 L 31456850.00 26712905.00  zM 32006850.00 26712905.00 L 31533150.00 26712905.00 L 31533150.00 26278575.00 L 32006850.00 26278575.00 L 32006850.00 26712905.00  zM 30403068.00 27967008.00 L 30029052.00 27967008.00 L 30029052.00 27592992.00 L 30403068.00 27592992.00 L 30403068.00 27967008.00  zM 30289238.00 28768558.00 L 30289238.00 28266722.00 A 76425.40 76425.40 0 0 1 30442082.00 28266722.00 L 30442082.00 28768558.00 A 76425.40 76425.40 0 0 1 30289238.00 28768558.00  zM 32507008.00 26663068.00 L 32132992.00 26663068.00 L 32132992.00 26289052.00 L 32507008.00 26289052.00 L 32507008.00 26663068.00  zM 33057008.00 26663068.00 L 32682992.00 26663068.00 L 32682992.00 26289052.00 L 33057008.00 26289052.00 L 33057008.00 26663068.00  zM 33110948.00 28787008.00 L 32736932.00 28787008.00 L 32736932.00 28412992.00 L 33110948.00 28412992.00 L 33110948.00 28787008.00  zM 32530620.00 29167393.00 L 32530620.00 28911487.00 A 90956.37 90956.37 0 0 1 32712540.00 28911487.00 L 32712540.00 29167393.00 A 90956.37 90956.37 0 0 1 32530620.00 29167393.00  zM 32333760.00 29167393.00 L 32333760.00 28911487.00 A 90956.37 90956.37 0 0 1 32515680.00 28911487.00 L 32515680.00 29167393.00 A 90956.37 90956.37 0 0 1 32333760.00 29167393.00  zM 30999553.00 29487458.00 L 30640447.00 29487458.00 L 30640447.00 29149382.00 L 30999553.00 29149382.00 L 30999553.00 29487458.00  zM 30999553.00 30099038.00 L 30640447.00 30099038.00 L 30640447.00 29760962.00 L 30999553.00 29760962.00 L 30999553.00 30099038.00  zM 31576535.00 30221190.00 L 31063465.00 30221190.00 L 31063465.00 29747490.00 L 31576535.00 29747490.00 L 31576535.00 30221190.00  zM 30440614.00 31068232.00 L 30290706.00 31068232.00 L 30290706.00 30416488.00 L 30440614.00 30416488.00 L 30440614.00 31068232.00  zM 30033338.00 30993278.00 L 30033338.00 30491442.00 A 76425.40 76425.40 0 0 1 30186182.00 30491442.00 L 30186182.00 30993278.00 A 76425.40 76425.40 0 0 1 30033338.00 30993278.00  zM 31576535.00 29512510.00 L 31063465.00 29512510.00 L 31063465.00 29038810.00 L 31576535.00 29038810.00 L 31576535.00 29512510.00  zM 32257393.00 29425680.00 L 32001487.00 29425680.00 A 90956.37 90956.37 0 0 1 32001487.00 29243760.00 L 32257393.00 29243760.00 A 90956.37 90956.37 0 0 1 32257393.00 29425680.00  zM 32257393.00 29622540.00 L 32001487.00 29622540.00 A 90956.37 90956.37 0 0 1 32001487.00 29440620.00 L 32257393.00 29440620.00 A 90956.37 90956.37 0 0 1 32257393.00 29622540.00  zM 32257393.00 29819380.00 L 32001487.00 29819380.00 A 90956.37 90956.37 0 0 1 32001487.00 29637460.00 L 32257393.00 29637460.00 A 90956.37 90956.37 0 0 1 32257393.00 29819380.00  zM 32257393.00 30016240.00 L 32001487.00 30016240.00 A 90956.37 90956.37 0 0 1 32001487.00 29834320.00 L 32257393.00 29834320.00 A 90956.37 90956.37 0 0 1 32257393.00 30016240.00  zM 32727460.00 29167393.00 L 32727460.00 28911487.00 A 90956.37 90956.37 0 0 1 32909380.00 28911487.00 L 32909380.00 29167393.00 A 90956.37 90956.37 0 0 1 32727460.00 29167393.00  zM 32924320.00 29167393.00 L 32924320.00 28911487.00 A 90956.37 90956.37 0 0 1 33106240.00 28911487.00 L 33106240.00 29167393.00 A 90956.37 90956.37 0 0 1 32924320.00 29167393.00  zM 33090708.00 30000708.00 L 32349292.00 30000708.00 L 32349292.00 29259292.00 L 33090708.00 29259292.00 L 33090708.00 30000708.00  zM 32333760.00 30348513.00 L 32333760.00 30092607.00 A 90956.37 90956.37 0 0 1 32515680.00 30092607.00 L 32515680.00 30348513.00 A 90956.37 90956.37 0 0 1 32333760.00 30348513.00  zM 32727460.00 30348513.00 L 32727460.00 30092607.00 A 90956.37 90956.37 0 0 1 32909380.00 30092607.00 L 32909380.00 30348513.00 A 90956.37 90956.37 0 0 1 32727460.00 30348513.00  zM 32530620.00 30348513.00 L 32530620.00 30092607.00 A 90956.37 90956.37 0 0 1 32712540.00 30092607.00 L 32712540.00 30348513.00 A 90956.37 90956.37 0 0 1 32530620.00 30348513.00  zM 32924320.00 30348513.00 L 32924320.00 30092607.00 A 90956.37 90956.37 0 0 1 33106240.00 30092607.00 L 33106240.00 30348513.00 A 90956.37 90956.37 0 0 1 32924320.00 30348513.00  zM 33110948.00 30847008.00 L 32736932.00 30847008.00 L 32736932.00 30472992.00 L 33110948.00 30472992.00 L 33110948.00 30847008.00  zM 33399553.00 31443258.00 L 33040447.00 31443258.00 L 33040447.00 31105182.00 L 33399553.00 31105182.00 L 33399553.00 31443258.00  zM 33911190.00 24286535.00 L 33437490.00 24286535.00 L 33437490.00 23773465.00 L 33911190.00 23773465.00 L 33911190.00 24286535.00  zM 33668652.00 25074715.00 L 33490228.00 25074715.00 L 33490228.00 24719125.00 L 33668652.00 24719125.00 L 33668652.00 25074715.00  zM 34062372.00 25074715.00 L 33883948.00 25074715.00 L 33883948.00 24719125.00 L 34062372.00 24719125.00 L 34062372.00 25074715.00  zM 34791898.00 24495748.00 L 34259142.00 24495748.00 L 34259142.00 23884252.00 L 34791898.00 23884252.00 L 34791898.00 24495748.00  zM 34259212.00 25074715.00 L 34080788.00 25074715.00 L 34080788.00 24719125.00 L 34259212.00 24719125.00 L 34259212.00 25074715.00  zM 34456072.00 25074715.00 L 34277648.00 25074715.00 L 34277648.00 24719125.00 L 34456072.00 24719125.00 L 34456072.00 25074715.00  zM 33960010.00 25812903.00 L 33458750.00 25812903.00 L 33458750.00 25083297.00 L 33687088.00 25083297.00 L 33687088.00 24719125.00 L 33865512.00 24719125.00 L 33865512.00 25083297.00 L 33960010.00 25083297.00 L 33960010.00 25812903.00  zM 34652912.00 25074715.00 L 34474488.00 25074715.00 L 34474488.00 24719125.00 L 34652912.00 24719125.00 L 34652912.00 25074715.00  zM 33668652.00 26177095.00 L 33490228.00 26177095.00 L 33490228.00 25821505.00 L 33668652.00 25821505.00 L 33668652.00 26177095.00  zM 34259212.00 26177095.00 L 34080788.00 26177095.00 L 34080787.00 25083297.00 L 34861573.00 25083297.00 L 34861573.00 25812903.00 L 34259212.00 25812903.00 L 34259212.00 26177095.00  zM 33865512.00 26177095.00 L 33687088.00 26177095.00 L 33687088.00 25821505.00 L 33865512.00 25821505.00 L 33865512.00 26177095.00  zM 34062372.00 26177095.00 L 33883948.00 26177095.00 L 33883948.00 25821505.00 L 34062372.00 25821505.00 L 34062372.00 26177095.00  zM 34153068.00 26767008.00 L 33779052.00 26767008.00 L 33779052.00 26392992.00 L 34153068.00 26392992.00 L 34153068.00 26767008.00  zM 34456072.00 26177095.00 L 34277648.00 26177095.00 L 34277648.00 25821505.00 L 34456072.00 25821505.00 L 34456072.00 26177095.00  zM 34652912.00 26177095.00 L 34474488.00 26177095.00 L 34474488.00 25821505.00 L 34652912.00 25821505.00 L 34652912.00 26177095.00  zM 33660948.00 26767008.00 L 33286932.00 26767008.00 L 33286932.00 26392992.00 L 33660948.00 26392992.00 L 33660948.00 26767008.00  zM 33671425.00 27416850.00 L 33237095.00 27416850.00 L 33237095.00 26943150.00 L 33671425.00 26943150.00 L 33671425.00 27416850.00  zM 34202905.00 27416850.00 L 33768575.00 27416850.00 L 33768575.00 26943150.00 L 34202905.00 26943150.00 L 34202905.00 27416850.00  zM 34660948.00 26817008.00 L 34286932.00 26817008.00 L 34286932.00 26442992.00 L 34660948.00 26442992.00 L 34660948.00 26817008.00  zM 34981263.00 27686535.00 L 34409137.00 27686535.00 L 34409137.00 27173465.00 L 34981263.00 27173465.00 L 34981263.00 27686535.00  zM 35480858.00 24495748.00 L 34948102.00 24495748.00 L 34948102.00 23884252.00 L 35480858.00 23884252.00 L 35480858.00 24495748.00  zM 36106850.00 25081425.00 L 35633150.00 25081425.00 L 35633150.00 24647095.00 L 36106850.00 24647095.00 L 36106850.00 25081425.00  zM 35507008.00 25070948.00 L 35132992.00 25070948.00 L 35132992.00 24696932.00 L 35507008.00 24696932.00 L 35507008.00 25070948.00  zM 34849772.00 25074715.00 L 34671348.00 25074715.00 L 34671348.00 24719125.00 L 34849772.00 24719125.00 L 34849772.00 25074715.00  zM 35507008.00 25563068.00 L 35132992.00 25563068.00 L 35132992.00 25189052.00 L 35507008.00 25189052.00 L 35507008.00 25563068.00  zM 34849772.00 26177095.00 L 34671348.00 26177095.00 L 34671348.00 25821505.00 L 34849772.00 25821505.00 L 34849772.00 26177095.00  zM 35857008.00 26270948.00 L 35482992.00 26270948.00 L 35482992.00 25896932.00 L 35857008.00 25896932.00 L 35857008.00 26270948.00  zM 35857008.00 26763068.00 L 35482992.00 26763068.00 L 35482992.00 26389052.00 L 35857008.00 26389052.00 L 35857008.00 26763068.00  zM 35153068.00 26817008.00 L 34779052.00 26817008.00 L 34779052.00 26442992.00 L 35153068.00 26442992.00 L 35153068.00 26817008.00  zM 35630863.00 27686535.00 L 35058737.00 27686535.00 L 35058737.00 27173465.00 L 35630863.00 27173465.00 L 35630863.00 27686535.00  zM 36106850.00 25612905.00 L 35633150.00 25612905.00 L 35633150.00 25178575.00 L 36106850.00 25178575.00 L 36106850.00 25612905.00  zM 36407008.00 26270948.00 L 36032992.00 26270948.00 L 36032992.00 25896932.00 L 36407008.00 25896932.00 L 36407008.00 26270948.00  zM 36407008.00 26763068.00 L 36032992.00 26763068.00 L 36032992.00 26389052.00 L 36407008.00 26389052.00 L 36407008.00 26763068.00  zM 36356850.00 27431425.00 L 35883150.00 27431425.00 L 35883150.00 26997095.00 L 36356850.00 26997095.00 L 36356850.00 27431425.00  zM 36356850.00 27962905.00 L 35883150.00 27962905.00 L 35883150.00 27528575.00 L 36356850.00 27528575.00 L 36356850.00 27962905.00  zM 37106850.00 26281425.00 L 36633150.00 26281425.00 L 36633150.00 25847095.00 L 37106850.00 25847095.00 L 37106850.00 26281425.00  zM 37106850.00 26812905.00 L 36633150.00 26812905.00 L 36633150.00 26378575.00 L 37106850.00 26378575.00 L 37106850.00 26812905.00  zM 37661425.00 28286850.00 L 37227095.00 28286850.00 L 37227095.00 27813150.00 L 37661425.00 27813150.00 L 37661425.00 28286850.00  zM 39671355.00 25809743.00 L 39170257.00 25308645.00 L 39448645.00 25030257.00 L 39949743.00 25531355.00 L 39671355.00 25809743.00  zM 38192905.00 28286850.00 L 37758575.00 28286850.00 L 37758575.00 27813150.00 L 38192905.00 27813150.00 L 38192905.00 28286850.00  zM 33603068.00 28787008.00 L 33229052.00 28787008.00 L 33229052.00 28412992.00 L 33603068.00 28412992.00 L 33603068.00 28787008.00  zM 34149553.00 28932390.00 L 33790447.00 28932390.00 L 33790447.00 28555170.00 L 34149553.00 28555170.00 L 34149553.00 28932390.00  zM 34149553.00 29504830.00 L 33790447.00 29504830.00 L 33790447.00 29127610.00 L 34149553.00 29127610.00 L 34149553.00 29504830.00  zM 33438513.00 29425680.00 L 33182607.00 29425680.00 A 90956.37 90956.37 0 0 1 33182607.00 29243760.00 L 33438513.00 29243760.00 A 90956.37 90956.37 0 0 1 33438513.00 29425680.00  zM 33438513.00 29622540.00 L 33182607.00 29622540.00 A 90956.37 90956.37 0 0 1 33182607.00 29440620.00 L 33438513.00 29440620.00 A 90956.37 90956.37 0 0 1 33438513.00 29622540.00  zM 34902510.00 28336535.00 L 34428810.00 28336535.00 L 34428810.00 27823465.00 L 34902510.00 27823465.00 L 34902510.00 28336535.00  zM 35611190.00 28336535.00 L 35137490.00 28336535.00 L 35137490.00 27823465.00 L 35611190.00 27823465.00 L 35611190.00 28336535.00  zM 35381805.00 29487480.00 L 35027475.00 29487480.00 L 35027475.00 29172520.00 L 35381805.00 29172520.00 L 35381805.00 29487480.00  zM 34712525.00 29487480.00 L 34358195.00 29487480.00 L 34358195.00 29172520.00 L 34712525.00 29172520.00 L 34712525.00 29487480.00  zM 35949553.00 29518610.00 L 35590447.00 29518610.00 L 35590447.00 29141390.00 L 35949553.00 29141390.00 L 35949553.00 29518610.00  zM 33438513.00 30016240.00 L 33182607.00 30016240.00 A 90956.37 90956.37 0 0 1 33182607.00 29834320.00 L 33438513.00 29834320.00 A 90956.37 90956.37 0 0 1 33438513.00 30016240.00  zM 33438513.00 29819380.00 L 33182607.00 29819380.00 A 90956.37 90956.37 0 0 1 33182607.00 29637460.00 L 33438513.00 29637460.00 A 90956.37 90956.37 0 0 1 33438513.00 29819380.00  zM 34149553.00 30082390.00 L 33790447.00 30082390.00 L 33790447.00 29705170.00 L 34149553.00 29705170.00 L 34149553.00 30082390.00  zM 33603068.00 30847008.00 L 33229052.00 30847008.00 L 33229052.00 30472992.00 L 33603068.00 30472992.00 L 33603068.00 30847008.00  zM 33899553.00 31443258.00 L 33540447.00 31443258.00 L 33540447.00 31105182.00 L 33899553.00 31105182.00 L 33899553.00 31443258.00  zM 34149553.00 30654830.00 L 33790447.00 30654830.00 L 33790447.00 30277610.00 L 34149553.00 30277610.00 L 34149553.00 30654830.00  zM 34727865.00 30037480.00 L 34373535.00 30037480.00 L 34373535.00 29722520.00 L 34727865.00 29722520.00 L 34727865.00 30037480.00  zM 35397165.00 30037480.00 L 35042835.00 30037480.00 L 35042835.00 29722520.00 L 35397165.00 29722520.00 L 35397165.00 30037480.00  zM 35486000.00 31580469.00 L 35221531.00 31316000.00 L 35486000.00 31051531.00 L 35750469.00 31316000.00 L 35486000.00 31580469.00  zM 35128161.00 31983117.00 L 34821043.00 31675999.00 L 35155999.00 31341043.00 L 35463117.00 31648161.00 L 35128161.00 31983117.00  zM 36499553.00 28932390.00 L 36140447.00 28932390.00 L 36140447.00 28555170.00 L 36499553.00 28555170.00 L 36499553.00 28932390.00  zM 36499553.00 29504830.00 L 36140447.00 29504830.00 L 36140447.00 29127610.00 L 36499553.00 29127610.00 L 36499553.00 29504830.00  zM 36499553.00 30082390.00 L 36140447.00 30082390.00 L 36140447.00 29705170.00 L 36499553.00 29705170.00 L 36499553.00 30082390.00  zM 35949553.00 30091050.00 L 35590447.00 30091050.00 L 35590447.00 29713830.00 L 35949553.00 29713830.00 L 35949553.00 30091050.00  zM 36499553.00 30654830.00 L 36140447.00 30654830.00 L 36140447.00 30277610.00 L 36499553.00 30277610.00 L 36499553.00 30654830.00  zM 37670948.00 28727008.00 L 37296932.00 28727008.00 L 37296932.00 28352992.00 L 37670948.00 28352992.00 L 37670948.00 28727008.00  zM 38163068.00 28727008.00 L 37789052.00 28727008.00 L 37789052.00 28352992.00 L 38163068.00 28352992.00 L 38163068.00 28727008.00  zM 38360195.00 30589324.00 L 38356220.00 30569339.95 L 38352245.00 30589324.00 A 80920.73 80920.73 0 0 1 38202715.00 30589324.00 L 38198740.00 30569339.95 L 38194765.00 30589324.00 A 80920.73 80920.73 0 0 1 38045235.00 30589324.00 L 38041260.00 30569339.95 L 38037285.00 30589324.00 A 80920.73 80920.73 0 0 1 37887755.00 30589324.00 L 37883780.00 30569339.95 L 37879805.00 30589324.00 A 80920.73 80920.73 0 0 1 37724115.00 30558355.00 L 37724115.00 30282765.00 A 80926.42 80926.42 0 0 1 37774071.00 30208000.00 L 37790938.04 30204645.00 L 37745355.00 30204645.00 L 37745355.00 30159061.96 L 37742000.00 30175929.00 A 80920.73 80920.73 0 0 1 37667235.00 30225885.00 L 37391645.00 30225885.00 A 80926.42 80926.42 0 0 1 37360676.00 30070195.00 L 37380660.05 30066220.00 L 37360676.00 30062245.00 A 80920.73 80920.73 0 0 1 37360676.00 29912715.00 L 37380660.05 29908740.00 L 37360676.00 29904765.00 A 80920.73 80920.73 0 0 1 37360676.00 29755235.00 L 37380660.05 29751260.00 L 37360676.00 29747285.00 A 80920.73 80920.73 0 0 1 37360676.00 29597755.00 L 37380660.05 29593780.00 L 37360676.00 29589805.00 A 80920.73 80920.73 0 0 1 37391645.00 29434115.00 L 37667235.00 29434115.00 A 80926.42 80926.42 0 0 1 37742000.00 29484071.00 L 37745355.00 29500938.04 L 37745355.00 29455355.00 L 37790938.04 29455355.00 L 37774071.00 29452000.00 A 80920.73 80920.73 0 0 1 37724115.00 29377235.00 L 37724115.00 29101645.00 A 80926.42 80926.42 0 0 1 37879805.00 29070676.00 L 37883780.00 29090660.05 L 37887755.00 29070676.00 A 80920.73 80920.73 0 0 1 38037285.00 29070676.00 L 38041260.00 29090660.05 L 38045235.00 29070676.00 A 80920.73 80920.73 0 0 1 38194765.00 29070676.00 L 38198740.00 29090660.05 L 38202715.00 29070676.00 A 80920.73 80920.73 0 0 1 38352245.00 29070676.00 L 38356220.00 29090660.05 L 38360195.00 29070676.00 A 80920.73 80920.73 0 0 1 38515885.00 29101645.00 L 38515885.00 29377235.00 A 80926.42 80926.42 0 0 1 38465929.00 29452000.00 L 38449061.96 29455355.00 L 38494645.00 29455355.00 L 38494645.00 29500938.04 L 38498000.00 29484071.00 A 80920.73 80920.73 0 0 1 38572765.00 29434115.00 L 38848355.00 29434115.00 A 80926.42 80926.42 0 0 1 38879324.00 29589805.00 L 38859339.95 29593780.00 L 38879324.00 29597755.00 A 80920.73 80920.73 0 0 1 38879324.00 29747285.00 L 38859339.95 29751260.00 L 38879324.00 29755235.00 A 80920.73 80920.73 0 0 1 38879324.00 29904765.00 L 38859339.95 29908740.00 L 38879324.00 29912715.00 A 80920.73 80920.73 0 0 1 38879324.00 30062245.00 L 38859339.95 30066220.00 L 38879324.00 30070195.00 A 80920.73 80920.73 0 0 1 38848355.00 30225885.00 L 38572765.00 30225885.00 A 80926.42 80926.42 0 0 1 38498000.00 30175929.00 L 38494645.00 30159061.96 L 38494645.00 30204645.00 L 38449061.96 30204645.00 L 38465929.00 30208000.00 A 80920.73 80920.73 0 0 1 38515885.00 30282765.00 L 38515885.00 30558355.00 A 80926.42 80926.42 0 0 1 38360195.00 30589324.00  zM 37068267.00 30120790.00 L 36771733.00 30120790.00 L 36771733.00 29804570.00 L 37068267.00 29804570.00 L 37068267.00 30120790.00  zM 37068267.00 30455430.00 L 36771733.00 30455430.00 L 36771733.00 30139210.00 L 37068267.00 30139210.00 L 37068267.00 30455430.00  zM 35818161.00 31323117.00 L 35511043.00 31015999.00 L 35845999.00 30681043.00 L 36153117.00 30988161.00 L 35818161.00 31323117.00  zM 36194001.00 31698957.00 L 35886883.00 31391839.00 L 36221839.00 31056883.00 L 36528957.00 31364001.00 L 36194001.00 31698957.00  zM 35834000.00 31928469.00 L 35569531.00 31664000.00 L 35834000.00 31399531.00 L 36098469.00 31664000.00 L 35834000.00 31928469.00  zM 36746000.00 31348469.00 L 36481531.00 31084000.00 L 36746000.00 30819531.00 L 37010469.00 31084000.00 L 36746000.00 31348469.00  zM 37094000.00 31000469.00 L 36829531.00 30736000.00 L 37094000.00 30471531.00 L 37358469.00 30736000.00 L 37094000.00 31000469.00  zM 37195999.00 31828957.00 L 36861043.00 31494001.00 L 37168161.00 31186883.00 L 37503117.00 31521839.00 L 37195999.00 31828957.00  zM 37571839.00 31453117.00 L 37236883.00 31118161.00 L 37544001.00 30811043.00 L 37878957.00 31145999.00 L 37571839.00 31453117.00  zM 38471425.00 31366850.00 L 38037095.00 31366850.00 L 38037095.00 30893150.00 L 38471425.00 30893150.00 L 38471425.00 31366850.00  zM 39002905.00 31366850.00 L 38568575.00 31366850.00 L 38568575.00 30893150.00 L 39002905.00 30893150.00 L 39002905.00 31366850.00  zM 22834805.00 34508575.00 L 22242995.00 34508575.00 L 22242995.00 31751425.00 L 22834805.00 31751425.00 L 22834805.00 34508575.00  zM 23456850.00 34981425.00 L 22983150.00 34981425.00 L 22983150.00 34547095.00 L 23456850.00 34547095.00 L 23456850.00 34981425.00  zM 27562258.00 34557328.00 L 27555430.00 34522999.83 L 27548602.00 34557328.00 A 131112.76 131112.76 0 0 1 27306358.00 34557328.00 L 27299530.00 34522999.83 L 27292702.00 34557328.00 A 131112.76 131112.76 0 0 1 27050458.00 34557328.00 L 27043620.00 34522949.56 L 27036782.00 34557328.00 A 131112.76 131112.76 0 0 1 26794538.00 34557328.00 L 26787710.00 34522999.83 L 26780882.00 34557328.00 A 131112.76 131112.76 0 0 1 26538638.00 34557328.00 L 26531810.00 34522999.83 L 26524982.00 34557328.00 A 131112.76 131112.76 0 0 1 26282738.00 34557328.00 L 26275910.00 34522999.83 L 26269082.00 34557328.00 A 131112.76 131112.76 0 0 1 26026838.00 34557328.00 L 26020000.00 34522949.56 L 26013162.00 34557328.00 A 131112.76 131112.76 0 0 1 25770918.00 34557328.00 L 25764090.00 34522999.83 L 25757262.00 34557328.00 A 131112.76 131112.76 0 0 1 25515018.00 34557328.00 L 25508190.00 34522999.83 L 25501362.00 34557328.00 A 131112.76 131112.76 0 0 1 25259118.00 34557328.00 L 25252290.00 34522999.83 L 25245462.00 34557328.00 A 131112.76 131112.76 0 0 1 25003218.00 34557328.00 L 24996380.00 34522949.56 L 24989542.00 34557328.00 A 131112.76 131112.76 0 0 1 24747298.00 34557328.00 L 24740470.00 34522999.83 L 24733642.00 34557328.00 A 131112.76 131112.76 0 0 1 24491398.00 34557328.00 L 24484570.00 34522999.83 L 24477742.00 34557328.00 A 131112.76 131112.76 0 0 1 24225519.00 34507158.00 L 24225519.00 34054402.00 A 131092.80 131092.80 0 0 1 24477742.00 34004232.00 L 24484570.00 34038560.17 L 24491398.00 34004232.00 A 131112.76 131112.76 0 0 1 24733642.00 34004232.00 L 24740470.00 34038560.17 L 24747298.00 34004232.00 A 131112.76 131112.76 0 0 1 24989542.00 34004232.00 L 24996380.00 34038610.44 L 25003218.00 34004232.00 A 131112.76 131112.76 0 0 1 25245462.00 34004232.00 L 25252290.00 34038560.17 L 25259118.00 34004232.00 A 131112.76 131112.76 0 0 1 25501362.00 34004232.00 L 25508190.00 34038560.17 L 25515018.00 34004232.00 A 131112.76 131112.76 0 0 1 25757262.00 34004232.00 L 25764090.00 34038560.17 L 25770918.00 34004232.00 A 131112.76 131112.76 0 0 1 26013162.00 34004232.00 L 26020000.00 34038610.44 L 26026838.00 34004232.00 A 131112.76 131112.76 0 0 1 26269082.00 34004232.00 L 26275910.00 34038560.17 L 26282738.00 34004232.00 A 131112.76 131112.76 0 0 1 26524982.00 34004232.00 L 26531810.00 34038560.17 L 26538638.00 34004232.00 A 131112.76 131112.76 0 0 1 26780882.00 34004232.00 L 26787710.00 34038560.17 L 26794538.00 34004232.00 A 131112.76 131112.76 0 0 1 27036782.00 34004232.00 L 27043620.00 34038610.44 L 27050458.00 34004232.00 A 131112.76 131112.76 0 0 1 27292702.00 34004232.00 L 27299530.00 34038560.17 L 27306358.00 34004232.00 A 131112.76 131112.76 0 0 1 27548602.00 34004232.00 L 27555430.00 34038560.17 L 27562258.00 34004232.00 A 131112.76 131112.76 0 0 1 27814481.00 34054402.00 L 27814481.00 34507158.00 A 131092.80 131092.80 0 0 1 27562258.00 34557328.00  zM 27562258.00 32155768.00 L 27555430.00 32121439.83 L 27548602.00 32155768.00 A 131112.76 131112.76 0 0 1 27306358.00 32155768.00 L 27299530.00 32121439.83 L 27292702.00 32155768.00 A 131112.76 131112.76 0 0 1 27050458.00 32155768.00 L 27043620.00 32121389.56 L 27036782.00 32155768.00 A 131112.76 131112.76 0 0 1 26794538.00 32155768.00 L 26787710.00 32121439.83 L 26780882.00 32155768.00 A 131112.76 131112.76 0 0 1 26538638.00 32155768.00 L 26531810.00 32121439.83 L 26524982.00 32155768.00 A 131112.76 131112.76 0 0 1 26282738.00 32155768.00 L 26275910.00 32121439.83 L 26269082.00 32155768.00 A 131112.76 131112.76 0 0 1 26026838.00 32155768.00 L 26020000.00 32121389.56 L 26013162.00 32155768.00 A 131112.76 131112.76 0 0 1 25770918.00 32155768.00 L 25764090.00 32121439.83 L 25757262.00 32155768.00 A 131112.76 131112.76 0 0 1 25515018.00 32155768.00 L 25508190.00 32121439.83 L 25501362.00 32155768.00 A 131112.76 131112.76 0 0 1 25259118.00 32155768.00 L 25252290.00 32121439.83 L 25245462.00 32155768.00 A 131112.76 131112.76 0 0 1 25003218.00 32155768.00 L 24996380.00 32121389.56 L 24989542.00 32155768.00 A 131112.76 131112.76 0 0 1 24747298.00 32155768.00 L 24740470.00 32121439.83 L 24733642.00 32155768.00 A 131112.76 131112.76 0 0 1 24491398.00 32155768.00 L 24484570.00 32121439.83 L 24477742.00 32155768.00 A 131112.76 131112.76 0 0 1 24225519.00 32105598.00 L 24225519.00 31652842.00 A 131092.80 131092.80 0 0 1 24477742.00 31602672.00 L 24484570.00 31637000.17 L 24491398.00 31602672.00 A 131112.76 131112.76 0 0 1 24733642.00 31602672.00 L 24740470.00 31637000.17 L 24747298.00 31602672.00 A 131112.76 131112.76 0 0 1 24989542.00 31602672.00 L 24996380.00 31637050.44 L 25003218.00 31602672.00 A 131112.76 131112.76 0 0 1 25245462.00 31602672.00 L 25252290.00 31637000.17 L 25259118.00 31602672.00 A 131112.76 131112.76 0 0 1 25501362.00 31602672.00 L 25508190.00 31637000.17 L 25515018.00 31602672.00 A 131112.76 131112.76 0 0 1 25757262.00 31602672.00 L 25764090.00 31637000.17 L 25770918.00 31602672.00 A 131112.76 131112.76 0 0 1 26013162.00 31602672.00 L 26020000.00 31637050.44 L 26026838.00 31602672.00 A 131112.76 131112.76 0 0 1 26269082.00 31602672.00 L 26275910.00 31637000.17 L 26282738.00 31602672.00 A 131112.76 131112.76 0 0 1 26524982.00 31602672.00 L 26531810.00 31637000.17 L 26538638.00 31602672.00 A 131112.76 131112.76 0 0 1 26780882.00 31602672.00 L 26787710.00 31637000.17 L 26794538.00 31602672.00 A 131112.76 131112.76 0 0 1 27036782.00 31602672.00 L 27043620.00 31637050.44 L 27050458.00 31602672.00 A 131112.76 131112.76 0 0 1 27292702.00 31602672.00 L 27299530.00 31637000.17 L 27306358.00 31602672.00 A 131112.76 131112.76 0 0 1 27548602.00 31602672.00 L 27555430.00 31637000.17 L 27562258.00 31602672.00 A 131112.76 131112.76 0 0 1 27814481.00 31652842.00 L 27814481.00 32105598.00 A 131092.80 131092.80 0 0 1 27562258.00 32155768.00  zM 27957008.00 35170948.00 L 27582992.00 35170948.00 L 27582992.00 34796932.00 L 27957008.00 34796932.00 L 27957008.00 35170948.00  zM 28923258.00 32549553.00 L 28585182.00 32549553.00 L 28585182.00 32190447.00 L 28923258.00 32190447.00 L 28923258.00 32549553.00  zM 29534838.00 32549553.00 L 29196762.00 32549553.00 L 29196762.00 32190447.00 L 29534838.00 32190447.00 L 29534838.00 32549553.00  zM 29544838.00 33039553.00 L 29206762.00 33039553.00 L 29206762.00 32680447.00 L 29544838.00 32680447.00 L 29544838.00 33039553.00  zM 28933258.00 33039553.00 L 28595182.00 33039553.00 L 28595182.00 32680447.00 L 28933258.00 32680447.00 L 28933258.00 33039553.00  zM 29966850.00 34762905.00 L 29493150.00 34762905.00 L 29493150.00 34328575.00 L 29966850.00 34328575.00 L 29966850.00 34762905.00  zM 31462510.00 32356535.00 L 30988810.00 32356535.00 L 30988810.00 31843465.00 L 31462510.00 31843465.00 L 31462510.00 32356535.00  zM 31531263.00 33086535.00 L 30959137.00 33086535.00 L 30959137.00 32573465.00 L 31531263.00 32573465.00 L 31531263.00 33086535.00  zM 29966850.00 34231425.00 L 29493150.00 34231425.00 L 29493150.00 33797095.00 L 29966850.00 33797095.00 L 29966850.00 34231425.00  zM 30486850.00 34231425.00 L 30013150.00 34231425.00 L 30013150.00 33797095.00 L 30486850.00 33797095.00 L 30486850.00 34231425.00  zM 30957008.00 34250948.00 L 30582992.00 34250948.00 L 30582992.00 33876932.00 L 30957008.00 33876932.00 L 30957008.00 34250948.00  zM 30486850.00 34762905.00 L 30013150.00 34762905.00 L 30013150.00 34328575.00 L 30486850.00 34328575.00 L 30486850.00 34762905.00  zM 31006850.00 35181425.00 L 30533150.00 35181425.00 L 30533150.00 34747095.00 L 31006850.00 34747095.00 L 31006850.00 35181425.00  zM 30957008.00 34743068.00 L 30582992.00 34743068.00 L 30582992.00 34369052.00 L 30957008.00 34369052.00 L 30957008.00 34743068.00  zM 31507008.00 34753068.00 L 31132992.00 34753068.00 L 31132992.00 34379052.00 L 31507008.00 34379052.00 L 31507008.00 34753068.00  zM 31507008.00 35170948.00 L 31132992.00 35170948.00 L 31132992.00 34796932.00 L 31507008.00 34796932.00 L 31507008.00 35170948.00  zM 32171190.00 32356535.00 L 31697490.00 32356535.00 L 31697490.00 31843465.00 L 32171190.00 31843465.00 L 32171190.00 32356535.00  zM 32180863.00 33086535.00 L 31608737.00 33086535.00 L 31608737.00 32573465.00 L 32180863.00 32573465.00 L 32180863.00 33086535.00  zM 32821425.00 33316850.00 L 32387095.00 33316850.00 L 32387095.00 32843150.00 L 32821425.00 32843150.00 L 32821425.00 33316850.00  zM 31710948.00 33667008.00 L 31336932.00 33667008.00 L 31336932.00 33292992.00 L 31710948.00 33292992.00 L 31710948.00 33667008.00  zM 32203068.00 33667008.00 L 31829052.00 33667008.00 L 31829052.00 33292992.00 L 32203068.00 33292992.00 L 32203068.00 33667008.00  zM 33399553.00 32054838.00 L 33040447.00 32054838.00 L 33040447.00 31716762.00 L 33399553.00 31716762.00 L 33399553.00 32054838.00  zM 33352905.00 33316850.00 L 32918575.00 33316850.00 L 32918575.00 32843150.00 L 33352905.00 32843150.00 L 33352905.00 33316850.00  zM 33303068.00 33867008.00 L 32929052.00 33867008.00 L 32929052.00 33492992.00 L 33303068.00 33492992.00 L 33303068.00 33867008.00  zM 32810948.00 33867008.00 L 32436932.00 33867008.00 L 32436932.00 33492992.00 L 32810948.00 33492992.00 L 32810948.00 33867008.00  zM 33907008.00 33920948.00 L 33532992.00 33920948.00 L 33532992.00 33546932.00 L 33907008.00 33546932.00 L 33907008.00 33920948.00  zM 31507008.00 34260948.00 L 31132992.00 34260948.00 L 31132992.00 33886932.00 L 31507008.00 33886932.00 L 31507008.00 34260948.00  zM 31968652.00 34488515.00 L 31790228.00 34488515.00 L 31790228.00 34132925.00 L 31968652.00 34132925.00 L 31968652.00 34488515.00  zM 32165512.00 34488515.00 L 31987088.00 34488515.00 L 31987088.00 34132925.00 L 32165512.00 34132925.00 L 32165512.00 34488515.00  zM 32362372.00 34488515.00 L 32183948.00 34488515.00 L 32183948.00 34132925.00 L 32362372.00 34132925.00 L 32362372.00 34488515.00  zM 32559213.00 35226703.00 L 31778427.00 35226703.00 L 31778427.00 34497097.00 L 32380788.00 34497097.00 L 32380788.00 34132925.00 L 32559212.00 34132925.00 L 32559213.00 34497097.00 L 32559213.00 35226703.00  zM 32756072.00 34488515.00 L 32577648.00 34488515.00 L 32577648.00 34132925.00 L 32756072.00 34132925.00 L 32756072.00 34488515.00  zM 32952912.00 34488515.00 L 32774488.00 34488515.00 L 32774488.00 34132925.00 L 32952912.00 34132925.00 L 32952912.00 34488515.00  zM 33149772.00 34488515.00 L 32971348.00 34488515.00 L 32971348.00 34132925.00 L 33149772.00 34132925.00 L 33149772.00 34488515.00  zM 33907008.00 34413068.00 L 33532992.00 34413068.00 L 33532992.00 34039052.00 L 33907008.00 34039052.00 L 33907008.00 34413068.00  zM 33807008.00 35020948.00 L 33432992.00 35020948.00 L 33432992.00 34646932.00 L 33807008.00 34646932.00 L 33807008.00 35020948.00  zM 21850550.00 35551881.00 L 21061890.00 35551881.00 L 21061890.00 34684479.00 L 21850550.00 34684479.00 L 21850550.00 35551881.00  zM 23456850.00 35512905.00 L 22983150.00 35512905.00 L 22983150.00 35078575.00 L 23456850.00 35078575.00 L 23456850.00 35512905.00  zM 25984330.00 36246850.00 L 25275670.00 36246850.00 L 25275670.00 35853150.00 L 25984330.00 35853150.00 L 25984330.00 36246850.00  zM 26956850.00 35804330.00 L 26563150.00 35804330.00 L 26563150.00 35095670.00 L 26956850.00 35095670.00 L 26956850.00 35804330.00  zM 27957008.00 35663068.00 L 27582992.00 35663068.00 L 27582992.00 35289052.00 L 27957008.00 35289052.00 L 27957008.00 35663068.00  zM 28478645.00 36189743.00 L 28200257.00 35911355.00 L 28701355.00 35410257.00 L 28979743.00 35688645.00 L 28478645.00 36189743.00  zM 31006850.00 35712905.00 L 30533150.00 35712905.00 L 30533150.00 35278575.00 L 31006850.00 35278575.00 L 31006850.00 35712905.00  zM 31507008.00 35663068.00 L 31132992.00 35663068.00 L 31132992.00 35289052.00 L 31507008.00 35289052.00 L 31507008.00 35663068.00  zM 31968652.00 35590875.00 L 31790228.00 35590875.00 L 31790228.00 35235285.00 L 31968652.00 35235285.00 L 31968652.00 35590875.00  zM 31941898.00 36485748.00 L 31409142.00 36485748.00 L 31409142.00 35874252.00 L 31941898.00 35874252.00 L 31941898.00 36485748.00  zM 32362372.00 35590875.00 L 32183948.00 35590875.00 L 32183948.00 35235285.00 L 32362372.00 35235285.00 L 32362372.00 35590875.00  zM 32559212.00 35590875.00 L 32380788.00 35590875.00 L 32380788.00 35235285.00 L 32559212.00 35235285.00 L 32559212.00 35590875.00  zM 32756072.00 35590875.00 L 32577648.00 35590875.00 L 32577648.00 35235285.00 L 32756072.00 35235285.00 L 32756072.00 35590875.00  zM 32952912.00 35590875.00 L 32774488.00 35590875.00 L 32774488.00 35226703.00 L 32680010.00 35226703.00 L 32680010.00 34497097.00 L 33181270.00 34497097.00 L 33181270.00 35226703.00 L 32952912.00 35226703.00 L 32952912.00 35590875.00  zM 33807008.00 35513068.00 L 33432992.00 35513068.00 L 33432992.00 35139052.00 L 33807008.00 35139052.00 L 33807008.00 35513068.00  zM 32165512.00 35590875.00 L 31987088.00 35590875.00 L 31987088.00 35235285.00 L 32165512.00 35235285.00 L 32165512.00 35590875.00  zM 33149772.00 35590875.00 L 32971348.00 35590875.00 L 32971348.00 35235285.00 L 33149772.00 35235285.00 L 33149772.00 35590875.00  zM 33581263.00 36286535.00 L 33009137.00 36286535.00 L 33009137.00 35773465.00 L 33581263.00 35773465.00 L 33581263.00 36286535.00  zM 32630858.00 36485748.00 L 32098102.00 36485748.00 L 32098102.00 35874252.00 L 32630858.00 35874252.00 L 32630858.00 36485748.00  zM 33502510.00 36986535.00 L 33028810.00 36986535.00 L 33028810.00 36473465.00 L 33502510.00 36473465.00 L 33502510.00 36986535.00  zM 18848504.38 40640597.59 m -930321.41 0 a 930321.41 930321.41 0 1 1 1860642.83 0a 930321.41 930321.41 0 1 1 -1860642.83 0M 27426850.00 42304330.00 L 27033150.00 42304330.00 L 27033150.00 41595670.00 L 27426850.00 41595670.00 L 27426850.00 42304330.00  zM 27696850.00 38044330.00 L 27303150.00 38044330.00 L 27303150.00 37335670.00 L 27696850.00 37335670.00 L 27696850.00 38044330.00  zM 29616850.00 37584330.00 L 29223150.00 37584330.00 L 29223150.00 36875670.00 L 29616850.00 36875670.00 L 29616850.00 37584330.00  zM 29616850.00 40104330.00 L 29223150.00 40104330.00 L 29223150.00 39395670.00 L 29616850.00 39395670.00 L 29616850.00 40104330.00  zM 29626850.00 39184330.00 L 29233150.00 39184330.00 L 29233150.00 38475670.00 L 29626850.00 38475670.00 L 29626850.00 39184330.00  zM 30976850.00 38474330.00 L 30583150.00 38474330.00 L 30583150.00 37765670.00 L 30976850.00 37765670.00 L 30976850.00 38474330.00  zM 29626850.00 41174330.00 L 29233150.00 41174330.00 L 29233150.00 40465670.00 L 29626850.00 40465670.00 L 29626850.00 41174330.00  zM 30074330.00 42746850.00 L 29365670.00 42746850.00 L 29365670.00 42353150.00 L 30074330.00 42353150.00 L 30074330.00 42746850.00  zM 29980047.38 46783201.59 m -930321.41 0 a 930321.41 930321.41 0 1 1 1860642.83 0a 930321.41 930321.41 0 1 1 -1860642.83 0M 31006850.00 39404330.00 L 30613150.00 39404330.00 L 30613150.00 38695670.00 L 31006850.00 38695670.00 L 31006850.00 39404330.00  zM 32391355.00 39199743.00 L 31890257.00 38698645.00 L 32168645.00 38420257.00 L 32669743.00 38921355.00 L 32391355.00 39199743.00  zM 33301355.00 38529743.00 L 32800257.00 38028645.00 L 33078645.00 37750257.00 L 33579743.00 38251355.00 L 33301355.00 38529743.00  zM 33125000.00 44100000.00 L 32735000.00 44100000.00 L 32735000.00 43270000.00 L 33125000.00 43270000.00 L 33125000.00 44100000.00  zM 33125000.00 45950000.00 L 32735000.00 45950000.00 L 32735000.00 45120000.00 L 33125000.00 45120000.00 L 33125000.00 45950000.00  zM 32031864.00 46936968.00 L 31616654.00 46936968.00 L 31616654.00 46403032.00 L 32031864.00 46403032.00 L 32031864.00 46936968.00  zM 32603346.00 46936968.00 L 32188136.00 46936968.00 L 32188136.00 46403032.00 L 32603346.00 46403032.00 L 32603346.00 46936968.00  zM 32062205.00 47577165.00 L 31706615.00 47577165.00 L 31706615.00 47142835.00 L 32062205.00 47142835.00 L 32062205.00 47577165.00  zM 32613386.00 47577165.00 L 32257796.00 47577165.00 L 32257796.00 47142835.00 L 32613386.00 47142835.00 L 32613386.00 47577165.00  zM 33899553.00 32054838.00 L 33540447.00 32054838.00 L 33540447.00 31716762.00 L 33899553.00 31716762.00 L 33899553.00 32054838.00  zM 34956850.00 33931425.00 L 34483150.00 33931425.00 L 34483150.00 33497095.00 L 34956850.00 33497095.00 L 34956850.00 33931425.00  zM 34407008.00 33920948.00 L 34032992.00 33920948.00 L 34032992.00 33546932.00 L 34407008.00 33546932.00 L 34407008.00 33920948.00  zM 34407008.00 34413068.00 L 34032992.00 34413068.00 L 34032992.00 34039052.00 L 34407008.00 34039052.00 L 34407008.00 34413068.00  zM 34956850.00 34462905.00 L 34483150.00 34462905.00 L 34483150.00 34028575.00 L 34956850.00 34028575.00 L 34956850.00 34462905.00  zM 35504001.00 32358957.00 L 35196883.00 32051839.00 L 35531839.00 31716883.00 L 35838957.00 32024001.00 L 35504001.00 32358957.00  zM 36421355.00 32519743.00 L 35920257.00 32018645.00 L 36198645.00 31740257.00 L 36699743.00 32241355.00 L 36421355.00 32519743.00  zM 35506850.00 33931425.00 L 35033150.00 33931425.00 L 35033150.00 33497095.00 L 35506850.00 33497095.00 L 35506850.00 33931425.00  zM 35506850.00 34462905.00 L 35033150.00 34462905.00 L 35033150.00 34028575.00 L 35506850.00 34028575.00 L 35506850.00 34462905.00  zM 36371425.00 34076850.00 L 35937095.00 34076850.00 L 35937095.00 33603150.00 L 36371425.00 33603150.00 L 36371425.00 34076850.00  zM 34230863.00 36286535.00 L 33658737.00 36286535.00 L 33658737.00 35773465.00 L 34230863.00 35773465.00 L 34230863.00 36286535.00  zM 34211190.00 36986535.00 L 33737490.00 36986535.00 L 33737490.00 36473465.00 L 34211190.00 36473465.00 L 34211190.00 36986535.00  zM 36769764.00 36503228.00 L 35410236.00 36503228.00 L 35410236.00 35576772.00 L 36769764.00 35576772.00 L 36769764.00 36503228.00  zM 36371425.00 34666850.00 L 35937095.00 34666850.00 L 35937095.00 34193150.00 L 36371425.00 34193150.00 L 36371425.00 34666850.00  zM 36370948.00 35217008.00 L 35996932.00 35217008.00 L 35996932.00 34842992.00 L 36370948.00 34842992.00 L 36370948.00 35217008.00  zM 35411488.00 38786688.00 L 34957472.00 38786688.00 L 34957472.00 37860232.00 L 35411488.00 37860232.00 L 35411488.00 38786688.00  zM 34881425.00 39406850.00 L 34447095.00 39406850.00 L 34447095.00 38933150.00 L 34881425.00 38933150.00 L 34881425.00 39406850.00  zM 35412905.00 39406850.00 L 34978575.00 39406850.00 L 34978575.00 38933150.00 L 35412905.00 38933150.00 L 35412905.00 39406850.00  zM 36317008.00 38786688.00 L 35862992.00 38786688.00 L 35862992.00 37860232.00 L 36317008.00 37860232.00 L 36317008.00 38786688.00  zM 36522510.00 39588275.00 L 36048810.00 39588275.00 L 36048810.00 39075205.00 L 36522510.00 39075205.00 L 36522510.00 39588275.00  zM 38191898.00 32185748.00 L 37659142.00 32185748.00 L 37659142.00 31574252.00 L 38191898.00 31574252.00 L 38191898.00 32185748.00  zM 38880858.00 32185748.00 L 38348102.00 32185748.00 L 38348102.00 31574252.00 L 38880858.00 31574252.00 L 38880858.00 32185748.00  zM 36902905.00 34076850.00 L 36468575.00 34076850.00 L 36468575.00 33603150.00 L 36902905.00 33603150.00 L 36902905.00 34076850.00  zM 36902905.00 34666850.00 L 36468575.00 34666850.00 L 36468575.00 34193150.00 L 36902905.00 34193150.00 L 36902905.00 34666850.00  zM 37749052.00 35370708.00 L 37070628.00 35370708.00 L 37070628.00 34629292.00 L 37749052.00 34629292.00 L 37749052.00 35370708.00  zM 36863068.00 35217008.00 L 36489052.00 35217008.00 L 36489052.00 34842992.00 L 36863068.00 34842992.00 L 36863068.00 35217008.00  zM 37931425.00 37946850.00 L 37497095.00 37946850.00 L 37497095.00 37473150.00 L 37931425.00 37473150.00 L 37931425.00 37946850.00  zM 38462905.00 37946850.00 L 38028575.00 37946850.00 L 38028575.00 37473150.00 L 38462905.00 37473150.00 L 38462905.00 37946850.00  zM 39229372.00 35370708.00 L 38550948.00 35370708.00 L 38550948.00 34629292.00 L 39229372.00 34629292.00 L 39229372.00 35370708.00  zM 39498645.00 37929743.00 L 39220257.00 37651355.00 L 39721355.00 37150257.00 L 39999743.00 37428645.00 L 39498645.00 37929743.00  zM 37222528.00 38786688.00 L 36768512.00 38786688.00 L 36768512.00 37860232.00 L 37222528.00 37860232.00 L 37222528.00 38786688.00  zM 38051263.00 38606535.00 L 37479137.00 38606535.00 L 37479137.00 38093465.00 L 38051263.00 38093465.00 L 38051263.00 38606535.00  zM 37231190.00 39588275.00 L 36757490.00 39588275.00 L 36757490.00 39075205.00 L 37231190.00 39075205.00 L 37231190.00 39588275.00  zM 38700863.00 38606535.00 L 38128737.00 38606535.00 L 38128737.00 38093465.00 L 38700863.00 38093465.00 L 38700863.00 38606535.00  zM 39636225.00 39658655.00 L 39281895.00 39658655.00 L 39281895.00 39540545.00 L 39636225.00 39540545.00 L 39636225.00 39658655.00  zM 39679521.00 39264958.32 m -130461.68 0 a 130461.68 130461.68 0 1 1 260923.35 0a 130461.68 130461.68 0 1 1 -260923.35 0M 39935441.00 39579918.32 m -130461.68 0 a 130461.68 130461.68 0 1 1 260923.35 0a 130461.68 130461.68 0 1 1 -260923.35 0M 40289770.00 39236936.00 L 40053550.00 39236936.00 A 180637.35 180637.35 0 0 1 40053550.00 38875664.00 L 40289770.00 38875664.00 A 180637.35 180637.35 0 0 1 40289770.00 39236936.00  zM 40211021.00 39737398.32 m -130461.68 0 a 130461.68 130461.68 0 1 1 260923.35 0a 130461.68 130461.68 0 1 1 -260923.35 0M 42018110.00 39095196.00 L 41781890.00 39095196.00 A 180637.35 180637.35 0 1 1 41781890.00 38733924.00 L 42018110.00 38733924.00 A 180637.35 180637.35 0 0 1 42018110.00 39095196.00  zM 39636225.00 39855515.00 L 39281895.00 39855515.00 L 39281895.00 39737405.00 L 39636225.00 39737405.00 L 39636225.00 39855515.00  zM 39636225.00 40052355.00 L 39281895.00 40052355.00 L 39281895.00 39934245.00 L 39636225.00 39934245.00 L 39636225.00 40052355.00  zM 39636225.00 40249215.00 L 39281895.00 40249215.00 L 39281895.00 40131105.00 L 39636225.00 40131105.00 L 39636225.00 40249215.00  zM 39935441.00 40209838.32 m -130461.68 0 a 130461.68 130461.68 0 1 1 260923.35 0a 130461.68 130461.68 0 1 1 -260923.35 0M 40211021.00 40052358.32 m -130461.68 0 a 130461.68 130461.68 0 1 1 260923.35 0a 130461.68 130461.68 0 1 1 -260923.35 0M 39636225.00 40446055.00 L 39281895.00 40446055.00 L 39281895.00 40327945.00 L 39636225.00 40327945.00 L 39636225.00 40446055.00  zM 39636225.00 40642915.00 L 39281895.00 40642915.00 L 39281895.00 40524805.00 L 39636225.00 40524805.00 L 39636225.00 40642915.00  zM 39636225.00 40839755.00 L 39281895.00 40839755.00 L 39281895.00 40721645.00 L 39636225.00 40721645.00 L 39636225.00 40839755.00  zM 39935441.00 40524798.32 m -130461.68 0 a 130461.68 130461.68 0 1 1 260923.35 0a 130461.68 130461.68 0 1 1 -260923.35 0M 40211021.00 40367318.32 m -130461.68 0 a 130461.68 130461.68 0 1 1 260923.35 0a 130461.68 130461.68 0 1 1 -260923.35 0M 39636225.00 41233455.00 L 39281895.00 41233455.00 L 39281895.00 41115345.00 L 39636225.00 41115345.00 L 39636225.00 41233455.00  zM 39636225.00 41036615.00 L 39281895.00 41036615.00 L 39281895.00 40918505.00 L 39636225.00 40918505.00 L 39636225.00 41036615.00  zM 39935441.00 40839758.32 m -130461.68 0 a 130461.68 130461.68 0 1 1 260923.35 0a 130461.68 130461.68 0 1 1 -260923.35 0M 39935441.00 41154718.32 m -130461.68 0 a 130461.68 130461.68 0 1 1 260923.35 0a 130461.68 130461.68 0 1 1 -260923.35 0M 40211021.00 40997238.32 m -130461.68 0 a 130461.68 130461.68 0 1 1 260923.35 0a 130461.68 130461.68 0 1 1 -260923.35 0M 39636225.00 41430315.00 L 39281895.00 41430315.00 L 39281895.00 41312205.00 L 39636225.00 41312205.00 L 39636225.00 41430315.00  zM 39636225.00 41627175.00 L 39281895.00 41627175.00 L 39281895.00 41509065.00 L 39636225.00 41509065.00 L 39636225.00 41627175.00  zM 39636225.00 41824015.00 L 39281895.00 41824015.00 L 39281895.00 41705905.00 L 39636225.00 41705905.00 L 39636225.00 41824015.00  zM 40211021.00 41312198.32 m -130461.68 0 a 130461.68 130461.68 0 1 1 260923.35 0a 130461.68 130461.68 0 1 1 -260923.35 0M 40211021.00 41627158.32 m -130461.68 0 a 130461.68 130461.68 0 1 1 260923.35 0a 130461.68 130461.68 0 1 1 -260923.35 0M 35385038.00 44041496.00 L 34852282.00 44041496.00 L 34852282.00 42898504.00 L 35385038.00 42898504.00 L 35385038.00 44041496.00  zM 36467718.00 44041496.00 L 35934962.00 44041496.00 L 35934962.00 42898504.00 L 36467718.00 42898504.00 L 36467718.00 44041496.00  zM 35796063.00 44623145.00 L 35323937.00 44623145.00 L 35323937.00 44366295.00 L 35796063.00 44366295.00 L 35796063.00 44623145.00  zM 35157480.00 44702520.00 L 34762520.00 44702520.00 L 34762520.00 44307560.00 L 35157480.00 44307560.00 L 35157480.00 44702520.00  zM 36496063.00 44623145.00 L 36023937.00 44623145.00 L 36023937.00 44366295.00 L 36496063.00 44366295.00 L 36496063.00 44623145.00  zM 35157480.00 45332440.00 L 34762520.00 45332440.00 L 34762520.00 44937480.00 L 35157480.00 44937480.00 L 35157480.00 45332440.00  zM 35364724.00 47119606.00 L 34793858.00 47001496.00 L 34793858.00 45938504.00 L 35364724.00 45820394.00 L 35364724.00 47119606.00  zM 34316850.00 46934330.00 L 33923150.00 46934330.00 L 33923150.00 46225670.00 L 34316850.00 46225670.00 L 34316850.00 46934330.00  zM 35796063.00 45273705.00 L 35323937.00 45273705.00 L 35323937.00 45016855.00 L 35796063.00 45016855.00 L 35796063.00 45273705.00  zM 35955276.00 47119606.00 L 35955276.00 45820394.00 L 36526142.00 45938504.00 L 36526142.00 47001496.00 L 35955276.00 47119606.00  zM 38709606.00 44293221.00 L 37410394.00 44293221.00 L 37410394.00 43348339.00 L 38709606.00 43348339.00 L 38709606.00 44293221.00  zM 39549060.00 42158655.00 L 39549060.00 42040545.00 A 130461.68 130461.68 0 0 1 39809980.00 42040545.00 L 39809980.00 42158655.00 A 130461.68 130461.68 0 0 1 39549060.00 42158655.00  zM 39935441.00 41784638.32 m -130461.68 0 a 130461.68 130461.68 0 1 1 260923.35 0a 130461.68 130461.68 0 1 1 -260923.35 0M 36496063.00 45273705.00 L 36023937.00 45273705.00 L 36023937.00 45016855.00 L 36496063.00 45016855.00 L 36496063.00 45273705.00  zM 38709606.00 46891661.00 L 37410394.00 46891661.00 L 37410394.00 45946779.00 L 38709606.00 45946779.00 L 38709606.00 46891661.00  zM 40289770.00 42488896.00 L 40053550.00 42488896.00 A 180637.35 180637.35 0 0 1 40053550.00 42127624.00 L 40289770.00 42127624.00 A 180637.35 180637.35 0 0 1 40289770.00 42488896.00  zM 42018110.00 42630636.00 L 41781890.00 42630636.00 A 180637.35 180637.35 0 1 1 41781890.00 42269364.00 L 42018110.00 42269364.00 A 180637.35 180637.35 0 0 1 42018110.00 42630636.00  zM 41158419.16 44135740.29 m -427514.71 0 a 427514.71 427514.71 0 1 1 855029.42 0a 427514.71 427514.71 0 1 1 -855029.42 0M 41350349.00 46532662.00 L 40966491.00 46532662.00 A 236472.65 236472.65 0 0 1 40730018.00 46296189.00 L 40730018.00 45912331.00 A 236472.65 236472.65 0 0 1 40966491.00 45675858.00 L 41350349.00 45675858.00 A 236472.65 236472.65 0 0 1 41586822.00 45912331.00 L 41586822.00 46296189.00 A 236472.65 236472.65 0 0 1 41350349.00 46532662.00  z"/>
<path id="N" d="M 38202715.00 30251796.00 L 38220257.00 30225542.00 L 38246511.00 30208000.00 L 38263378.04 30204645.00 L 38134101.96 30204645.00 L 38150969.00 30208000.00 L 38177223.00 30225542.00 L 38194765.00 30251796.00 L 38198740.00 30271780.05 L 38202715.00 30251796.00  z"/>
<path id="N" d="M 38360195.00 30251796.00 L 38377737.00 30225542.00 L 38403991.00 30208000.00 L 38420858.04 30204645.00 L 38291581.96 30204645.00 L 38308449.00 30208000.00 L 38334703.00 30225542.00 L 38352245.00 30251796.00 L 38356220.00 30271780.05 L 38360195.00 30251796.00  z"/>
<path id="N" d="M 37887755.00 30251796.00 L 37905297.00 30225542.00 L 37931551.00 30208000.00 L 37948418.04 30204645.00 L 37819141.96 30204645.00 L 37836009.00 30208000.00 L 37862263.00 30225542.00 L 37879805.00 30251796.00 L 37883780.00 30271780.05 L 37887755.00 30251796.00  z"/>
<path id="N" d="M 38498000.00 29956511.00 L 38515542.00 29930257.00 L 38541796.00 29912715.00 L 38561780.05 29908740.00 L 38541796.00 29904765.00 L 38515542.00 29887223.00 L 38498000.00 29860969.00 L 38494645.00 29844101.96 L 38494645.00 29973378.04 L 38498000.00 29956511.00  z"/>
<path id="N" d="M 37745355.00 30001581.96 L 37742000.00 30018449.00 L 37724458.00 30044703.00 L 37698204.00 30062245.00 L 37678219.95 30066220.00 L 37698204.00 30070195.00 L 37724458.00 30087737.00 L 37742000.00 30113991.00 L 37745355.00 30130858.04 L 37745355.00 30001581.96  z"/>
<path id="N" d="M 38498000.00 30113991.00 L 38515542.00 30087737.00 L 38541796.00 30070195.00 L 38561780.05 30066220.00 L 38541796.00 30062245.00 L 38515542.00 30044703.00 L 38498000.00 30018449.00 L 38494645.00 30001581.96 L 38494645.00 30130858.04 L 38498000.00 30113991.00  z"/>
<path id="N" d="M 37745355.00 29844101.96 L 37742000.00 29860969.00 L 37724458.00 29887223.00 L 37698204.00 29904765.00 L 37678219.95 29908740.00 L 37698204.00 29912715.00 L 37724458.00 29930257.00 L 37742000.00 29956511.00 L 37745355.00 29973378.04 L 37745355.00 29844101.96  z"/>
<path id="N" d="M 38045235.00 30251796.00 L 38062777.00 30225542.00 L 38089031.00 30208000.00 L 38105898.04 30204645.00 L 37976621.96 30204645.00 L 37993489.00 30208000.00 L 38019743.00 30225542.00 L 38037285.00 30251796.00 L 38041260.00 30271780.05 L 38045235.00 30251796.00  z"/>
<path id="N" d="M 38498000.00 29799031.00 L 38515542.00 29772777.00 L 38541796.00 29755235.00 L 38561780.05 29751260.00 L 38541796.00 29747285.00 L 38515542.00 29729743.00 L 38498000.00 29703489.00 L 38494645.00 29686621.96 L 38494645.00 29815898.04 L 38498000.00 29799031.00  z"/>
<path id="N" d="M 37745355.00 29686621.96 L 37742000.00 29703489.00 L 37724458.00 29729743.00 L 37698204.00 29747285.00 L 37678219.95 29751260.00 L 37698204.00 29755235.00 L 37724458.00 29772777.00 L 37742000.00 29799031.00 L 37745355.00 29815898.04 L 37745355.00 29686621.96  z"/>
<path id="N" d="M 38498000.00 29641551.00 L 38515542.00 29615297.00 L 38541796.00 29597755.00 L 38561780.05 29593780.00 L 38541796.00 29589805.00 L 38515542.00 29572263.00 L 38498000.00 29546009.00 L 38494645.00 29529141.96 L 38494645.00 29658418.04 L 38498000.00 29641551.00  z"/>
<path id="N" d="M 37745355.00 29529141.96 L 37742000.00 29546009.00 L 37724458.00 29572263.00 L 37698204.00 29589805.00 L 37678219.95 29593780.00 L 37698204.00 29597755.00 L 37724458.00 29615297.00 L 37742000.00 29641551.00 L 37745355.00 29658418.04 L 37745355.00 29529141.96  z"/>
<path id="N" d="M 38403991.00 29452000.00 L 38377737.00 29434458.00 L 38360195.00 29408204.00 L 38356220.00 29388219.95 L 38352245.00 29408204.00 L 38334703.00 29434458.00 L 38308449.00 29452000.00 L 38291581.96 29455355.00 L 38420858.04 29455355.00 L 38403991.00 29452000.00  z"/>
<path id="N" d="M 38246511.00 29452000.00 L 38220257.00 29434458.00 L 38202715.00 29408204.00 L 38198740.00 29388219.95 L 38194765.00 29408204.00 L 38177223.00 29434458.00 L 38150969.00 29452000.00 L 38134101.96 29455355.00 L 38263378.04 29455355.00 L 38246511.00 29452000.00  z"/>
<path id="N" d="M 38089031.00 29452000.00 L 38062777.00 29434458.00 L 38045235.00 29408204.00 L 38041260.00 29388219.95 L 38037285.00 29408204.00 L 38019743.00 29434458.00 L 37993489.00 29452000.00 L 37976621.96 29455355.00 L 38105898.04 29455355.00 L 38089031.00 29452000.00  z"/>
<path id="N" d="M 37931551.00 29452000.00 L 37905297.00 29434458.00 L 37887755.00 29408204.00 L 37883780.00 29388219.95 L 37879805.00 29408204.00 L 37862263.00 29434458.00 L 37836009.00 29452000.00 L 37819141.96 29455355.00 L 37948418.04 29455355.00 L 37931551.00 29452000.00  z"/>
</g>
</svg>
