<svg width="63.17335854mm" height="66.4775912mm" viewBox="0 0 24871401 26172280"  version="1.1" xmlns="http://www.w3.org/2000/svg" xmlns:xlink="http://www.w3.org/1999/xlink">
<desc>
Origin 0 0 Bound 17667399 22461200 24871401 26172280
</desc>
<g fill-rule="evenodd" fill="rgb(112, 219, 250)" stroke="black" stroke-width="1" transform="translate(0, 26172280) scale(1, -1) translate(-17667399, -22461200)">
<path id="N" d="M 27284448.66 33563531.00 L 24411675.00 33563531.00 L 22466469.00 31618325.00 L 22466469.00 30245551.34 L 22484198.00 30219018.00 A 101960.92 101960.92 0 1 0 22295802.00 30219018.00 L 22313531.00 30245551.34 L 22313531.00 31650000.00 L 22319352.00 31679264.00 L 22335928.00 31704072.00 L 24325928.00 33694072.00 L 24350736.00 33710648.00 L 24380000.00 33716469.00 L 27284448.66 33716469.00 L 27310982.00 33734198.00 A 101960.92 101960.92 0 1 0 27284448.66 33563531.00  z"/>
<path id="N" d="M 40211020.38 40997240.38 m -130459.26 0 a 130459.26 130459.26 0 1 1 260918.51 0a 130459.26 130459.26 0 1 1 -260918.51 0M 40211019.76 40997238.92 m -80284.08 0 a 80284.08 80284.08 0 1 1 160568.17 0a 80284.08 80284.08 0 1 1 -160568.17 0"/>
<path id="N" d="M 38889999.95 28979999.95 m -101959.21 0 a 101959.21 101959.21 0 1 1 203918.42 0a 101959.21 101959.21 0 1 1 -203918.42 0"/>
<path id="N" d="M 34304099.95 27704159.95 m -101959.21 0 a 101959.21 101959.21 0 1 1 203918.42 0a 101959.21 101959.21 0 1 1 -203918.42 0"/>
<path id="N" d="M 34518779.95 26272999.95 m -101959.21 0 a 101959.21 101959.21 0 1 1 203918.42 0a 101959.21 101959.21 0 1 1 -203918.42 0"/>
<path id="N" d="M 41546038.00 46296189.00 L 41546038.00 45912331.00 A 195689.23 195689.23 0 0 0 41350349.00 45716642.00 L 40966491.00 45716642.00 A 195689.23 195689.23 0 0 0 40770802.00 45912331.00 L 40770802.00 46296189.00 A 195689.23 195689.23 0 0 0 40966491.00 46491878.00 L 41350349.00 46491878.00 A 195688.88 195688.88 0 0 0 41546038.00 46296189.00  zM 41158418.05 46104271.82 m -258101.18 0 a 258101.18 258101.18 0 1 1 516202.36 0a 258101.18 258101.18 0 1 1 -516202.36 0"/>
<path id="N" d="M 42550000.00 22480000.00 L 17724159.00 22480000.00 L 17660000.00 41290000.00 L 30900000.00 48660000.00 L 42550000.00 48660000.00 L 42550000.00 22480000.00  zM 18570000.00 23370001.08 m -173329.42 0 a 173329.42 173329.42 0 1 1 346658.84 0a 173329.42 173329.42 0 1 1 -346658.84 0M 20770000.00 23110001.08 m -173329.42 0 a 173329.42 173329.42 0 1 1 346658.84 0a 173329.42 173329.42 0 1 1 -346658.84 0M 22677189.00 23307190.08 m -173329.42 0 a 173329.42 173329.42 0 1 1 346658.84 0a 173329.42 173329.42 0 1 1 -346658.84 0M 22460000.00 23870861.08 m -173329.42 0 a 173329.42 173329.42 0 1 1 346658.84 0a 173329.42 173329.42 0 1 1 -346658.84 0M 20610000.00 27940001.08 m -173329.42 0 a 173329.42 173329.42 0 1 1 346658.84 0a 173329.42 173329.42 0 1 1 -346658.84 0M 23220000.00 23640001.08 m -173329.42 0 a 173329.42 173329.42 0 1 1 346658.84 0a 173329.42 173329.42 0 1 1 -346658.84 0M 23504260.00 23914261.08 m -173329.42 0 a 173329.42 173329.42 0 1 1 346658.84 0a 173329.42 173329.42 0 1 1 -346658.84 0M 22934260.00 23914261.08 m -173329.42 0 a 173329.42 173329.42 0 1 1 346658.84 0a 173329.42 173329.42 0 1 1 -346658.84 0M 24920000.00 27780001.08 m -173329.42 0 a 173329.42 173329.42 0 1 1 346658.84 0a 173329.42 173329.42 0 1 1 -346658.84 0M 18890690.00 29592488.11 m -960452.75 0 a 960452.75 960452.75 0 1 1 1920905.49 0a 960452.75 960452.75 0 1 1 -1920905.49 0M 22925740.00 28395741.08 m -173329.42 0 a 173329.42 173329.42 0 1 1 346658.84 0a 173329.42 173329.42 0 1 1 -346658.84 0M 23220000.00 28670001.08 m -173329.42 0 a 173329.42 173329.42 0 1 1 346658.84 0a 173329.42 173329.42 0 1 1 -346658.84 0M 23200000.00 29540001.08 m -173329.42 0 a 173329.42 173329.42 0 1 1 346658.84 0a 173329.42 173329.42 0 1 1 -346658.84 0M 23514260.00 28395741.08 m -173329.42 0 a 173329.42 173329.42 0 1 1 346658.84 0a 173329.42 173329.42 0 1 1 -346658.84 0M 25900000.00 28230001.08 m -173329.42 0 a 173329.42 173329.42 0 1 1 346658.84 0a 173329.42 173329.42 0 1 1 -346658.84 0M 23220000.00 30630001.08 m -173329.42 0 a 173329.42 173329.42 0 1 1 346658.84 0a 173329.42 173329.42 0 1 1 -346658.84 0M 23504260.00 30914261.08 m -173329.42 0 a 173329.42 173329.42 0 1 1 346658.84 0a 173329.42 173329.42 0 1 1 -346658.84 0M 28482741.00 24100563.00 L 28491444.00 24091860.00 L 28475881.00 24076297.00 A 173329.42 173329.42 0 1 1 28764119.00 24076297.00 L 28755416.00 24085000.00 L 28770979.00 24100563.00 A 173329.42 173329.42 0 1 1 28482741.00 24100563.00  zM 29375881.00 24103703.00 L 29385764.00 24093820.00 L 29372061.00 24080117.00 A 173329.42 173329.42 0 1 1 29660299.00 24080117.00 L 29650416.00 24090000.00 L 29664119.00 24103703.00 A 173329.42 173329.42 0 1 1 29375881.00 24103703.00  zM 27163940.00 24176061.08 m -173329.42 0 a 173329.42 173329.42 0 1 1 346658.84 0a 173329.42 173329.42 0 1 1 -346658.84 0M 28000000.00 27700001.08 m -173329.42 0 a 173329.42 173329.42 0 1 1 346658.84 0a 173329.42 173329.42 0 1 1 -346658.84 0M 29760000.00 27490001.08 m -173329.42 0 a 173329.42 173329.42 0 1 1 346658.84 0a 173329.42 173329.42 0 1 1 -346658.84 0M 31995000.00 25426185.00 L 32015231.21 25377342.74 L 31993907.58 25338479.12 L 31984840.70 25330000.00 L 31941185.00 25330000.00 L 31906943.80 25315816.77 L 31878620.91 25358204.91 L 31884119.00 25363703.00 A 173329.42 173329.42 0 1 1 31773815.00 25290000.00 L 31808056.20 25304183.23 L 31836379.09 25261795.09 L 31830881.00 25256297.00 A 173329.42 173329.42 0 1 1 32145000.00 25193815.00 L 32124768.79 25242657.26 L 32146092.42 25281520.88 L 32155159.30 25290000.00 L 32198815.00 25290000.00 A 173331.37 173331.37 0 1 1 31995000.00 25426185.00  zM 32640000.00 24630001.08 m -173329.42 0 a 173329.42 173329.42 0 1 1 346658.84 0a 173329.42 173329.42 0 1 1 -346658.84 0M 32763703.00 27044119.00 L 32720000.00 27000416.00 L 32676297.00 27044119.00 A 173329.42 173329.42 0 0 1 32483703.00 27044119.00 L 32440000.00 27000416.00 L 32396297.00 27044119.00 A 173329.42 173329.42 0 0 1 32203703.00 27044119.00 L 32160000.00 27000416.00 L 32116297.00 27044119.00 A 173329.42 173329.42 0 0 1 31923703.00 27044119.00 L 31880000.00 27000416.00 L 31836297.00 27044119.00 A 173329.42 173329.42 0 0 1 31643703.00 27044119.00 L 31610000.00 27010416.00 L 31576297.00 27044119.00 A 173329.42 173329.42 0 0 1 31383703.00 27044119.00 L 31350000.00 27010416.00 L 31316297.00 27044119.00 A 173329.42 173329.42 0 1 1 31316297.00 26755881.00 L 31350000.00 26789584.00 L 31383703.00 26755881.00 A 173329.42 173329.42 0 0 1 31576297.00 26755881.00 L 31610000.00 26789584.00 L 31643703.00 26755881.00 A 173329.42 173329.42 0 0 1 31836297.00 26755881.00 L 31880000.00 26799584.00 L 31923703.00 26755881.00 A 173329.42 173329.42 0 0 1 32116297.00 26755881.00 L 32160000.00 26799584.00 L 32203703.00 26755881.00 A 173329.42 173329.42 0 0 1 32396297.00 26755881.00 L 32440000.00 26799584.00 L 32483703.00 26755881.00 A 173329.42 173329.42 0 0 1 32676297.00 26755881.00 L 32720000.00 26799584.00 L 32763703.00 26755881.00 A 173329.42 173329.42 0 1 1 32763703.00 27044119.00  zM 27920000.00 28770001.08 m -173329.42 0 a 173329.42 173329.42 0 1 1 346658.84 0a 173329.42 173329.42 0 1 1 -346658.84 0M 28226060.00 28476061.08 m -173329.42 0 a 173329.42 173329.42 0 1 1 346658.84 0a 173329.42 173329.42 0 1 1 -346658.84 0M 28870000.00 29180001.08 m -173329.42 0 a 173329.42 173329.42 0 1 1 346658.84 0a 173329.42 173329.42 0 1 1 -346658.84 0M 28570000.00 29580001.08 m -173329.42 0 a 173329.42 173329.42 0 1 1 346658.84 0a 173329.42 173329.42 0 1 1 -346658.84 0M 26973940.00 30683941.08 m -173329.42 0 a 173329.42 173329.42 0 1 1 346658.84 0a 173329.42 173329.42 0 1 1 -346658.84 0M 27270000.00 30400001.08 m -173329.42 0 a 173329.42 173329.42 0 1 1 346658.84 0a 173329.42 173329.42 0 1 1 -346658.84 0M 27563940.00 30683941.08 m -173329.42 0 a 173329.42 173329.42 0 1 1 346658.84 0a 173329.42 173329.42 0 1 1 -346658.84 0M 28070000.00 30430001.08 m -173329.42 0 a 173329.42 173329.42 0 1 1 346658.84 0a 173329.42 173329.42 0 1 1 -346658.84 0M 33670000.00 23630001.08 m -173329.42 0 a 173329.42 173329.42 0 1 1 346658.84 0a 173329.42 173329.42 0 1 1 -346658.84 0M 34010000.00 24030001.08 m -173329.42 0 a 173329.42 173329.42 0 1 1 346658.84 0a 173329.42 173329.42 0 1 1 -346658.84 0M 34170000.00 24630001.08 m -173329.42 0 a 173329.42 173329.42 0 1 1 346658.84 0a 173329.42 173329.42 0 1 1 -346658.84 0M 34525881.00 25636297.00 L 34506194.18 25588769.02 L 34453805.82 25588769.02 L 34434119.00 25636297.00 A 173331.37 173331.37 0 1 1 34256185.00 25370000.00 L 34299152.49 25370000.00 L 34333863.99 25325032.66 L 34330000.00 25313815.00 A 173329.42 173329.42 0 1 1 34670000.00 25313815.00 L 34663947.91 25328425.98 L 34691726.74 25370000.00 L 34703815.00 25370000.00 A 173331.37 173331.37 0 1 1 34525881.00 25636297.00  zM 34518780.00 26273001.08 m -173329.42 0 a 173329.42 173329.42 0 1 1 346658.84 0a 173329.42 173329.42 0 1 1 -346658.84 0M 34030000.00 26300001.08 m -173329.42 0 a 173329.42 173329.42 0 1 1 346658.84 0a 173329.42 173329.42 0 1 1 -346658.84 0M 34134100.00 27737975.00 L 34134100.00 27687027.27 L 34086948.50 27663467.50 L 34066297.00 27684119.00 A 173329.42 173329.42 0 1 1 34140000.00 27506185.00 L 34140000.00 27557132.73 L 34187151.50 27580692.50 L 34207803.00 27560041.00 A 173329.42 173329.42 0 1 1 34134100.00 27737975.00  zM 32923940.00 28600001.08 m -173329.42 0 a 173329.42 173329.42 0 1 1 346658.84 0a 173329.42 173329.42 0 1 1 -346658.84 0M 33275881.00 28743703.00 L 33300644.00 28718940.00 L 33271941.00 28690237.00 A 173329.42 173329.42 0 1 1 33560179.00 28690237.00 L 33535416.00 28715000.00 L 33564119.00 28743703.00 A 173329.42 173329.42 0 1 1 33275881.00 28743703.00  zM 35480000.00 25760001.08 m -173329.42 0 a 173329.42 173329.42 0 1 1 346658.84 0a 173329.42 173329.42 0 1 1 -346658.84 0M 35983815.00 25570000.00 L 36019999.48 25584988.17 L 36070000.00 25554255.25 L 36070000.00 25520325.00 A 173331.37 173331.37 0 1 1 36206185.00 25724140.00 L 36170000.52 25709151.83 L 36120000.00 25739884.75 L 36120000.00 25773815.00 A 173331.37 173331.37 0 1 1 35983815.00 25570000.00  zM 36600000.00 25770001.08 m -173329.42 0 a 173329.42 173329.42 0 1 1 346658.84 0a 173329.42 173329.42 0 1 1 -346658.84 0M 38500000.00 27190001.08 m -173329.42 0 a 173329.42 173329.42 0 1 1 346658.84 0a 173329.42 173329.42 0 1 1 -346658.84 0M 36120000.00 28030001.08 m -173329.42 0 a 173329.42 173329.42 0 1 1 346658.84 0a 173329.42 173329.42 0 1 1 -346658.84 0M 35899584.00 28730000.00 L 35865881.00 28696297.00 A 173329.42 173329.42 0 1 1 36154119.00 28696297.00 L 36110416.00 28740000.00 L 36144119.00 28773703.00 A 173329.42 173329.42 0 1 1 35899584.00 28730000.00  zM 36620000.00 28740001.08 m -173329.42 0 a 173329.42 173329.42 0 1 1 346658.84 0a 173329.42 173329.42 0 1 1 -346658.84 0M 38150000.00 28396185.00 L 38156052.09 28381574.02 L 38134762.19 28349711.39 L 38120182.39 28337513.63 L 38063703.00 28314119.00 A 173331.37 173331.37 0 0 1 38256297.00 28025881.00 L 38288309.41 28057893.41 L 38320000.00 28068424.75 L 38351690.59 28057893.41 L 38383703.00 28025881.00 A 173329.42 173329.42 0 1 1 38519817.61 28337513.63 L 38505237.81 28349711.39 L 38483947.91 28381574.02 L 38490000.00 28396185.00 A 173329.42 173329.42 0 1 1 38150000.00 28396185.00  zM 32783703.00 29944119.00 L 32744619.53 29905035.53 L 32715000.00 29899910.59 L 32685380.47 29905035.53 L 32646297.00 29944119.00 A 173329.42 173329.42 0 0 1 32405881.00 29703703.00 L 32441919.55 29667664.45 L 32452189.05 29647134.80 L 32444964.47 29605380.47 L 32415881.00 29576297.00 A 173329.42 173329.42 0 0 1 32656297.00 29335881.00 L 32695380.47 29374964.47 L 32725000.00 29380089.41 L 32754619.53 29374964.47 L 32793703.00 29335881.00 A 173329.42 173329.42 0 0 1 33034119.00 29576297.00 L 32998080.45 29612335.55 L 32987810.95 29632865.20 L 32995035.53 29674619.53 L 33024119.00 29703703.00 A 173329.42 173329.42 0 0 1 32783703.00 29944119.00  zM 33270000.00 30230001.08 m -173329.42 0 a 173329.42 173329.42 0 1 1 346658.84 0a 173329.42 173329.42 0 1 1 -346658.84 0M 32923940.00 30660001.08 m -173329.42 0 a 173329.42 173329.42 0 1 1 346658.84 0a 173329.42 173329.42 0 1 1 -346658.84 0M 32920000.00 31280001.08 m -173329.42 0 a 173329.42 173329.42 0 1 1 346658.84 0a 173329.42 173329.42 0 1 1 -346658.84 0M 33510000.00 30670001.08 m -173329.42 0 a 173329.42 173329.42 0 1 1 346658.84 0a 173329.42 173329.42 0 1 1 -346658.84 0M 35290000.00 31120001.08 m -173329.42 0 a 173329.42 173329.42 0 1 1 346658.84 0a 173329.42 173329.42 0 1 1 -346658.84 0M 35640000.00 30800001.08 m -173329.42 0 a 173329.42 173329.42 0 1 1 346658.84 0a 173329.42 173329.42 0 1 1 -346658.84 0M 36046220.00 30466221.08 m -173329.42 0 a 173329.42 173329.42 0 1 1 346658.84 0a 173329.42 173329.42 0 1 1 -346658.84 0M 37610000.00 29130001.08 m -173329.42 0 a 173329.42 173329.42 0 1 1 346658.84 0a 173329.42 173329.42 0 1 1 -346658.84 0M 36416296.28 30605880.70 L 36444853.01 30567709.01 L 36439661.00 30562517.00 A 173329.42 173329.42 0 1 1 36487483.72 30610339.30 L 36458926.99 30648510.99 L 36464119.00 30653703.00 A 173329.42 173329.42 0 1 1 36416296.28 30605880.70  zM 36746000.00 31386001.08 m -173329.42 0 a 173329.42 173329.42 0 1 1 346658.84 0a 173329.42 173329.42 0 1 1 -346658.84 0M 37570000.00 31330001.08 m -173329.42 0 a 173329.42 173329.42 0 1 1 346658.84 0a 173329.42 173329.42 0 1 1 -346658.84 0M 38890000.00 28980001.08 m -173329.42 0 a 173329.42 173329.42 0 1 1 346658.84 0a 173329.42 173329.42 0 1 1 -346658.84 0M 39255000.00 28783541.08 m -173329.42 0 a 173329.42 173329.42 0 1 1 346658.84 0a 173329.42 173329.42 0 1 1 -346658.84 0M 38750000.00 30380001.08 m -173329.42 0 a 173329.42 173329.42 0 1 1 346658.84 0a 173329.42 173329.42 0 1 1 -346658.84 0M 39163703.00 30145881.00 L 39213943.31 30125070.70 L 39228437.28 30086861.09 L 39229583.61 30069999.61 L 39205881.00 30046297.00 A 173329.42 173329.42 0 1 1 39446297.00 30094119.00 L 39396056.69 30114929.30 L 39381562.72 30153138.91 L 39380416.39 30170000.39 L 39404119.00 30193703.00 A 173329.42 173329.42 0 1 1 39163703.00 30145881.00  zM 23969940.00 31756041.08 m -173329.42 0 a 173329.42 173329.42 0 1 1 346658.84 0a 173329.42 173329.42 0 1 1 -346658.84 0M 28409821.00 31603703.00 L 28431554.00 31581970.00 A 169438.59 169438.59 0 1 1 28674119.00 31343703.00 A 173329.42 173329.42 0 0 1 28674119.00 31536297.00 L 28652386.00 31558030.00 A 169438.59 169438.59 0 1 1 28409821.00 31603703.00  zM 30365660.00 31425661.08 m -173329.42 0 a 173329.42 173329.42 0 1 1 346658.84 0a 173329.42 173329.42 0 1 1 -346658.84 0M 27820160.00 36423490.00 L 27300160.00 36423490.00 L 27233829.00 36410296.00 L 27177597.00 36372723.00 L 25258204.00 34453330.00 L 24480000.00 34453331.00 L 24413670.00 34440137.00 L 24357437.00 34402563.00 L 21877437.00 31922563.00 L 21839864.00 31866331.00 L 21826670.00 31800000.00 L 21826670.00 28910000.00 L 21839864.00 28843669.00 L 21877437.00 28787437.00 L 22347437.00 28317437.00 L 22361630.86 28307953.14 L 22373703.00 28295881.00 L 22389477.46 28289346.98 L 22403670.00 28279864.00 L 22420410.35 28276534.10 L 22436185.00 28270000.00 L 22453259.14 28270000.00 L 22470000.00 28266670.00 L 22486740.86 28270000.00 L 22503815.00 28270000.00 L 22519589.65 28276534.10 L 22536330.00 28279864.00 L 22550522.54 28289346.98 L 22566297.00 28295881.00 L 22578369.14 28307953.14 L 22592563.00 28317437.00 L 22602046.86 28331630.86 L 22614119.00 28343703.00 L 22620653.02 28359477.46 L 22630136.00 28373670.00 L 22633465.90 28390410.35 L 22640000.00 28406185.00 L 22640000.00 28423259.14 L 22643330.00 28440000.00 L 22640000.00 28456740.86 L 22640000.00 28473815.00 L 22633465.90 28489589.65 L 22630136.00 28506330.00 L 22620653.02 28520522.54 L 22614119.00 28536297.00 L 22602046.86 28548369.14 L 22592563.00 28562563.00 L 22173330.00 28981796.00 L 22173330.00 30138145.02 L 22220000.30 30146184.28 A 173330.37 173330.37 0 0 1 22423815.00 30010000.00 L 22472158.49 30030024.61 L 22522159.00 30006414.27 L 22522159.00 29957311.33 L 22500000.00 29903815.00 A 173329.42 173329.42 0 1 1 22840000.00 29903815.00 L 22817841.00 29957311.33 L 22817841.00 30722117.84 L 22867841.52 30755527.07 L 22881185.00 30750000.00 A 173329.42 173329.42 0 1 1 22881185.00 31090000.00 L 22867841.52 31084472.93 L 22817841.00 31117882.16 L 22817841.00 31518762.96 L 23851237.96 32552159.00 L 28052688.67 32552159.00 L 28106185.00 32530000.00 A 173329.42 173329.42 0 1 1 28106185.00 32870000.00 L 28052688.67 32847841.00 L 23862247.75 32847841.00 L 23843113.40 32894035.40 L 24441237.00 33492159.00 L 27262688.67 33492159.00 L 27316185.00 33470000.00 A 173329.42 173329.42 0 1 1 27316185.00 33810000.00 L 27262688.67 33787841.00 L 24380000.00 33787841.00 L 24323424.00 33776587.00 L 24275461.00 33744539.00 L 22285461.00 31754539.00 L 22253413.00 31706576.00 L 22242159.00 31650000.00 L 22242159.00 30267311.33 L 22220000.30 30213815.72 L 22173330.00 30221854.98 L 22173330.00 31728204.00 L 24551796.00 34106670.00 L 25330000.00 34106670.00 L 25396331.00 34119864.00 L 25452563.00 34157437.00 L 27371956.00 36076830.00 L 27820160.00 36076830.00 L 27836901.11 36080160.00 L 27853975.00 36080160.00 L 27869748.96 36086693.82 L 27886491.00 36090024.00 L 27900684.50 36099507.79 L 27916457.00 36106041.00 L 27928528.63 36118112.63 L 27942723.00 36127597.00 L 27952207.37 36141791.37 L 27964279.00 36153863.00 L 27970812.21 36169635.50 L 27980296.00 36183829.00 L 27983626.18 36200571.04 L 27990160.00 36216345.00 L 27990160.00 36233418.89 L 27993490.00 36250160.00 L 27990160.00 36266901.11 L 27990160.00 36283975.00 L 27983626.18 36299748.96 L 27980296.00 36316491.00 L 27970812.21 36330684.50 L 27964279.00 36346457.00 L 27952207.37 36358528.63 L 27942723.00 36372723.00 L 27928528.63 36382207.37 L 27916457.00 36394279.00 L 27900684.50 36400812.21 L 27886491.00 36410296.00 L 27869748.96 36413626.18 L 27853975.00 36420160.00 L 27836901.11 36420160.00 L 27820160.00 36423490.00  zM 25200000.00 38403331.00 L 25133670.00 38390137.00 L 25077434.99 38352559.99 L 22017437.00 35292563.00 L 21979864.00 35236331.00 L 21966670.00 35170000.00 L 21966670.00 33631796.00 L 20807437.00 32472563.00 L 20769864.00 32416331.00 L 20756670.00 32350000.00 L 20756670.00 29370000.00 L 20769864.00 29303669.00 L 20807437.00 29247437.00 L 21696670.00 28358204.00 L 21696670.00 28316590.16 L 21701959.00 28290000.00 L 21700309.07 28281705.07 L 21709864.00 28233669.00 L 21747437.00 28177437.00 L 22497437.00 27427437.00 L 22553669.00 27389864.00 L 22620000.00 27376670.00 L 23250000.00 27376670.00 L 23316331.00 27389864.00 L 23372563.00 27427437.00 L 24102563.00 28157437.00 L 24112046.86 28171630.86 L 24124119.00 28183703.00 L 24130653.02 28199477.46 L 24140136.00 28213670.00 L 24143465.90 28230410.35 L 24150000.00 28246185.00 L 24150000.00 28263259.14 L 24153330.00 28280000.00 L 24150000.00 28296740.86 L 24150000.00 28313815.00 L 24143465.90 28329589.65 L 24140136.00 28346330.00 L 24130653.02 28360522.54 L 24124119.00 28376297.00 L 24112046.86 28388369.14 L 24102563.00 28402563.00 L 24088369.14 28412046.86 L 24076297.00 28424119.00 L 24060522.54 28430653.02 L 24046330.00 28440136.00 L 24029589.65 28443465.90 L 24013815.00 28450000.00 L 23996740.86 28450000.00 L 23980000.00 28453330.00 L 23963259.14 28450000.00 L 23946185.00 28450000.00 L 23930410.35 28443465.90 L 23913670.00 28440136.00 L 23899477.46 28430653.02 L 23883703.00 28424119.00 L 23871630.86 28412046.86 L 23857437.00 28402563.00 L 23178204.00 27723330.00 L 22890554.72 27723330.00 L 22872082.30 27773330.50 L 22895740.00 27830445.00 A 173329.42 173329.42 0 0 1 22581621.00 27960557.00 L 22565119.17 27920718.23 L 22509545.63 27905580.37 L 22043330.00 28371796.00 L 22043330.00 28430000.00 L 22030137.00 28496330.00 L 21992563.00 28552563.00 L 21103330.00 29441796.00 L 21103330.00 31560925.25 L 21153330.52 31593608.83 L 21186185.00 31580000.00 A 173329.42 173329.42 0 1 1 21186185.00 31920000.00 L 21153330.52 31906391.17 L 21103330.00 31939074.75 L 21103330.00 32278204.00 L 22262563.00 33437437.00 L 22300136.00 33493669.00 L 22313330.00 33560000.00 L 22313330.00 35098204.02 L 25271795.02 38056670.00 L 27698204.00 38056670.00 L 27987437.00 37767437.00 L 28001631.62 37757952.38 L 28013703.00 37745881.00 L 28029474.52 37739348.20 L 28043670.00 37729863.00 L 28051753.21 37728255.13 L 28046309.47 37678255.00 L 26294100.00 37678255.00 L 26231671.00 37665837.00 L 26178743.99 37630470.99 L 24024757.90 35476504.58 L 24008183.00 35469639.00 A 173331.37 173331.37 0 1 1 24248599.00 35229223.00 L 24255464.11 35245796.77 L 24984830.91 35975156.58 L 25043810.66 35963424.67 L 25049221.00 35950363.00 A 173331.37 173331.37 0 1 1 25289637.00 36190779.00 L 25276576.91 36196188.69 L 25264845.32 36255168.30 L 26361672.54 37351985.00 L 28084731.49 37351985.00 L 28101305.00 37345120.00 A 173329.42 173329.42 0 0 1 28231417.00 37659239.00 L 28181506.37 37679912.75 L 28177580.77 37717798.45 L 28178501.96 37731314.27 L 28190525.48 37739348.20 L 28206297.00 37745881.00 L 28218368.38 37757952.38 L 28232563.00 37767437.00 L 28242047.62 37781631.62 L 28254119.00 37793703.00 L 28260651.80 37809474.52 L 28270137.00 37823670.00 L 28273467.82 37840414.99 L 28280000.00 37856185.00 L 28280000.00 37873254.11 L 28283331.00 37890000.00 L 28280000.00 37906745.89 L 28280000.00 37923815.00 L 28273467.82 37939585.01 L 28270137.00 37956330.00 L 28260651.80 37970525.48 L 28254119.00 37986297.00 L 28242047.62 37998368.38 L 28232563.00 38012563.00 L 27892563.00 38352563.00 L 27836331.00 38390136.00 L 27770000.00 38403330.00 L 25200000.00 38403331.00  zM 20620000.00 34390001.08 m -173329.42 0 a 173329.42 173329.42 0 1 1 346658.84 0a 173329.42 173329.42 0 1 1 -346658.84 0M 22944260.00 34764261.08 m -173329.42 0 a 173329.42 173329.42 0 1 1 346658.84 0a 173329.42 173329.42 0 1 1 -346658.84 0M 24816860.00 34768421.08 m -173329.42 0 a 173329.42 173329.42 0 1 1 346658.84 0a 173329.42 173329.42 0 1 1 -346658.84 0M 30680000.00 33230001.08 m -173329.42 0 a 173329.42 173329.42 0 1 1 346658.84 0a 173329.42 173329.42 0 1 1 -346658.84 0M 30930000.00 32100001.08 m -173329.42 0 a 173329.42 173329.42 0 1 1 346658.84 0a 173329.42 173329.42 0 1 1 -346658.84 0M 31225660.00 31805661.08 m -173329.42 0 a 173329.42 173329.42 0 1 1 346658.84 0a 173329.42 173329.42 0 1 1 -346658.84 0M 34280000.00 42704310.00 L 31170000.00 42704310.00 L 31084160.00 42687235.00 L 31011389.00 42638611.00 L 28621389.00 40248611.00 L 28572765.00 40175840.00 L 28555690.00 40090000.00 L 28555690.00 38256423.64 L 28542765.00 38237080.00 L 28525690.00 38151240.00 L 28525690.00 37728760.00 L 28542765.00 37642920.00 L 28555690.00 37623576.36 L 28555690.00 32612912.00 L 28307088.00 32364310.00 L 25090000.00 32364310.00 L 25004160.00 32347235.00 L 24931389.00 32298611.00 L 24077088.00 31444310.00 L 23880000.00 31444310.00 A 224312.26 224312.26 0 0 1 23880000.00 30995690.00 L 24170000.00 30995690.00 L 24255840.00 31012765.00 L 24328611.00 31061389.00 L 25182912.00 31915690.00 L 28400000.00 31915690.00 L 28485840.00 31932765.00 L 28558611.00 31981389.00 L 28938611.00 32361389.00 L 28987235.00 32434160.00 L 29004310.00 32520000.00 L 29004310.00 34427412.86 L 29019659.24 34437899.55 L 29054310.41 34446611.59 L 29482159.00 34018763.00 L 29482159.00 31170000.00 L 29493413.00 31113424.00 L 29525461.00 31065461.00 L 30677679.00 29913242.04 L 30677679.00 27892228.28 L 30627678.57 27871517.43 L 30600677.00 27898519.00 A 173329.42 173329.42 0 0 1 30334380.00 27720585.00 L 30347971.04 27687773.47 L 30308958.44 27651300.90 L 30263815.00 27670000.00 A 173329.42 173329.42 0 1 1 30400000.00 27533815.00 L 30386408.96 27566626.53 L 30425421.56 27603099.10 L 30470565.00 27584400.00 L 30538195.00 27584400.00 L 30600677.00 27610281.00 L 30627678.57 27637282.57 L 30677679.00 27616571.72 L 30677679.00 26541791.33 L 30655520.00 26488295.00 A 173329.42 173329.42 0 1 1 30995520.00 26488295.00 L 30973361.00 26541791.33 L 30973361.00 28555511.72 L 31023703.00 28575881.00 A 173329.42 173329.42 0 0 1 31216297.00 28575881.00 L 31237335.56 28596919.56 L 31270000.00 28619615.76 L 31302664.44 28596919.56 L 31323703.00 28575881.00 A 173329.42 173329.42 0 0 1 31516297.00 28575881.00 L 31560000.00 28619584.00 L 31603703.00 28575881.00 A 173329.42 173329.42 0 0 1 31869999.68 28686184.22 L 31909677.00 28712695.71 L 31916185.00 28710000.00 A 173329.42 173329.42 0 0 1 32120000.00 28846185.00 L 32120000.00 28905866.75 L 32126185.85 28910000.00 A 173328.33 173328.33 0 1 1 31990000.00 29113815.00 L 31990000.00 29054133.25 L 31983814.15 29050000.00 A 173328.33 173328.33 0 0 1 31780000.32 28913815.78 L 31740323.00 28887304.29 L 31733815.00 28890000.00 L 31666185.00 28890000.00 L 31603703.00 28864119.00 L 31560000.00 28820416.00 L 31516297.00 28864119.00 A 173329.42 173329.42 0 0 1 31323703.00 28864119.00 L 31302664.44 28843080.44 L 31270000.00 28820384.24 L 31237335.56 28843080.44 L 31216297.00 28864119.00 A 173329.42 173329.42 0 0 1 31023361.43 28863777.43 L 30973361.00 28884488.28 L 30973361.00 29974480.00 L 30962107.00 30031056.00 L 30930060.00 30079019.00 L 30568698.76 30440379.94 L 30603703.71 30475880.71 A 173328.44 173328.44 0 0 1 30796297.00 30475881.00 L 30822335.55 30501919.55 L 30855000.00 30518259.21 L 30887664.45 30501919.55 L 30913703.00 30475881.00 A 173329.42 173329.42 0 0 1 31106297.00 30475881.00 L 31145380.47 30514964.47 L 31175000.00 30520089.41 L 31204619.53 30514964.47 L 31243703.00 30475881.00 A 173329.42 173329.42 0 0 1 31484999.77 30525829.36 L 31535000.23 30525829.36 A 170651.79 170651.79 0 0 1 31713814.15 30450000.00 L 31750000.00 30425821.43 L 31750000.00 30416185.00 A 173331.37 173331.37 0 0 1 31886185.00 30280000.00 L 31920868.20 30280000.00 L 31958470.35 30245228.72 L 31960000.00 30233805.53 L 31960000.00 30176185.00 A 173331.37 173331.37 0 1 1 32163815.00 30380000.00 L 32129131.80 30380000.00 L 32091529.65 30414771.28 L 32090000.00 30426194.47 L 32090000.00 30483815.00 A 173331.37 173331.37 0 0 1 31886185.85 30620000.00 L 31850000.00 30644178.57 L 31850000.00 30653815.00 A 173331.37 173331.37 0 0 1 31535000.23 30714170.64 L 31484999.77 30714170.64 A 170651.79 170651.79 0 0 1 31243703.00 30764119.00 L 31204619.53 30725035.53 L 31175000.00 30719910.59 L 31145380.47 30725035.53 L 31106297.00 30764119.00 A 173329.42 173329.42 0 0 1 30913703.00 30764119.00 L 30887664.45 30738080.45 L 30855000.00 30721740.79 L 30822335.55 30738080.45 L 30796297.00 30764119.00 A 173329.42 173329.42 0 0 1 30555880.71 30523703.71 L 30520379.97 30488698.69 L 29777841.00 31231237.04 L 29777841.00 34080000.00 L 29766587.00 34136576.00 L 29734539.00 34184539.00 L 29297801.00 34621277.00 L 29297801.00 37248100.00 A 168826.21 168826.21 0 0 1 29498100.00 37384285.00 A 173329.42 173329.42 0 0 1 29294285.00 37588100.00 L 29242841.50 37566791.32 L 29192841.00 37588585.73 L 29192841.00 37747719.72 L 29226185.85 37770000.00 A 173328.33 173328.33 0 0 1 29356297.00 38084119.00 L 29328801.90 38095507.89 L 29293890.53 38115630.99 L 29294476.39 38159726.57 L 29297801.00 38176440.00 L 29297801.00 39868962.95 L 30067681.12 40638842.19 L 30121177.00 40661001.00 L 30148172.85 40687996.85 L 30172633.46 40696158.64 L 30206566.55 40688779.45 L 30211599.31 40686094.42 L 30217277.00 40677597.00 L 30231470.86 40668113.14 L 30243543.00 40656041.00 L 30259317.46 40649506.98 L 30273510.00 40640024.00 L 30290250.35 40636694.10 L 30306025.00 40630160.00 L 30323099.14 40630160.00 L 30339840.00 40626830.00 L 30356580.86 40630160.00 L 30373655.00 40630160.00 L 30389429.65 40636694.10 L 30406170.00 40640024.00 L 30420362.54 40649506.98 L 30436137.00 40656041.00 L 30448209.14 40668113.14 L 30462403.00 40677597.00 L 30815576.00 41030770.00 L 31124100.56 41030770.00 L 31133569.06 41023564.23 L 31160634.21 40983689.92 L 31154100.00 40967915.00 L 31154100.00 40950842.59 L 31150770.00 40934103.00 L 31154100.00 40917360.87 L 31154100.00 40900285.00 L 31160633.81 40884511.05 L 31163963.00 40867773.00 L 31173446.02 40853579.76 L 31179981.00 40837803.00 L 31192052.41 40825731.59 L 31201535.00 40811539.00 L 31785617.00 40227437.00 L 31841849.00 40189864.00 L 31908177.00 40176670.00 L 36450000.00 40176670.00 L 36516331.00 40189864.00 L 36572563.00 40227437.00 L 36652563.00 40307437.00 L 36662046.86 40321630.86 L 36674119.00 40333703.00 L 36680653.02 40349477.46 L 36690136.00 40363670.00 L 36693465.90 40380410.35 L 36700000.00 40396185.00 L 36700000.00 40413259.14 L 36703330.00 40430000.00 L 36700000.00 40446740.86 L 36700000.00 40463815.00 L 36693465.90 40479589.65 L 36690136.00 40496330.00 L 36680653.02 40510522.54 L 36674119.00 40526297.00 L 36662046.86 40538369.14 L 36652563.00 40552563.00 L 36638369.14 40562046.86 L 36626297.00 40574119.00 L 36610522.54 40580653.02 L 36596330.00 40590136.00 L 36579589.65 40593465.90 L 36563815.00 40600000.00 L 36546740.86 40600000.00 L 36530000.00 40603330.00 L 36513259.14 40600000.00 L 36496185.00 40600000.00 L 36480410.35 40593465.90 L 36463670.00 40590136.00 L 36449477.46 40580653.02 L 36433703.00 40574119.00 L 36421630.86 40562046.86 L 36407437.00 40552563.00 L 36378204.00 40523330.00 L 33531854.98 40523330.00 L 33523815.72 40570000.30 A 173330.37 173330.37 0 0 1 33634119.00 40836297.00 L 33593746.40 40876669.60 L 33601169.57 40911901.82 L 33609074.76 40926670.00 L 35015542.72 40926670.00 L 35036253.57 40876669.57 L 35005881.00 40846297.00 A 173329.42 173329.42 0 1 1 35294119.00 40846297.00 L 35263746.43 40876669.57 L 35284457.28 40926670.00 L 35635542.72 40926670.00 L 35656253.57 40876669.57 L 35625881.00 40846297.00 A 173329.42 173329.42 0 1 1 35914119.00 40846297.00 L 35883746.43 40876669.57 L 35904457.28 40926670.00 L 37208204.00 40926670.00 L 37437659.63 40697214.37 L 37434289.01 40685074.12 L 37413142.75 40651020.00 L 37357205.00 40651020.00 A 173331.37 173331.37 0 0 1 37294723.00 40336901.00 L 37348218.17 40314742.48 L 40632159.00 37030783.24 L 40632159.00 25861237.98 L 40170000.43 25399079.23 L 40120000.00 25419790.08 L 40120000.00 25443815.00 A 173331.37 173331.37 0 1 1 39916185.00 25240000.00 L 39940209.99 25240000.00 L 39960920.85 25189999.57 L 38093762.98 23322841.00 L 27667882.16 23322841.00 L 27634472.93 23372841.52 L 27640000.00 23386185.00 L 27640000.00 23453815.00 L 27620414.20 23501099.10 L 27622647.39 23504274.79 L 27660742.65 23534394.92 L 27710125.00 23513940.00 A 173329.42 173329.42 0 1 1 27573940.00 23650125.00 L 27593525.80 23602840.90 L 27591292.61 23599665.21 L 27553197.35 23569545.08 L 27503815.00 23590000.00 L 27436185.00 23590000.00 L 27384219.66 23568475.16 L 27352370.93 23591090.28 L 27343915.14 23601780.91 L 27363940.00 23650125.00 A 173329.42 173329.42 0 1 1 27227755.00 23513940.00 L 27279720.34 23535464.84 L 27311569.07 23512849.72 L 27320024.86 23502159.09 L 27300000.35 23453815.84 L 27279192.41 23436739.30 L 27248518.00 23442841.00 L 24395012.00 23442841.00 L 24338436.00 23431587.00 L 24290473.00 23399539.00 L 24206716.00 23315782.00 L 24198449.00 23315782.00 A 173331.37 173331.37 0 1 1 24376383.00 23049485.00 L 24388975.25 23079885.25 L 24456249.00 23147159.00 L 27187280.64 23147159.00 L 27263979.00 23070460.00 L 27311942.00 23038413.00 L 27368518.00 23027159.00 L 38155000.00 23027159.00 L 38211576.00 23038413.00 L 38259539.00 23070461.00 L 39345331.39 24156252.97 L 39369756.37 24150182.91 L 39395579.09 24135789.35 L 39397240.00 24127438.87 L 39397240.00 24110365.00 L 39403773.05 24094592.90 L 39407103.00 24077851.00 L 39416587.52 24063656.16 L 39423121.00 24047883.00 L 39435192.14 24035811.86 L 39444676.00 24021618.00 L 39458870.62 24012133.38 L 39470943.00 24000061.00 L 39486715.83 23993527.65 L 39500909.00 23984044.00 L 39517651.27 23980713.72 L 39533425.00 23974180.00 L 39550498.14 23974180.00 L 39567239.00 23970850.00 L 39583981.13 23974180.00 L 39601055.00 23974180.00 L 39616827.10 23980713.05 L 39633569.00 23984043.00 L 39647763.84 23993527.52 L 39663537.00 24000061.00 L 39675608.14 24012132.14 L 39689802.00 24021616.00 L 41132563.00 25464357.00 L 41170136.00 25520589.00 L 41183330.00 25586924.03 L 41183331.00 37370000.00 L 41170137.00 37436330.00 L 41132563.00 37492563.00 L 39592505.95 39032620.05 L 39620828.92 39075008.11 L 39640145.00 39067007.00 A 201827.66 201827.66 0 1 1 39481567.00 39225585.00 L 39489568.11 39206268.92 L 39447180.05 39177945.95 L 37402563.00 41222563.00 L 37346331.00 41260136.00 L 37280000.00 41273330.00 L 35904457.28 41273330.00 L 35883746.43 41323330.43 L 35894119.00 41333703.00 A 173329.42 173329.42 0 1 1 35605881.00 41333703.00 L 35616253.57 41323330.43 L 35595542.72 41273330.00 L 35299074.74 41273330.00 L 35272249.02 41323330.51 L 35290000.00 41366185.00 A 173329.42 173329.42 0 1 1 34950000.00 41366185.00 L 34967750.98 41323330.51 L 34940925.26 41273330.00 L 33654457.28 41273330.00 L 33634119.00 41323703.00 A 173329.42 173329.42 0 1 1 33346253.57 41323330.43 L 33325542.72 41273330.00 L 33004457.28 41273330.00 L 32983746.43 41323330.43 L 32994119.00 41333703.00 A 173329.42 173329.42 0 1 1 32705881.00 41333703.00 L 32716253.57 41323330.43 L 32695542.72 41273330.00 L 31781796.00 41273330.00 L 31728463.00 41326663.00 L 31672231.00 41364236.00 L 31605900.00 41377430.00 L 30743780.00 41377430.00 L 30677449.00 41364236.00 L 30621217.00 41326663.00 L 30215435.46 40919966.90 L 30202627.75 40914850.83 L 30167829.81 40910409.76 L 30152175.55 40918240.45 L 30121177.00 40949239.00 L 30058695.00 40975120.00 L 30053053.28 40975120.00 L 30032342.43 41025120.43 L 31262912.00 42255690.00 L 32751691.44 42255690.00 L 32761637.15 42205689.75 L 32733703.00 42194119.00 A 173331.37 173331.37 0 1 1 32926297.00 42194119.00 L 32898362.85 42205689.75 L 32908308.56 42255690.00 L 33431691.44 42255690.00 L 33441637.15 42205689.75 L 33413703.00 42194119.00 A 173331.37 173331.37 0 1 1 33606297.00 42194119.00 L 33578362.85 42205689.75 L 33588308.56 42255690.00 L 34047239.85 42255690.00 L 34054778.51 42205689.50 L 34045690.00 42160000.00 A 224316.90 224316.90 0 0 1 34428611.00 42001389.00 L 34438611.00 42011389.00 L 34487235.00 42084160.00 L 34504310.00 42170000.00 L 34504310.00 42480000.00 A 224312.26 224312.26 0 0 1 34280000.00 42704310.00  zM 32426296.29 32935880.71 L 32460140.71 32902036.29 A 173328.44 173328.44 0 1 1 32507963.71 32949859.29 L 32474119.29 32983703.71 A 173328.44 173328.44 0 1 1 32426296.29 32935880.71  zM 31894800.00 33075201.08 m -173329.42 0 a 173329.42 173329.42 0 1 1 346658.84 0a 173329.42 173329.42 0 1 1 -346658.84 0M 32050000.00 33940001.08 m -173329.42 0 a 173329.42 173329.42 0 1 1 346658.84 0a 173329.42 173329.42 0 1 1 -346658.84 0M 31543606.82 34815328.82 L 31534964.47 34765380.47 L 31515881.00 34746297.00 A 173329.42 173329.42 0 1 1 31756393.18 34794671.18 L 31765035.53 34844619.53 L 31784119.00 34863703.00 A 173329.42 173329.42 0 1 1 31543606.82 34815328.82  zM 32203703.00 35034119.00 L 32175000.00 35005416.00 L 32146297.00 35034119.00 A 173329.42 173329.42 0 1 1 32146297.00 34745881.00 L 32175000.00 34774584.00 L 32203703.00 34745881.00 A 173329.42 173329.42 0 1 1 32203703.00 35034119.00  zM 22864260.00 35295741.08 m -173329.42 0 a 173329.42 173329.42 0 1 1 346658.84 0a 173329.42 173329.42 0 1 1 -346658.84 0M 23515740.00 35295741.08 m -173329.42 0 a 173329.42 173329.42 0 1 1 346658.84 0a 173329.42 173329.42 0 1 1 -346658.84 0M 23220000.00 35650001.08 m -173329.42 0 a 173329.42 173329.42 0 1 1 346658.84 0a 173329.42 173329.42 0 1 1 -346658.84 0M 18848501.00 40640611.11 m -960452.75 0 a 960452.75 960452.75 0 1 1 1920905.49 0a 960452.75 960452.75 0 1 1 -1920905.49 0M 27483940.00 35476061.08 m -173329.42 0 a 173329.42 173329.42 0 1 1 346658.84 0a 173329.42 173329.42 0 1 1 -346658.84 0M 28056060.00 35476061.08 m -173329.42 0 a 173329.42 173329.42 0 1 1 346658.84 0a 173329.42 173329.42 0 1 1 -346658.84 0M 27770000.00 35770001.08 m -173329.42 0 a 173329.42 173329.42 0 1 1 346658.84 0a 173329.42 173329.42 0 1 1 -346658.84 0M 29300000.00 43213815.00 L 29300000.00 43197450.00 L 28386275.00 42283725.00 L 28357543.00 42240724.00 L 28347453.00 42190000.00 L 28347453.00 40607869.00 L 28335881.00 40596297.00 A 173329.42 173329.42 0 1 1 28624119.00 40596297.00 L 28612547.00 40607869.00 L 28612547.00 42135097.00 L 29487450.00 43010000.00 L 29503815.00 43010000.00 A 173331.37 173331.37 0 1 1 29300000.00 43213815.00  zM 30403703.00 35114119.00 L 30370000.00 35080416.00 L 30346297.00 35104119.00 A 173329.42 173329.42 0 0 1 30153703.00 35104119.00 L 30120000.00 35070416.00 L 30086297.00 35104119.00 A 173329.42 173329.42 0 0 1 29893703.00 35104119.00 L 29855000.00 35065416.00 L 29816297.00 35104119.00 A 173329.42 173329.42 0 1 1 29816297.00 34815881.00 L 29855000.00 34854584.00 L 29893703.00 34815881.00 A 173329.42 173329.42 0 0 1 30086297.00 34815881.00 L 30120000.00 34849584.00 L 30153703.00 34815881.00 A 173329.42 173329.42 0 0 1 30346297.00 34815881.00 L 30380000.00 34849584.00 L 30403703.00 34825881.00 A 173329.42 173329.42 0 1 1 30403703.00 35114119.00  zM 29730000.00 36150001.08 m -173329.42 0 a 173329.42 173329.42 0 1 1 346658.84 0a 173329.42 173329.42 0 1 1 -346658.84 0M 30720680.00 38315301.08 m -173329.42 0 a 173329.42 173329.42 0 1 1 346658.84 0a 173329.42 173329.42 0 1 1 -346658.84 0M 32040000.00 38630001.08 m -173329.42 0 a 173329.42 173329.42 0 1 1 346658.84 0a 173329.42 173329.42 0 1 1 -346658.84 0M 30820000.00 38810001.08 m -173329.42 0 a 173329.42 173329.42 0 1 1 346658.84 0a 173329.42 173329.42 0 1 1 -346658.84 0M 30630000.00 40370001.08 m -173329.42 0 a 173329.42 173329.42 0 1 1 346658.84 0a 173329.42 173329.42 0 1 1 -346658.84 0M 29709920.00 41919921.08 m -173329.42 0 a 173329.42 173329.42 0 1 1 346658.84 0a 173329.42 173329.42 0 1 1 -346658.84 0M 29980044.00 46783215.11 m -960452.75 0 a 960452.75 960452.75 0 1 1 1920905.49 0a 960452.75 960452.75 0 1 1 -1920905.49 0M 34950000.00 31470001.08 m -173329.42 0 a 173329.42 173329.42 0 1 1 346658.84 0a 173329.42 173329.42 0 1 1 -346658.84 0M 34740000.00 38673330.00 L 34260000.00 38673330.00 L 34243258.89 38670000.00 L 34226185.00 38670000.00 L 34210411.04 38663466.18 L 34193669.00 38660136.00 L 34179475.50 38650652.21 L 34163703.00 38644119.00 L 34151631.37 38632047.37 L 34137437.00 38622563.00 L 34127952.63 38608368.63 L 34115881.00 38596297.00 L 34109347.79 38580524.50 L 34099864.00 38566331.00 L 34096533.82 38549588.96 L 34090000.00 38533815.00 L 34090000.00 38516741.11 L 34086670.00 38500000.00 L 34090000.00 38483258.89 L 34090000.00 38466185.00 L 34096533.82 38450411.04 L 34099864.00 38433669.00 L 34109347.79 38419475.50 L 34115881.00 38403703.00 L 34127952.63 38391631.37 L 34137437.00 38377437.00 L 34151631.37 38367952.63 L 34163703.00 38355881.00 L 34179475.50 38349347.79 L 34193669.00 38339864.00 L 34210411.04 38336533.82 L 34226185.00 38330000.00 L 34243258.89 38330000.00 L 34260000.00 38326670.00 L 34668204.00 38326670.00 L 36519803.04 36475070.96 L 36491480.15 36432682.83 L 36473815.00 36440000.00 A 173329.42 173329.42 0 0 1 36295881.00 36366297.00 L 36289988.98 36352072.45 L 36235868.87 36352072.45 L 36234119.00 36356297.00 A 173331.37 173331.37 0 0 1 35945881.00 36356297.00 L 35934131.13 36327930.42 L 35880011.02 36327930.42 L 35864119.00 36366297.00 A 173331.37 173331.37 0 1 1 35575881.00 36173703.00 L 35589584.00 36160000.00 L 35565881.00 36136297.00 A 173329.42 173329.42 0 0 1 35565881.00 35943703.00 L 35594584.00 35915000.00 L 35555881.00 35876297.00 A 173329.42 173329.42 0 1 1 35844119.00 35876297.00 L 35815416.00 35905000.00 L 35854119.00 35943703.00 L 35873805.82 35991230.98 L 35926194.18 35991230.98 L 35945881.00 35943703.00 L 35974584.00 35915000.00 L 35945881.00 35886297.00 A 173329.42 173329.42 0 0 1 36234119.00 35693703.00 L 36250011.02 35732069.58 L 36304131.13 35732069.58 L 36315881.00 35703703.00 A 173331.37 173331.37 0 1 1 36604119.00 35896297.00 L 36580416.00 35920000.00 L 36604119.00 35943703.00 A 173329.42 173329.42 0 0 1 36604119.00 36136297.00 L 36575416.00 36165000.00 L 36584119.00 36173703.00 L 36610000.00 36236185.00 L 36610000.00 36303815.00 L 36602682.83 36321480.15 L 36645070.96 36349803.04 L 37086874.16 35907999.84 L 37058551.26 35865611.71 L 37023815.00 35880000.00 A 173329.42 173329.42 0 0 1 36893703.00 35565881.00 L 36919998.56 35554988.98 L 36919998.56 35500868.87 L 36903703.00 35494119.00 A 173331.37 173331.37 0 1 1 37096297.00 35494119.00 L 37070001.44 35505011.02 L 37070001.44 35559131.13 L 37086297.00 35565881.00 A 173331.37 173331.37 0 0 1 37160000.00 35743815.00 L 37145611.71 35778551.26 L 37187999.84 35806874.16 L 38776670.00 34218204.00 L 38776670.00 33680000.00 L 38789864.00 33613669.00 L 38827437.00 33557437.00 L 39986670.00 32398204.00 L 39986670.00 27407316.00 L 39711917.00 27132563.00 L 39702433.14 27118369.14 L 39690361.00 27106297.00 L 39683826.98 27090522.54 L 39674344.00 27076330.00 L 39671014.10 27059589.65 L 39664480.00 27043815.00 L 39664480.00 27026740.86 L 39661150.00 27010000.00 L 39664480.00 26993259.14 L 39664480.00 26976185.00 L 39671014.10 26960410.35 L 39674344.00 26943670.00 L 39683826.98 26929477.46 L 39690361.00 26913703.00 L 39702433.14 26901630.86 L 39711917.00 26887437.00 L 39726110.86 26877953.14 L 39738183.00 26865881.00 L 39753957.46 26859346.98 L 39768150.00 26849864.00 L 39784890.35 26846534.10 L 39800665.00 26840000.00 L 39817739.14 26840000.00 L 39834480.00 26836670.00 L 39851220.86 26840000.00 L 39868295.00 26840000.00 L 39884069.65 26846534.10 L 39900810.00 26849864.00 L 39915002.54 26859346.98 L 39930777.00 26865881.00 L 39942849.14 26877953.14 L 39957043.00 26887437.00 L 40186126.46 27116520.46 L 40239468.66 27099151.31 L 40242266.02 27081344.02 L 39745743.00 26584821.00 L 39220331.33 26584821.00 L 39213542.54 26587633.02 L 39199350.00 26597116.00 L 39182609.65 26600445.90 L 39166835.00 26606980.00 L 39149760.86 26606980.00 L 39133020.00 26610310.00 L 39116279.14 26606980.00 L 39099205.00 26606980.00 L 39083430.35 26600445.90 L 39066690.00 26597116.00 L 39052497.46 26587633.02 L 39045708.67 26584821.00 L 37914257.00 26584821.00 L 37266278.47 27232799.53 L 37244119.00 27286297.00 A 173331.37 173331.37 0 1 1 37057200.47 27023721.53 L 37748481.00 26332441.00 L 37796444.00 26300393.00 L 37853020.00 26289139.00 L 38674724.25 26289139.00 L 38693858.60 26242944.60 L 38516817.00 26065903.00 L 38479244.00 26009671.00 L 38466050.00 25943340.00 L 38466050.00 24469380.00 L 38469380.00 24452638.89 L 38469380.00 24435565.00 L 38475913.82 24419791.04 L 38479244.00 24403049.00 L 38488727.79 24388855.50 L 38495261.00 24373083.00 L 38507332.63 24361011.37 L 38516817.00 24346817.00 L 38531011.37 24337332.63 L 38543083.00 24325261.00 L 38558855.50 24318727.79 L 38573049.00 24309244.00 L 38589791.04 24305913.82 L 38605565.00 24299380.00 L 38622638.89 24299380.00 L 38639380.00 24296050.00 L 38656121.11 24299380.00 L 38673195.00 24299380.00 L 38688968.96 24305913.82 L 38705711.00 24309244.00 L 38719904.50 24318727.79 L 38735677.00 24325261.00 L 38747748.63 24337332.63 L 38761943.00 24346817.00 L 38771427.37 24361011.37 L 38783499.00 24373083.00 L 38790032.21 24388855.50 L 38799516.00 24403049.00 L 38802846.18 24419791.04 L 38809380.00 24435565.00 L 38809380.00 24452638.89 L 38812710.00 24469380.00 L 38812710.00 25871544.00 L 39230305.00 26289139.00 L 39806980.00 26289139.00 L 39863556.00 26300393.00 L 39911519.00 26332441.00 L 40514539.00 26935461.00 L 40546587.00 26983424.00 L 40557841.00 27040000.00 L 40557841.00 32691020.00 L 40546587.00 32747596.00 L 40514540.00 32795558.00 L 39651798.75 33658318.84 L 39629639.00 33711817.00 A 173331.37 173331.37 0 0 1 39315520.00 33649335.00 L 39315520.00 33630317.28 L 39265519.57 33609606.43 L 39123330.00 33751796.00 L 39123330.00 34290000.00 L 39110136.00 34356331.00 L 39072563.00 34412563.00 L 34862563.00 38622563.00 L 34806331.00 38660136.00 L 34740000.00 38673330.00  zM 33969560.00 31646761.08 m -173329.42 0 a 173329.42 173329.42 0 1 1 346658.84 0a 173329.42 173329.42 0 1 1 -346658.84 0M 34930000.00 31874181.08 m -173329.42 0 a 173329.42 173329.42 0 1 1 346658.84 0a 173329.42 173329.42 0 1 1 -346658.84 0M 34080000.00 32235281.08 m -173329.42 0 a 173329.42 173329.42 0 1 1 346658.84 0a 173329.42 173329.42 0 1 1 -346658.84 0M 29923815.00 39890000.00 A 173329.42 173329.42 0 1 1 29923815.00 39550000.00 L 29977311.33 39572159.00 L 30548763.00 39572159.00 L 31192159.00 38928763.00 L 31192159.00 38620000.00 L 31203413.00 38563424.00 L 31235461.00 38515461.00 L 32762159.00 36988762.03 L 32762159.00 33530000.00 L 32773413.00 33473424.00 L 32805461.00 33425461.00 L 33372159.00 32858762.07 L 33372159.00 32340975.12 L 33332389.78 32328824.63 L 33322158.61 32328257.39 A 169780.11 169780.11 0 1 1 33276297.00 32085881.00 L 33322158.61 32131742.61 L 33332389.78 32131175.37 L 33372159.00 32119024.88 L 33372159.00 31400000.00 L 33383413.00 31343424.00 L 33415461.00 31295461.00 L 34002159.00 30708762.07 L 34002159.00 29063520.00 L 34013413.00 29006944.00 L 34045461.00 28958981.00 L 35618980.00 27385461.00 L 35666943.00 27353413.00 L 35723520.00 27342159.00 L 36178762.97 27342159.00 L 37260920.80 26260000.43 L 37240209.94 26210000.00 L 37216185.00 26210000.00 A 173331.37 173331.37 0 0 1 37080000.00 26006185.00 L 37086703.86 25990000.52 L 37053294.63 25940000.00 L 37036185.00 25940000.00 A 173331.37 173331.37 0 1 1 37240000.00 25803815.00 L 37233296.14 25819999.48 L 37266705.37 25870000.00 L 37283815.00 25870000.00 A 173331.37 173331.37 0 0 1 37420000.00 26006185.00 L 37420000.00 26030209.82 L 37470000.43 26050920.66 L 37552159.00 25968762.03 L 37552159.00 25611237.89 L 37267200.20 25326278.36 L 37213703.00 25304119.00 A 173331.37 173331.37 0 1 1 37476278.36 25117200.20 L 37804539.00 25445460.00 L 37836587.00 25493423.00 L 37847841.00 25550000.00 L 37847841.00 26030000.00 L 37836587.00 26086576.00 L 37804540.00 26134539.00 L 36413338.47 27525739.57 L 36434049.32 27575740.00 L 36449555.00 27575740.00 A 173331.37 173331.37 0 1 1 36245740.00 27711925.00 L 36256684.74 27685502.17 L 36251912.67 27671870.97 L 36222306.53 27637841.00 L 35784757.97 27637841.00 L 35741223.84 27681375.10 L 35752955.57 27740354.78 L 35766297.00 27745881.00 A 173331.37 173331.37 0 0 1 35814119.00 27986297.00 L 35803335.73 27997080.27 L 35805771.72 28065355.72 L 35824119.00 28083703.00 A 173329.42 173329.42 0 1 1 35535881.00 28083703.00 L 35546664.27 28072919.73 L 35544228.28 28004644.28 L 35525881.00 27986297.00 L 35520354.73 27972955.47 L 35461375.05 27961223.72 L 34297841.00 29124757.03 L 34297841.00 30770000.00 L 34286587.00 30826576.00 L 34254540.00 30874539.00 L 33667841.00 31461237.07 L 33667841.00 32920000.00 L 33656587.00 32976577.00 L 33624539.00 33024540.00 L 33057841.00 33591237.07 L 33057841.00 37050000.00 L 33046587.00 37106577.00 L 33014539.00 37154540.00 L 31487841.00 38681237.03 L 31487841.00 38990000.00 L 31476587.00 39046576.00 L 31444539.00 39094539.00 L 30714539.00 39824539.00 L 30666576.00 39856587.00 L 30610000.00 39867841.00 L 29977311.33 39867841.00 L 29923815.00 39890000.00  zM 35143703.00 33554119.00 L 35107664.45 33518080.45 L 35087134.80 33507810.95 L 35045380.47 33515035.53 L 35016297.00 33544119.00 A 173329.42 173329.42 0 0 1 34823703.00 33544119.00 L 34791690.59 33512106.59 L 34760000.00 33501575.25 L 34728309.41 33512106.59 L 34696297.00 33544119.00 A 173329.42 173329.42 0 0 1 34503703.00 33544119.00 L 34482664.44 33523080.44 L 34450000.00 33500384.24 L 34417335.56 33523080.44 L 34396297.00 33544119.00 A 173329.42 173329.42 0 0 1 34203703.00 33544119.00 L 34160000.00 33500416.00 L 34116297.00 33544119.00 A 173329.42 173329.42 0 0 1 33923703.00 33544119.00 L 33892664.44 33513080.44 L 33870895.25 33497954.57 L 33828309.41 33512106.59 L 33806297.00 33534119.00 A 173329.42 173329.42 0 1 1 33806297.00 33245881.00 L 33837335.56 33276919.56 L 33859104.75 33292045.43 L 33901690.59 33277893.41 L 33923703.00 33255881.00 A 173329.42 173329.42 0 0 1 34116297.00 33255881.00 L 34160000.00 33299584.00 L 34203703.00 33255881.00 A 173329.42 173329.42 0 0 1 34396297.00 33255881.00 L 34417335.56 33276919.56 L 34450000.00 33299615.76 L 34482664.44 33276919.56 L 34503703.00 33255881.00 A 173329.42 173329.42 0 0 1 34696297.00 33255881.00 L 34728309.41 33287893.41 L 34760000.00 33298424.75 L 34791690.59 33287893.41 L 34823703.00 33255881.00 A 173329.42 173329.42 0 0 1 35016297.00 33255881.00 L 35052335.55 33291919.55 L 35072865.20 33302189.05 L 35114619.53 33294964.47 L 35143703.00 33265881.00 A 173329.42 173329.42 0 1 1 35143703.00 33554119.00  zM 37026185.00 34130000.00 L 37043294.63 34130000.00 L 37076703.86 34079999.48 L 37070000.00 34063815.00 L 37070000.00 33996185.00 L 37095881.00 33933703.00 L 37109584.00 33920000.00 L 37095881.00 33906297.00 A 173329.42 173329.42 0 0 1 37206185.00 33640000.00 L 37246726.07 33640000.00 L 37281102.90 33619198.02 L 37290000.00 33593805.54 L 37290000.00 33546185.00 A 173331.37 173331.37 0 1 1 37493815.00 33750000.00 L 37453273.93 33750000.00 L 37418897.10 33770801.98 L 37410000.00 33796194.46 L 37410000.00 33843815.00 L 37384119.00 33906297.00 L 37370416.00 33920000.00 L 37384119.00 33933703.00 L 37410000.00 33996185.00 L 37410000.03 34063814.00 L 37413080.79 34072604.96 L 37444989.66 34110000.00 L 37493815.00 34110000.00 A 173331.37 173331.37 0 1 1 37290000.00 34313815.00 L 37289999.98 34273962.70 L 37255371.42 34244093.72 L 37230000.00 34266185.77 A 173328.43 173328.43 0 1 1 37026185.00 34130000.00  zM 34220000.00 34620001.08 m -173329.42 0 a 173329.42 173329.42 0 1 1 346658.84 0a 173329.42 173329.42 0 1 1 -346658.84 0M 33480000.00 35643461.08 m -173329.42 0 a 173329.42 173329.42 0 1 1 346658.84 0a 173329.42 173329.42 0 1 1 -346658.84 0M 32470000.00 35720001.08 m -173329.42 0 a 173329.42 173329.42 0 1 1 346658.84 0a 173329.42 173329.42 0 1 1 -346658.84 0M 34260000.00 36730001.08 m -173329.42 0 a 173329.42 173329.42 0 1 1 346658.84 0a 173329.42 173329.42 0 1 1 -346658.84 0M 34580000.00 34850001.08 m -173329.42 0 a 173329.42 173329.42 0 1 1 346658.84 0a 173329.42 173329.42 0 1 1 -346658.84 0M 34503703.00 36184119.00 L 34485000.00 36165416.00 L 34466297.00 36184119.00 A 173329.42 173329.42 0 1 1 34336184.28 35870000.30 L 34353862.79 35819999.51 L 34344160.00 35796575.00 A 173329.42 173329.42 0 1 1 34684160.00 35796575.00 L 34669961.80 35830852.34 L 34689570.21 35893094.66 L 34696297.00 35895881.00 A 173331.37 173331.37 0 1 1 34503703.00 36184119.00  zM 34920000.00 34610001.08 m -173329.42 0 a 173329.42 173329.42 0 1 1 346658.84 0a 173329.42 173329.42 0 1 1 -346658.84 0M 37010000.00 34840001.08 m -173329.42 0 a 173329.42 173329.42 0 1 1 346658.84 0a 173329.42 173329.42 0 1 1 -346658.84 0M 33974340.00 37045661.08 m -173329.42 0 a 173329.42 173329.42 0 1 1 346658.84 0a 173329.42 173329.42 0 1 1 -346658.84 0M 36100000.00 37710001.08 m -173329.42 0 a 173329.42 173329.42 0 1 1 346658.84 0a 173329.42 173329.42 0 1 1 -346658.84 0M 34650000.00 39550001.08 m -173329.42 0 a 173329.42 173329.42 0 1 1 346658.84 0a 173329.42 173329.42 0 1 1 -346658.84 0M 36090000.00 38940001.08 m -173329.42 0 a 173329.42 173329.42 0 1 1 346658.84 0a 173329.42 173329.42 0 1 1 -346658.84 0M 39935439.76 39579918.92 m -80284.08 0 a 80284.08 80284.08 0 1 1 160568.17 0a 80284.08 80284.08 0 1 1 -160568.17 0M 40098889.00 41794976.00 L 40060274.98 41756361.98 L 40055969.00 41734715.00 L 40027689.00 41692391.00 L 40022280.01 41688776.83 L 40013067.00 41666535.00 L 40013067.00 41587785.00 L 40043204.00 41515029.00 L 40088553.00 41469680.00 L 40043204.00 41424331.00 L 40025544.71 41381698.37 L 39974814.11 41352673.00 L 39896065.00 41352673.00 L 39823309.00 41322536.00 L 39788040.00 41287267.00 L 39329460.00 41287267.00 L 39278736.00 41277177.00 L 39235735.00 41248445.00 L 38716275.00 40728985.00 L 38687543.00 40685984.00 L 38677453.00 40635260.00 L 38677453.00 40124740.00 L 38687543.00 40074016.00 L 38716275.00 40031015.00 L 38851015.00 39896275.00 L 38894016.00 39867543.00 L 38944740.00 39857453.00 L 39715600.00 39857453.00 L 39766324.00 39867543.00 L 39809325.00 39896275.00 L 39924937.00 40011887.00 L 39974815.00 40011887.00 L 39999442.29 40022088.12 L 40013067.32 40012984.22 L 40043204.00 39940229.00 L 40088553.00 39894880.00 L 40043204.00 39849531.00 L 40013067.00 39776775.00 L 40013067.00 39698025.00 L 40022280.01 39675783.17 L 40027689.00 39672169.00 L 40055969.00 39629845.00 L 40060274.98 39608198.02 L 40098889.00 39569584.00 A 201827.66 201827.66 0 0 1 40378836.00 39849531.00 L 40333487.00 39894880.00 L 40378836.00 39940229.00 A 201827.66 201827.66 0 0 1 40378836.00 40164491.00 L 40333487.00 40209840.00 L 40378836.00 40255189.00 A 201827.66 201827.66 0 0 1 40171645.00 40565273.00 L 40147017.71 40555071.88 L 40133392.68 40564175.78 L 40103256.00 40636931.00 L 40057907.00 40682280.00 L 40103256.00 40727629.00 L 40120915.29 40770261.63 L 40171645.89 40799287.00 A 201826.52 201826.52 0 0 1 40378836.00 41109371.00 L 40333487.00 41154720.00 L 40378836.00 41200069.00 A 201827.66 201827.66 0 0 1 40378836.00 41424331.00 L 40333487.00 41469680.00 L 40378836.00 41515029.00 A 201827.66 201827.66 0 0 1 40098889.00 41794976.00  zM 40289770.00 39156653.00 L 40053550.00 39156653.00 A 100353.26 100353.26 0 0 1 40053550.00 38955947.00 L 40289770.00 38955947.00 A 100353.26 100353.26 0 0 1 40289770.00 39156653.00  zM 42018110.00 39014913.00 L 41781890.00 39014913.00 A 100353.26 100353.26 0 1 1 41781890.00 38814207.00 L 42018110.00 38814207.00 A 100353.26 100353.26 0 0 1 42018110.00 39014913.00  zM 35120000.00 42040001.08 m -173329.42 0 a 173329.42 173329.42 0 1 1 346658.84 0a 173329.42 173329.42 0 1 1 -346658.84 0M 35770000.00 42010001.08 m -173329.42 0 a 173329.42 173329.42 0 1 1 346658.84 0a 173329.42 173329.42 0 1 1 -346658.84 0M 39935439.76 41784638.92 m -80284.08 0 a 80284.08 80284.08 0 1 1 160568.17 0a 80284.08 80284.08 0 1 1 -160568.17 0M 39477689.00 42158655.00 L 39477689.00 42040545.00 A 201826.85 201826.85 0 0 1 39881351.00 42040545.00 L 39881351.00 42158655.00 A 201826.85 201826.85 0 1 1 39477689.00 42158655.00  zM 40289770.00 42408613.00 L 40053550.00 42408613.00 A 100353.26 100353.26 0 0 1 40053550.00 42207907.00 L 40289770.00 42207907.00 A 100353.26 100353.26 0 0 1 40289770.00 42408613.00  zM 42018110.00 42550353.00 L 41781890.00 42550353.00 A 100353.26 100353.26 0 1 1 41781890.00 42349647.00 L 42018110.00 42349647.00 A 100353.26 100353.26 0 0 1 42018110.00 42550353.00  zM 41158420.00 44135741.45 m -457772.82 0 a 457772.82 457772.82 0 1 1 915545.64 0a 457772.82 457772.82 0 1 1 -915545.64 0M 41350349.00 46560378.00 L 40966491.00 46560378.00 A 264188.23 264188.23 0 0 1 40702302.00 46296189.00 L 40702302.00 45912331.00 A 264188.23 264188.23 0 0 1 40966491.00 45648142.00 L 41350349.00 45648142.00 A 264188.23 264188.23 0 0 1 41614538.00 45912331.00 L 41614538.00 46296189.00 A 264188.23 264188.23 0 0 1 41350349.00 46560378.00  z"/>
<path id="N" d="M 30720679.95 38315299.95 m -101959.21 0 a 101959.21 101959.21 0 1 1 203918.42 0a 101959.21 101959.21 0 1 1 -203918.42 0"/>
<path id="N" d="M 39843191.00 41062471.00 L 39824946.38 41089776.00 L 39356360.96 41089776.00 L 38874944.00 40608359.96 L 38874944.00 40151640.00 L 38971640.00 40054944.00 L 39688699.91 40054944.00 L 39811386.86 40177631.51 L 39804980.00 40209840.00 A 130461.68 130461.68 0 1 0 39935440.00 40079380.00 L 39903231.51 40085786.86 L 39761522.00 39944078.00 L 39715600.00 39925056.00 L 38944740.00 39925056.00 L 38898818.00 39944078.00 L 38764078.00 40078818.00 L 38745056.00 40124740.00 L 38745056.00 40635260.00 L 38764078.00 40681182.00 L 39283537.00 41200642.00 L 39329460.00 41219664.00 L 39824946.38 41219664.00 L 39843191.00 41246969.00 A 130461.68 130461.68 0 1 0 39843191.00 41062471.00  zM 39935439.76 40209838.92 m -80284.08 0 a 80284.08 80284.08 0 1 1 160568.17 0a 80284.08 80284.08 0 1 1 -160568.17 0M 39935439.76 41154718.92 m -80284.08 0 a 80284.08 80284.08 0 1 1 160568.17 0a 80284.08 80284.08 0 1 1 -160568.17 0"/>
<path id="N" d="M 29470000.00 43078041.00 L 29461563.95 43079719.00 L 28544944.00 42163099.98 L 28544944.00 40576874.81 L 28552096.00 40572096.00 A 101958.15 101958.15 0 1 0 28407904.00 40572096.00 L 28415056.00 40576874.81 L 28415056.00 42190000.00 L 28434078.00 42235922.00 L 29369719.00 43171563.95 L 29368041.00 43180000.00 A 101958.15 101958.15 0 1 0 29470000.00 43078041.00  z"/>
<path id="N" d="M 22459999.95 23870859.95 m -101959.21 0 a 101959.21 101959.21 0 1 1 203918.42 0a 101959.21 101959.21 0 1 1 -203918.42 0"/>
<path id="N" d="M 29980045.97 46783221.97 m -890107.13 0 a 890107.13 890107.13 0 1 1 1780214.27 0a 890107.13 890107.13 0 1 1 -1780214.27 0"/>
<path id="N" d="M 18848502.97 40640617.97 m -890107.13 0 a 890107.13 890107.13 0 1 1 1780214.27 0a 890107.13 890107.13 0 1 1 -1780214.27 0"/>
<path id="N" d="M 18890691.97 29592494.97 m -890107.13 0 a 890107.13 890107.13 0 1 1 1780214.27 0a 890107.13 890107.13 0 1 1 -1780214.27 0"/>
<path id="N" d="M 30063898.00 40710922.00 L 30032600.71 40704696.71 L 29226429.00 39898525.00 L 29226429.00 38176440.00 L 29220608.00 38147176.00 L 29204032.00 38122368.00 L 29091469.00 38009805.00 L 29091469.00 37870194.25 L 29099072.00 37862592.00 L 29115648.00 37837783.00 L 29121469.00 37808520.00 L 29121469.00 37386415.00 L 29204032.00 37303852.00 L 29220608.00 37279044.00 L 29226429.00 37249780.00 L 29226429.00 34591715.00 L 29684072.00 34134072.00 L 29700648.00 34109264.00 L 29706469.00 34080000.00 L 29706469.00 31201674.98 L 30879592.00 30028552.00 L 30896168.00 30003743.00 L 30901989.00 29974474.97 L 30901989.00 26520031.34 L 30919718.00 26493498.00 A 101960.92 101960.92 0 1 0 30731322.00 26493498.00 L 30749051.00 26520031.34 L 30749051.00 29942805.98 L 29575928.00 31115928.00 L 29559352.00 31140736.00 L 29553531.00 31170000.00 L 29553531.00 34048325.00 L 29095888.00 34505968.00 L 29079312.00 34530776.00 L 29073491.00 34560040.00 L 29073491.00 37218105.00 L 28990928.00 37300668.00 L 28974352.00 37325476.00 L 28968531.00 37354740.00 L 28968531.00 37776845.25 L 28960928.00 37784448.00 L 28944352.00 37809256.00 L 28938531.00 37838520.00 L 28938531.00 38041480.00 L 28944352.00 38070744.00 L 28960928.00 38095552.00 L 29073491.00 38208115.00 L 29073491.00 39930200.00 L 29079312.00 39959464.00 L 29095888.00 39984272.00 L 29924456.71 40812840.71 L 29930682.00 40844138.00 A 101959.21 101959.21 0 1 0 30063898.00 40710922.00  z"/>
<path id="N" d="M 39579718.00 33654538.00 L 39585943.78 33623238.21 L 40464072.00 32745092.00 L 40480648.00 32720283.00 L 40486469.00 32691020.00 L 40486469.00 27040000.00 L 40480648.00 27010736.00 L 40464072.00 26985928.00 L 39861052.00 26382908.00 L 39836244.00 26366332.00 L 39806980.00 26360511.00 L 39200743.00 26360511.00 L 38741339.00 25901107.00 L 38741339.00 24469380.00 A 101958.15 101958.15 0 1 0 38537421.00 24469380.00 L 38537421.00 25943340.00 L 38545182.00 25982358.00 L 38567284.00 26015436.00 L 38912359.00 26360511.00 L 37853020.00 26360511.00 L 37823756.00 26366332.00 L 37798948.00 26382908.00 L 37092279.29 27089576.71 L 37060982.00 27095802.00 A 101959.21 101959.21 0 1 0 37200423.29 27197720.71 L 37884695.00 26513449.00 L 39067468.66 26513449.00 L 39094002.00 26531178.00 L 39133020.00 26538939.00 L 39172038.00 26531178.00 L 39198571.34 26513449.00 L 39775305.00 26513449.00 L 40333531.00 27071675.00 L 40333531.00 32659345.51 L 39477799.22 33515096.73 L 39446502.00 33521322.00 A 101959.21 101959.21 0 1 0 39579718.00 33654538.00  z"/>
<path id="N" d="M 25193339.95 36046659.95 m -101959.21 0 a 101959.21 101959.21 0 1 1 203918.42 0a 101959.21 101959.21 0 1 1 -203918.42 0"/>
<path id="N" d="M 37569999.95 31329999.95 m -101959.21 0 a 101959.21 101959.21 0 1 1 203918.42 0a 101959.21 101959.21 0 1 1 -203918.42 0"/>
<path id="N" d="M 38159999.95 28169999.95 m -101959.21 0 a 101959.21 101959.21 0 1 1 203918.42 0a 101959.21 101959.21 0 1 1 -203918.42 0"/>
<path id="N" d="M 31974999.95 25159999.95 m -101959.21 0 a 101959.21 101959.21 0 1 1 203918.42 0a 101959.21 101959.21 0 1 1 -203918.42 0"/>
<path id="N" d="M 38479999.95 28169999.95 m -101959.21 0 a 101959.21 101959.21 0 1 1 203918.42 0a 101959.21 101959.21 0 1 1 -203918.42 0"/>
<path id="N" d="M 38319999.95 28429999.95 m -101959.21 0 a 101959.21 101959.21 0 1 1 203918.42 0a 101959.21 101959.21 0 1 1 -203918.42 0"/>
<path id="N" d="M 31739999.95 25459999.95 m -101959.21 0 a 101959.21 101959.21 0 1 1 203918.42 0a 101959.21 101959.21 0 1 1 -203918.42 0"/>
<path id="N" d="M 32164999.95 25459999.95 m -101959.21 0 a 101959.21 101959.21 0 1 1 203918.42 0a 101959.21 101959.21 0 1 1 -203918.42 0"/>
<path id="N" d="M 39259999.95 30289999.95 m -101959.21 0 a 101959.21 101959.21 0 1 1 203918.42 0a 101959.21 101959.21 0 1 1 -203918.42 0"/>
<path id="N" d="M 23969939.95 31756039.95 m -101959.21 0 a 101959.21 101959.21 0 1 1 203918.42 0a 101959.21 101959.21 0 1 1 -203918.42 0"/>
<path id="N" d="M 34432939.00 42480000.00 L 34432939.00 42170000.00 L 34421297.00 42111473.00 L 34388144.00 42061856.00 L 34378144.00 42051856.00 A 152940.51 152940.51 0 0 0 34117061.00 42160000.00 L 34127061.00 42210272.29 L 34127061.00 42327061.00 L 31233349.00 42327061.00 L 28932939.00 40026651.00 L 28932939.00 38181240.00 L 28921297.00 38122712.00 L 28902939.00 38095237.85 L 28902939.00 37784762.15 L 28921297.00 37757288.00 L 28932939.00 37698760.00 L 28932939.00 32520000.00 L 28921297.00 32461473.00 L 28888144.00 32411856.00 L 28508144.00 32031856.00 L 28458527.00 31998703.00 L 28400000.00 31987061.00 L 25153349.00 31987061.00 L 24278144.00 31111856.00 L 24228527.00 31078703.00 L 24170000.00 31067061.00 L 23880000.00 31067061.00 A 152940.51 152940.51 0 1 0 23880000.00 31372939.00 L 24106651.00 31372939.00 L 24981856.00 32248144.00 L 25031473.00 32281297.00 L 25090000.00 32292939.00 L 28336651.00 32292939.00 L 28627061.00 32583349.00 L 28627061.00 37642758.30 L 28608703.00 37670233.00 L 28597061.00 37728760.00 L 28597061.00 38151240.00 L 28608703.00 38209767.00 L 28627061.00 38237241.70 L 28627061.00 40090000.00 L 28638703.00 40148527.00 L 28671856.00 40198144.00 L 31061856.00 42588144.00 L 31111472.00 42621297.00 L 31170000.00 42632939.00 L 34280000.00 42632939.00 A 152938.82 152938.82 0 0 0 34432939.00 42480000.00  z"/>
<path id="N" d="M 31677996.00 41276196.00 L 31752233.00 41201959.00 L 37280000.00 41201959.00 L 37319018.00 41194198.00 L 37352096.00 41172096.00 L 41082096.00 37442096.00 L 41104198.00 37409018.00 L 41111959.00 37370000.00 L 41111959.00 25586920.00 L 41104198.00 25547901.00 L 41082096.00 25514824.00 L 39639336.00 24072084.00 A 101958.15 101958.15 0 1 0 39495147.01 24216278.01 L 40908041.00 25629153.39 L 40908041.00 37327767.00 L 37237767.00 40998041.00 L 31710000.00 40998041.00 L 31670982.00 41005802.00 L 31637904.00 41027904.00 L 31563667.00 41102141.00 L 30786013.00 41102141.00 L 30411936.00 40728064.00 A 101958.15 101958.15 0 0 0 30267744.00 40872256.00 L 30671684.00 41276196.00 L 30704762.00 41298298.00 L 30743780.00 41306059.00 L 31605900.00 41306059.00 L 31644918.00 41298298.00 L 31677996.00 41276196.00  z"/>
<path id="N" d="M 40211020.38 39737400.38 m -130459.26 0 a 130459.26 130459.26 0 1 1 260918.51 0a 130459.26 130459.26 0 1 1 -260918.51 0M 40211019.76 39737398.92 m -80284.08 0 a 80284.08 80284.08 0 1 1 160568.17 0a 80284.08 80284.08 0 1 1 -160568.17 0"/>
<path id="N" d="M 40211020.38 40052360.38 m -130459.26 0 a 130459.26 130459.26 0 1 1 260918.51 0a 130459.26 130459.26 0 1 1 -260918.51 0M 40211019.76 40052358.92 m -80284.08 0 a 80284.08 80284.08 0 1 1 160568.17 0a 80284.08 80284.08 0 1 1 -160568.17 0"/>
<path id="N" d="M 40211020.38 41312200.38 m -130459.26 0 a 130459.26 130459.26 0 1 1 260918.51 0a 130459.26 130459.26 0 1 1 -260918.51 0M 40211019.76 41312198.92 m -80284.08 0 a 80284.08 80284.08 0 1 1 160568.17 0a 80284.08 80284.08 0 1 1 -160568.17 0"/>
<path id="N" d="M 40211020.38 40367320.38 m -130459.26 0 a 130459.26 130459.26 0 1 1 260918.51 0a 130459.26 130459.26 0 1 1 -260918.51 0M 40211019.76 40367318.92 m -80284.08 0 a 80284.08 80284.08 0 1 1 160568.17 0a 80284.08 80284.08 0 1 1 -160568.17 0"/>
<path id="N" d="M 40211020.38 41627160.38 m -130459.26 0 a 130459.26 130459.26 0 1 1 260918.51 0a 130459.26 130459.26 0 1 1 -260918.51 0M 40211019.76 41627158.92 m -80284.08 0 a 80284.08 80284.08 0 1 1 160568.17 0a 80284.08 80284.08 0 1 1 -160568.17 0"/>
<path id="N" d="M 28569999.95 29579999.95 m -101959.21 0 a 101959.21 101959.21 0 1 1 203918.42 0a 101959.21 101959.21 0 1 1 -203918.42 0"/>
<path id="N" d="M 30365659.95 31425659.95 m -101959.21 0 a 101959.21 101959.21 0 1 1 203918.42 0a 101959.21 101959.21 0 1 1 -203918.42 0"/>
<path id="N" d="M 22677188.95 23307188.95 m -101959.21 0 a 101959.21 101959.21 0 1 1 203918.42 0a 101959.21 101959.21 0 1 1 -203918.42 0"/>
<path id="N" d="M 28074448.66 32623531.00 L 23821675.00 32623531.00 L 22746469.00 31548325.00 L 22746469.00 29935551.34 L 22764198.00 29909018.00 A 101960.92 101960.92 0 1 0 22575802.00 29909018.00 L 22593531.00 29935551.34 L 22593531.00 31580000.00 L 22599352.00 31609264.00 L 22615928.00 31634072.00 L 23735928.00 32754072.00 L 23760736.00 32770648.00 L 23790000.00 32776469.00 L 28074448.66 32776469.00 L 28100982.00 32794198.00 A 101960.92 101960.92 0 1 0 28074448.66 32623531.00  z"/>
<path id="N" d="M 27820160.00 36148201.00 L 27342393.00 36148201.00 L 25402096.00 34207904.00 L 25369018.00 34185802.00 L 25330000.00 34178041.00 L 24522233.00 34178041.00 L 22101959.00 31757767.00 L 22101959.00 28952233.00 L 22542096.00 28512096.00 A 101958.15 101958.15 0 1 0 22397904.00 28367904.00 L 21927904.00 28837904.00 L 21905802.00 28870982.00 L 21898041.00 28910000.00 L 21898041.00 31800000.00 L 21905802.00 31839018.00 L 21927904.00 31872096.00 L 24407904.00 34352096.00 L 24440982.00 34374198.00 L 24480000.00 34381959.00 L 25287767.00 34381959.00 L 27228064.00 36322256.00 L 27261142.00 36344358.00 L 27300160.00 36352119.00 L 27820160.00 36352119.00 A 101959.21 101959.21 0 0 0 27820160.00 36148201.00  z"/>
<path id="N" d="M 28096102.00 37420922.00 L 28092457.76 37423357.00 L 26332109.75 37423357.00 L 24199532.82 35290799.54 L 24198678.00 35286502.00 A 101959.21 101959.21 0 1 0 24065462.00 35419718.00 L 24069760.25 35420572.96 L 26229214.00 37580006.00 L 26258984.00 37599898.00 L 26294100.00 37606883.00 L 28092457.76 37606883.00 L 28096102.00 37609318.00 A 101960.92 101960.92 0 1 0 28096102.00 37420922.00  z"/>
<path id="N" d="M 33179999.95 32229999.95 m -101959.21 0 a 101959.21 101959.21 0 1 1 203918.42 0a 101959.21 101959.21 0 1 1 -203918.42 0"/>
<path id="N" d="M 37609999.95 29129999.95 m -101959.21 0 a 101959.21 101959.21 0 1 1 203918.42 0a 101959.21 101959.21 0 1 1 -203918.42 0"/>
<path id="N" d="M 23199999.95 29539999.95 m -101959.21 0 a 101959.21 101959.21 0 1 1 203918.42 0a 101959.21 101959.21 0 1 1 -203918.42 0"/>
<path id="N" d="M 39254999.95 28783539.95 m -101959.21 0 a 101959.21 101959.21 0 1 1 203918.42 0a 101959.21 101959.21 0 1 1 -203918.42 0"/>
<path id="N" d="M 31894799.95 33075199.95 m -101959.21 0 a 101959.21 101959.21 0 1 1 203918.42 0a 101959.21 101959.21 0 1 1 -203918.42 0"/>
<path id="N" d="M 32049999.95 33939999.95 m -101959.21 0 a 101959.21 101959.21 0 1 1 203918.42 0a 101959.21 101959.21 0 1 1 -203918.42 0"/>
<path id="N" d="M 38499999.95 27189999.95 m -101959.21 0 a 101959.21 101959.21 0 1 1 203918.42 0a 101959.21 101959.21 0 1 1 -203918.42 0"/>
<path id="N" d="M 39843191.00 40747511.00 L 39824946.38 40774816.00 L 39366660.00 40774816.00 L 39180280.84 40588436.84 L 39181959.00 40580000.00 A 101958.15 101958.15 0 1 0 39080000.00 40681959.00 L 39088436.84 40680280.84 L 39293838.00 40885682.00 L 39339760.00 40904704.00 L 39824946.38 40904704.00 L 39843191.00 40932009.00 A 130461.68 130461.68 0 1 0 39843191.00 40747511.00  zM 39935439.76 40839758.92 m -80284.08 0 a 80284.08 80284.08 0 1 1 160568.17 0a 80284.08 80284.08 0 1 1 -160568.17 0"/>
<path id="N" d="M 39039999.95 40219999.95 m -101959.21 0 a 101959.21 101959.21 0 1 1 203918.42 0a 101959.21 101959.21 0 1 1 -203918.42 0"/>
<path id="N" d="M 34812096.00 38572096.00 L 39022096.00 34362096.00 L 39044198.00 34329018.00 L 39051959.00 34290000.00 L 39051959.00 33722233.00 L 40232096.00 32542096.00 L 40254198.00 32509018.00 L 40261959.00 32470000.00 L 40261959.00 27335520.00 L 40254198.00 27296502.00 L 40232096.00 27263424.00 L 39906576.00 26937904.00 A 101958.15 101958.15 0 0 0 39762384.00 27082096.00 L 40058041.00 27377753.00 L 40058041.00 32427767.00 L 38877904.00 33607904.00 L 38855802.00 33640982.00 L 38848041.00 33680000.00 L 38848041.00 34247767.00 L 34697767.00 38398041.00 L 34260000.00 38398041.00 A 101958.15 101958.15 0 1 0 34260000.00 38601959.00 L 34740000.00 38601959.00 L 34779018.00 38594198.00 L 34812096.00 38572096.00  z"/>
<path id="N" d="M 34369999.95 36039999.95 m -101959.21 0 a 101959.21 101959.21 0 1 1 203918.42 0a 101959.21 101959.21 0 1 1 -203918.42 0"/>
<path id="N" d="M 20619999.95 34389999.95 m -101959.21 0 a 101959.21 101959.21 0 1 1 203918.42 0a 101959.21 101959.21 0 1 1 -203918.42 0"/>
<path id="N" d="M 20609999.95 27939999.95 m -101959.21 0 a 101959.21 101959.21 0 1 1 203918.42 0a 101959.21 101959.21 0 1 1 -203918.42 0"/>
<path id="N" d="M 34599999.95 36039999.95 m -101959.21 0 a 101959.21 101959.21 0 1 1 203918.42 0a 101959.21 101959.21 0 1 1 -203918.42 0"/>
<path id="N" d="M 29729999.95 36149999.95 m -101959.21 0 a 101959.21 101959.21 0 1 1 203918.42 0a 101959.21 101959.21 0 1 1 -203918.42 0"/>
<path id="N" d="M 34514159.95 35762759.95 m -101959.21 0 a 101959.21 101959.21 0 1 1 203918.42 0a 101959.21 101959.21 0 1 1 -203918.42 0"/>
<path id="N" d="M 32923939.95 28599999.95 m -101959.21 0 a 101959.21 101959.21 0 1 1 203918.42 0a 101959.21 101959.21 0 1 1 -203918.42 0"/>
<path id="N" d="M 32879999.95 29799999.95 m -101959.21 0 a 101959.21 101959.21 0 1 1 203918.42 0a 101959.21 101959.21 0 1 1 -203918.42 0"/>
<path id="N" d="M 32559999.95 29479999.95 m -101959.21 0 a 101959.21 101959.21 0 1 1 203918.42 0a 101959.21 101959.21 0 1 1 -203918.42 0"/>
<path id="N" d="M 32889999.95 29479999.95 m -101959.21 0 a 101959.21 101959.21 0 1 1 203918.42 0a 101959.21 101959.21 0 1 1 -203918.42 0"/>
<path id="N" d="M 27163939.95 24176059.95 m -101959.21 0 a 101959.21 101959.21 0 1 1 203918.42 0a 101959.21 101959.21 0 1 1 -203918.42 0"/>
<path id="N" d="M 22725739.95 27864259.95 m -101959.21 0 a 101959.21 101959.21 0 1 1 203918.42 0a 101959.21 101959.21 0 1 1 -203918.42 0"/>
<path id="N" d="M 32549999.95 29799999.95 m -101959.21 0 a 101959.21 101959.21 0 1 1 203918.42 0a 101959.21 101959.21 0 1 1 -203918.42 0"/>
<path id="N" d="M 34579999.95 34849999.95 m -101959.21 0 a 101959.21 101959.21 0 1 1 203918.42 0a 101959.21 101959.21 0 1 1 -203918.42 0"/>
<path id="N" d="M 34919999.95 34609999.95 m -101959.21 0 a 101959.21 101959.21 0 1 1 203918.42 0a 101959.21 101959.21 0 1 1 -203918.42 0"/>
<path id="N" d="M 34219999.95 34619999.95 m -101959.21 0 a 101959.21 101959.21 0 1 1 203918.42 0a 101959.21 101959.21 0 1 1 -203918.42 0"/>
<path id="N" d="M 22944259.95 34764259.95 m -101959.21 0 a 101959.21 101959.21 0 1 1 203918.42 0a 101959.21 101959.21 0 1 1 -203918.42 0"/>
<path id="N" d="M 32919999.95 31279999.95 m -101959.21 0 a 101959.21 101959.21 0 1 1 203918.42 0a 101959.21 101959.21 0 1 1 -203918.42 0"/>
<path id="N" d="M 33269999.95 30229999.95 m -101959.21 0 a 101959.21 101959.21 0 1 1 203918.42 0a 101959.21 101959.21 0 1 1 -203918.42 0"/>
<path id="N" d="M 36459999.95 35799999.95 m -101959.21 0 a 101959.21 101959.21 0 1 1 203918.42 0a 101959.21 101959.21 0 1 1 -203918.42 0"/>
<path id="N" d="M 31659999.95 34649999.95 m -101959.21 0 a 101959.21 101959.21 0 1 1 203918.42 0a 101959.21 101959.21 0 1 1 -203918.42 0"/>
<path id="N" d="M 31225659.95 31805659.95 m -101959.21 0 a 101959.21 101959.21 0 1 1 203918.42 0a 101959.21 101959.21 0 1 1 -203918.42 0"/>
<path id="N" d="M 34949999.95 31469999.95 m -101959.21 0 a 101959.21 101959.21 0 1 1 203918.42 0a 101959.21 101959.21 0 1 1 -203918.42 0"/>
<path id="N" d="M 35709999.95 36039999.95 m -101959.21 0 a 101959.21 101959.21 0 1 1 203918.42 0a 101959.21 101959.21 0 1 1 -203918.42 0"/>
<path id="N" d="M 36089999.95 35789999.95 m -101959.21 0 a 101959.21 101959.21 0 1 1 203918.42 0a 101959.21 101959.21 0 1 1 -203918.42 0"/>
<path id="N" d="M 36989999.95 35709999.95 m -101959.21 0 a 101959.21 101959.21 0 1 1 203918.42 0a 101959.21 101959.21 0 1 1 -203918.42 0"/>
<path id="N" d="M 27769999.95 35769999.95 m -101959.21 0 a 101959.21 101959.21 0 1 1 203918.42 0a 101959.21 101959.21 0 1 1 -203918.42 0"/>
<path id="N" d="M 35639999.95 30799999.95 m -101959.21 0 a 101959.21 101959.21 0 1 1 203918.42 0a 101959.21 101959.21 0 1 1 -203918.42 0"/>
<path id="N" d="M 36089999.95 36039999.95 m -101959.21 0 a 101959.21 101959.21 0 1 1 203918.42 0a 101959.21 101959.21 0 1 1 -203918.42 0"/>
<path id="N" d="M 37459999.95 33579999.95 m -101959.21 0 a 101959.21 101959.21 0 1 1 203918.42 0a 101959.21 101959.21 0 1 1 -203918.42 0"/>
<path id="N" d="M 26973939.95 30683939.95 m -101959.21 0 a 101959.21 101959.21 0 1 1 203918.42 0a 101959.21 101959.21 0 1 1 -203918.42 0"/>
<path id="N" d="M 33509999.95 30669999.95 m -101959.21 0 a 101959.21 101959.21 0 1 1 203918.42 0a 101959.21 101959.21 0 1 1 -203918.42 0"/>
<path id="N" d="M 36319999.95 30749999.95 m -101959.21 0 a 101959.21 101959.21 0 1 1 203918.42 0a 101959.21 101959.21 0 1 1 -203918.42 0"/>
<path id="N" d="M 28553939.95 31699999.95 m -101959.21 0 a 101959.21 101959.21 0 1 1 203918.42 0a 101959.21 101959.21 0 1 1 -203918.42 0"/>
<path id="N" d="M 35289999.95 31119999.95 m -101959.21 0 a 101959.21 101959.21 0 1 1 203918.42 0a 101959.21 101959.21 0 1 1 -203918.42 0"/>
<path id="N" d="M 27563939.95 30683939.95 m -101959.21 0 a 101959.21 101959.21 0 1 1 203918.42 0a 101959.21 101959.21 0 1 1 -203918.42 0"/>
<path id="N" d="M 23504259.95 30914259.95 m -101959.21 0 a 101959.21 101959.21 0 1 1 203918.42 0a 101959.21 101959.21 0 1 1 -203918.42 0"/>
<path id="N" d="M 34929999.95 31874179.95 m -101959.21 0 a 101959.21 101959.21 0 1 1 203918.42 0a 101959.21 101959.21 0 1 1 -203918.42 0"/>
<path id="N" d="M 28529999.95 31439999.95 m -101959.21 0 a 101959.21 101959.21 0 1 1 203918.42 0a 101959.21 101959.21 0 1 1 -203918.42 0"/>
<path id="N" d="M 33969559.95 31646759.95 m -101959.21 0 a 101959.21 101959.21 0 1 1 203918.42 0a 101959.21 101959.21 0 1 1 -203918.42 0"/>
<path id="N" d="M 36745999.95 31385999.95 m -101959.21 0 a 101959.21 101959.21 0 1 1 203918.42 0a 101959.21 101959.21 0 1 1 -203918.42 0"/>
<path id="N" d="M 22914999.95 30919999.95 m -101959.21 0 a 101959.21 101959.21 0 1 1 203918.42 0a 101959.21 101959.21 0 1 1 -203918.42 0"/>
<path id="N" d="M 31639999.95 34959999.95 m -101959.21 0 a 101959.21 101959.21 0 1 1 203918.42 0a 101959.21 101959.21 0 1 1 -203918.42 0"/>
<path id="N" d="M 27483939.95 35476059.95 m -101959.21 0 a 101959.21 101959.21 0 1 1 203918.42 0a 101959.21 101959.21 0 1 1 -203918.42 0"/>
<path id="N" d="M 28056059.95 35476059.95 m -101959.21 0 a 101959.21 101959.21 0 1 1 203918.42 0a 101959.21 101959.21 0 1 1 -203918.42 0"/>
<path id="N" d="M 24816859.95 34768419.95 m -101959.21 0 a 101959.21 101959.21 0 1 1 203918.42 0a 101959.21 101959.21 0 1 1 -203918.42 0"/>
<path id="N" d="M 37009999.95 34839999.95 m -101959.21 0 a 101959.21 101959.21 0 1 1 203918.42 0a 101959.21 101959.21 0 1 1 -203918.42 0"/>
<path id="N" d="M 32049999.95 34889999.95 m -101959.21 0 a 101959.21 101959.21 0 1 1 203918.42 0a 101959.21 101959.21 0 1 1 -203918.42 0"/>
<path id="N" d="M 23219999.95 35649999.95 m -101959.21 0 a 101959.21 101959.21 0 1 1 203918.42 0a 101959.21 101959.21 0 1 1 -203918.42 0"/>
<path id="N" d="M 23515739.95 35295739.95 m -101959.21 0 a 101959.21 101959.21 0 1 1 203918.42 0a 101959.21 101959.21 0 1 1 -203918.42 0"/>
<path id="N" d="M 23219999.95 30629999.95 m -101959.21 0 a 101959.21 101959.21 0 1 1 203918.42 0a 101959.21 101959.21 0 1 1 -203918.42 0"/>
<path id="N" d="M 37069999.95 25769999.95 m -101959.21 0 a 101959.21 101959.21 0 1 1 203918.42 0a 101959.21 101959.21 0 1 1 -203918.42 0"/>
<path id="N" d="M 36999999.95 35349999.95 m -101959.21 0 a 101959.21 101959.21 0 1 1 203918.42 0a 101959.21 101959.21 0 1 1 -203918.42 0"/>
<path id="N" d="M 30499999.95 34969999.95 m -101959.21 0 a 101959.21 101959.21 0 1 1 203918.42 0a 101959.21 101959.21 0 1 1 -203918.42 0"/>
<path id="N" d="M 22864259.95 35295739.95 m -101959.21 0 a 101959.21 101959.21 0 1 1 203918.42 0a 101959.21 101959.21 0 1 1 -203918.42 0"/>
<path id="N" d="M 36099999.95 37709999.95 m -101959.21 0 a 101959.21 101959.21 0 1 1 203918.42 0a 101959.21 101959.21 0 1 1 -203918.42 0"/>
<path id="N" d="M 36089999.95 38939999.95 m -101959.21 0 a 101959.21 101959.21 0 1 1 203918.42 0a 101959.21 101959.21 0 1 1 -203918.42 0"/>
<path id="N" d="M 34259999.95 36729999.95 m -101959.21 0 a 101959.21 101959.21 0 1 1 203918.42 0a 101959.21 101959.21 0 1 1 -203918.42 0"/>
<path id="N" d="M 35699999.95 35779999.95 m -101959.21 0 a 101959.21 101959.21 0 1 1 203918.42 0a 101959.21 101959.21 0 1 1 -203918.42 0"/>
<path id="N" d="M 36459999.95 36039999.95 m -101959.21 0 a 101959.21 101959.21 0 1 1 203918.42 0a 101959.21 101959.21 0 1 1 -203918.42 0"/>
<path id="N" d="M 33974339.95 37045659.95 m -101959.21 0 a 101959.21 101959.21 0 1 1 203918.42 0a 101959.21 101959.21 0 1 1 -203918.42 0"/>
<path id="N" d="M 36089999.95 36259999.95 m -101959.21 0 a 101959.21 101959.21 0 1 1 203918.42 0a 101959.21 101959.21 0 1 1 -203918.42 0"/>
<path id="N" d="M 29989999.95 34959999.95 m -101959.21 0 a 101959.21 101959.21 0 1 1 203918.42 0a 101959.21 101959.21 0 1 1 -203918.42 0"/>
<path id="N" d="M 30249999.95 34959999.95 m -101959.21 0 a 101959.21 101959.21 0 1 1 203918.42 0a 101959.21 101959.21 0 1 1 -203918.42 0"/>
<path id="N" d="M 32299999.95 34889999.95 m -101959.21 0 a 101959.21 101959.21 0 1 1 203918.42 0a 101959.21 101959.21 0 1 1 -203918.42 0"/>
<path id="N" d="M 35719999.95 36269999.95 m -101959.21 0 a 101959.21 101959.21 0 1 1 203918.42 0a 101959.21 101959.21 0 1 1 -203918.42 0"/>
<path id="N" d="M 36439999.95 36269999.95 m -101959.21 0 a 101959.21 101959.21 0 1 1 203918.42 0a 101959.21 101959.21 0 1 1 -203918.42 0"/>
<path id="N" d="M 29719999.95 34959999.95 m -101959.21 0 a 101959.21 101959.21 0 1 1 203918.42 0a 101959.21 101959.21 0 1 1 -203918.42 0"/>
<path id="N" d="M 35239999.95 33409999.95 m -101959.21 0 a 101959.21 101959.21 0 1 1 203918.42 0a 101959.21 101959.21 0 1 1 -203918.42 0"/>
<path id="N" d="M 30929999.95 32099999.95 m -101959.21 0 a 101959.21 101959.21 0 1 1 203918.42 0a 101959.21 101959.21 0 1 1 -203918.42 0"/>
<path id="N" d="M 34079999.95 32235279.95 m -101959.21 0 a 101959.21 101959.21 0 1 1 203918.42 0a 101959.21 101959.21 0 1 1 -203918.42 0"/>
<path id="N" d="M 32604259.95 32805739.95 m -101959.21 0 a 101959.21 101959.21 0 1 1 203918.42 0a 101959.21 101959.21 0 1 1 -203918.42 0"/>
<path id="N" d="M 34019999.95 33399999.95 m -101959.21 0 a 101959.21 101959.21 0 1 1 203918.42 0a 101959.21 101959.21 0 1 1 -203918.42 0"/>
<path id="N" d="M 34299999.95 33399999.95 m -101959.21 0 a 101959.21 101959.21 0 1 1 203918.42 0a 101959.21 101959.21 0 1 1 -203918.42 0"/>
<path id="N" d="M 32329999.95 33079999.95 m -101959.21 0 a 101959.21 101959.21 0 1 1 203918.42 0a 101959.21 101959.21 0 1 1 -203918.42 0"/>
<path id="N" d="M 37059999.95 34299999.95 m -101959.21 0 a 101959.21 101959.21 0 1 1 203918.42 0a 101959.21 101959.21 0 1 1 -203918.42 0"/>
<path id="N" d="M 37239999.95 33809999.95 m -101959.21 0 a 101959.21 101959.21 0 1 1 203918.42 0a 101959.21 101959.21 0 1 1 -203918.42 0"/>
<path id="N" d="M 34919999.95 33399999.95 m -101959.21 0 a 101959.21 101959.21 0 1 1 203918.42 0a 101959.21 101959.21 0 1 1 -203918.42 0"/>
<path id="N" d="M 34599999.95 33399999.95 m -101959.21 0 a 101959.21 101959.21 0 1 1 203918.42 0a 101959.21 101959.21 0 1 1 -203918.42 0"/>
<path id="N" d="M 37239999.95 34029999.95 m -101959.21 0 a 101959.21 101959.21 0 1 1 203918.42 0a 101959.21 101959.21 0 1 1 -203918.42 0"/>
<path id="N" d="M 37459999.95 34279999.95 m -101959.21 0 a 101959.21 101959.21 0 1 1 203918.42 0a 101959.21 101959.21 0 1 1 -203918.42 0"/>
<path id="N" d="M 33709999.95 33389999.95 m -101959.21 0 a 101959.21 101959.21 0 1 1 203918.42 0a 101959.21 101959.21 0 1 1 -203918.42 0"/>
<path id="N" d="M 23219999.95 28669999.95 m -101959.21 0 a 101959.21 101959.21 0 1 1 203918.42 0a 101959.21 101959.21 0 1 1 -203918.42 0"/>
<path id="N" d="M 28226059.95 28476059.95 m -101959.21 0 a 101959.21 101959.21 0 1 1 203918.42 0a 101959.21 101959.21 0 1 1 -203918.42 0"/>
<path id="N" d="M 33416059.95 28593939.95 m -101959.21 0 a 101959.21 101959.21 0 1 1 203918.42 0a 101959.21 101959.21 0 1 1 -203918.42 0"/>
<path id="N" d="M 31119999.95 28719999.95 m -101959.21 0 a 101959.21 101959.21 0 1 1 203918.42 0a 101959.21 101959.21 0 1 1 -203918.42 0"/>
<path id="N" d="M 31419999.95 28719999.95 m -101959.21 0 a 101959.21 101959.21 0 1 1 203918.42 0a 101959.21 101959.21 0 1 1 -203918.42 0"/>
<path id="N" d="M 31699999.95 28719999.95 m -101959.21 0 a 101959.21 101959.21 0 1 1 203918.42 0a 101959.21 101959.21 0 1 1 -203918.42 0"/>
<path id="N" d="M 36009999.95 28599999.95 m -101959.21 0 a 101959.21 101959.21 0 1 1 203918.42 0a 101959.21 101959.21 0 1 1 -203918.42 0"/>
<path id="N" d="M 23514259.95 28395739.95 m -101959.21 0 a 101959.21 101959.21 0 1 1 203918.42 0a 101959.21 101959.21 0 1 1 -203918.42 0"/>
<path id="N" d="M 23504259.95 23914259.95 m -101959.21 0 a 101959.21 101959.21 0 1 1 203918.42 0a 101959.21 101959.21 0 1 1 -203918.42 0"/>
<path id="N" d="M 27193939.95 23683939.95 m -101959.21 0 a 101959.21 101959.21 0 1 1 203918.42 0a 101959.21 101959.21 0 1 1 -203918.42 0"/>
<path id="N" d="M 27469999.95 23419999.95 m -101959.21 0 a 101959.21 101959.21 0 1 1 203918.42 0a 101959.21 101959.21 0 1 1 -203918.42 0"/>
<path id="N" d="M 32019999.95 26899999.95 m -101959.21 0 a 101959.21 101959.21 0 1 1 203918.42 0a 101959.21 101959.21 0 1 1 -203918.42 0"/>
<path id="N" d="M 27743939.95 23683939.95 m -101959.21 0 a 101959.21 101959.21 0 1 1 203918.42 0a 101959.21 101959.21 0 1 1 -203918.42 0"/>
<path id="N" d="M 22934259.95 23914259.95 m -101959.21 0 a 101959.21 101959.21 0 1 1 203918.42 0a 101959.21 101959.21 0 1 1 -203918.42 0"/>
<path id="N" d="M 33669999.95 23629999.95 m -101959.21 0 a 101959.21 101959.21 0 1 1 203918.42 0a 101959.21 101959.21 0 1 1 -203918.42 0"/>
<path id="N" d="M 34289999.95 25539999.95 m -101959.21 0 a 101959.21 101959.21 0 1 1 203918.42 0a 101959.21 101959.21 0 1 1 -203918.42 0"/>
<path id="N" d="M 34669999.95 25539999.95 m -101959.21 0 a 101959.21 101959.21 0 1 1 203918.42 0a 101959.21 101959.21 0 1 1 -203918.42 0"/>
<path id="N" d="M 29519999.95 24199999.95 m -101959.21 0 a 101959.21 101959.21 0 1 1 203918.42 0a 101959.21 101959.21 0 1 1 -203918.42 0"/>
<path id="N" d="M 23219999.95 23639999.95 m -101959.21 0 a 101959.21 101959.21 0 1 1 203918.42 0a 101959.21 101959.21 0 1 1 -203918.42 0"/>
<path id="N" d="M 28619999.95 23979999.95 m -101959.21 0 a 101959.21 101959.21 0 1 1 203918.42 0a 101959.21 101959.21 0 1 1 -203918.42 0"/>
<path id="N" d="M 34499999.95 25279999.95 m -101959.21 0 a 101959.21 101959.21 0 1 1 203918.42 0a 101959.21 101959.21 0 1 1 -203918.42 0"/>
<path id="N" d="M 36239999.95 25554139.95 m -101959.21 0 a 101959.21 101959.21 0 1 1 203918.42 0a 101959.21 101959.21 0 1 1 -203918.42 0"/>
<path id="N" d="M 35949999.95 25739999.95 m -101959.21 0 a 101959.21 101959.21 0 1 1 203918.42 0a 101959.21 101959.21 0 1 1 -203918.42 0"/>
<path id="N" d="M 35479999.95 25759999.95 m -101959.21 0 a 101959.21 101959.21 0 1 1 203918.42 0a 101959.21 101959.21 0 1 1 -203918.42 0"/>
<path id="N" d="M 37249999.95 26039999.95 m -101959.21 0 a 101959.21 101959.21 0 1 1 203918.42 0a 101959.21 101959.21 0 1 1 -203918.42 0"/>
<path id="N" d="M 34029999.95 26299999.95 m -101959.21 0 a 101959.21 101959.21 0 1 1 203918.42 0a 101959.21 101959.21 0 1 1 -203918.42 0"/>
<path id="N" d="M 36599999.95 25769999.95 m -101959.21 0 a 101959.21 101959.21 0 1 1 203918.42 0a 101959.21 101959.21 0 1 1 -203918.42 0"/>
<path id="N" d="M 31219999.95 26899999.95 m -101959.21 0 a 101959.21 101959.21 0 1 1 203918.42 0a 101959.21 101959.21 0 1 1 -203918.42 0"/>
<path id="N" d="M 32299999.95 26899999.95 m -101959.21 0 a 101959.21 101959.21 0 1 1 203918.42 0a 101959.21 101959.21 0 1 1 -203918.42 0"/>
<path id="N" d="M 31479999.95 26899999.95 m -101959.21 0 a 101959.21 101959.21 0 1 1 203918.42 0a 101959.21 101959.21 0 1 1 -203918.42 0"/>
<path id="N" d="M 31739999.95 26899999.95 m -101959.21 0 a 101959.21 101959.21 0 1 1 203918.42 0a 101959.21 101959.21 0 1 1 -203918.42 0"/>
<path id="N" d="M 32579999.95 26899999.95 m -101959.21 0 a 101959.21 101959.21 0 1 1 203918.42 0a 101959.21 101959.21 0 1 1 -203918.42 0"/>
<path id="N" d="M 32859999.95 26899999.95 m -101959.21 0 a 101959.21 101959.21 0 1 1 203918.42 0a 101959.21 101959.21 0 1 1 -203918.42 0"/>
<path id="N" d="M 30229999.95 27499999.95 m -101959.21 0 a 101959.21 101959.21 0 1 1 203918.42 0a 101959.21 101959.21 0 1 1 -203918.42 0"/>
<path id="N" d="M 31919999.95 30449999.95 m -101959.21 0 a 101959.21 101959.21 0 1 1 203918.42 0a 101959.21 101959.21 0 1 1 -203918.42 0"/>
<path id="N" d="M 36046219.95 30466219.95 m -101959.21 0 a 101959.21 101959.21 0 1 1 203918.42 0a 101959.21 101959.21 0 1 1 -203918.42 0"/>
<path id="N" d="M 36583779.95 30466219.95 m -101959.21 0 a 101959.21 101959.21 0 1 1 203918.42 0a 101959.21 101959.21 0 1 1 -203918.42 0"/>
<path id="N" d="M 31339999.95 30619999.95 m -101959.21 0 a 101959.21 101959.21 0 1 1 203918.42 0a 101959.21 101959.21 0 1 1 -203918.42 0"/>
<path id="N" d="M 31679999.95 30619999.95 m -101959.21 0 a 101959.21 101959.21 0 1 1 203918.42 0a 101959.21 101959.21 0 1 1 -203918.42 0"/>
<path id="N" d="M 30699999.95 30619999.95 m -101959.21 0 a 101959.21 101959.21 0 1 1 203918.42 0a 101959.21 101959.21 0 1 1 -203918.42 0"/>
<path id="N" d="M 36119999.95 28029999.95 m -101959.21 0 a 101959.21 101959.21 0 1 1 203918.42 0a 101959.21 101959.21 0 1 1 -203918.42 0"/>
<path id="N" d="M 36415739.95 27745739.95 m -101959.21 0 a 101959.21 101959.21 0 1 1 203918.42 0a 101959.21 101959.21 0 1 1 -203918.42 0"/>
<path id="N" d="M 30504379.95 27754399.95 m -101959.21 0 a 101959.21 101959.21 0 1 1 203918.42 0a 101959.21 101959.21 0 1 1 -203918.42 0"/>
<path id="N" d="M 24919999.95 27779999.95 m -101959.21 0 a 101959.21 101959.21 0 1 1 203918.42 0a 101959.21 101959.21 0 1 1 -203918.42 0"/>
<path id="N" d="M 35679999.95 28179999.95 m -101959.21 0 a 101959.21 101959.21 0 1 1 203918.42 0a 101959.21 101959.21 0 1 1 -203918.42 0"/>
<path id="N" d="M 22925739.95 28395739.95 m -101959.21 0 a 101959.21 101959.21 0 1 1 203918.42 0a 101959.21 101959.21 0 1 1 -203918.42 0"/>
<path id="N" d="M 35669999.95 27889999.95 m -101959.21 0 a 101959.21 101959.21 0 1 1 203918.42 0a 101959.21 101959.21 0 1 1 -203918.42 0"/>
<path id="N" d="M 33969999.95 27539999.95 m -101959.21 0 a 101959.21 101959.21 0 1 1 203918.42 0a 101959.21 101959.21 0 1 1 -203918.42 0"/>
<path id="N" d="M 31949999.95 28879999.95 m -101959.21 0 a 101959.21 101959.21 0 1 1 203918.42 0a 101959.21 101959.21 0 1 1 -203918.42 0"/>
<path id="N" d="M 32159999.95 29079999.95 m -101959.21 0 a 101959.21 101959.21 0 1 1 203918.42 0a 101959.21 101959.21 0 1 1 -203918.42 0"/>
<path id="N" d="M 29516179.95 23983819.95 m -101959.21 0 a 101959.21 101959.21 0 1 1 203918.42 0a 101959.21 101959.21 0 1 1 -203918.42 0"/>
<path id="N" d="M 34009999.95 24029999.95 m -101959.21 0 a 101959.21 101959.21 0 1 1 203918.42 0a 101959.21 101959.21 0 1 1 -203918.42 0"/>
<path id="N" d="M 28626859.95 24196859.95 m -101959.21 0 a 101959.21 101959.21 0 1 1 203918.42 0a 101959.21 101959.21 0 1 1 -203918.42 0"/>
<path id="N" d="M 32129999.95 30209999.95 m -101959.21 0 a 101959.21 101959.21 0 1 1 203918.42 0a 101959.21 101959.21 0 1 1 -203918.42 0"/>
<path id="N" d="M 33419999.95 28839999.95 m -101959.21 0 a 101959.21 101959.21 0 1 1 203918.42 0a 101959.21 101959.21 0 1 1 -203918.42 0"/>
<path id="N" d="M 27269999.95 30399999.95 m -101959.21 0 a 101959.21 101959.21 0 1 1 203918.42 0a 101959.21 101959.21 0 1 1 -203918.42 0"/>
<path id="N" d="M 31009999.95 30619999.95 m -101959.21 0 a 101959.21 101959.21 0 1 1 203918.42 0a 101959.21 101959.21 0 1 1 -203918.42 0"/>
<path id="N" d="M 35999999.95 28869999.95 m -101959.21 0 a 101959.21 101959.21 0 1 1 203918.42 0a 101959.21 101959.21 0 1 1 -203918.42 0"/>
<path id="N" d="M 36619999.95 28739999.95 m -101959.21 0 a 101959.21 101959.21 0 1 1 203918.42 0a 101959.21 101959.21 0 1 1 -203918.42 0"/>
<path id="N" d="M 27919999.95 28769999.95 m -101959.21 0 a 101959.21 101959.21 0 1 1 203918.42 0a 101959.21 101959.21 0 1 1 -203918.42 0"/>
<path id="N" d="M 29259999.95 37939999.95 m -101959.21 0 a 101959.21 101959.21 0 1 1 203918.42 0a 101959.21 101959.21 0 1 1 -203918.42 0"/>
<path id="N" d="M 37485218.00 40520038.00 L 37491443.36 40488740.35 L 40834072.00 37146092.00 L 40850648.00 37121283.00 L 40856469.00 37092014.97 L 40856470.00 25800000.00 L 40850648.00 25770737.00 L 40834068.99 25745925.99 L 38209072.00 23120928.00 L 38184264.00 23104352.00 L 38155000.00 23098531.00 L 27368518.00 23098530.00 L 27339255.00 23104352.00 L 27314443.99 23120931.01 L 27216843.19 23218531.00 L 24426687.00 23218531.00 L 24329327.84 23121171.84 L 24326462.00 23106764.00 A 101959.21 101959.21 0 1 0 24232264.00 23247741.00 L 24238390.41 23246522.41 L 24340940.00 23349072.00 L 24365748.00 23365648.00 L 24395012.00 23371469.00 L 27248518.00 23371469.00 L 27277782.00 23365648.00 L 27302590.00 23349072.00 L 27400192.19 23251469.00 L 38123325.01 23251469.00 L 40703531.00 25831674.01 L 40703531.00 37060345.13 L 37383298.95 40380596.78 L 37352002.00 40386822.00 A 101959.21 101959.21 0 1 0 37485218.00 40520038.00  z"/>
<path id="N" d="M 27842096.00 38302096.00 L 28182096.00 37962096.00 A 101958.15 101958.15 0 0 0 28037904.00 37817904.00 L 27727767.00 38128041.00 L 25242233.00 38128041.00 L 22241959.00 35127767.00 L 22241959.00 33560000.00 L 22234198.00 33520982.00 L 22212096.00 33487904.00 L 21031959.00 32307767.00 L 21031959.00 29412233.00 L 21942096.00 28502096.00 L 21964198.00 28469018.00 L 21971959.00 28430000.00 L 21971959.00 28342233.00 L 22662233.00 27651959.00 L 23207767.00 27651959.00 L 23907904.00 28352096.00 A 101958.15 101958.15 0 0 0 24052096.00 28207904.00 L 23322096.00 27477904.00 L 23289018.00 27455802.00 L 23250000.00 27448041.00 L 22620000.00 27448041.00 L 22580982.00 27455802.00 L 22547904.00 27477904.00 L 21797904.00 28227904.00 L 21775802.00 28260982.00 L 21768041.00 28300000.00 L 21768041.00 28387767.00 L 20857904.00 29297904.00 L 20835802.00 29330982.00 L 20828041.00 29370000.00 L 20828041.00 32350000.00 L 20835802.00 32389018.00 L 20857904.00 32422096.00 L 22038041.00 33602233.00 L 22038041.00 35170000.00 L 22045802.00 35209018.00 L 22067904.00 35242096.00 L 25127904.00 38302096.00 L 25160982.00 38324198.00 L 25200000.00 38331959.00 L 27770000.00 38331959.00 L 27809018.00 38324198.00 L 27842096.00 38302096.00  z"/>
<path id="N" d="M 29328099.95 37418099.95 m -101959.21 0 a 101959.21 101959.21 0 1 1 203918.42 0a 101959.21 101959.21 0 1 1 -203918.42 0"/>
<path id="N" d="M 29929018.00 39814198.00 L 29955551.34 39796469.00 L 30610000.00 39796469.00 L 30639264.00 39790648.00 L 30664072.00 39774072.00 L 31394072.00 39044072.00 L 31410648.00 39019264.00 L 31416469.00 38990000.00 L 31416469.00 38651675.00 L 32964072.00 37104072.00 L 32980648.00 37079264.00 L 32986469.00 37050000.00 L 32986469.00 33561675.00 L 33574072.00 32974072.00 L 33590648.00 32949264.00 L 33596469.00 32920000.00 L 33596469.00 31431674.96 L 34204072.00 30824072.00 L 34220648.00 30799263.00 L 34226469.00 30769994.97 L 34226469.00 29095195.00 L 35755195.00 27566469.00 L 36240000.00 27566469.00 L 36269264.00 27560648.00 L 36294072.00 27544072.00 L 37754072.00 26084072.00 L 37770648.00 26059263.00 L 37776469.00 26030000.00 L 37776469.00 25550000.00 L 37770648.00 25520736.00 L 37754072.00 25495928.00 L 37410423.29 25152279.29 L 37404198.00 25120982.00 A 101959.21 101959.21 0 1 0 37302279.29 25260423.29 L 37623531.00 25581675.00 L 37623531.00 25998325.00 L 36208325.00 27413531.00 L 35723520.00 27413531.00 L 35694256.00 27419352.00 L 35669448.00 27435928.00 L 34095928.00 29009448.00 L 34079352.00 29034256.00 L 34073531.00 29063520.00 L 34073531.00 30738325.96 L 33465928.00 31345928.00 L 33449352.00 31370736.00 L 33443531.00 31400000.00 L 33443531.00 32888325.00 L 32855928.00 33475928.00 L 32839352.00 33500736.00 L 32833531.00 33530000.00 L 32833531.00 37018325.00 L 31285928.00 38565928.00 L 31269352.00 38590736.00 L 31263531.00 38620000.00 L 31263531.00 38958325.00 L 30578325.00 39643531.00 L 29955551.34 39643531.00 L 29929018.00 39625802.00 A 101960.92 101960.92 0 1 0 29929018.00 39814198.00  z"/>
<path id="N" d="M 29709919.95 41919919.95 m -101959.21 0 a 101959.21 101959.21 0 1 1 203918.42 0a 101959.21 101959.21 0 1 1 -203918.42 0"/>
<path id="N" d="M 30629999.95 40369999.95 m -101959.21 0 a 101959.21 101959.21 0 1 1 203918.42 0a 101959.21 101959.21 0 1 1 -203918.42 0"/>
<path id="N" d="M 39935440.38 40524800.38 m -130459.26 0 a 130459.26 130459.26 0 1 1 260918.51 0a 130459.26 130459.26 0 1 1 -260918.51 0M 39935439.76 40524798.92 m -80284.08 0 a 80284.08 80284.08 0 1 1 160568.17 0a 80284.08 80284.08 0 1 1 -160568.17 0"/>
<path id="N" d="M 38749999.95 30379999.95 m -101959.21 0 a 101959.21 101959.21 0 1 1 203918.42 0a 101959.21 101959.21 0 1 1 -203918.42 0"/>
<path id="N" d="M 39949999.95 25409999.95 m -101959.21 0 a 101959.21 101959.21 0 1 1 203918.42 0a 101959.21 101959.21 0 1 1 -203918.42 0"/>
<path id="N" d="M 32039999.95 38629999.95 m -101959.21 0 a 101959.21 101959.21 0 1 1 203918.42 0a 101959.21 101959.21 0 1 1 -203918.42 0"/>
<path id="N" d="M 34169999.95 24629999.95 m -101959.21 0 a 101959.21 101959.21 0 1 1 203918.42 0a 101959.21 101959.21 0 1 1 -203918.42 0"/>
<path id="N" d="M 32639999.95 24629999.95 m -101959.21 0 a 101959.21 101959.21 0 1 1 203918.42 0a 101959.21 101959.21 0 1 1 -203918.42 0"/>
<path id="N" d="M 30819999.95 38809999.95 m -101959.21 0 a 101959.21 101959.21 0 1 1 203918.42 0a 101959.21 101959.21 0 1 1 -203918.42 0"/>
<path id="N" d="M 41158411.15 44135724.00 m -387188.24 0 a 387188.24 387188.24 0 1 1 774376.48 0a 387188.24 387188.24 0 1 1 -774376.48 0M 41158418.05 44135751.82 m -258101.18 0 a 258101.18 258101.18 0 1 1 516202.36 0a 258101.18 258101.18 0 1 1 -516202.36 0"/>
<path id="N" d="M 33509999.95 42049999.95 m -101959.21 0 a 101959.21 101959.21 0 1 1 203918.42 0a 101959.21 101959.21 0 1 1 -203918.42 0"/>
<path id="N" d="M 32829999.95 42049999.95 m -101959.21 0 a 101959.21 101959.21 0 1 1 203918.42 0a 101959.21 101959.21 0 1 1 -203918.42 0"/>
<path id="N" d="M 35119999.95 42039999.95 m -101959.21 0 a 101959.21 101959.21 0 1 1 203918.42 0a 101959.21 101959.21 0 1 1 -203918.42 0"/>
<path id="N" d="M 35769999.95 42009999.95 m -101959.21 0 a 101959.21 101959.21 0 1 1 203918.42 0a 101959.21 101959.21 0 1 1 -203918.42 0"/>
<path id="N" d="M 35749999.95 41429999.95 m -101959.21 0 a 101959.21 101959.21 0 1 1 203918.42 0a 101959.21 101959.21 0 1 1 -203918.42 0"/>
<path id="N" d="M 32849999.95 41429999.95 m -101959.21 0 a 101959.21 101959.21 0 1 1 203918.42 0a 101959.21 101959.21 0 1 1 -203918.42 0"/>
<path id="N" d="M 35149999.95 40749999.95 m -101959.21 0 a 101959.21 101959.21 0 1 1 203918.42 0a 101959.21 101959.21 0 1 1 -203918.42 0"/>
<path id="N" d="M 33489999.95 41419999.95 m -101959.21 0 a 101959.21 101959.21 0 1 1 203918.42 0a 101959.21 101959.21 0 1 1 -203918.42 0"/>
<path id="N" d="M 35119999.95 41399999.95 m -101959.21 0 a 101959.21 101959.21 0 1 1 203918.42 0a 101959.21 101959.21 0 1 1 -203918.42 0"/>
<path id="N" d="M 33489999.95 40739999.95 m -101959.21 0 a 101959.21 101959.21 0 1 1 203918.42 0a 101959.21 101959.21 0 1 1 -203918.42 0"/>
<path id="N" d="M 32869999.95 40739999.95 m -101959.21 0 a 101959.21 101959.21 0 1 1 203918.42 0a 101959.21 101959.21 0 1 1 -203918.42 0"/>
<path id="N" d="M 34649999.95 39549999.95 m -101959.21 0 a 101959.21 101959.21 0 1 1 203918.42 0a 101959.21 101959.21 0 1 1 -203918.42 0"/>
<path id="N" d="M 35769999.95 40749999.95 m -101959.21 0 a 101959.21 101959.21 0 1 1 203918.42 0a 101959.21 101959.21 0 1 1 -203918.42 0"/>
<path id="N" d="M 31396197.00 41006195.00 L 31950414.02 40451959.00 L 36407767.00 40451959.00 L 36457904.00 40502096.00 A 101958.15 101958.15 0 0 0 36602096.00 40357904.00 L 36522096.00 40277904.00 L 36489018.00 40255802.00 L 36450000.00 40248041.00 L 31908178.00 40248041.00 L 31869160.00 40255803.00 L 31836083.00 40277905.00 L 31252003.00 40862005.00 A 101951.58 101951.58 0 0 0 31396197.00 41006195.00  z"/>
<path id="N" d="M 39349999.95 29949999.95 m -101959.21 0 a 101959.21 101959.21 0 1 1 203918.42 0a 101959.21 101959.21 0 1 1 -203918.42 0"/>
<path id="N" d="M 21219999.95 31749999.95 m -101959.21 0 a 101959.21 101959.21 0 1 1 203918.42 0a 101959.21 101959.21 0 1 1 -203918.42 0"/>
<path id="N" d="M 30679999.95 33229999.95 m -101959.21 0 a 101959.21 101959.21 0 1 1 203918.42 0a 101959.21 101959.21 0 1 1 -203918.42 0"/>
<path id="N" d="M 25899999.95 28229999.95 m -101959.21 0 a 101959.21 101959.21 0 1 1 203918.42 0a 101959.21 101959.21 0 1 1 -203918.42 0"/>
<path id="N" d="M 32923939.95 30659999.95 m -101959.21 0 a 101959.21 101959.21 0 1 1 203918.42 0a 101959.21 101959.21 0 1 1 -203918.42 0"/>
<path id="N" d="M 18569999.95 23369999.95 m -101959.21 0 a 101959.21 101959.21 0 1 1 203918.42 0a 101959.21 101959.21 0 1 1 -203918.42 0"/>
<path id="N" d="M 29759999.95 27489999.95 m -101959.21 0 a 101959.21 101959.21 0 1 1 203918.42 0a 101959.21 101959.21 0 1 1 -203918.42 0"/>
<path id="N" d="M 27999999.95 27699999.95 m -101959.21 0 a 101959.21 101959.21 0 1 1 203918.42 0a 101959.21 101959.21 0 1 1 -203918.42 0"/>
<path id="N" d="M 28869999.95 29179999.95 m -101959.21 0 a 101959.21 101959.21 0 1 1 203918.42 0a 101959.21 101959.21 0 1 1 -203918.42 0"/>
<path id="N" d="M 28069999.95 30429999.95 m -101959.21 0 a 101959.21 101959.21 0 1 1 203918.42 0a 101959.21 101959.21 0 1 1 -203918.42 0"/>
<path id="N" d="M 20769999.95 23109999.95 m -101959.21 0 a 101959.21 101959.21 0 1 1 203918.42 0a 101959.21 101959.21 0 1 1 -203918.42 0"/>
<path id="N" d="M 33479999.95 35643459.95 m -101959.21 0 a 101959.21 101959.21 0 1 1 203918.42 0a 101959.21 101959.21 0 1 1 -203918.42 0"/>
<path id="N" d="M 32469999.95 35719999.95 m -101959.21 0 a 101959.21 101959.21 0 1 1 203918.42 0a 101959.21 101959.21 0 1 1 -203918.42 0"/>
</g>
</svg>
