<svg width="63.17335854mm" height="66.4775912mm" viewBox="0 0 24871401 26172280"  version="1.1" xmlns="http://www.w3.org/2000/svg" xmlns:xlink="http://www.w3.org/1999/xlink">
<desc>
Origin 0 0 Bound 17667399 22461200 24871401 26172280
</desc>
<g fill-rule="evenodd" fill="rgb(255, 0, 255)" stroke="black" stroke-width="1" transform="translate(0, 26172280) scale(1, -1) translate(-17667399, -22461200)">
<path id="N" d="M 41435111.00 48633479.00 A 1183546.33 1183546.33 0 0 0 42538800.00 47529791.00 L 42538799.00 23564888.00 A 1183546.33 1183546.33 0 0 0 41435111.00 22461199.00 L 18835027.00 22461200.00 A 1183648.62 1183648.62 0 0 0 17731453.00 23560568.00 L 17729467.00 24380822.00 L 17701616.00 27500043.00 L 17701616.00 31675911.00 L 17667103.00 40715688.00 A 1183811.65 1183811.65 0 0 0 18214221.00 41640129.00 L 30662683.00 48519458.00 A 1183522.88 1183522.88 0 0 0 31099018.00 48633479.00 L 41357698.00 48633480.00 L 41435111.00 48633479.00  zM 19381898.00 23685748.00 L 18849142.00 23685748.00 L 18849142.00 23074252.00 L 19381898.00 23074252.00 L 19381898.00 23685748.00  zM 20070858.00 23685748.00 L 19538102.00 23685748.00 L 19538102.00 23074252.00 L 20070858.00 23074252.00 L 20070858.00 23685748.00  zM 19381898.00 24375748.00 L 18849142.00 24375748.00 L 18849142.00 23764252.00 L 19381898.00 23764252.00 L 19381898.00 24375748.00  zM 20070858.00 24375748.00 L 19538102.00 24375748.00 L 19538102.00 23764252.00 L 20070858.00 23764252.00 L 20070858.00 24375748.00  zM 19381898.00 25045748.00 L 18849142.00 25045748.00 L 18849142.00 24434252.00 L 19381898.00 24434252.00 L 19381898.00 25045748.00  zM 20070858.00 25045748.00 L 19538102.00 25045748.00 L 19538102.00 24434252.00 L 20070858.00 24434252.00 L 20070858.00 25045748.00  zM 21799974.00 25307929.00 L 21799974.00 24935391.00 A 116002.63 116002.63 0 1 1 22031986.00 24935391.00 L 22031986.00 25307929.00 A 116002.63 116002.63 0 0 1 21799974.00 25307929.00  zM 22777797.00 25421706.00 L 22550243.00 25421706.00 L 22550243.00 24821614.00 L 22777797.00 24821614.00 L 22777797.00 25421706.00  zM 23466850.00 24611425.00 L 22993150.00 24611425.00 L 22993150.00 24177095.00 L 23466850.00 24177095.00 L 23466850.00 24611425.00  zM 23466850.00 25142905.00 L 22993150.00 25142905.00 L 22993150.00 24708575.00 L 23466850.00 24708575.00 L 23466850.00 25142905.00  zM 24101488.00 25228028.00 L 23647472.00 25228028.00 L 23647472.00 24301572.00 L 24101488.00 24301572.00 L 24101488.00 25228028.00  zM 19381898.00 25745748.00 L 18849142.00 25745748.00 L 18849142.00 25134252.00 L 19381898.00 25134252.00 L 19381898.00 25745748.00  zM 20070858.00 25745748.00 L 19538102.00 25745748.00 L 19538102.00 25134252.00 L 20070858.00 25134252.00 L 20070858.00 25745748.00  zM 20498974.00 25467569.00 L 20498974.00 25095031.00 A 116002.63 116002.63 0 0 1 20730986.00 25095031.00 L 20730986.00 25467569.00 A 116002.63 116002.63 0 0 1 20498974.00 25467569.00  zM 21476777.00 25581346.00 L 21249223.00 25581346.00 L 21249223.00 24981254.00 L 21476777.00 24981254.00 L 21476777.00 25581346.00  zM 20872974.00 26184269.00 L 20872974.00 25811731.00 A 116002.63 116002.63 0 0 1 21104986.00 25811731.00 L 21104986.00 26184269.00 A 116002.63 116002.63 0 0 1 20872974.00 26184269.00  zM 22173994.00 26024609.00 L 22173994.00 25652071.00 A 116002.63 116002.63 0 1 1 22406006.00 25652071.00 L 22406006.00 26024609.00 A 116002.63 116002.63 0 0 1 22173994.00 26024609.00  zM 20910878.00 27195388.00 L 20378122.00 27195388.00 L 20378122.00 26583892.00 L 20910878.00 26583892.00 L 20910878.00 27195388.00  zM 21599858.00 27195388.00 L 21067102.00 27195388.00 L 21067102.00 26583892.00 L 21599858.00 26583892.00 L 21599858.00 27195388.00  zM 18890693.38 29592474.59 m -930321.41 0 a 930321.41 930321.41 0 1 1 1860642.83 0a 930321.41 930321.41 0 1 1 -1860642.83 0M 22211898.00 27035748.00 L 21679142.00 27035748.00 L 21679142.00 26424252.00 L 22211898.00 26424252.00 L 22211898.00 27035748.00  zM 22900858.00 27035748.00 L 22368102.00 27035748.00 L 22368102.00 26424252.00 L 22900858.00 26424252.00 L 22900858.00 27035748.00  zM 24181425.00 23726850.00 L 23747095.00 23726850.00 L 23747095.00 23253150.00 L 24181425.00 23253150.00 L 24181425.00 23726850.00  zM 24160948.00 24167008.00 L 23786932.00 24167008.00 L 23786932.00 23792992.00 L 24160948.00 23792992.00 L 24160948.00 24167008.00  zM 24653068.00 24167008.00 L 24279052.00 24167008.00 L 24279052.00 23792992.00 L 24653068.00 23792992.00 L 24653068.00 24167008.00  zM 24712905.00 23726850.00 L 24278575.00 23726850.00 L 24278575.00 23253150.00 L 24712905.00 23253150.00 L 24712905.00 23726850.00  zM 25409052.00 24080708.00 L 24730628.00 24080708.00 L 24730628.00 23339292.00 L 25409052.00 23339292.00 L 25409052.00 24080708.00  zM 26156063.00 23106535.00 L 25583937.00 23106535.00 L 25583937.00 22593465.00 L 26156063.00 22593465.00 L 26156063.00 23106535.00  zM 25007008.00 25228028.00 L 24552992.00 25228028.00 L 24552992.00 24301572.00 L 25007008.00 24301572.00 L 25007008.00 25228028.00  zM 25912528.00 25228028.00 L 25458512.00 25228028.00 L 25458512.00 24301572.00 L 25912528.00 24301572.00 L 25912528.00 25228028.00  zM 25459764.00 27511488.00 L 24100236.00 27511488.00 L 24100236.00 26585032.00 L 25459764.00 26585032.00 L 25459764.00 27511488.00  zM 24751425.00 29106850.00 L 24317095.00 29106850.00 L 24317095.00 28633150.00 L 24751425.00 28633150.00 L 24751425.00 29106850.00  zM 25282905.00 29106850.00 L 24848575.00 29106850.00 L 24848575.00 28633150.00 L 25282905.00 28633150.00 L 25282905.00 29106850.00  zM 24236850.00 29591425.00 L 23763150.00 29591425.00 L 23763150.00 29157095.00 L 24236850.00 29157095.00 L 24236850.00 29591425.00  zM 24751425.00 29616850.00 L 24317095.00 29616850.00 L 24317095.00 29143150.00 L 24751425.00 29143150.00 L 24751425.00 29616850.00  zM 24730948.00 30047008.00 L 24356932.00 30047008.00 L 24356932.00 29672992.00 L 24730948.00 29672992.00 L 24730948.00 30047008.00  zM 24236850.00 30122905.00 L 23763150.00 30122905.00 L 23763150.00 29688575.00 L 24236850.00 29688575.00 L 24236850.00 30122905.00  zM 24391488.00 31168028.00 L 23937472.00 31168028.00 L 23937472.00 30241572.00 L 24391488.00 30241572.00 L 24391488.00 31168028.00  zM 25282905.00 29616850.00 L 24848575.00 29616850.00 L 24848575.00 29143150.00 L 25282905.00 29143150.00 L 25282905.00 29616850.00  zM 25223068.00 30047008.00 L 24849052.00 30047008.00 L 24849052.00 29672992.00 L 25223068.00 29672992.00 L 25223068.00 30047008.00  zM 26019052.00 29960708.00 L 25340628.00 29960708.00 L 25340628.00 29219292.00 L 26019052.00 29219292.00 L 26019052.00 29960708.00  zM 25297008.00 31168028.00 L 24842992.00 31168028.00 L 24842992.00 30241572.00 L 25297008.00 30241572.00 L 25297008.00 31168028.00  zM 26202528.00 31168028.00 L 25748512.00 31168028.00 L 25748512.00 30241572.00 L 26202528.00 30241572.00 L 26202528.00 31168028.00  zM 26805663.00 23106535.00 L 26233537.00 23106535.00 L 26233537.00 22593465.00 L 26805663.00 22593465.00 L 26805663.00 23106535.00  zM 27351425.00 23086850.00 L 26917095.00 23086850.00 L 26917095.00 22613150.00 L 27351425.00 22613150.00 L 27351425.00 23086850.00  zM 26889372.00 24080708.00 L 26210948.00 24080708.00 L 26210948.00 23339292.00 L 26889372.00 23339292.00 L 26889372.00 24080708.00  zM 26836535.00 24952510.00 L 26323465.00 24952510.00 L 26323465.00 24478810.00 L 26836535.00 24478810.00 L 26836535.00 24952510.00  zM 26826850.00 26061425.00 L 26353150.00 26061425.00 L 26353150.00 25661190.00 L 26323465.00 25661190.00 L 26323465.00 25187490.00 L 26836535.00 25187490.00 L 26836535.00 25661190.00 L 26826850.00 25661190.00 L 26826850.00 26061425.00  zM 26826850.00 26592905.00 L 26353150.00 26592905.00 L 26353150.00 26158575.00 L 26826850.00 26158575.00 L 26826850.00 26592905.00  zM 26811425.00 28366850.00 L 26377095.00 28366850.00 L 26377095.00 27893150.00 L 26811425.00 27893150.00 L 26811425.00 28366850.00  zM 27342905.00 28366850.00 L 26908575.00 28366850.00 L 26908575.00 27893150.00 L 27342905.00 27893150.00 L 27342905.00 28366850.00  zM 27450863.00 28926535.00 L 26878737.00 28926535.00 L 26878737.00 28413465.00 L 27450863.00 28413465.00 L 27450863.00 28926535.00  zM 26801263.00 28926535.00 L 26229137.00 28926535.00 L 26229137.00 28413465.00 L 26801263.00 28413465.00 L 26801263.00 28926535.00  zM 27499372.00 29960708.00 L 26820948.00 29960708.00 L 26820948.00 29219292.00 L 27499372.00 29219292.00 L 27499372.00 29960708.00  zM 27882905.00 23086850.00 L 27448575.00 23086850.00 L 27448575.00 22613150.00 L 27882905.00 22613150.00 L 27882905.00 23086850.00  zM 30691898.00 23875748.00 L 30159142.00 23875748.00 L 30159142.00 23264252.00 L 30691898.00 23264252.00 L 30691898.00 23875748.00  zM 30703994.00 24647929.00 L 30703994.00 24275391.00 A 116002.63 116002.63 0 1 1 30936006.00 24275391.00 L 30936006.00 24647929.00 A 116002.63 116002.63 0 0 1 30703994.00 24647929.00  zM 30559757.00 25478386.00 L 30332203.00 25478386.00 L 30332203.00 24878294.00 L 30559757.00 24878294.00 L 30559757.00 25478386.00  zM 31091898.00 26375748.00 L 30559142.00 26375748.00 L 30559142.00 25764252.00 L 31091898.00 25764252.00 L 31091898.00 26375748.00  zM 31380858.00 23875748.00 L 30848102.00 23875748.00 L 30848102.00 23264252.00 L 31380858.00 23264252.00 L 31380858.00 23875748.00  zM 31078014.00 25364609.00 L 31078014.00 24992071.00 A 116002.63 116002.63 0 0 1 31310026.00 24992071.00 L 31310026.00 25364609.00 A 116002.63 116002.63 0 0 1 31078014.00 25364609.00  zM 31780858.00 26375748.00 L 31248102.00 26375748.00 L 31248102.00 25764252.00 L 31780858.00 25764252.00 L 31780858.00 26375748.00  zM 35545748.00 24181898.00 L 34934252.00 24181898.00 L 34934252.00 23649142.00 L 35545748.00 23649142.00 L 35545748.00 24181898.00  zM 35545748.00 24870858.00 L 34934252.00 24870858.00 L 34934252.00 24338102.00 L 35545748.00 24338102.00 L 35545748.00 24870858.00  zM 36326269.00 24401986.00 L 35953731.00 24401986.00 A 116002.63 116002.63 0 0 1 35953731.00 24169974.00 L 36326269.00 24169974.00 A 116002.63 116002.63 0 0 1 36326269.00 24401986.00  zM 37042949.00 24027966.00 L 36670411.00 24027966.00 A 116002.63 116002.63 0 0 1 36670411.00 23795954.00 L 37042949.00 23795954.00 A 116002.63 116002.63 0 0 1 37042949.00 24027966.00  zM 37156726.00 24773777.00 L 36556634.00 24773777.00 L 36556634.00 24546223.00 L 37156726.00 24546223.00 L 37156726.00 24773777.00  zM 38045748.00 23881898.00 L 37434252.00 23881898.00 L 37434252.00 23349142.00 L 38045748.00 23349142.00 L 38045748.00 23881898.00  zM 38045748.00 24570858.00 L 37434252.00 24570858.00 L 37434252.00 24038102.00 L 38045748.00 24038102.00 L 38045748.00 24570858.00  zM 39131898.00 23855748.00 L 38599142.00 23855748.00 L 38599142.00 23244252.00 L 39131898.00 23244252.00 L 39131898.00 23855748.00  zM 39820858.00 23855748.00 L 39288102.00 23855748.00 L 39288102.00 23244252.00 L 39820858.00 23244252.00 L 39820858.00 23855748.00  zM 39079974.00 24417929.00 L 39079974.00 24045391.00 A 116002.63 116002.63 0 0 1 39311986.00 24045391.00 L 39311986.00 24417929.00 A 116002.63 116002.63 0 1 1 39079974.00 24417929.00  zM 40057797.00 24531706.00 L 39830243.00 24531706.00 L 39830243.00 23931614.00 L 40057797.00 23931614.00 L 40057797.00 24531706.00  zM 39453994.00 25134609.00 L 39453994.00 24762071.00 A 116002.63 116002.63 0 1 1 39686006.00 24762071.00 L 39686006.00 25134609.00 A 116002.63 116002.63 0 0 1 39453994.00 25134609.00  zM 39491898.00 26145748.00 L 38959142.00 26145748.00 L 38959142.00 25534252.00 L 39491898.00 25534252.00 L 39491898.00 26145748.00  zM 40180858.00 26145748.00 L 39648102.00 26145748.00 L 39648102.00 25534252.00 L 40180858.00 25534252.00 L 40180858.00 26145748.00  zM 40100858.00 27315748.00 L 39568102.00 27315748.00 L 39568102.00 26704252.00 L 40100858.00 26704252.00 L 40100858.00 27315748.00  zM 39411898.00 27315748.00 L 38879142.00 27315748.00 L 38879142.00 26704252.00 L 39411898.00 26704252.00 L 39411898.00 27315748.00  zM 39349974.00 28096269.00 L 39349974.00 27723731.00 A 116002.63 116002.63 0 0 1 39581986.00 27723731.00 L 39581986.00 28096269.00 A 116002.63 116002.63 0 0 1 39349974.00 28096269.00  zM 40327797.00 28210046.00 L 40100243.00 28210046.00 L 40100243.00 27609954.00 L 40327797.00 27609954.00 L 40327797.00 28210046.00  zM 39723994.00 28812949.00 L 39723994.00 28440411.00 A 116002.63 116002.63 0 0 1 39956006.00 28440411.00 L 39956006.00 28812949.00 A 116002.63 116002.63 0 0 1 39723994.00 28812949.00  zM 39761898.00 29815748.00 L 39229142.00 29815748.00 L 39229142.00 29204252.00 L 39761898.00 29204252.00 L 39761898.00 29815748.00  zM 40450858.00 29815748.00 L 39918102.00 29815748.00 L 39918102.00 29204252.00 L 40450858.00 29204252.00 L 40450858.00 29815748.00  zM 40101898.00 31045748.00 L 39569142.00 31045748.00 L 39569142.00 30434252.00 L 40101898.00 30434252.00 L 40101898.00 31045748.00  zM 40790858.00 31045748.00 L 40258102.00 31045748.00 L 40258102.00 30434252.00 L 40790858.00 30434252.00 L 40790858.00 31045748.00  zM 21371898.00 32435748.00 L 20839142.00 32435748.00 L 20839142.00 31824252.00 L 21371898.00 31824252.00 L 21371898.00 32435748.00  zM 22060858.00 32435748.00 L 21528102.00 32435748.00 L 21528102.00 31824252.00 L 22060858.00 31824252.00 L 22060858.00 32435748.00  zM 21371898.00 33085748.00 L 20839142.00 33085748.00 L 20839142.00 32474252.00 L 21371898.00 32474252.00 L 21371898.00 33085748.00  zM 22060858.00 33085748.00 L 21528102.00 33085748.00 L 21528102.00 32474252.00 L 22060858.00 32474252.00 L 22060858.00 33085748.00  zM 21361898.00 33755748.00 L 20829142.00 33755748.00 L 20829142.00 33144252.00 L 21361898.00 33144252.00 L 21361898.00 33755748.00  zM 22050858.00 33755748.00 L 21518102.00 33755748.00 L 21518102.00 33144252.00 L 22050858.00 33144252.00 L 22050858.00 33755748.00  zM 23269974.00 33387929.00 L 23269974.00 33015391.00 A 116002.63 116002.63 0 0 1 23501986.00 33015391.00 L 23501986.00 33387929.00 A 116002.63 116002.63 0 0 1 23269974.00 33387929.00  zM 24247797.00 33501706.00 L 24020243.00 33501706.00 L 24020243.00 32901614.00 L 24247797.00 32901614.00 L 24247797.00 33501706.00  zM 23643994.00 34104609.00 L 23643994.00 33732071.00 A 116002.63 116002.63 0 1 1 23876006.00 33732071.00 L 23876006.00 34104609.00 A 116002.63 116002.63 0 0 1 23643994.00 34104609.00  zM 25749764.00 33451488.00 L 24390236.00 33451488.00 L 24390236.00 32525032.00 L 25749764.00 32525032.00 L 25749764.00 33451488.00  zM 25326850.00 34106535.00 L 24853150.00 34106535.00 L 24853150.00 33593465.00 L 25326850.00 33593465.00 L 25326850.00 34106535.00  zM 27115748.00 32621898.00 L 26504252.00 32621898.00 L 26504252.00 32089142.00 L 27115748.00 32089142.00 L 27115748.00 32621898.00  zM 27115748.00 33310858.00 L 26504252.00 33310858.00 L 26504252.00 32778102.00 L 27115748.00 32778102.00 L 27115748.00 33310858.00  zM 26035510.00 34106535.00 L 25561810.00 34106535.00 L 25561810.00 33593465.00 L 26035510.00 33593465.00 L 26035510.00 34106535.00  zM 27887929.00 32816006.00 L 27515391.00 32816006.00 A 116002.63 116002.63 0 0 1 27515391.00 32583994.00 L 27887929.00 32583994.00 A 116002.63 116002.63 0 0 1 27887929.00 32816006.00  zM 28718386.00 33187797.00 L 28118294.00 33187797.00 L 28118294.00 32960243.00 L 28718386.00 32960243.00 L 28718386.00 33187797.00  zM 28604609.00 32441986.00 L 28232071.00 32441986.00 A 116002.63 116002.63 0 1 1 28232071.00 32209974.00 L 28604609.00 32209974.00 A 116002.63 116002.63 0 0 1 28604609.00 32441986.00  zM 29418974.00 32487569.00 L 29418974.00 32115031.00 A 116002.63 116002.63 0 0 1 29650986.00 32115031.00 L 29650986.00 32487569.00 A 116002.63 116002.63 0 0 1 29418974.00 32487569.00  zM 30396777.00 32601346.00 L 30169223.00 32601346.00 L 30169223.00 32001254.00 L 30396777.00 32001254.00 L 30396777.00 32601346.00  zM 29792974.00 33204269.00 L 29792974.00 32831731.00 A 116002.63 116002.63 0 1 1 30024986.00 32831731.00 L 30024986.00 33204269.00 A 116002.63 116002.63 0 1 1 29792974.00 33204269.00  zM 29830878.00 34215388.00 L 29298122.00 34215388.00 L 29298122.00 33603892.00 L 29830878.00 33603892.00 L 29830878.00 34215388.00  zM 30519858.00 34215388.00 L 29987102.00 34215388.00 L 29987102.00 33603892.00 L 30519858.00 33603892.00 L 30519858.00 34215388.00  zM 21371898.00 34435748.00 L 20839142.00 34435748.00 L 20839142.00 33824252.00 L 21371898.00 33824252.00 L 21371898.00 34435748.00  zM 22060858.00 34435748.00 L 21528102.00 34435748.00 L 21528102.00 33824252.00 L 22060858.00 33824252.00 L 22060858.00 34435748.00  zM 18848504.38 40640597.59 m -930321.41 0 a 930321.41 930321.41 0 1 1 1860642.83 0a 930321.41 930321.41 0 1 1 -1860642.83 0M 23681898.00 35115748.00 L 23149142.00 35115748.00 L 23149142.00 34504252.00 L 23681898.00 34504252.00 L 23681898.00 35115748.00  zM 24370858.00 35115748.00 L 23838102.00 35115748.00 L 23838102.00 34504252.00 L 24370858.00 34504252.00 L 24370858.00 35115748.00  zM 26137008.00 40643068.00 L 25762992.00 40643068.00 L 25762992.00 40269052.00 L 26137008.00 40269052.00 L 26137008.00 40643068.00  zM 27095748.00 34221898.00 L 26484252.00 34221898.00 L 26484252.00 33689142.00 L 27095748.00 33689142.00 L 27095748.00 34221898.00  zM 27095748.00 34910858.00 L 26484252.00 34910858.00 L 26484252.00 34378102.00 L 27095748.00 34378102.00 L 27095748.00 34910858.00  zM 27876269.00 34441986.00 L 27503731.00 34441986.00 A 116002.63 116002.63 0 1 1 27503731.00 34209974.00 L 27876269.00 34209974.00 A 116002.63 116002.63 0 0 1 27876269.00 34441986.00  zM 27121333.00 40876008.00 L 26550467.00 40876008.00 A 161201.22 161201.22 0 0 1 26488775.00 40565863.00 L 26531724.62 40557320.00 L 26488775.00 40548777.00 A 161217.26 161217.26 0 0 1 26488775.00 40250903.00 L 26531724.62 40242360.00 L 26488775.00 40233817.00 A 161217.26 161217.26 0 0 1 26488775.00 39935943.00 L 26531724.62 39927400.00 L 26488775.00 39918857.00 A 161217.26 161217.26 0 0 1 26488775.00 39620983.00 L 26531724.62 39612440.00 L 26488775.00 39603897.00 A 161217.26 161217.26 0 0 1 26488775.00 39306023.00 L 26531724.62 39297480.00 L 26488775.00 39288937.00 A 161217.26 161217.26 0 0 1 26488775.00 38991063.00 L 26531724.62 38982520.00 L 26488775.00 38973977.00 A 161217.26 161217.26 0 0 1 26488775.00 38676103.00 L 26531724.62 38667560.00 L 26488775.00 38659017.00 A 161217.26 161217.26 0 0 1 26488775.00 38361143.00 L 26531724.62 38352600.00 L 26488775.00 38344057.00 A 161217.26 161217.26 0 0 1 26488775.00 38046183.00 L 26531724.62 38037640.00 L 26488775.00 38029097.00 A 161217.26 161217.26 0 0 1 26488775.00 37731223.00 L 26531724.62 37722680.00 L 26488775.00 37714137.00 A 161217.26 161217.26 0 0 1 26550467.00 37403992.00 L 27121333.00 37403992.00 A 161201.22 161201.22 0 0 1 27183025.00 37714137.00 L 27140075.38 37722680.00 L 27183025.00 37731223.00 A 161217.26 161217.26 0 0 1 27183025.00 38029097.00 L 27140075.38 38037640.00 L 27183025.00 38046183.00 A 161217.26 161217.26 0 0 1 27183025.00 38344057.00 L 27140075.38 38352600.00 L 27183025.00 38361143.00 A 161217.26 161217.26 0 0 1 27183025.00 38659017.00 L 27140075.38 38667560.00 L 27183025.00 38676103.00 A 161217.26 161217.26 0 0 1 27183025.00 38973977.00 L 27140075.38 38982520.00 L 27183025.00 38991063.00 A 161217.26 161217.26 0 0 1 27183025.00 39288937.00 L 27140075.38 39297480.00 L 27183025.00 39306023.00 A 161217.26 161217.26 0 0 1 27183025.00 39603897.00 L 27140075.38 39612440.00 L 27183025.00 39620983.00 A 161217.26 161217.26 0 0 1 27183025.00 39918857.00 L 27140075.38 39927400.00 L 27183025.00 39935943.00 A 161217.26 161217.26 0 0 1 27183025.00 40233817.00 L 27140075.38 40242360.00 L 27183025.00 40250903.00 A 161217.26 161217.26 0 0 1 27183025.00 40548777.00 L 27140075.38 40557320.00 L 27183025.00 40565863.00 A 161217.26 161217.26 0 0 1 27121333.00 40876008.00  zM 26137008.00 40150948.00 L 25762992.00 40150948.00 L 25762992.00 39776932.00 L 26137008.00 39776932.00 L 26137008.00 40150948.00  zM 28592949.00 34067966.00 L 28220411.00 34067966.00 A 116002.63 116002.63 0 0 1 28220411.00 33835954.00 L 28592949.00 33835954.00 A 116002.63 116002.63 0 0 1 28592949.00 34067966.00  zM 28706726.00 34813777.00 L 28106634.00 34813777.00 L 28106634.00 34586223.00 L 28706726.00 34586223.00 L 28706726.00 34813777.00  zM 30505863.00 37243025.00 L 30497320.00 37200075.38 L 30488777.00 37243025.00 A 161217.26 161217.26 0 0 1 30190903.00 37243025.00 L 30182360.00 37200075.38 L 30173817.00 37243025.00 A 161217.26 161217.26 0 0 1 29875943.00 37243025.00 L 29867400.00 37200075.38 L 29858857.00 37243025.00 A 161217.26 161217.26 0 0 1 29560983.00 37243025.00 L 29552440.00 37200075.38 L 29543897.00 37243025.00 A 161217.26 161217.26 0 0 1 29246023.00 37243025.00 L 29237480.00 37200075.38 L 29228937.00 37243025.00 A 161217.26 161217.26 0 0 1 28931063.00 37243025.00 L 28922520.00 37200075.38 L 28913977.00 37243025.00 A 161217.26 161217.26 0 0 1 28616103.00 37243025.00 L 28607560.00 37200075.38 L 28599017.00 37243025.00 A 161217.26 161217.26 0 0 1 28301143.00 37243025.00 L 28292600.00 37200075.38 L 28284057.00 37243025.00 A 161217.26 161217.26 0 0 1 27986183.00 37243025.00 L 27977640.00 37200075.38 L 27969097.00 37243025.00 A 161217.26 161217.26 0 0 1 27671223.00 37243025.00 L 27662680.00 37200075.38 L 27654137.00 37243025.00 A 161217.26 161217.26 0 0 1 27343992.00 37181333.00 L 27343992.00 36610467.00 A 161201.22 161201.22 0 0 1 27654137.00 36548775.00 L 27662680.00 36591724.62 L 27671223.00 36548775.00 A 161217.26 161217.26 0 0 1 27969097.00 36548775.00 L 27977640.00 36591724.62 L 27986183.00 36548775.00 A 161217.26 161217.26 0 0 1 28284057.00 36548775.00 L 28292600.00 36591724.62 L 28301143.00 36548775.00 A 161217.26 161217.26 0 0 1 28599017.00 36548775.00 L 28607560.00 36591724.62 L 28616103.00 36548775.00 A 161217.26 161217.26 0 0 1 28913977.00 36548775.00 L 28922520.00 36591724.62 L 28931063.00 36548775.00 A 161217.26 161217.26 0 0 1 29228937.00 36548775.00 L 29237480.00 36591724.62 L 29246023.00 36548775.00 A 161217.26 161217.26 0 0 1 29543897.00 36548775.00 L 29552440.00 36591724.62 L 29560983.00 36548775.00 A 161217.26 161217.26 0 0 1 29858857.00 36548775.00 L 29867400.00 36591724.62 L 29875943.00 36548775.00 A 161217.26 161217.26 0 0 1 30173817.00 36548775.00 L 30182360.00 36591724.62 L 30190903.00 36548775.00 A 161217.26 161217.26 0 0 1 30488777.00 36548775.00 L 30497320.00 36591724.62 L 30505863.00 36548775.00 A 161217.26 161217.26 0 0 1 30816008.00 36610467.00 L 30816008.00 37181333.00 A 161201.22 161201.22 0 0 1 30505863.00 37243025.00  zM 30505863.00 41731225.00 L 30497320.00 41688275.38 L 30488777.00 41731225.00 A 161217.26 161217.26 0 0 1 30190903.00 41731225.00 L 30182360.00 41688275.38 L 30173817.00 41731225.00 A 161217.26 161217.26 0 0 1 29875943.00 41731225.00 L 29867400.00 41688275.38 L 29858857.00 41731225.00 A 161217.26 161217.26 0 0 1 29560983.00 41731225.00 L 29552440.00 41688275.38 L 29543897.00 41731225.00 A 161217.26 161217.26 0 0 1 29246023.00 41731225.00 L 29237480.00 41688275.38 L 29228937.00 41731225.00 A 161217.26 161217.26 0 0 1 28931063.00 41731225.00 L 28922520.00 41688275.38 L 28913977.00 41731225.00 A 161217.26 161217.26 0 0 1 28616103.00 41731225.00 L 28607560.00 41688275.38 L 28599017.00 41731225.00 A 161217.26 161217.26 0 0 1 28301143.00 41731225.00 L 28292600.00 41688275.38 L 28284057.00 41731225.00 A 161217.26 161217.26 0 0 1 27986183.00 41731225.00 L 27977640.00 41688275.38 L 27969097.00 41731225.00 A 161217.26 161217.26 0 0 1 27671223.00 41731225.00 L 27662680.00 41688275.38 L 27654137.00 41731225.00 A 161217.26 161217.26 0 0 1 27343992.00 41669533.00 L 27343992.00 41098667.00 A 161201.22 161201.22 0 0 1 27654137.00 41036975.00 L 27662680.00 41079924.62 L 27671223.00 41036975.00 A 161217.26 161217.26 0 0 1 27969097.00 41036975.00 L 27977640.00 41079924.62 L 27986183.00 41036975.00 A 161217.26 161217.26 0 0 1 28284057.00 41036975.00 L 28292600.00 41079924.62 L 28301143.00 41036975.00 A 161217.26 161217.26 0 0 1 28599017.00 41036975.00 L 28607560.00 41079924.62 L 28616103.00 41036975.00 A 161217.26 161217.26 0 0 1 28913977.00 41036975.00 L 28922520.00 41079924.62 L 28931063.00 41036975.00 A 161217.26 161217.26 0 0 1 29228937.00 41036975.00 L 29237480.00 41079924.62 L 29246023.00 41036975.00 A 161217.26 161217.26 0 0 1 29543897.00 41036975.00 L 29552440.00 41079924.62 L 29560983.00 41036975.00 A 161217.26 161217.26 0 0 1 29858857.00 41036975.00 L 29867400.00 41079924.62 L 29875943.00 41036975.00 A 161217.26 161217.26 0 0 1 30173817.00 41036975.00 L 30182360.00 41079924.62 L 30190903.00 41036975.00 A 161217.26 161217.26 0 0 1 30488777.00 41036975.00 L 30497320.00 41079924.62 L 30505863.00 41036975.00 A 161217.26 161217.26 0 0 1 30816008.00 41098667.00 L 30816008.00 41669533.00 A 161201.22 161201.22 0 0 1 30505863.00 41731225.00  zM 31609533.00 40876008.00 L 31038667.00 40876008.00 A 161201.22 161201.22 0 0 1 30976975.00 40565863.00 L 31019924.62 40557320.00 L 30976975.00 40548777.00 A 161217.26 161217.26 0 0 1 30976975.00 40250903.00 L 31019924.62 40242360.00 L 30976975.00 40233817.00 A 161217.26 161217.26 0 0 1 30976975.00 39935943.00 L 31019924.62 39927400.00 L 30976975.00 39918857.00 A 161217.26 161217.26 0 0 1 30976975.00 39620983.00 L 31019924.62 39612440.00 L 30976975.00 39603897.00 A 161217.26 161217.26 0 0 1 30976975.00 39306023.00 L 31019924.62 39297480.00 L 30976975.00 39288937.00 A 161217.26 161217.26 0 0 1 30976975.00 38991063.00 L 31019924.62 38982520.00 L 30976975.00 38973977.00 A 161217.26 161217.26 0 0 1 30976975.00 38676103.00 L 31019924.62 38667560.00 L 30976975.00 38659017.00 A 161217.26 161217.26 0 0 1 30976975.00 38361143.00 L 31019924.62 38352600.00 L 30976975.00 38344057.00 A 161217.26 161217.26 0 0 1 30976975.00 38046183.00 L 31019924.62 38037640.00 L 30976975.00 38029097.00 A 161217.26 161217.26 0 0 1 30976975.00 37731223.00 L 31019924.62 37722680.00 L 30976975.00 37714137.00 A 161217.26 161217.26 0 0 1 31038667.00 37403992.00 L 31609533.00 37403992.00 A 161201.22 161201.22 0 0 1 31671225.00 37714137.00 L 31628275.38 37722680.00 L 31671225.00 37731223.00 A 161217.26 161217.26 0 0 1 31671225.00 38029097.00 L 31628275.38 38037640.00 L 31671225.00 38046183.00 A 161217.26 161217.26 0 0 1 31671225.00 38344057.00 L 31628275.38 38352600.00 L 31671225.00 38361143.00 A 161217.26 161217.26 0 0 1 31671225.00 38659017.00 L 31628275.38 38667560.00 L 31671225.00 38676103.00 A 161217.26 161217.26 0 0 1 31671225.00 38973977.00 L 31628275.38 38982520.00 L 31671225.00 38991063.00 A 161217.26 161217.26 0 0 1 31671225.00 39288937.00 L 31628275.38 39297480.00 L 31671225.00 39306023.00 A 161217.26 161217.26 0 0 1 31671225.00 39603897.00 L 31628275.38 39612440.00 L 31671225.00 39620983.00 A 161217.26 161217.26 0 0 1 31671225.00 39918857.00 L 31628275.38 39927400.00 L 31671225.00 39935943.00 A 161217.26 161217.26 0 0 1 31671225.00 40233817.00 L 31628275.38 40242360.00 L 31671225.00 40250903.00 A 161217.26 161217.26 0 0 1 31671225.00 40548777.00 L 31628275.38 40557320.00 L 31671225.00 40565863.00 A 161217.26 161217.26 0 0 1 31609533.00 40876008.00  zM 29051425.00 42506850.00 L 28617095.00 42506850.00 L 28617095.00 42033150.00 L 29051425.00 42033150.00 L 29051425.00 42506850.00  zM 31661898.00 41885748.00 L 31129142.00 41885748.00 L 31129142.00 41274252.00 L 31661898.00 41274252.00 L 31661898.00 41885748.00  zM 32350858.00 41885748.00 L 31818102.00 41885748.00 L 31818102.00 41274252.00 L 32350858.00 41274252.00 L 32350858.00 41885748.00  zM 29582905.00 42506850.00 L 29148575.00 42506850.00 L 29148575.00 42033150.00 L 29582905.00 42033150.00 L 29582905.00 42506850.00  zM 29980047.38 46783201.59 m -930321.41 0 a 930321.41 930321.41 0 1 1 1860642.83 0a 930321.41 930321.41 0 1 1 -1860642.83 0M 33126220.00 38143616.00 L 32573780.00 38143616.00 L 32573780.00 36685664.00 L 33126220.00 36685664.00 L 33126220.00 38143616.00  zM 34157165.00 37705198.00 L 33802835.00 37705198.00 L 33802835.00 37409922.00 L 34157165.00 37409922.00 L 34157165.00 37705198.00  zM 34157165.00 38177638.00 L 33802835.00 38177638.00 L 33802835.00 37882362.00 L 34157165.00 37882362.00 L 34157165.00 38177638.00  zM 37583770.00 34176063.00 L 37347550.00 34176063.00 L 37347550.00 33683937.00 L 37583770.00 33683937.00 L 37583770.00 34176063.00  zM 37312898.00 38166108.00 L 36780142.00 38166108.00 L 36780142.00 37554612.00 L 37312898.00 37554612.00 L 37312898.00 38166108.00  zM 38001878.00 38166108.00 L 37469122.00 38166108.00 L 37469122.00 37554612.00 L 38001878.00 37554612.00 L 38001878.00 38166108.00  zM 34187165.00 39251418.00 L 33832835.00 39251418.00 L 33832835.00 38956142.00 L 34187165.00 38956142.00 L 34187165.00 39251418.00  zM 34187165.00 39723858.00 L 33832835.00 39723858.00 L 33832835.00 39428582.00 L 34187165.00 39428582.00 L 34187165.00 39723858.00  zM 37130777.00 39768746.00 L 36903223.00 39768746.00 L 36903223.00 39168654.00 L 37130777.00 39168654.00 L 37130777.00 39768746.00  zM 37275014.00 38938269.00 L 37275014.00 38565731.00 A 116002.63 116002.63 0 0 1 37507026.00 38565731.00 L 37507026.00 38938269.00 A 116002.63 116002.63 0 0 1 37275014.00 38938269.00  zM 37649014.00 39654969.00 L 37649014.00 39282431.00 A 116002.63 116002.63 0 0 1 37881026.00 39282431.00 L 37881026.00 39654969.00 A 116002.63 116002.63 0 0 1 37649014.00 39654969.00  zM 40113994.00 31817929.00 L 40113994.00 31445391.00 A 116002.63 116002.63 0 1 1 40346006.00 31445391.00 L 40346006.00 31817929.00 A 116002.63 116002.63 0 1 1 40113994.00 31817929.00  zM 40488014.00 32534609.00 L 40488014.00 32162071.00 A 116002.63 116002.63 0 0 1 40720026.00 32162071.00 L 40720026.00 32534609.00 A 116002.63 116002.63 0 0 1 40488014.00 32534609.00  zM 39969757.00 32648386.00 L 39742203.00 32648386.00 L 39742203.00 32048294.00 L 39969757.00 32048294.00 L 39969757.00 32648386.00  zM 39751898.00 33515748.00 L 39219142.00 33515748.00 L 39219142.00 32904252.00 L 39751898.00 32904252.00 L 39751898.00 33515748.00  zM 40440858.00 33515748.00 L 39908102.00 33515748.00 L 39908102.00 32904252.00 L 40440858.00 32904252.00 L 40440858.00 33515748.00  zM 38292450.00 34176063.00 L 38056230.00 34176063.00 L 38056230.00 33683937.00 L 38292450.00 33683937.00 L 38292450.00 34176063.00  zM 42018110.00 39095196.00 L 41781890.00 39095196.00 A 180637.35 180637.35 0 1 1 41781890.00 38733924.00 L 42018110.00 38733924.00 A 180637.35 180637.35 0 0 1 42018110.00 39095196.00  zM 40289770.00 39236936.00 L 40053550.00 39236936.00 A 180637.35 180637.35 0 0 1 40053550.00 38875664.00 L 40289770.00 38875664.00 A 180637.35 180637.35 0 0 1 40289770.00 39236936.00  zM 39679521.00 39264958.32 m -130461.68 0 a 130461.68 130461.68 0 1 1 260923.35 0a 130461.68 130461.68 0 1 1 -260923.35 0M 39935441.00 39579918.32 m -130461.68 0 a 130461.68 130461.68 0 1 1 260923.35 0a 130461.68 130461.68 0 1 1 -260923.35 0M 33126220.00 40308976.00 L 32573780.00 40308976.00 L 32573780.00 38851024.00 L 33126220.00 38851024.00 L 33126220.00 40308976.00  zM 37424259.00 41798154.00 L 36991866.00 41365761.00 L 37368581.00 40989046.00 L 37800974.00 41421439.00 L 37424259.00 41798154.00  zM 37911439.00 41310974.00 L 37479046.00 40878581.00 L 37855761.00 40501866.00 L 38288154.00 40934259.00 L 37911439.00 41310974.00  zM 39935441.00 40839758.32 m -130461.68 0 a 130461.68 130461.68 0 1 1 260923.35 0a 130461.68 130461.68 0 1 1 -260923.35 0M 39549060.00 42158655.00 L 39549060.00 42040545.00 A 130461.68 130461.68 0 0 1 39809980.00 42040545.00 L 39809980.00 42158655.00 A 130461.68 130461.68 0 0 1 39549060.00 42158655.00  zM 39771898.00 43355748.00 L 39239142.00 43355748.00 L 39239142.00 42744252.00 L 39771898.00 42744252.00 L 39771898.00 43355748.00  zM 39935441.00 40209838.32 m -130461.68 0 a 130461.68 130461.68 0 1 1 260923.35 0a 130461.68 130461.68 0 1 1 -260923.35 0M 39935441.00 40524798.32 m -130461.68 0 a 130461.68 130461.68 0 1 1 260923.35 0a 130461.68 130461.68 0 1 1 -260923.35 0M 39935441.00 41154718.32 m -130461.68 0 a 130461.68 130461.68 0 1 1 260923.35 0a 130461.68 130461.68 0 1 1 -260923.35 0M 39935441.00 41784638.32 m -130461.68 0 a 130461.68 130461.68 0 1 1 260923.35 0a 130461.68 130461.68 0 1 1 -260923.35 0M 40289770.00 42488896.00 L 40053550.00 42488896.00 A 180637.35 180637.35 0 0 1 40053550.00 42127624.00 L 40289770.00 42127624.00 A 180637.35 180637.35 0 0 1 40289770.00 42488896.00  zM 40211021.00 39737398.32 m -130461.68 0 a 130461.68 130461.68 0 1 1 260923.35 0a 130461.68 130461.68 0 1 1 -260923.35 0M 40211021.00 40052358.32 m -130461.68 0 a 130461.68 130461.68 0 1 1 260923.35 0a 130461.68 130461.68 0 1 1 -260923.35 0M 40211021.00 40367318.32 m -130461.68 0 a 130461.68 130461.68 0 1 1 260923.35 0a 130461.68 130461.68 0 1 1 -260923.35 0M 40211021.00 40997238.32 m -130461.68 0 a 130461.68 130461.68 0 1 1 260923.35 0a 130461.68 130461.68 0 1 1 -260923.35 0M 40211021.00 41312198.32 m -130461.68 0 a 130461.68 130461.68 0 1 1 260923.35 0a 130461.68 130461.68 0 1 1 -260923.35 0M 40211021.00 41627158.32 m -130461.68 0 a 130461.68 130461.68 0 1 1 260923.35 0a 130461.68 130461.68 0 1 1 -260923.35 0M 40460858.00 43355748.00 L 39928102.00 43355748.00 L 39928102.00 42744252.00 L 40460858.00 42744252.00 L 40460858.00 43355748.00  zM 42018110.00 42630636.00 L 41781890.00 42630636.00 A 180637.35 180637.35 0 1 1 41781890.00 42269364.00 L 42018110.00 42269364.00 A 180637.35 180637.35 0 0 1 42018110.00 42630636.00  zM 41158419.16 44135740.29 m -427514.71 0 a 427514.71 427514.71 0 1 1 855029.42 0a 427514.71 427514.71 0 1 1 -855029.42 0M 41350349.00 46532662.00 L 40966491.00 46532662.00 A 236472.65 236472.65 0 0 1 40730018.00 46296189.00 L 40730018.00 45912331.00 A 236472.65 236472.65 0 0 1 40966491.00 45675858.00 L 41350349.00 45675858.00 A 236472.65 236472.65 0 0 1 41586822.00 45912331.00 L 41586822.00 46296189.00 A 236472.65 236472.65 0 0 1 41350349.00 46532662.00  z"/>
</g>
</svg>
