<svg width="41.99999982mm" height="20.00000064mm" viewBox="0 0 16535433 7874016"  version="1.1" xmlns="http://www.w3.org/2000/svg" xmlns:xlink="http://www.w3.org/1999/xlink">
<desc>
Origin 7874016 35433071 Bound 7874016 31496063 16535433 7874016
</desc>
<g fill-rule="evenodd" fill="rgb(0, 0, 255)" stroke="black" stroke-width="1" transform="translate(0, 7874016) scale(1, -1) translate(-7874016, -31496063)">
<path id="N" d="M 20754723.00 36203070.00 L 20708843.00 36203070.00 L 20708843.00 36124782.95 L 21021630.05 35811995.00 L 22418128.26 35811995.00 L 22438863.00 35843028.00 A 120431.73 120431.73 0 1 0 22438863.00 35672722.00 L 22418128.26 35703755.00 L 20999213.00 35703755.00 L 20960943.29 35719607.71 L 20616454.00 36064096.00 L 20600603.00 36102367.41 L 20600603.00 36203070.00 L 20554723.00 36203070.00 L 20554723.00 36674172.00 L 20754723.00 36674172.00 L 20754723.00 36203070.00  z"/>
<path id="N" d="M 22524024.16 36407883.16 m -120412.98 0 a 120412.98 120412.98 0 1 1 240825.96 0a 120412.98 120412.98 0 1 1 -240825.96 0"/>
<path id="N" d="M 19754723.00 34191968.00 L 19658843.00 34191968.00 L 19658844.00 34163778.00 L 19642990.29 34125508.29 L 19437158.59 33919675.85 L 19444440.00 33883071.00 A 120431.73 120431.73 0 1 0 19324016.00 34003495.00 L 19360620.85 33996213.59 L 19550603.00 34186195.06 L 19550602.00 34377519.00 L 19554723.00 34387467.68 L 19554723.00 34663070.00 L 19754723.00 34663070.00 L 19754723.00 34191968.00  z"/>
<path id="N" d="M 12773380.16 38801440.16 m -120412.98 0 a 120412.98 120412.98 0 1 1 240825.96 0a 120412.98 120412.98 0 1 1 -240825.96 0"/>
<path id="N" d="M 13998290.16 32064718.16 m -120412.98 0 a 120412.98 120412.98 0 1 1 240825.96 0a 120412.98 120412.98 0 1 1 -240825.96 0"/>
<path id="N" d="M 12519693.16 32677173.16 m -120412.98 0 a 120412.98 120412.98 0 1 1 240825.96 0a 120412.98 120412.98 0 1 1 -240825.96 0"/>
<path id="N" d="M 14251977.16 38188985.16 m -120412.98 0 a 120412.98 120412.98 0 1 1 240825.96 0a 120412.98 120412.98 0 1 1 -240825.96 0"/>
<path id="N" d="M 12773380.16 37576530.16 m -120412.98 0 a 120412.98 120412.98 0 1 1 240825.96 0a 120412.98 120412.98 0 1 1 -240825.96 0"/>
<path id="N" d="M 13998290.16 38801440.16 m -120412.98 0 a 120412.98 120412.98 0 1 1 240825.96 0a 120412.98 120412.98 0 1 1 -240825.96 0"/>
<path id="N" d="M 13385835.16 39055127.16 m -120412.98 0 a 120412.98 120412.98 0 1 1 240825.96 0a 120412.98 120412.98 0 1 1 -240825.96 0"/>
<path id="N" d="M 14251977.16 32677173.16 m -120412.98 0 a 120412.98 120412.98 0 1 1 240825.96 0a 120412.98 120412.98 0 1 1 -240825.96 0"/>
<path id="N" d="M 12773380.16 33289628.16 m -120412.98 0 a 120412.98 120412.98 0 1 1 240825.96 0a 120412.98 120412.98 0 1 1 -240825.96 0"/>
<path id="N" d="M 13385835.16 33543315.16 m -120412.98 0 a 120412.98 120412.98 0 1 1 240825.96 0a 120412.98 120412.98 0 1 1 -240825.96 0"/>
<path id="N" d="M 13385835.16 31811031.16 m -120412.98 0 a 120412.98 120412.98 0 1 1 240825.96 0a 120412.98 120412.98 0 1 1 -240825.96 0"/>
<path id="N" d="M 12773380.16 32064718.16 m -120412.98 0 a 120412.98 120412.98 0 1 1 240825.96 0a 120412.98 120412.98 0 1 1 -240825.96 0"/>
<path id="N" d="M 13998290.16 33289628.16 m -120412.98 0 a 120412.98 120412.98 0 1 1 240825.96 0a 120412.98 120412.98 0 1 1 -240825.96 0"/>
<path id="N" d="M 13998290.16 37576530.16 m -120412.98 0 a 120412.98 120412.98 0 1 1 240825.96 0a 120412.98 120412.98 0 1 1 -240825.96 0"/>
<path id="N" d="M 12519693.16 38188985.16 m -120412.98 0 a 120412.98 120412.98 0 1 1 240825.96 0a 120412.98 120412.98 0 1 1 -240825.96 0"/>
<path id="N" d="M 13385835.16 37322843.16 m -120412.98 0 a 120412.98 120412.98 0 1 1 240825.96 0a 120412.98 120412.98 0 1 1 -240825.96 0"/>
<path id="N" d="M 9228946.00 37852424.00 L 9213919.67 37829935.33 L 10151547.00 36892308.00 L 12418899.00 36892309.00 L 12457168.00 36876457.00 L 12737410.71 36596213.50 L 12774016.00 36603495.00 A 120431.73 120431.73 0 1 0 12653592.00 36483071.00 L 12660873.50 36519676.29 L 12396481.04 36784068.00 L 10129129.00 36784068.00 L 10090860.00 36799919.00 L 9137381.67 37753397.33 L 9114893.00 37738371.00 A 210736.95 210736.95 0 1 0 9228946.00 37852424.00  zM 9034248.38 37933065.09 m -140500.91 0 a 140500.91 140500.91 0 1 1 281001.82 0a 140500.91 140500.91 0 1 1 -281001.82 0"/>
<path id="N" d="M 19859169.00 35818224.00 L 19879903.74 35787191.00 L 20124017.00 35787192.00 L 20162286.00 35771340.00 L 20690865.00 35242761.00 L 20706716.00 35204489.59 L 20706716.00 34663070.00 L 20754723.00 34663070.00 L 20754723.00 34191968.00 L 20708843.00 34191968.00 L 20708843.00 33813778.00 L 20692990.29 33775508.29 L 20362285.00 33444802.00 L 20324013.59 33428951.00 L 19929903.74 33428951.00 L 19909169.00 33397918.00 A 120431.73 120431.73 0 1 0 19909169.00 33568224.00 L 19929903.74 33537191.00 L 20301598.05 33537191.00 L 20600603.00 33836195.05 L 20600603.00 34191968.00 L 20554723.00 34191968.00 L 20554723.00 34663070.00 L 20598476.00 34663070.00 L 20598476.00 35182074.97 L 20101599.03 35678951.00 L 19879903.74 35678951.00 L 19859169.00 35647918.00 A 120431.73 120431.73 0 1 0 19859169.00 35818224.00  z"/>
<path id="N" d="M 9240158.00 34183071.00 L 8826772.00 34183071.00 L 8826772.00 34596457.00 L 9240158.00 34596457.00 L 9240158.00 34183071.00  zM 9033467.38 34389758.09 m -140500.91 0 a 140500.91 140500.91 0 1 1 281001.82 0a 140500.91 140500.91 0 1 1 -281001.82 0"/>
<path id="N" d="M 17324024.16 33807884.16 m -120412.98 0 a 120412.98 120412.98 0 1 1 240825.96 0a 120412.98 120412.98 0 1 1 -240825.96 0"/>
<path id="N" d="M 17324024.16 33157884.16 m -120412.98 0 a 120412.98 120412.98 0 1 1 240825.96 0a 120412.98 120412.98 0 1 1 -240825.96 0"/>
<path id="N" d="M 20274024.16 36933079.16 m -120412.98 0 a 120412.98 120412.98 0 1 1 240825.96 0a 120412.98 120412.98 0 1 1 -240825.96 0"/>
<path id="N" d="M 20254723.00 36203070.00 L 20054723.00 36203070.00 L 20054723.00 36674172.00 L 20254723.00 36674172.00 L 20254723.00 36203070.00  z"/>
<path id="N" d="M 19588863.00 37047918.00 L 19568128.26 37078951.00 L 18896434.00 37078951.00 L 18624986.00 36807503.00 L 18624986.00 34764972.74 L 18656019.00 34744238.00 A 120431.73 120431.73 0 1 0 18485713.00 34744238.00 L 18516746.00 34764972.74 L 18516745.00 36829921.00 L 18532597.00 36868190.00 L 18835747.00 37171340.00 L 18874018.41 37187191.00 L 19568128.26 37187191.00 L 19588863.00 37218224.00 A 120431.73 120431.73 0 1 0 19588863.00 37047918.00  z"/>
<path id="N" d="M 10215351.29 37933073.29 m -210738.62 0 a 210738.62 210738.62 0 1 1 421477.24 0a 210738.62 210738.62 0 1 1 -421477.24 0M 10215351.38 37933065.09 m -140500.91 0 a 140500.91 140500.91 0 1 1 281001.82 0a 140500.91 140500.91 0 1 1 -281001.82 0"/>
<path id="N" d="M 9624018.29 32933073.29 m -210738.62 0 a 210738.62 210738.62 0 1 1 421477.24 0a 210738.62 210738.62 0 1 1 -421477.24 0M 9624018.38 32933065.09 m -140500.91 0 a 140500.91 140500.91 0 1 1 281001.82 0a 140500.91 140500.91 0 1 1 -281001.82 0"/>
<path id="N" d="M 14809169.00 36747918.00 L 14778136.00 36727183.26 L 14778136.00 35238958.74 L 14809169.00 35218224.00 A 120431.73 120431.73 0 1 0 14638863.00 35218224.00 L 14669896.00 35238958.74 L 14669896.00 36727183.26 L 14638863.00 36747918.00 A 120431.73 120431.73 0 1 0 14809169.00 36747918.00  z"/>
<path id="N" d="M 10436230.16 35433079.16 m -120412.98 0 a 120412.98 120412.98 0 1 1 240825.96 0a 120412.98 120412.98 0 1 1 -240825.96 0"/>
<path id="N" d="M 19074024.16 37583079.16 m -120412.98 0 a 120412.98 120412.98 0 1 1 240825.96 0a 120412.98 120412.98 0 1 1 -240825.96 0"/>
<path id="N" d="M 20449219.16 38033079.16 m -120412.98 0 a 120412.98 120412.98 0 1 1 240825.96 0a 120412.98 120412.98 0 1 1 -240825.96 0"/>
<path id="N" d="M 19799219.16 38033079.16 m -120412.98 0 a 120412.98 120412.98 0 1 1 240825.96 0a 120412.98 120412.98 0 1 1 -240825.96 0"/>
<path id="N" d="M 19674024.16 37583079.16 m -120412.98 0 a 120412.98 120412.98 0 1 1 240825.96 0a 120412.98 120412.98 0 1 1 -240825.96 0"/>
<path id="N" d="M 9786230.16 35433079.16 m -120412.98 0 a 120412.98 120412.98 0 1 1 240825.96 0a 120412.98 120412.98 0 1 1 -240825.96 0"/>
<path id="N" d="M 19754723.00 36203070.00 L 19554723.00 36203070.00 L 19554723.00 36674172.00 L 19754723.00 36674172.00 L 19754723.00 36203070.00  z"/>
<path id="N" d="M 11012593.00 36269685.00 L 10599207.00 36269685.00 L 10599207.00 36683071.00 L 11012593.00 36683071.00 L 11012593.00 36269685.00  zM 10805902.38 36476372.09 m -140500.91 0 a 140500.91 140500.91 0 1 1 281001.82 0a 140500.91 140500.91 0 1 1 -281001.82 0"/>
<path id="N" d="M 19185273.00 35936987.00 L 19178143.87 35926317.07 L 20192992.00 34911469.00 L 20208843.00 34873200.00 L 20208843.00 34663070.00 L 20254723.00 34663070.00 L 20254723.00 34191968.00 L 20208843.00 34191968.00 L 20208843.00 34019665.74 L 20239876.00 33998931.00 A 120431.73 120431.73 0 1 0 20069570.00 33998931.00 L 20100603.00 34019665.74 L 20100603.00 34191968.00 L 20054723.00 34191968.00 L 20054723.00 34663070.00 L 20100603.00 34663070.00 L 20100603.00 34850782.99 L 19086295.43 35865089.62 L 19074016.00 35862647.00 A 120431.73 120431.73 0 1 0 19185273.00 35936987.00  z"/>
<path id="N" d="M 10805121.29 32933073.29 m -210738.62 0 a 210738.62 210738.62 0 1 1 421477.24 0a 210738.62 210738.62 0 1 1 -421477.24 0M 10805121.38 32933065.09 m -140500.91 0 a 140500.91 140500.91 0 1 1 281001.82 0a 140500.91 140500.91 0 1 1 -281001.82 0"/>
<path id="N" d="M 19124024.16 32408275.16 m -120412.98 0 a 120412.98 120412.98 0 1 1 240825.96 0a 120412.98 120412.98 0 1 1 -240825.96 0"/>
<path id="N" d="M 19124024.16 33058275.16 m -120412.98 0 a 120412.98 120412.98 0 1 1 240825.96 0a 120412.98 120412.98 0 1 1 -240825.96 0"/>
<path id="N" d="M 21527932.00 34821814.00 L 21505195.51 34837005.42 L 21254723.00 34586532.18 L 21254723.00 34191968.00 L 21054723.00 34191968.00 L 21054723.00 34663070.00 L 21178185.18 34663070.00 L 21454934.14 34939818.16 L 21462759.00 34979155.00 A 120412.98 120412.98 0 1 0 21527932.00 34821814.00  z"/>
<path id="N" d="M 10214569.29 34389766.29 m -210738.62 0 a 210738.62 210738.62 0 1 1 421477.24 0a 210738.62 210738.62 0 1 1 -421477.24 0M 10214569.38 34389758.09 m -140500.91 0 a 140500.91 140500.91 0 1 1 281001.82 0a 140500.91 140500.91 0 1 1 -281001.82 0"/>
<path id="N" d="M 9624800.29 36476380.29 m -210738.62 0 a 210738.62 210738.62 0 1 1 421477.24 0a 210738.62 210738.62 0 1 1 -421477.24 0M 9624800.38 36476372.09 m -140500.91 0 a 140500.91 140500.91 0 1 1 281001.82 0a 140500.91 140500.91 0 1 1 -281001.82 0"/>
<path id="N" d="M 21218489.00 36921493.54 L 21218489.00 36674172.00 L 21254723.00 36674172.00 L 21254723.00 36203070.00 L 21054723.00 36203070.00 L 21054723.00 36674172.00 L 21110249.00 36674172.00 L 21110249.00 36933628.92 L 21088863.00 36947918.00 A 120431.73 120431.73 0 1 0 21218489.00 36921493.54  z"/>
<path id="N" d="M 19774024.16 33883079.16 m -120412.98 0 a 120412.98 120412.98 0 1 1 240825.96 0a 120412.98 120412.98 0 1 1 -240825.96 0"/>
<path id="N" d="M 16120874.16 35233079.16 m -120412.98 0 a 120412.98 120412.98 0 1 1 240825.96 0a 120412.98 120412.98 0 1 1 -240825.96 0"/>
<path id="N" d="M 8211426.16 35433079.16 m -120412.98 0 a 120412.98 120412.98 0 1 1 240825.96 0a 120412.98 120412.98 0 1 1 -240825.96 0"/>
<path id="N" d="M 15909064.16 38648039.16 m -120412.98 0 a 120412.98 120412.98 0 1 1 240825.96 0a 120412.98 120412.98 0 1 1 -240825.96 0"/>
<path id="N" d="M 19224386.16 36283803.16 m -120412.98 0 a 120412.98 120412.98 0 1 1 240825.96 0a 120412.98 120412.98 0 1 1 -240825.96 0"/>
<path id="N" d="M 16624024.16 37433079.16 m -120412.98 0 a 120412.98 120412.98 0 1 1 240825.96 0a 120412.98 120412.98 0 1 1 -240825.96 0"/>
<path id="N" d="M 17324024.16 37433079.16 m -120412.98 0 a 120412.98 120412.98 0 1 1 240825.96 0a 120412.98 120412.98 0 1 1 -240825.96 0"/>
<path id="N" d="M 11974024.16 35433079.16 m -120412.98 0 a 120412.98 120412.98 0 1 1 240825.96 0a 120412.98 120412.98 0 1 1 -240825.96 0"/>
<path id="N" d="M 19124024.16 35433079.16 m -120412.98 0 a 120412.98 120412.98 0 1 1 240825.96 0a 120412.98 120412.98 0 1 1 -240825.96 0"/>
<path id="N" d="M 13313788.16 35833079.16 m -120412.98 0 a 120412.98 120412.98 0 1 1 240825.96 0a 120412.98 120412.98 0 1 1 -240825.96 0"/>
<path id="N" d="M 20774024.16 33057883.16 m -120412.98 0 a 120412.98 120412.98 0 1 1 240825.96 0a 120412.98 120412.98 0 1 1 -240825.96 0"/>
<path id="N" d="M 21674024.16 33583079.16 m -120412.98 0 a 120412.98 120412.98 0 1 1 240825.96 0a 120412.98 120412.98 0 1 1 -240825.96 0"/>
<path id="N" d="M 20024024.16 35383079.16 m -120412.98 0 a 120412.98 120412.98 0 1 1 240825.96 0a 120412.98 120412.98 0 1 1 -240825.96 0"/>
<path id="N" d="M 20774024.16 32407883.16 m -120412.98 0 a 120412.98 120412.98 0 1 1 240825.96 0a 120412.98 120412.98 0 1 1 -240825.96 0"/>
<path id="N" d="M 8861426.16 35433079.16 m -120412.98 0 a 120412.98 120412.98 0 1 1 240825.96 0a 120412.98 120412.98 0 1 1 -240825.96 0"/>
<path id="N" d="M 15270087.16 33109064.16 m -120412.98 0 a 120412.98 120412.98 0 1 1 240825.96 0a 120412.98 120412.98 0 1 1 -240825.96 0"/>
<path id="N" d="M 19624024.16 33133079.16 m -120412.98 0 a 120412.98 120412.98 0 1 1 240825.96 0a 120412.98 120412.98 0 1 1 -240825.96 0"/>
</g>
</svg>
