<svg width="35.90526474mm" height="21.80000212mm" viewBox="0 0 14135931 8582678"  version="1.1" xmlns="http://www.w3.org/2000/svg" xmlns:xlink="http://www.w3.org/1999/xlink">
<desc>
Origin 9055113 35433070 Bound 9055118 31141731 14135931 8582678
</desc>
<g fill-rule="evenodd" fill="rgb(255, 255, 0)" stroke="black" stroke-width="1" transform="translate(0, 8582678) scale(1, -1) translate(-9055118, -31141731)">
<path id="N" d="M 15524542.00 34634491.00 L 15550762.00 34625314.00 L 15567805.00 34612204.00 L 15582226.00 34590354.00 L 15589218.00 34569815.00 L 15590092.00 34557142.00 L 15587470.00 34539662.00 L 15578293.00 34520434.00 L 15565620.00 34508635.00 L 15545518.00 34497273.00 L 15561250.00 34490281.00 L 15581352.00 34474986.00 L 15592277.00 34460128.00 A 86509.88 86509.88 0 0 0 15595773.00 34387149.00 L 15587470.00 34370543.00 L 15574797.00 34354811.00 L 15550762.00 34339079.00 L 15525853.00 34331213.00 L 15498322.00 34328591.00 L 15465110.00 34335146.00 L 15447193.00 34342575.00 L 15430150.00 34354811.00 L 15419225.00 34368795.00 L 15407426.00 34393704.00 L 15403056.00 34420798.00 L 15406552.00 34446144.00 A 67715.68 67715.68 0 0 0 15442386.00 34490281.00 L 15459866.00 34497710.00 L 15441949.00 34506887.00 L 15425780.00 34522182.00 L 15418788.00 34537477.00 L 15415292.00 34559327.00 L 15418351.00 34578555.00 L 15427965.00 34601279.00 L 15438890.00 34614826.00 L 15459866.00 34628373.00 L 15487834.00 34636676.00 L 15524542.00 34634491.00  zM 15486086.00 34479356.00 L 15464673.00 34469742.00 A 64947.56 64947.56 0 0 1 15465110.00 34370543.00 L 15479968.00 34363114.00 L 15502692.00 34359181.00 L 15525416.00 34363551.00 L 15539837.00 34370543.00 L 15552510.00 34383216.00 A 60931.81 60931.81 0 0 1 15562124.00 34435219.00 L 15552510.00 34456632.00 A 64214.90 64214.90 0 0 1 15486086.00 34479356.00  zM 15478220.00 34601279.00 L 15466421.00 34592539.00 L 15460303.00 34583799.00 L 15453748.00 34567193.00 L 15453748.00 34556705.00 L 15458992.00 34536603.00 L 15467295.00 34524804.00 L 15476472.00 34518686.00 L 15494826.00 34512131.00 L 15506188.00 34512131.00 L 15526727.00 34517375.00 L 15540274.00 34527863.00 L 15549888.00 34544906.00 L 15552073.00 34561949.00 L 15545955.00 34581614.00 L 15535030.00 34595161.00 A 52011.90 52011.90 0 0 1 15478220.00 34601279.00  z"/>
<path id="N" d="M 17313685.00 32158172.00 L 17336617.00 32148344.00 L 17360095.00 32130872.00 L 17374837.00 32113400.00 L 17383573.00 32096474.00 L 17390125.00 32077364.00 L 17393947.00 32054432.00 L 17345899.00 32051156.00 L 17340985.00 32070812.00 L 17332795.00 32088284.00 L 17319145.00 32104118.00 L 17309863.00 32110124.00 L 17282563.00 32119952.00 L 17253625.00 32122682.00 L 17217589.00 32118314.00 L 17196295.00 32111216.00 L 17184283.00 32103026.00 L 17170633.00 32082278.00 L 17167357.00 32065898.00 L 17168995.00 32054432.00 L 17176639.00 32038052.00 L 17187013.00 32028770.00 L 17219773.00 32015120.00 L 17257447.00 32005292.00 L 17330611.00 31985090.00 L 17351905.00 31975262.00 L 17375383.00 31958336.00 L 17392309.00 31938680.00 L 17403229.00 31910288.00 L 17405413.00 31888994.00 L 17401045.00 31861694.00 L 17393947.00 31842584.00 L 17380843.00 31822928.00 L 17359549.00 31803818.00 L 17332795.00 31789076.00 L 17294029.00 31778702.00 L 17256901.00 31776518.00 L 17207761.00 31782524.00 L 17179369.00 31791260.00 L 17167903.00 31797266.00 L 17142241.00 31816376.00 L 17125315.00 31836578.00 L 17119309.00 31847498.00 L 17108389.00 31877528.00 L 17105113.00 31904282.00 L 17152069.00 31908650.00 L 17159713.00 31876436.00 L 17169541.00 31858964.00 L 17188105.00 31841492.00 L 17205031.00 31832210.00 L 17230693.00 31824566.00 L 17263453.00 31821290.00 L 17296759.00 31824566.00 A 87060.39 87060.39 0 0 1 17346991.00 31853504.00 A 54327.74 54327.74 0 0 1 17350267.00 31911380.00 L 17333887.00 31927214.00 L 17312047.00 31938680.00 L 17254717.00 31954514.00 L 17192473.00 31971986.00 L 17167903.00 31982906.00 L 17144425.00 32000924.00 L 17130229.00 32019488.00 L 17121493.00 32044604.00 L 17119309.00 32063714.00 L 17125861.00 32097566.00 L 17135143.00 32116130.00 L 17153707.00 32136332.00 L 17171725.00 32148890.00 L 17194657.00 32158718.00 L 17237791.00 32166908.00 L 17277103.00 32165816.00 L 17313685.00 32158172.00  z"/>
<path id="N" d="M 16263685.00 32858172.00 L 16286617.00 32848344.00 L 16310095.00 32830872.00 L 16324837.00 32813400.00 L 16333573.00 32796474.00 L 16340125.00 32777364.00 L 16343947.00 32754432.00 L 16295899.00 32751156.00 L 16290985.00 32770812.00 L 16282795.00 32788284.00 L 16269145.00 32804118.00 L 16259863.00 32810124.00 L 16232563.00 32819952.00 L 16203625.00 32822682.00 L 16167589.00 32818314.00 L 16146295.00 32811216.00 L 16134283.00 32803026.00 L 16120633.00 32782278.00 L 16117357.00 32765898.00 L 16118995.00 32754432.00 L 16126639.00 32738052.00 L 16137013.00 32728770.00 L 16169773.00 32715120.00 L 16207447.00 32705292.00 L 16280611.00 32685090.00 L 16301905.00 32675262.00 L 16325383.00 32658336.00 L 16342309.00 32638680.00 L 16353229.00 32610288.00 L 16355413.00 32588994.00 L 16351045.00 32561694.00 L 16343947.00 32542584.00 L 16330843.00 32522928.00 L 16309549.00 32503818.00 L 16282795.00 32489076.00 L 16244029.00 32478702.00 L 16206901.00 32476518.00 L 16157761.00 32482524.00 L 16129369.00 32491260.00 L 16117903.00 32497266.00 L 16092241.00 32516376.00 L 16075315.00 32536578.00 L 16069309.00 32547498.00 L 16058389.00 32577528.00 L 16055113.00 32604282.00 L 16102069.00 32608650.00 L 16109713.00 32576436.00 L 16119541.00 32558964.00 L 16138105.00 32541492.00 L 16155031.00 32532210.00 L 16180693.00 32524566.00 L 16213453.00 32521290.00 L 16246759.00 32524566.00 A 87060.39 87060.39 0 0 1 16296991.00 32553504.00 A 54327.74 54327.74 0 0 1 16300267.00 32611380.00 L 16283887.00 32627214.00 L 16262047.00 32638680.00 L 16204717.00 32654514.00 L 16142473.00 32671986.00 L 16117903.00 32682906.00 L 16094425.00 32700924.00 L 16080229.00 32719488.00 L 16071493.00 32744604.00 L 16069309.00 32763714.00 L 16075861.00 32797566.00 L 16085143.00 32816130.00 L 16103707.00 32836332.00 L 16121725.00 32848890.00 L 16144657.00 32858718.00 L 16187791.00 32866908.00 L 16227103.00 32865816.00 L 16263685.00 32858172.00  z"/>
<path id="N" d="M 13144553.00 37424877.00 L 13163344.00 37410019.00 A 74524.70 74524.70 0 0 0 13184320.00 37358016.00 L 13181698.00 37341410.00 L 13172958.00 37322182.00 L 13161159.00 37309946.00 L 13142368.00 37297710.00 L 13146738.00 37296399.00 L 13171647.00 37284163.00 L 13184757.00 37271053.00 L 13191749.00 37258380.00 L 13198741.00 37233471.00 L 13198741.00 37216428.00 A 95991.53 95991.53 0 0 0 13166840.00 37153500.00 L 13144990.00 37139953.00 L 13120081.00 37131213.00 L 13092987.00 37128591.00 L 13063271.00 37134272.00 L 13046665.00 37141264.00 L 13028311.00 37154811.00 L 13012142.00 37177535.00 L 13003402.00 37200259.00 L 13001217.00 37213806.00 L 13038362.00 37218613.00 L 13040110.00 37210747.00 L 13050161.00 37185838.00 L 13062397.00 37170543.00 L 13082062.00 37161366.00 L 13097357.00 37159181.00 L 13119644.00 37163551.00 L 13134502.00 37170980.00 A 69669.78 69669.78 0 0 1 13159848.00 37222109.00 L 13155915.00 37243959.00 A 52292.56 52292.56 0 0 1 13117896.00 37278482.00 L 13100416.00 37281104.00 L 13074196.00 37277171.00 L 13078566.00 37309946.00 L 13088180.00 37309509.00 L 13112652.00 37314753.00 L 13130132.00 37323930.00 L 13140183.00 37336603.00 L 13146301.00 37354957.00 L 13144553.00 37371563.00 L 13137124.00 37388169.00 L 13126636.00 37397783.00 L 13111341.00 37404775.00 L 13096483.00 37406960.00 L 13083810.00 37405212.00 L 13066330.00 37397783.00 L 13055842.00 37387732.00 L 13046665.00 37370689.00 L 13042295.00 37352772.00 L 13005150.00 37359764.00 L 13008646.00 37372000.00 L 13020882.00 37399531.00 L 13035740.00 37417011.00 L 13045354.00 37423566.00 L 13071137.00 37434491.00 L 13089054.00 37437550.00 L 13117459.00 37434928.00 L 13144553.00 37424877.00  z"/>
<path id="N" d="M 16316803.00 34237113.00 L 16347393.00 34229247.00 L 16367058.00 34216574.00 L 16378420.00 34203027.00 L 16387597.00 34185547.00 L 16394152.00 34162386.00 L 16356570.00 34160201.00 L 16348704.00 34182051.00 L 16336905.00 34196035.00 L 16320736.00 34204338.00 L 16305441.00 34206960.00 L 16289709.00 34204338.00 L 16273103.00 34196472.00 L 16259556.00 34182051.00 L 16246009.00 34159327.00 L 16239017.00 34131359.00 L 16236395.00 34090281.00 L 16255186.00 34110820.00 L 16271792.00 34121745.00 L 16294079.00 34128300.00 L 16315492.00 34129611.00 L 16341275.00 34123493.00 L 16357007.00 34115190.00 L 16372739.00 34102517.00 L 16385849.00 34083289.00 L 16395026.00 34061002.00 L 16398959.00 34030412.00 L 16393715.00 33997637.00 L 16384101.00 33974913.00 L 16367058.00 33952626.00 L 16351763.00 33940827.00 L 16331224.00 33932524.00 L 16303693.00 33928591.00 L 16287524.00 33930339.00 L 16258682.00 33939516.00 A 89713.58 89713.58 0 0 0 16210612.00 33996763.00 L 16201435.00 34035656.00 L 16198813.00 34075860.00 L 16201435.00 34113879.00 L 16209301.00 34155394.00 L 16220663.00 34185547.00 L 16231151.00 34202590.00 L 16246883.00 34217011.00 L 16268733.00 34229247.00 L 16290583.00 34236239.00 L 16316803.00 34237113.00  zM 16287087.00 34095088.00 L 16266111.00 34085037.00 L 16256497.00 34075860.00 A 74264.18 74264.18 0 0 1 16242513.00 34019924.00 L 16249942.00 33994141.00 L 16258682.00 33981031.00 L 16273103.00 33967921.00 L 16286213.00 33962240.00 L 16305441.00 33959181.00 L 16323358.00 33963988.00 L 16340838.00 33974476.00 L 16352637.00 33991519.00 L 16358318.00 34007688.00 L 16360940.00 34029538.00 L 16357007.00 34055321.00 A 56021.26 56021.26 0 0 1 16287087.00 34095088.00  z"/>
<path id="N" d="M 18615463.00 34495281.00 L 18607597.00 34493533.00 L 18582688.00 34483482.00 L 18567393.00 34471246.00 L 18558216.00 34451581.00 L 18556031.00 34436286.00 L 18560401.00 34413999.00 L 18567830.01 34399141.00 A 69669.78 69669.78 0 0 1 18618959.01 34373795.00 L 18640809.01 34377728.00 A 52292.56 52292.56 0 0 1 18675332.00 34415747.00 L 18677954.00 34433227.00 L 18674021.00 34459447.00 L 18706796.00 34455077.00 L 18706359.00 34445463.00 L 18711603.00 34420991.00 L 18720780.00 34403511.00 L 18733453.01 34393460.00 L 18751807.01 34387342.00 L 18768413.01 34389090.00 L 18785019.01 34396519.00 L 18794633.00 34407007.00 L 18801625.00 34422302.00 L 18803810.00 34437160.00 L 18802062.00 34449833.00 L 18794633.00 34467313.00 L 18784582.00 34477801.00 L 18767539.00 34486978.00 L 18749622.00 34491348.00 L 18756614.00 34528493.00 L 18786767.00 34518005.00 L 18805558.00 34506206.00 L 18816920.00 34493533.00 A 102577.69 102577.69 0 0 0 18834400.00 34433664.00 L 18831778.00 34416184.00 L 18821727.01 34389090.00 L 18806869.01 34370299.00 A 74524.70 74524.70 0 0 0 18754866.01 34349323.00 L 18738260.01 34351945.00 L 18719032.01 34360685.00 L 18706796.01 34372484.00 L 18694560.01 34391275.00 L 18693249.01 34386905.00 L 18681013.01 34361996.00 L 18667903.01 34348886.00 L 18655230.01 34341894.00 L 18630321.01 34334902.00 L 18613278.01 34334902.00 A 95991.53 95991.53 0 0 0 18550350.01 34366803.00 L 18536803.01 34388653.00 L 18528063.00 34413562.00 L 18525441.00 34440656.00 L 18531122.00 34470372.00 L 18538114.00 34486978.00 L 18551661.00 34505332.00 L 18574385.00 34521501.00 L 18597109.00 34530241.00 L 18610656.00 34532426.00 L 18615463.00 34495281.00  z"/>
<path id="N" d="M 12700451.95 34922910.08 L 12719242.95 34908052.08 A 74524.70 74524.70 0 0 0 12740218.96 34856049.08 L 12737596.96 34839443.08 L 12728856.97 34820215.08 L 12717057.97 34807979.08 L 12698266.97 34795743.08 L 12702636.97 34794432.08 L 12727545.97 34782196.08 L 12740655.98 34769086.08 L 12747647.98 34756413.09 L 12754639.98 34731504.09 L 12754639.99 34714461.09 A 95991.53 95991.53 0 0 0 12722739.00 34651533.08 L 12700889.00 34637986.08 L 12675980.00 34629246.07 L 12648886.00 34626624.07 L 12619170.00 34632305.06 L 12602564.00 34639297.06 L 12584210.00 34652844.06 L 12568040.99 34675568.05 L 12559300.99 34698292.05 L 12557115.99 34711839.05 L 12594260.99 34716646.06 L 12596008.99 34708780.06 L 12606059.99 34683871.06 L 12618295.99 34668576.06 L 12637961.00 34659399.07 L 12653256.00 34657214.07 L 12675542.99 34661584.07 L 12690400.99 34669013.08 A 69669.78 69669.78 0 0 1 12715746.98 34720142.08 L 12711813.98 34741992.08 A 52292.56 52292.56 0 0 1 12673794.97 34776515.07 L 12656314.97 34779137.07 L 12630094.97 34775204.07 L 12634464.97 34807979.07 L 12644078.97 34807542.07 L 12668550.97 34812786.07 L 12686030.97 34821963.08 L 12696081.96 34834636.08 L 12702199.96 34852990.08 L 12700451.96 34869596.08 L 12693022.96 34886202.08 L 12682534.95 34895816.07 L 12667239.95 34902808.07 L 12652381.95 34904993.07 L 12639708.95 34903245.07 L 12622228.95 34895816.06 L 12611740.96 34885765.06 L 12602563.96 34868722.06 L 12598193.96 34850805.06 L 12561048.96 34857797.05 L 12564544.96 34870033.05 L 12576780.95 34897564.06 L 12591638.95 34915044.06 L 12601252.95 34921599.06 L 12627035.95 34932524.07 L 12644952.95 34935583.07 L 12673357.95 34932961.07 L 12700451.95 34922910.08  z"/>
<path id="N" d="M 21710967.98 35939060.99 L 21745911.98 35928687.00 L 21767751.99 35918859.00 L 21799965.99 35894835.00 L 21822351.99 35870811.00 L 21832179.99 35854977.00 L 21843645.99 35828223.00 L 21851289.99 35798739.00 L 21855111.99 35763795.00 L 21852927.99 35738679.00 L 21844191.99 35701005.00 L 21833818.00 35676435.00 L 21819076.00 35654049.00 L 21789046.00 35623473.00 L 21757378.00 35603271.00 L 21716974.00 35589620.99 A 232625.85 232625.85 0 0 0 21599584.00 35591804.99 L 21563002.00 35604362.99 L 21538978.00 35616920.99 L 21517138.00 35633846.99 L 21505126.00 35647496.98 L 21486016.00 35677526.98 L 21472365.99 35709740.98 L 21464721.99 35749052.98 L 21465267.99 35782358.98 L 21474549.99 35826038.98 L 21481101.99 35841872.98 L 21493659.99 35865350.98 L 21517137.99 35892104.99 L 21543345.99 35913398.99 L 21563547.99 35924318.99 L 21603405.98 35937422.99 L 21639987.98 35943428.99 L 21710967.98 35939060.99  zM 21607227.99 35886644.99 L 21579381.99 35877362.99 L 21560271.99 35865896.99 L 21542799.99 35851154.99 L 21526419.99 35830952.99 L 21520413.99 35820032.99 L 21510039.99 35790548.99 L 21507309.99 35763794.99 L 21510585.99 35739224.99 L 21519321.99 35710832.99 L 21531880.00 35687354.99 L 21544438.00 35672066.99 L 21559726.00 35660600.99 L 21589756.00 35646404.99 L 21622516.00 35637668.99 L 21666196.00 35634392.99 L 21696772.00 35637668.99 L 21730624.00 35646404.99 L 21757378.00 35658963.00 L 21773758.00 35671521.00 L 21792868.00 35696091.00 L 21803241.99 35717385.00 L 21810885.99 35743047.00 L 21812523.99 35763249.00 L 21809247.99 35789457.00 L 21799965.99 35818941.00 L 21786315.99 35841873.00 L 21772665.99 35857161.00 L 21750825.99 35871357.00 L 21727893.99 35881730.99 L 21697863.99 35889920.99 L 21652545.99 35893196.99 L 21607227.99 35886644.99  z"/>
<path id="N" d="M 17310829.98 35871891.00 L 17339671.98 35864462.00 L 17367202.98 35849604.00 L 17384245.98 35835620.00 L 17395607.98 35819888.00 A 99314.32 99314.32 0 0 0 17393422.99 35715008.00 L 17381623.99 35703209.00 L 17358025.99 35690099.00 L 17334427.99 35683981.00 L 17331805.99 35719815.00 L 17357588.99 35728992.00 L 17368513.98 35737295.00 L 17375505.98 35750405.00 A 59294.14 59294.14 0 0 1 17335738.98 35827754.00 L 17300778.98 35837368.00 L 17262759.98 35839552.99 L 17276743.98 35827753.99 L 17291164.98 35808526.00 L 17298156.98 35790609.00 L 17301652.98 35767448.00 L 17299467.98 35749968.00 L 17290290.99 35725059.00 L 17274558.99 35704082.99 L 17255330.99 35691409.99 L 17226051.99 35680484.99 L 17195461.99 35678736.99 L 17164871.99 35684854.99 A 85846.66 85846.66 0 0 0 17114616.99 35724184.99 L 17105002.98 35745597.99 L 17100632.98 35773128.99 L 17102817.98 35791045.99 L 17111557.98 35817702.99 L 17123356.98 35835182.99 A 100609.38 100609.38 0 0 0 17183662.98 35870579.99 L 17218622.98 35875823.99 L 17310829.98 35871891.00  zM 17165745.98 35829064.99 L 17149139.98 35818139.99 L 17140399.98 35807651.99 L 17132096.98 35786675.99 L 17131222.98 35775313.99 L 17136029.98 35756085.99 L 17144769.98 35741227.99 L 17159627.99 35728554.99 L 17182351.99 35718940.99 L 17211630.99 35716755.99 L 17236102.99 35723310.99 L 17251834.98 35734235.99 L 17263196.98 35751715.99 A 58899.90 58899.90 0 0 1 17250086.98 35819887.99 L 17243531.98 35824257.99 L 17222555.98 35833434.99 L 17192839.98 35835619.99 L 17165745.98 35829064.99  z"/>
<path id="N" d="M 17670769.00 32163632.00 L 17710081.00 32152166.00 L 17733559.00 32137970.00 L 17746117.00 32126504.00 A 181723.52 181723.52 0 0 0 17787067.00 32057162.00 L 17737927.00 32046242.00 L 17732467.00 32059892.00 L 17716087.00 32088284.00 L 17699161.00 32105756.00 L 17689333.00 32111762.00 L 17662579.00 32122136.00 L 17636371.00 32124866.00 L 17610709.00 32122136.00 L 17587231.00 32116130.00 L 17562661.00 32103572.00 L 17553379.00 32095382.00 L 17533723.00 32071358.00 L 17521711.00 32045696.00 L 17512429.00 32002016.00 L 17510791.00 31974170.00 L 17514067.00 31933220.00 L 17524441.00 31890086.00 L 17530447.00 31878074.00 L 17549011.00 31852412.00 L 17568667.00 31836578.00 L 17587231.00 31827842.00 L 17619991.00 31819652.00 L 17636371.00 31819106.00 L 17668585.00 31825112.00 L 17698069.00 31838762.00 L 17716633.00 31856780.00 L 17733013.00 31883534.00 L 17743387.00 31915202.00 L 17793619.00 31902098.00 L 17780515.00 31867700.00 L 17763043.00 31837124.00 L 17744479.00 31815284.00 L 17729737.00 31803818.00 L 17701891.00 31789622.00 L 17668039.00 31779248.00 L 17636917.00 31776518.00 L 17609071.00 31778702.00 L 17569213.00 31786892.00 L 17545189.00 31796720.00 L 17528263.00 31808186.00 L 17506423.00 31829480.00 L 17487313.00 31856780.00 L 17479123.00 31873706.00 L 17467657.00 31910834.00 L 17460559.00 31955060.00 L 17460013.00 31990004.00 L 17464927.00 32025494.00 L 17474209.00 32060438.00 L 17488405.00 32088284.00 L 17507515.00 32113400.00 L 17530993.00 32135240.00 L 17546281.00 32145068.00 L 17567029.00 32153804.00 L 17601973.00 32163632.00 L 17637463.00 32167454.00 L 17670769.00 32163632.00  z"/>
<path id="N" d="M 20430610.93 32414178.04 L 20468830.94 32403804.05 L 20487394.94 32394522.05 L 20512510.94 32375412.05 L 20526706.94 32357394.06 L 20540356.95 32330640.06 L 20549092.95 32304978.06 L 20503774.95 32292966.05 L 20502136.95 32297880.05 L 20491216.95 32324088.05 L 20481934.95 32338830.05 L 20468284.94 32351934.05 L 20446444.94 32364492.04 L 20423512.94 32371590.04 L 20388568.94 32374866.03 L 20354716.94 32370498.03 L 20335060.94 32363946.02 L 20307214.94 32348112.02 L 20291926.95 32333916.02 L 20274454.95 32306616.01 L 20264626.96 32281500.01 L 20256982.96 32238366.01 L 20256982.97 32210520.01 L 20263534.98 32165748.01 L 20275000.98 32134626.01 L 20293564.99 32110602.02 L 20312674.99 32094768.02 L 20332876.99 32083848.02 L 20368366.99 32074020.03 L 20395120.99 32071290.03 L 20425150.99 32074020.04 L 20459002.99 32083302.04 L 20483572.99 32095314.05 L 20505958.99 32110056.05 L 20505958.97 32181036.05 L 20394574.97 32181036.03 L 20394574.97 32225808.03 L 20555098.97 32225808.06 L 20554552.99 32084940.06 L 20507051.00 32054364.05 L 20478113.00 32041260.05 L 20454089.00 32034162.04 L 20413685.00 32027064.04 L 20384201.00 32027064.03 L 20348711.00 32032524.03 L 20314313.00 32042352.02 L 20289197.00 32054364.01 L 20260258.99 32077296.01 L 20237872.99 32102958.01 L 20228044.98 32119338.00 L 20218762.98 32141724.00 L 20208934.97 32180490.00 L 20205112.97 32222532.00 L 20209480.96 32260752.00 L 20220400.95 32304432.00 L 20232412.95 32330094.00 L 20254252.94 32361216.01 L 20278822.94 32384148.01 L 20294656.94 32394522.02 L 20330146.93 32408172.02 L 20373826.93 32416362.03 L 20430610.93 32414178.04  z"/>
<path id="N" d="M 17860763.00 38663632.00 L 17878781.00 38656534.00 L 17898437.00 38642338.00 L 17917001.00 38621044.00 L 17933381.00 38587738.00 L 17940479.00 38564260.00 L 17945939.00 38535322.00 L 17949215.00 38486182.00 L 17947577.00 38437588.00 L 17939933.00 38384626.00 L 17931197.00 38357872.00 L 17912087.00 38324020.00 L 17893523.00 38304910.00 L 17883695.00 38297812.00 L 17854211.00 38286346.00 L 17825819.00 38283070.00 L 17812169.00 38284162.00 L 17780501.00 38292352.00 L 17759207.00 38303818.00 L 17739005.00 38322382.00 L 17724263.00 38350228.00 L 17711159.00 38392816.00 L 17704061.00 38438680.00 L 17702969.00 38499286.00 L 17708429.00 38549518.00 L 17716073.00 38584462.00 L 17731907.00 38617222.00 L 17747195.00 38637970.00 L 17757569.00 38646706.00 L 17767943.00 38653804.00 L 17797427.00 38665816.00 L 17825819.00 38669092.00 L 17860763.00 38663632.00  zM 17821997.00 38630872.00 L 17798519.00 38624320.00 L 17781047.00 38612854.00 L 17769581.00 38597020.00 L 17757569.00 38557162.00 L 17751017.00 38508022.00 L 17750471.00 38453422.00 L 17755385.00 38404282.00 L 17761391.00 38374798.00 L 17771765.00 38351320.00 L 17780501.00 38342038.00 L 17794697.00 38331118.00 L 17814353.00 38322382.00 L 17825819.00 38321290.00 L 17844383.00 38325112.00 L 17866223.00 38337670.00 L 17879327.00 38352412.00 L 17888609.00 38372068.00 L 17896799.00 38405920.00 L 17900621.00 38443594.00 L 17901167.00 38498194.00 L 17896253.00 38547334.00 L 17890247.00 38576818.00 L 17879873.00 38600296.00 L 17865131.00 38615584.00 L 17842745.00 38628142.00 L 17821997.00 38630872.00  z"/>
<path id="N" d="M 18443995.00 37858279.00 L 18471963.00 37850850.00 L 18485947.00 37844295.00 L 18505612.00 37831622.00 L 18531832.00 37805402.00 L 18539698.00 37793166.00 L 18544942.00 37780930.00 L 18554556.00 37748592.00 L 18557615.00 37720187.00 L 18555867.00 37699211.00 L 18545379.00 37662066.00 L 18534454.00 37643712.00 L 18521344.00 37630165.00 L 18497309.00 37612248.00 L 18469341.00 37600449.00 L 18460164.00 37639779.00 L 18468030.00 37642838.00 L 18494250.00 37657259.00 L 18509108.00 37671680.00 L 18513041.00 37678672.00 L 18521344.00 37700085.00 L 18523529.00 37721061.00 L 18519596.00 37750777.00 L 18512167.00 37770442.00 L 18503427.00 37783552.00 L 18480703.00 37803217.00 L 18461475.00 37812394.00 L 18434818.00 37818512.00 L 18402917.00 37821571.00 L 18370142.00 37818949.00 L 18336056.00 37810646.00 L 18312895.00 37797099.00 L 18298911.00 37783989.00 L 18290608.00 37771316.00 L 18280994.00 37743785.00 L 18278809.00 37721061.00 L 18283616.00 37695278.00 L 18291919.00 37676487.00 L 18301533.00 37663377.00 L 18325131.00 37646334.00 L 18355721.00 37635409.00 L 18345233.00 37595205.00 L 18323383.00 37603071.00 L 18293230.00 37619677.00 L 18275750.00 37634535.00 L 18262203.00 37653326.00 L 18248656.00 37688286.00 L 18245160.00 37711884.00 L 18245597.00 37737667.00 L 18253026.00 37774812.00 L 18260892.00 37794040.00 L 18272691.00 37810646.00 L 18297163.00 37832933.00 L 18322509.00 37846917.00 L 18346544.00 37854783.00 L 18387622.00 37861775.00 L 18443995.00 37858279.00  z"/>
<path id="N" d="M 19297939.00 36477134.00 L 19325907.00 36469705.00 L 19339891.00 36463150.00 L 19359556.00 36450477.00 L 19385776.00 36424257.00 L 19393642.00 36412021.00 L 19398886.00 36399785.00 L 19408500.00 36367447.00 L 19411559.00 36339042.00 L 19409811.00 36318066.00 L 19399323.00 36280921.00 L 19388398.00 36262567.00 L 19375288.00 36249020.00 L 19351253.00 36231103.00 L 19323285.00 36219304.00 L 19314108.00 36258634.00 L 19321974.00 36261693.00 L 19348194.00 36276114.00 L 19363052.00 36290535.00 L 19366985.00 36297527.00 L 19375288.00 36318940.00 L 19377473.00 36339916.00 L 19373540.00 36369632.00 L 19366111.00 36389297.00 L 19357371.00 36402407.00 L 19334647.00 36422072.00 L 19315419.00 36431249.00 L 19288762.00 36437367.00 L 19256861.00 36440426.00 L 19224086.00 36437804.00 L 19190000.00 36429501.00 L 19166839.00 36415954.00 L 19152855.00 36402844.00 L 19144552.00 36390171.00 L 19134938.00 36362640.00 L 19132753.00 36339916.00 L 19137560.00 36314133.00 L 19145863.00 36295342.00 L 19155477.00 36282232.00 L 19179075.00 36265189.00 L 19209665.00 36254264.00 L 19199177.00 36214060.00 L 19177327.00 36221926.00 L 19147174.00 36238532.00 L 19129694.00 36253390.00 L 19116147.00 36272181.00 L 19102600.00 36307141.00 L 19099104.00 36330739.00 L 19099541.00 36356522.00 L 19106970.00 36393667.00 L 19114836.00 36412895.00 L 19126635.00 36429501.00 L 19151107.00 36451788.00 L 19176453.00 36465772.00 L 19200488.00 36473638.00 L 19241566.00 36480630.00 L 19297939.00 36477134.00  z"/>
<path id="N" d="M 12455731.95 34927280.04 L 12474085.95 34916355.04 L 12487632.95 34903245.04 L 12505549.96 34879210.04 L 12517348.96 34851242.05 L 12478018.96 34842065.04 L 12474959.96 34849931.04 L 12460538.96 34876151.04 L 12446117.95 34891009.03 L 12439125.95 34894942.03 L 12417712.95 34903245.03 L 12396736.95 34905430.02 L 12367020.95 34901497.02 L 12347355.95 34894068.02 L 12334245.96 34885328.01 L 12314580.96 34862604.01 L 12305403.96 34843376.01 L 12299285.97 34816719.01 L 12296226.97 34784818.01 L 12298848.98 34752043.01 L 12307151.98 34717957.01 L 12320698.99 34694796.01 L 12333808.99 34680812.01 L 12346481.99 34672509.02 L 12374012.99 34662895.02 L 12396736.99 34660710.02 L 12422519.99 34665517.03 L 12441310.99 34673820.03 L 12454420.99 34683434.03 L 12471463.99 34707032.04 L 12482388.98 34737622.04 L 12522592.98 34727134.05 L 12514726.99 34705284.05 L 12498120.99 34675131.04 L 12483263.00 34657651.04 L 12464472.00 34644104.04 L 12429512.00 34630557.03 L 12405914.00 34627061.03 L 12380131.00 34627498.02 L 12342986.00 34634927.02 L 12323758.00 34642793.01 L 12307152.00 34654592.01 L 12284864.99 34679064.01 L 12270880.99 34704410.00 L 12259955.98 34740681.00 L 12255148.97 34787440.00 L 12259518.97 34825896.00 L 12266947.96 34853864.00 L 12273502.96 34867848.00 L 12286175.96 34887513.01 L 12312395.95 34913733.01 L 12324631.95 34921599.01 L 12351288.95 34932087.02 L 12383189.95 34938642.02 L 12418586.95 34937768.03 L 12455731.95 34927280.04  z"/>
<path id="N" d="M 15856387.95 38027280.04 L 15874741.95 38016355.04 L 15888288.95 38003245.04 L 15906205.96 37979210.04 L 15918004.96 37951242.05 L 15878674.96 37942065.04 L 15875615.96 37949931.04 L 15861194.96 37976151.04 L 15846773.95 37991009.03 L 15839781.95 37994942.03 L 15818368.95 38003245.03 L 15797392.95 38005430.02 L 15767676.95 38001497.02 L 15748011.95 37994068.02 L 15734901.96 37985328.01 L 15715236.96 37962604.01 L 15706059.96 37943376.01 L 15699941.97 37916719.01 L 15696882.97 37884818.01 L 15699504.98 37852043.01 L 15707807.98 37817957.01 L 15721354.99 37794796.01 L 15734464.99 37780812.01 L 15747137.99 37772509.02 L 15774668.99 37762895.02 L 15797392.99 37760710.02 L 15823175.99 37765517.03 L 15841966.99 37773820.03 L 15855076.99 37783434.03 L 15872119.99 37807032.04 L 15883044.98 37837622.04 L 15923248.98 37827134.05 L 15915382.99 37805284.05 L 15898776.99 37775131.04 L 15883919.00 37757651.04 L 15865128.00 37744104.04 L 15830168.00 37730557.03 L 15806570.00 37727061.03 L 15780787.00 37727498.02 L 15743642.00 37734927.02 L 15724414.00 37742793.01 L 15707808.00 37754592.01 L 15685520.99 37779064.01 L 15671536.99 37804410.00 L 15660611.98 37840681.00 L 15655804.97 37887440.00 L 15660174.97 37925896.00 L 15667603.96 37953864.00 L 15674158.96 37967848.00 L 15686831.96 37987513.01 L 15713051.95 38013733.01 L 15725287.95 38021599.01 L 15751944.95 38032087.02 L 15783845.95 38038642.02 L 15819242.95 38037768.03 L 15856387.95 38027280.04  z"/>
<path id="N" d="M 14654640.00 38077280.00 L 14672994.00 38066355.00 L 14686541.00 38053245.00 L 14704458.00 38029210.00 L 14716257.00 38001242.00 L 14676927.00 37992065.00 L 14673868.00 37999931.00 L 14659447.00 38026151.00 L 14645026.00 38041009.00 L 14638034.00 38044942.00 L 14616621.00 38053245.00 L 14595645.00 38055430.00 L 14565929.00 38051497.00 L 14546264.00 38044068.00 L 14533154.00 38035328.00 L 14513489.00 38012604.00 L 14504312.00 37993376.00 L 14498194.00 37966719.00 L 14495135.00 37934818.00 L 14497757.00 37902043.00 L 14506060.00 37867957.00 L 14519607.00 37844796.00 L 14532717.00 37830812.00 L 14545390.00 37822509.00 L 14572921.00 37812895.00 L 14595645.00 37810710.00 L 14621428.00 37815517.00 L 14640219.00 37823820.00 L 14653329.00 37833434.00 L 14670372.00 37857032.00 L 14681297.00 37887622.00 L 14721501.00 37877134.00 L 14713635.00 37855284.00 L 14697029.00 37825131.00 L 14682171.00 37807651.00 L 14663380.00 37794104.00 L 14628420.00 37780557.00 L 14604822.00 37777061.00 L 14579039.00 37777498.00 L 14541894.00 37784927.00 L 14522666.00 37792793.00 L 14506060.00 37804592.00 L 14483773.00 37829064.00 L 14469789.00 37854410.00 L 14458864.00 37890681.00 L 14454057.00 37937440.00 L 14458427.00 37975896.00 L 14465856.00 38003864.00 L 14472411.00 38017848.00 L 14485084.00 38037513.00 L 14511304.00 38063733.00 L 14523540.00 38071599.00 L 14550197.00 38082087.00 L 14582098.00 38088642.00 L 14617495.00 38087768.00 L 14654640.00 38077280.00  z"/>
<path id="N" d="M 17289101.00 38618314.00 L 17137859.00 38618314.00 L 17118203.00 38516758.00 L 17150417.00 38532592.00 L 17182085.00 38540236.00 L 17201741.00 38539144.00 L 17231225.00 38532046.00 L 17259617.00 38517304.00 L 17278181.00 38499832.00 L 17292923.00 38475808.00 A 130805.30 130805.30 0 0 0 17300021.00 38373160.00 A 121094.90 121094.90 0 0 0 17262347.00 38314192.00 L 17236685.00 38297812.00 L 17210477.00 38287438.00 L 17177717.00 38283070.00 L 17159699.00 38284708.00 L 17134037.00 38290168.00 L 17113289.00 38298358.00 L 17092541.00 38312008.00 L 17085443.00 38319652.00 L 17070155.00 38343130.00 L 17059235.00 38371522.00 L 17056505.00 38388448.00 L 17105099.00 38391724.00 L 17107829.00 38380258.00 L 17117657.00 38354596.00 L 17129669.00 38338762.00 L 17137313.00 38333302.00 L 17158061.00 38324020.00 L 17177717.00 38321290.00 L 17197373.00 38324566.00 L 17215937.00 38331664.00 L 17234501.00 38346406.00 L 17246513.00 38364424.00 L 17254157.00 38385172.00 L 17257979.00 38405920.00 L 17256887.00 38427214.00 L 17248697.00 38456698.00 L 17235593.00 38476354.00 L 17226857.00 38483452.00 L 17211569.00 38491642.00 L 17190275.00 38498194.00 L 17173349.00 38499286.00 L 17156969.00 38496556.00 L 17135675.00 38488366.00 L 17121479.00 38477992.00 L 17108375.00 38462158.00 L 17064695.00 38468164.00 L 17101277.00 38662540.00 L 17289101.00 38662540.00 L 17289101.00 38618314.00  z"/>
<path id="N" d="M 17364325.97 37389225.00 L 17391419.97 37382670.00 L 17418076.97 37369997.00 L 17434682.97 37357761.00 L 17447792.97 37341592.00 A 94383.81 94383.81 0 0 0 17455658.97 37269924.00 L 17446481.97 37247637.00 L 17433808.98 37231031.00 L 17421135.98 37221417.00 L 17390982.98 37208744.00 L 17348156.98 37199130.00 L 17304893.98 37196507.99 L 17260756.98 37199129.99 L 17218804.98 37207432.99 L 17200013.98 37215735.99 L 17175541.98 37232341.99 L 17164179.97 37246325.99 A 93336.09 93336.09 0 0 0 17157187.97 37330666.99 L 17164616.97 37344213.99 L 17182533.97 37363441.99 L 17201761.97 37375240.99 L 17234099.97 37387039.99 L 17275177.97 37393157.99 L 17364325.97 37389225.00  zM 17318877.97 37356012.99 L 17264689.97 37353827.99 L 17224485.97 37346835.99 L 17205257.97 37337658.99 L 17193458.97 37326733.99 L 17183407.97 37308816.99 L 17181222.97 37294832.99 L 17186466.97 37273419.99 L 17195643.97 37259435.99 L 17208316.97 37250258.99 L 17240217.98 37240644.99 L 17279547.98 37235400.99 L 17330239.98 37235400.99 L 17378746.98 37241956.00 L 17399285.97 37248948.00 L 17412395.97 37258999.00 L 17425068.97 37277790.00 L 17428564.97 37290463.00 L 17427690.97 37304010.00 L 17418513.97 37324112.00 L 17404529.97 37338096.00 L 17392730.97 37343777.00 L 17361266.97 37352080.00 L 17318877.97 37356012.99  z"/>
<path id="N" d="M 14941749.00 38044942.00 L 14820700.00 38044942.00 L 14804531.00 37963223.00 L 14822011.00 37972837.00 L 14850853.00 37981577.00 L 14865711.00 37982451.00 L 14895427.00 37975896.00 L 14912470.00 37967593.00 L 14928639.00 37954920.00 L 14940001.00 37940062.00 A 109661.15 109661.15 0 0 0 14950489.00 37848729.00 L 14940001.00 37825131.00 L 14926891.00 37807651.00 A 107893.15 107893.15 0 0 0 14790110.00 37795415.00 L 14778748.00 37805903.00 L 14766512.00 37824694.00 L 14757772.00 37847418.00 L 14755587.00 37860965.00 L 14794480.00 37864024.00 L 14795354.00 37859217.00 L 14804531.00 37833871.00 L 14815019.00 37820761.00 L 14825070.00 37814206.00 L 14844298.00 37807651.00 L 14862215.00 37808088.00 A 63152.77 63152.77 0 0 1 14910722.00 37849166.00 A 87001.51 87001.51 0 0 1 14909411.00 37915590.00 L 14898049.00 37931759.00 L 14886687.00 37940499.00 L 14862652.00 37948802.00 L 14849105.00 37949676.00 L 14830751.00 37946180.00 L 14811086.00 37935692.00 L 14797102.00 37919960.00 L 14762142.00 37924767.00 L 14791421.00 38080339.00 L 14941749.00 38080339.00 L 14941749.00 38044942.00  z"/>
<path id="N" d="M 13888690.00 34549820.00 L 13883883.00 34548946.00 L 13858537.00 34539769.00 L 13845427.00 34529281.00 L 13838872.00 34519230.00 L 13832317.00 34500002.00 L 13832754.00 34482085.00 A 63152.77 63152.77 0 0 1 13873832.01 34433578.00 A 87001.51 87001.51 0 0 1 13940256.01 34434889.00 L 13956425.01 34446251.00 L 13965165.01 34457613.00 L 13973468.00 34481648.00 L 13974342.00 34495195.00 L 13970846.00 34513549.00 L 13960358.00 34533214.00 L 13944626.00 34547198.00 L 13949433.00 34582158.00 L 14105005.00 34552879.00 L 14105005.01 34402551.00 L 14069608.01 34402551.00 L 14069608.00 34523600.00 L 13987889.00 34539769.00 L 13997503.00 34522289.00 L 14006243.00 34493447.00 L 14007117.00 34478589.00 L 14000562.01 34448873.00 L 13992259.01 34431830.00 L 13979586.01 34415661.00 L 13964728.01 34404299.00 A 109661.15 109661.15 0 0 0 13873395.01 34393811.00 L 13849797.01 34404299.00 L 13832317.01 34417409.00 A 107893.15 107893.15 0 0 0 13820081.00 34554190.00 L 13830569.00 34565552.00 L 13849360.00 34577788.00 L 13872084.00 34586528.00 L 13885631.00 34588713.00 L 13888690.00 34549820.00  z"/>
<path id="N" d="M 17777456.93 39256534.19 A 88682.78 88682.78 0 0 0 17850620.95 39197566.20 L 17857718.95 39169174.20 L 17857718.95 39147334.20 L 17851712.96 39123310.20 L 17840792.96 39100378.20 L 17832056.96 39089458.20 L 17821136.97 39080722.20 L 17800934.97 39069256.19 L 17779094.97 39061066.19 L 17751794.97 39055060.18 L 17772542.97 39043048.19 L 17790014.97 39027760.19 L 17815676.98 38996638.19 L 17888295.00 38883070.21 L 17826051.00 38883070.20 L 17776364.99 38962240.19 L 17739782.98 39014110.18 L 17719034.97 39035404.18 L 17707568.97 39042502.18 L 17685182.97 39049600.17 L 17606558.97 39050692.16 L 17606559.00 38883070.16 L 17556327.00 38883070.15 L 17556326.93 39260902.15 L 17777456.93 39256534.19  zM 17606558.94 39218860.16 L 17606558.96 39093826.16 L 17719034.96 39093826.18 L 17759438.96 39098194.18 L 17778002.96 39105838.19 L 17792744.96 39117850.19 L 17799842.96 39129316.19 L 17806394.95 39150610.19 L 17805848.95 39166444.19 L 17802026.95 39179548.19 A 51222.14 51222.14 0 0 1 17763806.94 39213400.19 L 17740328.94 39218314.18 L 17606558.94 39218860.16  z"/>
<path id="N" d="M 19112214.00 36184781.00 L 19133190.00 36179537.00 L 19162469.00 36162494.00 L 19183008.00 36143703.00 L 19225397.00 36096070.00 L 19269971.01 36048874.00 L 19288325.01 36035327.00 L 19308427.01 36025713.00 L 19325470.01 36023091.00 L 19343387.01 36027024.00 A 52400.27 52400.27 0 0 1 19374851.00 36063295.00 L 19377036.00 36080775.00 L 19374851.00 36096507.00 L 19366111.00 36117483.00 L 19354312.00 36129282.00 L 19335084.00 36137585.00 L 19316293.00 36140207.00 L 19320663.00 36178226.00 L 19344261.00 36172982.00 L 19365237.00 36164242.00 L 19384902.00 36148947.00 L 19394079.00 36134963.00 A 116686.34 116686.34 0 0 0 19394516.01 36026587.00 L 19383154.01 36010855.00 L 19370481.01 36000367.00 A 82959.99 82959.99 0 0 0 19294443.01 35990316.00 L 19271282.01 36002115.00 L 19240255.01 36027898.00 L 19161595.00 36115735.00 L 19139745.00 36133652.00 L 19139745.01 35984635.00 L 19103911.01 35984635.00 L 19104348.00 36185218.00 L 19112214.00 36184781.00  z"/>
<path id="N" d="M 20763379.00 34334489.98 L 20762942.00 34326623.98 L 20757698.00 34305647.97 L 20740655.01 34276368.97 L 20721864.01 34255829.97 L 20674231.01 34213440.97 L 20627035.01 34168866.96 L 20613488.02 34150512.96 L 20603874.02 34130410.96 L 20601252.02 34113367.96 L 20605185.02 34095450.96 A 52400.27 52400.27 0 0 1 20641456.02 34063986.96 L 20658936.02 34061801.97 L 20674668.02 34063986.97 L 20695644.02 34072726.97 L 20707443.02 34084525.97 L 20715746.02 34103753.97 L 20718368.02 34122544.97 L 20756387.02 34118174.97 L 20751143.02 34094576.97 L 20742403.02 34073600.97 L 20727108.02 34053935.97 L 20713124.03 34044758.97 A 116686.34 116686.34 0 0 0 20604748.03 34044321.96 L 20589016.02 34055683.96 L 20578528.02 34068356.96 A 82959.99 82959.99 0 0 0 20568477.02 34144394.96 L 20580276.01 34167555.96 L 20606059.01 34198582.96 L 20693896.01 34277242.97 L 20711813.00 34299092.97 L 20562796.00 34299092.96 L 20562796.00 34334926.96 L 20763379.00 34334489.98  z"/>
<path id="N" d="M 12364181.00 37727170.00 L 12385157.00 37721926.00 L 12414436.00 37704883.00 L 12434975.00 37686092.00 L 12477364.00 37638459.00 L 12521938.00 37591263.00 L 12540292.00 37577716.00 L 12560394.00 37568102.00 L 12577437.00 37565480.00 L 12595354.00 37569413.00 A 52400.27 52400.27 0 0 1 12626818.00 37605684.00 L 12629003.00 37623164.00 L 12626818.00 37638896.00 L 12618078.00 37659872.00 L 12606279.00 37671671.00 L 12587051.00 37679974.00 L 12568260.00 37682596.00 L 12572630.00 37720615.00 L 12596228.00 37715371.00 L 12617204.00 37706631.00 L 12636869.00 37691336.00 L 12646046.00 37677352.00 A 116686.34 116686.34 0 0 0 12646483.00 37568976.00 L 12635121.00 37553244.00 L 12622448.00 37542756.00 A 82959.99 82959.99 0 0 0 12546410.00 37532705.00 L 12523249.00 37544504.00 L 12492222.00 37570287.00 L 12413562.00 37658124.00 L 12391712.00 37676041.00 L 12391712.00 37527024.00 L 12355878.00 37527024.00 L 12356315.00 37727607.00 L 12364181.00 37727170.00  z"/>
<path id="N" d="M 14677073.00 35034491.00 L 14705478.00 35024440.00 L 14721210.00 35013078.00 L 14731698.00 35000405.00 A 82959.99 82959.99 0 0 0 14741749.00 34924367.00 L 14729950.00 34901206.00 L 14704167.00 34870179.00 L 14616330.00 34791519.00 L 14598413.00 34769669.00 L 14747430.00 34769669.00 L 14747430.00 34733835.00 L 14546847.00 34734272.00 L 14547284.00 34742138.00 L 14552528.00 34763114.00 L 14569571.00 34792393.00 L 14588362.00 34812932.00 L 14635995.00 34855321.00 L 14683191.00 34899895.00 L 14696738.00 34918249.00 L 14706352.00 34938351.00 L 14708974.00 34955394.00 L 14705041.00 34973311.00 A 52400.27 52400.27 0 0 1 14668770.00 35004775.00 L 14651290.00 35006960.00 L 14635558.00 35004775.00 L 14614582.00 34996035.00 L 14602783.00 34984236.00 L 14594480.00 34965008.00 L 14591858.00 34946217.00 L 14553839.00 34950587.00 L 14562579.00 34984673.00 L 14570882.00 35000405.00 L 14585740.00 35017011.00 A 112057.99 112057.99 0 0 0 14677073.00 35034491.00  z"/>
<path id="N" d="M 15435958.00 32281870.00 L 15464363.00 32271819.00 L 15480095.00 32260457.00 L 15490583.00 32247784.00 A 82959.99 82959.99 0 0 0 15500634.00 32171746.00 L 15488835.00 32148585.00 L 15463052.00 32117558.00 L 15375215.00 32038898.00 L 15357298.00 32017048.00 L 15506315.00 32017048.00 L 15506315.00 31981214.00 L 15305732.00 31981651.00 L 15306169.00 31989517.00 L 15311413.00 32010493.00 L 15328456.00 32039772.00 L 15347247.00 32060311.00 L 15394880.00 32102700.00 L 15442076.00 32147274.00 L 15455623.00 32165628.00 L 15465237.00 32185730.00 L 15467859.00 32202773.00 L 15463926.00 32220690.00 A 52400.27 52400.27 0 0 1 15427655.00 32252154.00 L 15410175.00 32254339.00 L 15394443.00 32252154.00 L 15373467.00 32243414.00 L 15361668.00 32231615.00 L 15353365.00 32212387.00 L 15350743.00 32193596.00 L 15312724.00 32197966.00 L 15321464.00 32232052.00 L 15329767.00 32247784.00 L 15344625.00 32264390.00 A 112057.99 112057.99 0 0 0 15435958.00 32281870.00  z"/>
<path id="N" d="M 15261905.00 34635802.00 L 15300798.00 34630558.00 L 15316967.00 34624440.00 L 15332699.00 34612204.00 L 15345372.00 34595598.00 L 15354112.00 34571126.00 L 15355860.00 34550587.00 L 15350616.00 34526115.00 L 15341876.00 34507761.00 L 15328766.00 34493777.00 L 15304731.00 34480230.00 L 15271519.00 34471053.00 L 15295554.00 34455321.00 L 15316093.00 34432597.00 L 15379895.00 34333835.00 L 15330077.00 34333835.00 L 15290310.00 34396763.00 L 15265838.00 34432160.00 L 15247921.00 34452699.00 L 15235248.00 34461439.00 L 15217331.00 34467120.00 L 15154403.00 34467994.00 L 15154403.00 34333835.00 L 15114199.00 34333835.00 L 15114199.00 34636239.00 L 15261905.00 34635802.00  zM 15154403.00 34602590.00 L 15154403.00 34502517.00 L 15244425.00 34502517.00 L 15262779.00 34503828.00 L 15283755.00 34508198.00 L 15299487.00 34517812.00 L 15307790.00 34528300.00 L 15314345.00 34547965.00 L 15313908.00 34560638.00 L 15308227.00 34577244.00 L 15298176.00 34589043.00 L 15286814.00 34595598.00 L 15261468.00 34602153.00 L 15154403.00 34602590.00  z"/>
<path id="N" d="M 16058973.00 34235802.00 L 16097866.00 34230558.00 L 16114035.00 34224440.00 L 16129767.00 34212204.00 L 16142440.00 34195598.00 L 16151180.00 34171126.00 L 16152928.00 34150587.00 L 16147684.00 34126115.00 L 16138944.00 34107761.00 L 16125834.00 34093777.00 L 16101799.00 34080230.00 L 16068587.00 34071053.00 L 16092622.00 34055321.00 L 16113161.00 34032597.00 L 16176963.00 33933835.00 L 16127145.00 33933835.00 L 16087378.00 33996763.00 L 16062906.00 34032160.00 L 16044989.00 34052699.00 L 16032316.00 34061439.00 L 16014399.00 34067120.00 L 15951471.00 34067994.00 L 15951471.00 33933835.00 L 15911267.00 33933835.00 L 15911267.00 34236239.00 L 16058973.00 34235802.00  zM 15951471.00 34202590.00 L 15951471.00 34102517.00 L 16041493.00 34102517.00 L 16059847.00 34103828.00 L 16080823.00 34108198.00 L 16096555.00 34117812.00 L 16104858.00 34128300.00 L 16111413.00 34147965.00 L 16110976.00 34160638.00 L 16105295.00 34177244.00 L 16095244.00 34189043.00 L 16083882.00 34195598.00 L 16058536.00 34202153.00 L 15951471.00 34202590.00  z"/>
<path id="N" d="M 17655223.00 33649931.00 L 17649979.00 33611038.00 L 17643861.00 33594869.00 L 17631625.00 33579137.00 L 17615019.00 33566464.00 L 17590547.00 33557724.00 L 17570008.00 33555976.00 L 17545536.00 33561220.00 L 17527182.00 33569960.00 L 17513198.00 33583070.00 L 17499651.00 33607105.00 L 17490474.00 33640317.00 L 17474742.00 33616282.00 L 17452018.00 33595743.00 L 17353256.00 33531941.00 L 17353256.00 33581759.00 L 17416184.00 33621526.00 L 17451581.00 33645998.00 L 17472120.00 33663915.00 L 17480860.00 33676588.00 L 17486541.00 33694505.00 L 17487415.00 33757433.00 L 17353256.00 33757433.00 L 17353256.00 33797637.00 L 17655660.00 33797637.00 L 17655223.00 33649931.00  zM 17622011.00 33757433.00 L 17521938.00 33757433.00 L 17521938.00 33667411.00 L 17523249.00 33649057.00 L 17527619.00 33628081.00 L 17537233.00 33612349.00 L 17547721.00 33604046.00 L 17567386.00 33597491.00 L 17585303.00 33598802.00 L 17602346.00 33607542.00 L 17612397.00 33619341.00 L 17619826.00 33640317.00 L 17622011.00 33662167.00 L 17622011.00 33757433.00  z"/>
<path id="N" d="M 18832652.00 34674451.00 L 18827408.00 34635558.00 L 18821290.00 34619389.00 L 18809054.00 34603657.00 L 18792448.00 34590984.00 L 18767976.00 34582244.00 L 18747437.00 34580496.00 L 18722965.00 34585740.00 L 18704611.00 34594480.00 L 18690627.00 34607590.00 L 18677080.00 34631625.00 L 18667903.00 34664837.00 L 18652171.00 34640802.00 L 18629447.00 34620263.00 L 18530685.00 34556461.00 L 18530685.00 34606279.00 L 18593613.00 34646046.00 L 18629010.00 34670518.00 L 18649549.00 34688435.00 L 18658289.00 34701108.00 L 18663970.00 34719025.00 L 18664844.00 34781953.00 L 18530685.00 34781953.00 L 18530685.00 34822157.00 L 18833089.00 34822157.00 L 18832652.00 34674451.00  zM 18799440.00 34781953.00 L 18699367.00 34781953.00 L 18699367.00 34691931.00 L 18700678.00 34673577.00 L 18705048.00 34652601.00 L 18714662.00 34636869.00 L 18725150.00 34628566.00 L 18744815.00 34622011.00 L 18762732.00 34623322.00 L 18779775.00 34632062.00 L 18789826.00 34643861.00 L 18797255.00 34664837.00 L 18799440.00 34686687.00 L 18799440.00 34781953.00  z"/>
<path id="N" d="M 14108501.00 34730301.00 L 14103257.00 34691408.00 L 14097139.00 34675239.00 L 14084903.00 34659507.00 L 14068297.00 34646834.00 L 14043825.00 34638094.00 L 14023286.00 34636346.00 L 13998814.00 34641590.00 L 13980460.00 34650330.00 L 13966476.00 34663440.00 L 13952929.00 34687475.00 L 13943752.00 34720687.00 L 13928020.00 34696652.00 L 13905296.00 34676113.00 L 13806534.00 34612311.00 L 13806534.00 34662129.00 L 13869462.00 34701896.00 L 13904859.00 34726368.00 L 13925398.00 34744285.00 L 13934138.00 34756958.00 L 13939819.00 34774875.00 L 13940693.00 34837803.00 L 13806534.00 34837803.00 L 13806534.00 34878007.00 L 14108938.00 34878007.00 L 14108501.00 34730301.00  zM 14075289.00 34837803.00 L 13975216.00 34837803.00 L 13975216.00 34747781.00 L 13976527.00 34729427.00 L 13980897.00 34708451.00 L 13990511.00 34692719.00 L 14000999.00 34684416.00 L 14020664.00 34677861.00 L 14038581.00 34679172.00 L 14055624.00 34687912.00 L 14065675.00 34699711.00 L 14073104.00 34720687.00 L 14075289.00 34742537.00 L 14075289.00 34837803.00  z"/>
<path id="N" d="M 21164980.93 32410356.17 L 21207568.93 32405442.18 L 21226132.94 32399436.18 L 21253432.94 32385240.18 L 21267082.94 32373774.19 L 21286192.94 32351388.19 L 21300934.95 32327910.19 L 21310762.95 32302794.19 L 21320044.96 32259114.19 L 21322228.97 32223078.20 L 21319498.97 32185950.19 L 21311854.98 32146638.19 L 21301480.98 32119338.19 L 21285646.99 32091492.19 L 21258892.99 32063100.18 L 21239237.00 32051088.18 L 21206477.00 32039076.18 L 21169895.00 32034162.17 L 21009917.00 32033070.14 L 21009916.93 32410902.14 L 21164980.93 32410356.17  zM 21060148.94 32366130.15 L 21060148.99 32077842.15 L 21149692.99 32077842.17 L 21170986.99 32079480.17 L 21202654.99 32085486.17 L 21222310.99 32095860.18 L 21235960.99 32107326.18 L 21252340.98 32131896.18 L 21260530.98 32152098.18 L 21267628.97 32182674.19 L 21270904.97 32225262.19 L 21269266.96 32251470.19 L 21262714.96 32288052.18 L 21254524.95 32309346.18 L 21243604.95 32326272.18 L 21222856.95 32347020.18 L 21202654.94 32358486.17 L 21168256.94 32365038.17 L 21060148.94 32366130.15  z"/>
<path id="N" d="M 16579273.00 32860356.00 L 16621861.00 32855442.00 L 16640425.00 32849436.00 L 16667725.00 32835240.00 L 16681375.00 32823774.00 L 16700485.00 32801388.00 L 16715227.00 32777910.00 L 16725055.00 32752794.00 L 16734337.00 32709114.00 L 16736521.00 32673078.00 L 16733791.00 32635950.00 L 16726147.00 32596638.00 L 16715773.00 32569338.00 L 16699939.00 32541492.00 L 16673185.00 32513100.00 L 16653529.00 32501088.00 L 16620769.00 32489076.00 L 16584187.00 32484162.00 L 16424209.00 32483070.00 L 16424209.00 32860902.00 L 16579273.00 32860356.00  zM 16474441.00 32816130.00 L 16474441.00 32527842.00 L 16563985.00 32527842.00 L 16585279.00 32529480.00 L 16616947.00 32535486.00 L 16636603.00 32545860.00 L 16650253.00 32557326.00 L 16666633.00 32581896.00 L 16674823.00 32602098.00 L 16681921.00 32632674.00 L 16685197.00 32675262.00 L 16683559.00 32701470.00 L 16677007.00 32738052.00 L 16668817.00 32759346.00 L 16657897.00 32776272.00 L 16637149.00 32797020.00 L 16616947.00 32808486.00 L 16582549.00 32815038.00 L 16474441.00 32816130.00  z"/>
<path id="N" d="M 15070699.00 38683180.00 L 15109592.00 38677936.00 L 15125761.00 38671818.00 L 15141493.00 38659582.00 L 15154166.00 38642976.00 L 15162906.00 38618504.00 L 15164654.00 38597965.00 L 15159410.00 38573493.00 L 15150670.00 38555139.00 L 15137560.00 38541155.00 L 15113525.00 38527608.00 L 15080313.00 38518431.00 L 15104348.00 38502699.00 L 15124887.00 38479975.00 L 15188689.00 38381213.00 L 15138871.00 38381213.00 L 15099104.00 38444141.00 L 15074632.00 38479538.00 L 15056715.00 38500077.00 L 15044042.00 38508817.00 L 15026125.00 38514498.00 L 14963197.00 38515372.00 L 14963197.00 38381213.00 L 14922993.00 38381213.00 L 14922993.00 38683617.00 L 15070699.00 38683180.00  zM 14963197.00 38649968.00 L 14963197.00 38549895.00 L 15053219.00 38549895.00 L 15071573.00 38551206.00 L 15092549.00 38555576.00 L 15108281.00 38565190.00 L 15116584.00 38575678.00 L 15123139.00 38595343.00 L 15122702.00 38608016.00 L 15117021.00 38624622.00 L 15106970.00 38636421.00 L 15095608.00 38642976.00 L 15070262.00 38649531.00 L 14963197.00 38649968.00  z"/>
<path id="N" d="M 21047429.03 34032523.00 L 20899723.03 34032959.99 L 20860830.03 34038203.98 L 20844661.03 34044321.98 L 20828929.02 34056557.98 L 20816256.02 34073163.98 L 20807516.02 34097635.98 L 20805768.02 34118174.98 L 20811012.02 34142646.98 L 20819752.02 34161000.98 L 20832862.01 34174984.98 L 20856897.01 34188531.98 L 20890109.01 34197708.99 L 20866074.01 34213440.98 L 20845535.01 34236164.98 L 20781733.00 34334926.98 L 20831551.00 34334926.98 L 20871318.01 34271998.98 L 20895790.01 34236601.99 L 20913707.01 34216062.99 L 20926380.01 34207322.99 L 20944297.01 34201641.99 L 21007225.01 34200768.00 L 21007225.00 34334927.00 L 21047429.00 34334927.00 L 21047429.03 34032523.00  zM 21007225.01 34166245.00 L 20917203.01 34166244.99 L 20898849.01 34164933.99 L 20877873.02 34160563.99 L 20862141.02 34150949.98 L 20853838.02 34140461.98 L 20847283.02 34120796.98 L 20847720.02 34108123.98 L 20853401.02 34091517.98 L 20863452.02 34079718.98 L 20874814.02 34073163.98 L 20900160.02 34066608.99 L 21007225.02 34066172.00 L 21007225.01 34166245.00  z"/>
<path id="N" d="M 13759628.95 37383835.03 L 13798521.95 37378591.03 L 13814690.95 37372473.04 L 13830422.95 37360237.04 L 13843095.95 37343631.04 L 13851835.96 37319159.04 L 13853583.96 37298620.04 L 13848339.97 37274148.04 L 13839599.97 37255794.04 L 13826489.97 37241810.04 L 13802454.97 37228263.03 L 13769242.98 37219086.03 L 13793277.98 37203354.03 L 13813816.98 37180630.04 L 13877619.00 37081868.05 L 13827801.00 37081868.04 L 13788033.99 37144796.03 L 13763561.98 37180193.03 L 13745644.98 37200732.02 L 13732971.98 37209472.02 L 13715054.98 37215153.02 L 13652126.98 37216027.01 L 13652127.00 37081868.01 L 13611923.00 37081868.00 L 13611922.95 37384272.00 L 13759628.95 37383835.03  zM 13652126.95 37350623.01 L 13652126.97 37250550.01 L 13742148.97 37250550.02 L 13760502.97 37251861.03 L 13781478.97 37256231.03 L 13797210.97 37265845.03 L 13805513.97 37276333.03 L 13812068.96 37295998.03 L 13811631.96 37308671.03 L 13805950.96 37325277.03 L 13795899.96 37337076.03 L 13784537.95 37343631.03 L 13759191.95 37350186.03 L 13652126.95 37350623.01  z"/>
<path id="N" d="M 17404347.99 35604884.00 L 17341419.99 35565117.00 L 17306022.99 35540645.00 L 17285483.99 35522727.99 L 17276743.99 35510054.99 L 17271063.00 35492137.99 L 17270189.00 35429209.99 L 17404348.00 35429210.00 L 17404348.00 35389006.00 L 17101944.00 35389005.99 L 17102380.99 35536711.99 L 17107624.99 35575604.99 L 17113742.99 35591773.99 L 17125978.99 35607505.99 L 17142584.99 35620178.99 L 17167056.99 35628918.99 L 17187595.99 35630666.99 L 17212067.99 35625422.99 L 17230421.99 35616682.99 L 17244405.99 35603572.99 L 17257952.99 35579537.99 L 17267129.99 35546325.99 L 17282861.99 35570360.99 L 17305585.99 35590900.00 L 17404347.99 35654702.00 L 17404347.99 35604884.00  zM 17160938.99 35583033.99 L 17149139.99 35572982.99 L 17142584.99 35561620.99 L 17136029.99 35536274.99 L 17135593.00 35429209.99 L 17235666.00 35429209.99 L 17235665.99 35519231.99 L 17232169.99 35551569.99 L 17223429.99 35570360.99 L 17211630.99 35581722.99 L 17195461.99 35588277.99 L 17177544.99 35588714.99 L 17160938.99 35583033.99  z"/>
<path id="N" d="M 17454347.99 36887986.00 L 17391419.99 36848219.00 L 17356022.99 36823747.00 L 17335483.99 36805829.99 L 17326743.99 36793156.99 L 17321063.00 36775239.99 L 17320189.00 36712311.99 L 17454348.00 36712312.00 L 17454348.00 36672108.00 L 17151944.00 36672107.99 L 17152380.99 36819813.99 L 17157624.99 36858706.99 L 17163742.99 36874875.99 L 17175978.99 36890607.99 L 17192584.99 36903280.99 L 17217056.99 36912020.99 L 17237595.99 36913768.99 L 17262067.99 36908524.99 L 17280421.99 36899784.99 L 17294405.99 36886674.99 L 17307952.99 36862639.99 L 17317129.99 36829427.99 L 17332861.99 36853462.99 L 17355585.99 36874002.00 L 17454347.99 36937804.00 L 17454347.99 36887986.00  zM 17210938.99 36866135.99 L 17199139.99 36856084.99 L 17192584.99 36844722.99 L 17186029.99 36819376.99 L 17185593.00 36712311.99 L 17285666.00 36712311.99 L 17285665.99 36802333.99 L 17282169.99 36834671.99 L 17273429.99 36853462.99 L 17261630.99 36864824.99 L 17245461.99 36871379.99 L 17227544.99 36871816.99 L 17210938.99 36866135.99  z"/>
<path id="N" d="M 21751917.97 36301059.00 L 21780855.97 36293415.00 L 21808155.97 36275943.00 L 21826173.97 36258471.00 L 21834363.97 36245913.00 L 21844737.97 36222981.00 L 21851835.97 36195135.00 L 21855111.97 36158553.00 L 21850743.98 36114327.00 L 21843099.98 36085389.00 L 21834909.98 36068463.00 L 21815799.98 36044985.00 L 21796143.98 36029697.00 L 21783585.98 36023691.00 L 21759015.98 36016593.00 L 21710421.98 36010040.99 L 21470727.98 36009494.98 L 21470727.98 36059726.98 L 21689673.98 36059726.99 L 21740451.98 36063549.00 L 21765567.98 36070101.00 L 21786315.98 36085389.00 L 21797235.98 36099585.00 L 21803241.98 36114873.00 L 21807609.98 36132345.00 L 21809793.97 36159645.00 L 21803787.97 36197865.00 L 21793413.97 36222435.00 L 21785223.97 36232809.00 L 21768843.97 36242637.00 L 21742635.97 36250827.00 L 21701685.97 36256286.99 L 21470727.97 36256286.98 L 21470727.97 36306518.98 L 21751917.97 36301059.00  z"/>
<path id="N" d="M 13023176.00 34932743.00 L 13057262.00 34926625.00 L 13085230.00 34913078.00 L 13105769.00 34893413.00 L 13123249.00 34867193.00 L 13131115.00 34847091.00 L 13138544.00 34812131.00 L 13139855.00 34771490.00 L 13134611.00 34733034.00 L 13123686.00 34700259.00 L 13111013.00 34677972.00 L 13089600.00 34655248.00 L 13073868.00 34645634.00 L 13046774.00 34636020.00 L 13018369.00 34632087.00 L 12890328.00 34631213.00 L 12890328.00 34933617.00 L 13023176.00 34932743.00  zM 12930532.00 34897783.00 L 12930532.00 34667047.00 L 13002200.00 34667047.00 L 13019243.00 34668358.00 L 13042404.00 34672728.00 L 13055951.00 34678846.00 L 13071246.00 34690645.00 L 13087852.00 34717739.00 L 13095281.00 34742211.00 L 13099214.00 34785037.00 L 13095281.00 34823056.00 L 13088726.00 34846654.00 L 13080860.00 34861512.00 L 13060758.00 34882488.00 L 13044589.00 34891665.00 L 13017058.00 34896909.00 L 12930532.00 34897783.00  z"/>
<path id="N" d="M 15154093.00 32282744.00 L 15188179.00 32276626.00 L 15216147.00 32263079.00 L 15236686.00 32243414.00 L 15254166.00 32217194.00 L 15262032.00 32197092.00 L 15269461.00 32162132.00 L 15270772.00 32121491.00 L 15265528.00 32083035.00 L 15254603.00 32050260.00 L 15241930.00 32027973.00 L 15220517.00 32005249.00 L 15204785.00 31995635.00 L 15177691.00 31986021.00 L 15149286.00 31982088.00 L 15021245.00 31981214.00 L 15021245.00 32283618.00 L 15154093.00 32282744.00  zM 15061449.00 32247784.00 L 15061449.00 32017048.00 L 15133117.00 32017048.00 L 15150160.00 32018359.00 L 15173321.00 32022729.00 L 15186868.00 32028847.00 L 15202163.00 32040646.00 L 15218769.00 32067740.00 L 15226198.00 32092212.00 L 15230131.00 32135038.00 L 15226198.00 32173057.00 L 15219643.00 32196655.00 L 15211777.00 32211513.00 L 15191675.00 32232489.00 L 15175506.00 32241666.00 L 15147975.00 32246910.00 L 15061449.00 32247784.00  z"/>
<path id="N" d="M 12843897.00 37435365.00 L 12877983.00 37429247.00 L 12905951.00 37415700.00 L 12926490.00 37396035.00 L 12943970.00 37369815.00 L 12951836.00 37349713.00 L 12959265.00 37314753.00 L 12960576.00 37274112.00 L 12955332.00 37235656.00 L 12944407.00 37202881.00 L 12931734.00 37180594.00 L 12910321.00 37157870.00 L 12894589.00 37148256.00 L 12867495.00 37138642.00 L 12839090.00 37134709.00 L 12711049.00 37133835.00 L 12711049.00 37436239.00 L 12843897.00 37435365.00  zM 12751253.00 37400405.00 L 12751253.00 37169669.00 L 12822921.00 37169669.00 L 12839964.00 37170980.00 L 12863125.00 37175350.00 L 12876672.00 37181468.00 L 12891967.00 37193267.00 L 12908573.00 37220361.00 L 12916002.00 37244833.00 L 12919935.00 37287659.00 L 12916002.00 37325678.00 L 12909447.00 37349276.00 L 12901581.00 37364134.00 L 12881479.00 37385110.00 L 12865310.00 37394287.00 L 12837779.00 37399531.00 L 12751253.00 37400405.00  z"/>
<path id="N" d="M 16896758.93 39258172.03 L 16921328.94 39253258.04 L 16951358.94 39239062.04 L 16962278.94 39229780.04 L 16977566.94 39211216.05 L 16987940.95 39187738.05 L 16992854.95 39161530.05 L 16992308.96 39139144.05 L 16985756.96 39110206.05 L 16976474.96 39089458.05 L 16961732.97 39069256.04 L 16952996.97 39062158.04 L 16930064.97 39050146.04 L 16902764.97 39041956.03 L 16866182.97 39037042.03 L 16755344.97 39036496.01 L 16755345.00 38883070.01 L 16705113.00 38883070.00 L 16705112.93 39260902.00 L 16896758.93 39258172.03  zM 16755344.94 39216130.01 L 16755344.97 39081268.01 L 16856900.97 39081268.03 L 16890752.96 39085636.03 L 16912592.96 39093280.04 L 16921328.96 39099286.04 A 68796.23 68796.23 0 0 1 16942076.95 39150610.04 L 16937162.95 39176818.04 A 60949.06 60949.06 0 0 1 16881470.94 39215038.03 L 16755344.94 39216130.01  z"/>
<path id="N" d="M 14500525.00 34861002.00 L 14497903.00 34823420.00 L 14491785.00 34793704.00 L 14485230.00 34779283.00 L 14469935.00 34759181.00 L 14452455.00 34745197.00 L 14433664.00 34736894.00 L 14404822.00 34730339.00 L 14371610.00 34729028.00 L 14334902.00 34734709.00 L 14312615.00 34743012.00 L 14291202.00 34760055.00 L 14278966.00 34775787.00 L 14270663.00 34796763.00 L 14263671.00 34836530.00 L 14262797.00 35036239.00 L 14303001.00 35036239.00 L 14303001.00 34861002.00 L 14304749.00 34829975.00 L 14310430.00 34802444.00 L 14323540.00 34783653.00 L 14335776.00 34774476.00 L 14353256.00 34767921.00 L 14382972.00 34764862.00 L 14413562.00 34769669.00 L 14433227.00 34777972.00 L 14442404.00 34785401.00 L 14452892.00 34806377.00 L 14459447.00 34841774.00 L 14460321.00 35036239.00 L 14500525.00 35036239.00 L 14500525.00 34861002.00  z"/>
<path id="N" d="M 12446337.00 37902844.00 L 12427546.00 37900659.00 L 12404822.00 37894104.00 L 12397393.00 37887986.00 L 12388653.00 37871817.00 L 12386468.00 37858270.00 L 12389090.00 37840790.00 L 12397830.00 37825932.00 L 12412251.00 37817192.00 L 12432790.00 37813696.00 L 12658282.00 37812822.00 L 12658282.00 37772618.00 L 12451581.00 37772618.00 L 12430605.00 37773929.00 L 12401763.00 37779173.00 A 67558.69 67558.69 0 0 0 12354130.00 37831613.00 L 12350634.00 37857833.00 L 12353693.00 37880557.00 L 12362870.00 37905466.00 L 12374232.00 37919887.00 L 12386468.00 37927316.00 L 12411377.00 37936493.00 L 12441093.00 37939115.00 L 12446337.00 37902844.00  z"/>
<path id="N" d="M 12546336.00 33875094.00 L 12527545.00 33872909.00 L 12504821.00 33866354.00 L 12497392.00 33860236.00 L 12488652.00 33844067.00 L 12486467.00 33830520.00 L 12489089.00 33813040.00 L 12497829.00 33798182.00 L 12512250.00 33789442.00 L 12532789.00 33785946.00 L 12758281.00 33785072.00 L 12758281.00 33744868.00 L 12551580.00 33744868.00 L 12530604.00 33746179.00 L 12501762.00 33751423.00 A 67558.69 67558.69 0 0 0 12454129.00 33803863.00 L 12450633.00 33830083.00 L 12453692.00 33852807.00 L 12462869.00 33877716.00 L 12474231.00 33892137.00 L 12486467.00 33899566.00 L 12511376.00 33908743.00 L 12541092.00 33911365.00 L 12546336.00 33875094.00  z"/>
<path id="N" d="M 10992223.00 39585929.00 L 11000149.00 39566795.00 L 10992223.00 39547661.00 L 10973089.00 39539735.00 L 9279024.00 39539735.00 L 9279024.00 36089925.00 L 10973095.00 36089925.00 L 10992229.00 36081999.00 L 11000155.00 36062865.00 L 10992229.00 36043731.00 L 10973095.00 36035805.00 L 9251964.00 36035805.00 L 9232830.00 36043731.00 L 9224904.00 36062865.00 L 9224904.00 39566795.00 L 9232830.00 39585929.00 L 9251964.00 39593855.00 L 10973089.00 39593855.00 L 10992223.00 39585929.00  z"/>
<path id="N" d="M 17405085.00 38883070.12 L 17355945.00 38883070.11 L 17264762.94 39215038.10 L 17263670.94 39210670.10 L 17173581.00 38883070.08 L 17121165.00 38883070.07 L 17022338.93 39260902.06 L 17074208.93 39260902.06 L 17130446.98 39012472.07 L 17146826.99 38936032.08 L 17154470.99 38967154.08 L 17235824.93 39260902.09 L 17296430.93 39260902.10 L 17361404.97 39026122.11 L 17379968.99 38936032.12 L 17382152.99 38945314.12 L 17458046.93 39260902.13 L 17508824.93 39260902.14 L 17405085.00 38883070.12  z"/>
<path id="N" d="M 10992223.00 34822279.00 L 11000149.00 34803145.00 L 10992223.00 34784011.00 L 10973089.00 34776085.00 L 9279024.00 34776085.00 L 9279024.00 31326275.00 L 10973095.00 31326275.00 L 10992229.00 31318349.00 L 11000155.00 31299215.00 L 10992229.00 31280081.00 L 10973095.00 31272155.00 L 9251964.00 31272155.00 L 9232830.00 31280081.00 L 9224904.00 31299215.00 L 9224904.00 34803145.00 L 9232830.00 34822279.00 L 9251964.00 34830205.00 L 10973089.00 34830205.00 L 10992223.00 34822279.00  z"/>
<path id="N" d="M 14518689.47 36631202.47 m -100354.75 0 a 100354.75 100354.75 0 1 1 200709.51 0a 100354.75 100354.75 0 1 1 -200709.51 0"/>
<path id="N" d="M 15663778.47 32361022.47 m -100354.75 0 a 100354.75 100354.75 0 1 1 200709.51 0a 100354.75 100354.75 0 1 1 -200709.51 0"/>
<path id="N" d="M 15737949.00 36603755.00 L 15750430.00 36573622.00 L 15750430.00 35392520.00 L 15737949.00 35362387.00 L 15707816.00 35349906.00 L 15000836.00 35349906.00 L 14970703.00 35362387.00 L 14958222.00 35392520.00 L 14958222.00 36573622.00 L 14970703.00 36603755.00 L 15000836.00 36616236.00 L 15707816.00 36616236.00 L 15737949.00 36603755.00  zM 15665202.00 36531008.00 L 15043450.00 36531008.00 L 15043450.00 35435134.00 L 15665202.00 35435134.00 L 15665202.00 36531008.00  z"/>
<path id="N" d="M 13298812.47 35585036.47 m -100354.75 0 a 100354.75 100354.75 0 1 1 200709.51 0a 100354.75 100354.75 0 1 1 -200709.51 0"/>
<path id="N" d="M 12125429.00 34822279.00 L 12133355.00 34803145.00 L 12133355.00 34269700.00 L 12125429.00 34250566.00 L 12106295.00 34242640.00 L 12087161.00 34250566.00 L 12079235.00 34269700.00 L 12079235.00 34776085.00 L 11428477.00 34776085.00 L 11409343.00 34784011.00 L 11401417.00 34803145.00 L 11409343.00 34822279.00 L 11428477.00 34830205.00 L 12106295.00 34830205.00 L 12125429.00 34822279.00  z"/>
<path id="N" d="M 15365173.00 33713992.00 L 15377654.00 33683859.00 L 15365173.00 33653726.00 L 15335040.00 33641245.00 L 15056788.00 33641245.00 L 15056788.00 33424016.00 L 15044307.00 33393883.00 L 15014174.00 33381402.00 L 14984041.00 33393883.00 L 14971560.00 33424016.00 L 14971560.00 33683859.00 L 14984041.00 33713992.00 L 15014174.00 33726473.00 L 15335040.00 33726473.00 L 15365173.00 33713992.00  z"/>
<path id="N" d="M 15044307.00 32824228.00 L 15056788.00 32794095.00 L 15056788.00 32576867.00 L 15335040.00 32576867.00 L 15365173.00 32564386.00 L 15377654.00 32534253.00 L 15365173.00 32504120.00 L 15335040.00 32491639.00 L 15014174.00 32491639.00 L 14984041.00 32504120.00 L 14971560.00 32534253.00 L 14971560.00 32794095.00 L 14984041.00 32824228.00 L 15014174.00 32836709.00 L 15044307.00 32824228.00  z"/>
<path id="N" d="M 12679341.00 36048242.00 L 12691822.00 36018109.00 L 12691822.00 35800881.00 L 12970074.00 35800881.00 L 13000207.00 35788400.00 L 13012688.00 35758267.00 L 13000207.00 35728134.00 L 12970074.00 35715653.00 L 12649208.00 35715653.00 L 12619075.00 35728134.00 L 12606594.00 35758267.00 L 12606594.00 36018109.00 L 12619075.00 36048242.00 L 12649208.00 36060723.00 L 12679341.00 36048242.00  z"/>
<path id="N" d="M 14057225.98 37188496.08 L 14098303.98 37188496.09 L 14098303.99 37154410.09 L 14057225.99 37154410.08 L 14057226.00 37081868.08 L 14020081.00 37081868.07 L 14020080.99 37154410.07 L 13888543.99 37154410.05 L 13888543.98 37188496.05 L 14027072.95 37384272.07 L 14057225.95 37384272.08 L 14057225.98 37188496.08  zM 14020080.96 37323966.07 L 13924814.98 37188496.05 L 14020080.98 37188496.07 L 14020080.96 37323966.07  z"/>
<path id="N" d="M 16113343.98 37838496.08 L 16154421.98 37838496.09 L 16154421.99 37804410.09 L 16113343.99 37804410.08 L 16113344.00 37731868.08 L 16076199.00 37731868.07 L 16076198.99 37804410.07 L 15944661.99 37804410.05 L 15944661.98 37838496.05 L 16083190.95 38034272.07 L 16113343.95 38034272.08 L 16113343.98 37838496.08  zM 16076198.96 37973966.07 L 15980932.98 37838496.06 L 16076198.98 37838496.07 L 16076198.96 37973966.07  z"/>
<path id="N" d="M 12125429.00 32493442.00 L 12133355.00 32474308.00 L 12133355.00 31299215.00 L 12125429.00 31280081.00 L 12106295.00 31272155.00 L 11428471.00 31272155.00 L 11409337.00 31280081.00 L 11401411.00 31299215.00 L 11409337.00 31318349.00 L 11428471.00 31326275.00 L 12079235.00 31326275.00 L 12079235.00 32474308.00 L 12087161.00 32493442.00 L 12106295.00 32501368.00 L 12125429.00 32493442.00  z"/>
<path id="N" d="M 12125429.00 37257092.00 L 12133355.00 37237958.00 L 12133355.00 36062865.00 L 12125429.00 36043731.00 L 12106295.00 36035805.00 L 11428471.00 36035805.00 L 11409337.00 36043731.00 L 11401411.00 36062865.00 L 11409337.00 36081999.00 L 11428471.00 36089925.00 L 12079235.00 36089925.00 L 12079235.00 37237958.00 L 12087161.00 37257092.00 L 12106295.00 37265018.00 L 12125429.00 37257092.00  z"/>
<path id="N" d="M 13000207.00 36938006.00 L 13012688.00 36907873.00 L 13000207.00 36877740.00 L 12970074.00 36865259.00 L 12691822.00 36865259.00 L 12691822.00 36648030.00 L 12679341.00 36617897.00 L 12649208.00 36605416.00 L 12619075.00 36617897.00 L 12606594.00 36648030.00 L 12606594.00 36907873.00 L 12619075.00 36938006.00 L 12649208.00 36950487.00 L 12970074.00 36950487.00 L 13000207.00 36938006.00  z"/>
<path id="N" d="M 12125429.00 39585929.00 L 12133355.00 39566795.00 L 12133355.00 39033350.00 L 12125429.00 39014216.00 L 12106295.00 39006290.00 L 12087161.00 39014216.00 L 12079235.00 39033350.00 L 12079235.00 39539735.00 L 11428477.00 39539735.00 L 11409343.00 39547661.00 L 11401417.00 39566795.00 L 11409343.00 39585929.00 L 11428477.00 39593855.00 L 12106295.00 39593855.00 L 12125429.00 39585929.00  z"/>
<path id="N" d="M 17117083.00 32483070.00 L 17060299.00 32483070.00 L 17016073.00 32597730.00 L 16857733.00 32597730.00 L 16816783.00 32483070.00 L 16763821.00 32483070.00 L 16907965.00 32860902.00 L 16962565.00 32860902.00 L 17117083.00 32483070.00  zM 16934173.00 32821044.00 L 16922161.00 32775726.00 L 16872475.00 32638680.00 L 17000239.00 32638680.00 L 16960927.00 32742966.00 L 16934173.00 32821044.00  z"/>
<path id="N" d="M 17581807.00 33478627.00 L 17595791.00 33452844.00 L 17617204.00 33424876.00 L 17635558.00 33407396.00 L 17656971.00 33392538.00 L 17656971.01 33368503.00 L 17353256.01 33368503.00 L 17353256.00 33405648.00 L 17589236.00 33406085.00 L 17587488.00 33408270.00 L 17563453.00 33441919.00 L 17545099.00 33479938.00 L 17581807.00 33478627.00  z"/>
<path id="N" d="M 16901441.00 38497648.00 L 17004089.00 38497648.00 L 17004089.00 38454514.00 L 16901441.00 38454514.00 L 16901441.00 38350774.00 L 16857761.00 38350774.00 L 16857761.00 38454514.00 L 16755113.00 38454514.00 L 16755113.00 38497648.00 L 16857761.00 38497648.00 L 16857761.00 38600296.00 L 16901441.00 38600296.00 L 16901441.00 38497648.00  z"/>
<path id="N" d="M 12684428.00 33664897.00 L 12698412.00 33639114.00 L 12719825.00 33611146.00 L 12738179.00 33593666.00 L 12759592.00 33578808.00 L 12759592.00 33554773.00 L 12455877.00 33554773.00 L 12455877.00 33591918.00 L 12691857.00 33592355.00 L 12690109.00 33594540.00 L 12666074.00 33628189.00 L 12647720.00 33666208.00 L 12684428.00 33664897.00  z"/>
<path id="N" d="M 18478518.00 37531403.00 L 18492502.00 37505620.00 L 18513915.00 37477652.00 L 18532269.00 37460172.00 L 18553682.00 37445314.00 L 18553682.01 37421279.00 L 18249967.01 37421279.00 L 18249967.00 37458424.00 L 18485947.00 37458861.00 L 18484199.00 37461046.00 L 18460164.00 37494695.00 L 18441810.00 37532714.00 L 18478518.00 37531403.00  z"/>
<path id="N" d="M 15587233.00 38381213.00 L 15550088.00 38381213.00 L 15549651.00 38617193.00 L 15547466.00 38615445.00 L 15513817.00 38591410.00 L 15475798.00 38573056.00 L 15475798.00 38608890.00 L 15502892.00 38623748.00 L 15530860.00 38645161.00 L 15548340.00 38663515.00 L 15563198.00 38684928.00 L 15587233.00 38684928.00 L 15587233.00 38381213.00  z"/>
<path id="N" d="M 15352127.00 38381213.00 L 15314982.00 38381213.00 L 15314545.00 38617193.00 L 15312360.00 38615445.00 L 15278711.00 38591410.00 L 15240692.00 38573056.00 L 15240692.00 38608890.00 L 15267786.00 38623748.00 L 15295754.00 38645161.00 L 15313234.00 38663515.00 L 15328092.00 38684928.00 L 15352127.00 38684928.00 L 15352127.00 38381213.00  z"/>
<path id="N" d="M 17454347.98 37064097.00 L 17218367.98 37063659.99 L 17220115.98 37061474.99 L 17244150.98 37027825.99 L 17262504.99 36989806.99 L 17226670.99 36989806.99 L 17211812.98 37016900.99 L 17190399.98 37044868.99 L 17172045.98 37062348.99 L 17150632.98 37077206.99 L 17150632.98 37101241.99 L 17454347.98 37101242.00 L 17454347.98 37064097.00  z"/>
<path id="N" d="M 13319899.00 34631213.00 L 13282754.00 34631213.00 L 13282317.00 34867193.00 L 13280132.00 34865445.00 L 13246483.00 34841410.00 L 13208464.00 34823056.00 L 13208464.00 34858890.00 L 13235558.00 34873748.00 L 13263526.00 34895161.00 L 13281006.00 34913515.00 L 13295864.00 34934928.00 L 13319899.00 34934928.00 L 13319899.00 34631213.00  z"/>
<path id="N" d="M 9908473.00 35159968.00 L 9917984.00 35137007.00 L 9908473.00 35114046.00 L 9885512.00 35104535.00 L 9724714.00 35104535.00 L 9701753.00 35114046.00 L 9692242.00 35137007.00 L 9701753.00 35159968.00 L 9724714.00 35169479.00 L 9885512.00 35169479.00 L 9908473.00 35159968.00  z"/>
<path id="N" d="M 12125429.00 38387098.00 L 12133355.00 38367964.00 L 12133355.00 37801152.00 L 12125429.00 37782018.00 L 12106295.00 37774092.00 L 12087161.00 37782018.00 L 12079235.00 37801152.00 L 12079235.00 38367964.00 L 12087161.00 38387098.00 L 12106295.00 38395024.00 L 12125429.00 38387098.00  z"/>
<path id="N" d="M 12125429.00 33623448.00 L 12133355.00 33604314.00 L 12133355.00 33037502.00 L 12125429.00 33018368.00 L 12106295.00 33010442.00 L 12087161.00 33018368.00 L 12079235.00 33037502.00 L 12079235.00 33604314.00 L 12087161.00 33623448.00 L 12106295.00 33631374.00 L 12125429.00 33623448.00  z"/>
<path id="N" d="M 20925833.00 32033070.13 L 20873963.00 32033070.12 L 20676310.95 32329548.08 L 20676311.00 32033070.08 L 20628263.00 32033070.07 L 20628262.93 32410902.07 L 20679586.93 32410902.08 L 20877784.99 32113878.12 L 20877784.93 32410902.12 L 20925832.93 32410902.13 L 20925833.00 32033070.13  z"/>
<path id="N" d="M 9908473.00 35752094.00 L 9917984.00 35729133.00 L 9908473.00 35706172.00 L 9885512.00 35696661.00 L 9724714.00 35696661.00 L 9701753.00 35706172.00 L 9692242.00 35729133.00 L 9701753.00 35752094.00 L 9724714.00 35761605.00 L 9885512.00 35761605.00 L 9908473.00 35752094.00  z"/>
<path id="N" d="M 17528795.00 38289622.00 L 17476379.00 38289622.00 L 17330051.00 38667454.00 L 17384651.00 38667454.00 L 17482931.00 38392270.00 L 17502587.00 38331664.00 L 17511323.00 38360056.00 L 17625437.00 38667454.00 L 17676215.00 38667454.00 L 17528795.00 38289622.00  z"/>
<path id="N" d="M 10656331.00 35910433.00 L 10668812.00 35880300.00 L 10656331.00 35850167.00 L 10626198.00 35837686.00 L 10596065.00 35850167.00 L 10583584.00 35880300.00 L 10596065.00 35910433.00 L 10626198.00 35922914.00 L 10656331.00 35910433.00  z"/>
<path id="N" d="M 9155114.66 35433070.00 m -64942.34 0 a 64942.34 64942.34 0 1 1 129884.69 0a 64942.34 64942.34 0 1 1 -129884.69 0"/>
<path id="N" d="M 21515499.96 36536384.99 L 21848559.96 36536385.00 L 21848559.96 36486153.00 L 21515499.96 36486152.99 L 21515499.97 36361664.99 L 21470727.97 36361664.98 L 21470727.95 36660872.98 L 21515499.95 36660872.99 L 21515499.96 36536384.99  z"/>
<path id="N" d="M 17903365.00 31827842.00 L 18089551.00 31827842.00 L 18089551.00 31783070.00 L 17853133.00 31783070.00 L 17853133.00 32160902.00 L 17903365.00 32160902.00 L 17903365.00 31827842.00  z"/>
<path id="N" d="M 16405115.00 39383068.00 L 16090155.00 39383068.00 L 16090155.00 39442123.00 L 16405115.00 39442123.00 L 16405115.00 39383068.00  z"/>
</g>
</svg>
