<svg width="35.90526474mm" height="21.80000212mm" viewBox="0 0 14135931 8582678"  version="1.1" xmlns="http://www.w3.org/2000/svg" xmlns:xlink="http://www.w3.org/1999/xlink">
<desc>
Origin 9055113 35433070 Bound 9055118 31141731 14135931 8582678
</desc>
<g fill-rule="evenodd" fill="rgb(255, 0, 0)" stroke="black" stroke-width="1" transform="translate(0, 8582678) scale(1, -1) translate(-9055118, -31141731)">
<path id="N" d="M 18257085.00 34289724.00 L 18134040.00 34289724.00 L 18134040.00 33964150.74 L 18165073.00 33943416.00 A 120431.73 120431.73 0 1 0 17974032.26 33804143.00 L 17731102.00 33804142.00 L 17692832.29 33819995.71 L 17593650.87 33919684.00 L 17327948.00 33919684.00 L 17327948.00 34195274.00 L 17682278.00 34195274.00 L 17682278.00 33983624.88 L 17753519.16 33912383.00 L 17974032.26 33912383.00 L 17994767.00 33943416.00 L 18025800.00 33964150.74 L 18025800.00 34289724.00 L 17902755.00 34289724.00 L 17902755.00 34565314.00 L 18257085.00 34565314.00 L 18257085.00 34289724.00  z"/>
<path id="N" d="M 16323630.00 35102446.00 L 16183642.00 35102446.00 L 16183642.00 34360235.00 L 16267317.00 34360235.00 L 16267317.00 34005905.00 L 15991727.00 34005905.00 L 15991727.00 34360235.00 L 16075402.00 34360235.00 L 16075402.00 35102446.00 L 15999574.00 35102446.00 A 96771.86 96771.86 0 0 0 15999574.00 35295980.00 L 16323630.00 35295980.00 A 96758.91 96758.91 0 0 0 16323630.00 35102446.00  z"/>
<path id="N" d="M 19747633.00 37275590.00 L 19709912.00 37275590.00 L 19709912.00 36980746.00 L 19976770.00 36980746.00 L 19976770.00 36626416.00 L 19583070.00 36626416.00 L 19583070.00 36980746.00 L 19601672.00 36980746.00 L 19601672.00 37275590.00 L 19432673.00 37275590.00 L 19432673.00 37590550.00 L 19747633.00 37590550.00 L 19747633.00 37275590.00  z"/>
<path id="N" d="M 13993382.00 33521339.00 L 14690108.02 32824612.00 L 15003932.00 32824612.00 L 15003932.00 32964960.00 L 15358262.00 32964960.00 L 15358262.00 32793489.00 L 15375750.69 32787191.00 L 17752363.00 32787191.00 L 17752363.00 33087401.00 L 17828789.00 33087402.00 A 120431.73 120431.73 0 1 0 18069636.80 33087401.00 L 18146063.00 33087401.00 L 18146063.00 32787191.00 L 18282696.05 32787191.00 L 18491970.49 32996464.74 L 18484689.00 33033070.00 A 120431.73 120431.73 0 1 0 18605113.00 32912646.00 L 18568507.74 32919927.49 L 18343383.00 32694802.00 L 18305111.59 32678951.00 L 18146063.00 32678951.00 L 18146063.00 32378741.00 L 18069637.00 32378740.00 A 120431.73 120431.73 0 1 0 17828789.20 32378741.00 L 17752363.00 32378741.00 L 17752363.00 32678951.00 L 15366842.00 32678950.00 L 15351635.71 32685249.00 L 15268893.00 32685249.00 L 15258943.69 32689370.00 L 15003932.00 32689370.00 L 15003932.00 32716372.00 L 14667691.00 32716372.00 L 14629421.29 32732224.71 L 13932695.02 33428950.00 L 12174271.01 33428950.00 L 10872406.00 32127084.00 L 10834134.59 32111233.00 L 10680243.99 32111233.00 L 10667136.00 32045336.00 A 210738.62 210738.62 0 1 0 10621453.00 32275000.00 L 10658554.65 32219473.00 L 10811719.01 32219473.00 L 12113585.00 33521339.00 L 12151854.00 33537190.00 L 13955113.00 33537191.00 L 13993382.00 33521339.00  zM 10472438.38 32125977.09 m -140500.91 0 a 140500.91 140500.91 0 1 1 281001.82 0a 140500.91 140500.91 0 1 1 -281001.82 0"/>
<path id="N" d="M 15829154.00 36333517.00 L 15695033.00 36333517.00 L 15695033.00 35928123.00 L 15849578.00 35773578.00 L 15927226.27 35773578.00 L 15931149.00 35779449.00 L 15962543.00 35800425.00 L 15999574.00 35807791.00 L 16323630.00 35807791.00 L 16360661.00 35800425.00 L 16392055.00 35779449.00 L 16401612.93 35765144.00 L 16553405.10 35765144.00 L 16594483.00 35806221.64 L 16594483.00 36005274.00 L 16948813.00 36005274.00 L 16948813.00 35921599.00 L 17383843.00 35921600.00 L 17422112.00 35905748.00 L 17540670.00 35787190.00 L 17849225.26 35787190.00 L 17869960.00 35818223.00 A 120431.73 120431.73 0 1 0 17869960.00 35647917.00 L 17849225.26 35678950.00 L 17518252.00 35678949.00 L 17479983.00 35694801.00 L 17361425.00 35813359.00 L 16948813.00 35813359.00 L 16948813.00 35729684.00 L 16671020.64 35729684.00 L 16614092.00 35672755.00 L 16575820.59 35656904.00 L 16401612.93 35656904.00 L 16392055.00 35642599.00 L 16360661.00 35621623.00 L 16323630.00 35614257.00 L 15999574.00 35614257.00 L 15962543.00 35621623.00 L 15931149.00 35642599.00 L 15915955.87 35665338.00 L 15827160.00 35665337.00 L 15788891.00 35681189.00 L 15602644.00 35867436.00 L 15586793.00 35905707.41 L 15586793.00 36333517.00 L 15491078.00 36333517.00 L 15491078.00 36692623.00 L 15829154.00 36692623.00 L 15829154.00 36333517.00  z"/>
<path id="N" d="M 18405113.00 38283070.00 L 18405113.00 38037191.00 L 19955112.00 38037192.00 L 19993381.00 38021340.00 L 20258344.00 37756377.00 L 20274195.00 37718108.00 L 20274195.00 37590550.00 L 20377555.00 37590550.00 L 20377555.00 37275590.00 L 20062595.00 37275590.00 L 20062595.00 37590550.00 L 20165955.00 37590550.00 L 20165955.00 37695690.94 L 19932694.06 37928951.00 L 18405113.00 37928951.00 L 18404967.00 36932924.00 L 18266928.00 36794885.00 L 18266928.00 36692283.00 L 17892912.00 36692283.00 L 17892912.00 36783069.00 L 17451018.00 36783068.00 L 16948814.00 36280864.00 L 16542691.00 36280864.00 L 16418538.00 36156711.00 L 16418538.00 35976274.73 L 16420397.00 35966929.00 A 96771.86 96771.86 0 0 0 16323630.00 35870162.00 L 15999574.00 35870162.00 A 96771.86 96771.86 0 0 0 15902807.00 35966929.00 L 15905113.00 35978521.93 L 15905113.00 36233517.00 L 15929154.00 36233517.00 L 15929154.00 36732125.00 L 16472121.00 36732125.00 L 16472121.00 37306141.00 L 15898105.00 37306141.00 L 15898105.00 37186009.00 L 15852173.74 37186009.00 L 15705113.00 37333069.00 L 15005113.00 37333070.00 L 14858052.00 37186009.00 L 14812121.00 37186009.00 L 14812121.00 37306141.00 L 14238105.00 37306141.00 L 14238105.00 36732125.00 L 14779498.00 36732125.00 L 14779498.00 36233517.00 L 14803986.00 36233517.00 L 14803986.00 35872021.00 L 14290114.00 35872021.00 L 14290114.00 35882022.06 L 14284118.76 35878016.24 L 14232278.00 35929857.00 L 14232278.00 36095274.00 L 14066861.00 36095274.00 L 13891270.00 36270865.00 L 13777948.00 36270865.00 L 13777948.00 36283069.00 L 13557474.00 36283069.00 L 13157475.00 36683069.00 L 13074354.86 36683069.14 L 13014725.00 36742699.00 L 12991176.00 36752453.31 L 12991176.00 36786219.00 L 12451958.34 36786219.00 L 11982369.95 37255808.96 L 12047508.00 37273263.00 A 309338.40 309338.40 0 1 1 11740815.00 37313640.00 L 11793763.78 37283070.00 L 11005113.00 37283070.00 L 10855113.00 37133070.00 L 10855113.01 37121442.00 L 10738274.77 37121442.00 L 10717851.00 37156817.00 A 309338.40 309338.40 0 1 1 10717851.00 36780189.00 L 10738274.77 36815564.00 L 10855113.18 36815564.00 L 10855113.67 35926771.00 L 10648813.00 35926771.00 L 10648813.00 34939369.00 L 10855114.00 34939369.00 L 10855114.00 33033071.00 L 10755112.00 32933070.00 L 10055113.00 32933070.00 L 9955114.00 33033069.00 L 9955114.00 34283069.00 L 9305113.00 34933070.00 L 9305113.00 35039369.00 L 9174010.00 35039369.00 L 9174010.00 35826771.00 L 9305113.00 35826771.00 L 9305113.00 37533069.00 L 10505114.00 38733070.00 L 11622436.00 38733070.00 L 11622436.00 38433464.00 L 11643449.00 38412451.00 L 12224717.76 38412451.00 L 12265006.00 38261264.00 L 12324255.00 38118223.00 A 1183606.49 1183606.49 0 0 1 14566929.00 38719145.00 L 14565095.73 38733070.00 L 17955113.00 38733070.00 L 18405113.00 38283070.00  zM 10472438.38 33307080.09 m -140500.91 0 a 140500.91 140500.91 0 1 1 281001.82 0a 140500.91 140500.91 0 1 1 -281001.82 0M 10472438.38 38149600.09 m -140500.91 0 a 140500.91 140500.91 0 1 1 281001.82 0a 140500.91 140500.91 0 1 1 -281001.82 0"/>
<path id="N" d="M 17475537.00 35030551.00 L 17468673.57 34996047.43 L 17543382.00 34921339.00 L 17559233.00 34883067.59 L 17559233.00 34746455.00 L 17682278.00 34746455.00 L 17682278.00 34470865.00 L 17327948.00 34470865.00 L 17327948.00 34746455.00 L 17450993.00 34746455.00 L 17450993.00 34860652.00 L 17393818.69 34917826.31 L 17355113.00 34910127.00 L 17316407.31 34917826.31 L 17107792.00 34709211.00 L 17069520.59 34693360.00 L 16948813.00 34693360.00 L 16948813.00 34609685.00 L 16734823.00 34609685.00 L 16734823.00 34360235.00 L 16818498.00 34360235.00 L 16818498.00 34005905.00 L 16542908.00 34005905.00 L 16542908.00 34360235.00 L 16626583.00 34360235.00 L 16626583.00 34609685.00 L 16594483.00 34609685.00 L 16594483.00 34885275.00 L 16948813.00 34885275.00 L 16948813.00 34801600.00 L 17047105.00 34801600.00 L 17241552.43 34996047.43 L 17234689.00 35030551.00 A 120431.73 120431.73 0 0 0 17475537.00 35030551.00  z"/>
<path id="N" d="M 13640266.00 34847917.00 L 13609233.00 34827182.26 L 13609233.00 34614066.73 L 13636109.27 34587190.00 L 13874116.27 34587190.00 L 13900993.00 34614066.27 L 13900993.00 34669685.00 L 13777948.00 34669685.00 L 13777948.00 34945275.00 L 14132278.00 34945275.00 L 14132278.00 34669685.00 L 14009233.00 34669685.00 L 14009233.00 34591649.00 L 13993380.29 34553379.29 L 13934803.00 34494801.00 L 13896531.59 34478950.00 L 13613692.00 34478950.00 L 13575422.29 34494802.71 L 13516844.00 34553380.00 L 13500993.00 34591651.41 L 13500993.00 34827182.26 L 13469960.00 34847917.00 A 120431.73 120431.73 0 1 0 13640266.00 34847917.00  z"/>
<path id="N" d="M 12135822.00 33987190.00 L 14105114.00 33987191.00 L 14143383.00 33971339.00 L 14635819.03 33478902.00 L 16858263.00 33478902.00 L 16858263.00 33837400.00 L 16934689.00 33837401.00 A 120431.73 120431.73 0 1 0 17175536.80 33837400.00 L 17251963.00 33837400.00 L 17251963.00 33537191.00 L 18782696.00 33537191.00 L 18941970.37 33696465.37 L 18934689.00 33733070.00 A 120431.73 120431.73 0 1 0 19055113.00 33612646.00 L 19018508.37 33619927.37 L 18843383.00 33444802.00 L 18805111.59 33428951.00 L 17251963.00 33428951.00 L 17251963.00 33128740.00 L 17175537.00 33128740.00 A 120431.73 120431.73 0 0 0 16934689.00 33128740.00 L 16858263.00 33128740.00 L 16858263.00 33370662.00 L 15358262.00 33370662.00 L 15358262.00 33201181.00 L 15003932.00 33201181.00 L 15003932.00 33370662.00 L 14613402.00 33370661.00 L 14575132.29 33386514.71 L 14082696.03 33878950.00 L 12135822.00 33878950.00 L 12135822.00 33690944.00 L 11722436.00 33690944.00 L 11722436.00 34104330.00 L 12135822.00 34104330.00 L 12135822.00 33987190.00  zM 11929131.38 33897631.09 m -140500.91 0 a 140500.91 140500.91 0 1 1 281001.82 0a 140500.91 140500.91 0 1 1 -281001.82 0"/>
<path id="N" d="M 16392055.00 35523543.00 L 16408960.61 35498241.00 L 16586818.00 35498242.00 L 16625087.00 35482390.00 L 16671020.68 35436456.00 L 16948813.00 35436456.00 L 16948813.00 35352781.00 L 18737625.00 35352782.00 L 18775894.00 35336930.00 L 19016926.11 35095897.89 L 19055113.00 35103494.00 A 120431.73 120431.73 0 1 0 18934689.00 34983070.00 L 18941655.63 35018092.37 L 18715207.00 35244541.00 L 16948813.00 35244541.00 L 16948813.00 35160866.00 L 16594483.00 35160866.00 L 16594483.00 35359918.32 L 16564400.11 35390001.00 L 16394265.25 35390001.00 L 16392055.00 35386693.00 L 16360661.00 35365717.00 L 16323630.00 35358351.00 L 15999574.00 35358351.00 L 15962543.00 35365717.00 L 15931149.00 35386693.00 L 15921591.07 35400998.00 L 15849578.08 35400998.00 L 15684823.00 35236242.08 L 15684823.00 34812623.00 L 15829941.00 34812623.00 L 15829941.00 34453517.00 L 15491865.00 34453517.00 L 15491865.00 34812623.00 L 15576583.00 34812623.00 L 15576582.00 35258660.00 L 15592434.00 35296929.00 L 15788892.00 35493387.00 L 15827163.41 35509238.00 L 15921591.07 35509238.00 L 15931149.00 35523543.00 L 15962543.00 35544519.00 L 15999574.00 35551885.00 L 16323630.00 35551885.00 L 16360661.00 35544519.00 L 16392055.00 35523543.00  z"/>
<path id="N" d="M 19085059.00 31141641.00 L 13972779.84 31141731.50 L 13959382.30 31191731.82 L 14043420.00 31240251.00 A 1183665.93 1183665.93 0 0 1 14506647.00 32604876.00 L 14478603.54 32672579.49 L 14520991.77 32700902.29 L 14559546.00 32662348.00 L 14609163.00 32629195.00 L 14667691.00 32617553.00 L 14903932.00 32617553.00 L 14903932.00 32589370.00 L 15254112.95 32589370.00 L 15268893.00 32586430.00 L 15335180.51 32586430.00 L 15366842.00 32580132.00 L 17652363.00 32580132.00 L 17652363.00 32278741.00 L 17754553.28 32278741.00 L 17764308.00 32255191.00 A 222383.27 222383.27 0 0 1 18134118.00 32255191.00 L 18143872.72 32278741.00 L 18246063.00 32278741.00 L 18246063.00 32580132.00 L 18305114.00 32580132.00 L 18363641.00 32591774.00 L 18413258.00 32624927.00 L 18603291.00 32814960.00 L 18648498.00 32814960.00 A 222383.27 222383.27 0 1 1 18387003.00 33076455.00 L 18387003.00 33031248.00 L 18292257.40 32936502.40 L 18246063.00 32955636.75 L 18246063.00 33187401.00 L 18143872.72 33187401.00 L 18134118.00 33210951.00 L 18072762.00 33272307.00 L 18053871.37 33280131.75 L 18063817.03 33330132.00 L 18805114.00 33330132.00 L 18863641.00 33341774.00 L 18913258.00 33374927.00 L 19053291.00 33514960.00 L 19098498.00 33514960.00 A 222383.27 222383.27 0 1 1 18837003.00 33776455.00 L 18837003.00 33731248.00 L 18741765.00 33636010.00 L 18234014.24 33636010.00 L 18216121.42 33686010.42 L 18264825.00 33734714.00 A 222382.84 222382.84 0 0 1 18264825.00 33981812.00 L 18232859.00 34013778.00 L 18232859.00 34189724.00 L 18357085.00 34189724.00 L 18357085.00 34665314.00 L 17816713.47 34665314.22 L 17795142.23 34703109.23 L 17816713.83 34740905.00 L 18029920.00 34740905.00 L 18029920.00 34840905.00 L 17902755.00 34840905.00 L 17902755.00 35116495.00 L 18257085.00 35116495.00 L 18257085.00 35028700.00 L 18357085.00 35028700.00 L 18357085.00 35145722.00 L 18674276.00 35145722.00 L 18837003.00 34982995.00 L 18837003.00 34939685.00 A 222383.27 222383.27 0 1 1 19098498.00 35201180.00 L 19051394.00 35201180.00 L 18845769.00 35406805.00 L 18796152.00 35439958.00 L 18737625.00 35451600.00 L 17048813.00 35451600.00 L 17048813.00 35536456.00 L 16731280.20 35536456.00 L 16691750.47 35578577.92 L 16694077.87 35612990.87 L 16710771.00 35629684.00 L 17048813.00 35629684.00 L 17048813.00 35714540.00 L 17320494.00 35714540.00 L 17410108.00 35624926.00 L 17459725.00 35591773.00 L 17518252.00 35580131.00 L 17799598.00 35580131.00 L 17831564.00 35548165.00 A 222382.84 222382.84 0 1 1 17831564.00 35917975.00 L 17799598.00 35886009.00 L 17581601.00 35886009.00 L 17491987.00 35975623.00 L 17442370.00 36008776.00 L 17383843.00 36020418.00 L 17048813.00 36020418.00 L 17048813.00 36105274.00 L 16609599.80 36105274.00 L 16584904.64 36155274.47 L 16602991.56 36178905.00 L 16948814.00 36178905.00 L 16958667.79 36180865.00 L 17048813.00 36180865.00 L 17048813.00 36236671.00 L 17493251.41 36681109.41 L 17792912.00 36681110.00 L 17792912.00 36437165.00 L 17892912.00 36437165.00 L 17892912.00 36574173.00 L 18266928.00 36574173.00 L 18266928.00 36200157.00 L 18129920.00 36200157.00 L 18129920.00 36100157.00 L 18366927.15 36100157.00 L 18408263.00 36079237.25 L 18408263.00 35967322.00 L 18508263.00 35967322.00 L 18508263.00 36094487.00 L 18901963.00 36094487.00 L 18901963.00 35967322.00 L 19001963.00 35967322.00 L 19001963.00 36290191.44 L 19017268.00 36313096.00 L 19025029.00 36352114.00 L 19025029.00 37065113.00 L 19017268.00 37104131.00 L 18995166.00 37137209.00 L 18927208.00 37205166.00 L 18894129.00 37227268.00 L 18855111.00 37235029.00 L 18554868.51 37235235.82 L 18507072.00 37276451.92 L 18507072.00 37830132.00 L 19891763.00 37830132.00 L 19985150.60 37736744.40 L 19966016.25 37690550.00 L 19962595.00 37690550.00 L 19962595.00 37175590.00 L 20477555.00 37175590.00 L 20477555.00 37690550.00 L 20373014.00 37690550.00 L 20373014.00 37718108.00 L 20361372.00 37776635.00 L 20328219.00 37826252.00 L 20063256.00 38091215.00 L 20013639.00 38124368.00 L 19955112.00 38136010.00 L 18507072.00 38136010.00 L 18507072.00 38283070.00 L 18499311.00 38322088.00 L 18477209.00 38355166.00 L 18027209.00 38805166.00 L 17994131.00 38827268.00 L 17955113.00 38835029.00 L 14565096.68 38835029.00 L 14546721.31 38872644.68 A 1183750.46 1183750.46 0 0 1 14043420.00 39625889.00 L 13959381.43 39674408.68 L 13972778.97 39724409.00 L 19085059.00 39724498.00 A 4295379.07 4295379.07 0 0 0 19085059.00 31141641.00  zM 18357085.00 34928700.00 L 18257085.00 34928700.00 L 18257085.00 34840905.00 L 18129920.00 34840905.00 L 18129920.00 34740905.00 L 18357085.00 34740905.00 L 18357085.00 34928700.00  zM 17892912.00 36337165.00 L 17792912.00 36337165.00 L 17792912.00 36100157.00 L 18029920.00 36100157.00 L 18029920.00 36200157.00 L 17892912.00 36200157.00 L 17892912.00 36337165.00  zM 18508263.00 35867322.00 L 18408263.00 35867322.00 L 18408263.00 35640157.00 L 18655113.00 35640157.00 L 18655113.00 35740157.00 L 18508263.00 35740157.00 L 18508263.00 35867322.00  zM 19001963.00 35867322.00 L 18901963.00 35867322.00 L 18901963.00 35740157.00 L 18755113.00 35740157.00 L 18755113.00 35640157.00 L 19001207.67 35640157.00 L 19001963.00 35641287.48 L 19001963.00 35867322.00  zM 19583070.00 36123659.98 L 19483070.00 36123659.97 L 19483070.00 35896495.00 L 19729920.02 35896495.00 L 19729920.02 35996495.00 L 19583070.00 35996495.00 L 19583070.00 36123659.98  zM 19729919.98 36450825.00 L 19483070.00 36450825.00 L 19483070.00 36223659.97 L 19583070.00 36223659.98 L 19583070.00 36350825.00 L 19729919.98 36350825.00 L 19729919.98 36450825.00  zM 20767317.00 33910235.00 L 20291727.00 33910235.00 L 20291727.00 33786009.00 L 19998554.94 33786009.00 L 19990018.00 33806619.00 A 222383.27 222383.27 0 1 1 19848498.00 33464960.00 L 19887346.37 33481051.51 L 20291727.00 33480131.00 L 20291727.00 33355905.00 L 20767317.00 33355905.00 L 20767317.00 33910235.00  zM 21030705.99 33910235.00 L 20842908.00 33910235.00 L 20842908.00 33683070.99 L 20942908.00 33683070.99 L 20942908.00 33810235.00 L 21030705.99 33810235.00 L 21030705.99 33910235.00  zM 20942908.00 33583070.99 L 20842908.00 33583070.99 L 20842908.00 33355905.00 L 21030706.01 33355905.00 L 21030706.01 33455905.00 L 20942908.00 33455905.00 L 20942908.00 33583070.99  zM 21318498.00 33583071.01 L 21218498.00 33583071.01 L 21218498.00 33455905.00 L 21130706.01 33455905.00 L 21130706.01 33355905.00 L 21318498.00 33355905.00 L 21318498.00 33583071.01  zM 21318498.00 33910235.00 L 21130705.99 33910235.00 L 21130705.99 33810235.00 L 21218498.00 33810235.00 L 21218498.00 33683071.01 L 21318498.00 33683071.01 L 21318498.00 33910235.00  zM 20076770.00 36123660.03 L 19976770.00 36123660.02 L 19976770.00 35996495.00 L 19829920.02 35996495.00 L 19829920.02 35896495.00 L 20076770.00 35896495.00 L 20076770.00 36123660.03  zM 20764308.00 36560951.00 L 20754553.28 36537401.00 L 20652363.00 36537401.00 L 20652363.00 35628741.00 L 20754553.28 35628741.00 L 20764308.00 35605191.00 A 222383.27 222383.27 0 0 1 21134118.00 35605191.00 L 21143872.72 35628741.00 L 21246063.00 35628741.00 L 21246063.00 36537401.00 L 21143872.72 36537401.00 L 21134118.00 36560951.00 A 222383.27 222383.27 0 0 1 20764308.00 36560951.00  zM 20076770.00 36450825.00 L 19829919.98 36450825.00 L 19829919.98 36350825.00 L 19976770.00 36350825.00 L 19976770.00 36223660.02 L 20076770.00 36223660.03 L 20076770.00 36450825.00  zM 19847633.00 37690550.00 L 19332673.00 37690550.00 L 19332673.00 37175590.00 L 19502853.00 37175590.00 L 19502853.00 37080746.00 L 19483070.00 37080746.00 L 19483070.00 36526416.00 L 20076770.00 36526416.00 L 20076770.00 37080746.00 L 19808731.00 37080746.00 L 19808731.00 37175590.00 L 19847633.00 37175590.00 L 19847633.00 37690550.00  z"/>
<path id="N" d="M 15898105.00 36827908.10 L 15890136.00 36826323.00 L 15857058.00 36804221.00 L 15849308.47 36792623.00 L 15391078.00 36792623.00 L 15391078.00 36233517.00 L 15487974.00 36233517.00 L 15487974.00 35905705.00 L 15499616.00 35847178.00 L 15532769.00 35797561.00 L 15711772.76 35618557.24 L 15715868.80 35587290.47 L 15711772.73 35556018.69 L 15522559.00 35366804.00 L 15489406.00 35317187.00 L 15477764.00 35258660.00 L 15477764.00 34912623.00 L 15391865.00 34912623.00 L 15391865.00 34353517.00 L 15891727.00 34353517.00 L 15891727.00 33905905.00 L 16367317.00 33905905.00 L 16367317.00 34460235.00 L 16282461.00 34460235.00 L 16282461.00 35000487.00 L 16323630.00 35000487.00 L 16399679.00 35015614.00 L 16449451.30 35048870.16 L 16494485.07 35060866.00 L 17048813.00 35060866.00 L 17048813.00 35145722.00 L 17121738.35 35145722.00 L 17149517.21 35104148.00 L 17137003.00 35073936.00 L 17137003.00 35031248.00 L 17078665.35 34972910.35 L 17048812.44 34985275.00 L 16494483.00 34985275.00 L 16494482.30 34509685.72 L 16493154.48 34460235.00 L 16442908.00 34460235.00 L 16442908.00 33905905.00 L 16758263.00 33905905.00 L 16758263.00 33577721.00 L 14676751.00 33577721.00 L 14213258.00 34041214.00 L 14163641.00 34074367.00 L 14105114.00 34086009.00 L 12235822.00 34086009.00 L 12235822.00 34204330.00 L 11622436.00 34204330.00 L 11622436.00 33590944.00 L 11978111.25 33590944.00 L 11997245.60 33544749.60 L 10770788.00 32318292.00 L 10713856.00 32318292.00 L 10660750.00 32371398.00 A 309345.55 309345.55 0 1 1 10758228.00 32007604.00 L 10759516.86 32012414.00 L 10834137.00 32012414.00 L 10892664.00 32024056.00 L 10942281.00 32057209.00 L 12215203.00 33330131.00 L 12843771.68 33330131.00 L 12852186.71 33280130.70 L 12728233.00 33208566.00 A 1183665.93 1183665.93 0 0 1 12728233.00 31240251.00 L 12812270.50 31191731.93 L 12798872.96 31141731.62 L 9055118.00 31141732.00 L 9055118.00 34897193.81 L 9074010.98 34939369.00 L 9203154.00 34939369.00 L 9203154.00 34933070.00 L 9210915.00 34894052.00 L 9233017.00 34860974.00 L 9853155.00 34240836.00 L 9853155.00 33033069.00 L 9860916.00 32994051.00 L 9883018.00 32960973.00 L 9983017.00 32860974.00 L 10016095.00 32838872.00 L 10055113.00 32831111.00 L 10755112.00 32831111.00 L 10794130.00 32838872.00 L 10827208.00 32860974.00 L 10927210.00 32960975.00 L 10949312.00 32994052.00 L 10957073.00 33033070.00 L 10957073.00 34238606.25 L 11003267.40 34257740.60 L 11006426.00 34254582.00 A 319282.99 319282.99 0 1 1 11006426.00 34761164.00 L 11003267.40 34758005.40 L 10957073.00 34777139.75 L 10957073.00 34939369.00 A 101958.15 101958.15 0 0 1 10894132.00 35033567.00 L 10864962.76 35039369.00 L 10748813.00 35039369.00 L 10748813.00 35826771.00 L 10864962.76 35826771.00 L 10894132.00 35832573.00 A 101959.21 101959.21 0 0 1 10957073.00 35926771.00 L 10957072.82 36089006.42 L 11003267.21 36108140.79 L 11006426.00 36104982.00 A 319282.99 319282.99 0 1 1 11006426.00 36611564.00 L 11003266.62 36608404.62 L 10957072.21 36627538.95 L 10957072.00 36815564.00 L 11295386.00 36815564.00 L 12162690.87 35948485.39 L 12203933.00 35920862.94 L 12203933.00 35795349.45 L 12244877.00 35803494.00 L 12290961.00 35794327.00 L 12303933.00 35785659.74 L 12303933.00 35820865.00 L 12658263.00 35820865.00 L 12658263.00 35545275.00 L 12303933.00 35545275.00 L 12303933.00 35580480.26 L 12290961.00 35571813.00 L 12244877.00 35562646.00 L 12203933.00 35570790.55 L 12203933.00 35445275.00 L 12238152.72 35445275.00 L 12258863.57 35395274.57 L 12220208.00 35356619.00 A 222382.84 222382.84 0 0 1 12528662.00 35048165.00 L 12560628.00 35080131.00 L 13035035.00 35080131.00 L 13093562.00 35091773.00 L 13143179.00 35124926.00 L 13207622.96 35189369.00 L 13473267.45 35189369.00 L 13483213.11 35139368.75 L 13431564.00 35117975.00 A 222383.27 222383.27 0 0 1 13370208.00 34809521.00 L 13402174.00 34777555.00 L 13402174.00 34591649.00 L 13413816.00 34533122.00 L 13446969.00 34483505.00 L 13505548.00 34424926.00 L 13555165.00 34391773.00 L 13613692.00 34380131.00 L 13896534.00 34380131.00 L 13955061.00 34391773.00 L 14004678.00 34424926.00 L 14063257.00 34483505.00 L 14096410.00 34533122.00 L 14103682.99 34569685.00 L 14232278.00 34569685.00 L 14232278.00 35006724.27 L 14282278.48 35033450.37 L 14308973.00 35015614.00 L 14385022.00 35000487.00 L 14497050.00 35000487.00 L 14497050.00 35102446.00 L 14385022.00 35102446.00 A 96771.86 96771.86 0 0 0 14385022.00 35295980.00 L 14709078.00 35295980.00 A 96771.86 96771.86 0 0 0 14709078.00 35102446.00 L 14597050.00 35102446.00 L 14597050.00 35000487.00 L 14709078.00 35000487.00 L 14785127.00 35015614.00 L 14849599.00 35058692.00 L 14876582.65 35099076.65 L 14926583.00 35083909.45 L 14926583.00 34912623.00 L 14780285.00 34912623.00 L 14780285.00 34353517.00 L 15318361.00 34353517.00 L 15318361.00 34912623.00 L 15232461.00 34912623.00 L 15232461.00 35208662.00 L 15220819.00 35267189.00 L 15187666.00 35316806.00 L 14960155.66 35544316.34 L 14957095.85 35578626.14 L 14962129.32 35605770.20 L 14974262.00 35613877.00 L 15186879.00 35826494.00 L 15220032.00 35876111.00 L 15231674.00 35934638.00 L 15231674.00 36233517.00 L 15317574.00 36233517.00 L 15317574.00 36792623.00 L 14859343.53 36792623.00 L 14851594.00 36804221.00 L 14818516.00 36826323.00 L 14812121.00 36827595.02 L 14812121.00 36880131.00 L 15898105.00 36880131.00 L 15898105.00 36827908.10  zM 11200783.00 31515762.51 m -319256.99 0 a 319256.99 319256.99 0 1 1 638513.99 0a 319256.99 319256.99 0 1 1 -638513.99 0M 11929131.38 32716529.09 m -140500.91 0 a 140500.91 140500.91 0 1 1 281001.82 0a 140500.91 140500.91 0 1 1 -281001.82 0"/>
<path id="N" d="M 11929131.29 37559057.29 m -210738.62 0 a 210738.62 210738.62 0 1 1 421477.24 0a 210738.62 210738.62 0 1 1 -421477.24 0M 11929131.38 37559049.09 m -140500.91 0 a 140500.91 140500.91 0 1 1 281001.82 0a 140500.91 140500.91 0 1 1 -281001.82 0"/>
<path id="N" d="M 11892255.62 37195445.45 L 11909026.92 37185579.39 L 12379862.00 36714123.00 L 12412940.00 36692021.00 L 12442109.24 36686219.00 L 12891176.00 36686219.00 L 12891176.00 36684260.00 L 12916472.10 36684260.00 L 12919080.00 36680357.00 L 12976329.00 36642947.00 L 12988498.12 36624733.88 L 13002259.00 36610973.00 L 13035337.00 36588871.00 L 13074355.00 36581110.00 L 13115241.93 36581110.00 L 13436326.70 36260024.43 L 13415615.81 36210024.00 L 12333502.00 36210024.00 L 11466879.00 37076647.00 L 11417262.00 37109800.00 L 11358735.00 37121442.00 L 11102675.74 37121442.00 L 11075949.92 37171442.48 L 11082410.22 37181111.00 L 11793764.00 37181111.00 L 11820153.00 37184585.00 L 11832782.00 37188872.00 L 11843873.14 37196282.86 L 11856325.98 37202089.34 L 11892255.62 37195445.45  z"/>
<path id="N" d="M 16372121.00 36832125.00 L 15998105.00 36832125.00 L 15998105.00 36978950.00 L 15461000.74 36978950.00 L 15440266.00 36947917.00 A 120431.73 120431.73 0 0 0 15269960.00 36947917.00 L 15249225.26 36978950.00 L 14712121.00 36978950.00 L 14712121.00 36832125.00 L 14338105.00 36832125.00 L 14338105.00 37206141.00 L 14712121.00 37206141.00 L 14712121.00 37087190.00 L 15249225.26 37087190.00 L 15269960.00 37118223.00 A 120431.73 120431.73 0 0 0 15440266.00 37118223.00 L 15461000.74 37087190.00 L 15998105.00 37087190.00 L 15998105.00 37206141.00 L 16372121.00 37206141.00 L 16372121.00 36832125.00  z"/>
<path id="N" d="M 16106294.00 33203494.00 A 120431.73 120431.73 0 1 0 16106293.00 32962646.20 L 16106293.00 32945275.00 L 15751963.00 32945275.00 L 15751963.00 33220865.00 L 16106293.00 33220865.00 L 16106294.00 33203494.00  z"/>
<path id="N" d="M 21069636.80 36437401.00 L 21146063.00 36437401.00 L 21146063.00 35728741.00 L 21069637.00 35728740.00 A 120431.73 120431.73 0 1 0 20828789.20 35728741.00 L 20752363.00 35728741.00 L 20752363.00 36437401.00 L 20828789.00 36437402.00 A 120431.73 120431.73 0 1 0 21069636.80 36437401.00  z"/>
<path id="N" d="M 14017576.16 39229391.16 m -120412.98 0 a 120412.98 120412.98 0 1 1 240825.96 0a 120412.98 120412.98 0 1 1 -240825.96 0"/>
<path id="N" d="M 13405121.16 39483078.16 m -120412.98 0 a 120412.98 120412.98 0 1 1 240825.96 0a 120412.98 120412.98 0 1 1 -240825.96 0"/>
<path id="N" d="M 14271263.16 38616936.16 m -120412.98 0 a 120412.98 120412.98 0 1 1 240825.96 0a 120412.98 120412.98 0 1 1 -240825.96 0"/>
<path id="N" d="M 12792666.16 38004481.16 m -120412.98 0 a 120412.98 120412.98 0 1 1 240825.96 0a 120412.98 120412.98 0 1 1 -240825.96 0"/>
<path id="N" d="M 14017576.16 38004481.16 m -120412.98 0 a 120412.98 120412.98 0 1 1 240825.96 0a 120412.98 120412.98 0 1 1 -240825.96 0"/>
<path id="N" d="M 12538979.16 38616936.16 m -120412.98 0 a 120412.98 120412.98 0 1 1 240825.96 0a 120412.98 120412.98 0 1 1 -240825.96 0"/>
<path id="N" d="M 13405121.16 37750794.16 m -120412.98 0 a 120412.98 120412.98 0 1 1 240825.96 0a 120412.98 120412.98 0 1 1 -240825.96 0"/>
<path id="N" d="M 13405121.16 33083078.16 m -120412.98 0 a 120412.98 120412.98 0 1 1 240825.96 0a 120412.98 120412.98 0 1 1 -240825.96 0"/>
<path id="N" d="M 14017576.16 32829391.16 m -120412.98 0 a 120412.98 120412.98 0 1 1 240825.96 0a 120412.98 120412.98 0 1 1 -240825.96 0"/>
<path id="N" d="M 12792666.16 32829391.16 m -120412.98 0 a 120412.98 120412.98 0 1 1 240825.96 0a 120412.98 120412.98 0 1 1 -240825.96 0"/>
<path id="N" d="M 14271263.16 32216936.16 m -120412.98 0 a 120412.98 120412.98 0 1 1 240825.96 0a 120412.98 120412.98 0 1 1 -240825.96 0"/>
<path id="N" d="M 12792666.16 31604481.16 m -120412.98 0 a 120412.98 120412.98 0 1 1 240825.96 0a 120412.98 120412.98 0 1 1 -240825.96 0"/>
<path id="N" d="M 14017576.16 31604481.16 m -120412.98 0 a 120412.98 120412.98 0 1 1 240825.96 0a 120412.98 120412.98 0 1 1 -240825.96 0"/>
<path id="N" d="M 12792666.16 39229391.16 m -120412.98 0 a 120412.98 120412.98 0 1 1 240825.96 0a 120412.98 120412.98 0 1 1 -240825.96 0"/>
<path id="N" d="M 13405121.16 31350794.16 m -120412.98 0 a 120412.98 120412.98 0 1 1 240825.96 0a 120412.98 120412.98 0 1 1 -240825.96 0"/>
<path id="N" d="M 12538979.16 32216936.16 m -120412.98 0 a 120412.98 120412.98 0 1 1 240825.96 0a 120412.98 120412.98 0 1 1 -240825.96 0"/>
<path id="N" d="M 10667136.00 37049150.00 L 10672412.65 37022623.00 L 11358735.00 37022624.00 L 11397004.00 37006772.00 L 12292570.02 36111205.00 L 13716137.00 36111206.00 L 13754406.00 36095354.00 L 13854485.50 35995274.00 L 14132278.00 35995274.00 L 14132278.00 35796141.80 L 14163275.27 35765144.00 L 14307039.07 35765144.00 L 14316597.00 35779449.00 L 14347991.00 35800425.00 L 14385022.00 35807791.00 L 14709078.00 35807791.00 L 14746109.00 35800425.00 L 14777503.00 35779449.00 L 14779713.25 35776141.00 L 14843700.00 35776141.00 L 15024615.00 35957056.00 L 15024615.00 36333517.00 L 14879498.00 36333517.00 L 14879498.00 36692623.00 L 15217574.00 36692623.00 L 15217574.00 36333517.00 L 15132855.00 36333517.00 L 15132856.00 35934638.00 L 15117004.00 35896369.00 L 14904387.00 35683752.00 L 14866115.59 35667901.00 L 14794408.61 35667901.00 L 14777503.00 35642599.00 L 14746109.00 35621623.00 L 14709078.00 35614257.00 L 14385022.00 35614257.00 L 14347991.00 35621623.00 L 14316597.00 35642599.00 L 14307039.07 35656904.00 L 14140858.00 35656904.00 L 14102588.29 35672756.71 L 14055660.20 35719684.00 L 13777948.00 35719684.00 L 13777948.00 35918736.50 L 13693719.08 36002965.00 L 13406294.00 36002965.00 L 13406294.00 35801180.00 L 13051964.00 35801180.00 L 13051964.00 36002965.00 L 12270153.00 36002964.00 L 12231883.29 36018817.71 L 11336317.02 36914383.00 L 10672412.65 36914383.00 L 10667136.00 36887856.00 A 210738.62 210738.62 0 1 0 10667136.00 37049150.00  zM 10472438.38 36968497.09 m -140500.91 0 a 140500.91 140500.91 0 1 1 281001.82 0a 140500.91 140500.91 0 1 1 -281001.82 0"/>
<path id="N" d="M 18923070.00 37065113.00 L 18923070.00 36352115.00 L 18901963.00 36331008.30 L 18901963.00 36271653.00 L 18508263.00 36271653.00 L 18508263.00 36352348.00 L 18506926.00 36353685.00 L 18506926.00 37084883.00 L 18555111.00 37133068.00 L 18855112.00 37133070.00 L 18923070.00 37065113.00  z"/>
<path id="N" d="M 13406294.00 35447033.00 L 13777948.00 35447033.00 L 13777948.00 35496456.00 L 14036261.45 35496456.00 L 14040575.41 35498241.00 L 14299691.39 35498241.00 L 14316597.00 35523543.00 L 14347991.00 35544519.00 L 14385022.00 35551885.00 L 14709078.00 35551885.00 L 14746109.00 35544519.00 L 14777503.00 35523543.00 L 14794408.61 35498241.00 L 14844063.00 35498242.00 L 14882332.00 35482390.00 L 15117791.00 35246931.00 L 15133642.00 35208662.00 L 15133642.00 34812623.00 L 15218361.00 34812623.00 L 15218361.00 34453517.00 L 14880285.00 34453517.00 L 14880285.00 34812623.00 L 15025402.00 34812623.00 L 15025402.00 35186244.93 L 14821645.07 35390001.00 L 14779713.25 35390001.00 L 14777503.00 35386693.00 L 14746109.00 35365717.00 L 14709078.00 35358351.00 L 14385022.00 35358351.00 L 14347991.00 35365717.00 L 14316597.00 35386693.00 L 14314386.75 35390001.00 L 14132278.00 35390001.00 L 14132278.00 35220866.00 L 13777948.00 35220866.00 L 13777948.00 35338793.00 L 13406294.00 35338793.00 L 13406294.00 35289369.00 L 13151680.47 35289369.00 L 13140230.29 35261728.29 L 13073304.00 35194801.00 L 13035032.59 35178950.00 L 12511000.74 35178950.00 L 12490266.00 35147917.00 A 120431.73 120431.73 0 1 0 12490266.00 35318223.00 L 12511000.74 35287190.00 L 13012617.24 35287190.00 L 13047843.00 35322415.24 L 13047842.00 35339368.00 L 13051964.00 35349319.10 L 13051964.00 35564959.00 L 13406294.00 35564959.00 L 13406294.00 35447033.00  z"/>
<path id="N" d="M 12135822.00 38533464.00 L 11722436.00 38533464.00 L 11722436.00 38946850.00 L 12135822.00 38946850.00 L 12135822.00 38533464.00  zM 11929131.38 38740151.09 m -140500.91 0 a 140500.91 140500.91 0 1 1 281001.82 0a 140500.91 140500.91 0 1 1 -281001.82 0"/>
<path id="N" d="M 20667317.00 33455905.00 L 20391727.00 33455905.00 L 20391727.00 33578950.00 L 19891974.00 33578949.00 L 19873395.44 33586644.92 L 19851197.00 33571813.00 A 120419.38 120419.38 0 1 0 19924717.45 33687190.00 L 20391727.00 33687190.00 L 20391727.00 33810235.00 L 20667317.00 33810235.00 L 20667317.00 33455905.00  z"/>
</g>
</svg>
