<svg width="35.90526474mm" height="21.80000212mm" viewBox="0 0 14135931 8582678"  version="1.1" xmlns="http://www.w3.org/2000/svg" xmlns:xlink="http://www.w3.org/1999/xlink">
<desc>
Origin 9055113 35433070 Bound 9055118 31141731 14135931 8582678
</desc>
<g fill-rule="evenodd" fill="rgb(255, 255, 0)" stroke="black" stroke-width="1" transform="translate(0, 8582678) scale(1, -1) translate(-9055118, -31141731)">
<path id="N" d="M 15524887.00 34234442.00 L 15551127.00 34224930.00 L 15566871.00 34213122.00 L 15578023.00 34198690.00 L 15587863.00 34175730.00 A 65001.25 65001.25 0 0 0 15578351.00 34120954.00 L 15565887.00 34109146.00 L 15545551.00 34097666.00 L 15561295.00 34090450.00 L 15581959.00 34075362.00 A 83247.72 83247.72 0 0 0 15597703.00 33992378.00 A 83623.09 83623.09 0 0 0 15550799.00 33939570.00 L 15526199.00 33931042.00 L 15502911.00 33928746.00 L 15471423.00 33933338.00 L 15447479.00 33942850.00 L 15429111.00 33956298.00 L 15414351.00 33977946.00 L 15405823.00 34000250.00 L 15403199.00 34024194.00 L 15409431.00 34054370.00 L 15418287.00 34070770.00 L 15435015.00 34085858.00 L 15459615.00 34097994.00 L 15447807.00 34103898.00 L 15431079.00 34116034.00 L 15422879.00 34127842.00 L 15415663.00 34151458.00 L 15416647.00 34170810.00 L 15425175.00 34196722.00 L 15439935.00 34215746.00 L 15459943.00 34228210.00 L 15487823.00 34236410.00 L 15524887.00 34234442.00  zM 15479623.00 34077330.00 L 15465191.00 34070114.00 A 63826.60 63826.60 0 0 1 15465519.00 33970402.00 L 15480607.00 33963186.00 L 15502911.00 33959250.00 L 15525543.00 33963514.00 L 15540303.00 33970730.00 L 15552767.00 33983194.00 A 62826.50 62826.50 0 0 1 15479623.00 34077330.00  zM 15464863.00 34190818.00 L 15455679.00 34173762.00 L 15453383.00 34158674.00 L 15458959.00 34136698.00 L 15467487.00 34124890.00 L 15487823.00 34114066.00 L 15504879.00 34112098.00 L 15526855.00 34117674.00 L 15538991.00 34126202.00 L 15547847.00 34139322.00 L 15552111.00 34158674.00 L 15550471.00 34170482.00 L 15542599.00 34187210.00 L 15532431.00 34197378.00 A 54681.84 54681.84 0 0 1 15464863.00 34190818.00  z"/>
<path id="N" d="M 18675572.99 32579912.00 L 18700172.99 32569662.00 L 18720262.99 32553672.00 L 18740352.99 32528252.00 L 18751012.99 32504472.00 L 18758802.99 32472492.00 L 18761262.99 32439282.00 L 18755113.00 32385982.00 L 18746503.00 32357282.00 L 18735433.00 32338012.00 L 18712473.00 32311362.00 L 18701813.00 32303572.00 L 18686233.00 32295372.00 L 18659993.00 32286762.00 L 18633343.00 32283071.99 L 18629243.00 32330221.99 L 18653433.00 32335552.00 L 18677213.00 32345802.00 L 18691563.00 32360152.00 L 18705503.00 32383522.00 L 18712882.99 32408942.00 L 18716572.99 32441742.00 L 18714522.99 32466342.00 L 18707962.99 32492582.00 L 18694842.99 32515132.00 A 56787.85 56787.85 0 0 1 18626372.99 32528661.99 L 18613662.99 32516771.99 L 18598492.99 32489301.99 L 18580862.99 32423291.99 L 18565283.00 32371221.99 L 18554623.00 32346621.99 L 18536583.00 32322431.99 L 18520183.00 32309311.99 L 18493123.00 32299471.99 L 18474673.00 32297421.99 L 18457043.00 32299471.99 L 18430803.00 32308081.99 L 18412763.00 32320381.99 L 18394723.00 32340471.98 L 18382013.00 32364251.98 L 18372172.99 32403201.98 L 18370122.99 32437231.98 L 18375862.99 32479461.98 L 18384062.99 32504471.98 L 18393902.99 32522511.98 L 18414402.99 32546701.99 L 18430802.99 32557771.99 L 18459912.99 32568841.99 L 18483282.99 32572531.99 L 18486562.99 32524561.99 L 18458272.99 32516361.99 L 18440642.99 32505701.99 L 18432442.99 32497091.99 L 18423832.99 32481511.99 L 18416452.99 32454451.99 L 18414812.99 32428211.99 L 18418913.00 32396231.99 L 18425883.00 32375321.99 L 18432443.00 32365481.99 L 18443103.00 32356051.99 L 18463193.00 32346621.99 L 18478773.00 32346621.99 L 18494353.00 32351951.99 L 18505013.00 32360151.99 L 18509933.00 32367941.99 L 18522232.99 32397871.99 L 18544372.99 32482741.99 L 18556262.99 32519641.99 L 18572252.99 32545881.99 L 18586602.99 32561461.99 L 18600952.99 32571711.99 L 18627192.99 32581551.99 L 18675572.99 32579912.00  z"/>
<path id="N" d="M 17175974.99 32179912.00 L 17200574.99 32169662.00 L 17220664.99 32153672.00 L 17240754.99 32128252.00 L 17251414.99 32104472.00 L 17259204.99 32072492.00 L 17261664.99 32039282.00 L 17255515.00 31985982.00 L 17246905.00 31957282.00 L 17235835.00 31938012.00 L 17212875.00 31911362.00 L 17202215.00 31903572.00 L 17186635.00 31895372.00 L 17160395.00 31886762.00 L 17133745.00 31883071.99 L 17129645.00 31930221.99 L 17153835.00 31935552.00 L 17177615.00 31945802.00 L 17191965.00 31960152.00 L 17205905.00 31983522.00 L 17213284.99 32008942.00 L 17216974.99 32041742.00 L 17214924.99 32066342.00 L 17208364.99 32092582.00 L 17195244.99 32115132.00 A 56787.85 56787.85 0 0 1 17126774.99 32128661.99 L 17114064.99 32116771.99 L 17098894.99 32089301.99 L 17081264.99 32023291.99 L 17065685.00 31971221.99 L 17055025.00 31946621.99 L 17036985.00 31922431.99 L 17020585.00 31909311.99 L 16993525.00 31899471.99 L 16975075.00 31897421.99 L 16957445.00 31899471.99 L 16931205.00 31908081.99 L 16913165.00 31920381.99 L 16895125.00 31940471.98 L 16882415.00 31964251.98 L 16872574.99 32003201.98 L 16870524.99 32037231.98 L 16876264.99 32079461.98 L 16884464.99 32104471.98 L 16894304.99 32122511.98 L 16914804.99 32146701.99 L 16931204.99 32157771.99 L 16960314.99 32168841.99 L 16983684.99 32172531.99 L 16986964.99 32124561.99 L 16958674.99 32116361.99 L 16941044.99 32105701.99 L 16932844.99 32097091.99 L 16924234.99 32081511.99 L 16916854.99 32054451.99 L 16915214.99 32028211.99 L 16919315.00 31996231.99 L 16926285.00 31975321.99 L 16932845.00 31965481.99 L 16943505.00 31956051.99 L 16963595.00 31946621.99 L 16979175.00 31946621.99 L 16994755.00 31951951.99 L 17005415.00 31960151.99 L 17010335.00 31967941.99 L 17022634.99 31997871.99 L 17044774.99 32082741.99 L 17056664.99 32119641.99 L 17072654.99 32145881.99 L 17087004.99 32161461.99 L 17101354.99 32171711.99 L 17127594.99 32181551.99 L 17175974.99 32179912.00  z"/>
<path id="N" d="M 16513865.00 33837066.00 L 16542729.00 33830834.00 L 16562081.00 33820666.00 L 16574217.00 33808858.00 L 16587993.00 33785242.00 L 16594225.00 33761954.00 L 16557161.00 33759330.00 L 16556177.00 33762610.00 L 16546337.00 33786554.00 L 16537153.00 33796066.00 L 16520753.00 33804266.00 L 16505665.00 33806890.00 L 16489921.00 33804266.00 L 16473849.00 33796722.00 L 16459745.00 33781962.00 L 16445641.00 33756706.00 L 16438753.00 33725874.00 L 16436142.67 33690135.67 L 16449905.00 33706194.00 L 16468929.00 33719970.00 L 16487297.00 33726858.00 L 16511241.00 33730138.00 L 16536169.00 33725218.00 A 83018.67 83018.67 0 0 0 16588321.00 33678642.00 L 16596849.00 33654698.00 L 16599145.00 33630754.00 L 16593897.00 33597626.00 L 16585369.00 33576634.00 L 16567329.00 33553018.00 L 16551913.00 33540882.00 L 16531577.00 33532682.00 L 16504025.00 33528746.00 L 16477129.00 33533010.00 L 16452529.00 33543178.00 L 16433833.00 33556954.00 L 16423665.00 33569418.00 L 16410873.00 33596970.00 L 16401689.00 33635674.00 L 16399065.00 33676018.00 L 16401689.00 33714066.00 L 16409561.00 33755394.00 L 16420713.00 33785898.00 L 16431865.00 33802954.00 L 16446953.00 33816730.00 L 16468929.00 33829194.00 L 16490905.00 33835754.00 L 16513865.00 33837066.00  zM 16458761.00 33678642.00 L 16448921.00 33663226.00 L 16442361.00 33642234.00 L 16442689.00 33619930.00 L 16449577.00 33594674.00 L 16462697.00 33576634.00 L 16477785.00 33565482.00 L 16497465.00 33559578.00 L 16511897.00 33560234.00 A 57733.80 57733.80 0 0 1 16554209.00 33595002.00 L 16560441.00 33618290.00 L 16560113.00 33640594.00 L 16554209.00 33663554.00 L 16547321.00 33675362.00 L 16532889.00 33688154.00 L 16511241.00 33696682.00 A 63092.34 63092.34 0 0 1 16458761.00 33678642.00  z"/>
<path id="N" d="M 17380531.98 35725788.99 L 17425795.98 35718901.00 L 17448099.98 35711029.00 L 17475979.98 35693645.00 L 17492379.98 35676261.00 L 17502219.98 35656581.00 L 17508779.98 35630997.00 L 17509107.98 35612957.00 L 17502875.98 35584421.00 L 17493363.99 35565069.00 L 17478603.99 35551293.00 L 17457939.99 35540141.00 L 17434323.99 35534237.00 L 17432355.99 35570317.00 L 17433667.99 35570317.00 L 17457283.99 35578845.00 L 17469419.98 35589341.00 L 17477291.98 35606397.00 L 17478931.98 35619845.00 L 17476963.98 35634605.00 L 17471059.98 35650349.00 L 17454987.98 35667733.00 L 17435963.98 35677901.00 L 17403819.98 35687085.00 L 17362491.98 35690364.99 L 17376923.98 35677900.99 A 81365.21 81365.21 0 0 0 17398571.98 35595901.00 L 17387419.99 35569988.99 L 17373643.99 35553588.99 A 107569.21 107569.21 0 0 0 17276555.99 35531940.99 L 17252611.99 35540140.99 L 17234571.99 35550964.99 L 17220139.99 35566380.99 L 17207347.98 35589668.99 A 95729.32 95729.32 0 0 0 17207675.98 35658548.99 L 17217515.98 35678228.99 L 17234899.98 35697252.99 L 17256875.98 35712012.99 L 17278523.98 35719884.99 L 17318539.98 35726116.99 L 17380531.98 35725788.99  zM 17290003.98 35685116.99 L 17266387.98 35678884.99 L 17254251.98 35671996.99 L 17241131.98 35657564.99 L 17233259.98 35640836.99 L 17231619.98 35625748.99 L 17236539.98 35606396.99 L 17248347.98 35588356.99 L 17262779.99 35577532.99 L 17282787.99 35569660.99 A 75429.42 75429.42 0 0 1 17347731.99 35580812.99 L 17356915.98 35590652.99 A 60352.10 60352.10 0 0 1 17354291.98 35666092.99 L 17343795.98 35674620.99 L 17322475.98 35683476.99 L 17290003.98 35685116.99  z"/>
<path id="N" d="M 13273827.98 37082841.00 L 13301051.98 37075953.00 L 13323683.98 37063489.00 L 13338771.98 37048729.00 A 111782.57 111782.57 0 0 0 13342379.99 36919825.00 A 102638.15 102638.15 0 0 0 13276451.99 36885057.00 L 13271531.99 36922121.00 L 13276779.99 36923433.00 L 13304331.98 36933601.00 L 13317779.98 36944097.00 L 13324011.98 36953937.00 L 13330243.98 36973289.00 L 13329915.98 36990673.00 A 61724.79 61724.79 0 1 1 13213147.98 36958200.99 L 13180675.98 36962792.99 L 13181003.98 36964432.99 L 13179691.98 36982472.99 L 13173131.98 37003792.99 L 13163619.98 37017240.99 L 13147547.98 37027408.99 L 13135411.98 37030032.99 L 13118683.98 37028720.99 L 13101955.98 37020848.99 L 13092443.98 37010680.99 A 52653.23 52653.23 0 0 1 13112779.98 36933272.99 L 13137707.99 36925728.99 L 13130819.99 36888664.99 L 13124915.99 36889976.99 L 13096051.99 36901456.99 L 13077355.99 36915232.99 L 13066859.98 36929008.99 L 13056035.98 36954920.99 L 13052755.98 36979520.99 L 13055379.98 37001496.99 L 13063579.98 37025440.99 L 13080307.98 37047416.99 L 13093099.98 37057584.99 L 13110155.98 37064800.99 L 13131803.98 37068408.99 L 13148859.98 37065784.99 L 13167883.98 37057256.99 L 13180675.98 37045448.99 L 13192811.98 37026424.99 L 13194779.98 37032984.99 L 13206259.98 37055288.99 L 13219051.98 37068408.99 L 13232171.98 37075624.99 L 13256771.98 37082513.00 L 13273827.98 37082841.00  z"/>
<path id="N" d="M 18615631.00 34495326.00 L 18610383.00 34494014.00 L 18582831.00 34483846.00 L 18569383.00 34473350.00 L 18563151.00 34463510.00 L 18556919.00 34444158.00 L 18557247.00 34426774.00 A 61724.79 61724.79 0 1 1 18674015.00 34459246.00 L 18706487.00 34454654.00 L 18706159.00 34453014.00 L 18707471.00 34434974.00 L 18714031.00 34413654.00 L 18723543.01 34400206.00 L 18739615.01 34390038.00 L 18751751.01 34387414.00 L 18768479.01 34388726.00 L 18785207.01 34396598.00 L 18794719.00 34406766.00 A 52653.23 52653.23 0 0 1 18774383.00 34484174.00 L 18749455.00 34491718.00 L 18756343.00 34528782.00 L 18762247.00 34527470.00 L 18791111.00 34515990.00 L 18809807.00 34502214.00 L 18820303.00 34488438.00 L 18831127.00 34462526.00 L 18834407.00 34437926.00 L 18831783.00 34415950.00 L 18823583.01 34392006.00 L 18806855.01 34370030.00 L 18794063.01 34359862.00 L 18777007.01 34352646.00 L 18755359.01 34349038.00 L 18738303.01 34351662.00 L 18719279.01 34360190.00 L 18706487.01 34371998.00 L 18694351.01 34391022.00 L 18692383.01 34384462.00 L 18680903.01 34362158.00 L 18668111.01 34349038.00 L 18654991.01 34341822.00 L 18630391.01 34334934.00 L 18613335.01 34334606.00 L 18586111.01 34341494.00 L 18563479.01 34353958.00 L 18548391.01 34368718.00 A 111782.57 111782.57 0 0 0 18544783.00 34497622.00 A 102638.15 102638.15 0 0 0 18610711.00 34532390.00 L 18615631.00 34495326.00  z"/>
<path id="N" d="M 12917801.00 34884934.00 A 82880.62 82880.62 0 0 0 12973889.00 34847214.00 L 12981105.00 34830158.00 L 12984713.00 34808510.00 L 12982089.00 34791454.00 L 12973561.00 34772430.00 L 12961753.00 34759638.00 L 12942729.00 34747502.00 L 12949289.00 34745534.00 L 12971593.00 34734054.00 L 12984713.00 34721262.00 L 12991929.00 34708142.00 L 12998817.00 34683542.00 L 12999145.00 34666486.00 L 12992257.00 34639262.00 L 12979793.00 34616630.00 L 12965033.00 34601542.00 A 111782.57 111782.57 0 0 0 12836129.00 34597934.00 A 102638.15 102638.15 0 0 0 12801361.00 34663862.00 L 12838425.00 34668782.00 L 12839737.00 34663534.00 L 12849905.00 34635982.00 L 12860401.00 34622534.00 L 12870241.00 34616302.00 L 12889593.00 34610070.00 L 12906977.00 34610398.00 A 61724.79 61724.79 0 1 1 12874505.00 34727166.00 L 12879097.00 34759638.00 L 12880737.00 34759310.00 L 12898777.00 34760622.00 L 12920097.00 34767182.00 L 12933545.00 34776694.00 L 12943713.00 34792766.00 L 12946337.00 34804902.00 L 12945025.00 34821630.00 L 12937153.00 34838358.00 L 12926985.00 34847870.00 A 52653.23 52653.23 0 0 1 12849577.00 34827534.00 L 12842033.00 34802606.00 L 12804969.00 34809494.00 L 12811201.00 34830158.00 L 12823993.00 34853774.00 L 12838425.00 34868862.00 A 99444.92 99444.92 0 0 0 12917801.00 34884934.00  z"/>
<path id="N" d="M 21702591.98 35940998.99 L 21737031.98 35932389.00 L 21763681.99 35921319.00 L 21789101.99 35904919.00 L 21811651.99 35884009.00 L 21832561.99 35855309.00 L 21845681.99 35821689.00 L 21854291.99 35781919.00 L 21855111.99 35763879.00 L 21853061.99 35738869.00 L 21844451.99 35701149.00 L 21829282.00 35667939.00 L 21811242.00 35644569.00 L 21782132.00 35618329.00 L 21758762.00 35603979.00 L 21737032.00 35595779.00 L 21700542.00 35586348.99 L 21663642.00 35583068.99 L 21611162.00 35589218.99 L 21575082.00 35599468.99 L 21539002.00 35616688.99 L 21516862.00 35633908.99 L 21495542.00 35660558.98 L 21476271.99 35698278.98 L 21466431.99 35735588.98 L 21463971.99 35764288.98 L 21467251.99 35795448.98 L 21477501.99 35834398.98 L 21490211.99 35860638.98 L 21511941.99 35887698.99 L 21535721.99 35908608.99 L 21563601.99 35925008.99 L 21603371.98 35938128.99 L 21639861.98 35944278.99 L 21702591.98 35940998.99  zM 21648471.99 35893028.99 L 21606651.99 35886878.99 L 21579181.99 35877448.99 L 21567701.99 35870888.99 L 21542691.99 35851618.99 L 21526291.99 35831938.99 L 21513171.99 35802418.99 L 21507021.99 35771258.99 L 21508251.99 35750758.99 L 21516041.99 35718778.99 L 21526702.00 35695818.99 L 21544332.00 35672448.99 L 21559912.00 35660968.99 L 21589842.00 35646618.99 L 21622642.00 35638418.99 L 21666512.00 35634728.99 L 21696852.00 35637598.99 L 21730882.00 35646618.99 L 21757532.00 35659329.00 L 21773932.00 35671629.00 L 21792792.00 35696639.00 L 21806321.99 35725749.00 L 21812061.99 35753219.00 L 21811241.99 35777819.00 L 21803041.99 35811029.00 L 21786231.99 35842189.00 L 21772701.99 35856949.00 L 21756711.99 35868429.00 L 21728011.99 35881958.99 L 21697671.99 35890158.99 L 21648471.99 35893028.99  z"/>
<path id="N" d="M 18662862.97 32962442.00 L 18700992.97 32941532.00 L 18722722.97 32922672.00 L 18736662.97 32904222.00 L 18751012.97 32873062.00 L 18758392.98 32846412.00 L 18761262.98 32815252.00 L 18757982.98 32779992.00 L 18748142.98 32738992.00 L 18736252.98 32715212.00 L 18718212.98 32693892.00 L 18688692.98 32670112.00 L 18664092.98 32656992.00 L 18640722.98 32649611.99 L 18601772.98 32641001.99 L 18562412.98 32637721.99 L 18520182.98 32641821.99 L 18485742.98 32650021.99 L 18459502.98 32660681.99 L 18434902.98 32676671.99 L 18407842.98 32702911.98 L 18392672.98 32724641.98 L 18379552.98 32757851.98 L 18370942.98 32797621.98 L 18370122.98 32821401.98 L 18375452.97 32856661.98 L 18385702.97 32888641.98 L 18400462.97 32913241.98 A 165719.83 165719.83 0 0 0 18480412.97 32965721.99 L 18491482.97 32916521.99 L 18459092.97 32901351.99 L 18439412.97 32887001.99 L 18427112.97 32871011.99 L 18415632.98 32841081.99 L 18412762.98 32822221.99 L 18413992.98 32799671.99 L 18421782.98 32765641.99 L 18430392.98 32747601.99 L 18442692.98 32732021.99 L 18466472.98 32712341.99 L 18491892.98 32700451.99 L 18535762.98 32691021.99 L 18575122.98 32689791.99 L 18618992.98 32695121.99 A 125774.90 125774.90 0 0 1 18693612.98 32736532.00 L 18703862.98 32752112.00 L 18715752.98 32786552.00 L 18718622.98 32811152.00 L 18715752.98 32835752.00 L 18708372.97 32859122.00 L 18694432.97 32882492.00 L 18680492.97 32895202.00 L 18653842.97 32911602.00 L 18622272.97 32922261.99 L 18635802.97 32972281.99 L 18662862.97 32962442.00  z"/>
<path id="N" d="M 19451217.93 32515469.04 L 19479917.94 32506449.05 L 19512717.94 32486769.05 L 19528707.94 32470779.06 L 19543877.95 32445359.06 L 19557407.95 32408869.06 L 19511897.95 32396569.05 L 19506157.95 32412969.05 L 19490167.95 32442489.05 L 19476227.94 32455609.05 L 19450397.94 32469959.04 L 19422927.94 32476929.04 L 19390537.94 32478159.03 L 19353227.94 32471599.02 L 19334777.94 32463809.02 L 19308947.95 32446179.02 L 19290497.95 32423629.01 L 19279427.95 32402309.01 L 19269587.96 32368689.01 L 19265077.97 32326049.01 L 19267127.97 32296939.01 L 19276557.98 32255119.01 L 19283117.98 32239949.01 L 19302387.99 32214529.02 L 19320837.99 32198129.02 L 19345437.99 32185829.02 L 19376597.99 32177219.03 L 19403657.99 32174759.03 L 19433177.99 32177629.04 L 19466797.99 32187059.04 L 19492217.99 32199359.05 L 19513947.99 32213709.05 L 19513947.97 32284639.05 L 19402837.97 32284639.03 L 19402837.97 32329329.03 L 19563147.97 32329329.06 L 19562737.99 32188289.06 L 19559457.99 32185829.06 L 19515588.00 32157949.05 L 19486478.00 32144829.05 L 19449988.00 32134579.04 L 19406528.00 32130069.03 L 19379878.00 32132119.03 L 19340108.00 32140319.02 L 19304848.00 32154259.02 L 19284757.99 32167379.01 L 19256877.99 32192799.01 L 19235967.98 32223139.00 L 19224897.98 32252249.00 L 19215467.97 32293659.00 L 19213417.97 32324409.00 L 19215467.96 32350239.00 L 19223257.96 32390419.00 L 19236787.95 32426909.00 L 19253187.94 32453559.01 L 19280247.94 32482669.01 L 19302797.94 32498249.02 L 19338057.93 32511779.02 L 19381927.93 32520389.03 L 19451217.93 32515469.04  z"/>
<path id="N" d="M 16229333.00 38806580.00 L 16249013.00 38792640.00 L 16267463.00 38770910.00 L 16279763.00 38747130.00 L 16290833.00 38714330.00 L 16296573.00 38678660.00 L 16299443.00 38614700.00 L 16293703.00 38552380.00 A 168390.48 168390.48 0 0 0 16254343.00 38464230.00 L 16237123.00 38450290.00 L 16210473.00 38438400.00 L 16183823.00 38433480.00 L 16162503.00 38434300.00 L 16131343.00 38442500.00 L 16110023.00 38453980.00 L 16089933.00 38472430.00 L 16081733.00 38486370.00 L 16068203.00 38519170.00 L 16058773.00 38556890.00 L 16053443.00 38606500.00 L 16054673.00 38664310.00 L 16062053.00 38717200.00 L 16068203.00 38737700.00 L 16082553.00 38767220.00 L 16098133.00 38787720.00 L 16112483.00 38800020.00 A 117849.62 117849.62 0 0 0 16229333.00 38806580.00  zM 16164553.00 38779110.00 L 16144873.00 38771730.00 L 16128063.00 38758200.00 L 16119043.00 38742210.00 L 16110433.00 38715970.00 L 16102643.00 38672100.00 L 16101003.00 38610600.00 L 16105923.00 38554430.00 L 16112073.00 38524500.00 L 16122323.00 38501540.00 L 16137083.00 38486370.00 L 16154303.00 38476120.00 L 16170293.00 38471610.00 L 16187513.00 38472840.00 A 70401.68 70401.68 0 0 1 16235073.00 38511790.00 L 16244913.00 38545820.00 L 16249833.00 38579850.00 L 16251473.00 38640940.00 L 16246553.00 38697110.00 L 16237123.00 38735650.00 L 16229743.00 38749590.00 L 16214983.00 38765170.00 L 16192843.00 38777470.00 L 16164553.00 38779110.00  z"/>
<path id="N" d="M 14467537.00 37687558.00 L 14498041.00 37679686.00 L 14522969.00 37666238.00 L 14540025.00 37649510.00 L 14554129.00 37629174.00 L 14566265.00 37601294.00 L 14526905.00 37592110.00 L 14514769.00 37618350.00 L 14499681.00 37637374.00 L 14482297.00 37647870.00 L 14456713.00 37654758.00 L 14429489.00 37654102.00 L 14401281.00 37646230.00 L 14383241.00 37635406.00 L 14363561.00 37612446.00 L 14354377.00 37593422.00 L 14348801.00 37571446.00 L 14345193.00 37533726.00 L 14349785.00 37490430.00 L 14359625.00 37460582.00 L 14375697.00 37437622.00 L 14392097.00 37424174.00 L 14414073.00 37415318.00 A 93925.88 93925.88 0 0 1 14485905.00 37421222.00 L 14503617.00 37433686.00 L 14520345.00 37457302.00 L 14531497.00 37487806.00 L 14571513.00 37476982.00 L 14567577.00 37465502.00 L 14551177.00 37431062.00 L 14531825.00 37407446.00 L 14517065.00 37396294.00 L 14492137.00 37384814.00 L 14462945.00 37377598.00 L 14437689.00 37376942.00 L 14398329.00 37383174.00 L 14372089.00 37392686.00 L 14355689.00 37404494.00 A 148091.53 148091.53 0 0 0 14307473.00 37496990.00 A 200681.46 200681.46 0 0 0 14316001.00 37603918.00 L 14327153.00 37626550.00 L 14346505.00 37650494.00 L 14367169.00 37667550.00 L 14394721.00 37680342.00 L 14431785.00 37688870.00 L 14467537.00 37687558.00  z"/>
<path id="N" d="M 19274138.00 36480709.00 L 19312186.00 36474149.00 L 19340066.00 36463325.00 L 19363682.00 36446925.00 L 19385658.00 36424293.00 L 19397466.00 36403629.00 L 19408618.00 36367221.00 L 19411570.00 36339013.00 L 19409602.00 36318021.00 L 19401730.00 36287517.00 L 19388282.00 36262589.00 L 19371554.00 36245533.00 L 19351218.00 36231429.00 L 19323338.00 36219293.00 L 19314154.00 36258653.00 L 19340394.00 36270789.00 L 19359418.00 36285877.00 L 19369914.00 36303261.00 L 19376802.00 36328845.00 L 19376146.00 36356069.00 L 19368274.00 36384277.00 L 19357450.00 36402317.00 L 19334490.00 36421997.00 L 19315466.00 36431181.00 L 19293490.00 36436757.00 L 19255770.00 36440365.00 L 19212474.00 36435773.00 L 19182626.00 36425933.00 L 19159666.00 36409861.00 L 19146218.00 36393461.00 L 19137362.00 36371485.00 A 93925.88 93925.88 0 0 1 19143266.00 36299653.00 L 19155730.00 36281941.00 L 19179346.00 36265213.00 L 19209850.00 36254061.00 L 19199026.00 36214045.00 L 19165570.00 36227493.00 L 19140970.00 36243237.00 L 19121946.00 36262917.00 L 19109154.00 36287517.00 L 19100954.00 36314741.00 L 19098658.00 36344261.00 L 19103578.00 36380669.00 L 19111778.00 36407237.00 L 19124242.00 36426917.00 A 140968.12 140968.12 0 0 0 19200338.00 36473821.00 L 19241338.00 36481037.00 L 19274138.00 36480709.00  z"/>
<path id="N" d="M 13294491.99 36837169.00 L 13319091.99 36821425.00 L 13338115.99 36801745.00 L 13350907.99 36777145.00 L 13359107.99 36749921.00 L 13361403.99 36720401.00 L 13356484.00 36683993.00 L 13348284.00 36657425.00 L 13335820.00 36637745.00 A 140968.12 140968.12 0 0 0 13259724.00 36590841.00 L 13218724.00 36583624.99 L 13185924.00 36583952.99 L 13147876.00 36590512.99 L 13119996.00 36601336.99 L 13096380.00 36617736.99 L 13074404.00 36640368.99 L 13062596.00 36661032.99 L 13051443.99 36697440.99 L 13048491.99 36725648.99 L 13050459.99 36746640.99 L 13058331.99 36777144.99 L 13071779.99 36802072.99 L 13088507.99 36819128.99 L 13108843.99 36833232.99 L 13136723.99 36845368.99 L 13145907.99 36806008.99 L 13119667.99 36793872.99 L 13100643.99 36778784.99 L 13090147.99 36761400.99 L 13083259.99 36735816.99 L 13083915.99 36708592.99 L 13091788.00 36680384.99 L 13102612.00 36662344.99 L 13125572.00 36642664.99 L 13144596.00 36633480.99 L 13166572.00 36627904.99 L 13204292.00 36624296.99 L 13247588.00 36628889.00 L 13277436.00 36638729.00 L 13300396.00 36654801.00 L 13313844.00 36671201.00 L 13322700.00 36693177.00 A 93925.88 93925.88 0 0 1 13316795.99 36765009.00 L 13304331.99 36782721.00 L 13280715.99 36799449.00 L 13250211.99 36810601.00 L 13261035.99 36850617.00 L 13294491.99 36837169.00  z"/>
<path id="N" d="M 18420194.00 37861889.00 L 18458242.00 37855329.00 L 18486122.00 37844505.00 L 18509738.00 37828105.00 L 18531714.00 37805473.00 L 18543522.00 37784809.00 L 18554674.00 37748401.00 L 18557626.00 37720193.00 L 18555658.00 37699201.00 L 18547786.00 37668697.00 L 18534338.00 37643769.00 L 18517610.00 37626713.00 L 18497274.00 37612609.00 L 18469394.00 37600473.00 L 18460210.00 37639833.00 L 18486450.00 37651969.00 L 18505474.00 37667057.00 L 18515970.00 37684441.00 L 18522858.00 37710025.00 L 18522202.00 37737249.00 L 18514330.00 37765457.00 L 18503506.00 37783497.00 L 18480546.00 37803177.00 L 18461522.00 37812361.00 L 18439546.00 37817937.00 L 18401826.00 37821545.00 L 18358530.00 37816953.00 L 18328682.00 37807113.00 L 18305722.00 37791041.00 L 18292274.00 37774641.00 L 18283418.00 37752665.00 A 93925.88 93925.88 0 0 1 18289322.00 37680833.00 L 18301786.00 37663121.00 L 18325402.00 37646393.00 L 18355906.00 37635241.00 L 18345082.00 37595225.00 L 18311626.00 37608673.00 L 18287026.00 37624417.00 L 18268002.00 37644097.00 L 18255210.00 37668697.00 L 18247010.00 37695921.00 L 18244714.00 37725441.00 L 18249634.00 37761849.00 L 18257834.00 37788417.00 L 18270298.00 37808097.00 A 140968.12 140968.12 0 0 0 18346394.00 37855001.00 L 18387394.00 37862217.00 L 18420194.00 37861889.00  z"/>
<path id="N" d="M 16119177.00 37687558.00 L 16149681.00 37679686.00 L 16174609.00 37666238.00 L 16191665.00 37649510.00 L 16205769.00 37629174.00 L 16217905.00 37601294.00 L 16178545.00 37592110.00 L 16166409.00 37618350.00 L 16151321.00 37637374.00 L 16133937.00 37647870.00 L 16108353.00 37654758.00 L 16081129.00 37654102.00 L 16052921.00 37646230.00 L 16034881.00 37635406.00 L 16015201.00 37612446.00 L 16006017.00 37593422.00 L 16000441.00 37571446.00 L 15996833.00 37533726.00 L 16001425.00 37490430.00 L 16011265.00 37460582.00 L 16027337.00 37437622.00 L 16043737.00 37424174.00 L 16065713.00 37415318.00 A 93925.88 93925.88 0 0 1 16137545.00 37421222.00 L 16155257.00 37433686.00 L 16171985.00 37457302.00 L 16183137.00 37487806.00 L 16223153.00 37476982.00 L 16219217.00 37465502.00 L 16202817.00 37431062.00 L 16183465.00 37407446.00 L 16168705.00 37396294.00 L 16143777.00 37384814.00 L 16114585.00 37377598.00 L 16089329.00 37376942.00 L 16049969.00 37383174.00 L 16023729.00 37392686.00 L 16007329.00 37404494.00 A 148091.53 148091.53 0 0 0 15959113.00 37496990.00 A 200681.46 200681.46 0 0 0 15967641.00 37603918.00 L 15978793.00 37626550.00 L 15998145.00 37650494.00 L 16018809.00 37667550.00 L 16046361.00 37680342.00 L 16083425.00 37688870.00 L 16119177.00 37687558.00  z"/>
<path id="N" d="M 16842667.97 37492229.00 L 16884979.97 37485013.00 L 16909907.97 37474845.00 L 16934507.97 37458117.00 L 16947299.97 37441717.00 A 91022.34 91022.34 0 0 0 16953859.97 37365293.00 L 16942707.98 37342661.00 L 16926635.98 37325605.00 L 16898755.98 37312157.00 L 16860379.98 37301661.00 L 16820691.98 37297396.99 L 16767555.98 37299036.99 L 16725243.98 37305924.99 L 16700315.98 37316092.99 L 16675715.98 37333148.99 L 16665875.97 37344628.99 L 16654723.97 37368244.99 L 16651115.97 37389564.99 L 16652099.97 37409900.99 L 16657347.97 37430892.99 L 16664563.97 37444668.99 L 16682603.97 37464020.99 L 16701627.97 37475500.99 L 16734099.97 37487308.99 L 16775099.97 37493212.99 L 16842667.97 37492229.00  zM 16748203.97 37451884.99 L 16717371.97 37444340.99 L 16703923.97 37436796.99 L 16689491.97 37420396.99 L 16682603.97 37404324.99 L 16682275.97 37388908.99 A 52550.84 52550.84 0 0 1 16720651.97 37346268.99 L 16758043.98 37338068.99 L 16805603.98 37335116.99 L 16845619.98 37337413.00 L 16886291.97 37344301.00 L 16905643.97 37353157.00 L 16916795.97 37364309.00 L 16926635.97 37382021.00 L 16928931.97 37396453.00 L 16925979.97 37410557.00 L 16918435.97 37424333.00 L 16904331.97 37438437.00 L 16887931.97 37445653.00 L 16852179.97 37453525.00 L 16801995.97 37456148.99 L 16748203.97 37451884.99  z"/>
<path id="N" d="M 15639343.00 38768450.00 L 15488053.00 38768450.00 L 15468373.00 38667180.00 L 15489693.00 38678660.00 L 15518803.00 38688500.00 L 15539303.00 38690550.00 L 15568003.00 38686450.00 L 15595063.00 38676200.00 A 104029.79 104029.79 0 0 0 15645903.00 38619210.00 L 15653693.00 38595840.00 L 15656973.00 38565090.00 L 15651643.00 38530650.00 L 15640983.00 38501130.00 L 15626633.00 38478580.00 L 15606953.00 38460130.00 A 134255.65 134255.65 0 0 0 15484363.00 38440040.00 L 15456483.00 38452340.00 L 15440493.00 38464640.00 L 15423273.00 38487190.00 L 15411383.00 38513430.00 L 15406463.00 38538440.00 L 15455253.00 38541720.00 L 15463453.00 38513430.00 L 15473293.00 38496210.00 L 15483543.00 38485960.00 L 15508553.00 38474070.00 L 15527823.00 38471200.00 L 15547503.00 38474480.00 L 15565953.00 38481860.00 L 15584403.00 38496210.00 L 15596293.00 38514250.00 L 15605723.00 38541720.00 L 15607773.00 38563860.00 L 15604903.00 38586410.00 L 15595883.00 38611830.00 L 15584403.00 38627000.00 L 15569643.00 38638070.00 A 83459.45 83459.45 0 0 1 15458123.00 38612240.00 L 15414663.00 38618390.00 L 15451153.00 38812730.00 L 15639343.00 38812730.00 L 15639343.00 38768450.00  z"/>
<path id="N" d="M 14792257.00 37644918.00 L 14671225.00 37644918.00 L 14655153.00 37563574.00 L 14668601.00 37571446.00 L 14695825.00 37580958.00 L 14718785.00 37582270.00 L 14745681.00 37576038.00 L 14767985.00 37564230.00 L 14785369.00 37547502.00 L 14800129.00 37519950.00 L 14805049.00 37499614.00 L 14805705.00 37473702.00 L 14798489.00 37442870.00 L 14786681.00 37418926.00 L 14774217.00 37404822.00 L 14750273.00 37388094.00 A 101719.40 101719.40 0 0 0 14673849.00 37380550.00 L 14651545.00 37389078.00 L 14634489.00 37400558.00 L 14624649.00 37412038.00 L 14612185.00 37434998.00 L 14605953.00 37460910.00 L 14644985.00 37463862.00 L 14651545.00 37440902.00 L 14662041.00 37424174.00 A 61085.91 61085.91 0 0 1 14759457.00 37445166.00 L 14766345.00 37469110.00 L 14766017.00 37492070.00 L 14759457.00 37515686.00 L 14752241.00 37527494.00 A 64833.67 64833.67 0 0 1 14647281.00 37519950.00 L 14612513.00 37524870.00 L 14641705.00 37680342.00 L 14792257.00 37680342.00 L 14792257.00 37644918.00  z"/>
<path id="N" d="M 13888530.00 34149265.00 L 13865570.00 34142705.00 L 13848842.00 34132209.00 A 61085.91 61085.91 0 0 1 13869834.01 34034793.00 L 13893778.01 34027905.00 L 13916738.01 34028233.00 L 13940354.01 34034793.00 L 13952162.01 34042009.00 A 64833.67 64833.67 0 0 1 13944618.00 34146969.00 L 13949538.00 34181737.00 L 14105010.00 34152545.00 L 14105010.01 34001993.00 L 14069586.01 34001993.00 L 14069586.00 34123025.00 L 13988242.00 34139097.00 L 13996114.00 34125649.00 L 14005626.00 34098425.00 L 14006938.00 34075465.00 L 14000706.01 34048569.00 L 13988898.01 34026265.00 L 13972170.01 34008881.00 L 13944618.01 33994121.00 L 13924282.01 33989201.00 L 13898370.01 33988545.00 L 13867538.01 33995761.00 L 13843594.01 34007569.00 L 13829490.01 34020033.00 L 13812762.01 34043977.00 A 101719.40 101719.40 0 0 0 13805218.00 34120401.00 L 13813746.00 34142705.00 L 13825226.00 34159761.00 L 13836706.00 34169601.00 L 13859666.00 34182065.00 L 13885578.00 34188297.00 L 13888530.00 34149265.00  z"/>
<path id="N" d="M 20347742.93 38160680.18 L 20391202.94 38154530.19 L 20411292.94 38146740.19 L 20430972.94 38131570.20 L 20444092.94 38115170.20 L 20455162.95 38089750.20 L 20460082.95 38057770.20 L 20456802.96 38034400.20 L 20446142.96 38006520.20 L 20433842.96 37990120.20 L 20418672.97 37978230.19 L 20388742.97 37963880.19 L 20353892.97 37954860.18 L 20369472.97 37946250.19 L 20387102.97 37932720.19 L 20417442.98 37896640.19 L 20490423.00 37783070.21 L 20427693.00 37783070.20 L 20376852.99 37863430.19 L 20340772.98 37914680.18 L 20324782.97 37931900.18 L 20309202.97 37942970.18 L 20289522.97 37949940.17 L 20207522.97 37951170.16 L 20207523.00 37783070.16 L 20157503.00 37783070.15 L 20157502.93 38161500.15 L 20347742.93 38160680.18  zM 20207522.94 38119680.16 L 20207522.96 37994630.16 L 20320682.96 37994630.18 L 20352252.96 37997500.18 L 20371932.96 38002830.19 L 20389152.96 38013900.19 L 20398582.96 38024970.19 L 20406782.95 38045060.19 L 20408012.95 38064740.19 L 20400222.95 38088110.19 L 20387922.94 38102870.19 L 20369472.94 38112710.19 L 20342002.94 38118860.18 L 20207522.94 38119680.16  z"/>
<path id="N" d="M 19111778.00 36184525.00 L 19132770.00 36179277.00 L 19162290.00 36162221.00 L 19182626.00 36143853.00 L 19233466.00 36085797.00 L 19274794.01 36044141.00 L 19293818.01 36031677.00 L 19316122.01 36023477.00 L 19329570.01 36023149.00 L 19348922.01 36029709.00 L 19361386.01 36039221.00 L 19371554.01 36056277.00 L 19376474.00 36075957.00 L 19374506.00 36095965.00 L 19365650.00 36117285.00 L 19353514.00 36128765.00 L 19334490.00 36137293.00 L 19315794.00 36139917.00 L 19320386.00 36177965.00 L 19348922.00 36171077.00 L 19370570.00 36160581.00 L 19384674.00 36148445.00 L 19396154.00 36130077.00 A 117191.29 117191.29 0 0 0 19390906.01 36020525.00 L 19378770.01 36006421.00 L 19357778.01 35992973.00 L 19335802.01 35985757.00 L 19316450.01 35985101.00 L 19286930.01 35992317.00 L 19264298.01 36006093.00 L 19239698.01 36027413.00 L 19163602.00 36113021.00 L 19139330.00 36133685.00 L 19139330.01 35984445.00 L 19103578.01 35984445.00 L 19104234.00 36184853.00 L 19111778.00 36184525.00  z"/>
<path id="N" d="M 20762963.00 34334277.98 L 20762635.00 34326733.98 L 20757387.00 34305741.97 L 20740331.01 34276221.97 L 20721963.01 34255885.97 L 20663907.01 34205045.97 L 20622251.01 34163717.96 L 20609787.02 34144693.96 L 20601587.02 34122389.96 L 20601259.02 34108941.96 L 20607819.02 34089589.96 L 20617331.02 34077125.96 L 20634387.02 34066957.96 L 20654067.02 34062037.97 L 20674075.02 34064005.97 L 20695395.02 34072861.97 L 20706875.02 34084997.97 L 20715403.02 34104021.97 L 20718027.02 34122717.97 L 20756075.02 34118125.97 L 20749187.02 34089589.97 L 20738691.02 34067941.97 L 20726555.02 34053837.97 L 20708187.03 34042357.97 A 117191.29 117191.29 0 0 0 20598635.03 34047605.96 L 20584531.02 34059741.96 L 20571083.02 34080733.96 L 20563867.02 34102709.96 L 20563211.02 34122061.96 L 20570427.02 34151581.96 L 20584203.01 34174213.96 L 20605523.01 34198813.96 L 20691131.01 34274909.97 L 20711795.00 34299181.97 L 20562555.00 34299181.96 L 20562555.00 34334933.96 L 20762963.00 34334277.98  z"/>
<path id="N" d="M 15688957.00 32479030.00 L 15711917.00 32468534.00 L 15726021.00 32456398.00 L 15739469.00 32435406.00 L 15746685.00 32413430.00 L 15747341.00 32394078.00 L 15740125.00 32364558.00 L 15726349.00 32341926.00 L 15705029.00 32317326.00 L 15619421.00 32241230.00 L 15598757.00 32216958.00 L 15747997.00 32216958.00 L 15747997.00 32181206.00 L 15547589.00 32181862.00 L 15547917.00 32189406.00 L 15553165.00 32210398.00 L 15570221.00 32239918.00 L 15588589.00 32260254.00 L 15646645.00 32311094.00 L 15688301.00 32352422.00 L 15700765.00 32371446.00 L 15708965.00 32393750.00 L 15709293.00 32407198.00 L 15702733.00 32426550.00 L 15693221.00 32439014.00 L 15676165.00 32449182.00 L 15656485.00 32454102.00 L 15636477.00 32452134.00 L 15615157.00 32443278.00 L 15603677.00 32431142.00 L 15595149.00 32412118.00 L 15592525.00 32393422.00 L 15554477.00 32398014.00 L 15561365.00 32426550.00 L 15571861.00 32448198.00 L 15583997.00 32462302.00 L 15606957.00 32475750.00 L 15637461.00 32483950.00 L 15688957.00 32479030.00  z"/>
<path id="N" d="M 12652221.00 37781490.00 L 12675181.00 37770994.00 L 12689285.00 37758858.00 L 12702733.00 37737866.00 L 12709949.00 37715890.00 L 12710605.00 37696538.00 L 12703389.00 37667018.00 L 12689613.00 37644386.00 L 12668293.00 37619786.00 L 12582685.00 37543690.00 L 12562021.00 37519418.00 L 12711261.00 37519418.00 L 12711261.00 37483666.00 L 12510853.00 37484322.00 L 12511181.00 37491866.00 L 12516429.00 37512858.00 L 12533485.00 37542378.00 L 12551853.00 37562714.00 L 12609909.00 37613554.00 L 12651565.00 37654882.00 L 12664029.00 37673906.00 L 12672229.00 37696210.00 L 12672557.00 37709658.00 L 12665997.00 37729010.00 L 12656485.00 37741474.00 L 12639429.00 37751642.00 L 12619749.00 37756562.00 L 12599741.00 37754594.00 L 12578421.00 37745738.00 L 12566941.00 37733602.00 L 12558413.00 37714578.00 L 12555789.00 37695882.00 L 12517741.00 37700474.00 L 12524629.00 37729010.00 L 12535125.00 37750658.00 L 12547261.00 37764762.00 L 12570221.00 37778210.00 L 12600725.00 37786410.00 L 12652221.00 37781490.00  z"/>
<path id="N" d="M 14688629.00 34631490.00 L 14711589.00 34620994.00 L 14725693.00 34608858.00 L 14739141.00 34587866.00 L 14746357.00 34565890.00 L 14747013.00 34546538.00 L 14739797.00 34517018.00 L 14726021.00 34494386.00 L 14704701.00 34469786.00 L 14619093.00 34393690.00 L 14598429.00 34369418.00 L 14747669.00 34369418.00 L 14747669.00 34333666.00 L 14547261.00 34334322.00 L 14547589.00 34341866.00 L 14552837.00 34362858.00 L 14569893.00 34392378.00 L 14588261.00 34412714.00 L 14646317.00 34463554.00 L 14687973.00 34504882.00 L 14700437.00 34523906.00 L 14708637.00 34546210.00 L 14708965.00 34559658.00 L 14702405.00 34579010.00 L 14692893.00 34591474.00 L 14675837.00 34601642.00 L 14656157.00 34606562.00 L 14636149.00 34604594.00 L 14614829.00 34595738.00 L 14603349.00 34583602.00 L 14594821.00 34564578.00 L 14592197.00 34545882.00 L 14554149.00 34550474.00 L 14561037.00 34579010.00 L 14571533.00 34600658.00 L 14583669.00 34614762.00 L 14606629.00 34628210.00 L 14637133.00 34636410.00 L 14688629.00 34631490.00  z"/>
<path id="N" d="M 21047667.03 34032190.00 L 20899739.03 34032517.99 L 20860707.03 34037765.98 L 20844635.03 34043997.98 L 20828891.02 34056133.98 L 20817083.02 34071221.98 L 20807571.02 34097133.98 L 20805603.02 34118125.98 L 20810851.02 34142397.98 L 20819707.02 34160765.98 L 20832827.01 34174541.98 L 20856771.01 34187989.98 L 20890555.01 34197501.99 L 20870219.01 34209637.98 L 20845619.01 34236205.98 L 20781331.00 34334933.98 L 20831515.00 34334933.98 L 20871531.01 34271957.98 L 20902363.01 34228005.99 L 20921059.01 34209965.99 L 20942051.01 34201437.99 L 21007651.01 34200454.00 L 21007651.00 34334934.00 L 21047667.00 34334934.00 L 21047667.03 34032190.00  zM 21007651.01 34165686.00 L 20905971.01 34165029.99 L 20878091.02 34159781.99 L 20866283.02 34153221.98 L 20854803.02 34141413.98 L 20848243.02 34125341.98 L 20847259.02 34109597.98 L 20853491.02 34090901.98 L 20863003.02 34079421.98 L 20874811.02 34072533.98 L 20900067.02 34066301.99 L 21007651.02 34065646.00 L 21007651.01 34165686.00  z"/>
<path id="N" d="M 20481783.99 36372344.00 L 20418807.99 36332328.00 L 20374855.99 36301496.00 L 20356815.99 36282799.99 L 20348288.00 36261807.99 L 20347304.00 36196207.99 L 20481784.00 36196208.00 L 20481784.00 36156192.00 L 20179040.00 36156191.99 L 20179367.99 36304119.99 L 20184615.99 36343151.99 L 20190847.99 36359223.99 L 20202983.99 36374967.99 L 20218071.99 36386775.99 L 20243983.99 36396287.99 L 20264975.99 36398255.99 L 20289247.99 36393007.99 L 20307615.99 36384151.99 L 20321391.99 36371031.99 L 20334839.99 36347087.99 L 20344351.99 36313303.99 L 20356487.99 36333639.99 L 20383055.99 36358240.00 L 20481783.99 36422528.00 L 20481783.99 36372344.00  zM 20256447.99 36356599.99 L 20237751.99 36350367.99 L 20226271.99 36340855.99 L 20219383.99 36329047.99 L 20213151.99 36303791.99 L 20212496.00 36196207.99 L 20312536.00 36196207.99 L 20312535.99 36286735.99 L 20311223.99 36304775.99 L 20305975.99 36327735.99 L 20293183.99 36345447.99 L 20276783.99 36354303.99 L 20256447.99 36356599.99  z"/>
<path id="N" d="M 18833095.00 34674414.00 L 18827847.00 34635382.00 L 18821615.00 34619310.00 L 18809479.00 34603566.00 L 18794391.00 34591758.00 L 18768479.00 34582246.00 L 18747487.00 34580278.00 L 18723215.00 34585526.00 L 18704847.00 34594382.00 L 18691071.00 34607502.00 L 18677623.00 34631446.00 L 18668111.00 34665230.00 L 18655975.00 34644894.00 L 18629407.00 34620294.00 L 18530679.00 34556006.00 L 18530679.00 34606190.00 L 18593655.00 34646206.00 L 18637607.00 34677038.00 L 18655647.00 34695734.00 L 18664175.00 34716726.00 L 18665159.00 34782326.00 L 18530679.00 34782326.00 L 18530679.00 34822342.00 L 18833423.00 34822342.00 L 18833095.00 34674414.00  zM 18799967.00 34782326.00 L 18699927.00 34782326.00 L 18700583.00 34680646.00 L 18705831.00 34652766.00 L 18712391.00 34640958.00 L 18724199.00 34629478.00 L 18740271.00 34622918.00 L 18756015.00 34621934.00 L 18774711.00 34628166.00 L 18786191.00 34637678.00 L 18794391.00 34652766.00 L 18799967.00 34680318.00 L 18799967.00 34782326.00  z"/>
<path id="N" d="M 17504515.99 35454861.00 L 17441539.99 35414845.00 L 17397587.99 35384013.00 L 17379547.99 35365316.99 L 17371020.00 35344324.99 L 17370036.00 35278724.99 L 17504516.00 35278725.00 L 17504516.00 35238709.00 L 17201772.00 35238708.99 L 17202099.99 35386636.99 L 17207347.99 35425668.99 L 17213579.99 35441740.99 L 17225715.99 35457484.99 L 17240803.99 35469292.99 L 17266715.99 35478804.99 L 17287707.99 35480772.99 L 17311979.99 35475524.99 L 17330347.99 35466668.99 L 17344123.99 35453548.99 L 17357571.99 35429604.99 L 17367083.99 35395820.99 L 17379219.99 35416156.99 L 17405787.99 35440757.00 L 17504515.99 35505045.00 L 17504515.99 35454861.00  zM 17279179.99 35439116.99 L 17260483.99 35432884.99 L 17249003.99 35423372.99 L 17242115.99 35411564.99 L 17235883.99 35386308.99 L 17235228.00 35278724.99 L 17335268.00 35278724.99 L 17335267.99 35369252.99 L 17333955.99 35387292.99 L 17328707.99 35410252.99 L 17315915.99 35427964.99 L 17299515.99 35436820.99 L 17279179.99 35439116.99  z"/>
<path id="N" d="M 14106483.99 36955681.00 L 14043507.99 36915665.00 L 13999555.99 36884833.00 L 13981515.99 36866136.99 L 13972988.00 36845144.99 L 13972004.00 36779544.99 L 14106484.00 36779545.00 L 14106484.00 36739529.00 L 13803740.00 36739528.99 L 13804067.99 36887456.99 L 13809315.99 36926488.99 L 13815547.99 36942560.99 L 13827683.99 36958304.99 L 13842771.99 36970112.99 L 13868683.99 36979624.99 L 13889675.99 36981592.99 L 13913947.99 36976344.99 L 13932315.99 36967488.99 L 13946091.99 36954368.99 L 13959539.99 36930424.99 L 13969051.99 36896640.99 L 13981187.99 36916976.99 L 14007755.99 36941577.00 L 14106483.99 37005865.00 L 14106483.99 36955681.00  zM 13881147.99 36939936.99 L 13862451.99 36933704.99 L 13850971.99 36924192.99 L 13844083.99 36912384.99 L 13837851.99 36887128.99 L 13837196.00 36779544.99 L 13937236.00 36779544.99 L 13937235.99 36870072.99 L 13935923.99 36888112.99 L 13930675.99 36911072.99 L 13917883.99 36928784.99 L 13901483.99 36937640.99 L 13881147.99 36939936.99  z"/>
<path id="N" d="M 16259009.00 33836082.00 L 16298041.00 33830834.00 L 16314113.00 33824602.00 L 16329857.00 33812466.00 L 16341665.00 33797378.00 L 16351177.00 33771466.00 L 16353145.00 33750474.00 L 16347897.00 33726202.00 L 16339041.00 33707834.00 L 16325921.00 33694058.00 L 16301977.00 33680610.00 L 16268193.00 33671098.00 L 16288529.00 33658962.00 L 16313129.00 33632394.00 L 16377417.00 33533666.00 L 16327233.00 33533666.00 L 16287217.00 33596642.00 L 16256385.00 33640594.00 L 16237689.00 33658634.00 L 16216697.00 33667162.00 L 16151097.00 33668146.00 L 16151097.00 33533666.00 L 16111081.00 33533666.00 L 16111081.00 33836410.00 L 16259009.00 33836082.00  zM 16151097.00 33802954.00 L 16151097.00 33702914.00 L 16252777.00 33703570.00 L 16280657.00 33708818.00 L 16292465.00 33715378.00 L 16303945.00 33727186.00 L 16310505.00 33743258.00 L 16311489.00 33759002.00 L 16305257.00 33777698.00 L 16295745.00 33789178.00 L 16283937.00 33796066.00 L 16258681.00 33802298.00 L 16151097.00 33802954.00  z"/>
<path id="N" d="M 17655666.00 33649981.00 L 17650418.00 33610949.00 L 17644186.00 33594877.00 L 17632050.00 33579133.00 L 17616962.00 33567325.00 L 17591050.00 33557813.00 L 17570058.00 33555845.00 L 17545786.00 33561093.00 L 17527418.00 33569949.00 L 17513642.00 33583069.00 L 17500194.00 33607013.00 L 17490682.00 33640797.00 L 17478546.00 33620461.00 L 17451978.00 33595861.00 L 17353250.00 33531573.00 L 17353250.00 33581757.00 L 17416226.00 33621773.00 L 17460178.00 33652605.00 L 17478218.00 33671301.00 L 17486746.00 33692293.00 L 17487730.00 33757893.00 L 17353250.00 33757893.00 L 17353250.00 33797909.00 L 17655994.00 33797909.00 L 17655666.00 33649981.00  zM 17622538.00 33757893.00 L 17522498.00 33757893.00 L 17523154.00 33656213.00 L 17528402.00 33628333.00 L 17534962.00 33616525.00 L 17546770.00 33605045.00 L 17562842.00 33598485.00 L 17578586.00 33597501.00 L 17597282.00 33603733.00 L 17608762.00 33613245.00 L 17616962.00 33628333.00 L 17622538.00 33655885.00 L 17622538.00 33757893.00  z"/>
<path id="N" d="M 15261831.00 34236082.00 L 15300863.00 34230834.00 L 15316935.00 34224602.00 L 15332679.00 34212466.00 L 15344487.00 34197378.00 L 15353999.00 34171466.00 L 15355967.00 34150474.00 L 15350719.00 34126202.00 L 15341863.00 34107834.00 L 15328743.00 34094058.00 L 15304799.00 34080610.00 L 15271015.00 34071098.00 L 15291351.00 34058962.00 L 15315951.00 34032394.00 L 15380239.00 33933666.00 L 15330055.00 33933666.00 L 15290039.00 33996642.00 L 15259207.00 34040594.00 L 15240511.00 34058634.00 L 15219519.00 34067162.00 L 15153919.00 34068146.00 L 15153919.00 33933666.00 L 15113903.00 33933666.00 L 15113903.00 34236410.00 L 15261831.00 34236082.00  zM 15153919.00 34202954.00 L 15153919.00 34102914.00 L 15255599.00 34103570.00 L 15283479.00 34108818.00 L 15295287.00 34115378.00 L 15306767.00 34127186.00 L 15313327.00 34143258.00 L 15314311.00 34159002.00 L 15308079.00 34177698.00 L 15298567.00 34189178.00 L 15286759.00 34196066.00 L 15261503.00 34202298.00 L 15153919.00 34202954.00  z"/>
<path id="N" d="M 14108618.00 34330321.00 L 14103370.00 34291289.00 L 14097138.00 34275217.00 L 14085002.00 34259473.00 L 14069914.00 34247665.00 L 14044002.00 34238153.00 L 14023010.00 34236185.00 L 13998738.00 34241433.00 L 13980370.00 34250289.00 L 13966594.00 34263409.00 L 13953146.00 34287353.00 L 13943634.00 34321137.00 L 13931498.00 34300801.00 L 13904930.00 34276201.00 L 13806202.00 34211913.00 L 13806202.00 34262097.00 L 13869178.00 34302113.00 L 13913130.00 34332945.00 L 13931170.00 34351641.00 L 13939698.00 34372633.00 L 13940682.00 34438233.00 L 13806202.00 34438233.00 L 13806202.00 34478249.00 L 14108946.00 34478249.00 L 14108618.00 34330321.00  zM 14075490.00 34438233.00 L 13975450.00 34438233.00 L 13976106.00 34336553.00 L 13981354.00 34308673.00 L 13987914.00 34296865.00 L 13999722.00 34285385.00 L 14015794.00 34278825.00 L 14031538.00 34277841.00 L 14050234.00 34284073.00 L 14061714.00 34293585.00 L 14069914.00 34308673.00 L 14075490.00 34336225.00 L 14075490.00 34438233.00  z"/>
<path id="N" d="M 16954515.99 36988093.00 L 16891539.99 36948077.00 L 16847587.99 36917245.00 L 16829547.99 36898548.99 L 16821020.00 36877556.99 L 16820036.00 36811956.99 L 16954516.00 36811957.00 L 16954516.00 36771941.00 L 16651772.00 36771940.99 L 16652099.99 36919868.99 L 16657347.99 36958900.99 L 16663579.99 36974972.99 L 16675715.99 36990716.99 L 16690803.99 37002524.99 L 16716715.99 37012036.99 L 16737707.99 37014004.99 L 16761979.99 37008756.99 L 16780347.99 36999900.99 L 16794123.99 36986780.99 L 16807571.99 36962836.99 L 16817083.99 36929052.99 L 16829219.99 36949388.99 L 16855787.99 36973989.00 L 16954515.99 37038277.00 L 16954515.99 36988093.00  zM 16729179.99 36972348.99 L 16710483.99 36966116.99 L 16699003.99 36956604.99 L 16692115.99 36944796.99 L 16685883.99 36919540.99 L 16685228.00 36811956.99 L 16785268.00 36811956.99 L 16785267.99 36902484.99 L 16783955.99 36920524.99 L 16778707.99 36943484.99 L 16765915.99 36961196.99 L 16749515.99 36970052.99 L 16729179.99 36972348.99  z"/>
<path id="N" d="M 20195777.93 32512189.17 L 20224477.94 32506449.18 L 20253177.94 32494559.18 L 20271627.94 32481849.19 A 172680.48 172680.48 0 0 0 20320007.95 32406409.19 L 20329027.96 32362539.20 L 20331487.97 32326869.20 L 20329027.97 32289559.20 L 20321237.98 32250199.19 L 20306067.99 32213299.19 L 20289667.99 32188289.19 L 20267937.99 32166559.18 L 20248258.00 32154259.18 L 20215458.00 32142369.18 L 20178968.00 32137039.17 L 20018658.00 32136219.14 L 20018657.93 32514649.14 L 20195777.93 32512189.17  zM 20068677.94 32469959.15 L 20068677.99 32180909.15 L 20155597.99 32180909.16 L 20180197.99 32182549.17 L 20211767.99 32188699.17 L 20237187.99 32202639.18 L 20248257.99 32214529.18 L 20260967.98 32235029.18 L 20271217.98 32260449.18 L 20278187.97 32298579.19 L 20279417.96 32342859.19 L 20271627.96 32391649.19 L 20260147.95 32419119.18 L 20240057.95 32443719.18 L 20222837.94 32457249.18 L 20210537.94 32462989.17 L 20176917.94 32468729.17 L 20068677.94 32469959.15  z"/>
<path id="N" d="M 17102174.97 32562441.99 L 17141534.97 32554652.00 L 17178434.97 32539482.00 L 17203444.97 32523082.00 L 17225174.97 32501352.00 L 17237474.97 32481672.00 L 17249364.98 32448872.00 L 17254694.98 32412382.00 L 17255514.98 32252072.00 L 16877084.98 32252071.98 L 16877084.98 32393111.98 L 16879544.98 32429191.98 L 16885284.97 32457891.98 L 16897174.97 32486591.98 L 16909884.97 32505041.98 L 16932024.97 32525541.99 L 16960724.97 32543581.99 L 16989834.97 32554651.99 L 17037394.97 32563671.99 L 17102174.97 32562441.99  zM 17048874.97 32512831.99 L 17000084.97 32505041.99 L 16972614.97 32493561.99 L 16948014.97 32473471.99 L 16934484.97 32456251.99 L 16928744.98 32443951.99 L 16923004.98 32410331.99 L 16921774.98 32302091.99 L 17210824.98 32302092.00 L 17210824.98 32389012.00 L 17209184.98 32413612.00 L 17203854.98 32442312.00 L 17196474.97 32459122.00 L 17183764.97 32476342.00 L 17164904.97 32489872.00 L 17136614.97 32502991.99 L 17105454.97 32509961.99 L 17048874.97 32512831.99  z"/>
<path id="N" d="M 21736211.97 36304669.00 L 21773111.97 36297289.00 L 21791561.97 36289089.00 L 21816981.97 36269819.00 L 21834611.97 36247679.00 L 21846501.97 36218569.00 L 21853061.97 36188229.00 L 21854701.98 36146409.00 L 21847321.98 36100489.00 L 21836251.98 36070969.00 L 21816161.98 36045959.00 L 21796481.98 36030789.00 L 21783771.98 36024639.00 L 21752611.98 36016029.00 L 21710381.98 36011108.99 L 21470531.98 36010288.98 L 21470531.98 36060308.98 L 21689471.98 36060308.99 L 21716531.98 36061538.99 L 21751791.98 36066459.00 A 72741.64 72741.64 0 0 1 21797711.98 36100489.00 L 21802631.98 36112379.00 L 21809601.98 36143949.00 L 21809601.97 36164449.00 L 21803861.97 36198889.00 L 21796481.97 36218159.00 L 21785001.97 36234149.00 L 21773521.97 36241529.00 L 21750561.97 36250549.00 L 21713661.97 36257108.99 L 21470531.97 36257928.98 L 21470531.97 36307948.98 L 21736211.97 36304669.00  z"/>
<path id="N" d="M 11809993.00 35583622.00 L 11849353.00 35579030.00 L 11877561.00 35567878.00 L 11898225.00 35552134.00 L 11917577.00 35527206.00 L 11930041.00 35500310.00 L 11938241.00 35462262.00 L 11939881.00 35421590.00 L 11934633.00 35383214.00 L 11926433.00 35357302.00 L 11911345.00 35328438.00 L 11894617.00 35309742.00 L 11873625.00 35295638.00 L 11847057.00 35286126.00 L 11818193.00 35281862.00 L 11689945.00 35281206.00 L 11689945.00 35583950.00 L 11809993.00 35583622.00  zM 11729961.00 35548198.00 L 11729961.00 35316958.00 L 11805073.00 35317286.00 L 11841809.00 35322206.00 L 11860177.00 35331062.00 L 11873625.00 35343854.00 L 11887401.00 35367798.00 L 11894945.00 35392726.00 L 11898881.00 35435366.00 L 11894945.00 35473414.00 L 11888385.00 35497030.00 L 11878873.00 35513758.00 L 11860505.00 35532782.00 L 11843449.00 35542622.00 L 11816553.00 35547214.00 L 11729961.00 35548198.00  z"/>
<path id="N" d="M 12630801.00 34886246.00 L 12670161.00 34881654.00 L 12698369.00 34870502.00 L 12719033.00 34854758.00 L 12738385.00 34829830.00 L 12750849.00 34802934.00 L 12759049.00 34764886.00 L 12760689.00 34724214.00 L 12755441.00 34685838.00 L 12747241.00 34659926.00 L 12732153.00 34631062.00 L 12715425.00 34612366.00 L 12694433.00 34598262.00 L 12667865.00 34588750.00 L 12639001.00 34584486.00 L 12510753.00 34583830.00 L 12510753.00 34886574.00 L 12630801.00 34886246.00  zM 12550769.00 34850822.00 L 12550769.00 34619582.00 L 12625881.00 34619910.00 L 12662617.00 34624830.00 L 12680985.00 34633686.00 L 12694433.00 34646478.00 L 12708209.00 34670422.00 L 12715753.00 34695350.00 L 12719689.00 34737990.00 L 12715753.00 34776038.00 L 12709193.00 34799654.00 L 12699681.00 34816382.00 L 12681313.00 34835406.00 L 12664257.00 34845246.00 L 12637361.00 34849838.00 L 12550769.00 34850822.00  z"/>
<path id="N" d="M 15382277.00 32483622.00 L 15421637.00 32479030.00 L 15449845.00 32467878.00 L 15470509.00 32452134.00 L 15489861.00 32427206.00 L 15502325.00 32400310.00 L 15510525.00 32362262.00 L 15512165.00 32321590.00 L 15506917.00 32283214.00 L 15498717.00 32257302.00 L 15483629.00 32228438.00 L 15466901.00 32209742.00 L 15445909.00 32195638.00 L 15419341.00 32186126.00 L 15390477.00 32181862.00 L 15262229.00 32181206.00 L 15262229.00 32483950.00 L 15382277.00 32483622.00  zM 15302245.00 32448198.00 L 15302245.00 32216958.00 L 15377357.00 32217286.00 L 15414093.00 32222206.00 L 15432461.00 32231062.00 L 15445909.00 32243854.00 L 15459685.00 32267798.00 L 15467229.00 32292726.00 L 15471165.00 32335366.00 L 15467229.00 32373414.00 L 15460669.00 32397030.00 L 15451157.00 32413758.00 L 15432789.00 32432782.00 L 15415733.00 32442622.00 L 15388837.00 32447214.00 L 15302245.00 32448198.00  z"/>
<path id="N" d="M 19505192.93 38157810.03 L 19536762.94 38147970.04 L 19555212.94 38137310.04 L 19572842.94 38118860.05 L 19582272.94 38103280.05 L 19590472.95 38080320.05 L 19594162.95 38051210.05 L 19590472.96 38023330.05 L 19581042.96 37997090.05 L 19568742.97 37976590.05 L 19557262.97 37964700.04 L 19530612.97 37950350.04 L 19503552.97 37942150.03 L 19466652.97 37937230.03 L 19355132.97 37936820.01 L 19355133.00 37783070.01 L 19305113.00 37783070.00 L 19305112.93 38161500.00 L 19505192.93 38157810.03  zM 19355132.94 38116810.01 L 19355132.97 37981510.01 L 19457222.97 37981510.03 L 19491252.96 37986020.03 L 19512982.96 37993810.04 L 19524052.96 38001600.04 A 75442.82 75442.82 0 0 1 19528152.95 38093850.04 L 19511752.94 38107380.04 L 19498222.94 38113120.03 L 19477722.94 38115990.03 L 19355132.94 38116810.01  z"/>
<path id="N" d="M 14500685.00 34460930.00 L 14496421.00 34411730.00 A 91476.99 91476.99 0 0 0 14441973.00 34340226.00 L 14411797.00 34331370.00 L 14378013.00 34328746.00 L 14334717.00 34334978.00 L 14312413.00 34343178.00 L 14291093.00 34359906.00 L 14278957.00 34375650.00 L 14270429.00 34396970.00 L 14263541.00 34436658.00 L 14262557.00 34636410.00 L 14302573.00 34636410.00 L 14302573.00 34461258.00 L 14304213.00 34430098.00 L 14309789.00 34403202.00 L 14323237.00 34383522.00 L 14339637.00 34372370.00 L 14369485.00 34365154.00 L 14389493.00 34365482.00 L 14418685.00 34371386.00 L 14437709.00 34381226.00 L 14445909.00 34391066.00 L 14454765.00 34412386.00 L 14460013.00 34441906.00 L 14460669.00 34636410.00 L 14500685.00 34636410.00 L 14500685.00 34460930.00  z"/>
<path id="N" d="M 12465589.00 37579770.00 L 12461653.00 37539098.00 L 12455093.00 37519090.00 L 12440005.00 37499082.00 L 12426557.00 37489570.00 L 12406877.00 37482026.00 A 103427.84 103427.84 0 0 0 12332421.00 37490882.00 L 12317989.00 37502362.00 L 12310445.00 37514498.00 L 12301589.00 37539754.00 L 12298965.00 37569274.00 L 12335045.00 37574194.00 L 12336029.00 37562714.00 L 12342261.00 37536146.00 L 12350133.00 37524994.00 L 12366533.00 37516466.00 L 12382605.00 37514498.00 L 12401629.00 37519090.00 L 12412125.00 37526306.00 L 12421637.00 37540738.00 L 12424917.00 37561074.00 L 12425573.00 37786410.00 L 12465589.00 37786410.00 L 12465589.00 37579770.00  z"/>
<path id="N" d="M 12593305.00 33640400.00 L 12589369.00 33599728.00 L 12582809.00 33579720.00 L 12567721.00 33559712.00 L 12554273.00 33550200.00 L 12534593.00 33542656.00 A 103427.84 103427.84 0 0 0 12460137.00 33551512.00 L 12445705.00 33562992.00 L 12438161.00 33575128.00 L 12429305.00 33600384.00 L 12426681.00 33629904.00 L 12462761.00 33634824.00 L 12463745.00 33623344.00 L 12469977.00 33596776.00 L 12477849.00 33585624.00 L 12494249.00 33577096.00 L 12510321.00 33575128.00 L 12529345.00 33579720.00 L 12539841.00 33586936.00 L 12549353.00 33601368.00 L 12552633.00 33621704.00 L 12553289.00 33847040.00 L 12593305.00 33847040.00 L 12593305.00 33640400.00  z"/>
<path id="N" d="M 10992223.00 39625429.00 L 11000149.00 39606295.00 L 10992223.00 39587161.00 L 10973089.00 39579235.00 L 9279024.00 39579235.00 L 9279024.00 36129425.00 L 10973095.00 36129425.00 L 10992229.00 36121499.00 L 11000155.00 36102365.00 L 10992229.00 36083231.00 L 10973095.00 36075305.00 L 9251964.00 36075305.00 L 9232830.00 36083231.00 L 9224904.00 36102365.00 L 9224904.00 39606295.00 L 9232830.00 39625429.00 L 9251964.00 39633355.00 L 10973089.00 39633355.00 L 10992223.00 39625429.00  z"/>
<path id="N" d="M 10992223.00 34782909.00 L 11000149.00 34763775.00 L 10992223.00 34744641.00 L 10973089.00 34736715.00 L 9279024.00 34736715.00 L 9279024.00 31286905.00 L 10973095.00 31286905.00 L 10992229.00 31278979.00 L 11000155.00 31259845.00 L 10992229.00 31240711.00 L 10973095.00 31232785.00 L 9251964.00 31232785.00 L 9232830.00 31240711.00 L 9224904.00 31259845.00 L 9224904.00 34763775.00 L 9232830.00 34782909.00 L 9251964.00 34790835.00 L 10973089.00 34790835.00 L 10992223.00 34782909.00  z"/>
<path id="N" d="M 20006623.00 37783070.12 L 19957833.00 37783070.11 L 19866812.94 38113940.10 L 19775383.00 37783070.08 L 19723313.00 37783070.07 L 19623682.93 38161500.06 L 19675342.93 38161500.06 L 19732332.98 37912630.07 L 19748322.99 37836780.08 L 19755702.99 37867120.08 L 19837702.93 38161500.09 L 19897972.93 38161500.10 L 19963162.97 37926160.12 L 19981612.99 37836370.12 L 20059922.93 38161500.13 L 20110352.93 38161500.14 L 20006623.00 37783070.12  z"/>
<path id="N" d="M 14518689.47 36231202.47 m -100354.75 0 a 100354.75 100354.75 0 1 1 200709.51 0a 100354.75 100354.75 0 1 1 -200709.51 0"/>
<path id="N" d="M 15737949.00 36203755.00 L 15750430.00 36173622.00 L 15750430.00 34992520.00 L 15737949.00 34962387.00 L 15707816.00 34949906.00 L 15000836.00 34949906.00 L 14970703.00 34962387.00 L 14958222.00 34992520.00 L 14958222.00 36173622.00 L 14970703.00 36203755.00 L 15000836.00 36216236.00 L 15707816.00 36216236.00 L 15737949.00 36203755.00  zM 15665202.00 36131008.00 L 15043450.00 36131008.00 L 15043450.00 35035134.00 L 15665202.00 35035134.00 L 15665202.00 36131008.00  z"/>
<path id="N" d="M 12125429.00 34782909.00 L 12133355.00 34763775.00 L 12133355.00 34230330.00 L 12125429.00 34211196.00 L 12106295.00 34203270.00 L 12087161.00 34211196.00 L 12079235.00 34230330.00 L 12079235.00 34736715.00 L 11428477.00 34736715.00 L 11409343.00 34744641.00 L 11401417.00 34763775.00 L 11409343.00 34782909.00 L 11428477.00 34790835.00 L 12106295.00 34790835.00 L 12125429.00 34782909.00  z"/>
<path id="N" d="M 12125429.00 39625429.00 L 12133355.00 39606295.00 L 12133355.00 39072850.00 L 12125429.00 39053716.00 L 12106295.00 39045790.00 L 12087161.00 39053716.00 L 12079235.00 39072850.00 L 12079235.00 39579235.00 L 11428477.00 39579235.00 L 11409343.00 39587161.00 L 11401417.00 39606295.00 L 11409343.00 39625429.00 L 11428477.00 39633355.00 L 12106295.00 39633355.00 L 12125429.00 39625429.00  z"/>
<path id="N" d="M 12125429.00 37296592.00 L 12133355.00 37277458.00 L 12133355.00 36102365.00 L 12125429.00 36083231.00 L 12106295.00 36075305.00 L 11428471.00 36075305.00 L 11409337.00 36083231.00 L 11401411.00 36102365.00 L 11409337.00 36121499.00 L 11428471.00 36129425.00 L 12079235.00 36129425.00 L 12079235.00 37277458.00 L 12087161.00 37296592.00 L 12106295.00 37304518.00 L 12125429.00 37296592.00  z"/>
<path id="N" d="M 12125429.00 32454072.00 L 12133355.00 32434938.00 L 12133355.00 31259845.00 L 12125429.00 31240711.00 L 12106295.00 31232785.00 L 11428471.00 31232785.00 L 11409337.00 31240711.00 L 11401411.00 31259845.00 L 11409337.00 31278979.00 L 11428471.00 31286905.00 L 12079235.00 31286905.00 L 12079235.00 32434938.00 L 12087161.00 32454072.00 L 12106295.00 32461998.00 L 12125429.00 32454072.00  z"/>
<path id="N" d="M 12639183.00 35417927.00 L 12651664.00 35387794.00 L 12651664.00 35331983.00 L 12894483.00 35331983.00 L 12924616.00 35319502.00 L 12937097.00 35289369.00 L 12924616.00 35259236.00 L 12894483.00 35246755.00 L 12609050.00 35246755.00 L 12578917.00 35259236.00 L 12566436.00 35289369.00 L 12566436.00 35387794.00 L 12578917.00 35417927.00 L 12609050.00 35430408.00 L 12639183.00 35417927.00  z"/>
<path id="N" d="M 16413721.00 37488134.00 L 16454721.00 37488134.00 L 16454721.00 37454022.00 L 16413721.00 37454022.00 L 16413721.00 37381534.00 L 16376657.00 37381534.00 L 16376657.00 37454022.00 L 16244801.00 37454022.00 L 16244801.00 37488134.00 L 16383217.00 37684278.00 L 16413721.00 37684278.00 L 16413721.00 37488134.00  zM 16376657.00 37624582.00 L 16281209.00 37488134.00 L 16376657.00 37488134.00 L 16376657.00 37624582.00  z"/>
<path id="N" d="M 14033995.98 37185609.00 L 14106483.98 37185609.00 L 14106483.98 37148545.00 L 14033995.98 37148545.00 L 14033995.99 37016689.00 L 13999883.99 37016689.00 L 13803739.98 37155104.99 L 13803739.98 37185608.99 L 13999883.98 37185609.00 L 13999883.98 37226609.00 L 14033995.98 37226609.00 L 14033995.98 37185609.00  zM 13999883.98 37148545.00 L 13863435.98 37148544.99 L 13999883.99 37053097.00 L 13999883.98 37148545.00  z"/>
<path id="N" d="M 12924616.00 36106904.00 L 12937097.00 36076771.00 L 12924616.00 36046638.00 L 12894483.00 36034157.00 L 12651664.00 36034157.00 L 12651664.00 35978345.00 L 12639183.00 35948212.00 L 12609050.00 35935731.00 L 12578917.00 35948212.00 L 12566436.00 35978345.00 L 12566436.00 36076771.00 L 12578917.00 36106904.00 L 12609050.00 36119385.00 L 12894483.00 36119385.00 L 12924616.00 36106904.00  z"/>
<path id="N" d="M 15831309.00 32817928.00 L 15843790.00 32787795.00 L 15843790.00 32689369.00 L 15831309.00 32659236.00 L 15801176.00 32646755.00 L 15515743.00 32646755.00 L 15485610.00 32659236.00 L 15473129.00 32689369.00 L 15485610.00 32719502.00 L 15515743.00 32731983.00 L 15758562.00 32731983.00 L 15758562.00 32787795.00 L 15771043.00 32817928.00 L 15801176.00 32830409.00 L 15831309.00 32817928.00  z"/>
<path id="N" d="M 15831309.00 33506904.00 L 15843790.00 33476771.00 L 15843790.00 33378346.00 L 15831309.00 33348213.00 L 15801176.00 33335732.00 L 15771043.00 33348213.00 L 15758562.00 33378346.00 L 15758562.00 33434157.00 L 15515743.00 33434157.00 L 15485610.00 33446638.00 L 15473129.00 33476771.00 L 15485610.00 33506904.00 L 15515743.00 33519385.00 L 15801176.00 33519385.00 L 15831309.00 33506904.00  z"/>
<path id="N" d="M 17255514.96 32889622.00 L 17141124.96 32845751.99 L 17141124.96 32686671.99 L 17255514.97 32645672.00 L 17255514.97 32592782.00 L 16877084.96 32737511.98 L 16877084.96 32791631.98 L 17255514.95 32946612.00 L 17255514.96 32889622.00  zM 17100534.96 32830171.99 L 16995164.96 32790401.99 L 16916854.96 32763341.99 L 16975894.96 32747351.99 L 17100534.96 32701021.99 L 17100534.96 32830171.99  z"/>
<path id="N" d="M 20481783.98 36548808.00 L 20245951.98 36548151.99 L 20247591.98 36546511.99 L 20270879.98 36513055.99 L 20289903.99 36474351.99 L 20254151.99 36474351.99 L 20251527.99 36479599.99 L 20226271.98 36519943.99 L 20199703.98 36547167.99 L 20178055.98 36561927.99 L 20178055.98 36585871.99 L 20481783.98 36585872.00 L 20481783.98 36548808.00  z"/>
<path id="N" d="M 12120281.00 35281206.00 L 12083217.00 35281206.00 L 12082561.00 35517038.00 L 12080921.00 35515398.00 L 12047465.00 35492110.00 L 12008761.00 35473086.00 L 12008761.00 35508838.00 L 12014009.00 35511462.00 L 12054353.00 35536718.00 L 12081577.00 35563286.00 L 12096337.00 35584934.00 L 12120281.00 35584934.00 L 12120281.00 35281206.00  z"/>
<path id="N" d="M 12783545.00 33544296.00 L 12746481.00 33544296.00 L 12745825.00 33780128.00 L 12744185.00 33778488.00 L 12710729.00 33755200.00 L 12672025.00 33736176.00 L 12672025.00 33771928.00 L 12677273.00 33774552.00 L 12717617.00 33799808.00 L 12744841.00 33826376.00 L 12759601.00 33848024.00 L 12783545.00 33848024.00 L 12783545.00 33544296.00  z"/>
<path id="N" d="M 18477922.00 37531265.00 L 18479890.00 37527329.00 L 18505146.00 37486985.00 L 18531714.00 37459761.00 L 18553362.00 37445001.00 L 18553362.01 37421057.00 L 18249634.01 37421057.00 L 18249634.00 37458121.00 L 18485466.00 37458777.00 L 18483826.00 37460417.00 L 18460538.00 37493873.00 L 18441514.00 37532577.00 L 18477922.00 37531265.00  z"/>
<path id="N" d="M 17581538.00 33478437.00 L 17583506.00 33474501.00 L 17608762.00 33434157.00 L 17635330.00 33406933.00 L 17656978.00 33392173.00 L 17656978.01 33368229.00 L 17353250.01 33368229.00 L 17353250.00 33405293.00 L 17589082.00 33405949.00 L 17587442.00 33407589.00 L 17564154.00 33441045.00 L 17545130.00 33479749.00 L 17581538.00 33478437.00  z"/>
<path id="N" d="M 16954515.98 37164557.00 L 16718683.98 37163900.99 L 16720323.98 37162260.99 L 16743611.98 37128804.99 L 16762635.99 37090100.99 L 16726883.99 37090100.99 L 16724259.99 37095348.99 L 16699003.98 37135692.99 L 16672435.98 37162916.99 L 16650787.98 37177676.99 L 16650787.98 37201620.99 L 16954515.98 37201621.00 L 16954515.98 37164557.00  z"/>
<path id="N" d="M 20481783.97 36783984.00 L 20245951.97 36783327.99 L 20247591.97 36781687.99 L 20270879.97 36748231.99 L 20289903.98 36709527.99 L 20254151.98 36709527.99 L 20251527.98 36714775.99 L 20226271.97 36755119.99 L 20199703.97 36782343.99 L 20178055.97 36797103.99 L 20178055.97 36821047.99 L 20481783.97 36821048.00 L 20481783.97 36783984.00  z"/>
<path id="N" d="M 15251893.00 38647500.00 L 15354803.00 38647500.00 L 15354803.00 38604040.00 L 15251893.00 38604040.00 L 15251893.00 38500310.00 L 15208023.00 38500310.00 L 15208023.00 38604040.00 L 15105113.00 38604040.00 L 15105113.00 38647500.00 L 15208023.00 38647500.00 L 15208023.00 38750410.00 L 15251893.00 38750410.00 L 15251893.00 38647500.00  z"/>
<path id="N" d="M 12125429.00 33584078.00 L 12133355.00 33564944.00 L 12133355.00 32998132.00 L 12125429.00 32978998.00 L 12106295.00 32971072.00 L 12087161.00 32978998.00 L 12079235.00 32998132.00 L 12079235.00 33564944.00 L 12087161.00 33584078.00 L 12106295.00 33592004.00 L 12125429.00 33584078.00  z"/>
<path id="N" d="M 12125429.00 38426598.00 L 12133355.00 38407464.00 L 12133355.00 37840652.00 L 12125429.00 37821518.00 L 12106295.00 37813592.00 L 12087161.00 37821518.00 L 12079235.00 37840652.00 L 12079235.00 38407464.00 L 12087161.00 38426598.00 L 12106295.00 38434524.00 L 12125429.00 38426598.00  z"/>
<path id="N" d="M 19934608.00 32136219.13 L 19882948.00 32136219.12 L 19684507.95 32433059.08 L 19684508.00 32136219.08 L 19636538.00 32136219.07 L 19636537.93 32514649.07 L 19687787.93 32514649.08 L 19886637.99 32217399.12 L 19886637.93 32514649.12 L 19934607.93 32514649.13 L 19934608.00 32136219.13  z"/>
<path id="N" d="M 15878783.00 38439220.00 L 15827123.00 38439220.00 L 15680343.00 38817650.00 L 15734873.00 38817650.00 L 15833273.00 38542130.00 L 15852953.00 38480630.00 L 15858693.00 38499900.00 L 15975543.00 38817650.00 L 16026383.00 38817650.00 L 15878783.00 38439220.00  z"/>
<path id="N" d="M 13259262.00 35162021.00 L 13271743.00 35131888.00 L 13259262.00 35101755.00 L 13229129.00 35089274.00 L 13198996.00 35101755.00 L 13186515.00 35131888.00 L 13198996.00 35162021.00 L 13229129.00 35174502.00 L 13259262.00 35162021.00  z"/>
<path id="N" d="M 15211230.00 33664385.00 L 15223711.00 33634252.00 L 15211230.00 33604119.00 L 15181097.00 33591638.00 L 15150964.00 33604119.00 L 15138483.00 33634252.00 L 15150964.00 33664385.00 L 15181097.00 33676866.00 L 15211230.00 33664385.00  z"/>
<path id="N" d="M 21515221.96 36537548.99 L 21848961.96 36537549.00 L 21848961.96 36487529.00 L 21515221.96 36487528.99 L 21515221.97 36362888.99 L 21470531.97 36362888.98 L 21470531.95 36662188.98 L 21515221.95 36662188.99 L 21515221.96 36537548.99  z"/>
<path id="N" d="M 18755112.97 33031732.00 L 18376682.97 33031731.98 L 18376682.97 33081751.98 L 18710422.97 33081752.00 L 18710422.96 33268302.00 L 18755112.96 33268302.00 L 18755112.97 33031732.00  z"/>
<path id="N" d="M 19305115.00 37268112.00 L 19246060.00 37268112.00 L 19246060.00 37583072.00 L 19305115.00 37583072.00 L 19305115.00 37268112.00  z"/>
</g>
</svg>
