<svg width="45.00000144mm" height="20.00000064mm" viewBox="0 0 17716536 7874016"  version="1.1" xmlns="http://www.w3.org/2000/svg" xmlns:xlink="http://www.w3.org/1999/xlink">
<desc>
Origin 7874016 35433071 Bound 7874016 31496063 17716536 7874016
</desc>
<g fill-rule="evenodd" fill="rgb(255, 0, 255)" stroke="black" stroke-width="1" transform="translate(0, 7874016) scale(1, -1) translate(-7874016, -31496063)">
<path id="N" d="M 21846956.00 31496063.00 L 7874016.00 31496063.00 L 7874016.00 39370079.00 L 21846956.00 39370079.00 A 3941715.67 3941715.67 0 0 0 21846956.00 31496063.00  zM 8423229.52 33661416.25 m -251366.75 0 a 251366.75 251366.75 0 1 1 502733.51 0a 251366.75 251366.75 0 1 1 -502733.51 0M 9624015.13 32933073.48 m -241327.52 0 a 241327.52 241327.52 0 1 1 482655.04 0a 241327.52 241327.52 0 1 1 -482655.04 0M 9270158.00 34626457.00 L 8796772.00 34626457.00 L 8796772.00 34153071.00 L 9270158.00 34153071.00 L 9270158.00 34626457.00  zM 10805118.13 32933073.48 m -241327.52 0 a 241327.52 241327.52 0 1 1 482655.04 0a 241327.52 241327.52 0 1 1 -482655.04 0M 11415349.52 33661416.25 m -251366.75 0 a 251366.75 251366.75 0 1 1 502733.51 0a 251366.75 251366.75 0 1 1 -502733.51 0M 10214566.13 34389766.48 m -241327.52 0 a 241327.52 241327.52 0 1 1 482655.04 0a 241327.52 241327.52 0 1 1 -482655.04 0M 8424016.52 37204722.25 m -251366.75 0 a 251366.75 251366.75 0 1 1 502733.51 0a 251366.75 251366.75 0 1 1 -502733.51 0M 9624797.13 36476380.48 m -241327.52 0 a 241327.52 241327.52 0 1 1 482655.04 0a 241327.52 241327.52 0 1 1 -482655.04 0M 9034245.13 37933073.48 m -241327.52 0 a 241327.52 241327.52 0 1 1 482655.04 0a 241327.52 241327.52 0 1 1 -482655.04 0M 11042593.00 36713071.00 L 10569207.00 36713071.00 L 10569207.00 36239685.00 L 11042593.00 36239685.00 L 11042593.00 36713071.00  zM 10215348.13 37933073.48 m -241327.52 0 a 241327.52 241327.52 0 1 1 482655.04 0a 241327.52 241327.52 0 1 1 -482655.04 0M 13385826.50 32677161.69 m -652752.45 0 a 652752.45 652752.45 0 1 1 1305504.90 0a 652752.45 652752.45 0 1 1 -1305504.90 0M 11416136.52 37204722.25 m -251366.75 0 a 251366.75 251366.75 0 1 1 502733.51 0a 251366.75 251366.75 0 1 1 -502733.51 0M 13385826.50 38188973.69 m -652752.45 0 a 652752.45 652752.45 0 1 1 1305504.90 0a 652752.45 652752.45 0 1 1 -1305504.90 0M 19754723.00 34663070.00 L 19554723.00 34663070.00 L 19554723.00 34191968.00 L 19754723.00 34191968.00 L 19754723.00 34663070.00  zM 19754723.00 36674172.00 L 19554723.00 36674172.00 L 19554723.00 36203070.00 L 19754723.00 36203070.00 L 19754723.00 36674172.00  zM 20254723.00 36674172.00 L 20054723.00 36674172.00 L 20054723.00 36203070.00 L 20254723.00 36203070.00 L 20254723.00 36674172.00  zM 20254723.00 34663070.00 L 20054723.00 34663070.00 L 20054723.00 34191968.00 L 20254723.00 34191968.00 L 20254723.00 34663070.00  zM 20754723.00 34663070.00 L 20554723.00 34663070.00 L 20554723.00 34191968.00 L 20754723.00 34191968.00 L 20754723.00 34663070.00  zM 21254723.00 34663070.00 L 21054723.00 34663070.00 L 21054723.00 34191968.00 L 21254723.00 34191968.00 L 21254723.00 34663070.00  zM 20754723.00 36674172.00 L 20554723.00 36674172.00 L 20554723.00 36203070.00 L 20754723.00 36203070.00 L 20754723.00 36674172.00  zM 21254723.00 36674172.00 L 21054723.00 36674172.00 L 21054723.00 36203070.00 L 21254723.00 36203070.00 L 21254723.00 36674172.00  z"/>
</g>
</svg>
