<svg width="35.90526474mm" height="21.80000212mm" viewBox="0 0 14135931 8582678"  version="1.1" xmlns="http://www.w3.org/2000/svg" xmlns:xlink="http://www.w3.org/1999/xlink">
<desc>
Origin 9055113 35433070 Bound 9055118 31141731 14135931 8582678
</desc>
<g fill-rule="evenodd" fill="rgb(255, 0, 255)" stroke="black" stroke-width="1" transform="translate(0, 8582678) scale(1, -1) translate(-9055118, -31141731)">
<path id="N" d="M 19085059.00 31141641.00 L 9055118.00 31141732.00 L 9055118.00 39724409.00 L 19085059.00 39724498.00 A 4295379.07 4295379.07 0 0 0 19085059.00 31141641.00  zM 10472435.13 32125985.48 m -241327.52 0 a 241327.52 241327.52 0 1 1 482655.04 0a 241327.52 241327.52 0 1 1 -482655.04 0M 11200783.52 31515751.25 m -251366.75 0 a 251366.75 251366.75 0 1 1 502733.51 0a 251366.75 251366.75 0 1 1 -502733.51 0M 10472435.13 33307088.48 m -241327.52 0 a 241327.52 241327.52 0 1 1 482655.04 0a 241327.52 241327.52 0 1 1 -482655.04 0M 11200783.52 34507871.25 m -251366.75 0 a 251366.75 251366.75 0 1 1 502733.51 0a 251366.75 251366.75 0 1 1 -502733.51 0M 12165822.00 34134330.00 L 11692436.00 34134330.00 L 11692436.00 33660944.00 L 12165822.00 33660944.00 L 12165822.00 34134330.00  zM 11200783.52 36358271.25 m -251366.75 0 a 251366.75 251366.75 0 1 1 502733.51 0a 251366.75 251366.75 0 1 1 -502733.51 0M 10472435.13 36968505.48 m -241327.52 0 a 241327.52 241327.52 0 1 1 482655.04 0a 241327.52 241327.52 0 1 1 -482655.04 0M 10472435.13 38149608.48 m -241327.52 0 a 241327.52 241327.52 0 1 1 482655.04 0a 241327.52 241327.52 0 1 1 -482655.04 0M 11929128.13 37559057.48 m -241327.52 0 a 241327.52 241327.52 0 1 1 482655.04 0a 241327.52 241327.52 0 1 1 -482655.04 0M 11200783.52 39350391.25 m -251366.75 0 a 251366.75 251366.75 0 1 1 502733.51 0a 251366.75 251366.75 0 1 1 -502733.51 0M 12165822.00 38976850.00 L 11692436.00 38976850.00 L 11692436.00 38503464.00 L 12165822.00 38503464.00 L 12165822.00 38976850.00  zM 11929128.13 32716537.48 m -241327.52 0 a 241327.52 241327.52 0 1 1 482655.04 0a 241327.52 241327.52 0 1 1 -482655.04 0M 12952795.00 32267042.00 L 12953607.00 32180965.00 L 12972145.00 32096089.00 A 443176.21 443176.21 0 0 1 13525614.00 31810310.00 A 426888.08 426888.08 0 0 1 13819676.00 32182566.00 L 13818889.00 32267055.00 L 13802250.00 32350722.00 A 435131.44 435131.44 0 0 1 12952795.00 32267042.00  zM 18179920.00 34663070.00 L 17979920.00 34663070.00 L 17979920.00 34191968.00 L 18179920.00 34191968.00 L 18179920.00 34663070.00  zM 12952795.00 38684365.00 L 12953607.00 38598288.00 L 12972145.00 38513412.00 A 443176.21 443176.21 0 0 1 13525614.00 38227633.00 A 426888.08 426888.08 0 0 1 13819676.00 38599889.00 L 13818889.00 38684378.00 L 13802250.00 38768045.00 A 435131.44 435131.44 0 0 1 12952795.00 38684365.00  zM 18179920.00 36674172.00 L 17979920.00 36674172.00 L 17979920.00 36203070.00 L 18179920.00 36203070.00 L 18179920.00 36674172.00  zM 18679920.00 34663070.00 L 18479920.00 34663070.00 L 18479920.00 34191968.00 L 18679920.00 34191968.00 L 18679920.00 34663070.00  zM 19179920.00 34663070.00 L 18979920.00 34663070.00 L 18979920.00 34191968.00 L 19179920.00 34191968.00 L 19179920.00 34663070.00  zM 19679920.00 34663070.00 L 19479920.00 34663070.00 L 19479920.00 34191968.00 L 19679920.00 34191968.00 L 19679920.00 34663070.00  zM 19679920.00 36674172.00 L 19479920.00 36674172.00 L 19479920.00 36203070.00 L 19679920.00 36203070.00 L 19679920.00 36674172.00  zM 18679920.00 36674172.00 L 18479920.00 36674172.00 L 18479920.00 36203070.00 L 18679920.00 36203070.00 L 18679920.00 36674172.00  zM 19179920.00 36674172.00 L 18979920.00 36674172.00 L 18979920.00 36203070.00 L 19179920.00 36203070.00 L 19179920.00 36674172.00  z"/>
</g>
</svg>
