<svg width="35.90526474mm" height="21.80000212mm" viewBox="0 0 14135931 8582678"  version="1.1" xmlns="http://www.w3.org/2000/svg" xmlns:xlink="http://www.w3.org/1999/xlink">
<desc>
Origin 9055113 35433070 Bound 9055118 31141731 14135931 8582678
</desc>
<g fill-rule="evenodd" fill="rgb(0, 0, 255)" stroke="black" stroke-width="1" transform="translate(0, 8582678) scale(1, -1) translate(-9055118, -31141731)">
<path id="N" d="M 19179920.00 36203070.00 L 19134040.00 36203070.00 L 19134040.00 36080681.00 L 19431861.00 35782860.00 L 20843325.26 35782860.00 L 20864060.00 35813893.00 A 120431.73 120431.73 0 1 0 20864060.00 35643587.00 L 20843325.26 35674620.00 L 19409443.00 35674619.00 L 19371174.00 35690471.00 L 19041651.00 36019994.00 L 19025800.00 36058265.41 L 19025800.00 36203070.00 L 18979920.00 36203070.00 L 18979920.00 36674172.00 L 19179920.00 36674172.00 L 19179920.00 36203070.00  z"/>
<path id="N" d="M 20949221.16 36437410.16 m -120412.98 0 a 120412.98 120412.98 0 1 1 240825.96 0a 120412.98 120412.98 0 1 1 -240825.96 0"/>
<path id="N" d="M 18179920.00 34191968.00 L 18134040.00 34191968.00 L 18134040.00 33964150.74 L 18165073.00 33943416.00 A 120431.73 120431.73 0 1 0 17994767.00 33943416.00 L 18025800.00 33964150.74 L 18025800.00 34191968.00 L 17979920.00 34191968.00 L 17979920.00 34663070.00 L 18179920.00 34663070.00 L 18179920.00 34191968.00  z"/>
<path id="N" d="M 13405121.16 33083078.16 m -120412.98 0 a 120412.98 120412.98 0 1 1 240825.96 0a 120412.98 120412.98 0 1 1 -240825.96 0"/>
<path id="N" d="M 12792666.16 32829391.16 m -120412.98 0 a 120412.98 120412.98 0 1 1 240825.96 0a 120412.98 120412.98 0 1 1 -240825.96 0"/>
<path id="N" d="M 14271263.16 32216936.16 m -120412.98 0 a 120412.98 120412.98 0 1 1 240825.96 0a 120412.98 120412.98 0 1 1 -240825.96 0"/>
<path id="N" d="M 13405121.16 39483078.16 m -120412.98 0 a 120412.98 120412.98 0 1 1 240825.96 0a 120412.98 120412.98 0 1 1 -240825.96 0"/>
<path id="N" d="M 14271263.16 38616936.16 m -120412.98 0 a 120412.98 120412.98 0 1 1 240825.96 0a 120412.98 120412.98 0 1 1 -240825.96 0"/>
<path id="N" d="M 12792666.16 38004481.16 m -120412.98 0 a 120412.98 120412.98 0 1 1 240825.96 0a 120412.98 120412.98 0 1 1 -240825.96 0"/>
<path id="N" d="M 14017576.16 39229391.16 m -120412.98 0 a 120412.98 120412.98 0 1 1 240825.96 0a 120412.98 120412.98 0 1 1 -240825.96 0"/>
<path id="N" d="M 12538979.16 32216936.16 m -120412.98 0 a 120412.98 120412.98 0 1 1 240825.96 0a 120412.98 120412.98 0 1 1 -240825.96 0"/>
<path id="N" d="M 13405121.16 31350794.16 m -120412.98 0 a 120412.98 120412.98 0 1 1 240825.96 0a 120412.98 120412.98 0 1 1 -240825.96 0"/>
<path id="N" d="M 12792666.16 39229391.16 m -120412.98 0 a 120412.98 120412.98 0 1 1 240825.96 0a 120412.98 120412.98 0 1 1 -240825.96 0"/>
<path id="N" d="M 14017576.16 31604481.16 m -120412.98 0 a 120412.98 120412.98 0 1 1 240825.96 0a 120412.98 120412.98 0 1 1 -240825.96 0"/>
<path id="N" d="M 14017576.16 32829391.16 m -120412.98 0 a 120412.98 120412.98 0 1 1 240825.96 0a 120412.98 120412.98 0 1 1 -240825.96 0"/>
<path id="N" d="M 12792666.16 31604481.16 m -120412.98 0 a 120412.98 120412.98 0 1 1 240825.96 0a 120412.98 120412.98 0 1 1 -240825.96 0"/>
<path id="N" d="M 13405121.16 37750794.16 m -120412.98 0 a 120412.98 120412.98 0 1 1 240825.96 0a 120412.98 120412.98 0 1 1 -240825.96 0"/>
<path id="N" d="M 12538979.16 38616936.16 m -120412.98 0 a 120412.98 120412.98 0 1 1 240825.96 0a 120412.98 120412.98 0 1 1 -240825.96 0"/>
<path id="N" d="M 14017576.16 38004481.16 m -120412.98 0 a 120412.98 120412.98 0 1 1 240825.96 0a 120412.98 120412.98 0 1 1 -240825.96 0"/>
<path id="N" d="M 10472438.29 36929005.29 m -210738.62 0 a 210738.62 210738.62 0 1 1 421477.24 0a 210738.62 210738.62 0 1 1 -421477.24 0M 10472438.38 36928997.09 m -140500.91 0 a 140500.91 140500.91 0 1 1 281001.82 0a 140500.91 140500.91 0 1 1 -281001.82 0"/>
<path id="N" d="M 19140266.00 34897917.00 L 19121636.00 34885469.34 L 19121636.00 34663070.00 L 19179920.00 34663070.00 L 19179920.00 34191968.00 L 19121636.00 34191968.00 L 19121636.00 33830670.66 L 19140266.00 33818223.00 A 120431.73 120431.73 0 1 0 19009029.00 33844327.00 L 19013396.00 33845195.68 L 19013396.00 34191968.00 L 18979920.00 34191968.00 L 18979920.00 34663070.00 L 19013396.00 34663070.00 L 19013396.00 34870944.32 L 19009029.00 34871813.00 A 120412.98 120412.98 0 1 0 19140266.00 34897917.00  z"/>
<path id="N" d="M 12135822.00 33730314.00 L 11722436.00 33730314.00 L 11722436.00 34143700.00 L 12135822.00 34143700.00 L 12135822.00 33730314.00  zM 11929131.38 33937001.09 m -140500.91 0 a 140500.91 140500.91 0 1 1 281001.82 0a 140500.91 140500.91 0 1 1 -281001.82 0"/>
<path id="N" d="M 16705121.16 33128748.16 m -120412.98 0 a 120412.98 120412.98 0 1 1 240825.96 0a 120412.98 120412.98 0 1 1 -240825.96 0"/>
<path id="N" d="M 16705121.16 33837410.16 m -120412.98 0 a 120412.98 120412.98 0 1 1 240825.96 0a 120412.98 120412.98 0 1 1 -240825.96 0"/>
<path id="N" d="M 18840794.00 37047389.00 L 18840794.00 36268750.00 L 18769433.00 36197390.00 L 18497580.00 36197390.00 L 18491900.00 36203070.00 L 18479920.00 36203070.00 L 18479920.00 36215050.00 L 18424650.00 36270320.00 L 18424650.00 37052606.00 L 18515042.00 37142999.00 L 18745182.00 37143000.00 L 18840794.00 37047389.00  z"/>
<path id="N" d="M 10472438.29 38110108.29 m -210738.62 0 a 210738.62 210738.62 0 1 1 421477.24 0a 210738.62 210738.62 0 1 1 -421477.24 0M 10472438.38 38110100.09 m -140500.91 0 a 140500.91 140500.91 0 1 1 281001.82 0a 140500.91 140500.91 0 1 1 -281001.82 0"/>
<path id="N" d="M 10472438.29 33346458.29 m -210738.62 0 a 210738.62 210738.62 0 1 1 421477.24 0a 210738.62 210738.62 0 1 1 -421477.24 0M 10472438.38 33346450.09 m -140500.91 0 a 140500.91 140500.91 0 1 1 281001.82 0a 140500.91 140500.91 0 1 1 -281001.82 0"/>
<path id="N" d="M 18299210.00 37641967.00 L 18299203.00 36291966.00 L 18199207.00 36191970.00 L 17949207.00 36191970.00 L 17849207.00 36291972.00 L 17849207.00 36384501.00 L 17633081.06 36384501.00 L 17409233.00 36160652.06 L 17409233.00 35138957.74 L 17440266.00 35118223.00 A 120431.73 120431.73 0 1 0 17269960.00 35118223.00 L 17300993.00 35138957.74 L 17300992.00 36183070.00 L 17316844.00 36221339.00 L 17572395.00 36476890.00 L 17610666.41 36492741.00 L 17849207.00 36492741.00 L 17849207.00 37641967.00 L 17949208.00 37741969.00 L 18199209.00 37741969.00 L 18299210.00 37641967.00  z"/>
<path id="N" d="M 13540266.00 37247917.00 L 13509233.00 37227182.26 L 13509233.00 35588957.74 L 13540266.00 35568223.00 A 120431.73 120431.73 0 1 0 13369960.00 35568223.00 L 13400993.00 35588957.74 L 13400993.00 37227182.26 L 13369960.00 37247917.00 A 120431.73 120431.73 0 1 0 13540266.00 37247917.00  z"/>
<path id="N" d="M 17753552.16 37983079.16 m -120412.98 0 a 120412.98 120412.98 0 1 1 240825.96 0a 120412.98 120412.98 0 1 1 -240825.96 0"/>
<path id="N" d="M 10414374.16 35157487.16 m -120412.98 0 a 120412.98 120412.98 0 1 1 240825.96 0a 120412.98 120412.98 0 1 1 -240825.96 0"/>
<path id="N" d="M 17044890.16 37983079.16 m -120412.98 0 a 120412.98 120412.98 0 1 1 240825.96 0a 120412.98 120412.98 0 1 1 -240825.96 0"/>
<path id="N" d="M 10414374.16 35708669.16 m -120412.98 0 a 120412.98 120412.98 0 1 1 240825.96 0a 120412.98 120412.98 0 1 1 -240825.96 0"/>
<path id="N" d="M 12135822.00 38493964.00 L 11983249.00 38493964.00 L 11983250.00 38157086.00 L 11967396.29 38118816.29 L 11459233.00 37610652.03 L 11459233.00 36977512.98 L 12449555.02 35987190.00 L 12599225.26 35987190.00 L 12619960.00 36018223.00 A 120431.73 120431.73 0 1 0 12619960.00 35847917.00 L 12599225.26 35878950.00 L 12427138.00 35878949.00 L 12388868.29 35894802.71 L 11366844.00 36916826.00 L 11350993.00 36955097.41 L 11350992.00 37633070.00 L 11366844.00 37671339.00 L 11875009.00 38179503.03 L 11875009.00 38493964.00 L 11722436.00 38493964.00 L 11722436.00 38907350.00 L 12135822.00 38907350.00 L 12135822.00 38493964.00  zM 11929131.38 38700651.09 m -140500.91 0 a 140500.91 140500.91 0 1 1 281001.82 0a 140500.91 140500.91 0 1 1 -281001.82 0"/>
<path id="N" d="M 18040266.00 35647917.00 L 18009233.00 35627182.26 L 18009233.00 35210294.97 L 18556457.10 34663070.00 L 18679920.00 34663070.00 L 18679920.00 34191968.00 L 18634040.00 34191968.00 L 18634040.00 33147739.86 L 18651197.00 33144327.00 A 120412.98 120412.98 0 1 0 18519960.00 33118223.00 L 18525800.00 33122125.00 L 18525800.00 34191968.00 L 18479920.00 34191968.00 L 18479920.00 34586532.90 L 17916844.00 35149608.00 L 17900993.00 35187879.41 L 17900993.00 35627182.26 L 17869960.00 35647917.00 A 120431.73 120431.73 0 1 0 18040266.00 35647917.00  z"/>
<path id="N" d="M 10472438.29 32165355.29 m -210738.62 0 a 210738.62 210738.62 0 1 1 421477.24 0a 210738.62 210738.62 0 1 1 -421477.24 0M 10472438.38 32165347.09 m -140500.91 0 a 140500.91 140500.91 0 1 1 281001.82 0a 140500.91 140500.91 0 1 1 -281001.82 0"/>
<path id="N" d="M 17549221.16 32378748.16 m -120412.98 0 a 120412.98 120412.98 0 1 1 240825.96 0a 120412.98 120412.98 0 1 1 -240825.96 0"/>
<path id="N" d="M 17549221.16 33087410.16 m -120412.98 0 a 120412.98 120412.98 0 1 1 240825.96 0a 120412.98 120412.98 0 1 1 -240825.96 0"/>
<path id="N" d="M 19679920.00 34191968.00 L 19634040.00 34191968.00 L 19634040.00 33930681.00 L 19768508.37 33796212.63 L 19805113.00 33803494.00 A 120431.73 120431.73 0 1 0 19684689.00 33683070.00 L 19691970.37 33719674.63 L 19541651.00 33869994.00 L 19525800.00 33908265.41 L 19525800.00 34191968.00 L 19479920.00 34191968.00 L 19479920.00 34663070.00 L 19679920.00 34663070.00 L 19679920.00 34191968.00  z"/>
<path id="N" d="M 19085059.00 31141641.00 L 13673001.03 31141731.53 L 13666418.32 31191731.70 L 13734092.00 31209865.00 L 13865214.00 31264178.00 L 13988124.00 31335140.00 L 14054879.67 31386363.00 L 14060953.00 31386363.00 A 222383.27 222383.27 0 0 1 14235678.00 31561088.00 L 14235678.00 31566987.28 L 14287475.00 31634491.00 A 1085033.34 1085033.34 0 0 1 14449483.00 32025611.00 L 14459450.79 32101323.66 L 14489365.00 32173543.00 L 14489365.00 32260313.00 L 14467308.13 32313563.02 L 14449483.00 32448958.00 A 1084995.40 1084995.40 0 0 1 14287475.00 32840078.00 L 14204341.91 32948420.05 L 14202473.00 32952932.00 L 14141117.00 33014288.00 L 14138295.15 33015456.85 L 14100721.00 33053031.00 A 1085025.41 1085025.41 0 0 1 12569584.00 31521894.00 L 12605772.40 31485705.60 L 12607753.00 31480924.00 L 12669109.00 31419568.00 L 12676493.85 31416509.10 L 12782537.00 31335140.00 L 12905447.00 31264178.00 L 13036569.00 31209865.00 L 13104242.47 31191731.76 L 13097659.75 31141731.59 L 9055118.00 31141732.00 L 9055118.00 39724409.00 L 13126009.10 39724409.00 L 13132591.81 39674408.83 L 13047260.00 39651544.00 A 1085033.34 1085033.34 0 0 1 13184348.00 37559972.00 L 13289064.22 37546186.56 L 13306984.55 37493395.55 L 13270208.00 37456619.00 A 222382.84 222382.84 0 0 1 13270208.00 37209521.00 L 13302174.00 37177555.00 L 13302174.00 35638585.00 L 13270208.00 35606619.00 A 222382.84 222382.84 0 1 1 13640018.00 35606619.00 L 13608052.00 35638585.00 L 13608052.00 37177555.00 L 13640018.00 37209521.00 A 222382.84 222382.84 0 0 1 13640018.00 37456619.00 L 13589493.07 37507143.93 L 13600325.83 37559001.88 L 13744783.00 37596705.00 L 13875905.00 37651018.00 L 13998815.00 37721980.00 L 14108256.56 37805956.77 L 14141117.00 37819568.00 L 14202473.00 37880924.00 L 14216601.46 37915033.14 L 14298166.00 38021331.00 A 1085033.34 1085033.34 0 0 1 14460174.00 38412451.00 L 14477662.81 38545291.41 L 14489365.00 38573543.00 L 14489365.00 38660313.00 L 14478699.00 38686063.01 L 14478699.00 38695087.00 A 1084979.84 1084979.84 0 0 1 14211768.00 39339515.00 L 14205387.69 39345895.31 L 14202473.00 39352932.00 L 14141117.00 39414288.00 L 14134080.31 39417202.69 L 14111412.00 39439871.00 A 1085025.41 1085025.41 0 0 1 13744783.00 39651544.00 L 13659451.19 39674408.83 L 13666033.90 39724409.00 L 19085059.00 39724498.00 A 4295379.07 4295379.07 0 0 0 19085059.00 31141641.00  zM 10472436.00 32165358.82 m -309333.68 0 a 309333.68 309333.68 0 1 1 618667.36 0a 309333.68 309333.68 0 1 1 -618667.36 0M 11200783.00 31555132.51 m -319256.99 0 a 319256.99 319256.99 0 1 1 638513.99 0a 319256.99 319256.99 0 1 1 -638513.99 0M 11879130.00 33060019.74 L 11810750.00 33041697.00 A 309338.40 309338.40 0 0 1 11643337.00 32874284.00 L 11625014.26 32805904.00 L 11728332.61 32805904.00 L 11734429.00 32836552.00 L 11780112.00 32904922.00 L 11848482.00 32950605.00 L 11879130.00 32956701.39 L 11879130.00 33060019.74  zM 11728333.01 32705904.00 L 11625014.80 32705904.00 L 11643337.00 32637526.00 A 309338.40 309338.40 0 0 1 11810750.00 32470113.00 L 11879130.00 32451790.26 L 11879130.00 32555108.61 L 11848482.00 32561205.00 L 11780112.00 32606888.00 L 11734429.00 32675258.00 L 11728333.01 32705904.00  zM 11929131.38 32755899.09 m -140500.91 0 a 140500.91 140500.91 0 1 1 281001.82 0a 140500.91 140500.91 0 1 1 -281001.82 0M 10472436.00 33346461.82 m -309333.68 0 a 309333.68 309333.68 0 1 1 618667.36 0a 309333.68 309333.68 0 1 1 -618667.36 0M 12235822.00 34243700.00 L 11622436.00 34243700.00 L 11622436.00 33630314.00 L 12235822.00 33630314.00 L 12235822.00 34243700.00  zM 10414366.00 35157479.24 m -222382.84 0 a 222382.84 222382.84 0 1 1 444765.67 0a 222382.84 222382.84 0 1 1 -444765.67 0M 11200783.00 34547252.51 m -319256.99 0 a 319256.99 319256.99 0 1 1 638513.99 0a 319256.99 319256.99 0 1 1 -638513.99 0M 10414366.00 35708661.24 m -222382.84 0 a 222382.84 222382.84 0 1 1 444765.67 0a 222382.84 222382.84 0 1 1 -444765.67 0M 11200783.00 36318782.51 m -319256.99 0 a 319256.99 319256.99 0 1 1 638513.99 0a 319256.99 319256.99 0 1 1 -638513.99 0M 10472436.00 36929008.82 m -309333.68 0 a 309333.68 309333.68 0 1 1 618667.36 0a 309333.68 309333.68 0 1 1 -618667.36 0M 12235822.00 39007350.00 L 11622436.00 39007350.00 L 11622436.00 38393964.00 L 11776190.00 38393964.00 L 11776190.00 38220435.91 L 11296969.00 37741214.00 L 11263816.00 37691597.00 L 11252174.00 37633070.00 L 11252174.00 36955095.00 L 11263816.00 36896568.00 L 11296969.00 36846951.00 L 12318994.00 35824926.00 L 12368611.00 35791773.00 L 12427138.00 35780131.00 L 12549598.00 35780131.00 L 12581564.00 35748165.00 A 222382.84 222382.84 0 1 1 12581564.00 36117975.00 L 12549598.00 36086009.00 L 12490487.00 36086009.00 L 11558052.00 37018444.00 L 11558052.00 37544829.11 L 11572435.51 37553884.97 L 11622436.00 37526280.10 L 11622436.00 37479178.00 A 309345.55 309345.55 0 0 1 11810750.00 37233763.00 L 11879128.00 37215440.79 L 11879128.00 37318759.01 L 11848482.00 37324855.00 A 210738.62 210738.62 0 0 0 11848482.00 37714255.00 L 11879128.00 37720350.99 L 11879128.00 37833460.85 L 11858141.69 37869810.03 L 12037274.00 38048942.00 L 12070426.00 38098559.00 L 12082068.00 38157086.00 L 12082068.00 38393964.00 L 12235822.00 38393964.00 L 12235822.00 39007350.00  zM 11929131.38 37519549.09 m -140500.91 0 a 140500.91 140500.91 0 1 1 281001.82 0a 140500.91 140500.91 0 1 1 -281001.82 0M 11979128.00 37823669.74 L 11979128.00 37720351.39 L 12009776.00 37714255.00 L 12078146.00 37668572.00 L 12123829.00 37600202.00 L 12129924.99 37569556.00 L 12233243.20 37569556.00 L 12214921.00 37637934.00 A 309338.40 309338.40 0 0 1 12047508.00 37805347.00 L 11979128.00 37823669.74  zM 10472436.00 38110111.82 m -309333.68 0 a 309333.68 309333.68 0 1 1 618667.36 0a 309333.68 309333.68 0 1 1 -618667.36 0M 11200783.00 39310902.51 m -319256.99 0 a 319256.99 319256.99 0 1 1 638513.99 0a 319256.99 319256.99 0 1 1 -638513.99 0M 12233243.21 32705904.00 L 12129924.99 32705904.00 L 12123829.00 32675258.00 L 12078146.00 32606888.00 L 12009776.00 32561205.00 L 11979130.00 32555109.01 L 11979130.00 32451790.80 L 12047508.00 32470113.00 A 309338.40 309338.40 0 0 1 12214921.00 32637526.00 L 12233243.21 32705904.00  zM 11979130.00 33060019.21 L 11979130.00 32956700.99 L 12009776.00 32950605.00 L 12078146.00 32904922.00 L 12123829.00 32836552.00 L 12129925.39 32805904.00 L 12233243.74 32805904.00 L 12214921.00 32874284.00 A 309338.40 309338.40 0 0 1 12047508.00 33041697.00 L 11979130.00 33060019.21  zM 16705113.00 33128740.24 m -222382.84 0 a 222382.84 222382.84 0 1 1 444765.67 0a 222382.84 222382.84 0 1 1 -444765.67 0M 12233243.74 37469556.00 L 12129925.39 37469556.00 L 12123829.00 37438908.00 L 12078146.00 37370538.00 L 12009776.00 37324855.00 L 11979128.00 37318758.61 L 11979128.00 37215440.26 L 12047508.00 37233763.00 A 309338.40 309338.40 0 0 1 12214921.00 37401176.00 L 12233243.74 37469556.00  zM 16705113.00 33837402.24 m -222382.84 0 a 222382.84 222382.84 0 1 1 444765.67 0a 222382.84 222382.84 0 1 1 -444765.67 0M 17549213.00 32378740.24 m -222382.84 0 a 222382.84 222382.84 0 1 1 444765.67 0a 222382.84 222382.84 0 1 1 -444765.67 0M 17549213.00 33087402.24 m -222382.84 0 a 222382.84 222382.84 0 1 1 444765.67 0a 222382.84 222382.84 0 1 1 -444765.67 0M 17770208.00 35609521.00 L 17802174.00 35577555.00 L 17802174.00 35187877.00 L 17813816.00 35129350.00 L 17846969.00 35079733.00 L 18117437.17 34809264.39 L 18098302.81 34763070.00 L 17879920.00 34763070.00 L 17879920.00 34091968.00 L 17926981.00 34091968.00 L 17926981.00 34013778.00 L 17895015.00 33981812.00 A 222382.84 222382.84 0 1 1 18264825.00 33981812.00 L 18232859.00 34013778.00 L 18232859.00 34091968.00 L 18279920.00 34091968.00 L 18279920.00 34581452.49 L 18326114.41 34600586.82 L 18379920.00 34546781.15 L 18379920.00 34091968.00 L 18426981.00 34091968.00 L 18426981.00 33163392.00 L 18420208.00 33156619.00 A 222382.84 222382.84 0 1 1 18790018.00 33156619.00 L 18732859.00 33213778.00 L 18732859.00 34091968.00 L 18779920.00 34091968.00 L 18779920.00 34763070.00 L 18596208.85 34763070.00 L 18108052.00 35251226.07 L 18108052.00 35577555.00 L 18140018.00 35609521.00 A 222382.84 222382.84 0 1 1 17770208.00 35609521.00  zM 17044882.00 37983071.24 m -222382.84 0 a 222382.84 222382.84 0 1 1 444765.67 0a 222382.84 222382.84 0 1 1 -444765.67 0M 19779920.00 34763070.00 L 19379920.00 34763070.00 L 19379920.00 34091968.00 L 19426981.00 34091968.00 L 19426981.00 33908263.00 L 19438623.00 33849736.00 L 19471776.00 33800119.00 L 19587003.00 33684892.00 L 19587003.00 33639685.00 A 222383.27 222383.27 0 1 1 19848498.00 33901180.00 L 19803291.00 33901180.00 L 19732859.00 33971612.00 L 19732859.00 34091968.00 L 19779920.00 34091968.00 L 19779920.00 34763070.00  zM 18870208.00 34859521.00 L 18914577.00 34815152.00 L 18914577.00 34763070.00 L 18879920.00 34763070.00 L 18879920.00 34091968.00 L 18914577.00 34091968.00 L 18914577.00 33900988.00 L 18870208.00 33856619.00 A 222382.84 222382.84 0 1 1 19240018.00 33856619.00 L 19220455.00 33876182.00 L 19220455.00 34091968.00 L 19279920.00 34091968.00 L 19279920.00 34763070.00 L 19220455.00 34763070.00 L 19220455.00 34839958.00 L 19240018.00 34859521.00 A 222382.84 222382.84 0 1 1 18870208.00 34859521.00  zM 19479920.00 36388620.00 L 19379920.00 36388620.00 L 19379920.00 36103070.00 L 19529921.00 36103070.00 L 19529921.00 36203070.00 L 19479920.00 36203070.00 L 19479920.00 36388620.00  zM 19779920.00 36388620.00 L 19679920.00 36388620.00 L 19679920.00 36203070.00 L 19629921.00 36203070.00 L 19629921.00 36103070.00 L 19779920.00 36103070.00 L 19779920.00 36388620.00  zM 17710159.00 37764961.00 L 17757297.57 37764961.00 L 17777111.00 37714063.00 L 17755009.00 37680985.00 L 17747248.00 37641967.00 L 17747248.00 36591560.00 L 17610664.00 36591560.00 L 17552137.00 36579918.00 L 17502520.00 36546765.00 L 17246969.00 36291214.00 L 17213816.00 36241597.00 L 17202174.00 36183070.00 L 17202174.00 35188585.00 L 17170208.00 35156619.00 A 222382.84 222382.84 0 1 1 17540018.00 35156619.00 L 17508052.00 35188585.00 L 17508052.00 36119721.00 L 17674013.00 36285682.00 L 17748499.13 36285682.00 L 17755009.00 36252954.00 L 17777110.00 36219877.00 L 17879920.00 36117997.09 L 17879920.00 36103070.00 L 17902259.34 36103070.00 L 17910188.00 36097772.00 L 17949206.00 36090011.00 L 18199207.00 36090011.00 L 18238225.00 36097772.00 L 18246154.02 36103070.00 L 18279920.00 36103070.00 L 18279920.00 36128491.00 L 18335316.90 36183887.90 L 18379920.00 36157779.75 L 18379920.00 36103070.00 L 18459175.35 36103070.00 L 18497580.00 36095431.00 L 18769433.00 36095431.00 L 18808451.00 36103192.00 L 18829919.54 36117536.81 L 18879919.84 36103068.55 L 18926981.00 36095971.81 L 18926981.00 36058263.00 L 18938623.00 35999736.00 L 18971776.00 35950119.00 L 19301299.00 35620596.00 L 19350916.00 35587443.00 L 19409443.00 35575801.00 L 20793698.00 35575801.00 L 20825664.00 35543835.00 A 222382.84 222382.84 0 1 1 20825664.00 35913645.00 L 20793698.00 35881679.00 L 19472792.00 35881679.00 L 19296220.98 36058250.02 L 19279920.00 36103072.05 L 19279920.00 36774172.00 L 18942753.00 36774172.00 L 18942752.90 37047389.50 L 18934992.00 37086408.00 L 18912886.99 37119487.01 L 18817278.00 37215096.00 L 18784200.00 37237198.00 L 18745182.00 37244959.00 L 18515042.00 37244958.00 L 18476023.00 37237197.00 L 18451167.27 37220588.28 L 18419311.52 37230226.14 L 18401166.93 37241841.93 L 18401169.00 37641966.00 L 18393408.00 37680985.00 L 18371306.00 37714063.00 L 18271305.00 37814065.00 L 18238228.00 37836167.00 L 18199210.00 37843928.00 L 17986109.93 37843928.00 L 17952700.64 37893928.52 L 17971654.00 37939686.00 A 222382.84 222382.84 0 1 1 17710159.00 37764961.00  zM 19529921.00 36774172.00 L 19379920.00 36774172.00 L 19379920.00 36488620.00 L 19479920.00 36488620.00 L 19479920.00 36674172.00 L 19529921.00 36674172.00 L 19529921.00 36774172.00  zM 19779920.00 36774172.00 L 19629921.00 36774172.00 L 19629921.00 36674172.00 L 19679920.00 36674172.00 L 19679920.00 36488620.00 L 19779920.00 36488620.00 L 19779920.00 36774172.00  zM 20949213.00 36437402.24 m -222382.84 0 a 222382.84 222382.84 0 1 1 444765.67 0a 222382.84 222382.84 0 1 1 -444765.67 0"/>
</g>
</svg>
