<svg width="41.99999982mm" height="20.00000064mm" viewBox="0 0 16535433 7874016"  version="1.1" xmlns="http://www.w3.org/2000/svg" xmlns:xlink="http://www.w3.org/1999/xlink">
<desc>
Origin 7874016 35433071 Bound 7874016 31496063 16535433 7874016
</desc>
<g fill-rule="evenodd" fill="rgb(128, 128, 0)" stroke="black" stroke-width="1" transform="translate(0, 7874016) scale(1, -1) translate(-7874016, -31496063)">
<path id="N" d="M 19235706.00 35452731.00 L 19231114.00 35410747.00 L 19221930.00 35380571.00 L 19207170.00 35359907.00 L 19192410.00 35347443.00 L 19175026.00 35338587.00 L 19140586.00 35330715.00 L 19108114.00 35329075.00 L 19074330.00 35333995.00 A 89819.23 89819.23 0 0 0 19004466.00 35399923.00 L 18998562.00 35440923.00 L 18997578.00 35636411.00 L 19037594.00 35636411.00 L 19037594.00 35461587.00 L 19040546.00 35425507.00 L 19047106.00 35401891.00 L 19056618.00 35384835.00 L 19069410.00 35375651.00 L 19094994.00 35367451.00 L 19119594.00 35364827.00 L 19144850.00 35368107.00 A 55150.33 55150.33 0 0 1 19189786.00 35407139.00 L 19194706.00 35439611.00 L 19195690.00 35636411.00 L 19235706.00 35636411.00 L 19235706.00 35452731.00  z"/>
<path id="N" d="M 19220865.95 36483070.95 m -101959.21 0 a 101959.21 101959.21 0 1 1 203918.42 0a 101959.21 101959.21 0 1 1 -203918.42 0"/>
<path id="N" d="M 18834234.00 35629851.00 L 18855226.00 35604267.00 L 18881466.00 35582619.00 L 18917546.00 35561299.00 L 18917546.00 35525547.00 L 18910986.00 35528171.00 L 18870642.00 35549491.00 L 18843090.00 35570155.00 L 18843090.00 35333667.00 L 18806026.00 35333667.00 L 18806026.00 35637395.00 L 18829970.00 35637395.00 L 18834234.00 35629851.00  z"/>
<path id="N" d="M 21442684.00 36276031.00 L 21452195.00 36253070.00 L 21452195.00 34613070.00 L 21442684.00 34590109.00 L 21419723.00 34580598.00 L 21396762.00 34590109.00 L 21387251.00 34613070.00 L 21387251.00 36253070.00 L 21396762.00 36276031.00 L 21419723.00 36285542.00 L 21442684.00 36276031.00  z"/>
<path id="N" d="M 19412684.00 36276031.00 L 19422195.00 36253070.00 L 19422195.00 34613070.00 L 19412684.00 34590109.00 L 19389723.00 34580598.00 L 19366762.00 34590109.00 L 19357251.00 34613070.00 L 19357251.00 36253070.00 L 19366762.00 36276031.00 L 19389723.00 36285542.00 L 19412684.00 36276031.00  z"/>
</g>
</svg>
