<svg width="41.99999982mm" height="20.00000064mm" viewBox="0 0 16535433 7874016"  version="1.1" xmlns="http://www.w3.org/2000/svg" xmlns:xlink="http://www.w3.org/1999/xlink">
<desc>
Origin 7874016 35433071 Bound 7874016 31496063 16535433 7874016
</desc>
<g fill-rule="evenodd" fill="rgb(128, 0, 128)" stroke="black" stroke-width="1" transform="translate(0, 7874016) scale(1, -1) translate(-7874016, -31496063)">
<path id="N" d="M 20665853.00 31496063.00 L 7874016.00 31496063.00 L 7874016.00 39370079.00 L 20665853.00 39370079.00 A 3941715.67 3941715.67 0 0 0 20665853.00 31496063.00  zM 8423229.52 33661416.25 m -251366.75 0 a 251366.75 251366.75 0 1 1 502733.51 0a 251366.75 251366.75 0 1 1 -502733.51 0M 9624015.13 32933073.48 m -241327.52 0 a 241327.52 241327.52 0 1 1 482655.04 0a 241327.52 241327.52 0 1 1 -482655.04 0M 10214566.13 34389766.48 m -241327.52 0 a 241327.52 241327.52 0 1 1 482655.04 0a 241327.52 241327.52 0 1 1 -482655.04 0M 9270158.00 34626457.00 L 8796772.00 34626457.00 L 8796772.00 34153071.00 L 9270158.00 34153071.00 L 9270158.00 34626457.00  zM 10603544.00 35767716.00 L 9619292.00 35767716.00 L 9619292.00 35098426.00 L 10603544.00 35098426.00 L 10603544.00 35767716.00  zM 10805118.13 32933073.48 m -241327.52 0 a 241327.52 241327.52 0 1 1 482655.04 0a 241327.52 241327.52 0 1 1 -482655.04 0M 13385826.50 32677161.69 m -652752.45 0 a 652752.45 652752.45 0 1 1 1305504.90 0a 652752.45 652752.45 0 1 1 -1305504.90 0M 11415349.52 33661416.25 m -251366.75 0 a 251366.75 251366.75 0 1 1 502733.51 0a 251366.75 251366.75 0 1 1 -502733.51 0M 11052441.00 35669134.00 L 10795591.00 35669134.00 L 10795591.00 35197008.00 L 11052441.00 35197008.00 L 11052441.00 35669134.00  zM 9028740.00 35767716.00 L 8044488.00 35767716.00 L 8044488.00 35098426.00 L 9028740.00 35098426.00 L 9028740.00 35767716.00  zM 9624797.13 36476380.48 m -241327.52 0 a 241327.52 241327.52 0 1 1 482655.04 0a 241327.52 241327.52 0 1 1 -482655.04 0M 8424016.52 37204722.25 m -251366.75 0 a 251366.75 251366.75 0 1 1 502733.51 0a 251366.75 251366.75 0 1 1 -502733.51 0M 9034245.13 37933073.48 m -241327.52 0 a 241327.52 241327.52 0 1 1 482655.04 0a 241327.52 241327.52 0 1 1 -482655.04 0M 10215348.13 37933073.48 m -241327.52 0 a 241327.52 241327.52 0 1 1 482655.04 0a 241327.52 241327.52 0 1 1 -482655.04 0M 11702993.00 35669134.00 L 11446143.00 35669134.00 L 11446143.00 35197008.00 L 11702993.00 35197008.00 L 11702993.00 35669134.00  zM 11042593.00 36713071.00 L 10569207.00 36713071.00 L 10569207.00 36239685.00 L 11042593.00 36239685.00 L 11042593.00 36713071.00  zM 11416136.52 37204722.25 m -251366.75 0 a 251366.75 251366.75 0 1 1 502733.51 0a 251366.75 251366.75 0 1 1 -502733.51 0M 13385826.50 38188973.69 m -652752.45 0 a 652752.45 652752.45 0 1 1 1305504.90 0a 652752.45 652752.45 0 1 1 -1305504.90 0M 15703779.00 33306536.00 L 15269449.00 33306536.00 L 15269449.00 32911576.00 L 15703779.00 32911576.00 L 15703779.00 33306536.00  zM 16491181.00 32932520.00 L 16056851.00 32932520.00 L 16056851.00 32537560.00 L 16491181.00 32537560.00 L 16491181.00 32932520.00  zM 16491181.00 33680551.00 L 16056851.00 33680551.00 L 16056851.00 33285591.00 L 16491181.00 33285591.00 L 16491181.00 33680551.00  zM 14534882.00 35706535.00 L 14100552.00 35706535.00 L 14100552.00 35311575.00 L 14534882.00 35311575.00 L 14534882.00 35706535.00  zM 15441181.00 35335276.00 L 15006851.00 35335276.00 L 15006851.00 34979686.00 L 15441181.00 34979686.00 L 15441181.00 35335276.00  zM 13747480.00 36080551.00 L 13313150.00 36080551.00 L 13313150.00 35685591.00 L 13747480.00 35685591.00 L 13747480.00 36080551.00  zM 15441181.00 35886457.00 L 15006851.00 35886457.00 L 15006851.00 35530867.00 L 15441181.00 35530867.00 L 15441181.00 35886457.00  zM 16325618.00 35951885.00 L 16001562.00 35951885.00 A 96771.86 96771.86 0 0 1 16001562.00 35758351.00 L 16325618.00 35758351.00 A 96771.86 96771.86 0 0 1 16325618.00 35951885.00  zM 16325618.00 35695980.00 L 16001562.00 35695980.00 A 96771.86 96771.86 0 0 1 16001562.00 35502446.00 L 16325618.00 35502446.00 A 96771.86 96771.86 0 0 1 16325618.00 35695980.00  zM 14534882.00 36454566.00 L 14100552.00 36454566.00 L 14100552.00 36059606.00 L 14534882.00 36059606.00 L 14534882.00 36454566.00  zM 15441181.00 36385275.00 L 15006851.00 36385275.00 L 15006851.00 36029685.00 L 15441181.00 36029685.00 L 15441181.00 36385275.00  zM 16325618.00 36207791.00 L 16001562.00 36207791.00 A 96771.86 96771.86 0 1 1 16001562.00 36014257.00 L 16325618.00 36014257.00 A 96771.86 96771.86 0 1 1 16325618.00 36207791.00  zM 16420526.00 36461837.00 L 15906654.00 36461837.00 L 15906654.00 36272021.00 L 16420526.00 36272021.00 L 16420526.00 36461837.00  zM 15441181.00 36936456.00 L 15006851.00 36936456.00 L 15006851.00 36580866.00 L 15441181.00 36580866.00 L 15441181.00 36936456.00  zM 16307874.00 37124016.00 L 15933858.00 37124016.00 L 15933858.00 36750000.00 L 16307874.00 36750000.00 L 16307874.00 37124016.00  zM 16307874.00 37616142.00 L 15933858.00 37616142.00 L 15933858.00 37242126.00 L 16307874.00 37242126.00 L 16307874.00 37616142.00  zM 16626221.00 38884881.00 L 16191891.00 38884881.00 L 16191891.00 38411181.00 L 16626221.00 38411181.00 L 16626221.00 38884881.00  zM 17520866.00 33837401.00 L 17127166.00 33837401.00 L 17127166.00 33128741.00 L 17520866.00 33128741.00 L 17520866.00 33837401.00  zM 18041181.00 34685276.00 L 17606851.00 34685276.00 L 17606851.00 34329686.00 L 18041181.00 34329686.00 L 18041181.00 34685276.00  zM 17424251.00 35250236.00 L 17068661.00 35250236.00 L 17068661.00 34815906.00 L 17424251.00 34815906.00 L 17424251.00 35250236.00  zM 16873070.00 35250236.00 L 16517480.00 35250236.00 L 16517480.00 34815906.00 L 16873070.00 34815906.00 L 16873070.00 35250236.00  zM 18041181.00 35236457.00 L 17606851.00 35236457.00 L 17606851.00 34880867.00 L 18041181.00 34880867.00 L 18041181.00 35236457.00  zM 17940170.00 35951885.00 L 17616114.00 35951885.00 A 96771.86 96771.86 0 0 1 17616114.00 35758351.00 L 17940170.00 35758351.00 A 96771.86 96771.86 0 0 1 17940170.00 35951885.00  zM 17940170.00 35695980.00 L 17616114.00 35695980.00 A 96771.86 96771.86 0 0 1 17616114.00 35502446.00 L 17940170.00 35502446.00 A 96771.86 96771.86 0 0 1 17940170.00 35695980.00  zM 18788031.00 35335276.00 L 18353701.00 35335276.00 L 18353701.00 34979686.00 L 18788031.00 34979686.00 L 18788031.00 35335276.00  zM 18788031.00 35886457.00 L 18353701.00 35886457.00 L 18353701.00 35530867.00 L 18788031.00 35530867.00 L 18788031.00 35886457.00  zM 19320866.00 33087401.00 L 18927166.00 33087401.00 L 18927166.00 32378741.00 L 19320866.00 32378741.00 L 19320866.00 33087401.00  zM 19853109.00 34604684.00 L 19497519.00 34604684.00 L 19497519.00 34170354.00 L 19853109.00 34170354.00 L 19853109.00 34604684.00  zM 20970866.00 33087401.00 L 20577166.00 33087401.00 L 20577166.00 32378741.00 L 20970866.00 32378741.00 L 20970866.00 33087401.00  zM 21391181.00 34085276.00 L 20956851.00 34085276.00 L 20956851.00 33729686.00 L 21391181.00 33729686.00 L 21391181.00 34085276.00  zM 19301928.00 34604684.00 L 18946338.00 34604684.00 L 18946338.00 34170354.00 L 19301928.00 34170354.00 L 19301928.00 34604684.00  zM 19301927.00 35204684.00 L 18946337.00 35204684.00 L 18946337.00 34770354.00 L 19301927.00 34770354.00 L 19301927.00 35204684.00  zM 19853108.00 35204684.00 L 19497518.00 35204684.00 L 19497518.00 34770354.00 L 19853108.00 34770354.00 L 19853108.00 35204684.00  zM 21391181.00 34636457.00 L 20956851.00 34636457.00 L 20956851.00 34280867.00 L 21391181.00 34280867.00 L 21391181.00 34636457.00  zM 16873070.00 37150236.00 L 16517480.00 37150236.00 L 16517480.00 36715906.00 L 16873070.00 36715906.00 L 16873070.00 37150236.00  zM 17424251.00 37150236.00 L 17068661.00 37150236.00 L 17068661.00 36715906.00 L 17424251.00 36715906.00 L 17424251.00 37150236.00  zM 17940170.00 36207791.00 L 17616114.00 36207791.00 A 96771.86 96771.86 0 0 1 17616114.00 36014257.00 L 17940170.00 36014257.00 A 96771.86 96771.86 0 1 1 17940170.00 36207791.00  zM 17940170.00 36463696.00 L 17616114.00 36463696.00 A 96771.86 96771.86 0 0 1 17616114.00 36270162.00 L 17940170.00 36270162.00 A 96771.86 96771.86 0 1 1 17940170.00 36463696.00  zM 18007874.00 37124016.00 L 17633858.00 37124016.00 L 17633858.00 36750000.00 L 18007874.00 36750000.00 L 18007874.00 37124016.00  zM 18007874.00 37616142.00 L 17633858.00 37616142.00 L 17633858.00 37242126.00 L 18007874.00 37242126.00 L 18007874.00 37616142.00  zM 18021496.00 38215589.00 L 17626536.00 38215589.00 L 17626536.00 37820629.00 L 18021496.00 37820629.00 L 18021496.00 38215589.00  zM 17256142.00 38884881.00 L 16821812.00 38884881.00 L 16821812.00 38411181.00 L 17256142.00 38411181.00 L 17256142.00 38884881.00  zM 18021496.00 38845511.00 L 17626536.00 38845511.00 L 17626536.00 38450551.00 L 18021496.00 38450551.00 L 18021496.00 38845511.00  zM 18788031.00 36385275.00 L 18353701.00 36385275.00 L 18353701.00 36029685.00 L 18788031.00 36029685.00 L 18788031.00 36385275.00  zM 18788031.00 36936456.00 L 18353701.00 36936456.00 L 18353701.00 36580866.00 L 18788031.00 36580866.00 L 18788031.00 36936456.00  zM 19841731.00 36379566.00 L 19467715.00 36379566.00 L 19467715.00 36005550.00 L 19841731.00 36005550.00 L 19841731.00 36379566.00  zM 19841731.00 36871692.00 L 19467715.00 36871692.00 L 19467715.00 36497676.00 L 19841731.00 36497676.00 L 19841731.00 36871692.00  zM 20475433.00 36619921.00 L 20041103.00 36619921.00 L 20041103.00 36146221.00 L 20475433.00 36146221.00 L 20475433.00 36619921.00  zM 20478346.00 38229921.00 L 19769686.00 38229921.00 L 19769686.00 37836221.00 L 20478346.00 37836221.00 L 20478346.00 38229921.00  zM 21006929.00 36619921.00 L 20572599.00 36619921.00 L 20572599.00 36146221.00 L 21006929.00 36146221.00 L 21006929.00 36619921.00  zM 22720866.00 36437401.00 L 22327166.00 36437401.00 L 22327166.00 35728741.00 L 22720866.00 35728741.00 L 22720866.00 36437401.00  z"/>
</g>
</svg>
