<svg width="41.99999982mm" height="20.00000064mm" viewBox="0 0 16535433 7874016"  version="1.1" xmlns="http://www.w3.org/2000/svg" xmlns:xlink="http://www.w3.org/1999/xlink">
<desc>
Origin 7874016 35433071 Bound 7874016 31496063 16535433 7874016
</desc>
<g fill-rule="evenodd" fill="rgb(128, 128, 0)" stroke="black" stroke-width="1" transform="translate(0, 7874016) scale(1, -1) translate(-7874016, -31496063)">
<path id="N" d="M 19235433.00 35452700.00 L 19231937.00 35416429.00 L 19224508.00 35386713.00 A 88681.57 88681.57 0 0 0 19174690.00 35338206.00 L 19151529.00 35332088.00 L 19116132.00 35328592.00 L 19080298.00 35332525.00 L 19056700.00 35339954.00 L 19036161.00 35351753.00 L 19022177.00 35366174.00 L 19010378.00 35384091.00 L 19004697.00 35399386.00 L 18998579.00 35440464.00 L 18997705.00 35636240.00 L 19037909.00 35636240.00 L 19038783.00 35441775.00 L 19045338.00 35406378.00 L 19053641.00 35388461.00 L 19065003.00 35377973.00 L 19084668.00 35369670.00 L 19108703.00 35365300.00 L 19137108.00 35366611.00 L 19156336.00 35371855.00 L 19169446.00 35378847.00 L 19182119.00 35392831.00 L 19189548.00 35407252.00 L 19194355.00 35439590.00 L 19195229.00 35636240.00 L 19235433.00 35636240.00 L 19235433.00 35452700.00  z"/>
<path id="N" d="M 19220865.95 36483070.95 m -101959.21 0 a 101959.21 101959.21 0 1 1 203918.42 0a 101959.21 101959.21 0 1 1 -203918.42 0"/>
<path id="N" d="M 18834704.00 35630122.00 L 18855680.00 35604776.00 L 18881900.00 35582489.00 L 18917734.00 35561513.00 L 18917734.00 35525679.00 L 18911179.00 35528301.00 L 18870975.00 35549277.00 L 18843444.00 35570253.00 L 18843444.00 35333836.00 L 18806299.00 35333836.00 L 18806299.00 35637551.00 L 18830334.00 35637551.00 L 18834704.00 35630122.00  z"/>
<path id="N" d="M 21442684.00 36276031.00 L 21452195.00 36253070.00 L 21452195.00 34613070.00 L 21442684.00 34590109.00 L 21419723.00 34580598.00 L 21396762.00 34590109.00 L 21387251.00 34613070.00 L 21387251.00 36253070.00 L 21396762.00 36276031.00 L 21419723.00 36285542.00 L 21442684.00 36276031.00  z"/>
<path id="N" d="M 19412684.00 36276031.00 L 19422195.00 36253070.00 L 19422195.00 34613070.00 L 19412684.00 34590109.00 L 19389723.00 34580598.00 L 19366762.00 34590109.00 L 19357251.00 34613070.00 L 19357251.00 36253070.00 L 19366762.00 36276031.00 L 19389723.00 36285542.00 L 19412684.00 36276031.00  z"/>
</g>
</svg>
