<svg width="35.90526474mm" height="21.80000212mm" viewBox="0 0 14135931 8582678"  version="1.1" xmlns="http://www.w3.org/2000/svg" xmlns:xlink="http://www.w3.org/1999/xlink">
<desc>
Origin 9055113 35433070 Bound 9055118 31141731 14135931 8582678
</desc>
<g fill-rule="evenodd" fill="rgb(255, 0, 255)" stroke="black" stroke-width="1" transform="translate(0, 8582678) scale(1, -1) translate(-9055118, -31141731)">
<path id="N" d="M 19085059.00 31141641.00 L 9055118.00 31141732.00 L 9055118.00 39724409.00 L 19085059.00 39724498.00 A 4295379.07 4295379.07 0 0 0 19085059.00 31141641.00  zM 10472435.13 32165355.48 m -241327.52 0 a 241327.52 241327.52 0 1 1 482655.04 0a 241327.52 241327.52 0 1 1 -482655.04 0M 11200783.52 31555121.25 m -251366.75 0 a 251366.75 251366.75 0 1 1 502733.51 0a 251366.75 251366.75 0 1 1 -502733.51 0M 10472435.13 33346458.48 m -241327.52 0 a 241327.52 241327.52 0 1 1 482655.04 0a 241327.52 241327.52 0 1 1 -482655.04 0M 11200783.52 34547241.25 m -251366.75 0 a 251366.75 251366.75 0 1 1 502733.51 0a 251366.75 251366.75 0 1 1 -502733.51 0M 12165822.00 34173700.00 L 11692436.00 34173700.00 L 11692436.00 33700314.00 L 12165822.00 33700314.00 L 12165822.00 34173700.00  zM 11200783.52 36318771.25 m -251366.75 0 a 251366.75 251366.75 0 1 1 502733.51 0a 251366.75 251366.75 0 1 1 -502733.51 0M 10472435.13 36929005.48 m -241327.52 0 a 241327.52 241327.52 0 1 1 482655.04 0a 241327.52 241327.52 0 1 1 -482655.04 0M 10472435.13 38110108.48 m -241327.52 0 a 241327.52 241327.52 0 1 1 482655.04 0a 241327.52 241327.52 0 1 1 -482655.04 0M 11929128.13 37519557.48 m -241327.52 0 a 241327.52 241327.52 0 1 1 482655.04 0a 241327.52 241327.52 0 1 1 -482655.04 0M 11200783.52 39310891.25 m -251366.75 0 a 251366.75 251366.75 0 1 1 502733.51 0a 251366.75 251366.75 0 1 1 -502733.51 0M 12165822.00 38937350.00 L 11692436.00 38937350.00 L 11692436.00 38463964.00 L 12165822.00 38463964.00 L 12165822.00 38937350.00  zM 11929128.13 32755907.48 m -241327.52 0 a 241327.52 241327.52 0 1 1 482655.04 0a 241327.52 241327.52 0 1 1 -482655.04 0M 13385821.88 32224441.22 m -652716.78 0 a 652716.78 652716.78 0 1 1 1305433.57 0a 652716.78 652716.78 0 1 1 -1305433.57 0M 18679920.00 34663070.00 L 18479920.00 34663070.00 L 18479920.00 34191968.00 L 18679920.00 34191968.00 L 18679920.00 34663070.00  zM 13385821.88 38641764.22 m -652716.78 0 a 652716.78 652716.78 0 1 1 1305433.57 0a 652716.78 652716.78 0 1 1 -1305433.57 0M 18179920.00 36674172.00 L 17979920.00 36674172.00 L 17979920.00 36203070.00 L 18179920.00 36203070.00 L 18179920.00 36674172.00  zM 18179920.00 34663070.00 L 17979920.00 34663070.00 L 17979920.00 34191968.00 L 18179920.00 34191968.00 L 18179920.00 34663070.00  zM 19179920.00 34663070.00 L 18979920.00 34663070.00 L 18979920.00 34191968.00 L 19179920.00 34191968.00 L 19179920.00 34663070.00  zM 19679920.00 34663070.00 L 19479920.00 34663070.00 L 19479920.00 34191968.00 L 19679920.00 34191968.00 L 19679920.00 34663070.00  zM 19679920.00 36674172.00 L 19479920.00 36674172.00 L 19479920.00 36203070.00 L 19679920.00 36203070.00 L 19679920.00 36674172.00  zM 18679920.00 36674172.00 L 18479920.00 36674172.00 L 18479920.00 36203070.00 L 18679920.00 36203070.00 L 18679920.00 36674172.00  zM 19179920.00 36674172.00 L 18979920.00 36674172.00 L 18979920.00 36203070.00 L 19179920.00 36203070.00 L 19179920.00 36674172.00  z"/>
</g>
</svg>
