<svg width="35.90526474mm" height="21.80000212mm" viewBox="0 0 14135931 8582678"  version="1.1" xmlns="http://www.w3.org/2000/svg" xmlns:xlink="http://www.w3.org/1999/xlink">
<desc>
Origin 9055113 35433070 Bound 9055118 31141731 14135931 8582678
</desc>
<g fill-rule="evenodd" fill="rgb(0, 0, 255)" stroke="black" stroke-width="1" transform="translate(0, 8582678) scale(1, -1) translate(-9055118, -31141731)">
<path id="N" d="M 19179920.00 36203070.00 L 19134040.00 36203070.00 L 19134040.00 36080681.00 L 19431861.00 35782860.00 L 20843325.26 35782860.00 L 20864060.00 35813893.00 A 120431.73 120431.73 0 1 0 20864060.00 35643587.00 L 20843325.26 35674620.00 L 19409443.00 35674619.00 L 19371174.00 35690471.00 L 19041651.00 36019994.00 L 19025800.00 36058265.41 L 19025800.00 36203070.00 L 18979920.00 36203070.00 L 18979920.00 36674172.00 L 19179920.00 36674172.00 L 19179920.00 36203070.00  z"/>
<path id="N" d="M 20949221.16 36437410.16 m -120412.98 0 a 120412.98 120412.98 0 1 1 240825.96 0a 120412.98 120412.98 0 1 1 -240825.96 0"/>
<path id="N" d="M 18179920.00 34191968.00 L 18134040.00 34191968.00 L 18134040.00 33964150.74 L 18165073.00 33943416.00 A 120431.73 120431.73 0 1 0 17994767.00 33943416.00 L 18025800.00 33964150.74 L 18025800.00 34191968.00 L 17979920.00 34191968.00 L 17979920.00 34663070.00 L 18179920.00 34663070.00 L 18179920.00 34191968.00  z"/>
<path id="N" d="M 13405121.16 31350794.16 m -120412.98 0 a 120412.98 120412.98 0 1 1 240825.96 0a 120412.98 120412.98 0 1 1 -240825.96 0"/>
<path id="N" d="M 12792666.16 31604481.16 m -120412.98 0 a 120412.98 120412.98 0 1 1 240825.96 0a 120412.98 120412.98 0 1 1 -240825.96 0"/>
<path id="N" d="M 14017576.16 31604481.16 m -120412.98 0 a 120412.98 120412.98 0 1 1 240825.96 0a 120412.98 120412.98 0 1 1 -240825.96 0"/>
<path id="N" d="M 12538979.16 32216936.16 m -120412.98 0 a 120412.98 120412.98 0 1 1 240825.96 0a 120412.98 120412.98 0 1 1 -240825.96 0"/>
<path id="N" d="M 14017576.16 32829391.16 m -120412.98 0 a 120412.98 120412.98 0 1 1 240825.96 0a 120412.98 120412.98 0 1 1 -240825.96 0"/>
<path id="N" d="M 12792666.16 32829391.16 m -120412.98 0 a 120412.98 120412.98 0 1 1 240825.96 0a 120412.98 120412.98 0 1 1 -240825.96 0"/>
<path id="N" d="M 13405121.16 33083078.16 m -120412.98 0 a 120412.98 120412.98 0 1 1 240825.96 0a 120412.98 120412.98 0 1 1 -240825.96 0"/>
<path id="N" d="M 14271263.16 32216936.16 m -120412.98 0 a 120412.98 120412.98 0 1 1 240825.96 0a 120412.98 120412.98 0 1 1 -240825.96 0"/>
<path id="N" d="M 12792666.16 39229391.16 m -120412.98 0 a 120412.98 120412.98 0 1 1 240825.96 0a 120412.98 120412.98 0 1 1 -240825.96 0"/>
<path id="N" d="M 12538979.16 38616936.16 m -120412.98 0 a 120412.98 120412.98 0 1 1 240825.96 0a 120412.98 120412.98 0 1 1 -240825.96 0"/>
<path id="N" d="M 13405121.16 37750794.16 m -120412.98 0 a 120412.98 120412.98 0 1 1 240825.96 0a 120412.98 120412.98 0 1 1 -240825.96 0"/>
<path id="N" d="M 14017576.16 38004481.16 m -120412.98 0 a 120412.98 120412.98 0 1 1 240825.96 0a 120412.98 120412.98 0 1 1 -240825.96 0"/>
<path id="N" d="M 14271263.16 38616936.16 m -120412.98 0 a 120412.98 120412.98 0 1 1 240825.96 0a 120412.98 120412.98 0 1 1 -240825.96 0"/>
<path id="N" d="M 13405121.16 39483078.16 m -120412.98 0 a 120412.98 120412.98 0 1 1 240825.96 0a 120412.98 120412.98 0 1 1 -240825.96 0"/>
<path id="N" d="M 12792666.16 38004481.16 m -120412.98 0 a 120412.98 120412.98 0 1 1 240825.96 0a 120412.98 120412.98 0 1 1 -240825.96 0"/>
<path id="N" d="M 14017576.16 39229391.16 m -120412.98 0 a 120412.98 120412.98 0 1 1 240825.96 0a 120412.98 120412.98 0 1 1 -240825.96 0"/>
<path id="N" d="M 10472438.29 36968505.29 m -210738.62 0 a 210738.62 210738.62 0 1 1 421477.24 0a 210738.62 210738.62 0 1 1 -421477.24 0M 10472438.38 36968497.09 m -140500.91 0 a 140500.91 140500.91 0 1 1 281001.82 0a 140500.91 140500.91 0 1 1 -281001.82 0"/>
<path id="N" d="M 18040266.00 35647917.00 L 18009233.00 35627182.26 L 18009233.00 35210294.97 L 18556457.10 34663070.00 L 18679920.00 34663070.00 L 18679920.00 34191968.00 L 18634040.00 34191968.00 L 18634040.00 33147739.86 L 18651197.00 33144327.00 A 120412.98 120412.98 0 1 0 18519960.00 33118223.00 L 18525800.00 33122125.00 L 18525800.00 34191968.00 L 18479920.00 34191968.00 L 18479920.00 34586532.90 L 17916844.00 35149608.00 L 17900993.00 35187879.41 L 17900993.00 35627182.26 L 17869960.00 35647917.00 A 120431.73 120431.73 0 1 0 18040266.00 35647917.00  z"/>
<path id="N" d="M 10472438.29 32125985.29 m -210738.62 0 a 210738.62 210738.62 0 1 1 421477.24 0a 210738.62 210738.62 0 1 1 -421477.24 0M 10472438.38 32125977.09 m -140500.91 0 a 140500.91 140500.91 0 1 1 281001.82 0a 140500.91 140500.91 0 1 1 -281001.82 0"/>
<path id="N" d="M 17949221.16 33087410.16 m -120412.98 0 a 120412.98 120412.98 0 1 1 240825.96 0a 120412.98 120412.98 0 1 1 -240825.96 0"/>
<path id="N" d="M 17949221.16 32378748.16 m -120412.98 0 a 120412.98 120412.98 0 1 1 240825.96 0a 120412.98 120412.98 0 1 1 -240825.96 0"/>
<path id="N" d="M 18840794.00 37047389.00 L 18840794.00 36268750.00 L 18769433.00 36197390.00 L 18497580.00 36197390.00 L 18491900.00 36203070.00 L 18479920.00 36203070.00 L 18479920.00 36215050.00 L 18424650.00 36270320.00 L 18424650.00 37052606.00 L 18515042.00 37142999.00 L 18745182.00 37143000.00 L 18840794.00 37047389.00  z"/>
<path id="N" d="M 10472438.29 33307088.29 m -210738.62 0 a 210738.62 210738.62 0 1 1 421477.24 0a 210738.62 210738.62 0 1 1 -421477.24 0M 10472438.38 33307080.09 m -140500.91 0 a 140500.91 140500.91 0 1 1 281001.82 0a 140500.91 140500.91 0 1 1 -281001.82 0"/>
<path id="N" d="M 10472438.29 38149608.29 m -210738.62 0 a 210738.62 210738.62 0 1 1 421477.24 0a 210738.62 210738.62 0 1 1 -421477.24 0M 10472438.38 38149600.09 m -140500.91 0 a 140500.91 140500.91 0 1 1 281001.82 0a 140500.91 140500.91 0 1 1 -281001.82 0"/>
<path id="N" d="M 18299210.00 37641967.00 L 18299203.00 36291966.00 L 18199207.00 36191970.00 L 17949207.00 36191970.00 L 17849207.00 36291972.00 L 17849207.00 36384501.00 L 17633081.06 36384501.00 L 17409233.00 36160652.06 L 17409233.00 35136438.74 L 17440266.00 35115704.00 A 120431.73 120431.73 0 1 0 17269960.00 35115704.00 L 17300993.00 35136438.74 L 17300992.00 36183070.00 L 17316844.00 36221339.00 L 17572395.00 36476890.00 L 17610666.41 36492741.00 L 17849207.00 36492741.00 L 17849207.00 37641967.00 L 17949208.00 37741969.00 L 18199209.00 37741969.00 L 18299210.00 37641967.00  z"/>
<path id="N" d="M 13640266.00 36797917.00 L 13609233.00 36777182.26 L 13609233.00 35038957.74 L 13640266.00 35018223.00 A 120431.73 120431.73 0 1 0 13469960.00 35018223.00 L 13500993.00 35038957.74 L 13500993.00 36777182.26 L 13469960.00 36797917.00 A 120431.73 120431.73 0 1 0 13640266.00 36797917.00  z"/>
<path id="N" d="M 9567719.16 35826779.16 m -120412.98 0 a 120412.98 120412.98 0 1 1 240825.96 0a 120412.98 120412.98 0 1 1 -240825.96 0"/>
<path id="N" d="M 17753552.16 37983079.16 m -120412.98 0 a 120412.98 120412.98 0 1 1 240825.96 0a 120412.98 120412.98 0 1 1 -240825.96 0"/>
<path id="N" d="M 15300790.16 38033078.16 m -120412.98 0 a 120412.98 120412.98 0 1 1 240825.96 0a 120412.98 120412.98 0 1 1 -240825.96 0"/>
<path id="N" d="M 9567719.16 35039377.16 m -120412.98 0 a 120412.98 120412.98 0 1 1 240825.96 0a 120412.98 120412.98 0 1 1 -240825.96 0"/>
<path id="N" d="M 16009452.16 38033078.16 m -120412.98 0 a 120412.98 120412.98 0 1 1 240825.96 0a 120412.98 120412.98 0 1 1 -240825.96 0"/>
<path id="N" d="M 12135822.00 38533464.00 L 11798974.00 38533464.00 L 11626556.00 38361046.00 L 11626556.00 35788165.00 L 12112949.00 35301772.00 L 12308968.24 35301772.00 L 12319960.00 35318223.00 A 120431.73 120431.73 0 1 0 12293856.00 35186986.00 L 12292553.87 35193532.00 L 12090531.00 35193531.00 L 12052262.00 35209383.00 L 11534167.00 35727478.00 L 11518316.00 35765749.41 L 11518315.00 38383464.00 L 11534167.00 38421733.00 L 11722436.00 38610002.00 L 11722436.00 38946850.00 L 12135822.00 38946850.00 L 12135822.00 38533464.00  zM 11929131.38 38740151.09 m -140500.91 0 a 140500.91 140500.91 0 1 1 281001.82 0a 140500.91 140500.91 0 1 1 -281001.82 0"/>
<path id="N" d="M 19140266.00 34897917.00 L 19121636.00 34885469.34 L 19121636.00 34663070.00 L 19179920.00 34663070.00 L 19179920.00 34191968.00 L 19121636.00 34191968.00 L 19121636.00 33830670.66 L 19140266.00 33818223.00 A 120431.73 120431.73 0 1 0 19009029.00 33844327.00 L 19013396.00 33845195.68 L 19013396.00 34191968.00 L 18979920.00 34191968.00 L 18979920.00 34663070.00 L 19013396.00 34663070.00 L 19013396.00 34870944.32 L 19009029.00 34871813.00 A 120412.98 120412.98 0 1 0 19140266.00 34897917.00  z"/>
<path id="N" d="M 12135822.00 33690944.00 L 11722436.00 33690944.00 L 11722436.00 34104330.00 L 12135822.00 34104330.00 L 12135822.00 33690944.00  zM 11929131.38 33897631.09 m -140500.91 0 a 140500.91 140500.91 0 1 1 281001.82 0a 140500.91 140500.91 0 1 1 -281001.82 0"/>
<path id="N" d="M 17055121.16 33837409.16 m -120412.98 0 a 120412.98 120412.98 0 1 1 240825.96 0a 120412.98 120412.98 0 1 1 -240825.96 0"/>
<path id="N" d="M 17055121.16 33128748.16 m -120412.98 0 a 120412.98 120412.98 0 1 1 240825.96 0a 120412.98 120412.98 0 1 1 -240825.96 0"/>
<path id="N" d="M 19679920.00 34191968.00 L 19634040.00 34191968.00 L 19634040.00 33930681.00 L 19768508.37 33796212.63 L 19805113.00 33803494.00 A 120431.73 120431.73 0 1 0 19684689.00 33683070.00 L 19691970.37 33719674.63 L 19541651.00 33869994.00 L 19525800.00 33908265.41 L 19525800.00 34191968.00 L 19479920.00 34191968.00 L 19479920.00 34663070.00 L 19679920.00 34663070.00 L 19679920.00 34191968.00  z"/>
<path id="N" d="M 19085059.00 31141641.00 L 13972779.84 31141731.50 L 13959382.30 31191731.82 L 14043420.00 31240251.00 A 1183665.93 1183665.93 0 1 1 12728233.00 31240251.00 L 12812270.50 31191731.93 L 12798872.96 31141731.62 L 9055118.00 31141732.00 L 9055118.00 39724409.00 L 12798874.03 39724409.00 L 12812271.57 39674408.68 L 12728233.00 39625889.00 A 1183665.93 1183665.93 0 0 1 12324255.00 39165240.00 L 12281674.10 39062439.72 L 12235819.93 39046850.00 L 11622436.00 39046850.00 L 11622436.00 38649752.00 L 11464292.00 38491608.00 L 11431139.00 38441991.00 L 11419497.00 38383464.00 L 11419497.00 36655237.08 L 11369496.50 36626369.08 L 11322961.00 36653236.00 A 319256.99 319256.99 0 1 1 11322961.00 36063310.00 L 11369496.50 36090176.92 L 11419497.00 36061308.92 L 11419497.00 35765747.00 L 11431139.00 35707220.00 L 11464292.00 35657603.00 L 11982387.00 35139508.00 L 12032004.00 35106355.00 L 12090531.00 35094713.00 L 12235016.00 35094713.00 L 12281564.00 35048165.00 A 222382.84 222382.84 0 1 1 12281564.00 35417975.00 L 12264180.00 35400591.00 L 12153880.00 35400591.00 L 11725375.00 35829096.00 L 11725375.00 37523924.64 L 11718387.00 37559055.00 L 11725375.00 37594185.36 L 11725375.00 38320115.00 L 11838724.00 38433464.00 L 12221951.47 38433464.00 L 12224933.00 38410816.00 A 1183701.70 1183701.70 0 1 1 14043420.00 39625889.00 L 13959381.43 39674408.68 L 13972778.97 39724409.00 L 19085059.00 39724498.00 A 4295379.07 4295379.07 0 0 0 19085059.00 31141641.00  zM 10472436.00 32125988.82 m -309333.68 0 a 309333.68 309333.68 0 1 1 618667.36 0a 309333.68 309333.68 0 1 1 -618667.36 0M 11200783.00 31515762.51 m -319256.99 0 a 319256.99 319256.99 0 1 1 638513.99 0a 319256.99 319256.99 0 1 1 -638513.99 0M 10472436.00 33307091.82 m -309333.68 0 a 309333.68 309333.68 0 1 1 618667.36 0a 309333.68 309333.68 0 1 1 -618667.36 0M 11929131.38 32716529.09 m -140500.91 0 a 140500.91 140500.91 0 1 1 281001.82 0a 140500.91 140500.91 0 1 1 -281001.82 0M 9567711.00 35039369.24 m -222382.84 0 a 222382.84 222382.84 0 1 1 444765.67 0a 222382.84 222382.84 0 1 1 -444765.67 0M 11200783.00 34507882.51 m -319256.99 0 a 319256.99 319256.99 0 1 1 638513.99 0a 319256.99 319256.99 0 1 1 -638513.99 0M 12235822.00 34204330.00 L 11622436.00 34204330.00 L 11622436.00 33590944.00 L 12235822.00 33590944.00 L 12235822.00 34204330.00  zM 9567711.00 35826771.24 m -222382.84 0 a 222382.84 222382.84 0 1 1 444765.67 0a 222382.84 222382.84 0 1 1 -444765.67 0M 10472436.00 36968508.82 m -309333.68 0 a 309333.68 309333.68 0 1 1 618667.36 0a 309333.68 309333.68 0 1 1 -618667.36 0M 10472436.00 38149611.82 m -309333.68 0 a 309333.68 309333.68 0 1 1 618667.36 0a 309333.68 309333.68 0 1 1 -618667.36 0M 11200783.00 39350402.51 m -319256.99 0 a 319256.99 319256.99 0 1 1 638513.99 0a 319256.99 319256.99 0 1 1 -638513.99 0M 13370208.00 36759521.00 L 13402174.00 36727555.00 L 13402174.00 35088585.00 L 13370208.00 35056619.00 A 222382.84 222382.84 0 1 1 13740018.00 35056619.00 L 13708052.00 35088585.00 L 13708052.00 36727555.00 L 13740018.00 36759521.00 A 222382.84 222382.84 0 1 1 13370208.00 36759521.00  zM 11929131.38 37559049.09 m -140500.91 0 a 140500.91 140500.91 0 1 1 281001.82 0a 140500.91 140500.91 0 1 1 -281001.82 0M 15300782.00 38033070.24 m -222382.84 0 a 222382.84 222382.84 0 1 1 444765.67 0a 222382.84 222382.84 0 1 1 -444765.67 0M 17949213.00 32378740.24 m -222382.84 0 a 222382.84 222382.84 0 1 1 444765.67 0a 222382.84 222382.84 0 1 1 -444765.67 0M 17949213.00 33087402.24 m -222382.84 0 a 222382.84 222382.84 0 1 1 444765.67 0a 222382.84 222382.84 0 1 1 -444765.67 0M 17055113.00 33128740.24 m -222382.84 0 a 222382.84 222382.84 0 1 1 444765.67 0a 222382.84 222382.84 0 1 1 -444765.67 0M 17055113.00 33837401.24 m -222382.84 0 a 222382.84 222382.84 0 1 1 444765.67 0a 222382.84 222382.84 0 1 1 -444765.67 0M 19779920.00 34763070.00 L 19379920.00 34763070.00 L 19379920.00 34091968.00 L 19426981.00 34091968.00 L 19426981.00 33908263.00 L 19438623.00 33849736.00 L 19471776.00 33800119.00 L 19587003.00 33684892.00 L 19587003.00 33639685.00 A 222383.27 222383.27 0 1 1 19848498.00 33901180.00 L 19803291.00 33901180.00 L 19732859.00 33971612.00 L 19732859.00 34091968.00 L 19779920.00 34091968.00 L 19779920.00 34763070.00  zM 18870208.00 34859521.00 L 18914577.00 34815152.00 L 18914577.00 34763070.00 L 18879920.00 34763070.00 L 18879920.00 34091968.00 L 18914577.00 34091968.00 L 18914577.00 33900988.00 L 18870208.00 33856619.00 A 222382.84 222382.84 0 1 1 19240018.00 33856619.00 L 19220455.00 33876182.00 L 19220455.00 34091968.00 L 19279920.00 34091968.00 L 19279920.00 34763070.00 L 19220455.00 34763070.00 L 19220455.00 34839958.00 L 19240018.00 34859521.00 A 222382.84 222382.84 0 1 1 18870208.00 34859521.00  zM 17770208.00 35609521.00 L 17802174.00 35577555.00 L 17802174.00 35187877.00 L 17813816.00 35129350.00 L 17846969.00 35079733.00 L 18117437.17 34809264.39 L 18098302.81 34763070.00 L 17879920.00 34763070.00 L 17879920.00 34091968.00 L 17926981.00 34091968.00 L 17926981.00 34013778.00 L 17895015.00 33981812.00 A 222382.84 222382.84 0 1 1 18264825.00 33981812.00 L 18232859.00 34013778.00 L 18232859.00 34091968.00 L 18279920.00 34091968.00 L 18279920.00 34581452.49 L 18326114.41 34600586.82 L 18379920.00 34546781.15 L 18379920.00 34091968.00 L 18426981.00 34091968.00 L 18426981.00 33163392.00 L 18420208.00 33156619.00 A 222382.84 222382.84 0 1 1 18790018.00 33156619.00 L 18732859.00 33213778.00 L 18732859.00 34091968.00 L 18779920.00 34091968.00 L 18779920.00 34763070.00 L 18596208.85 34763070.00 L 18108052.00 35251226.07 L 18108052.00 35577555.00 L 18140018.00 35609521.00 A 222382.84 222382.84 0 1 1 17770208.00 35609521.00  zM 16009444.00 38033070.24 m -222382.84 0 a 222382.84 222382.84 0 1 1 444765.67 0a 222382.84 222382.84 0 1 1 -444765.67 0M 17710159.00 37764961.00 L 17757297.57 37764961.00 L 17777111.00 37714063.00 L 17755009.00 37680985.00 L 17747248.00 37641967.00 L 17747248.00 36591560.00 L 17610664.00 36591560.00 L 17552137.00 36579918.00 L 17502520.00 36546765.00 L 17246969.00 36291214.00 L 17213816.00 36241597.00 L 17202174.00 36183070.00 L 17202174.00 35186066.00 L 17170208.00 35154100.00 A 222382.84 222382.84 0 1 1 17540018.00 35154100.00 L 17508052.00 35186066.00 L 17508052.00 36119721.00 L 17674013.00 36285682.00 L 17748499.13 36285682.00 L 17755009.00 36252954.00 L 17777110.00 36219877.00 L 17879920.00 36117997.09 L 17879920.00 36103070.00 L 17902259.34 36103070.00 L 17910188.00 36097772.00 L 17949206.00 36090011.00 L 18199207.00 36090011.00 L 18238225.00 36097772.00 L 18246154.02 36103070.00 L 18279920.00 36103070.00 L 18279920.00 36128491.00 L 18335316.90 36183887.90 L 18379920.00 36157779.75 L 18379920.00 36103070.00 L 18459175.35 36103070.00 L 18497580.00 36095431.00 L 18769433.00 36095431.00 L 18808451.00 36103192.00 L 18829919.54 36117536.81 L 18879919.84 36103068.55 L 18926981.00 36095971.81 L 18926981.00 36058263.00 L 18938623.00 35999736.00 L 18971776.00 35950119.00 L 19301299.00 35620596.00 L 19350916.00 35587443.00 L 19409443.00 35575801.00 L 20793698.00 35575801.00 L 20825664.00 35543835.00 A 222382.84 222382.84 0 1 1 20825664.00 35913645.00 L 20793698.00 35881679.00 L 19472792.00 35881679.00 L 19296220.98 36058250.02 L 19279920.00 36103072.05 L 19279920.00 36774172.00 L 18942753.00 36774172.00 L 18942752.90 37047389.50 L 18934992.00 37086408.00 L 18912886.99 37119487.01 L 18817278.00 37215096.00 L 18784200.00 37237198.00 L 18745182.00 37244959.00 L 18515042.00 37244958.00 L 18476023.00 37237197.00 L 18451167.27 37220588.28 L 18419311.52 37230226.14 L 18401166.93 37241841.93 L 18401169.00 37641966.00 L 18393408.00 37680985.00 L 18371306.00 37714063.00 L 18271305.00 37814065.00 L 18238228.00 37836167.00 L 18199210.00 37843928.00 L 17986109.93 37843928.00 L 17952700.64 37893928.52 L 17971654.00 37939686.00 A 222382.84 222382.84 0 1 1 17710159.00 37764961.00  zM 19479920.00 36388620.00 L 19379920.00 36388620.00 L 19379920.00 36103070.00 L 19529921.00 36103070.00 L 19529921.00 36203070.00 L 19479920.00 36203070.00 L 19479920.00 36388620.00  zM 19529921.00 36774172.00 L 19379920.00 36774172.00 L 19379920.00 36488620.00 L 19479920.00 36488620.00 L 19479920.00 36674172.00 L 19529921.00 36674172.00 L 19529921.00 36774172.00  zM 19779920.00 36388620.00 L 19679920.00 36388620.00 L 19679920.00 36203070.00 L 19629921.00 36203070.00 L 19629921.00 36103070.00 L 19779920.00 36103070.00 L 19779920.00 36388620.00  zM 19779920.00 36774172.00 L 19629921.00 36774172.00 L 19629921.00 36674172.00 L 19679920.00 36674172.00 L 19679920.00 36488620.00 L 19779920.00 36488620.00 L 19779920.00 36774172.00  zM 20949213.00 36437402.24 m -222382.84 0 a 222382.84 222382.84 0 1 1 444765.67 0a 222382.84 222382.84 0 1 1 -444765.67 0"/>
</g>
</svg>
