<svg width="41.99999982mm" height="20.00000064mm" viewBox="0 0 16535433 7874016"  version="1.1" xmlns="http://www.w3.org/2000/svg" xmlns:xlink="http://www.w3.org/1999/xlink">
<desc>
Origin 7874016 35433071 Bound 7874016 31496063 16535433 7874016
</desc>
<g fill-rule="evenodd" fill="rgb(255, 255, 0)" stroke="black" stroke-width="1" transform="translate(0, 7874016) scale(1, -1) translate(-7874016, -31496063)">
<path id="N" d="M 17140295.00 34634492.00 L 17166515.00 34625315.00 L 17183558.00 34612205.00 L 17197979.00 34590355.00 L 17204971.00 34569816.00 L 17205845.00 34557143.00 L 17203223.00 34539663.00 L 17194046.00 34520435.00 L 17181373.00 34508636.00 L 17161271.00 34497274.00 L 17177003.00 34490282.00 L 17197105.00 34474987.00 L 17208030.00 34460129.00 A 86509.88 86509.88 0 0 0 17211526.00 34387150.00 L 17203223.00 34370544.00 L 17190550.00 34354812.00 L 17166515.00 34339080.00 L 17141606.00 34331214.00 L 17114075.00 34328592.00 L 17080863.00 34335147.00 L 17062946.00 34342576.00 L 17045903.00 34354812.00 L 17034978.00 34368796.00 L 17023179.00 34393705.00 L 17018809.00 34420799.00 L 17022305.00 34446145.00 A 67715.68 67715.68 0 0 0 17058139.00 34490282.00 L 17075619.00 34497711.00 L 17057702.00 34506888.00 L 17041533.00 34522183.00 L 17034541.00 34537478.00 L 17031045.00 34559328.00 L 17034104.00 34578556.00 L 17043718.00 34601280.00 L 17054643.00 34614827.00 L 17075619.00 34628374.00 L 17103587.00 34636677.00 L 17140295.00 34634492.00  zM 17101839.00 34479357.00 L 17080426.00 34469743.00 A 64947.56 64947.56 0 0 1 17080863.00 34370544.00 L 17095721.00 34363115.00 L 17118445.00 34359182.00 L 17141169.00 34363552.00 L 17155590.00 34370544.00 L 17168263.00 34383217.00 A 60931.81 60931.81 0 0 1 17177877.00 34435220.00 L 17168263.00 34456633.00 A 64214.90 64214.90 0 0 1 17101839.00 34479357.00  zM 17093973.00 34601280.00 L 17082174.00 34592540.00 L 17076056.00 34583800.00 L 17069501.00 34567194.00 L 17069501.00 34556706.00 L 17074745.00 34536604.00 L 17083048.00 34524805.00 L 17092225.00 34518687.00 L 17110579.00 34512132.00 L 17121941.00 34512132.00 L 17142480.00 34517376.00 L 17156027.00 34527864.00 L 17165641.00 34544907.00 L 17167826.00 34561950.00 L 17161708.00 34581615.00 L 17150783.00 34595162.00 A 52011.90 52011.90 0 0 1 17093973.00 34601280.00  z"/>
<path id="N" d="M 17082588.00 32808173.00 L 17105520.00 32798345.00 L 17128998.00 32780873.00 L 17143740.00 32763401.00 L 17152476.00 32746475.00 L 17159028.00 32727365.00 L 17162850.00 32704433.00 L 17114802.00 32701157.00 L 17109888.00 32720813.00 L 17101698.00 32738285.00 L 17088048.00 32754119.00 L 17078766.00 32760125.00 L 17051466.00 32769953.00 L 17022528.00 32772683.00 L 16986492.00 32768315.00 L 16965198.00 32761217.00 L 16953186.00 32753027.00 L 16939536.00 32732279.00 L 16936260.00 32715899.00 L 16937898.00 32704433.00 L 16945542.00 32688053.00 L 16955916.00 32678771.00 L 16988676.00 32665121.00 L 17026350.00 32655293.00 L 17099514.00 32635091.00 L 17120808.00 32625263.00 L 17144286.00 32608337.00 L 17161212.00 32588681.00 L 17172132.00 32560289.00 L 17174316.00 32538995.00 L 17169948.00 32511695.00 L 17162850.00 32492585.00 L 17149746.00 32472929.00 L 17128452.00 32453819.00 L 17101698.00 32439077.00 L 17062932.00 32428703.00 L 17025804.00 32426519.00 L 16976664.00 32432525.00 L 16948272.00 32441261.00 L 16936806.00 32447267.00 L 16911144.00 32466377.00 L 16894218.00 32486579.00 L 16888212.00 32497499.00 L 16877292.00 32527529.00 L 16874016.00 32554283.00 L 16920972.00 32558651.00 L 16928616.00 32526437.00 L 16938444.00 32508965.00 L 16957008.00 32491493.00 L 16973934.00 32482211.00 L 16999596.00 32474567.00 L 17032356.00 32471291.00 L 17065662.00 32474567.00 A 87060.39 87060.39 0 0 1 17115894.00 32503505.00 A 54327.74 54327.74 0 0 1 17119170.00 32561381.00 L 17102790.00 32577215.00 L 17080950.00 32588681.00 L 17023620.00 32604515.00 L 16961376.00 32621987.00 L 16936806.00 32632907.00 L 16913328.00 32650925.00 L 16899132.00 32669489.00 L 16890396.00 32694605.00 L 16888212.00 32713715.00 L 16894764.00 32747567.00 L 16904046.00 32766131.00 L 16922610.00 32786333.00 L 16940628.00 32798891.00 L 16963560.00 32808719.00 L 17006694.00 32816909.00 L 17046006.00 32815817.00 L 17082588.00 32808173.00  z"/>
<path id="N" d="M 18832588.00 32158173.00 L 18855520.00 32148345.00 L 18878998.00 32130873.00 L 18893740.00 32113401.00 L 18902476.00 32096475.00 L 18909028.00 32077365.00 L 18912850.00 32054433.00 L 18864802.00 32051157.00 L 18859888.00 32070813.00 L 18851698.00 32088285.00 L 18838048.00 32104119.00 L 18828766.00 32110125.00 L 18801466.00 32119953.00 L 18772528.00 32122683.00 L 18736492.00 32118315.00 L 18715198.00 32111217.00 L 18703186.00 32103027.00 L 18689536.00 32082279.00 L 18686260.00 32065899.00 L 18687898.00 32054433.00 L 18695542.00 32038053.00 L 18705916.00 32028771.00 L 18738676.00 32015121.00 L 18776350.00 32005293.00 L 18849514.00 31985091.00 L 18870808.00 31975263.00 L 18894286.00 31958337.00 L 18911212.00 31938681.00 L 18922132.00 31910289.00 L 18924316.00 31888995.00 L 18919948.00 31861695.00 L 18912850.00 31842585.00 L 18899746.00 31822929.00 L 18878452.00 31803819.00 L 18851698.00 31789077.00 L 18812932.00 31778703.00 L 18775804.00 31776519.00 L 18726664.00 31782525.00 L 18698272.00 31791261.00 L 18686806.00 31797267.00 L 18661144.00 31816377.00 L 18644218.00 31836579.00 L 18638212.00 31847499.00 L 18627292.00 31877529.00 L 18624016.00 31904283.00 L 18670972.00 31908651.00 L 18678616.00 31876437.00 L 18688444.00 31858965.00 L 18707008.00 31841493.00 L 18723934.00 31832211.00 L 18749596.00 31824567.00 L 18782356.00 31821291.00 L 18815662.00 31824567.00 A 87060.39 87060.39 0 0 1 18865894.00 31853505.00 A 54327.74 54327.74 0 0 1 18869170.00 31911381.00 L 18852790.00 31927215.00 L 18830950.00 31938681.00 L 18773620.00 31954515.00 L 18711376.00 31971987.00 L 18686806.00 31982907.00 L 18663328.00 32000925.00 L 18649132.00 32019489.00 L 18640396.00 32044605.00 L 18638212.00 32063715.00 L 18644764.00 32097567.00 L 18654046.00 32116131.00 L 18672610.00 32136333.00 L 18690628.00 32148891.00 L 18713560.00 32158719.00 L 18756694.00 32166909.00 L 18796006.00 32165817.00 L 18832588.00 32158173.00  z"/>
<path id="N" d="M 20463237.00 35074878.00 L 20482028.00 35060020.00 A 74524.70 74524.70 0 0 0 20503004.00 35008017.00 L 20500382.00 34991411.00 L 20491642.00 34972183.00 L 20479843.00 34959947.00 L 20461052.00 34947711.00 L 20465422.00 34946400.00 L 20490331.00 34934164.00 L 20503441.00 34921054.00 L 20510433.00 34908381.00 L 20517425.00 34883472.00 L 20517425.00 34866429.00 A 95991.53 95991.53 0 0 0 20485524.00 34803501.00 L 20463674.00 34789954.00 L 20438765.00 34781214.00 L 20411671.00 34778592.00 L 20381955.00 34784273.00 L 20365349.00 34791265.00 L 20346995.00 34804812.00 L 20330826.00 34827536.00 L 20322086.00 34850260.00 L 20319901.00 34863807.00 L 20357046.00 34868614.00 L 20358794.00 34860748.00 L 20368845.00 34835839.00 L 20381081.00 34820544.00 L 20400746.00 34811367.00 L 20416041.00 34809182.00 L 20438328.00 34813552.00 L 20453186.00 34820981.00 A 69669.78 69669.78 0 0 1 20478532.00 34872110.00 L 20474599.00 34893960.00 A 52292.56 52292.56 0 0 1 20436580.00 34928483.00 L 20419100.00 34931105.00 L 20392880.00 34927172.00 L 20397250.00 34959947.00 L 20406864.00 34959510.00 L 20431336.00 34964754.00 L 20448816.00 34973931.00 L 20458867.00 34986604.00 L 20464985.00 35004958.00 L 20463237.00 35021564.00 L 20455808.00 35038170.00 L 20445320.00 35047784.00 L 20430025.00 35054776.00 L 20415167.00 35056961.00 L 20402494.00 35055213.00 L 20385014.00 35047784.00 L 20374526.00 35037733.00 L 20365349.00 35020690.00 L 20360979.00 35002773.00 L 20323834.00 35009765.00 L 20327330.00 35022001.00 L 20339566.00 35049532.00 L 20354424.00 35067012.00 L 20364038.00 35073567.00 L 20389821.00 35084492.00 L 20407738.00 35087551.00 L 20436143.00 35084929.00 L 20463237.00 35074878.00  z"/>
<path id="N" d="M 12969355.00 35022911.00 L 12988146.00 35008053.00 A 74524.70 74524.70 0 0 0 13009122.00 34956050.00 L 13006500.00 34939444.00 L 12997760.00 34920216.00 L 12985961.00 34907980.00 L 12967170.00 34895744.00 L 12971540.00 34894433.00 L 12996449.00 34882197.00 L 13009559.00 34869087.00 L 13016551.00 34856414.00 L 13023543.00 34831505.00 L 13023543.00 34814462.00 A 95991.53 95991.53 0 0 0 12991642.00 34751534.00 L 12969792.00 34737987.00 L 12944883.00 34729247.00 L 12917789.00 34726625.00 L 12888073.00 34732306.00 L 12871467.00 34739298.00 L 12853113.00 34752845.00 L 12836944.00 34775569.00 L 12828204.00 34798293.00 L 12826019.00 34811840.00 L 12863164.00 34816647.00 L 12864912.00 34808781.00 L 12874963.00 34783872.00 L 12887199.00 34768577.00 L 12906864.00 34759400.00 L 12922159.00 34757215.00 L 12944446.00 34761585.00 L 12959304.00 34769014.00 A 69669.78 69669.78 0 0 1 12984650.00 34820143.00 L 12980717.00 34841993.00 A 52292.56 52292.56 0 0 1 12942698.00 34876516.00 L 12925218.00 34879138.00 L 12898998.00 34875205.00 L 12903368.00 34907980.00 L 12912982.00 34907543.00 L 12937454.00 34912787.00 L 12954934.00 34921964.00 L 12964985.00 34934637.00 L 12971103.00 34952991.00 L 12969355.00 34969597.00 L 12961926.00 34986203.00 L 12951438.00 34995817.00 L 12936143.00 35002809.00 L 12921285.00 35004994.00 L 12908612.00 35003246.00 L 12891132.00 34995817.00 L 12880644.00 34985766.00 L 12871467.00 34968723.00 L 12867097.00 34950806.00 L 12829952.00 34957798.00 L 12833448.00 34970034.00 L 12845684.00 34997565.00 L 12860542.00 35015045.00 L 12870156.00 35021600.00 L 12895939.00 35032525.00 L 12913856.00 35035584.00 L 12942261.00 35032962.00 L 12969355.00 35022911.00  z"/>
<path id="N" d="M 14163456.00 36974878.00 L 14182247.00 36960020.00 A 74524.70 74524.70 0 0 0 14203223.00 36908017.00 L 14200601.00 36891411.00 L 14191861.00 36872183.00 L 14180062.00 36859947.00 L 14161271.00 36847711.00 L 14165641.00 36846400.00 L 14190550.00 36834164.00 L 14203660.00 36821054.00 L 14210652.00 36808381.00 L 14217644.00 36783472.00 L 14217644.00 36766429.00 A 95991.53 95991.53 0 0 0 14185743.00 36703501.00 L 14163893.00 36689954.00 L 14138984.00 36681214.00 L 14111890.00 36678592.00 L 14082174.00 36684273.00 L 14065568.00 36691265.00 L 14047214.00 36704812.00 L 14031045.00 36727536.00 L 14022305.00 36750260.00 L 14020120.00 36763807.00 L 14057265.00 36768614.00 L 14059013.00 36760748.00 L 14069064.00 36735839.00 L 14081300.00 36720544.00 L 14100965.00 36711367.00 L 14116260.00 36709182.00 L 14138547.00 36713552.00 L 14153405.00 36720981.00 A 69669.78 69669.78 0 0 1 14178751.00 36772110.00 L 14174818.00 36793960.00 A 52292.56 52292.56 0 0 1 14136799.00 36828483.00 L 14119319.00 36831105.00 L 14093099.00 36827172.00 L 14097469.00 36859947.00 L 14107083.00 36859510.00 L 14131555.00 36864754.00 L 14149035.00 36873931.00 L 14159086.00 36886604.00 L 14165204.00 36904958.00 L 14163456.00 36921564.00 L 14156027.00 36938170.00 L 14145539.00 36947784.00 L 14130244.00 36954776.00 L 14115386.00 36956961.00 L 14102713.00 36955213.00 L 14085233.00 36947784.00 L 14074745.00 36937733.00 L 14065568.00 36920690.00 L 14061198.00 36902773.00 L 14024053.00 36909765.00 L 14027549.00 36922001.00 L 14039785.00 36949532.00 L 14054643.00 36967012.00 L 14064257.00 36973567.00 L 14090040.00 36984492.00 L 14107957.00 36987551.00 L 14136362.00 36984929.00 L 14163456.00 36974878.00  z"/>
<path id="N" d="M 23129870.98 35889063.99 L 23164814.98 35878690.00 L 23186654.99 35868862.00 L 23218868.99 35844838.00 L 23241254.99 35820814.00 L 23251082.99 35804980.00 L 23262548.99 35778226.00 L 23270192.99 35748742.00 L 23274014.99 35713798.00 L 23271830.99 35688682.00 L 23263094.99 35651008.00 L 23252721.00 35626438.00 L 23237979.00 35604052.00 L 23207949.00 35573476.00 L 23176281.00 35553274.00 L 23135877.00 35539623.99 A 232625.85 232625.85 0 0 0 23018487.00 35541807.99 L 22981905.00 35554365.99 L 22957881.00 35566923.99 L 22936041.00 35583849.99 L 22924029.00 35597499.98 L 22904919.00 35627529.98 L 22891268.99 35659743.98 L 22883624.99 35699055.98 L 22884170.99 35732361.98 L 22893452.99 35776041.98 L 22900004.99 35791875.98 L 22912562.99 35815353.98 L 22936040.99 35842107.99 L 22962248.99 35863401.99 L 22982450.99 35874321.99 L 23022308.98 35887425.99 L 23058890.98 35893431.99 L 23129870.98 35889063.99  zM 23026130.99 35836647.99 L 22998284.99 35827365.99 L 22979174.99 35815899.99 L 22961702.99 35801157.99 L 22945322.99 35780955.99 L 22939316.99 35770035.99 L 22928942.99 35740551.99 L 22926212.99 35713797.99 L 22929488.99 35689227.99 L 22938224.99 35660835.99 L 22950783.00 35637357.99 L 22963341.00 35622069.99 L 22978629.00 35610603.99 L 23008659.00 35596407.99 L 23041419.00 35587671.99 L 23085099.00 35584395.99 L 23115675.00 35587671.99 L 23149527.00 35596407.99 L 23176281.00 35608966.00 L 23192661.00 35621524.00 L 23211771.00 35646094.00 L 23222144.99 35667388.00 L 23229788.99 35693050.00 L 23231426.99 35713252.00 L 23228150.99 35739460.00 L 23218868.99 35768944.00 L 23205218.99 35791876.00 L 23191568.99 35807164.00 L 23169728.99 35821360.00 L 23146796.99 35831733.99 L 23116766.99 35839923.99 L 23071448.99 35843199.99 L 23026130.99 35836647.99  z"/>
<path id="N" d="M 17854824.00 33886748.00 L 17896339.00 33878882.00 L 17926492.00 33867520.00 L 17943535.00 33857032.00 L 17957956.00 33841300.00 L 17970192.00 33819450.00 L 17977184.00 33797600.00 L 17978058.00 33771380.00 L 17970192.01 33740790.00 L 17957519.01 33721125.00 L 17943972.01 33709763.00 L 17926492.01 33700586.00 L 17903331.01 33694031.00 L 17901146.01 33731613.00 L 17922996.01 33739479.00 L 17936980.01 33751278.00 L 17945283.00 33767447.00 L 17947905.00 33782742.00 L 17945283.00 33798474.00 L 17937417.00 33815080.00 L 17922996.00 33828627.00 L 17900272.00 33842174.00 L 17872304.00 33849166.00 L 17831226.00 33851788.00 L 17841714.00 33843048.00 L 17856572.00 33826879.00 L 17866186.00 33807214.00 L 17870556.00 33786675.00 L 17870119.00 33769195.00 L 17862253.01 33741664.00 L 17848269.01 33720251.00 L 17832537.01 33707141.00 L 17808065.01 33695342.00 L 17787963.01 33690535.00 L 17762617.01 33689661.00 L 17728968.01 33697527.00 L 17705807.01 33710637.00 L 17687453.01 33728117.00 L 17678276.01 33743849.00 L 17671721.00 33765262.00 L 17669536.00 33786675.00 L 17673906.00 33811147.00 L 17683957.00 33836056.00 L 17697504.00 33854410.00 L 17714110.00 33867083.00 L 17746011.00 33880193.00 L 17788837.00 33888059.00 L 17854824.00 33886748.00  zM 17760869.00 33845670.00 L 17735086.00 33838241.00 L 17721976.00 33829501.00 L 17708866.00 33815080.00 L 17703185.00 33801970.00 L 17700126.00 33782742.00 L 17704933.00 33764825.00 L 17715421.01 33747345.00 L 17732464.01 33735546.00 L 17748633.01 33729865.00 L 17770483.01 33727243.00 L 17796266.01 33731176.00 A 56021.26 56021.26 0 0 1 17792333.00 33843922.00 L 17760869.00 33845670.00  z"/>
<path id="N" d="M 18629732.98 34221892.00 L 18658574.98 34214463.00 L 18686105.98 34199605.00 L 18703148.98 34185621.00 L 18714510.98 34169889.00 A 99314.32 99314.32 0 0 0 18712325.99 34065009.00 L 18700526.99 34053210.00 L 18676928.99 34040100.00 L 18653330.99 34033982.00 L 18650708.99 34069816.00 L 18676491.99 34078993.00 L 18687416.98 34087296.00 L 18694408.98 34100406.00 A 59294.14 59294.14 0 0 1 18654641.98 34177755.00 L 18619681.98 34187369.00 L 18581662.98 34189553.99 L 18595646.98 34177754.99 L 18610067.98 34158527.00 L 18617059.98 34140610.00 L 18620555.98 34117449.00 L 18618370.98 34099969.00 L 18609193.99 34075060.00 L 18593461.99 34054083.99 L 18574233.99 34041410.99 L 18544954.99 34030485.99 L 18514364.99 34028737.99 L 18483774.99 34034855.99 A 85846.66 85846.66 0 0 0 18433519.99 34074185.99 L 18423905.98 34095598.99 L 18419535.98 34123129.99 L 18421720.98 34141046.99 L 18430460.98 34167703.99 L 18442259.98 34185183.99 A 100609.38 100609.38 0 0 0 18502565.98 34220580.99 L 18537525.98 34225824.99 L 18629732.98 34221892.00  zM 18484648.98 34179065.99 L 18468042.98 34168140.99 L 18459302.98 34157652.99 L 18450999.98 34136676.99 L 18450125.98 34125314.99 L 18454932.98 34106086.99 L 18463672.98 34091228.99 L 18478530.99 34078555.99 L 18501254.99 34068941.99 L 18530533.99 34066756.99 L 18555005.99 34073311.99 L 18570737.98 34084236.99 L 18582099.98 34101716.99 A 58899.90 58899.90 0 0 1 18568989.98 34169888.99 L 18562434.98 34174258.99 L 18541458.98 34183435.99 L 18511742.98 34185620.99 L 18484648.98 34179065.99  z"/>
<path id="N" d="M 19189672.00 32163633.00 L 19228984.00 32152167.00 L 19252462.00 32137971.00 L 19265020.00 32126505.00 A 181723.52 181723.52 0 0 0 19305970.00 32057163.00 L 19256830.00 32046243.00 L 19251370.00 32059893.00 L 19234990.00 32088285.00 L 19218064.00 32105757.00 L 19208236.00 32111763.00 L 19181482.00 32122137.00 L 19155274.00 32124867.00 L 19129612.00 32122137.00 L 19106134.00 32116131.00 L 19081564.00 32103573.00 L 19072282.00 32095383.00 L 19052626.00 32071359.00 L 19040614.00 32045697.00 L 19031332.00 32002017.00 L 19029694.00 31974171.00 L 19032970.00 31933221.00 L 19043344.00 31890087.00 L 19049350.00 31878075.00 L 19067914.00 31852413.00 L 19087570.00 31836579.00 L 19106134.00 31827843.00 L 19138894.00 31819653.00 L 19155274.00 31819107.00 L 19187488.00 31825113.00 L 19216972.00 31838763.00 L 19235536.00 31856781.00 L 19251916.00 31883535.00 L 19262290.00 31915203.00 L 19312522.00 31902099.00 L 19299418.00 31867701.00 L 19281946.00 31837125.00 L 19263382.00 31815285.00 L 19248640.00 31803819.00 L 19220794.00 31789623.00 L 19186942.00 31779249.00 L 19155820.00 31776519.00 L 19127974.00 31778703.00 L 19088116.00 31786893.00 L 19064092.00 31796721.00 L 19047166.00 31808187.00 L 19025326.00 31829481.00 L 19006216.00 31856781.00 L 18998026.00 31873707.00 L 18986560.00 31910835.00 L 18979462.00 31955061.00 L 18978916.00 31990005.00 L 18983830.00 32025495.00 L 18993112.00 32060439.00 L 19007308.00 32088285.00 L 19026418.00 32113401.00 L 19049896.00 32135241.00 L 19065184.00 32145069.00 L 19085932.00 32153805.00 L 19120876.00 32163633.00 L 19156366.00 32167455.00 L 19189672.00 32163633.00  z"/>
<path id="N" d="M 20449513.93 32164179.04 L 20487733.94 32153805.05 L 20506297.94 32144523.05 L 20531413.94 32125413.05 L 20545609.94 32107395.06 L 20559259.95 32080641.06 L 20567995.95 32054979.06 L 20522677.95 32042967.05 L 20521039.95 32047881.05 L 20510119.95 32074089.05 L 20500837.95 32088831.05 L 20487187.94 32101935.05 L 20465347.94 32114493.04 L 20442415.94 32121591.04 L 20407471.94 32124867.03 L 20373619.94 32120499.03 L 20353963.94 32113947.02 L 20326117.94 32098113.02 L 20310829.95 32083917.02 L 20293357.95 32056617.01 L 20283529.96 32031501.01 L 20275885.96 31988367.01 L 20275885.97 31960521.01 L 20282437.98 31915749.01 L 20293903.98 31884627.01 L 20312467.99 31860603.02 L 20331577.99 31844769.02 L 20351779.99 31833849.02 L 20387269.99 31824021.03 L 20414023.99 31821291.03 L 20444053.99 31824021.04 L 20477905.99 31833303.04 L 20502475.99 31845315.05 L 20524861.99 31860057.05 L 20524861.97 31931037.05 L 20413477.97 31931037.03 L 20413477.97 31975809.03 L 20574001.97 31975809.06 L 20573455.99 31834941.06 L 20525954.00 31804365.05 L 20497016.00 31791261.05 L 20472992.00 31784163.04 L 20432588.00 31777065.04 L 20403104.00 31777065.03 L 20367614.00 31782525.03 L 20333216.00 31792353.02 L 20308100.00 31804365.01 L 20279161.99 31827297.01 L 20256775.99 31852959.01 L 20246947.98 31869339.00 L 20237665.98 31891725.00 L 20227837.97 31930491.00 L 20224015.97 31972533.00 L 20228383.96 32010753.00 L 20239303.95 32054433.00 L 20251315.95 32080095.00 L 20273155.94 32111217.01 L 20297725.94 32134149.01 L 20313559.94 32144523.02 L 20349049.93 32158173.02 L 20392729.93 32166363.03 L 20449513.93 32164179.04  z"/>
<path id="N" d="M 20579666.00 38713633.00 L 20597684.00 38706535.00 L 20617340.00 38692339.00 L 20635904.00 38671045.00 L 20652284.00 38637739.00 L 20659382.00 38614261.00 L 20664842.00 38585323.00 L 20668118.00 38536183.00 L 20666480.00 38487589.00 L 20658836.00 38434627.00 L 20650100.00 38407873.00 L 20630990.00 38374021.00 L 20612426.00 38354911.00 L 20602598.00 38347813.00 L 20573114.00 38336347.00 L 20544722.00 38333071.00 L 20531072.00 38334163.00 L 20499404.00 38342353.00 L 20478110.00 38353819.00 L 20457908.00 38372383.00 L 20443166.00 38400229.00 L 20430062.00 38442817.00 L 20422964.00 38488681.00 L 20421872.00 38549287.00 L 20427332.00 38599519.00 L 20434976.00 38634463.00 L 20450810.00 38667223.00 L 20466098.00 38687971.00 L 20476472.00 38696707.00 L 20486846.00 38703805.00 L 20516330.00 38715817.00 L 20544722.00 38719093.00 L 20579666.00 38713633.00  zM 20540900.00 38680873.00 L 20517422.00 38674321.00 L 20499950.00 38662855.00 L 20488484.00 38647021.00 L 20476472.00 38607163.00 L 20469920.00 38558023.00 L 20469374.00 38503423.00 L 20474288.00 38454283.00 L 20480294.00 38424799.00 L 20490668.00 38401321.00 L 20499404.00 38392039.00 L 20513600.00 38381119.00 L 20533256.00 38372383.00 L 20544722.00 38371291.00 L 20563286.00 38375113.00 L 20585126.00 38387671.00 L 20598230.00 38402413.00 L 20607512.00 38422069.00 L 20615702.00 38455921.00 L 20619524.00 38493595.00 L 20620070.00 38548195.00 L 20615156.00 38597335.00 L 20609150.00 38626819.00 L 20598776.00 38650297.00 L 20584034.00 38665585.00 L 20561648.00 38678143.00 L 20540900.00 38680873.00  z"/>
<path id="N" d="M 18451801.99 37343341.00 L 18481954.99 37326735.00 L 18499434.99 37311877.00 L 18512981.99 37293086.00 L 18526528.99 37258126.00 L 18530024.99 37234528.00 L 18529587.99 37208745.00 L 18522159.00 37171600.00 L 18514293.00 37152372.00 L 18502494.00 37135766.00 L 18478022.00 37113479.00 L 18452676.00 37099495.00 L 18416405.00 37088570.00 L 18369646.00 37083762.99 L 18331190.00 37088132.99 L 18303222.00 37095561.99 L 18289238.00 37102116.99 L 18269573.00 37114789.99 L 18243353.00 37141009.99 L 18235487.00 37153245.99 L 18230243.00 37165481.99 L 18220629.00 37197819.99 L 18217569.99 37226224.99 L 18219317.99 37247200.99 L 18229805.99 37284345.99 L 18240730.99 37302699.99 L 18253840.99 37316246.99 L 18277875.99 37334163.99 L 18305843.99 37345962.99 L 18315020.99 37306632.99 L 18307154.99 37303573.99 L 18280934.99 37289152.99 L 18266076.99 37274731.99 L 18262143.99 37267739.99 L 18253840.99 37246326.99 L 18251655.99 37225350.99 L 18255589.00 37195634.99 L 18263018.00 37175969.99 L 18271758.00 37162859.99 L 18294482.00 37143194.99 L 18313710.00 37134017.99 L 18340367.00 37127899.99 L 18372268.00 37124840.99 L 18405043.00 37127462.99 L 18439129.00 37135766.00 L 18462290.00 37149313.00 L 18476274.00 37162423.00 L 18484577.00 37175096.00 L 18494190.99 37202627.00 L 18496375.99 37225351.00 L 18491568.99 37251134.00 L 18483265.99 37269925.00 L 18473651.99 37283035.00 L 18450053.99 37300078.00 L 18419463.99 37311003.00 L 18429951.99 37351207.00 L 18451801.99 37343341.00  z"/>
<path id="N" d="M 12724635.00 35027281.00 L 12742989.00 35016356.00 L 12756536.00 35003246.00 L 12774453.00 34979211.00 L 12786252.00 34951243.00 L 12746922.00 34942066.00 L 12743863.00 34949932.00 L 12729442.00 34976152.00 L 12715021.00 34991010.00 L 12708029.00 34994943.00 L 12686616.00 35003246.00 L 12665640.00 35005431.00 L 12635924.00 35001498.00 L 12616259.00 34994069.00 L 12603149.00 34985329.00 L 12583484.00 34962605.00 L 12574307.00 34943377.00 L 12568189.00 34916720.00 L 12565130.00 34884819.00 L 12567752.00 34852044.00 L 12576055.00 34817958.00 L 12589602.00 34794797.00 L 12602712.00 34780813.00 L 12615385.00 34772510.00 L 12642916.00 34762896.00 L 12665640.00 34760711.00 L 12691423.00 34765518.00 L 12710214.00 34773821.00 L 12723324.00 34783435.00 L 12740367.00 34807033.00 L 12751292.00 34837623.00 L 12791496.00 34827135.00 L 12783630.00 34805285.00 L 12767024.00 34775132.00 L 12752166.00 34757652.00 L 12733375.00 34744105.00 L 12698415.00 34730558.00 L 12674817.00 34727062.00 L 12649034.00 34727499.00 L 12611889.00 34734928.00 L 12592661.00 34742794.00 L 12576055.00 34754593.00 L 12553768.00 34779065.00 L 12539784.00 34804411.00 L 12528859.00 34840682.00 L 12524052.00 34887441.00 L 12528422.00 34925897.00 L 12535851.00 34953865.00 L 12542406.00 34967849.00 L 12555079.00 34987514.00 L 12581299.00 35013734.00 L 12593535.00 35021600.00 L 12620192.00 35032088.00 L 12652093.00 35038643.00 L 12687490.00 35037769.00 L 12724635.00 35027281.00  z"/>
<path id="N" d="M 16073543.00 38127281.00 L 16091897.00 38116356.00 L 16105444.00 38103246.00 L 16123361.00 38079211.00 L 16135160.00 38051243.00 L 16095830.00 38042066.00 L 16092771.00 38049932.00 L 16078350.00 38076152.00 L 16063929.00 38091010.00 L 16056937.00 38094943.00 L 16035524.00 38103246.00 L 16014548.00 38105431.00 L 15984832.00 38101498.00 L 15965167.00 38094069.00 L 15952057.00 38085329.00 L 15932392.00 38062605.00 L 15923215.00 38043377.00 L 15917097.00 38016720.00 L 15914038.00 37984819.00 L 15916660.00 37952044.00 L 15924963.00 37917958.00 L 15938510.00 37894797.00 L 15951620.00 37880813.00 L 15964293.00 37872510.00 L 15991824.00 37862896.00 L 16014548.00 37860711.00 L 16040331.00 37865518.00 L 16059122.00 37873821.00 L 16072232.00 37883435.00 L 16089275.00 37907033.00 L 16100200.00 37937623.00 L 16140404.00 37927135.00 L 16132538.00 37905285.00 L 16115932.00 37875132.00 L 16101074.00 37857652.00 L 16082283.00 37844105.00 L 16047323.00 37830558.00 L 16023725.00 37827062.00 L 15997942.00 37827499.00 L 15960797.00 37834928.00 L 15941569.00 37842794.00 L 15924963.00 37854593.00 L 15902676.00 37879065.00 L 15888692.00 37904411.00 L 15877767.00 37940682.00 L 15872960.00 37987441.00 L 15877330.00 38025897.00 L 15884759.00 38053865.00 L 15891314.00 38067849.00 L 15903987.00 38087514.00 L 15930207.00 38113734.00 L 15942443.00 38121600.00 L 15969100.00 38132088.00 L 16001001.00 38138643.00 L 16036398.00 38137769.00 L 16073543.00 38127281.00  z"/>
<path id="N" d="M 19697110.00 35800562.00 L 19723767.00 35793133.00 L 19746928.00 35783082.00 L 19768778.00 35767787.00 L 19785821.00 35750307.00 L 19798057.00 35730642.00 L 19806360.00 35704422.00 L 19811167.01 35668151.00 L 19807234.01 35631006.00 L 19793687.01 35596046.00 L 19780140.01 35577255.00 L 19762660.01 35562397.00 L 19738188.01 35548413.00 L 19710220.01 35537925.00 L 19700169.01 35578129.00 L 19725515.01 35586432.00 L 19743432.01 35597357.00 L 19757853.01 35610030.00 L 19768778.01 35628821.00 L 19776207.01 35655041.00 L 19776644.01 35676891.00 L 19772711.00 35695245.00 A 80821.87 80821.87 0 0 1 19729885.00 35748559.00 L 19708472.00 35756862.00 L 19675260.00 35762979.99 L 19641174.00 35763853.99 L 19601844.00 35757298.99 L 19575187.00 35745936.99 L 19555959.00 35730204.99 L 19543723.00 35713161.99 L 19536294.00 35693496.99 L 19532361.01 35667276.99 L 19534546.01 35642804.99 L 19542849.01 35621391.99 L 19554211.01 35606533.99 L 19569506.01 35594734.99 L 19595726.01 35582498.99 L 19586549.01 35543168.99 L 19571691.01 35548412.99 L 19547656.01 35562396.99 L 19525806.01 35581187.99 L 19510511.01 35604785.99 L 19501334.01 35636249.99 L 19498275.01 35658536.99 L 19501334.00 35691311.99 L 19510948.00 35723649.99 L 19524058.00 35748121.99 L 19532798.00 35758172.99 L 19558144.00 35780022.99 L 19583927.00 35793569.99 L 19611895.00 35800998.99 L 19644670.00 35804931.99 L 19697110.00 35800562.00  z"/>
<path id="N" d="M 20008004.00 38668315.00 L 19856762.00 38668315.00 L 19837106.00 38566759.00 L 19869320.00 38582593.00 L 19900988.00 38590237.00 L 19920644.00 38589145.00 L 19950128.00 38582047.00 L 19978520.00 38567305.00 L 19997084.00 38549833.00 L 20011826.00 38525809.00 A 130805.30 130805.30 0 0 0 20018924.00 38423161.00 A 121094.90 121094.90 0 0 0 19981250.00 38364193.00 L 19955588.00 38347813.00 L 19929380.00 38337439.00 L 19896620.00 38333071.00 L 19878602.00 38334709.00 L 19852940.00 38340169.00 L 19832192.00 38348359.00 L 19811444.00 38362009.00 L 19804346.00 38369653.00 L 19789058.00 38393131.00 L 19778138.00 38421523.00 L 19775408.00 38438449.00 L 19824002.00 38441725.00 L 19826732.00 38430259.00 L 19836560.00 38404597.00 L 19848572.00 38388763.00 L 19856216.00 38383303.00 L 19876964.00 38374021.00 L 19896620.00 38371291.00 L 19916276.00 38374567.00 L 19934840.00 38381665.00 L 19953404.00 38396407.00 L 19965416.00 38414425.00 L 19973060.00 38435173.00 L 19976882.00 38455921.00 L 19975790.00 38477215.00 L 19967600.00 38506699.00 L 19954496.00 38526355.00 L 19945760.00 38533453.00 L 19930472.00 38541643.00 L 19909178.00 38548195.00 L 19892252.00 38549287.00 L 19875872.00 38546557.00 L 19854578.00 38538367.00 L 19840382.00 38527993.00 L 19827278.00 38512159.00 L 19783598.00 38518165.00 L 19820180.00 38712541.00 L 20008004.00 38712541.00 L 20008004.00 38668315.00  z"/>
<path id="N" d="M 20724983.00 37026844.00 L 20749455.00 37013734.00 L 20759506.00 37004994.00 L 20781356.00 36979648.00 L 20794903.00 36953865.00 L 20802332.00 36925897.00 L 20806702.00 36887441.00 L 20801895.00 36840682.00 L 20794466.00 36814025.00 L 20784415.00 36790864.00 L 20769120.00 36769014.00 L 20751640.00 36751971.00 L 20731975.00 36739735.00 L 20705755.00 36731432.00 L 20669484.00 36726625.00 L 20632339.00 36730558.00 L 20597379.00 36744105.00 L 20578588.00 36757652.00 L 20563730.00 36775132.00 L 20549746.00 36799604.00 L 20539258.00 36827572.00 L 20579462.00 36837623.00 L 20587765.00 36812277.00 L 20598690.00 36794360.00 L 20611363.00 36779939.00 L 20630154.00 36769014.00 L 20656374.00 36761585.00 L 20678224.00 36761148.00 L 20696578.00 36765081.00 A 80821.87 80821.87 0 0 1 20749892.00 36807907.00 L 20758195.00 36829320.00 L 20764313.00 36862532.00 L 20765187.00 36896618.00 L 20758632.00 36935948.00 L 20747270.00 36962605.00 L 20731538.00 36981833.00 L 20714495.00 36994069.00 L 20694830.00 37001498.00 L 20668610.00 37005431.00 L 20644138.00 37003246.00 L 20622725.00 36994943.00 L 20607867.00 36983581.00 L 20596068.00 36968286.00 L 20583832.00 36942066.00 L 20544502.00 36951243.00 L 20549746.00 36966101.00 L 20563730.00 36990136.00 L 20582521.00 37011986.00 L 20606119.00 37027281.00 L 20637583.00 37036458.00 L 20659870.00 37039517.00 L 20692645.00 37036458.00 L 20724983.00 37026844.00  z"/>
<path id="N" d="M 19183227.97 37289227.00 L 19210321.97 37282672.00 L 19236978.97 37269999.00 L 19253584.97 37257763.00 L 19266694.97 37241594.00 A 94383.81 94383.81 0 0 0 19274560.97 37169926.00 L 19265383.97 37147639.00 L 19252710.98 37131033.00 L 19240037.98 37121419.00 L 19209884.98 37108746.00 L 19167058.98 37099132.00 L 19123795.98 37096509.99 L 19079658.98 37099131.99 L 19037706.98 37107434.99 L 19018915.98 37115737.99 L 18994443.98 37132343.99 L 18983081.97 37146327.99 A 93336.09 93336.09 0 0 0 18976089.97 37230668.99 L 18983518.97 37244215.99 L 19001435.97 37263443.99 L 19020663.97 37275242.99 L 19053001.97 37287041.99 L 19094079.97 37293159.99 L 19183227.97 37289227.00  zM 19137779.97 37256014.99 L 19083591.97 37253829.99 L 19043387.97 37246837.99 L 19024159.97 37237660.99 L 19012360.97 37226735.99 L 19002309.97 37208818.99 L 19000124.97 37194834.99 L 19005368.97 37173421.99 L 19014545.97 37159437.99 L 19027218.97 37150260.99 L 19059119.98 37140646.99 L 19098449.98 37135402.99 L 19149141.98 37135402.99 L 19197648.98 37141958.00 L 19218187.97 37148950.00 L 19231297.97 37159001.00 L 19243970.97 37177792.00 L 19247466.97 37190465.00 L 19246592.97 37204012.00 L 19237415.97 37224114.00 L 19223431.97 37238098.00 L 19211632.97 37243779.00 L 19180168.97 37252082.00 L 19137779.97 37256014.99  z"/>
<path id="N" d="M 16360652.00 38094943.00 L 16239603.00 38094943.00 L 16223434.00 38013224.00 L 16240914.00 38022838.00 L 16269756.00 38031578.00 L 16284614.00 38032452.00 L 16314330.00 38025897.00 L 16331373.00 38017594.00 L 16347542.00 38004921.00 L 16358904.00 37990063.00 A 109661.15 109661.15 0 0 0 16369392.00 37898730.00 L 16358904.00 37875132.00 L 16345794.00 37857652.00 A 107893.15 107893.15 0 0 0 16209013.00 37845416.00 L 16197651.00 37855904.00 L 16185415.00 37874695.00 L 16176675.00 37897419.00 L 16174490.00 37910966.00 L 16213383.00 37914025.00 L 16214257.00 37909218.00 L 16223434.00 37883872.00 L 16233922.00 37870762.00 L 16243973.00 37864207.00 L 16263201.00 37857652.00 L 16281118.00 37858089.00 A 63152.77 63152.77 0 0 1 16329625.00 37899167.00 A 87001.51 87001.51 0 0 1 16328314.00 37965591.00 L 16316952.00 37981760.00 L 16305590.00 37990500.00 L 16281555.00 37998803.00 L 16268008.00 37999677.00 L 16249654.00 37996181.00 L 16229989.00 37985693.00 L 16216005.00 37969961.00 L 16181045.00 37974768.00 L 16210324.00 38130340.00 L 16360652.00 38130340.00 L 16360652.00 38094943.00  z"/>
<path id="N" d="M 15157592.00 34499822.00 L 15152785.00 34498948.00 L 15127439.00 34489771.00 L 15114329.00 34479283.00 L 15107774.00 34469232.00 L 15101219.00 34450004.00 L 15101656.00 34432087.00 A 63152.77 63152.77 0 0 1 15142734.01 34383580.00 A 87001.51 87001.51 0 0 1 15209158.01 34384891.00 L 15225327.01 34396253.00 L 15234067.01 34407615.00 L 15242370.00 34431650.00 L 15243244.00 34445197.00 L 15239748.00 34463551.00 L 15229260.00 34483216.00 L 15213528.00 34497200.00 L 15218335.00 34532160.00 L 15373907.00 34502881.00 L 15373907.01 34352553.00 L 15338510.01 34352553.00 L 15338510.00 34473602.00 L 15256791.00 34489771.00 L 15266405.00 34472291.00 L 15275145.00 34443449.00 L 15276019.00 34428591.00 L 15269464.01 34398875.00 L 15261161.01 34381832.00 L 15248488.01 34365663.00 L 15233630.01 34354301.00 A 109661.15 109661.15 0 0 0 15142297.01 34343813.00 L 15118699.01 34354301.00 L 15101219.01 34367411.00 A 107893.15 107893.15 0 0 0 15088983.00 34504192.00 L 15099471.00 34515554.00 L 15118262.00 34527790.00 L 15140986.00 34536530.00 L 15154533.00 34538715.00 L 15157592.00 34499822.00  z"/>
<path id="N" d="M 18574014.95 38954010.00 L 18494844.95 38904324.00 L 18442974.95 38867741.99 L 18421680.96 38846993.99 L 18414582.96 38835527.99 L 18407484.96 38813141.99 L 18406392.96 38734517.99 L 18574014.96 38734518.00 L 18574014.96 38684286.00 L 18196182.96 38684285.98 L 18196182.96 38859551.98 L 18200550.95 38905415.98 A 88682.78 88682.78 0 0 0 18259518.95 38978579.99 L 18287910.95 38985677.99 L 18309750.95 38985677.99 L 18333774.95 38979671.99 L 18356706.95 38968751.99 L 18367626.95 38960015.99 L 18376362.95 38949095.99 L 18387828.95 38928893.99 L 18396018.95 38907053.99 L 18402024.95 38879753.99 L 18414036.95 38900501.99 L 18429324.95 38917973.99 L 18460446.95 38943636.00 L 18574014.95 39016254.00 L 18574014.95 38954010.00  zM 18290640.95 38933807.99 L 18277536.95 38929985.99 L 18262794.95 38921795.99 L 18252966.95 38911421.99 L 18243684.95 38891765.99 L 18238770.95 38868287.99 L 18238224.96 38734517.99 L 18363258.96 38734517.99 L 18363258.96 38846993.99 L 18361620.95 38869925.99 L 18356706.95 38895041.99 L 18344148.95 38915789.99 L 18333228.95 38925071.99 L 18318486.95 38931623.99 L 18290640.95 38933807.99  z"/>
<path id="N" d="M 20469338.00 37016356.00 L 20482448.00 37003683.00 L 20494684.00 36982707.00 L 20503424.00 36948184.00 L 20465405.00 36944251.00 A 69076.39 69076.39 0 0 1 20449236.00 36988825.00 L 20435689.00 36998002.00 L 20415587.00 37004120.00 L 20396796.00 37004557.00 L 20381501.00 37000187.00 L 20367517.00 36992321.00 A 54521.99 54521.99 0 0 1 20353970.00 36928956.00 L 20366206.00 36907543.00 L 20395048.00 36876953.00 L 20443992.00 36834127.00 L 20478515.00 36801352.00 L 20496869.00 36776443.00 L 20507794.00 36752845.00 L 20510416.00 36731869.00 L 20309833.00 36731869.00 L 20309833.00 36767703.00 L 20458850.00 36767703.00 L 20448799.00 36781250.00 L 20402914.00 36823202.00 L 20350474.00 36870835.00 L 20327313.00 36899240.00 L 20315514.00 36922401.00 L 20310707.00 36945125.00 L 20312455.00 36970471.00 L 20318573.00 36986203.00 L 20329935.00 37004557.00 L 20346104.00 37019415.00 L 20368828.00 37029466.00 L 20394174.00 37034710.00 A 109281.60 109281.60 0 0 0 20469338.00 37016356.00  z"/>
<path id="N" d="M 21875435.99 34224805.00 L 21867569.99 34225242.00 L 21846593.99 34230486.00 L 21817314.99 34247529.00 L 21796775.99 34266320.00 L 21754386.98 34313952.99 L 21709812.98 34361148.99 L 21691458.98 34374695.99 L 21671356.98 34384309.99 L 21654313.98 34386931.99 L 21636396.98 34382998.99 A 52400.27 52400.27 0 0 1 21604932.98 34346727.99 L 21602747.98 34329247.99 L 21604932.98 34313515.99 L 21613672.98 34292539.99 L 21625471.99 34280740.99 L 21644699.99 34272437.99 L 21663490.99 34269815.99 L 21659120.99 34231796.99 L 21635522.99 34237040.99 L 21614546.99 34245780.99 L 21594881.99 34261075.99 L 21585704.99 34275059.99 A 116686.34 116686.34 0 0 0 21585267.98 34383435.99 L 21596629.98 34399167.99 L 21609302.98 34409655.99 A 82959.99 82959.99 0 0 0 21685340.98 34419706.99 L 21708501.98 34407907.99 L 21739528.98 34382124.99 L 21818188.98 34294288.00 L 21840038.99 34276371.00 L 21840038.98 34425388.00 L 21875872.98 34425388.00 L 21875435.99 34224805.00  z"/>
<path id="N" d="M 16295976.00 34984492.00 L 16324381.00 34974441.00 L 16340113.00 34963079.00 L 16350601.00 34950406.00 A 82959.99 82959.99 0 0 0 16360652.00 34874368.00 L 16348853.00 34851207.00 L 16323070.00 34820180.00 L 16235233.00 34741520.00 L 16217316.00 34719670.00 L 16366333.00 34719670.00 L 16366333.00 34683836.00 L 16165750.00 34684273.00 L 16166187.00 34692139.00 L 16171431.00 34713115.00 L 16188474.00 34742394.00 L 16207265.00 34762933.00 L 16254898.00 34805322.00 L 16302094.00 34849896.00 L 16315641.00 34868250.00 L 16325255.00 34888352.00 L 16327877.00 34905395.00 L 16323944.00 34923312.00 A 52400.27 52400.27 0 0 1 16287673.00 34954776.00 L 16270193.00 34956961.00 L 16254461.00 34954776.00 L 16233485.00 34946036.00 L 16221686.00 34934237.00 L 16213383.00 34915009.00 L 16210761.00 34896218.00 L 16172742.00 34900588.00 L 16181482.00 34934674.00 L 16189785.00 34950406.00 L 16204643.00 34967012.00 A 112057.99 112057.99 0 0 0 16295976.00 34984492.00  z"/>
<path id="N" d="M 16046194.00 32281870.00 L 16074599.00 32271819.00 L 16090331.00 32260457.00 L 16100819.00 32247784.00 A 82959.99 82959.99 0 0 0 16110870.00 32171746.00 L 16099071.00 32148585.00 L 16073288.00 32117558.00 L 15985451.00 32038898.00 L 15967534.00 32017048.00 L 16116551.00 32017048.00 L 16116551.00 31981214.00 L 15915968.00 31981651.00 L 15916405.00 31989517.00 L 15921649.00 32010493.00 L 15938692.00 32039772.00 L 15957483.00 32060311.00 L 16005116.00 32102700.00 L 16052312.00 32147274.00 L 16065859.00 32165628.00 L 16075473.00 32185730.00 L 16078095.00 32202773.00 L 16074162.00 32220690.00 A 52400.27 52400.27 0 0 1 16037891.00 32252154.00 L 16020411.00 32254339.00 L 16004679.00 32252154.00 L 15983703.00 32243414.00 L 15971904.00 32231615.00 L 15963601.00 32212387.00 L 15960979.00 32193596.00 L 15922960.00 32197966.00 L 15931700.00 32232052.00 L 15940003.00 32247784.00 L 15954861.00 32264390.00 A 112057.99 112057.99 0 0 0 16046194.00 32281870.00  z"/>
<path id="N" d="M 12259705.00 37884492.00 L 12288110.00 37874441.00 L 12303842.00 37863079.00 L 12314330.00 37850406.00 A 82959.99 82959.99 0 0 0 12324381.00 37774368.00 L 12312582.00 37751207.00 L 12286799.00 37720180.00 L 12198962.00 37641520.00 L 12181045.00 37619670.00 L 12330062.00 37619670.00 L 12330062.00 37583836.00 L 12129479.00 37584273.00 L 12129916.00 37592139.00 L 12135160.00 37613115.00 L 12152203.00 37642394.00 L 12170994.00 37662933.00 L 12218627.00 37705322.00 L 12265823.00 37749896.00 L 12279370.00 37768250.00 L 12288984.00 37788352.00 L 12291606.00 37805395.00 L 12287673.00 37823312.00 A 52400.27 52400.27 0 0 1 12251402.00 37854776.00 L 12233922.00 37856961.00 L 12218190.00 37854776.00 L 12197214.00 37846036.00 L 12185415.00 37834237.00 L 12177112.00 37815009.00 L 12174490.00 37796218.00 L 12136471.00 37800588.00 L 12145211.00 37834674.00 L 12153514.00 37850406.00 L 12168372.00 37867012.00 A 112057.99 112057.99 0 0 0 12259705.00 37884492.00  z"/>
<path id="N" d="M 15089602.00 38833181.00 L 15128495.00 38827937.00 L 15144664.00 38821819.00 L 15160396.00 38809583.00 L 15173069.00 38792977.00 L 15181809.00 38768505.00 L 15183557.00 38747966.00 L 15178313.00 38723494.00 L 15169573.00 38705140.00 L 15156463.00 38691156.00 L 15132428.00 38677609.00 L 15099216.00 38668432.00 L 15123251.00 38652700.00 L 15143790.00 38629976.00 L 15207592.00 38531214.00 L 15157774.00 38531214.00 L 15118007.00 38594142.00 L 15093535.00 38629539.00 L 15075618.00 38650078.00 L 15062945.00 38658818.00 L 15045028.00 38664499.00 L 14982100.00 38665373.00 L 14982100.00 38531214.00 L 14941896.00 38531214.00 L 14941896.00 38833618.00 L 15089602.00 38833181.00  zM 14982100.00 38799969.00 L 14982100.00 38699896.00 L 15072122.00 38699896.00 L 15090476.00 38701207.00 L 15111452.00 38705577.00 L 15127184.00 38715191.00 L 15135487.00 38725679.00 L 15142042.00 38745344.00 L 15141605.00 38758017.00 L 15135924.00 38774623.00 L 15125873.00 38786422.00 L 15114511.00 38792977.00 L 15089165.00 38799532.00 L 14982100.00 38799969.00  z"/>
<path id="N" d="M 20257155.00 34583181.00 L 20296048.00 34577937.00 L 20312217.00 34571819.00 L 20327949.00 34559583.00 L 20340622.00 34542977.00 L 20349362.00 34518505.00 L 20351110.00 34497966.00 L 20345866.00 34473494.00 L 20337126.00 34455140.00 L 20324016.00 34441156.00 L 20299981.00 34427609.00 L 20266769.00 34418432.00 L 20290804.00 34402700.00 L 20311343.00 34379976.00 L 20375145.00 34281214.00 L 20325327.00 34281214.00 L 20285560.00 34344142.00 L 20261088.00 34379539.00 L 20243171.00 34400078.00 L 20230498.00 34408818.00 L 20212581.00 34414499.00 L 20149653.00 34415373.00 L 20149653.00 34281214.00 L 20109449.00 34281214.00 L 20109449.00 34583618.00 L 20257155.00 34583181.00  zM 20149653.00 34549969.00 L 20149653.00 34449896.00 L 20239675.00 34449896.00 L 20258029.00 34451207.00 L 20279005.00 34455577.00 L 20294737.00 34465191.00 L 20303040.00 34475679.00 L 20309595.00 34495344.00 L 20309158.00 34508017.00 L 20303477.00 34524623.00 L 20293426.00 34536422.00 L 20282064.00 34542977.00 L 20256718.00 34549532.00 L 20149653.00 34549969.00  z"/>
<path id="N" d="M 20177876.00 35085803.00 L 20216769.00 35080559.00 L 20232938.00 35074441.00 L 20248670.00 35062205.00 L 20261343.00 35045599.00 L 20270083.00 35021127.00 L 20271831.00 35000588.00 L 20266587.00 34976116.00 L 20257847.00 34957762.00 L 20244737.00 34943778.00 L 20220702.00 34930231.00 L 20187490.00 34921054.00 L 20211525.00 34905322.00 L 20232064.00 34882598.00 L 20295866.00 34783836.00 L 20246048.00 34783836.00 L 20206281.00 34846764.00 L 20181809.00 34882161.00 L 20163892.00 34902700.00 L 20151219.00 34911440.00 L 20133302.00 34917121.00 L 20070374.00 34917995.00 L 20070374.00 34783836.00 L 20030170.00 34783836.00 L 20030170.00 35086240.00 L 20177876.00 35085803.00  zM 20070374.00 35052591.00 L 20070374.00 34952518.00 L 20160396.00 34952518.00 L 20178750.00 34953829.00 L 20199726.00 34958199.00 L 20215458.00 34967813.00 L 20223761.00 34978301.00 L 20230316.00 34997966.00 L 20229879.00 35010639.00 L 20224198.00 35027245.00 L 20214147.00 35039044.00 L 20202785.00 35045599.00 L 20177439.00 35052154.00 L 20070374.00 35052591.00  z"/>
<path id="N" d="M 15377403.00 34680303.00 L 15372159.00 34641410.00 L 15366041.00 34625241.00 L 15353805.00 34609509.00 L 15337199.00 34596836.00 L 15312727.00 34588096.00 L 15292188.00 34586348.00 L 15267716.00 34591592.00 L 15249362.00 34600332.00 L 15235378.00 34613442.00 L 15221831.00 34637477.00 L 15212654.00 34670689.00 L 15196922.00 34646654.00 L 15174198.00 34626115.00 L 15075436.00 34562313.00 L 15075436.00 34612131.00 L 15138364.00 34651898.00 L 15173761.00 34676370.00 L 15194300.00 34694287.00 L 15203040.00 34706960.00 L 15208721.00 34724877.00 L 15209595.00 34787805.00 L 15075436.00 34787805.00 L 15075436.00 34828009.00 L 15377840.00 34828009.00 L 15377403.00 34680303.00  zM 15344191.00 34787805.00 L 15244118.00 34787805.00 L 15244118.00 34697783.00 L 15245429.00 34679429.00 L 15249799.00 34658453.00 L 15259413.00 34642721.00 L 15269901.00 34634418.00 L 15289566.00 34627863.00 L 15307483.00 34629174.00 L 15324526.00 34637914.00 L 15334577.00 34649713.00 L 15342006.00 34670689.00 L 15344191.00 34692539.00 L 15344191.00 34787805.00  z"/>
<path id="N" d="M 17398176.00 32810357.00 L 17440764.00 32805443.00 L 17459328.00 32799437.00 L 17486628.00 32785241.00 L 17500278.00 32773775.00 L 17519388.00 32751389.00 L 17534130.00 32727911.00 L 17543958.00 32702795.00 L 17553240.00 32659115.00 L 17555424.00 32623079.00 L 17552694.00 32585951.00 L 17545050.00 32546639.00 L 17534676.00 32519339.00 L 17518842.00 32491493.00 L 17492088.00 32463101.00 L 17472432.00 32451089.00 L 17439672.00 32439077.00 L 17403090.00 32434163.00 L 17243112.00 32433071.00 L 17243112.00 32810903.00 L 17398176.00 32810357.00  zM 17293344.00 32766131.00 L 17293344.00 32477843.00 L 17382888.00 32477843.00 L 17404182.00 32479481.00 L 17435850.00 32485487.00 L 17455506.00 32495861.00 L 17469156.00 32507327.00 L 17485536.00 32531897.00 L 17493726.00 32552099.00 L 17500824.00 32582675.00 L 17504100.00 32625263.00 L 17502462.00 32651471.00 L 17495910.00 32688053.00 L 17487720.00 32709347.00 L 17476800.00 32726273.00 L 17456052.00 32747021.00 L 17435850.00 32758487.00 L 17401452.00 32765039.00 L 17293344.00 32766131.00  z"/>
<path id="N" d="M 16877658.00 34635803.00 L 16916551.00 34630559.00 L 16932720.00 34624441.00 L 16948452.00 34612205.00 L 16961125.00 34595599.00 L 16969865.00 34571127.00 L 16971613.00 34550588.00 L 16966369.00 34526116.00 L 16957629.00 34507762.00 L 16944519.00 34493778.00 L 16920484.00 34480231.00 L 16887272.00 34471054.00 L 16911307.00 34455322.00 L 16931846.00 34432598.00 L 16995648.00 34333836.00 L 16945830.00 34333836.00 L 16906063.00 34396764.00 L 16881591.00 34432161.00 L 16863674.00 34452700.00 L 16851001.00 34461440.00 L 16833084.00 34467121.00 L 16770156.00 34467995.00 L 16770156.00 34333836.00 L 16729952.00 34333836.00 L 16729952.00 34636240.00 L 16877658.00 34635803.00  zM 16770156.00 34602591.00 L 16770156.00 34502518.00 L 16860178.00 34502518.00 L 16878532.00 34503829.00 L 16899508.00 34508199.00 L 16915240.00 34517813.00 L 16923543.00 34528301.00 L 16930098.00 34547966.00 L 16929661.00 34560639.00 L 16923980.00 34577245.00 L 16913929.00 34589044.00 L 16902567.00 34595599.00 L 16877221.00 34602154.00 L 16770156.00 34602591.00  z"/>
<path id="N" d="M 21183883.93 32160357.17 L 21226471.93 32155443.18 L 21245035.94 32149437.18 L 21272335.94 32135241.18 L 21285985.94 32123775.19 L 21305095.94 32101389.19 L 21319837.95 32077911.19 L 21329665.95 32052795.19 L 21338947.96 32009115.19 L 21341131.97 31973079.20 L 21338401.97 31935951.19 L 21330757.98 31896639.19 L 21320383.98 31869339.19 L 21304549.99 31841493.19 L 21277795.99 31813101.18 L 21258140.00 31801089.18 L 21225380.00 31789077.18 L 21188798.00 31784163.17 L 21028820.00 31783071.14 L 21028819.93 32160903.14 L 21183883.93 32160357.17  zM 21079051.94 32116131.15 L 21079051.99 31827843.15 L 21168595.99 31827843.17 L 21189889.99 31829481.17 L 21221557.99 31835487.17 L 21241213.99 31845861.18 L 21254863.99 31857327.18 L 21271243.98 31881897.18 L 21279433.98 31902099.18 L 21286531.97 31932675.19 L 21289807.97 31975263.19 L 21288169.96 32001471.19 L 21281617.96 32038053.18 L 21273427.95 32059347.18 L 21262507.95 32076273.18 L 21241759.95 32097021.18 L 21221557.94 32108487.17 L 21187159.94 32115039.17 L 21079051.94 32116131.15  z"/>
<path id="N" d="M 17976747.00 34029210.00 L 17971503.00 33990317.00 L 17965385.00 33974148.00 L 17953149.00 33958416.00 L 17936543.00 33945743.00 L 17912071.00 33937003.00 L 17891532.00 33935255.00 L 17867060.00 33940499.00 L 17848706.00 33949239.00 L 17834722.00 33962349.00 L 17821175.00 33986384.00 L 17811998.00 34019596.00 L 17796266.00 33995561.00 L 17773542.00 33975022.00 L 17674780.00 33911220.00 L 17674780.00 33961038.00 L 17737708.00 34000805.00 L 17773105.00 34025277.00 L 17793644.00 34043194.00 L 17802384.00 34055867.00 L 17808065.00 34073784.00 L 17808939.00 34136712.00 L 17674780.00 34136712.00 L 17674780.00 34176916.00 L 17977184.00 34176916.00 L 17976747.00 34029210.00  zM 17943535.00 34136712.00 L 17843462.00 34136712.00 L 17843462.00 34046690.00 L 17844773.00 34028336.00 L 17849143.00 34007360.00 L 17858757.00 33991628.00 L 17869245.00 33983325.00 L 17888910.00 33976770.00 L 17906827.00 33978081.00 L 17923870.00 33986821.00 L 17933921.00 33998620.00 L 17941350.00 34019596.00 L 17943535.00 34041446.00 L 17943535.00 34136712.00  z"/>
<path id="N" d="M 18723250.99 33954885.00 L 18660322.99 33915118.00 L 18624925.99 33890646.00 L 18604386.99 33872728.99 L 18595646.99 33860055.99 L 18589966.00 33842138.99 L 18589092.00 33779210.99 L 18723251.00 33779211.00 L 18723251.00 33739007.00 L 18420847.00 33739006.99 L 18421283.99 33886712.99 L 18426527.99 33925605.99 L 18432645.99 33941774.99 L 18444881.99 33957506.99 L 18461487.99 33970179.99 L 18485959.99 33978919.99 L 18506498.99 33980667.99 L 18530970.99 33975423.99 L 18549324.99 33966683.99 L 18563308.99 33953573.99 L 18576855.99 33929538.99 L 18586032.99 33896326.99 L 18601764.99 33920361.99 L 18624488.99 33940901.00 L 18723250.99 34004703.00 L 18723250.99 33954885.00  zM 18479841.99 33933034.99 L 18468042.99 33922983.99 L 18461487.99 33911621.99 L 18454932.99 33886275.99 L 18454496.00 33779210.99 L 18554569.00 33779210.99 L 18554568.99 33869232.99 L 18551072.99 33901570.99 L 18542332.99 33920361.99 L 18530533.99 33931723.99 L 18514364.99 33938278.99 L 18496447.99 33938715.99 L 18479841.99 33933034.99  z"/>
<path id="N" d="M 21875872.99 34156633.00 L 21812944.99 34116866.00 L 21777547.99 34092394.00 L 21757008.99 34074476.99 L 21748268.99 34061803.99 L 21742588.00 34043886.99 L 21741714.00 33980958.99 L 21875873.00 33980959.00 L 21875873.00 33940755.00 L 21573469.00 33940754.99 L 21573905.99 34088460.99 L 21579149.99 34127353.99 L 21585267.99 34143522.99 L 21597503.99 34159254.99 L 21614109.99 34171927.99 L 21638581.99 34180667.99 L 21659120.99 34182415.99 L 21683592.99 34177171.99 L 21701946.99 34168431.99 L 21715930.99 34155321.99 L 21729477.99 34131286.99 L 21738654.99 34098074.99 L 21754386.99 34122109.99 L 21777110.99 34142649.00 L 21875872.99 34206451.00 L 21875872.99 34156633.00  zM 21632463.99 34134782.99 L 21620664.99 34124731.99 L 21614109.99 34113369.99 L 21607554.99 34088023.99 L 21607118.00 33980958.99 L 21707191.00 33980958.99 L 21707190.99 34070980.99 L 21703694.99 34103318.99 L 21694954.99 34122109.99 L 21683155.99 34133471.99 L 21666986.99 34140026.99 L 21649069.99 34140463.99 L 21632463.99 34134782.99  z"/>
<path id="N" d="M 19273249.99 36787988.00 L 19210321.99 36748221.00 L 19174924.99 36723749.00 L 19154385.99 36705831.99 L 19145645.99 36693158.99 L 19139965.00 36675241.99 L 19139091.00 36612313.99 L 19273250.00 36612314.00 L 19273250.00 36572110.00 L 18970846.00 36572109.99 L 18971282.99 36719815.99 L 18976526.99 36758708.99 L 18982644.99 36774877.99 L 18994880.99 36790609.99 L 19011486.99 36803282.99 L 19035958.99 36812022.99 L 19056497.99 36813770.99 L 19080969.99 36808526.99 L 19099323.99 36799786.99 L 19113307.99 36786676.99 L 19126854.99 36762641.99 L 19136031.99 36729429.99 L 19151763.99 36753464.99 L 19174487.99 36774004.00 L 19273249.99 36837806.00 L 19273249.99 36787988.00  zM 19029840.99 36766137.99 L 19018041.99 36756086.99 L 19011486.99 36744724.99 L 19004931.99 36719378.99 L 19004495.00 36612313.99 L 19104568.00 36612313.99 L 19104567.99 36702335.99 L 19101071.99 36734673.99 L 19092331.99 36753464.99 L 19080532.99 36764826.99 L 19064363.99 36771381.99 L 19046446.99 36771818.99 L 19029840.99 36766137.99  z"/>
<path id="N" d="M 15375216.99 37305758.00 L 15312288.99 37265991.00 L 15276891.99 37241519.00 L 15256352.99 37223601.99 L 15247612.99 37210928.99 L 15241932.00 37193011.99 L 15241058.00 37130083.99 L 15375217.00 37130084.00 L 15375217.00 37089880.00 L 15072813.00 37089879.99 L 15073249.99 37237585.99 L 15078493.99 37276478.99 L 15084611.99 37292647.99 L 15096847.99 37308379.99 L 15113453.99 37321052.99 L 15137925.99 37329792.99 L 15158464.99 37331540.99 L 15182936.99 37326296.99 L 15201290.99 37317556.99 L 15215274.99 37304446.99 L 15228821.99 37280411.99 L 15237998.99 37247199.99 L 15253730.99 37271234.99 L 15276454.99 37291774.00 L 15375216.99 37355576.00 L 15375216.99 37305758.00  zM 15131807.99 37283907.99 L 15120008.99 37273856.99 L 15113453.99 37262494.99 L 15106898.99 37237148.99 L 15106462.00 37130083.99 L 15206535.00 37130083.99 L 15206534.99 37220105.99 L 15203038.99 37252443.99 L 15194298.99 37271234.99 L 15182499.99 37282596.99 L 15166330.99 37289151.99 L 15148413.99 37289588.99 L 15131807.99 37283907.99  z"/>
<path id="N" d="M 18317940.99 38120267.99 L 18346878.99 38113715.99 L 18367626.99 38104433.99 L 18387828.99 38089691.99 L 18394926.99 38080955.99 L 18406938.99 38058023.99 L 18415128.99 38030723.99 L 18420042.99 37994141.99 L 18420589.00 37883303.99 L 18574015.00 37883304.00 L 18574015.00 37833072.00 L 18196183.00 37833071.98 L 18196182.99 37988135.98 L 18198912.99 38024717.98 L 18203826.99 38049287.98 L 18218022.99 38079317.98 L 18227304.99 38090237.98 L 18245868.99 38105525.99 L 18269346.99 38115899.99 L 18295554.99 38120813.99 L 18317940.99 38120267.99  zM 18306474.99 38070035.99 L 18280266.99 38065121.99 A 60949.06 60949.06 0 0 1 18242046.99 38009429.99 L 18240955.00 37883303.99 L 18375817.00 37883303.99 L 18375816.99 37984859.99 L 18371448.99 38018711.99 L 18363804.99 38040551.99 L 18357798.99 38049287.99 A 68796.23 68796.23 0 0 1 18306474.99 38070035.99  z"/>
<path id="N" d="M 23170820.97 36251062.00 L 23199758.97 36243418.00 L 23227058.97 36225946.00 L 23245076.97 36208474.00 L 23253266.97 36195916.00 L 23263640.97 36172984.00 L 23270738.97 36145138.00 L 23274014.97 36108556.00 L 23269646.98 36064330.00 L 23262002.98 36035392.00 L 23253812.98 36018466.00 L 23234702.98 35994988.00 L 23215046.98 35979700.00 L 23202488.98 35973694.00 L 23177918.98 35966596.00 L 23129324.98 35960043.99 L 22889630.98 35959497.98 L 22889630.98 36009729.98 L 23108576.98 36009729.99 L 23159354.98 36013552.00 L 23184470.98 36020104.00 L 23205218.98 36035392.00 L 23216138.98 36049588.00 L 23222144.98 36064876.00 L 23226512.98 36082348.00 L 23228696.97 36109648.00 L 23222690.97 36147868.00 L 23212316.97 36172438.00 L 23204126.97 36182812.00 L 23187746.97 36192640.00 L 23161538.97 36200830.00 L 23120588.97 36206289.99 L 22889630.97 36206289.98 L 22889630.97 36256521.98 L 23170820.97 36251062.00  z"/>
<path id="N" d="M 12042079.00 35032744.00 L 12076165.00 35026626.00 L 12104133.00 35013079.00 L 12124672.00 34993414.00 L 12142152.00 34967194.00 L 12150018.00 34947092.00 L 12157447.00 34912132.00 L 12158758.00 34871491.00 L 12153514.00 34833035.00 L 12142589.00 34800260.00 L 12129916.00 34777973.00 L 12108503.00 34755249.00 L 12092771.00 34745635.00 L 12065677.00 34736021.00 L 12037272.00 34732088.00 L 11909231.00 34731214.00 L 11909231.00 35033618.00 L 12042079.00 35032744.00  zM 11949435.00 34997784.00 L 11949435.00 34767048.00 L 12021103.00 34767048.00 L 12038146.00 34768359.00 L 12061307.00 34772729.00 L 12074854.00 34778847.00 L 12090149.00 34790646.00 L 12106755.00 34817740.00 L 12114184.00 34842212.00 L 12118117.00 34885038.00 L 12114184.00 34923057.00 L 12107629.00 34946655.00 L 12099763.00 34961513.00 L 12079661.00 34982489.00 L 12063492.00 34991666.00 L 12035961.00 34996910.00 L 11949435.00 34997784.00  z"/>
<path id="N" d="M 13862800.00 36985366.00 L 13896886.00 36979248.00 L 13924854.00 36965701.00 L 13945393.00 36946036.00 L 13962873.00 36919816.00 L 13970739.00 36899714.00 L 13978168.00 36864754.00 L 13979479.00 36824113.00 L 13974235.00 36785657.00 L 13963310.00 36752882.00 L 13950637.00 36730595.00 L 13929224.00 36707871.00 L 13913492.00 36698257.00 L 13886398.00 36688643.00 L 13857993.00 36684710.00 L 13729952.00 36683836.00 L 13729952.00 36986240.00 L 13862800.00 36985366.00  zM 13770156.00 36950406.00 L 13770156.00 36719670.00 L 13841824.00 36719670.00 L 13858867.00 36720981.00 L 13882028.00 36725351.00 L 13895575.00 36731469.00 L 13910870.00 36743268.00 L 13927476.00 36770362.00 L 13934905.00 36794834.00 L 13938838.00 36837660.00 L 13934905.00 36875679.00 L 13928350.00 36899277.00 L 13920484.00 36914135.00 L 13900382.00 36935111.00 L 13884213.00 36944288.00 L 13856682.00 36949532.00 L 13770156.00 36950406.00  z"/>
<path id="N" d="M 15764329.00 32282744.00 L 15798415.00 32276626.00 L 15826383.00 32263079.00 L 15846922.00 32243414.00 L 15864402.00 32217194.00 L 15872268.00 32197092.00 L 15879697.00 32162132.00 L 15881008.00 32121491.00 L 15875764.00 32083035.00 L 15864839.00 32050260.00 L 15852166.00 32027973.00 L 15830753.00 32005249.00 L 15815021.00 31995635.00 L 15787927.00 31986021.00 L 15759522.00 31982088.00 L 15631481.00 31981214.00 L 15631481.00 32283618.00 L 15764329.00 32282744.00  zM 15671685.00 32247784.00 L 15671685.00 32017048.00 L 15743353.00 32017048.00 L 15760396.00 32018359.00 L 15783557.00 32022729.00 L 15797104.00 32028847.00 L 15812399.00 32040646.00 L 15829005.00 32067740.00 L 15836434.00 32092212.00 L 15840367.00 32135038.00 L 15836434.00 32173057.00 L 15829879.00 32196655.00 L 15822013.00 32211513.00 L 15801911.00 32232489.00 L 15785742.00 32241666.00 L 15758211.00 32246910.00 L 15671685.00 32247784.00  z"/>
<path id="N" d="M 16119428.00 34811003.00 L 16116806.00 34773421.00 L 16110688.00 34743705.00 L 16104133.00 34729284.00 L 16088838.00 34709182.00 L 16071358.00 34695198.00 L 16052567.00 34686895.00 L 16023725.00 34680340.00 L 15990513.00 34679029.00 L 15953805.00 34684710.00 L 15931518.00 34693013.00 L 15910105.00 34710056.00 L 15897869.00 34725788.00 L 15889566.00 34746764.00 L 15882574.00 34786531.00 L 15881700.00 34986240.00 L 15921904.00 34986240.00 L 15921904.00 34811003.00 L 15923652.00 34779976.00 L 15929333.00 34752445.00 L 15942443.00 34733654.00 L 15954679.00 34724477.00 L 15972159.00 34717922.00 L 16001875.00 34714863.00 L 16032465.00 34719670.00 L 16052130.00 34727973.00 L 16061307.00 34735402.00 L 16071795.00 34756378.00 L 16078350.00 34791775.00 L 16079224.00 34986240.00 L 16119428.00 34986240.00 L 16119428.00 34811003.00  z"/>
<path id="N" d="M 12084468.00 37679539.00 L 12083157.00 37658563.00 L 12077913.00 37629721.00 A 67558.69 67558.69 0 0 0 12025473.00 37582088.00 L 11999253.00 37578592.00 L 11976529.00 37581651.00 L 11951620.00 37590828.00 L 11937199.00 37602190.00 L 11929770.00 37614426.00 L 11920593.00 37639335.00 L 11917971.00 37669051.00 L 11954242.00 37674295.00 L 11956427.00 37655504.00 L 11962982.00 37632780.00 L 11969100.00 37625351.00 L 11985269.00 37616611.00 L 11998816.00 37614426.00 L 12016296.00 37617048.00 L 12031154.00 37625788.00 L 12039894.00 37640209.00 L 12043390.00 37660748.00 L 12044264.00 37886240.00 L 12084468.00 37886240.00 L 12084468.00 37679539.00  z"/>
<path id="N" d="M 12112217.00 33479539.00 L 12110906.00 33458563.00 L 12105662.00 33429721.00 A 67558.69 67558.69 0 0 0 12053222.00 33382088.00 L 12027002.00 33378592.00 L 12004278.00 33381651.00 L 11979369.00 33390828.00 L 11964948.00 33402190.00 L 11957519.00 33414426.00 L 11948342.00 33439335.00 L 11945720.00 33469051.00 L 11981991.00 33474295.00 L 11984176.00 33455504.00 L 11990731.00 33432780.00 L 11996849.00 33425351.00 L 12013018.00 33416611.00 L 12026565.00 33414426.00 L 12044045.00 33417048.00 L 12058903.00 33425788.00 L 12067643.00 33440209.00 L 12071139.00 33460748.00 L 12072013.00 33686240.00 L 12112217.00 33686240.00 L 12112217.00 33479539.00  z"/>
<path id="N" d="M 11691172.00 39172677.00 L 11699098.00 39153543.00 L 11699098.00 37432418.00 L 11691172.00 37413284.00 L 11672038.00 37405358.00 L 11652904.00 37413284.00 L 11644978.00 37432418.00 L 11644978.00 39126483.00 L 8195168.00 39126483.00 L 8195168.00 37432412.00 L 8187242.00 37413278.00 L 8168108.00 37405352.00 L 8148974.00 37413278.00 L 8141048.00 37432412.00 L 8141048.00 39153543.00 L 8148974.00 39172677.00 L 8168108.00 39180603.00 L 11672038.00 39180603.00 L 11691172.00 39172677.00  z"/>
<path id="N" d="M 11690391.00 33452864.00 L 11698317.00 33433730.00 L 11698317.00 31712599.00 L 11690391.00 31693465.00 L 11671257.00 31685539.00 L 8167327.00 31685539.00 L 8148193.00 31693465.00 L 8140267.00 31712599.00 L 8140267.00 33433724.00 L 8148193.00 33452858.00 L 8167327.00 33460784.00 L 8186461.00 33452858.00 L 8194387.00 33433724.00 L 8194387.00 31739659.00 L 11644197.00 31739659.00 L 11644197.00 33433730.00 L 11652123.00 33452864.00 L 11671257.00 33460790.00 L 11690391.00 33452864.00  z"/>
<path id="N" d="M 18574014.97 38533044.00 L 18574014.97 38483904.00 L 18242046.98 38392721.99 L 18246414.98 38391629.99 L 18574014.98 38301540.00 L 18574014.98 38249124.00 L 18196182.99 38150297.98 L 18196182.98 38202167.98 L 18444612.98 38258405.99 L 18521052.98 38274786.00 L 18489930.98 38282430.00 L 18196182.98 38363783.98 L 18196182.97 38424389.98 L 18430962.97 38489363.99 L 18521052.97 38507928.00 L 18511770.97 38510112.00 L 18196182.97 38586005.98 L 18196182.96 38636783.98 L 18574014.97 38533044.00  z"/>
<path id="N" d="M 10774014.47 34933069.47 m -100354.75 0 a 100354.75 100354.75 0 1 1 200709.51 0a 100354.75 100354.75 0 1 1 -200709.51 0"/>
<path id="N" d="M 15674014.47 36483069.47 m -100354.75 0 a 100354.75 100354.75 0 1 1 200709.51 0a 100354.75 100354.75 0 1 1 -200709.51 0"/>
<path id="N" d="M 17354489.00 36603755.00 L 17366970.00 36573622.00 L 17366970.00 35392520.00 L 17354489.00 35362387.00 L 17324356.00 35349906.00 L 16617376.00 35349906.00 L 16587243.00 35362387.00 L 16574762.00 35392520.00 L 16574762.00 36573622.00 L 16587243.00 36603755.00 L 16617376.00 36616236.00 L 17324356.00 36616236.00 L 17354489.00 36603755.00  zM 17281742.00 36531008.00 L 16659990.00 36531008.00 L 16659990.00 35435134.00 L 17281742.00 35435134.00 L 17281742.00 36531008.00  z"/>
<path id="N" d="M 14317715.47 35135037.47 m -100354.75 0 a 100354.75 100354.75 0 1 1 200709.51 0a 100354.75 100354.75 0 1 1 -200709.51 0"/>
<path id="N" d="M 16274014.47 32361022.47 m -100354.75 0 a 100354.75 100354.75 0 1 1 200709.51 0a 100354.75 100354.75 0 1 1 -200709.51 0"/>
<path id="N" d="M 8187242.00 36996170.00 L 8195168.00 36977036.00 L 8195168.00 36326272.00 L 9343201.00 36326272.00 L 9362335.00 36318346.00 L 9370261.00 36299212.00 L 9362335.00 36280078.00 L 9343201.00 36272152.00 L 8168108.00 36272152.00 L 8148974.00 36280078.00 L 8141048.00 36299212.00 L 8141048.00 36977036.00 L 8148974.00 36996170.00 L 8168108.00 37004096.00 L 8187242.00 36996170.00  z"/>
<path id="N" d="M 11690391.00 34586064.00 L 11698317.00 34566930.00 L 11698317.00 33889106.00 L 11690391.00 33869972.00 L 11671257.00 33862046.00 L 11652123.00 33869972.00 L 11644197.00 33889106.00 L 11644197.00 34539870.00 L 10496164.00 34539870.00 L 10477030.00 34547796.00 L 10469104.00 34566930.00 L 10477030.00 34586064.00 L 10496164.00 34593990.00 L 11671257.00 34593990.00 L 11690391.00 34586064.00  z"/>
<path id="N" d="M 15654543.00 32824228.00 L 15667024.00 32794095.00 L 15667024.00 32576867.00 L 15945276.00 32576867.00 L 15975409.00 32564386.00 L 15987890.00 32534253.00 L 15975409.00 32504120.00 L 15945276.00 32491639.00 L 15624410.00 32491639.00 L 15594277.00 32504120.00 L 15581796.00 32534253.00 L 15581796.00 32794095.00 L 15594277.00 32824228.00 L 15624410.00 32836709.00 L 15654543.00 32824228.00  z"/>
<path id="N" d="M 14019110.00 36488007.00 L 14031591.00 36457874.00 L 14019110.00 36427741.00 L 13988977.00 36415260.00 L 13710725.00 36415260.00 L 13710725.00 36198031.00 L 13698244.00 36167898.00 L 13668111.00 36155417.00 L 13637978.00 36167898.00 L 13625497.00 36198031.00 L 13625497.00 36457874.00 L 13637978.00 36488007.00 L 13668111.00 36500488.00 L 13988977.00 36500488.00 L 14019110.00 36488007.00  z"/>
<path id="N" d="M 13698244.00 35598243.00 L 13710725.00 35568110.00 L 13710725.00 35350882.00 L 13988977.00 35350882.00 L 14019110.00 35338401.00 L 14031591.00 35308268.00 L 14019110.00 35278135.00 L 13988977.00 35265654.00 L 13668111.00 35265654.00 L 13637978.00 35278135.00 L 13625497.00 35308268.00 L 13625497.00 35568110.00 L 13637978.00 35598243.00 L 13668111.00 35610724.00 L 13698244.00 35598243.00  z"/>
<path id="N" d="M 15975409.00 33713992.00 L 15987890.00 33683859.00 L 15975409.00 33653726.00 L 15945276.00 33641245.00 L 15667024.00 33641245.00 L 15667024.00 33424016.00 L 15654543.00 33393883.00 L 15624410.00 33381402.00 L 15594277.00 33393883.00 L 15581796.00 33424016.00 L 15581796.00 33683859.00 L 15594277.00 33713992.00 L 15624410.00 33726473.00 L 15945276.00 33726473.00 L 15975409.00 33713992.00  z"/>
<path id="N" d="M 11691172.00 36996164.00 L 11699098.00 36977030.00 L 11699098.00 36299212.00 L 11691172.00 36280078.00 L 11672038.00 36272152.00 L 11138593.00 36272152.00 L 11119459.00 36280078.00 L 11111533.00 36299212.00 L 11119459.00 36318346.00 L 11138593.00 36326272.00 L 11644978.00 36326272.00 L 11644978.00 36977030.00 L 11652904.00 36996164.00 L 11672038.00 37004090.00 L 11691172.00 36996164.00  z"/>
<path id="N" d="M 8719906.00 34586064.00 L 8727832.00 34566930.00 L 8719906.00 34547796.00 L 8700772.00 34539870.00 L 8194387.00 34539870.00 L 8194387.00 33889112.00 L 8186461.00 33869978.00 L 8167327.00 33862052.00 L 8148193.00 33869978.00 L 8140267.00 33889112.00 L 8140267.00 34566930.00 L 8148193.00 34586064.00 L 8167327.00 34593990.00 L 8700772.00 34593990.00 L 8719906.00 34586064.00  z"/>
<path id="N" d="M 15302674.98 37535183.00 L 15375216.98 37535183.00 L 15375216.98 37498038.00 L 15302674.98 37498038.00 L 15302674.99 37366501.00 L 15268588.99 37366501.00 L 15072812.98 37505029.99 L 15072812.98 37535182.99 L 15268588.98 37535183.00 L 15268588.98 37576261.00 L 15302674.98 37576261.00 L 15302674.98 37535183.00  zM 15268588.98 37498038.00 L 15133118.98 37498037.99 L 15268588.99 37402772.00 L 15268588.98 37498038.00  z"/>
<path id="N" d="M 18452675.98 37541302.00 L 18525217.98 37541302.00 L 18525217.98 37504157.00 L 18452675.98 37504157.00 L 18452675.99 37372620.00 L 18418589.99 37372620.00 L 18222813.98 37511148.99 L 18222813.98 37541301.99 L 18418589.98 37541302.00 L 18418589.98 37582380.00 L 18452675.98 37582380.00 L 18452675.98 37541302.00  zM 18418589.98 37504157.00 L 18283119.98 37504156.99 L 18418589.99 37408891.00 L 18418589.98 37504157.00  z"/>
<path id="N" d="M 17935986.00 32433071.00 L 17879202.00 32433071.00 L 17834976.00 32547731.00 L 17676636.00 32547731.00 L 17635686.00 32433071.00 L 17582724.00 32433071.00 L 17726868.00 32810903.00 L 17781468.00 32810903.00 L 17935986.00 32433071.00  zM 17753076.00 32771045.00 L 17741064.00 32725727.00 L 17691378.00 32588681.00 L 17819142.00 32588681.00 L 17779830.00 32692967.00 L 17753076.00 32771045.00  z"/>
<path id="N" d="M 15606136.00 38531214.00 L 15568991.00 38531214.00 L 15568554.00 38767194.00 L 15566369.00 38765446.00 L 15532720.00 38741411.00 L 15494701.00 38723057.00 L 15494701.00 38758891.00 L 15521795.00 38773749.00 L 15549763.00 38795162.00 L 15567243.00 38813516.00 L 15582101.00 38834929.00 L 15606136.00 38834929.00 L 15606136.00 38531214.00  z"/>
<path id="N" d="M 19620344.00 38547649.00 L 19722992.00 38547649.00 L 19722992.00 38504515.00 L 19620344.00 38504515.00 L 19620344.00 38400775.00 L 19576664.00 38400775.00 L 19576664.00 38504515.00 L 19474016.00 38504515.00 L 19474016.00 38547649.00 L 19576664.00 38547649.00 L 19576664.00 38650297.00 L 19620344.00 38650297.00 L 19620344.00 38547649.00  z"/>
<path id="N" d="M 12302312.00 33383836.00 L 12265167.00 33383836.00 L 12264730.00 33619816.00 L 12262545.00 33618068.00 L 12228896.00 33594033.00 L 12190877.00 33575679.00 L 12190877.00 33611513.00 L 12217971.00 33626371.00 L 12245939.00 33647784.00 L 12263419.00 33666138.00 L 12278277.00 33687551.00 L 12302312.00 33687551.00 L 12302312.00 33383836.00  z"/>
<path id="N" d="M 20538583.00 34281214.00 L 20501438.00 34281214.00 L 20501001.00 34517194.00 L 20498816.00 34515446.00 L 20465167.00 34491411.00 L 20427148.00 34473057.00 L 20427148.00 34508891.00 L 20454242.00 34523749.00 L 20482210.00 34545162.00 L 20499690.00 34563516.00 L 20514548.00 34584929.00 L 20538583.00 34584929.00 L 20538583.00 34281214.00  z"/>
<path id="N" d="M 12338802.00 34731214.00 L 12301657.00 34731214.00 L 12301220.00 34967194.00 L 12299035.00 34965446.00 L 12265386.00 34941411.00 L 12227367.00 34923057.00 L 12227367.00 34958891.00 L 12254461.00 34973749.00 L 12282429.00 34995162.00 L 12299909.00 35013516.00 L 12314767.00 35034929.00 L 12338802.00 35034929.00 L 12338802.00 34731214.00  z"/>
<path id="N" d="M 19611458.01 35468878.99 L 19590482.02 35428674.99 L 19569506.02 35401143.99 L 19805923.02 35401144.00 L 19805923.02 35363999.00 L 19502208.02 35363998.99 L 19502208.02 35388033.99 L 19509637.02 35392403.99 L 19534983.02 35413379.99 L 19557270.02 35439599.99 L 19578246.01 35475433.99 L 19614080.01 35475433.99 L 19611458.01 35468878.99  z"/>
<path id="N" d="M 15371030.00 38531214.00 L 15333885.00 38531214.00 L 15333448.00 38767194.00 L 15331263.00 38765446.00 L 15297614.00 38741411.00 L 15259595.00 38723057.00 L 15259595.00 38758891.00 L 15286689.00 38773749.00 L 15314657.00 38795162.00 L 15332137.00 38813516.00 L 15346995.00 38834929.00 L 15371030.00 38834929.00 L 15371030.00 38531214.00  z"/>
<path id="N" d="M 19273249.98 36964099.00 L 19037269.98 36963661.99 L 19039017.98 36961476.99 L 19063052.98 36927827.99 L 19081406.99 36889808.99 L 19045572.99 36889808.99 L 19030714.98 36916902.99 L 19009301.98 36944870.99 L 18990947.98 36962350.99 L 18969534.98 36977208.99 L 18969534.98 37001243.99 L 19273249.98 37001244.00 L 19273249.98 36964099.00  z"/>
<path id="N" d="M 10259661.00 34888401.00 L 10272142.00 34858268.00 L 10259661.00 34828135.00 L 10229528.00 34815654.00 L 8418504.00 34815654.00 L 8388371.00 34828135.00 L 8375890.00 34858268.00 L 8388371.00 34888401.00 L 8418504.00 34900882.00 L 10229528.00 34900882.00 L 10259661.00 34888401.00  z"/>
<path id="N" d="M 10259661.00 36038007.00 L 10272142.00 36007874.00 L 10259661.00 35977741.00 L 10229528.00 35965260.00 L 8418504.00 35965260.00 L 8388371.00 35977741.00 L 8375890.00 36007874.00 L 8388371.00 36038007.00 L 8418504.00 36050488.00 L 10229528.00 36050488.00 L 10259661.00 36038007.00  z"/>
<path id="N" d="M 10492341.00 36318346.00 L 10500267.00 36299212.00 L 10492341.00 36280078.00 L 10473207.00 36272152.00 L 9906395.00 36272152.00 L 9887261.00 36280078.00 L 9879335.00 36299212.00 L 9887261.00 36318346.00 L 9906395.00 36326272.00 L 10473207.00 36326272.00 L 10492341.00 36318346.00  z"/>
<path id="N" d="M 9952104.00 34586064.00 L 9960030.00 34566930.00 L 9952104.00 34547796.00 L 9932970.00 34539870.00 L 9366158.00 34539870.00 L 9347024.00 34547796.00 L 9339098.00 34566930.00 L 9347024.00 34586064.00 L 9366158.00 34593990.00 L 9932970.00 34593990.00 L 9952104.00 34586064.00  z"/>
<path id="N" d="M 11352652.00 35159969.00 L 11362163.00 35137008.00 L 11352652.00 35114047.00 L 11329691.00 35104536.00 L 11168893.00 35104536.00 L 11145932.00 35114047.00 L 11136421.00 35137008.00 L 11145932.00 35159969.00 L 11168893.00 35169480.00 L 11329691.00 35169480.00 L 11352652.00 35159969.00  z"/>
<path id="N" d="M 20944736.00 31783071.13 L 20892866.00 31783071.12 L 20695213.95 32079549.08 L 20695214.00 31783071.08 L 20647166.00 31783071.07 L 20647165.93 32160903.07 L 20698489.93 32160903.08 L 20896687.99 31863879.12 L 20896687.93 32160903.12 L 20944735.93 32160903.13 L 20944736.00 31783071.13  z"/>
<path id="N" d="M 11352652.00 35752095.00 L 11362163.00 35729134.00 L 11352652.00 35706173.00 L 11329691.00 35696662.00 L 11168893.00 35696662.00 L 11145932.00 35706173.00 L 11136421.00 35729134.00 L 11145932.00 35752095.00 L 11168893.00 35761606.00 L 11329691.00 35761606.00 L 11352652.00 35752095.00  z"/>
<path id="N" d="M 20247698.00 38339623.00 L 20195282.00 38339623.00 L 20048954.00 38717455.00 L 20103554.00 38717455.00 L 20201834.00 38442271.00 L 20221490.00 38381665.00 L 20230226.00 38410057.00 L 20344340.00 38717455.00 L 20395118.00 38717455.00 L 20247698.00 38339623.00  z"/>
<path id="N" d="M 22934402.96 36486387.99 L 23267462.96 36486388.00 L 23267462.96 36436156.00 L 22934402.96 36436155.99 L 22934402.97 36311667.99 L 22889630.97 36311667.98 L 22889630.95 36610875.98 L 22934402.95 36610875.99 L 22934402.96 36486387.99  z"/>
<path id="N" d="M 11899293.66 35433071.00 m -64942.34 0 a 64942.34 64942.34 0 1 1 129884.69 0a 64942.34 64942.34 0 1 1 -129884.69 0"/>
<path id="N" d="M 19422268.00 31827843.00 L 19608454.00 31827843.00 L 19608454.00 31783071.00 L 19372036.00 31783071.00 L 19372036.00 32160903.00 L 19422268.00 32160903.00 L 19422268.00 31827843.00  z"/>
<path id="N" d="M 17974017.00 38933070.00 L 17659057.00 38933070.00 L 17659057.00 38992125.00 L 17974017.00 38992125.00 L 17974017.00 38933070.00  z"/>
</g>
</svg>
