<svg width="35.90526474mm" height="21.80000212mm" viewBox="0 0 14135931 8582678"  version="1.1" xmlns="http://www.w3.org/2000/svg" xmlns:xlink="http://www.w3.org/1999/xlink">
<desc>
Origin 9055113 35433070 Bound 9055118 31141731 14135931 8582678
</desc>
<g fill-rule="evenodd" fill="rgb(128, 128, 0)" stroke="black" stroke-width="1" transform="translate(0, 8582678) scale(1, -1) translate(-9055118, -31141731)">
<path id="N" d="M 17660630.00 35452700.00 L 17657134.00 35416429.00 L 17649705.00 35386713.00 A 88681.57 88681.57 0 0 0 17599887.00 35338206.00 L 17576726.00 35332088.00 L 17541329.00 35328592.00 L 17505495.00 35332525.00 L 17481897.00 35339954.00 L 17461358.00 35351753.00 L 17447374.00 35366174.00 L 17435575.00 35384091.00 L 17429894.00 35399386.00 L 17423776.00 35440464.00 L 17422902.00 35636240.00 L 17463106.00 35636240.00 L 17463980.00 35441775.00 L 17470535.00 35406378.00 L 17478838.00 35388461.00 L 17490200.00 35377973.00 L 17509865.00 35369670.00 L 17533900.00 35365300.00 L 17562305.00 35366611.00 L 17581533.00 35371855.00 L 17594643.00 35378847.00 L 17607316.00 35392831.00 L 17614745.00 35407252.00 L 17619552.00 35439590.00 L 17620426.00 35636240.00 L 17660630.00 35636240.00 L 17660630.00 35452700.00  z"/>
<path id="N" d="M 17646062.95 36483070.95 m -101959.21 0 a 101959.21 101959.21 0 1 1 203918.42 0a 101959.21 101959.21 0 1 1 -203918.42 0"/>
<path id="N" d="M 17259901.00 35630122.00 L 17280877.00 35604776.00 L 17307097.00 35582489.00 L 17342931.00 35561513.00 L 17342931.00 35525679.00 L 17336376.00 35528301.00 L 17296172.00 35549277.00 L 17268641.00 35570253.00 L 17268641.00 35333836.00 L 17231496.00 35333836.00 L 17231496.00 35637551.00 L 17255531.00 35637551.00 L 17259901.00 35630122.00  z"/>
<path id="N" d="M 19867881.00 36276031.00 L 19877392.00 36253070.00 L 19877392.00 34613070.00 L 19867881.00 34590109.00 L 19844920.00 34580598.00 L 19821959.00 34590109.00 L 19812448.00 34613070.00 L 19812448.00 36253070.00 L 19821959.00 36276031.00 L 19844920.00 36285542.00 L 19867881.00 36276031.00  z"/>
<path id="N" d="M 17837881.00 36276031.00 L 17847392.00 36253070.00 L 17847392.00 34613070.00 L 17837881.00 34590109.00 L 17814920.00 34580598.00 L 17791959.00 34590109.00 L 17782448.00 34613070.00 L 17782448.00 36253070.00 L 17791959.00 36276031.00 L 17814920.00 36285542.00 L 17837881.00 36276031.00  z"/>
</g>
</svg>
