<svg width="41.99999982mm" height="20.00000064mm" viewBox="0 0 16535433 7874016"  version="1.1" xmlns="http://www.w3.org/2000/svg" xmlns:xlink="http://www.w3.org/1999/xlink">
<desc>
Origin 7874016 35433071 Bound 7874016 31496063 16535433 7874016
</desc>
<g fill-rule="evenodd" fill="rgb(0, 0, 255)" stroke="black" stroke-width="1" transform="translate(0, 7874016) scale(1, -1) translate(-7874016, -31496063)">
<path id="N" d="M 20754723.00 36203070.00 L 20708843.00 36203070.00 L 20708843.00 36124782.95 L 21021630.05 35811995.00 L 22418128.26 35811995.00 L 22438863.00 35843028.00 A 120431.73 120431.73 0 1 0 22438863.00 35672722.00 L 22418128.26 35703755.00 L 20999213.00 35703755.00 L 20960943.29 35719607.71 L 20616454.00 36064096.00 L 20600603.00 36102367.41 L 20600603.00 36203070.00 L 20554723.00 36203070.00 L 20554723.00 36674172.00 L 20754723.00 36674172.00 L 20754723.00 36203070.00  z"/>
<path id="N" d="M 22524024.16 36407883.16 m -120412.98 0 a 120412.98 120412.98 0 1 1 240825.96 0a 120412.98 120412.98 0 1 1 -240825.96 0"/>
<path id="N" d="M 19754723.00 34191968.00 L 19658843.00 34191968.00 L 19658844.00 34163778.00 L 19642990.29 34125508.29 L 19437158.59 33919675.85 L 19444440.00 33883071.00 A 120431.73 120431.73 0 1 0 19324016.00 34003495.00 L 19360620.85 33996213.59 L 19550603.00 34186195.06 L 19550602.00 34377519.00 L 19554723.00 34387467.68 L 19554723.00 34663070.00 L 19754723.00 34663070.00 L 19754723.00 34191968.00  z"/>
<path id="N" d="M 13385835.16 31811031.16 m -120412.98 0 a 120412.98 120412.98 0 1 1 240825.96 0a 120412.98 120412.98 0 1 1 -240825.96 0"/>
<path id="N" d="M 12773380.16 32064718.16 m -120412.98 0 a 120412.98 120412.98 0 1 1 240825.96 0a 120412.98 120412.98 0 1 1 -240825.96 0"/>
<path id="N" d="M 13998290.16 32064718.16 m -120412.98 0 a 120412.98 120412.98 0 1 1 240825.96 0a 120412.98 120412.98 0 1 1 -240825.96 0"/>
<path id="N" d="M 12519693.16 32677173.16 m -120412.98 0 a 120412.98 120412.98 0 1 1 240825.96 0a 120412.98 120412.98 0 1 1 -240825.96 0"/>
<path id="N" d="M 13998290.16 33289628.16 m -120412.98 0 a 120412.98 120412.98 0 1 1 240825.96 0a 120412.98 120412.98 0 1 1 -240825.96 0"/>
<path id="N" d="M 12773380.16 33289628.16 m -120412.98 0 a 120412.98 120412.98 0 1 1 240825.96 0a 120412.98 120412.98 0 1 1 -240825.96 0"/>
<path id="N" d="M 13385835.16 33543315.16 m -120412.98 0 a 120412.98 120412.98 0 1 1 240825.96 0a 120412.98 120412.98 0 1 1 -240825.96 0"/>
<path id="N" d="M 14251977.16 32677173.16 m -120412.98 0 a 120412.98 120412.98 0 1 1 240825.96 0a 120412.98 120412.98 0 1 1 -240825.96 0"/>
<path id="N" d="M 12773380.16 38801440.16 m -120412.98 0 a 120412.98 120412.98 0 1 1 240825.96 0a 120412.98 120412.98 0 1 1 -240825.96 0"/>
<path id="N" d="M 12519693.16 38188985.16 m -120412.98 0 a 120412.98 120412.98 0 1 1 240825.96 0a 120412.98 120412.98 0 1 1 -240825.96 0"/>
<path id="N" d="M 13385835.16 37322843.16 m -120412.98 0 a 120412.98 120412.98 0 1 1 240825.96 0a 120412.98 120412.98 0 1 1 -240825.96 0"/>
<path id="N" d="M 13998290.16 37576530.16 m -120412.98 0 a 120412.98 120412.98 0 1 1 240825.96 0a 120412.98 120412.98 0 1 1 -240825.96 0"/>
<path id="N" d="M 14251977.16 38188985.16 m -120412.98 0 a 120412.98 120412.98 0 1 1 240825.96 0a 120412.98 120412.98 0 1 1 -240825.96 0"/>
<path id="N" d="M 13385835.16 39055127.16 m -120412.98 0 a 120412.98 120412.98 0 1 1 240825.96 0a 120412.98 120412.98 0 1 1 -240825.96 0"/>
<path id="N" d="M 12773380.16 37576530.16 m -120412.98 0 a 120412.98 120412.98 0 1 1 240825.96 0a 120412.98 120412.98 0 1 1 -240825.96 0"/>
<path id="N" d="M 13998290.16 38801440.16 m -120412.98 0 a 120412.98 120412.98 0 1 1 240825.96 0a 120412.98 120412.98 0 1 1 -240825.96 0"/>
<path id="N" d="M 9228946.00 37852424.00 L 9213919.67 37829935.33 L 10151547.00 36892308.00 L 12418899.00 36892309.00 L 12457168.00 36876457.00 L 12737410.71 36596213.50 L 12774016.00 36603495.00 A 120431.73 120431.73 0 1 0 12653592.00 36483071.00 L 12660873.50 36519676.29 L 12396481.04 36784068.00 L 10129129.00 36784068.00 L 10090860.00 36799919.00 L 9137381.67 37753397.33 L 9114893.00 37738371.00 A 210736.95 210736.95 0 1 0 9228946.00 37852424.00  zM 9034248.38 37933065.09 m -140500.91 0 a 140500.91 140500.91 0 1 1 281001.82 0a 140500.91 140500.91 0 1 1 -281001.82 0"/>
<path id="N" d="M 19859169.00 35818224.00 L 19879903.74 35787191.00 L 20124017.00 35787192.00 L 20162286.00 35771340.00 L 20690865.00 35242761.00 L 20706716.00 35204489.59 L 20706716.00 34663070.00 L 20754723.00 34663070.00 L 20754723.00 34191968.00 L 20708843.00 34191968.00 L 20708843.00 33813778.00 L 20692990.29 33775508.29 L 20362285.00 33444802.00 L 20324013.59 33428951.00 L 19929903.74 33428951.00 L 19909169.00 33397918.00 A 120431.73 120431.73 0 1 0 19909169.00 33568224.00 L 19929903.74 33537191.00 L 20301598.05 33537191.00 L 20600603.00 33836195.05 L 20600603.00 34191968.00 L 20554723.00 34191968.00 L 20554723.00 34663070.00 L 20598476.00 34663070.00 L 20598476.00 35182074.97 L 20101599.03 35678951.00 L 19879903.74 35678951.00 L 19859169.00 35647918.00 A 120431.73 120431.73 0 1 0 19859169.00 35818224.00  z"/>
<path id="N" d="M 9240158.00 34183071.00 L 8826772.00 34183071.00 L 8826772.00 34596457.00 L 9240158.00 34596457.00 L 9240158.00 34183071.00  zM 9033467.38 34389758.09 m -140500.91 0 a 140500.91 140500.91 0 1 1 281001.82 0a 140500.91 140500.91 0 1 1 -281001.82 0"/>
<path id="N" d="M 17324024.16 33807884.16 m -120412.98 0 a 120412.98 120412.98 0 1 1 240825.96 0a 120412.98 120412.98 0 1 1 -240825.96 0"/>
<path id="N" d="M 17324024.16 33157884.16 m -120412.98 0 a 120412.98 120412.98 0 1 1 240825.96 0a 120412.98 120412.98 0 1 1 -240825.96 0"/>
<path id="N" d="M 20462114.00 37138325.00 L 20462114.00 36774172.00 L 20454723.00 36774172.00 L 20454723.00 36249364.10 L 20390753.00 36185395.00 L 20118900.00 36185395.00 L 20101225.00 36203070.00 L 20054723.00 36203070.00 L 20054723.00 36249572.00 L 20045970.00 36258325.00 L 20045970.00 37131004.00 L 20119437.00 37204468.00 L 20395970.00 37204469.00 L 20462114.00 37138325.00  z"/>
<path id="N" d="M 19874017.00 37633069.00 L 19874010.00 36283068.00 L 19774014.00 36183072.00 L 19524014.00 36183072.00 L 19442488.00 36264599.63 L 19442488.00 36327180.00 L 19424014.00 36371780.20 L 19424014.00 37078951.00 L 18896434.00 37078951.00 L 18624986.00 36807503.00 L 18624986.00 34764972.74 L 18656019.00 34744238.00 A 120431.73 120431.73 0 1 0 18485713.00 34744238.00 L 18516746.00 34764972.74 L 18516745.00 36829921.00 L 18532597.00 36868190.00 L 18835747.00 37171340.00 L 18874018.41 37187191.00 L 19424014.00 37187191.00 L 19424014.00 37633069.00 L 19524015.00 37733071.00 L 19774016.00 37733071.00 L 19874017.00 37633069.00  z"/>
<path id="N" d="M 9624018.29 32933073.29 m -210738.62 0 a 210738.62 210738.62 0 1 1 421477.24 0a 210738.62 210738.62 0 1 1 -421477.24 0M 9624018.38 32933065.09 m -140500.91 0 a 140500.91 140500.91 0 1 1 281001.82 0a 140500.91 140500.91 0 1 1 -281001.82 0"/>
<path id="N" d="M 10215351.29 37933073.29 m -210738.62 0 a 210738.62 210738.62 0 1 1 421477.24 0a 210738.62 210738.62 0 1 1 -421477.24 0M 10215351.38 37933065.09 m -140500.91 0 a 140500.91 140500.91 0 1 1 281001.82 0a 140500.91 140500.91 0 1 1 -281001.82 0"/>
<path id="N" d="M 14809169.00 36747918.00 L 14778136.00 36727183.26 L 14778136.00 35238958.74 L 14809169.00 35218224.00 A 120431.73 120431.73 0 1 0 14638863.00 35218224.00 L 14669896.00 35238958.74 L 14669896.00 36727183.26 L 14638863.00 36747918.00 A 120431.73 120431.73 0 1 0 14809169.00 36747918.00  z"/>
<path id="N" d="M 10436230.16 35433079.16 m -120412.98 0 a 120412.98 120412.98 0 1 1 240825.96 0a 120412.98 120412.98 0 1 1 -240825.96 0"/>
<path id="N" d="M 19074024.16 37583079.16 m -120412.98 0 a 120412.98 120412.98 0 1 1 240825.96 0a 120412.98 120412.98 0 1 1 -240825.96 0"/>
<path id="N" d="M 20449219.16 38033079.16 m -120412.98 0 a 120412.98 120412.98 0 1 1 240825.96 0a 120412.98 120412.98 0 1 1 -240825.96 0"/>
<path id="N" d="M 9786230.16 35433079.16 m -120412.98 0 a 120412.98 120412.98 0 1 1 240825.96 0a 120412.98 120412.98 0 1 1 -240825.96 0"/>
<path id="N" d="M 19799219.16 38033079.16 m -120412.98 0 a 120412.98 120412.98 0 1 1 240825.96 0a 120412.98 120412.98 0 1 1 -240825.96 0"/>
<path id="N" d="M 11012593.00 36269685.00 L 10599207.00 36269685.00 L 10599207.00 36683071.00 L 11012593.00 36683071.00 L 11012593.00 36269685.00  zM 10805902.38 36476372.09 m -140500.91 0 a 140500.91 140500.91 0 1 1 281001.82 0a 140500.91 140500.91 0 1 1 -281001.82 0"/>
<path id="N" d="M 19185273.00 35936987.00 L 19178143.87 35926317.07 L 20192992.00 34911469.00 L 20208843.00 34873200.00 L 20208843.00 34663070.00 L 20254723.00 34663070.00 L 20254723.00 34191968.00 L 20208843.00 34191968.00 L 20208843.00 34019665.74 L 20239876.00 33998931.00 A 120431.73 120431.73 0 1 0 20069570.00 33998931.00 L 20100603.00 34019665.74 L 20100603.00 34191968.00 L 20054723.00 34191968.00 L 20054723.00 34663070.00 L 20100603.00 34663070.00 L 20100603.00 34850782.99 L 19086295.43 35865089.62 L 19074016.00 35862647.00 A 120431.73 120431.73 0 1 0 19185273.00 35936987.00  z"/>
<path id="N" d="M 10805121.29 32933073.29 m -210738.62 0 a 210738.62 210738.62 0 1 1 421477.24 0a 210738.62 210738.62 0 1 1 -421477.24 0M 10805121.38 32933065.09 m -140500.91 0 a 140500.91 140500.91 0 1 1 281001.82 0a 140500.91 140500.91 0 1 1 -281001.82 0"/>
<path id="N" d="M 19124024.16 33058275.16 m -120412.98 0 a 120412.98 120412.98 0 1 1 240825.96 0a 120412.98 120412.98 0 1 1 -240825.96 0"/>
<path id="N" d="M 19124024.16 32408275.16 m -120412.98 0 a 120412.98 120412.98 0 1 1 240825.96 0a 120412.98 120412.98 0 1 1 -240825.96 0"/>
<path id="N" d="M 21527932.00 34821814.00 L 21505195.51 34837005.42 L 21254723.00 34586532.18 L 21254723.00 34191968.00 L 21054723.00 34191968.00 L 21054723.00 34663070.00 L 21178185.18 34663070.00 L 21454934.14 34939818.16 L 21462759.00 34979155.00 A 120412.98 120412.98 0 1 0 21527932.00 34821814.00  z"/>
<path id="N" d="M 20665853.00 31496063.00 L 7874016.00 31496063.00 L 7874016.00 39370079.00 L 20665853.00 39370079.00 A 3941715.67 3941715.67 0 0 0 20665853.00 31496063.00  zM 8423229.00 33661427.51 m -319256.99 0 a 319256.99 319256.99 0 1 1 638513.99 0a 319256.99 319256.99 0 1 1 -638513.99 0M 9624016.00 32933076.82 m -309333.68 0 a 309333.68 309333.68 0 1 1 618667.36 0a 309333.68 309333.68 0 1 1 -618667.36 0M 10013770.81 34339764.00 L 9910452.53 34339764.00 L 9928775.00 34271385.00 A 309338.40 309338.40 0 0 1 10096188.00 34103972.00 L 10164567.00 34085649.53 L 10164567.00 34188967.81 L 10133920.00 34195064.00 L 10065550.00 34240747.00 L 10019867.00 34309117.00 L 10013770.81 34339764.00  zM 9340158.00 34696457.00 L 8726772.00 34696457.00 L 8726772.00 34083071.00 L 9340158.00 34083071.00 L 9340158.00 34696457.00  zM 10164567.00 34693878.47 L 10096188.00 34675556.00 A 309338.40 309338.40 0 0 1 9928775.00 34508143.00 L 9910452.53 34439764.00 L 10013770.81 34439764.00 L 10019867.00 34470411.00 L 10065550.00 34538781.00 L 10133920.00 34584464.00 L 10164567.00 34590560.19 L 10164567.00 34693878.47  zM 10805119.00 32933076.82 m -309333.68 0 a 309333.68 309333.68 0 1 1 618667.36 0a 309333.68 309333.68 0 1 1 -618667.36 0M 10518681.47 34339764.00 L 10415363.19 34339764.00 L 10409267.00 34309117.00 L 10363584.00 34240747.00 L 10295214.00 34195064.00 L 10264567.00 34188967.81 L 10264567.00 34085649.53 L 10332946.00 34103972.00 A 309338.40 309338.40 0 0 1 10500359.00 34271385.00 L 10518681.47 34339764.00  zM 10214569.38 34389758.09 m -140500.91 0 a 140500.91 140500.91 0 1 1 281001.82 0a 140500.91 140500.91 0 1 1 -281001.82 0M 10264567.00 34693878.47 L 10264567.00 34590560.19 L 10295214.00 34584464.00 L 10363584.00 34538781.00 L 10409267.00 34470411.00 L 10415363.19 34439764.00 L 10518681.47 34439764.00 L 10500359.00 34508143.00 A 309338.40 309338.40 0 0 1 10332946.00 34675556.00 L 10264567.00 34693878.47  zM 9786222.00 35433071.24 m -222382.84 0 a 222382.84 222382.84 0 1 1 444765.67 0a 222382.84 222382.84 0 1 1 -444765.67 0M 9424002.61 36426373.98 L 9320684.61 36426373.97 L 9339006.00 36357999.00 A 309338.40 309338.40 0 0 1 9506419.00 36190586.00 L 9574798.03 36172263.52 L 9574798.02 36275581.81 L 9544151.00 36281678.00 L 9475781.00 36327361.00 L 9430098.00 36395731.00 L 9424002.61 36426373.98  zM 10436222.00 35433071.24 m -222382.84 0 a 222382.84 222382.84 0 1 1 444765.67 0a 222382.84 222382.84 0 1 1 -444765.67 0M 9928911.41 36426374.03 L 9825593.39 36426374.02 L 9819498.00 36395731.00 L 9773815.00 36327361.00 L 9705445.00 36281678.00 L 9674798.02 36275581.82 L 9674798.03 36172263.53 L 9743177.00 36190586.00 A 309338.40 309338.40 0 0 1 9910590.00 36357999.00 L 9928911.41 36426374.03  zM 9624800.38 36476372.09 m -140500.91 0 a 140500.91 140500.91 0 1 1 281001.82 0a 140500.91 140500.91 0 1 1 -281001.82 0M 8424016.00 37204733.51 m -319256.99 0 a 319256.99 319256.99 0 1 1 638513.99 0a 319256.99 319256.99 0 1 1 -638513.99 0M 9574797.97 36780492.47 L 9506419.00 36762170.00 A 309338.40 309338.40 0 0 1 9339006.00 36594757.00 L 9320682.45 36526373.97 L 9424001.01 36526373.98 L 9430098.00 36557025.00 L 9475781.00 36625395.00 L 9544151.00 36671078.00 L 9574797.98 36677174.18 L 9574797.97 36780492.47  zM 9674797.97 36780492.48 L 9674797.98 36677174.19 L 9705445.00 36671078.00 L 9773815.00 36625395.00 L 9819498.00 36557025.00 L 9825594.98 36526374.02 L 9928913.54 36526374.03 L 9910590.00 36594757.00 A 309338.40 309338.40 0 0 1 9743177.00 36762170.00 L 9674797.97 36780492.48  zM 10215349.00 37933076.82 m -309333.68 0 a 309333.68 309333.68 0 1 1 618667.36 0a 309333.68 309333.68 0 1 1 -618667.36 0M 11415349.00 33661427.51 m -319256.99 0 a 319256.99 319256.99 0 1 1 638513.99 0a 319256.99 319256.99 0 1 1 -638513.99 0M 13429212.00 33761417.00 L 13342442.00 33761417.00 L 13338639.61 33759842.00 L 13314864.00 33759842.00 A 1084979.84 1084979.84 0 0 1 12670436.00 33492911.00 L 12653624.73 33476099.73 L 12649823.00 33474525.00 L 12588467.00 33413169.00 L 12586892.27 33409367.27 L 12570080.00 33392555.00 A 1085025.41 1085025.41 0 0 1 12303150.00 32748127.00 L 12303150.00 32724352.39 L 12301575.00 32720550.00 L 12301575.00 32633780.00 L 12303150.00 32629977.61 L 12303150.00 32606202.00 A 1084921.52 1084921.52 0 0 1 12570080.00 31961774.00 L 12586892.98 31944961.02 L 12588467.00 31941161.00 L 12649823.00 31879805.00 L 12653623.02 31878230.98 L 12670436.00 31861418.00 A 1085025.41 1085025.41 0 0 1 13314864.00 31594488.00 L 13338639.61 31594488.00 L 13342442.00 31592913.00 L 13429212.00 31592913.00 L 13433014.39 31594488.00 L 13456789.00 31594488.00 A 1084921.52 1084921.52 0 0 1 14101217.00 31861418.00 L 14118029.27 31878230.27 L 14121831.00 31879805.00 L 14183187.00 31941161.00 L 14184761.73 31944962.73 L 14201573.00 31961774.00 A 1085025.41 1085025.41 0 0 1 14468504.00 32606202.00 L 14468504.00 32629977.61 L 14470079.00 32633780.00 L 14470079.00 32720550.00 L 14468504.00 32724352.39 L 14468504.00 32748127.00 A 1084979.84 1084979.84 0 0 1 14201573.00 33392555.00 L 14184762.43 33409365.57 L 14183187.00 33413169.00 L 14121831.00 33474525.00 L 14118027.57 33476100.43 L 14101217.00 33492911.00 A 1085025.41 1085025.41 0 0 1 13456789.00 33759842.00 L 13433014.39 33759842.00 L 13429212.00 33761417.00  zM 14539111.00 36709522.00 L 14571077.00 36677556.00 L 14571077.00 35288586.00 L 14539111.00 35256620.00 A 222382.84 222382.84 0 1 1 14908921.00 35256620.00 L 14876955.00 35288586.00 L 14876955.00 36677556.00 L 14908921.00 36709522.00 A 222382.84 222382.84 0 1 1 14539111.00 36709522.00  zM 9074623.00 37626378.00 L 9114078.67 37636950.33 L 10020985.00 36730044.00 L 10070602.00 36696891.00 L 10129129.00 36685249.00 L 10499207.00 36685249.00 L 10499207.00 36169685.00 L 11112593.00 36169685.00 L 11112593.00 36685249.00 L 12355550.00 36685249.00 L 12555906.00 36484893.00 L 12555906.00 36439686.00 A 222383.27 222383.27 0 1 1 12817401.00 36701181.00 L 12772194.00 36701181.00 L 12527043.00 36946332.00 L 12477426.00 36979485.00 L 12418899.00 36991127.00 L 11716054.34 36991127.00 L 11687186.34 37041127.50 L 11711099.00 37082546.00 A 319256.99 319256.99 0 1 1 11121173.00 37082546.00 L 11145085.66 37041127.50 L 11116217.66 36991127.00 L 10192478.00 36991127.00 L 9330366.67 37853238.33 L 9340939.00 37892694.00 A 309333.68 309333.68 0 1 1 9074623.00 37626378.00  zM 13429212.00 39273229.00 L 13342442.00 39273229.00 L 13338639.61 39271654.00 L 13314864.00 39271654.00 A 1084979.84 1084979.84 0 0 1 12670436.00 39004723.00 L 12653624.73 38987911.73 L 12649823.00 38986337.00 L 12588467.00 38924981.00 L 12586892.27 38921179.27 L 12570080.00 38904367.00 A 1085025.41 1085025.41 0 0 1 12303150.00 38259939.00 L 12303150.00 38236164.39 L 12301575.00 38232362.00 L 12301575.00 38145592.00 L 12303150.00 38141789.61 L 12303150.00 38118014.00 A 1084921.52 1084921.52 0 0 1 12570080.00 37473586.00 L 12586892.98 37456773.02 L 12588467.00 37452973.00 L 12649823.00 37391617.00 L 12653623.02 37390042.98 L 12670436.00 37373230.00 A 1085025.41 1085025.41 0 0 1 13314864.00 37106300.00 L 13338639.61 37106300.00 L 13342442.00 37104725.00 L 13429212.00 37104725.00 L 13433014.39 37106300.00 L 13456789.00 37106300.00 A 1084921.52 1084921.52 0 0 1 14101217.00 37373230.00 L 14118029.27 37390042.27 L 14121831.00 37391617.00 L 14183187.00 37452973.00 L 14184761.73 37456774.73 L 14201573.00 37473586.00 A 1085025.41 1085025.41 0 0 1 14468504.00 38118014.00 L 14468504.00 38141789.61 L 14470079.00 38145592.00 L 14470079.00 38232362.00 L 14468504.00 38236164.39 L 14468504.00 38259939.00 A 1084979.84 1084979.84 0 0 1 14201573.00 38904367.00 L 14184762.43 38921177.57 L 14183187.00 38924981.00 L 14121831.00 38986337.00 L 14118027.57 38987912.43 L 14101217.00 39004723.00 A 1085025.41 1085025.41 0 0 1 13456789.00 39271654.00 L 13433014.39 39271654.00 L 13429212.00 39273229.00  zM 17324016.00 33157876.24 m -222382.84 0 a 222382.84 222382.84 0 1 1 444765.67 0a 222382.84 222382.84 0 1 1 -444765.67 0M 17324016.00 33807876.24 m -222382.84 0 a 222382.84 222382.84 0 1 1 444765.67 0a 222382.84 222382.84 0 1 1 -444765.67 0M 19124016.00 32408267.24 m -222382.84 0 a 222382.84 222382.84 0 1 1 444765.67 0a 222382.84 222382.84 0 1 1 -444765.67 0M 19124016.00 33058267.24 m -222382.84 0 a 222382.84 222382.84 0 1 1 444765.67 0a 222382.84 222382.84 0 1 1 -444765.67 0M 19854723.00 34763070.00 L 19454723.00 34763070.00 L 19454723.00 34392294.03 L 19451784.00 34377519.00 L 19451784.00 34227127.00 L 19325838.00 34101181.00 L 19280631.00 34101181.00 A 222383.27 222383.27 0 1 1 19542126.00 33839686.00 L 19542126.00 33884893.00 L 19712867.00 34055634.00 L 19737144.59 34091968.00 L 19854723.00 34091968.00 L 19854723.00 34763070.00  zM 19117401.00 36201181.00 A 222382.84 222382.84 0 0 1 19030631.00 35764961.00 L 19046673.93 35764961.00 L 19998563.65 34813070.39 L 19994009.64 34763070.00 L 19954723.00 34763070.00 L 19954722.17 34091968.56 L 19974458.58 34041967.58 L 19969818.00 34037327.00 A 222382.84 222382.84 0 1 1 20339628.00 34037327.00 L 20334987.42 34041967.58 L 20354723.00 34091968.56 L 20354723.00 34763070.00 L 20307662.00 34763070.00 L 20307662.00 34873200.00 L 20296020.00 34931728.00 L 20262867.00 34981345.00 L 19961254.89 35282956.83 L 19938863.00 35297918.00 L 19923901.90 35320309.78 L 19779250.98 35464960.57 L 19799961.82 35514961.00 L 19817401.00 35514961.00 L 19897565.00 35548166.00 L 19929531.00 35580132.00 L 20060668.00 35580132.00 L 20499657.00 35141143.00 L 20499657.00 34763070.00 L 20454723.00 34763070.00 L 20454723.00 34091968.00 L 20501784.00 34091968.00 L 20501784.00 33877127.00 L 20260667.00 33636010.00 L 19979531.00 33636010.00 L 19947565.00 33667976.00 A 222382.84 222382.84 0 1 1 19947565.00 33298166.00 L 19979531.00 33330132.00 L 20324016.00 33330132.00 L 20382543.00 33341774.00 L 20432160.00 33374927.00 L 20762867.00 33705634.00 L 20796020.00 33755251.00 L 20807662.00 33813778.00 L 20807662.00 34091968.00 L 20854723.00 34091968.00 L 20854723.00 34763070.00 L 20805535.00 34763070.00 L 20805535.00 35204492.00 L 20793893.00 35263019.00 L 20760740.00 35312636.00 L 20232161.00 35841215.00 L 20182544.00 35874368.00 L 20124017.00 35886010.00 L 19929531.00 35886010.00 L 19897565.00 35917976.00 A 222382.84 222382.84 0 0 1 19555906.00 35776456.00 L 19555906.00 35759016.59 L 19505905.57 35738305.72 L 19292126.00 35952085.10 L 19292126.00 36026456.00 L 19258921.00 36106620.00 L 19197565.00 36167976.00 L 19178294.00 36172538.00 L 19164824.93 36181537.37 L 19117401.00 36201181.00  zM 21389111.00 35056620.00 L 21358794.53 34983429.53 L 21138435.00 34763070.00 L 20954723.00 34763070.00 L 20954723.00 34091968.00 L 21354723.00 34091968.00 L 21354723.00 34546782.00 L 21525165.77 34717224.77 L 21530631.00 34714961.00 A 222382.84 222382.84 0 1 1 21389111.00 35056620.00  zM 21054723.00 36388621.00 L 20954723.00 36388621.00 L 20954723.00 36103070.00 L 21104725.00 36103070.00 L 21104725.00 36203070.00 L 21054723.00 36203070.00 L 21054723.00 36388621.00  zM 21354723.00 36388621.00 L 21254723.00 36388621.00 L 21254723.00 36203070.00 L 21204725.00 36203070.00 L 21204725.00 36103070.00 L 21354723.00 36103070.00 L 21354723.00 36388621.00  zM 20449211.00 38033071.24 m -222382.84 0 a 222382.84 222382.84 0 1 1 444765.67 0a 222382.84 222382.84 0 1 1 -444765.67 0M 19614306.00 37909522.00 L 19638797.57 37885030.43 L 19618086.72 37835030.00 L 19524015.00 37835030.00 L 19484997.00 37827269.00 L 19451919.00 37805167.00 L 19351918.00 37705165.00 L 19329816.00 37672087.00 L 19329014.36 37668056.82 L 19277015.78 37662935.31 L 19258921.00 37706620.00 A 222383.27 222383.27 0 1 1 19258921.00 37459522.00 L 19272054.75 37491229.70 L 19322055.00 37481284.04 L 19322055.00 37286010.00 L 18874016.00 37286010.00 L 18815489.00 37274368.00 L 18765872.00 37241215.00 L 18462722.00 36938065.00 L 18429569.00 36888448.00 L 18417927.00 36829921.00 L 18417927.00 34814600.00 L 18385961.00 34782634.00 A 222382.84 222382.84 0 1 1 18755771.00 34782634.00 L 18723805.00 34814600.00 L 18723805.00 36766572.00 L 18937365.00 36980132.00 L 19322055.00 36980132.00 L 19322055.00 36371780.00 L 19328165.91 36341057.74 L 19335635.00 36329879.00 L 19344802.00 36283795.00 L 19340756.35 36263456.88 L 19348289.00 36225583.00 L 19370391.00 36192505.00 L 19454723.00 36109101.76 L 19454723.00 36103070.00 L 19463750.17 36103070.00 L 19484996.00 36088874.00 L 19524013.00 36081113.00 L 19774014.00 36081113.00 L 19813032.00 36088874.00 L 19834277.83 36103070.00 L 19854723.00 36103070.00 L 19854723.00 36119589.00 L 19904722.57 36169588.57 L 19954723.00 36148877.72 L 19954723.00 36103070.00 L 20062112.79 36103070.00 L 20079882.00 36091197.00 L 20118900.00 36083436.00 L 20390753.00 36083436.00 L 20429770.70 36091194.13 L 20454723.60 36103068.43 L 20501784.15 36102364.27 L 20513426.00 36043838.00 L 20546579.00 35994221.00 L 20891068.00 35649731.00 L 20940685.00 35616578.00 L 20999213.00 35604936.00 L 22368501.00 35604936.00 L 22400467.00 35572970.00 A 222382.84 222382.84 0 1 1 22400467.00 35942780.00 L 22368501.00 35910814.00 L 21062562.87 35910814.00 L 20854723.00 36118653.27 L 20854723.00 36774172.00 L 20564073.00 36774172.00 L 20564073.00 37138325.00 L 20556312.00 37177343.00 L 20534210.00 37210421.00 L 20468066.00 37276565.00 L 20434988.00 37298667.00 L 20395970.00 37306428.00 L 20119437.00 37306427.00 L 20080421.00 37298667.00 L 20047338.99 37276560.99 L 20022168.28 37251391.31 L 19975974.12 37270526.24 L 19975976.00 37633068.00 L 19968215.00 37672087.00 L 19946113.00 37705165.00 L 19876425.32 37774853.38 L 19888157.27 37833833.09 L 19922760.00 37848166.00 A 222383.27 222383.27 0 1 1 19614306.00 37909522.00  zM 21065872.00 37141215.00 L 21056225.00 37131568.00 L 21023072.00 37081951.00 L 21011430.00 37023424.00 L 21011430.00 36774172.00 L 20954723.00 36774172.00 L 20954723.00 36488621.00 L 21054723.00 36488621.00 L 21054723.00 36674172.00 L 21110249.00 36674172.00 L 21110249.00 36933628.92 L 21088863.00 36947918.00 A 120431.73 120431.73 0 1 0 21218489.00 36921493.54 L 21218489.00 36674172.00 L 21254723.00 36674172.00 L 21254723.00 36488621.00 L 21354723.00 36488621.00 L 21354723.00 36774172.00 L 21317308.00 36774172.00 L 21317308.00 36984573.32 L 21326955.00 37033071.00 A 152940.51 152940.51 0 0 1 21065872.00 37141215.00  zM 22524016.00 36407875.24 m -222382.84 0 a 222382.84 222382.84 0 1 1 444765.67 0a 222382.84 222382.84 0 1 1 -444765.67 0"/>
</g>
</svg>
