<svg width="41.99999982mm" height="20.00000064mm" viewBox="0 0 16535433 7874016"  version="1.1" xmlns="http://www.w3.org/2000/svg" xmlns:xlink="http://www.w3.org/1999/xlink">
<desc>
Origin 7874016 35433071 Bound 7874016 31496063 16535433 7874016
</desc>
<g fill-rule="evenodd" fill="rgb(255, 0, 0)" stroke="black" stroke-width="1" transform="translate(0, 7874016) scale(1, -1) translate(-7874016, -31496063)">
<path id="N" d="M 19813108.00 34810354.00 L 19729434.00 34810354.00 L 19729434.00 34564684.00 L 19813109.00 34564684.00 L 19813109.00 34210354.00 L 19642462.00 34210354.00 L 19642462.00 34147397.00 L 19626609.29 34109127.29 L 19437158.58 33919675.87 L 19444440.00 33883071.00 A 120431.73 120431.73 0 1 0 19324016.00 34003495.00 L 19360620.87 33996213.58 L 19534222.00 34169814.06 L 19534221.00 34300547.00 L 19537519.00 34308508.84 L 19537519.00 34564684.00 L 19621194.00 34564684.00 L 19621194.00 34810354.00 L 19537518.00 34810354.00 L 19537518.00 35164684.00 L 19813108.00 35164684.00 L 19813108.00 34810354.00  z"/>
<path id="N" d="M 17940170.00 35502446.00 L 17832262.00 35502446.00 L 17832262.00 35196457.00 L 18001181.00 35196457.00 L 18001181.00 34920867.00 L 17646851.00 34920867.00 L 17646851.00 35196457.00 L 17724022.00 35196457.00 L 17724022.00 35502446.00 L 17616114.00 35502446.00 A 96771.86 96771.86 0 0 0 17616114.00 35695980.00 L 17940170.00 35695980.00 A 96758.91 96758.91 0 0 0 17940170.00 35502446.00  z"/>
<path id="N" d="M 17216142.00 38702151.00 L 17666536.00 38702151.00 L 17666536.00 38805511.00 L 17981496.00 38805511.00 L 17981496.00 38490551.00 L 17666536.00 38490551.00 L 17666536.00 38593911.00 L 17216142.00 38593911.00 L 17216142.00 38451181.00 L 16861812.00 38451181.00 L 16861812.00 38844881.00 L 17216142.00 38844881.00 L 17216142.00 38702151.00  z"/>
<path id="N" d="M 9240158.00 34183071.00 L 9087585.00 34183071.00 L 9087585.00 32546040.00 L 9196434.00 32437191.00 L 10151598.00 32437191.00 L 10269896.00 32555489.00 L 10269895.00 33783071.00 L 10285747.00 33821340.00 L 11035747.00 34571340.00 L 11074016.00 34587191.00 L 14324016.00 34587192.00 L 14362285.00 34571340.00 L 15396433.02 33537191.00 L 16096851.00 33537191.00 L 16096851.00 33640551.00 L 16451181.00 33640551.00 L 16451181.00 33537191.00 L 17127166.00 33537191.00 L 17127166.00 33837401.00 L 17209465.09 33837401.00 L 17212759.00 33853960.00 A 120412.98 120412.98 0 0 0 17435273.00 33853960.00 L 17438566.91 33837401.00 L 17520866.00 33837401.00 L 17520866.00 33537191.00 L 19718128.26 33537191.00 L 19738863.00 33568224.00 A 120431.73 120431.73 0 1 0 19738863.00 33397918.00 L 19718128.26 33428951.00 L 17520866.00 33428951.00 L 17520866.00 33128741.00 L 17438644.48 33128741.00 L 17435273.00 33111792.00 A 120412.98 120412.98 0 0 0 17212759.00 33111792.00 L 17209387.52 33128741.00 L 17127166.00 33128741.00 L 17127166.00 33428951.00 L 16451181.00 33428951.00 L 16451181.00 33325591.00 L 16096851.00 33325591.00 L 16096851.00 33428951.00 L 15374016.00 33428951.00 L 15335746.29 33444803.71 L 14301598.02 34478951.00 L 11096433.02 34478951.00 L 10378136.00 33760653.02 L 10378137.00 32533071.00 L 10362285.00 32494802.00 L 10212285.00 32344802.00 L 10174013.59 32328951.00 L 9174016.00 32328951.00 L 9135747.00 32344802.00 L 8995196.00 32485353.00 L 8979345.00 32523624.41 L 8979345.00 34183071.00 L 8826772.00 34183071.00 L 8826772.00 34596457.00 L 9240158.00 34596457.00 L 9240158.00 34183071.00  zM 9033467.38 34389758.09 m -140500.91 0 a 140500.91 140500.91 0 1 1 281001.82 0a 140500.91 140500.91 0 1 1 -281001.82 0"/>
<path id="N" d="M 18008595.00 35923543.00 L 18025499.94 35898242.00 L 18041614.00 35898243.00 L 18079883.00 35882391.00 L 18199491.12 35762782.00 L 18393701.00 35762782.00 L 18393701.00 35846457.00 L 18748031.00 35846457.00 L 18748031.00 35769081.00 L 19660755.09 35769081.00 L 19662759.00 35779155.00 A 120412.98 120412.98 0 1 0 19688863.00 35647918.00 L 19680228.48 35660841.00 L 18748031.00 35660841.00 L 18748031.00 35570867.00 L 18393701.00 35570867.00 L 18393701.00 35654542.00 L 18177074.00 35654542.00 L 18138804.29 35670394.71 L 18019196.12 35790002.00 L 18010805.92 35790002.00 L 18008595.00 35786693.00 L 17977201.00 35765717.00 L 17940170.00 35758351.00 L 17616114.00 35758351.00 L 17579083.00 35765717.00 L 17547689.00 35786693.00 L 17545478.75 35790001.00 L 17454334.00 35790001.00 L 17300576.00 35636243.00 L 17300576.00 35210236.00 L 17384251.00 35210236.00 L 17384251.00 34855906.00 L 17108661.00 34855906.00 L 17108661.00 35210236.00 L 17192336.00 35210236.00 L 17192335.00 35658661.00 L 17208187.00 35696930.00 L 17393647.00 35882390.00 L 17431918.41 35898241.00 L 17530783.39 35898241.00 L 17547689.00 35923543.00 L 17579083.00 35944519.00 L 17616114.00 35951885.00 L 17940170.00 35951885.00 L 17977201.00 35944519.00 L 18008595.00 35923543.00  z"/>
<path id="N" d="M 18748031.00 35019686.00 L 18624986.00 35019686.00 L 18624986.00 34764972.74 L 18656019.00 34744238.00 L 18682123.00 34705169.00 L 18691290.00 34659085.00 L 18684008.58 34622480.14 L 18864849.06 34441639.00 L 18986338.00 34441639.00 L 18986338.00 34564684.00 L 19261928.00 34564684.00 L 19261928.00 34210354.00 L 18986338.00 34210354.00 L 18986338.00 34333399.00 L 18842432.00 34333399.00 L 18804162.29 34349251.71 L 18607470.86 34545942.42 L 18570866.00 34538661.00 L 18524782.00 34547828.00 L 18509497.66 34558040.25 L 18420670.00 34469212.00 L 18382398.59 34453361.00 L 18001181.00 34453361.00 L 18001181.00 34369686.00 L 17646851.00 34369686.00 L 17646851.00 34645276.00 L 18001181.00 34645276.00 L 18001181.00 34561601.00 L 18359983.10 34561601.00 L 18451607.67 34653224.97 L 18450442.00 34659085.00 L 18459609.00 34705169.00 L 18485713.00 34744238.00 L 18516746.00 34764972.74 L 18516746.00 35019686.00 L 18393701.00 35019686.00 L 18393701.00 35295276.00 L 18748031.00 35295276.00 L 18748031.00 35019686.00  z"/>
<path id="N" d="M 9624018.29 32933073.29 m -210738.62 0 a 210738.62 210738.62 0 1 1 421477.24 0a 210738.62 210738.62 0 1 1 -421477.24 0M 9624018.38 32933065.09 m -140500.91 0 a 140500.91 140500.91 0 1 1 281001.82 0a 140500.91 140500.91 0 1 1 -281001.82 0"/>
<path id="N" d="M 10215351.29 37933073.29 m -210738.62 0 a 210738.62 210738.62 0 1 1 421477.24 0a 210738.62 210738.62 0 1 1 -421477.24 0M 10215351.38 37933065.09 m -140500.91 0 a 140500.91 140500.91 0 1 1 281001.82 0a 140500.91 140500.91 0 1 1 -281001.82 0"/>
<path id="N" d="M 20478346.00 38147699.48 L 20495295.00 38144328.00 A 120412.98 120412.98 0 0 0 20495295.00 37921814.00 L 20478346.00 37918442.52 L 20478346.00 37836221.00 L 19769686.00 37836221.00 L 19769686.00 37918520.09 L 19753127.00 37921814.00 A 120412.98 120412.98 0 0 0 19753127.00 38144328.00 L 19769686.00 38147621.91 L 19769686.00 38229921.00 L 20478346.00 38229921.00 L 20478346.00 38147699.48  z"/>
<path id="N" d="M 15401181.00 35019686.00 L 15046851.00 35019686.00 L 15046851.00 35091156.00 L 14836102.29 35091156.00 L 14835273.00 35086987.00 A 120412.98 120412.98 0 1 0 14809169.00 35218224.00 L 14821748.95 35199396.00 L 15046851.00 35199396.00 L 15046851.00 35295276.00 L 15401181.00 35295276.00 L 15401181.00 35019686.00  z"/>
<path id="N" d="M 17940170.00 36270162.00 L 17616114.00 36270162.00 A 96771.86 96771.86 0 0 0 17616114.00 36463696.00 L 17940170.00 36463696.00 A 96758.91 96758.91 0 1 0 17940170.00 36270162.00  z"/>
<path id="N" d="M 19674024.16 37583079.16 m -120412.98 0 a 120412.98 120412.98 0 1 1 240825.96 0a 120412.98 120412.98 0 1 1 -240825.96 0"/>
<path id="N" d="M 19074024.16 37583079.16 m -120412.98 0 a 120412.98 120412.98 0 1 1 240825.96 0a 120412.98 120412.98 0 1 1 -240825.96 0"/>
<path id="N" d="M 14724024.16 36833079.16 m -120412.98 0 a 120412.98 120412.98 0 1 1 240825.96 0a 120412.98 120412.98 0 1 1 -240825.96 0"/>
<path id="N" d="M 19674024.16 37133079.16 m -120412.98 0 a 120412.98 120412.98 0 1 1 240825.96 0a 120412.98 120412.98 0 1 1 -240825.96 0"/>
<path id="N" d="M 11052441.00 35197008.00 L 10795591.00 35197008.00 L 10795591.00 35669134.00 L 11052441.00 35669134.00 L 11052441.00 35197008.00  z"/>
<path id="N" d="M 16420526.00 36272021.00 L 15906654.00 36272021.00 L 15906654.00 36461837.00 L 16420526.00 36461837.00 L 16420526.00 36272021.00  z"/>
<path id="N" d="M 18748031.00 36620866.00 L 18393701.00 36620866.00 L 18393701.00 36896456.00 L 18748031.00 36896456.00 L 18748031.00 36620866.00  z"/>
<path id="N" d="M 19841731.00 36497676.00 L 19467715.00 36497676.00 L 19467715.00 36871692.00 L 19841731.00 36871692.00 L 19841731.00 36497676.00  z"/>
<path id="N" d="M 10603544.00 35098426.00 L 9619292.00 35098426.00 L 9619292.00 35767716.00 L 10603544.00 35767716.00 L 10603544.00 35098426.00  z"/>
<path id="N" d="M 17981496.00 37860629.00 L 17666536.00 37860629.00 L 17666536.00 38175589.00 L 17981496.00 38175589.00 L 17981496.00 37860629.00  z"/>
<path id="N" d="M 18007874.00 36750000.00 L 17633858.00 36750000.00 L 17633858.00 37124016.00 L 18007874.00 37124016.00 L 18007874.00 36750000.00  z"/>
<path id="N" d="M 15401181.00 36620866.00 L 15046851.00 36620866.00 L 15046851.00 36896456.00 L 15401181.00 36896456.00 L 15401181.00 36620866.00  z"/>
<path id="N" d="M 16307874.00 36750000.00 L 15933858.00 36750000.00 L 15933858.00 37124016.00 L 16307874.00 37124016.00 L 16307874.00 36750000.00  z"/>
<path id="N" d="M 13712285.00 34271340.00 L 15194464.01 32789160.00 L 16096851.00 32789160.00 L 16096851.00 32892520.00 L 16451181.00 32892520.00 L 16451181.00 32787191.00 L 18927166.00 32787191.00 L 18927166.00 33087401.00 L 19009387.32 33087401.00 L 19012759.00 33104351.00 A 120412.98 120412.98 0 0 0 19235273.00 33104351.00 L 19238644.68 33087401.00 L 19320866.00 33087401.00 L 19320866.00 32787191.00 L 19751598.00 32787191.00 L 20100603.00 33136196.00 L 20100603.00 33807890.26 L 20069570.00 33828625.00 A 120431.73 120431.73 0 1 0 20239876.00 33828625.00 L 20208843.00 33807890.26 L 20208844.00 33113778.00 L 20192992.00 33075509.00 L 19812285.00 32694802.00 L 19774013.59 32678951.00 L 19320866.00 32678951.00 L 19320866.00 32378741.00 L 19238566.71 32378741.00 L 19235273.00 32362183.00 A 120412.98 120412.98 0 0 0 19012759.00 32362183.00 L 19009465.29 32378741.00 L 18927166.00 32378741.00 L 18927166.00 32678951.00 L 16451181.00 32678951.00 L 16451181.00 32577560.00 L 16096851.00 32577560.00 L 16096851.00 32680920.00 L 15172047.00 32680919.00 L 15133777.29 32696772.71 L 13651598.01 34178951.00 L 11346433.03 34178951.00 L 10859239.00 33691756.03 L 10859239.00 33133047.65 L 10885766.00 33127771.00 A 210738.62 210738.62 0 1 0 10724472.00 33127771.00 L 10750999.00 33133047.65 L 10750998.00 33714174.00 L 10766850.00 33752443.00 L 11285747.00 34271340.00 L 11324016.00 34287191.00 L 13674016.00 34287192.00 L 13712285.00 34271340.00  zM 10805121.38 32933065.09 m -140500.91 0 a 140500.91 140500.91 0 1 1 281001.82 0a 140500.91 140500.91 0 1 1 -281001.82 0"/>
<path id="N" d="M 17384251.00 36755906.00 L 17300576.00 36755906.00 L 17300576.00 36333049.92 L 17457484.08 36176141.00 L 17545478.75 36176141.00 L 17547689.00 36179449.00 L 17579083.00 36200425.00 L 17616114.00 36207791.00 L 17940170.00 36207791.00 L 17977201.00 36200425.00 L 18008595.00 36179449.00 L 18010805.25 36176141.00 L 18019196.19 36176141.00 L 18088804.00 36245749.00 L 18127073.00 36261600.00 L 18393701.00 36261600.00 L 18393701.00 36345275.00 L 18748031.00 36345275.00 L 18748031.00 36261600.00 L 18898032.00 36261601.00 L 18936301.00 36245749.00 L 19079682.10 36102367.90 L 19120100.00 36094328.00 A 120412.98 120412.98 0 1 0 18962759.00 36029155.00 L 18977602.79 36051371.21 L 18875614.00 36153360.00 L 18748031.00 36153360.00 L 18748031.00 36069685.00 L 18393701.00 36069685.00 L 18393701.00 36153360.00 L 18149490.19 36153360.00 L 18079883.00 36083752.00 L 18041611.59 36067901.00 L 18025500.61 36067901.00 L 18008595.00 36042599.00 L 17977201.00 36021623.00 L 17940170.00 36014257.00 L 17616114.00 36014257.00 L 17579083.00 36021623.00 L 17547689.00 36042599.00 L 17530783.39 36067901.00 L 17435067.00 36067901.00 L 17396797.29 36083753.71 L 17208187.00 36272363.00 L 17192336.00 36310634.41 L 17192336.00 36755906.00 L 17108661.00 36755906.00 L 17108661.00 37110236.00 L 17384251.00 37110236.00 L 17384251.00 36755906.00  z"/>
<path id="N" d="M 16325618.00 35502446.00 L 16174986.00 35502446.00 L 16174986.00 35338958.74 L 16206019.00 35318224.00 A 120431.73 120431.73 0 1 0 16035713.00 35318224.00 L 16066746.00 35338958.74 L 16066746.00 35502446.00 L 16001562.00 35502446.00 A 96771.86 96771.86 0 0 0 16001562.00 35695980.00 L 16325618.00 35695980.00 A 96758.91 96758.91 0 0 0 16325618.00 35502446.00  z"/>
<path id="N" d="M 9624800.29 36476380.29 m -210738.62 0 a 210738.62 210738.62 0 1 1 421477.24 0a 210738.62 210738.62 0 1 1 -421477.24 0M 9624800.38 36476372.09 m -140500.91 0 a 140500.91 140500.91 0 1 1 281001.82 0a 140500.91 140500.91 0 1 1 -281001.82 0"/>
<path id="N" d="M 10214569.29 34389766.29 m -210738.62 0 a 210738.62 210738.62 0 1 1 421477.24 0a 210738.62 210738.62 0 1 1 -421477.24 0M 10214569.38 34389758.09 m -140500.91 0 a 140500.91 140500.91 0 1 1 281001.82 0a 140500.91 140500.91 0 1 1 -281001.82 0"/>
<path id="N" d="M 19344802.00 36283795.00 L 19342542.31 36272435.15 L 19368299.17 36246678.00 L 19467715.00 36246678.00 L 19467715.00 36379566.00 L 19841731.00 36379566.00 L 19841731.00 36005550.00 L 19467715.00 36005550.00 L 19467715.00 36138438.00 L 19345882.00 36138437.00 L 19307612.29 36154290.71 L 19281793.54 36180109.18 L 19270462.00 36172538.00 A 120419.38 120419.38 0 1 0 19344802.00 36283795.00  z"/>
<path id="N" d="M 21351181.00 33873805.00 L 21437402.00 33873806.00 L 21475671.00 33857954.00 L 21637410.80 33696213.52 L 21674016.00 33703495.00 A 120431.73 120431.73 0 1 0 21553592.00 33583071.00 L 21560873.48 33619676.20 L 21414984.07 33765565.00 L 21261812.00 33765565.00 L 21251862.69 33769686.00 L 20996851.00 33769686.00 L 20996851.00 34045276.00 L 21351181.00 34045276.00 L 21351181.00 33873805.00  z"/>
<path id="N" d="M 21174016.00 36912647.00 L 21137410.71 36919928.50 L 20866408.00 36648925.04 L 20866408.00 36579921.00 L 20966929.00 36579921.00 L 20966929.00 36186221.00 L 20612599.00 36186221.00 L 20612599.00 36579921.00 L 20758168.00 36579921.00 L 20758167.00 36671343.00 L 20774019.00 36709612.00 L 21060873.50 36996465.71 L 21053592.00 37033071.00 A 120431.73 120431.73 0 1 0 21174016.00 36912647.00  z"/>
<path id="N" d="M 20885273.00 33103959.00 L 20888566.71 33087401.00 L 20970866.00 33087401.00 L 20970866.00 32378741.00 L 20888644.68 32378741.00 L 20885273.00 32361791.00 A 120412.98 120412.98 0 0 0 20662759.00 32361791.00 L 20659387.32 32378741.00 L 20577166.00 32378741.00 L 20577166.00 33087401.00 L 20659465.29 33087401.00 L 20662759.00 33103959.00 A 120412.98 120412.98 0 0 0 20885273.00 33103959.00  z"/>
<path id="N" d="M 11702993.00 35487191.00 L 11868128.26 35487191.00 L 11888863.00 35518224.00 A 120431.73 120431.73 0 1 0 11888863.00 35347918.00 L 11868128.26 35378951.00 L 11702993.00 35378951.00 L 11702993.00 35197008.00 L 11446143.00 35197008.00 L 11446143.00 35669134.00 L 11702993.00 35669134.00 L 11702993.00 35487191.00  z"/>
<path id="N" d="M 19209169.00 35347918.00 L 19178194.00 35327222.02 L 19178194.00 35164684.00 L 19261927.00 35164684.00 L 19261927.00 34810354.00 L 18986337.00 34810354.00 L 18986337.00 35164684.00 L 19069954.00 35164684.00 L 19069954.00 35327144.51 L 19038863.00 35347918.00 A 120431.73 120431.73 0 1 0 19209169.00 35347918.00  z"/>
<path id="N" d="M 18007874.00 37242126.00 L 17633858.00 37242126.00 L 17633858.00 37378951.00 L 17429903.74 37378951.00 L 17409169.00 37347918.00 A 120431.73 120431.73 0 1 0 17409169.00 37518224.00 L 17429903.74 37487191.00 L 17633858.00 37487191.00 L 17633858.00 37616142.00 L 18007874.00 37616142.00 L 18007874.00 37242126.00  z"/>
<path id="N" d="M 16586221.00 38451181.00 L 16231891.00 38451181.00 L 16231891.00 38593911.00 L 16014943.74 38593911.00 L 15994209.00 38562878.00 A 120431.73 120431.73 0 1 0 15994209.00 38733184.00 L 16014943.74 38702151.00 L 16231891.00 38702151.00 L 16231891.00 38844881.00 L 16586221.00 38844881.00 L 16586221.00 38451181.00  z"/>
<path id="N" d="M 16307874.00 37487191.00 L 16518128.26 37487191.00 L 16538863.00 37518224.00 A 120431.73 120431.73 0 1 0 16538863.00 37347918.00 L 16518128.26 37378951.00 L 16307874.00 37378951.00 L 16307874.00 37242126.00 L 15933858.00 37242126.00 L 15933858.00 37616142.00 L 16307874.00 37616142.00 L 16307874.00 37487191.00  z"/>
<path id="N" d="M 20024024.16 35383079.16 m -120412.98 0 a 120412.98 120412.98 0 1 1 240825.96 0a 120412.98 120412.98 0 1 1 -240825.96 0"/>
<path id="N" d="M 19774024.16 33883079.16 m -120412.98 0 a 120412.98 120412.98 0 1 1 240825.96 0a 120412.98 120412.98 0 1 1 -240825.96 0"/>
<path id="N" d="M 19624024.16 33133079.16 m -120412.98 0 a 120412.98 120412.98 0 1 1 240825.96 0a 120412.98 120412.98 0 1 1 -240825.96 0"/>
<path id="N" d="M 15663779.00 32951576.00 L 15309449.00 32951576.00 L 15309449.00 32996463.46 L 15270079.00 32988632.00 A 120431.73 120431.73 0 1 0 15309449.00 33221648.54 L 15309449.00 33266536.00 L 15663779.00 33266536.00 L 15663779.00 32951576.00  z"/>
<path id="N" d="M 13707480.00 35725591.00 L 13365516.91 35725591.00 L 13359864.00 35721814.00 A 120419.38 120419.38 0 1 0 13353150.00 35945663.54 L 13353150.00 36040551.00 L 13707480.00 36040551.00 L 13707480.00 35725591.00  z"/>
<path id="N" d="M 9028740.00 35098426.00 L 8044488.00 35098426.00 L 8044488.00 35767716.00 L 9028740.00 35767716.00 L 9028740.00 35098426.00  z"/>
<path id="N" d="M 22635273.00 36453959.00 L 22638566.71 36437401.00 L 22720866.00 36437401.00 L 22720866.00 35728741.00 L 22638644.68 35728741.00 L 22635273.00 35711791.00 A 120412.98 120412.98 0 0 0 22412759.00 35711791.00 L 22409387.32 35728741.00 L 22327166.00 35728741.00 L 22327166.00 36437401.00 L 22409465.29 36437401.00 L 22412759.00 36453959.00 A 120412.98 120412.98 0 0 0 22635273.00 36453959.00  z"/>
<path id="N" d="M 13998290.16 33289628.16 m -120412.98 0 a 120412.98 120412.98 0 1 1 240825.96 0a 120412.98 120412.98 0 1 1 -240825.96 0"/>
<path id="N" d="M 12773380.16 32064718.16 m -120412.98 0 a 120412.98 120412.98 0 1 1 240825.96 0a 120412.98 120412.98 0 1 1 -240825.96 0"/>
<path id="N" d="M 13385835.16 31811031.16 m -120412.98 0 a 120412.98 120412.98 0 1 1 240825.96 0a 120412.98 120412.98 0 1 1 -240825.96 0"/>
<path id="N" d="M 12773380.16 33289628.16 m -120412.98 0 a 120412.98 120412.98 0 1 1 240825.96 0a 120412.98 120412.98 0 1 1 -240825.96 0"/>
<path id="N" d="M 12519693.16 38188985.16 m -120412.98 0 a 120412.98 120412.98 0 1 1 240825.96 0a 120412.98 120412.98 0 1 1 -240825.96 0"/>
<path id="N" d="M 13385835.16 33543315.16 m -120412.98 0 a 120412.98 120412.98 0 1 1 240825.96 0a 120412.98 120412.98 0 1 1 -240825.96 0"/>
<path id="N" d="M 14251977.16 32677173.16 m -120412.98 0 a 120412.98 120412.98 0 1 1 240825.96 0a 120412.98 120412.98 0 1 1 -240825.96 0"/>
<path id="N" d="M 13998290.16 38801440.16 m -120412.98 0 a 120412.98 120412.98 0 1 1 240825.96 0a 120412.98 120412.98 0 1 1 -240825.96 0"/>
<path id="N" d="M 13385835.16 39055127.16 m -120412.98 0 a 120412.98 120412.98 0 1 1 240825.96 0a 120412.98 120412.98 0 1 1 -240825.96 0"/>
<path id="N" d="M 13385835.16 37322843.16 m -120412.98 0 a 120412.98 120412.98 0 1 1 240825.96 0a 120412.98 120412.98 0 1 1 -240825.96 0"/>
<path id="N" d="M 12773380.16 37576530.16 m -120412.98 0 a 120412.98 120412.98 0 1 1 240825.96 0a 120412.98 120412.98 0 1 1 -240825.96 0"/>
<path id="N" d="M 13998290.16 32064718.16 m -120412.98 0 a 120412.98 120412.98 0 1 1 240825.96 0a 120412.98 120412.98 0 1 1 -240825.96 0"/>
<path id="N" d="M 12519693.16 32677173.16 m -120412.98 0 a 120412.98 120412.98 0 1 1 240825.96 0a 120412.98 120412.98 0 1 1 -240825.96 0"/>
<path id="N" d="M 14251977.16 38188985.16 m -120412.98 0 a 120412.98 120412.98 0 1 1 240825.96 0a 120412.98 120412.98 0 1 1 -240825.96 0"/>
<path id="N" d="M 12773380.16 38801440.16 m -120412.98 0 a 120412.98 120412.98 0 1 1 240825.96 0a 120412.98 120412.98 0 1 1 -240825.96 0"/>
<path id="N" d="M 13998290.16 37576530.16 m -120412.98 0 a 120412.98 120412.98 0 1 1 240825.96 0a 120412.98 120412.98 0 1 1 -240825.96 0"/>
<path id="N" d="M 16833070.00 36755906.00 L 16749395.00 36755906.00 L 16749396.00 36334638.00 L 16733544.00 36296369.00 L 16520927.00 36083752.00 L 16482655.59 36067901.00 L 16410948.61 36067901.00 L 16394043.00 36042599.00 L 16362649.00 36021623.00 L 16325618.00 36014257.00 L 16001562.00 36014257.00 L 15964531.00 36021623.00 L 15933137.00 36042599.00 L 15916231.39 36067901.00 L 15835066.00 36067901.00 L 15796796.29 36083753.71 L 15727189.19 36153360.00 L 15401181.00 36153360.00 L 15401181.00 36069685.00 L 15046851.00 36069685.00 L 15046851.00 36153360.00 L 14494882.00 36153360.00 L 14494882.00 36099606.00 L 14140552.00 36099606.00 L 14140552.00 36228951.00 L 12974016.00 36228950.00 L 12935746.29 36244803.71 L 12810620.94 36369928.43 L 12774016.00 36362647.00 A 120431.73 120431.73 0 1 0 12894440.00 36483071.00 L 12887158.57 36446466.06 L 12996433.08 36337191.00 L 14140552.00 36337191.00 L 14140552.00 36414566.00 L 14494882.00 36414566.00 L 14494882.00 36261600.00 L 15046851.00 36261600.00 L 15046851.00 36345275.00 L 15401181.00 36345275.00 L 15401181.00 36261600.00 L 15749607.00 36261601.00 L 15787876.00 36245749.00 L 15857483.19 36176141.00 L 15930926.75 36176141.00 L 15933137.00 36179449.00 L 15964531.00 36200425.00 L 16001562.00 36207791.00 L 16325618.00 36207791.00 L 16362649.00 36200425.00 L 16394043.00 36179449.00 L 16396253.25 36176141.00 L 16460240.00 36176141.00 L 16641155.00 36357056.00 L 16641155.00 36755906.00 L 16557480.00 36755906.00 L 16557480.00 37110236.00 L 16833070.00 37110236.00 L 16833070.00 36755906.00  z"/>
<path id="N" d="M 9034248.29 37933073.29 m -210738.62 0 a 210738.62 210738.62 0 1 1 421477.24 0a 210738.62 210738.62 0 1 1 -421477.24 0M 9034248.38 37933065.09 m -140500.91 0 a 140500.91 140500.91 0 1 1 281001.82 0a 140500.91 140500.91 0 1 1 -281001.82 0"/>
<path id="N" d="M 20274024.16 36933079.16 m -120412.98 0 a 120412.98 120412.98 0 1 1 240825.96 0a 120412.98 120412.98 0 1 1 -240825.96 0"/>
<path id="N" d="M 20435433.00 36186221.00 L 20081103.00 36186221.00 L 20081103.00 36579921.00 L 20435433.00 36579921.00 L 20435433.00 36186221.00  z"/>
<path id="N" d="M 11012593.00 36530498.00 L 12120864.00 36530499.00 L 12159133.00 36514647.00 L 13054698.02 35619081.00 L 14140552.00 35619081.00 L 14140552.00 35666535.00 L 14494882.00 35666535.00 L 14494882.00 35563175.00 L 14748841.00 35563175.00 L 14932597.00 35746931.00 L 14970868.41 35762782.00 L 15046851.00 35762782.00 L 15046851.00 35846457.00 L 15401181.00 35846457.00 L 15401181.00 35762782.00 L 15499630.37 35762782.00 L 15526775.00 35789927.00 L 15565046.41 35805778.00 L 15720185.17 35805778.00 L 15796797.00 35882390.00 L 15835066.00 35898241.00 L 15916231.39 35898241.00 L 15933137.00 35923543.00 L 15964531.00 35944519.00 L 16001562.00 35951885.00 L 16325618.00 35951885.00 L 16362649.00 35944519.00 L 16394043.00 35923543.00 L 16410948.61 35898241.00 L 16509816.00 35898242.00 L 16548085.00 35882390.00 L 16733544.00 35696931.00 L 16749395.00 35658659.59 L 16749395.00 35210236.00 L 16833070.00 35210236.00 L 16833070.00 34855906.00 L 16557480.00 34855906.00 L 16557480.00 35210236.00 L 16641155.00 35210236.00 L 16641155.00 35636244.91 L 16487398.09 35790001.00 L 16396253.25 35790001.00 L 16394043.00 35786693.00 L 16362649.00 35765717.00 L 16325618.00 35758351.00 L 16001562.00 35758351.00 L 15964531.00 35765717.00 L 15933137.00 35786693.00 L 15930926.75 35790001.00 L 15857483.17 35790001.00 L 15780872.00 35713389.00 L 15742600.59 35697538.00 L 15587461.37 35697538.00 L 15560317.00 35670393.00 L 15522045.59 35654542.00 L 15401181.00 35654542.00 L 15401181.00 35570867.00 L 15046851.00 35570867.00 L 15046851.00 35654542.00 L 14993284.00 35654542.00 L 14809528.00 35470786.00 L 14771256.59 35454935.00 L 14494882.00 35454935.00 L 14494882.00 35351575.00 L 14140552.00 35351575.00 L 14140552.00 35510841.00 L 13032281.00 35510841.00 L 12994011.29 35526693.71 L 12098446.02 36422258.00 L 11012593.00 36422258.00 L 11012593.00 36269685.00 L 10599207.00 36269685.00 L 10599207.00 36683071.00 L 11012593.00 36683071.00 L 11012593.00 36530498.00  zM 10805902.38 36476372.09 m -140500.91 0 a 140500.91 140500.91 0 1 1 281001.82 0a 140500.91 140500.91 0 1 1 -281001.82 0"/>
<path id="N" d="M 21527932.00 34821814.00 L 21503495.45 34838141.31 L 21328414.00 34663059.07 L 21328414.00 34596457.00 L 21351181.00 34596457.00 L 21351181.00 34320867.00 L 20996851.00 34320867.00 L 20996851.00 34596457.00 L 21220174.00 34596457.00 L 21220173.00 34685477.00 L 21236025.00 34723746.00 L 21455638.36 34943358.36 L 21462759.00 34979155.00 A 120412.98 120412.98 0 1 0 21527932.00 34821814.00  z"/>
</g>
</svg>
