<svg width="41.99999982mm" height="20.00000064mm" viewBox="0 0 16535433 7874016"  version="1.1" xmlns="http://www.w3.org/2000/svg" xmlns:xlink="http://www.w3.org/1999/xlink">
<desc>
Origin 7874016 35433071 Bound 7874016 31496063 16535433 7874016
</desc>
<g fill-rule="evenodd" fill="rgb(255, 0, 0)" stroke="black" stroke-width="1" transform="translate(0, 7874016) scale(1, -1) translate(-7874016, -31496063)">
<path id="N" d="M 19813108.00 34810354.00 L 19729434.00 34810354.00 L 19729434.00 34564684.00 L 19813109.00 34564684.00 L 19813109.00 34210354.00 L 19642462.00 34210354.00 L 19642462.00 34147397.00 L 19626609.29 34109127.29 L 19437158.58 33919675.87 L 19444440.00 33883071.00 A 120431.73 120431.73 0 1 0 19324016.00 34003495.00 L 19360620.87 33996213.58 L 19534222.00 34169814.06 L 19534221.00 34300547.00 L 19537519.00 34308508.84 L 19537519.00 34564684.00 L 19621194.00 34564684.00 L 19621194.00 34810354.00 L 19537518.00 34810354.00 L 19537518.00 35164684.00 L 19813108.00 35164684.00 L 19813108.00 34810354.00  z"/>
<path id="N" d="M 17940170.00 35502446.00 L 17832262.00 35502446.00 L 17832262.00 35196457.00 L 18001181.00 35196457.00 L 18001181.00 34920867.00 L 17646851.00 34920867.00 L 17646851.00 35196457.00 L 17724022.00 35196457.00 L 17724022.00 35502446.00 L 17616114.00 35502446.00 A 96771.86 96771.86 0 0 0 17616114.00 35695980.00 L 17940170.00 35695980.00 A 96758.91 96758.91 0 0 0 17940170.00 35502446.00  z"/>
<path id="N" d="M 17216142.00 38702151.00 L 17666536.00 38702151.00 L 17666536.00 38805511.00 L 17981496.00 38805511.00 L 17981496.00 38490551.00 L 17666536.00 38490551.00 L 17666536.00 38593911.00 L 17216142.00 38593911.00 L 17216142.00 38451181.00 L 16861812.00 38451181.00 L 16861812.00 38844881.00 L 17216142.00 38844881.00 L 17216142.00 38702151.00  z"/>
<path id="N" d="M 9240158.00 34183071.00 L 9087585.00 34183071.00 L 9087585.00 32546040.00 L 9196434.00 32437191.00 L 10151598.00 32437191.00 L 10269896.00 32555489.00 L 10269895.00 33783071.00 L 10285747.00 33821340.00 L 11035747.00 34571340.00 L 11074016.00 34587191.00 L 14324016.00 34587192.00 L 14362285.00 34571340.00 L 15396433.02 33537191.00 L 16096851.00 33537191.00 L 16096851.00 33640551.00 L 16451181.00 33640551.00 L 16451181.00 33537191.00 L 17127166.00 33537191.00 L 17127166.00 33837401.00 L 17209465.09 33837401.00 L 17212759.00 33853960.00 A 120412.98 120412.98 0 0 0 17435273.00 33853960.00 L 17438566.91 33837401.00 L 17520866.00 33837401.00 L 17520866.00 33537191.00 L 19718128.26 33537191.00 L 19738863.00 33568224.00 A 120431.73 120431.73 0 1 0 19738863.00 33397918.00 L 19718128.26 33428951.00 L 17520866.00 33428951.00 L 17520866.00 33128741.00 L 17438644.48 33128741.00 L 17435273.00 33111792.00 A 120412.98 120412.98 0 0 0 17212759.00 33111792.00 L 17209387.52 33128741.00 L 17127166.00 33128741.00 L 17127166.00 33428951.00 L 16451181.00 33428951.00 L 16451181.00 33325591.00 L 16096851.00 33325591.00 L 16096851.00 33428951.00 L 15374016.00 33428951.00 L 15335746.29 33444803.71 L 14301598.02 34478951.00 L 11096433.02 34478951.00 L 10378136.00 33760653.02 L 10378137.00 32533071.00 L 10362285.00 32494802.00 L 10212285.00 32344802.00 L 10174013.59 32328951.00 L 9174016.00 32328951.00 L 9135747.00 32344802.00 L 8995196.00 32485353.00 L 8979345.00 32523624.41 L 8979345.00 34183071.00 L 8826772.00 34183071.00 L 8826772.00 34596457.00 L 9240158.00 34596457.00 L 9240158.00 34183071.00  zM 9033467.38 34389758.09 m -140500.91 0 a 140500.91 140500.91 0 1 1 281001.82 0a 140500.91 140500.91 0 1 1 -281001.82 0"/>
<path id="N" d="M 18008595.00 35923543.00 L 18025499.94 35898242.00 L 18041614.00 35898243.00 L 18079883.00 35882391.00 L 18199491.12 35762782.00 L 18393701.00 35762782.00 L 18393701.00 35846457.00 L 18748031.00 35846457.00 L 18748031.00 35769081.00 L 19660755.09 35769081.00 L 19662759.00 35779155.00 A 120412.98 120412.98 0 1 0 19688863.00 35647918.00 L 19680228.48 35660841.00 L 18748031.00 35660841.00 L 18748031.00 35570867.00 L 18393701.00 35570867.00 L 18393701.00 35654542.00 L 18177074.00 35654542.00 L 18138804.29 35670394.71 L 18019196.12 35790002.00 L 18010805.92 35790002.00 L 18008595.00 35786693.00 L 17977201.00 35765717.00 L 17940170.00 35758351.00 L 17616114.00 35758351.00 L 17579083.00 35765717.00 L 17547689.00 35786693.00 L 17545478.75 35790001.00 L 17454334.00 35790001.00 L 17300576.00 35636243.00 L 17300576.00 35210236.00 L 17384251.00 35210236.00 L 17384251.00 34855906.00 L 17108661.00 34855906.00 L 17108661.00 35210236.00 L 17192336.00 35210236.00 L 17192335.00 35658661.00 L 17208187.00 35696930.00 L 17393647.00 35882390.00 L 17431918.41 35898241.00 L 17530783.39 35898241.00 L 17547689.00 35923543.00 L 17579083.00 35944519.00 L 17616114.00 35951885.00 L 17940170.00 35951885.00 L 17977201.00 35944519.00 L 18008595.00 35923543.00  z"/>
<path id="N" d="M 20774016.00 38083070.00 L 20774016.00 37483071.00 L 20674015.00 37383070.00 L 19924016.00 37383070.00 L 19924016.00 36530749.00 L 19872833.00 36479566.00 L 19436613.00 36479566.00 L 19283108.00 36633071.00 L 18748031.00 36633071.00 L 18748031.00 36620866.00 L 18393701.00 36620866.00 L 18393701.00 36633071.00 L 18324016.00 36633071.00 L 18031738.22 36340793.22 L 18029571.00 36329898.00 A 96758.91 96758.91 0 0 0 17940170.00 36270162.00 L 17616114.00 36270162.00 A 96771.86 96771.86 0 0 0 17525591.00 36398319.38 L 17525591.00 37095549.80 L 17533859.00 37142126.00 L 18107874.00 37142126.00 L 18107874.00 37716142.00 L 17533858.00 37716142.00 L 17533858.00 37586010.00 L 17479531.00 37586010.00 L 17447565.00 37617976.00 L 17433133.12 37623953.88 L 17342520.00 37714567.00 L 16605511.00 37714567.00 L 16514898.22 37623953.61 L 16500467.00 37617976.00 L 16468501.00 37586010.00 L 16407874.00 37586010.00 L 16407874.00 37716142.00 L 15833858.00 37716142.00 L 15833858.00 37142126.00 L 16457480.00 37141174.10 L 16457480.00 36655906.00 L 16459055.00 36655906.00 L 16459055.00 36368110.00 L 16420526.00 36329581.00 L 16420526.00 36272021.00 L 15906654.00 36272021.00 L 15906654.00 36300433.00 L 15574016.00 36633071.00 L 15401181.00 36633071.00 L 15401181.00 36620866.00 L 15046851.00 36620866.00 L 15046851.00 36633071.00 L 12932470.00 36633071.00 L 12897565.00 36667976.00 A 222382.84 222382.84 0 0 1 12650467.00 36667976.00 L 12615562.00 36633071.00 L 12424016.00 36633071.00 L 12274016.00 36783071.00 L 10499207.00 36783071.00 L 10499207.00 36708262.25 L 10474016.00 36683071.00 L 10474015.00 36083071.00 L 10674015.00 35883071.00 L 10874016.00 35883071.00 L 11074016.00 35683071.00 L 11074016.00 35183071.00 L 10974016.00 35083071.00 L 10374016.00 35083071.00 L 10124016.00 34833071.00 L 10124016.00 34683012.64 L 10096188.00 34675556.00 A 309338.40 309338.40 0 0 1 10096188.00 34103972.00 L 10124016.00 34096515.36 L 10124016.00 32633071.00 L 10026955.00 32536010.00 L 9321077.00 32536010.00 L 9224016.00 32633071.00 L 9224016.00 34083071.00 L 9340158.00 34083071.00 L 9340158.00 34696457.00 L 9110630.00 34696457.00 L 8974016.00 34833071.00 L 8974016.00 34998426.00 L 9128740.00 34998426.00 L 9128740.00 35867716.00 L 8974016.00 35867716.00 L 8974016.00 37433071.00 L 9774016.00 38233071.00 L 12301575.00 38232361.15 L 12301575.00 38145592.00 L 12303150.00 38141789.61 L 12303150.00 38118014.00 A 1084921.52 1084921.52 0 0 1 12570080.00 37473586.00 L 12586892.98 37456773.02 L 12588467.00 37452973.00 L 12649823.00 37391617.00 L 12653623.02 37390042.98 L 12670436.00 37373230.00 A 1085025.41 1085025.41 0 0 1 13314864.00 37106300.00 L 13338639.61 37106300.00 L 13342442.00 37104725.00 L 13429212.00 37104725.00 L 13433014.39 37106300.00 L 13456789.00 37106300.00 A 1084921.52 1084921.52 0 0 1 14101217.00 37373230.00 L 14118029.27 37390042.27 L 14121831.00 37391617.00 L 14183187.00 37452973.00 L 14184761.73 37456774.73 L 14201573.00 37473586.00 A 1085025.41 1085025.41 0 0 1 14468504.00 38118014.00 L 14468504.00 38141789.61 L 14470079.00 38145592.00 L 14470553.31 38233071.00 L 20624015.00 38233071.00 L 20774016.00 38083070.00  zM 9624018.38 32933065.09 m -140500.91 0 a 140500.91 140500.91 0 1 1 281001.82 0a 140500.91 140500.91 0 1 1 -281001.82 0M 9624798.00 36476383.82 m -309333.68 0 a 309333.68 309333.68 0 1 1 618667.36 0a 309333.68 309333.68 0 1 1 -618667.36 0M 10215351.38 37933065.09 m -140500.91 0 a 140500.91 140500.91 0 1 1 281001.82 0a 140500.91 140500.91 0 1 1 -281001.82 0M 11416136.00 37204733.51 m -319256.99 0 a 319256.99 319256.99 0 1 1 638513.99 0a 319256.99 319256.99 0 1 1 -638513.99 0"/>
<path id="N" d="M 18748031.00 35019686.00 L 18624986.00 35019686.00 L 18624986.00 34764972.74 L 18656019.00 34744238.00 L 18682123.00 34705169.00 L 18691290.00 34659085.00 L 18684008.58 34622480.14 L 18864849.06 34441639.00 L 18986338.00 34441639.00 L 18986338.00 34564684.00 L 19261928.00 34564684.00 L 19261928.00 34210354.00 L 18986338.00 34210354.00 L 18986338.00 34333399.00 L 18842432.00 34333399.00 L 18804162.29 34349251.71 L 18607470.86 34545942.42 L 18570866.00 34538661.00 L 18524782.00 34547828.00 L 18509497.66 34558040.25 L 18420670.00 34469212.00 L 18382398.59 34453361.00 L 18001181.00 34453361.00 L 18001181.00 34369686.00 L 17646851.00 34369686.00 L 17646851.00 34645276.00 L 18001181.00 34645276.00 L 18001181.00 34561601.00 L 18359983.10 34561601.00 L 18451607.67 34653224.97 L 18450442.00 34659085.00 L 18459609.00 34705169.00 L 18485713.00 34744238.00 L 18516746.00 34764972.74 L 18516746.00 35019686.00 L 18393701.00 35019686.00 L 18393701.00 35295276.00 L 18748031.00 35295276.00 L 18748031.00 35019686.00  z"/>
<path id="N" d="M 15401181.00 35019686.00 L 15046851.00 35019686.00 L 15046851.00 35091156.00 L 14836102.29 35091156.00 L 14835273.00 35086987.00 A 120412.98 120412.98 0 1 0 14809169.00 35218224.00 L 14821748.95 35199396.00 L 15046851.00 35199396.00 L 15046851.00 35295276.00 L 15401181.00 35295276.00 L 15401181.00 35019686.00  z"/>
<path id="N" d="M 13712285.00 34271340.00 L 15194464.01 32789160.00 L 16096851.00 32789160.00 L 16096851.00 32892520.00 L 16451181.00 32892520.00 L 16451181.00 32787191.00 L 18927166.00 32787191.00 L 18927166.00 33087401.00 L 19009387.32 33087401.00 L 19012759.00 33104351.00 A 120412.98 120412.98 0 0 0 19235273.00 33104351.00 L 19238644.68 33087401.00 L 19320866.00 33087401.00 L 19320866.00 32787191.00 L 19751598.00 32787191.00 L 20100603.00 33136196.00 L 20100603.00 33807890.26 L 20069570.00 33828625.00 A 120431.73 120431.73 0 1 0 20239876.00 33828625.00 L 20208843.00 33807890.26 L 20208844.00 33113778.00 L 20192992.00 33075509.00 L 19812285.00 32694802.00 L 19774013.59 32678951.00 L 19320866.00 32678951.00 L 19320866.00 32378741.00 L 19238566.71 32378741.00 L 19235273.00 32362183.00 A 120412.98 120412.98 0 0 0 19012759.00 32362183.00 L 19009465.29 32378741.00 L 18927166.00 32378741.00 L 18927166.00 32678951.00 L 16451181.00 32678951.00 L 16451181.00 32577560.00 L 16096851.00 32577560.00 L 16096851.00 32680920.00 L 15172047.00 32680919.00 L 15133777.29 32696772.71 L 13651598.01 34178951.00 L 11346433.03 34178951.00 L 10859239.00 33691756.03 L 10859239.00 33133047.65 L 10885766.00 33127771.00 A 210738.62 210738.62 0 1 0 10724472.00 33127771.00 L 10750999.00 33133047.65 L 10750998.00 33714174.00 L 10766850.00 33752443.00 L 11285747.00 34271340.00 L 11324016.00 34287191.00 L 13674016.00 34287192.00 L 13712285.00 34271340.00  zM 10805121.38 32933065.09 m -140500.91 0 a 140500.91 140500.91 0 1 1 281001.82 0a 140500.91 140500.91 0 1 1 -281001.82 0"/>
<path id="N" d="M 17384251.00 36755906.00 L 17300576.00 36755906.00 L 17300576.00 36333049.92 L 17457484.08 36176141.00 L 17545478.75 36176141.00 L 17547689.00 36179449.00 L 17579083.00 36200425.00 L 17616114.00 36207791.00 L 17940170.00 36207791.00 L 17977201.00 36200425.00 L 18008595.00 36179449.00 L 18010805.25 36176141.00 L 18019196.19 36176141.00 L 18088804.00 36245749.00 L 18127073.00 36261600.00 L 18393701.00 36261600.00 L 18393701.00 36345275.00 L 18748031.00 36345275.00 L 18748031.00 36261600.00 L 18898032.00 36261601.00 L 18936301.00 36245749.00 L 19079682.10 36102367.90 L 19120100.00 36094328.00 A 120412.98 120412.98 0 1 0 18962759.00 36029155.00 L 18977602.79 36051371.21 L 18875614.00 36153360.00 L 18748031.00 36153360.00 L 18748031.00 36069685.00 L 18393701.00 36069685.00 L 18393701.00 36153360.00 L 18149490.19 36153360.00 L 18079883.00 36083752.00 L 18041611.59 36067901.00 L 18025500.61 36067901.00 L 18008595.00 36042599.00 L 17977201.00 36021623.00 L 17940170.00 36014257.00 L 17616114.00 36014257.00 L 17579083.00 36021623.00 L 17547689.00 36042599.00 L 17530783.39 36067901.00 L 17435067.00 36067901.00 L 17396797.29 36083753.71 L 17208187.00 36272363.00 L 17192336.00 36310634.41 L 17192336.00 36755906.00 L 17108661.00 36755906.00 L 17108661.00 37110236.00 L 17384251.00 37110236.00 L 17384251.00 36755906.00  z"/>
<path id="N" d="M 20665853.00 31496063.00 L 7874016.00 31496063.00 L 7874016.00 39370079.00 L 20665853.00 39370079.00 A 3941715.67 3941715.67 0 0 0 20665853.00 31496063.00  zM 8423229.00 33661427.51 m -319256.99 0 a 319256.99 319256.99 0 1 1 638513.99 0a 319256.99 319256.99 0 1 1 -638513.99 0M 8044488.00 35383072.96 L 7944488.00 35383072.95 L 7944488.00 34998426.00 L 8486614.04 34998426.00 L 8486614.03 35098426.00 L 8044488.00 35098426.00 L 8044488.00 35383072.96  zM 10214569.38 34389758.09 m -140500.91 0 a 140500.91 140500.91 0 1 1 281001.82 0a 140500.91 140500.91 0 1 1 -281001.82 0M 11524567.97 35769134.00 L 11346143.00 35769134.00 L 11346143.00 35483072.98 L 11446143.00 35483072.99 L 11446143.00 35669134.00 L 11524567.98 35669134.00 L 11524567.97 35769134.00  zM 8486613.96 35867716.00 L 7944488.00 35867716.00 L 7944488.00 35483072.95 L 8044488.00 35483072.96 L 8044488.00 35767716.00 L 8486613.97 35767716.00 L 8486613.96 35867716.00  zM 8424016.00 37204733.51 m -319256.99 0 a 319256.99 319256.99 0 1 1 638513.99 0a 319256.99 319256.99 0 1 1 -638513.99 0M 12682247.00 33498817.00 L 12663705.19 33480275.19 L 12649823.00 33474525.00 L 12588467.00 33413169.00 L 12581891.00 33398461.00 A 1085025.41 1085025.41 0 0 1 12314961.00 32754033.00 L 12301575.00 32720550.00 L 12301575.00 32633780.00 L 12317015.19 32596504.06 L 12333485.00 32471397.00 A 1084995.40 1084995.40 0 0 1 12495493.00 32080277.00 L 12572311.05 31980164.94 L 12588467.00 31941161.00 L 12649823.00 31879805.00 L 12684935.85 31865260.79 L 12794844.00 31780926.00 L 12917754.00 31709964.00 L 13048876.00 31655651.00 L 13185964.00 31618918.00 L 13323312.63 31600836.64 L 13342442.00 31592913.00 L 13429212.00 31592913.00 L 13447272.74 31600394.00 L 13468600.00 31600394.00 A 1084921.52 1084921.52 0 1 1 12682247.00 33498817.00  zM 11802993.00 35378951.00 L 11702993.00 35378951.00 L 11702993.00 35197008.00 L 11624568.02 35197008.00 L 11624568.03 35097008.00 L 11802993.00 35097008.00 L 11802993.00 35378951.00  zM 11446143.00 35383072.99 L 11346143.00 35383072.98 L 11346143.00 35097008.00 L 11524568.03 35097008.00 L 11524568.02 35197008.00 L 11446143.00 35197008.00 L 11446143.00 35383072.99  zM 11802993.00 35769134.00 L 11624567.97 35769134.00 L 11624567.98 35669134.00 L 11702993.00 35669134.00 L 11702993.00 35487191.00 L 11802993.00 35487191.00 L 11802993.00 35769134.00  zM 13429212.00 39273229.00 L 13342442.00 39273229.00 L 13338639.61 39271654.00 L 13314864.00 39271654.00 A 1084979.84 1084979.84 0 0 1 12670436.00 39004723.00 L 12653624.73 38987911.73 L 12649823.00 38986337.00 L 12588467.00 38924981.00 L 12586892.27 38921179.27 L 12570080.00 38904367.00 A 1085025.41 1085025.41 0 0 1 12321674.00 38400650.00 L 12319270.92 38382395.88 L 12301100.31 38335030.00 L 9774016.00 38335030.00 L 9734998.00 38327269.00 L 9701920.00 38305167.00 L 9387948.00 37991195.00 L 9332179.57 38006137.96 L 9320038.00 38051450.00 A 309338.40 309338.40 0 1 1 8915867.00 37647279.00 L 8961179.04 37635137.43 L 8976122.00 37579369.00 L 8901920.00 37505167.00 L 8879818.00 37472089.00 L 8872057.00 37433071.00 L 8872057.00 35867716.00 L 8586613.96 35867716.00 L 8586613.97 35767716.00 L 9028740.00 35767716.00 L 9028740.00 35098426.00 L 8586614.03 35098426.00 L 8586614.04 34998426.00 L 8872057.00 34998426.00 L 8872057.00 34833071.00 L 8879818.00 34794053.00 L 8901920.00 34760975.00 L 8920243.60 34742651.40 L 8901109.25 34696457.00 L 8726772.00 34696457.00 L 8726772.00 34083071.00 L 8880526.00 34083071.00 L 8880526.00 32523622.00 L 8892168.00 32465095.00 L 8925321.00 32415478.00 L 9065872.00 32274927.00 L 9115489.00 32241774.00 L 9174016.00 32230132.00 L 10174016.00 32230132.00 L 10232543.00 32241774.00 L 10282160.00 32274927.00 L 10432160.00 32424927.00 L 10465313.00 32474544.00 L 10476955.00 32533071.00 L 10476955.00 32788081.83 L 10526955.32 32801479.37 L 10559704.00 32744757.00 A 309338.40 309338.40 0 1 1 10993433.00 33178486.00 L 10958058.00 33198909.77 L 10958058.00 33650825.00 L 11060492.94 33753259.94 L 11105321.83 33727377.71 L 11098814.00 33703091.00 A 319256.99 319256.99 0 1 1 11373676.00 33977953.00 L 11349389.29 33971445.17 L 11323507.06 34016274.06 L 11387365.00 34080132.00 L 13610667.00 34080132.00 L 15063903.00 32626896.00 L 15113520.00 32593743.00 L 15172047.00 32582101.00 L 15996851.00 32582101.00 L 15996851.00 32477560.00 L 16551181.00 32477560.00 L 16551181.00 32580132.00 L 18827166.00 32580132.00 L 18827166.00 32278741.00 L 18945088.00 32278741.00 L 19000467.00 32223362.00 A 222382.84 222382.84 0 0 1 19247565.00 32223362.00 L 19302944.00 32278741.00 L 19420866.00 32278741.00 L 19420866.00 32580132.00 L 19774016.00 32580132.00 L 19832543.00 32591774.00 L 19882160.00 32624927.00 L 20262867.00 33005634.00 L 20296020.00 33055251.00 L 20307662.00 33113778.00 L 20307662.00 33758263.00 L 20339628.00 33790229.00 A 222382.84 222382.84 0 1 1 19969818.00 33790229.00 L 20001784.00 33758263.00 L 20001784.00 33679085.75 L 19955589.60 33659951.40 L 19947565.00 33667976.00 A 222382.84 222382.84 0 0 1 19700467.00 33667976.00 L 19668501.00 33636010.00 L 19428164.07 33636010.00 L 19418218.40 33686010.25 L 19447565.00 33698166.00 L 19508921.00 33759522.00 L 19542126.00 33839686.00 L 19542126.00 33884893.00 L 19696486.00 34039253.00 L 19729639.00 34088869.00 L 19733912.53 34110354.00 L 19913109.00 34110354.00 L 19913108.00 35264684.00 L 19437518.00 35264684.00 L 19437519.00 34311184.62 L 19435403.00 34300547.00 L 19435403.00 34221513.51 L 19411928.46 34203027.86 L 19361928.01 34225826.67 L 19361927.00 34937520.01 L 19261927.00 34937520.01 L 19261927.00 34810354.00 L 18986337.00 34810354.00 L 18986337.00 35164684.00 L 19069954.00 35164684.00 L 19069954.00 35264684.16 L 18886337.31 35264684.95 L 18848031.00 35292916.37 L 18848031.00 35395276.00 L 18293701.00 35395276.00 L 18293701.00 34919686.00 L 18417927.00 34919686.00 L 18417927.00 34814600.00 L 18385961.00 34782634.00 L 18352756.00 34702470.00 L 18352756.00 34694124.52 L 18319051.70 34660420.00 L 18101181.00 34660420.00 L 18101181.00 34745276.00 L 17546851.00 34745276.00 L 17546851.00 34269686.00 L 18101181.00 34269686.00 L 18101181.00 34354542.00 L 18382401.00 34354542.00 L 18440928.00 34366184.00 L 18490545.00 34399337.00 L 18532183.27 34440975.00 L 18572688.00 34440975.00 L 18734288.00 34279375.00 L 18783905.00 34246222.00 L 18842432.00 34234580.00 L 18886338.00 34234580.00 L 18886338.00 34110354.00 L 19177516.27 34110354.00 L 19185073.78 34096398.72 L 19192844.60 34060353.60 L 19139111.00 34006620.00 A 222382.84 222382.84 0 0 1 19200467.00 33698166.00 L 19229813.60 33686010.25 L 19219867.93 33636010.00 L 17620866.00 33636010.00 L 17620866.00 33937401.00 L 17502945.00 33937401.00 L 17447565.00 33992781.00 A 222382.84 222382.84 0 0 1 17200467.00 33992781.00 L 17145087.00 33937401.00 L 17027166.00 33937401.00 L 17027166.00 33636010.00 L 16551181.00 33636010.00 L 16551181.00 33740551.00 L 15996851.00 33740551.00 L 15996851.00 33636010.00 L 15437365.00 33636010.00 L 14432160.00 34641215.00 L 14382543.00 34674368.00 L 14324016.00 34686010.00 L 11074016.00 34686010.00 L 11015489.00 34674368.00 L 10965872.00 34641215.00 L 10506256.58 34181599.58 L 10466246.49 34212300.41 L 10500359.00 34271385.00 L 10518681.47 34339764.00 L 10415363.19 34339764.00 L 10409267.00 34309117.00 A 210738.62 210738.62 0 1 0 10409267.00 34470411.00 L 10415363.19 34439764.00 L 10518681.47 34439764.00 L 10500359.00 34508143.00 A 309338.40 309338.40 0 0 1 10254944.00 34696457.00 L 10225975.00 34696457.00 L 10225975.00 34790838.00 L 10416249.00 34981112.00 L 10974016.00 34981112.00 L 11013034.00 34988873.00 L 11046112.00 35010975.00 L 11132145.00 35097008.00 L 11152441.00 35097008.00 L 11152441.00 35120447.02 L 11168214.00 35144053.00 L 11175975.00 35183071.00 L 11175975.00 35683071.00 L 11168214.00 35722089.00 L 11152441.00 35745694.98 L 11152441.00 35769134.00 L 11132145.00 35769134.00 L 10946112.00 35955167.00 L 10913034.00 35977269.00 L 10874016.00 35985030.00 L 10716248.00 35985030.00 L 10581593.40 36119684.60 L 10589540.02 36169685.00 L 11112593.00 36169685.00 L 11112593.00 36323439.00 L 12057515.00 36323439.00 L 12924137.00 35456817.00 L 12973754.00 35423664.00 L 13032281.00 35412022.00 L 14040552.00 35412022.00 L 14040552.00 35251575.00 L 14492021.92 35251575.00 L 14519800.79 35210001.00 L 14505906.00 35176456.00 A 222382.84 222382.84 0 0 1 14847565.00 34948166.00 L 14891736.00 34992337.00 L 14946851.00 34992337.00 L 14946851.00 34919686.00 L 15501181.00 34919686.00 L 15501181.00 35395276.00 L 14946851.00 35395276.00 L 14946851.00 35298215.00 L 14871702.25 35298215.00 L 14844828.76 35328724.26 L 14850524.80 35381615.22 L 14879403.00 35400911.00 L 14949359.00 35470867.00 L 15501181.00 35470867.00 L 15501181.00 35555723.00 L 15522048.00 35555723.00 L 15580575.00 35567365.00 L 15627499.60 35598719.00 L 15742603.00 35598719.00 L 15755331.15 35601250.84 L 15810392.57 35561223.33 L 15817963.00 35523164.00 A 198718.12 198718.12 0 0 1 16001562.00 35400487.00 L 16066746.00 35400487.00 L 16066746.00 35502446.00 L 16001562.00 35502446.00 A 96771.86 96771.86 0 0 0 16001562.00 35695980.00 L 16325618.00 35695980.00 A 96771.86 96771.86 0 0 0 16325618.00 35502446.00 L 16213590.00 35502446.00 L 16213590.00 35400487.00 L 16325618.00 35400487.00 L 16401667.00 35415614.00 L 16466139.00 35458692.00 L 16492335.65 35497898.80 L 16542336.00 35482731.60 L 16542336.00 35310236.00 L 16457480.00 35310236.00 L 16457480.00 34755906.00 L 16933070.00 34755906.00 L 16933070.00 35310236.00 L 16848214.00 35310236.00 L 16848214.00 35658662.00 L 16836572.00 35717189.00 L 16803419.00 35766806.00 L 16617960.00 35952265.00 L 16603275.81 35962076.66 L 16598039.59 35983822.29 L 16600794.63 36023869.63 L 16803419.00 36226494.00 L 16836572.00 36276111.00 L 16848214.00 36334638.00 L 16848214.00 36655906.00 L 16933070.00 36655906.00 L 16933070.00 37210236.00 L 16531995.21 37210236.00 L 16530945.00 37211875.00 L 16498296.00 37234607.00 L 16459434.00 37243114.00 L 16409827.75 37244064.99 L 16407874.00 37291781.23 L 16407874.00 37378951.00 L 16307874.00 37378951.00 L 16307874.00 37242126.00 L 15933858.00 37242126.00 L 15933858.00 37616142.00 L 16307874.00 37616142.00 L 16307874.00 37487191.00 L 16484287.18 37487191.00 L 16507519.00 37491812.00 L 16532262.28 37508344.92 L 16538863.00 37518224.00 L 16561517.61 37534834.61 L 16586994.00 37551858.00 L 16647744.00 37612608.00 L 17300287.00 37612608.00 L 17361037.00 37551858.00 L 17409169.00 37518224.00 L 17415769.72 37508344.92 L 17440513.00 37491812.00 L 17463744.82 37487191.00 L 17633858.00 37487191.00 L 17633858.00 37616142.00 L 18007874.00 37616142.00 L 18007874.00 37242126.00 L 17633858.00 37242126.00 L 17633858.00 37378951.00 L 17533858.00 37378951.00 L 17533858.00 37244084.80 L 17511906.00 37241694.00 L 17494841.00 37236324.00 L 17475474.00 37225713.00 L 17461763.00 37214222.00 L 17459099.64 37210236.00 L 17008661.00 37210236.00 L 17008661.00 36655906.00 L 17093517.00 36655906.00 L 17093517.00 36310632.00 L 17105159.00 36252105.00 L 17138312.00 36202488.00 L 17326923.00 36013877.00 L 17334036.33 36009124.03 L 17334036.33 35959123.40 L 17323772.00 35952265.00 L 17138312.00 35766805.00 L 17105159.00 35717188.00 L 17093517.00 35658661.00 L 17093517.00 35310236.00 L 17008661.00 35310236.00 L 17008661.00 34755906.00 L 17484251.00 34755906.00 L 17484251.00 35310236.00 L 17399395.00 35310236.00 L 17399395.00 35482733.10 L 17449395.35 35497900.30 L 17475593.00 35458692.00 L 17540065.00 35415614.00 L 17616114.00 35400487.00 L 17625203.00 35400487.00 L 17625203.00 35296457.00 L 17546851.00 35296457.00 L 17546851.00 34820867.00 L 18101181.00 34820867.00 L 18101181.00 35296457.00 L 17931081.00 35296457.00 L 17931081.00 35400487.00 L 17940170.00 35400487.00 A 198730.01 198730.01 0 0 1 18123769.00 35523164.00 L 18125130.12 35530006.84 L 18166704.28 35557785.71 L 18177074.00 35555723.00 L 18293701.00 35555723.00 L 18293701.00 35470867.00 L 18848031.00 35470867.00 L 18848031.00 35562022.00 L 19636611.00 35562022.00 L 19650467.00 35548166.00 A 222382.84 222382.84 0 0 1 19958921.00 35856620.00 L 19956119.50 35859421.50 L 19941731.00 35905552.05 L 19941731.00 36060562.17 L 19981103.88 36086221.00 L 20104898.57 36086221.00 L 20118900.00 36083436.00 L 20390753.00 36083436.00 L 20404754.43 36086221.00 L 20739765.01 36086221.00 L 20739765.01 36186221.00 L 20612599.00 36186221.00 L 20612599.00 36579921.00 L 20739764.99 36579921.00 L 20739764.99 36679921.00 L 20564073.00 36679921.00 L 20564073.00 37138325.00 L 20556312.00 37177343.00 L 20534210.00 37210421.00 L 20513520.43 37231110.57 L 20534231.28 37281111.00 L 20674015.00 37281111.00 L 20713033.00 37288872.00 L 20746111.00 37310974.00 L 20846112.00 37410975.00 L 20868214.00 37444053.00 L 20875975.00 37483071.00 L 20875975.00 38083070.00 L 20868214.00 38122088.00 L 20846112.00 38155166.00 L 20696111.00 38305167.00 L 20663033.00 38327269.00 L 20624015.00 38335030.00 L 17359452.54 38335030.00 L 17316142.82 38351181.74 L 17316142.00 38495092.00 L 17566536.00 38495092.00 L 17566536.00 38390551.00 L 18081496.00 38390551.00 L 18081496.00 38905511.00 L 17566536.00 38905511.00 L 17566536.00 38800970.00 L 17316142.00 38800970.00 L 17316142.00 38944881.00 L 16761812.00 38944881.00 L 16761811.38 38370760.25 L 16724016.55 38349218.27 L 16686221.35 38370760.14 L 16686221.21 38598032.01 L 16586221.00 38598032.01 L 16586221.00 38451181.00 L 16231891.00 38451181.00 L 16231891.00 38593911.00 L 16131890.78 38593911.00 L 16131890.18 38351181.74 L 16088580.46 38335030.00 L 14470553.69 38335030.00 L 14452382.23 38382395.71 L 14449979.00 38400650.00 A 1084995.40 1084995.40 0 0 1 14201573.00 38904367.00 L 14184762.43 38921177.57 L 14183187.00 38924981.00 L 14121831.00 38986337.00 L 14118027.57 38987912.43 L 14101217.00 39004723.00 A 1085025.41 1085025.41 0 0 1 13456789.00 39271654.00 L 13433014.39 39271654.00 L 13429212.00 39273229.00  zM 16359056.99 38944881.00 L 16131891.00 38944881.00 L 16131890.85 38702151.00 L 16231891.00 38702151.00 L 16231891.00 38844881.00 L 16359056.99 38844881.00 L 16359056.99 38944881.00  zM 16686221.00 38944881.00 L 16459056.99 38944881.00 L 16459056.99 38844881.00 L 16586221.00 38844881.00 L 16586221.00 38698032.01 L 16686221.15 38698032.01 L 16686221.00 38944881.00  zM 20577166.00 32683072.00 L 20477166.00 32683072.00 L 20477166.00 32278741.00 L 20724015.01 32278741.00 L 20724015.01 32299235.14 L 20688863.00 32322722.00 L 20662759.00 32361791.00 L 20659387.32 32378741.00 L 20577166.00 32378741.00 L 20577166.00 32683072.00  zM 21070866.00 32683072.00 L 20970866.00 32683072.00 L 20970866.00 32378741.00 L 20888644.68 32378741.00 L 20885273.00 32361791.00 L 20859169.00 32322722.00 L 20824015.01 32299233.82 L 20824015.01 32278741.00 L 21070866.00 32278741.00 L 21070866.00 32683072.00  zM 20724014.99 33187401.00 L 20477166.00 33187401.00 L 20477166.00 32783072.00 L 20577166.00 32783072.00 L 20577166.00 33087401.00 L 20659465.29 33087401.00 L 20662759.00 33103959.00 L 20688863.00 33143028.00 L 20724014.99 33166514.85 L 20724014.99 33187401.00  zM 21070866.00 33187401.00 L 20824014.99 33187401.00 L 20824014.99 33166516.19 L 20859169.00 33143028.00 L 20885273.00 33103959.00 L 20888566.71 33087401.00 L 20970866.00 33087401.00 L 20970866.00 32783072.00 L 21070866.00 32783072.00 L 21070866.00 33187401.00  zM 20996851.00 33857481.00 L 20896851.00 33857481.00 L 20896851.00 33669686.00 L 21124016.00 33669686.00 L 21124016.00 33769686.00 L 20996851.00 33769686.00 L 20996851.00 33857481.00  zM 21251862.69 33769686.00 L 21224016.00 33769686.00 L 21224016.00 33669686.00 L 21451181.00 33669686.00 L 21451181.00 33729368.22 L 21414984.07 33765565.00 L 21261812.00 33765565.00 L 21251862.69 33769686.00  zM 21451181.00 34145276.00 L 21224016.00 34145276.00 L 21224016.00 34045276.00 L 21351181.00 34045276.00 L 21351181.00 33957481.00 L 21451181.00 33957481.00 L 21451181.00 34145276.00  zM 19178194.00 35264684.10 L 19178194.00 35164684.00 L 19261927.00 35164684.00 L 19261927.00 35037520.01 L 19361927.00 35037520.01 L 19361927.00 35264684.00 L 19178194.00 35264684.10  zM 21066929.00 36333072.01 L 20966929.00 36333072.01 L 20966929.00 36186221.00 L 20839765.01 36186221.00 L 20839765.01 36086221.00 L 21066929.00 36086221.00 L 21066929.00 36333072.01  zM 21066929.00 36679921.00 L 20897403.87 36679921.00 L 20866408.00 36648925.04 L 20866408.00 36579921.00 L 20966929.00 36579921.00 L 20966929.00 36433072.01 L 21066929.00 36433072.01 L 21066929.00 36679921.00  zM 21124016.00 34145276.00 L 20896851.00 34145276.00 L 20896851.00 33957481.00 L 20996851.00 33957481.00 L 20996851.00 34045276.00 L 21124016.00 34045276.00 L 21124016.00 34145276.00  zM 21389111.00 35056620.00 L 21360799.88 34988270.88 L 21166150.00 34793621.00 L 21132997.00 34744004.00 L 21123539.11 34696457.00 L 20896851.00 34696457.00 L 20896851.00 34220867.00 L 21451181.00 34220867.00 L 21451181.00 34646076.00 L 21523160.42 34718055.42 L 21530631.00 34714961.00 A 222382.84 222382.84 0 1 1 21389111.00 35056620.00  zM 22400467.00 36592780.00 L 22345088.00 36537401.00 L 22227166.00 36537401.00 L 22227166.00 35628741.00 L 22344696.00 35628741.00 L 22400467.00 35572970.00 A 222382.84 222382.84 0 0 1 22647565.00 35572970.00 L 22703336.00 35628741.00 L 22820866.00 35628741.00 L 22820866.00 36537401.00 L 22702944.00 36537401.00 L 22647565.00 36592780.00 A 222382.84 222382.84 0 0 1 22400467.00 36592780.00  z"/>
<path id="N" d="M 15224262.59 33416536.41 L 15209449.00 33366535.40 L 15209449.00 33210594.07 L 15223995.00 33220313.00 L 15270079.00 33229480.00 L 15309449.00 33221648.54 L 15309449.00 33266536.00 L 15663779.00 33266536.00 L 15663779.00 33159056.00 L 15763779.00 33159056.00 L 15763779.00 33330132.00 L 15996851.00 33330132.00 L 15996851.00 33225591.00 L 16551181.00 33225591.00 L 16551181.00 33330132.00 L 17027166.00 33330132.00 L 17027166.00 33028741.00 L 17144697.00 33028741.00 L 17200467.00 32972971.00 A 222382.84 222382.84 0 0 1 17447565.00 32972971.00 L 17503335.00 33028741.00 L 17620866.00 33028741.00 L 17620866.00 33330132.00 L 19668501.00 33330132.00 L 19700467.00 33298166.00 A 222382.84 222382.84 0 0 1 19947565.00 33298166.00 L 19955589.60 33306190.60 L 20001784.00 33287056.25 L 20001784.00 33177127.00 L 19710667.00 32886010.00 L 19420866.00 32886010.00 L 19420866.00 33187401.00 L 19303336.00 33187401.00 L 19247565.00 33243172.00 A 222382.84 222382.84 0 0 1 19000467.00 33243172.00 L 18944696.00 33187401.00 L 18827166.00 33187401.00 L 18827166.00 32886010.00 L 16551181.00 32886010.00 L 16551181.00 32992520.00 L 15996851.00 32992520.00 L 15996851.00 32887979.00 L 15763779.00 32887979.00 L 15763779.00 33059056.00 L 15663779.00 33059056.00 L 15663779.00 32951576.00 L 15309449.00 32951576.00 L 15309449.00 32996463.46 L 15270079.00 32988632.00 L 15223995.00 32997799.00 L 15209449.00 33007517.93 L 15209449.00 32979254.75 L 15163254.60 32960120.40 L 13793243.41 34330131.59 L 13806951.26 34373860.11 L 13811714.07 34380132.00 L 14260667.00 34380132.00 L 15224262.59 33416536.41  z"/>
<path id="N" d="M 12351920.00 36560975.00 L 12384998.00 36538873.00 L 12424016.00 36531112.00 L 12552794.39 36531112.00 L 12555906.00 36526455.15 A 222381.75 222381.75 0 0 1 12730631.00 36264961.00 L 12775838.00 36264961.00 L 12865872.00 36174927.00 L 12915489.00 36141774.00 L 12974016.00 36130132.00 L 13253150.00 36130132.00 L 13253150.00 35934609.07 L 13267696.00 35944328.00 L 13313780.00 35953495.00 L 13353150.00 35945663.54 L 13353150.00 36040551.00 L 13707480.00 36040551.00 L 13707480.00 35933072.00 L 13807480.00 35933072.00 L 13807480.00 36130132.00 L 14040552.00 36130132.00 L 14040552.00 35999606.00 L 14594882.00 35999606.00 L 14594882.00 36054541.00 L 14946851.00 36054541.00 L 14946851.00 35856824.01 L 14912339.00 35849959.00 L 14862722.00 35816806.00 L 14707910.00 35661994.00 L 14594882.00 35661994.00 L 14594882.00 35766535.00 L 14040552.00 35766535.00 L 14040552.00 35717900.00 L 13807480.00 35717900.00 L 13807480.00 35833072.00 L 13707480.00 35833072.00 L 13707480.00 35725591.00 L 13365516.91 35725591.00 L 13359864.00 35721814.00 L 13313780.00 35712647.00 L 13267696.00 35721814.00 L 13253150.00 35731532.93 L 13253150.00 35717900.00 L 13095630.00 35717900.00 L 12229008.00 36584522.00 L 12179391.00 36617675.00 L 12120864.00 36629317.00 L 11112593.00 36629317.00 L 11112593.00 36681112.00 L 12231783.00 36681112.00 L 12351920.00 36560975.00  z"/>
<path id="N" d="M 9624800.29 36476380.29 m -210738.62 0 a 210738.62 210738.62 0 1 1 421477.24 0a 210738.62 210738.62 0 1 1 -421477.24 0M 9624800.38 36476372.09 m -140500.91 0 a 140500.91 140500.91 0 1 1 281001.82 0a 140500.91 140500.91 0 1 1 -281001.82 0"/>
<path id="N" d="M 19367715.00 36405333.17 L 19368299.17 36246678.00 L 19467715.00 36246678.00 L 19467715.00 36379566.00 L 19841731.00 36379566.00 L 19841731.00 36005550.00 L 19467715.00 36005550.00 L 19467715.00 36138438.00 L 19367714.77 36138438.00 L 19367714.58 35927848.99 L 19326068.52 35885381.36 L 19320996.72 35885530.20 L 19289615.35 35933624.76 L 19292126.00 35939686.00 A 222382.84 222382.84 0 0 1 19197565.00 36167976.00 L 19178294.00 36172538.00 L 19164824.93 36181537.37 L 19122894.47 36198905.53 L 19006176.00 36315624.00 L 18956559.00 36348777.00 L 18898032.00 36360419.00 L 18848031.00 36360419.00 L 18848031.00 36445275.00 L 18372139.85 36445275.00 L 18349863.04 36494753.30 L 18370150.56 36520866.00 L 18848031.00 36520866.00 L 18848031.00 36531112.00 L 19240875.00 36531112.00 L 19367715.00 36405333.17  z"/>
<path id="N" d="M 22635273.00 36453959.00 L 22638566.71 36437401.00 L 22720866.00 36437401.00 L 22720866.00 35728741.00 L 22638644.68 35728741.00 L 22635273.00 35711791.00 A 120412.98 120412.98 0 0 0 22412759.00 35711791.00 L 22409387.32 35728741.00 L 22327166.00 35728741.00 L 22327166.00 36437401.00 L 22409465.29 36437401.00 L 22412759.00 36453959.00 A 120412.98 120412.98 0 0 0 22635273.00 36453959.00  z"/>
<path id="N" d="M 12773380.16 37576530.16 m -120412.98 0 a 120412.98 120412.98 0 1 1 240825.96 0a 120412.98 120412.98 0 1 1 -240825.96 0"/>
<path id="N" d="M 13998290.16 38801440.16 m -120412.98 0 a 120412.98 120412.98 0 1 1 240825.96 0a 120412.98 120412.98 0 1 1 -240825.96 0"/>
<path id="N" d="M 13385835.16 39055127.16 m -120412.98 0 a 120412.98 120412.98 0 1 1 240825.96 0a 120412.98 120412.98 0 1 1 -240825.96 0"/>
<path id="N" d="M 13998290.16 37576530.16 m -120412.98 0 a 120412.98 120412.98 0 1 1 240825.96 0a 120412.98 120412.98 0 1 1 -240825.96 0"/>
<path id="N" d="M 12519693.16 38188985.16 m -120412.98 0 a 120412.98 120412.98 0 1 1 240825.96 0a 120412.98 120412.98 0 1 1 -240825.96 0"/>
<path id="N" d="M 13385835.16 37322843.16 m -120412.98 0 a 120412.98 120412.98 0 1 1 240825.96 0a 120412.98 120412.98 0 1 1 -240825.96 0"/>
<path id="N" d="M 14251977.16 38188985.16 m -120412.98 0 a 120412.98 120412.98 0 1 1 240825.96 0a 120412.98 120412.98 0 1 1 -240825.96 0"/>
<path id="N" d="M 13385835.16 33543315.16 m -120412.98 0 a 120412.98 120412.98 0 1 1 240825.96 0a 120412.98 120412.98 0 1 1 -240825.96 0"/>
<path id="N" d="M 13998290.16 33289628.16 m -120412.98 0 a 120412.98 120412.98 0 1 1 240825.96 0a 120412.98 120412.98 0 1 1 -240825.96 0"/>
<path id="N" d="M 12773380.16 33289628.16 m -120412.98 0 a 120412.98 120412.98 0 1 1 240825.96 0a 120412.98 120412.98 0 1 1 -240825.96 0"/>
<path id="N" d="M 14251977.16 32677173.16 m -120412.98 0 a 120412.98 120412.98 0 1 1 240825.96 0a 120412.98 120412.98 0 1 1 -240825.96 0"/>
<path id="N" d="M 12773380.16 32064718.16 m -120412.98 0 a 120412.98 120412.98 0 1 1 240825.96 0a 120412.98 120412.98 0 1 1 -240825.96 0"/>
<path id="N" d="M 13998290.16 32064718.16 m -120412.98 0 a 120412.98 120412.98 0 1 1 240825.96 0a 120412.98 120412.98 0 1 1 -240825.96 0"/>
<path id="N" d="M 12773380.16 38801440.16 m -120412.98 0 a 120412.98 120412.98 0 1 1 240825.96 0a 120412.98 120412.98 0 1 1 -240825.96 0"/>
<path id="N" d="M 13385835.16 31811031.16 m -120412.98 0 a 120412.98 120412.98 0 1 1 240825.96 0a 120412.98 120412.98 0 1 1 -240825.96 0"/>
<path id="N" d="M 12519693.16 32677173.16 m -120412.98 0 a 120412.98 120412.98 0 1 1 240825.96 0a 120412.98 120412.98 0 1 1 -240825.96 0"/>
<path id="N" d="M 16833070.00 36755906.00 L 16749395.00 36755906.00 L 16749396.00 36334638.00 L 16733544.00 36296369.00 L 16520927.00 36083752.00 L 16482655.59 36067901.00 L 16410948.61 36067901.00 L 16394043.00 36042599.00 L 16362649.00 36021623.00 L 16325618.00 36014257.00 L 16001562.00 36014257.00 L 15964531.00 36021623.00 L 15933137.00 36042599.00 L 15916231.39 36067901.00 L 15835066.00 36067901.00 L 15796796.29 36083753.71 L 15727189.19 36153360.00 L 15401181.00 36153360.00 L 15401181.00 36069685.00 L 15046851.00 36069685.00 L 15046851.00 36153360.00 L 14494882.00 36153360.00 L 14494882.00 36099606.00 L 14140552.00 36099606.00 L 14140552.00 36228951.00 L 12974016.00 36228950.00 L 12935746.29 36244803.71 L 12810620.94 36369928.43 L 12774016.00 36362647.00 A 120431.73 120431.73 0 1 0 12894440.00 36483071.00 L 12887158.57 36446466.06 L 12996433.08 36337191.00 L 14140552.00 36337191.00 L 14140552.00 36414566.00 L 14494882.00 36414566.00 L 14494882.00 36261600.00 L 15046851.00 36261600.00 L 15046851.00 36345275.00 L 15401181.00 36345275.00 L 15401181.00 36261600.00 L 15749607.00 36261601.00 L 15787876.00 36245749.00 L 15857483.19 36176141.00 L 15930926.75 36176141.00 L 15933137.00 36179449.00 L 15964531.00 36200425.00 L 16001562.00 36207791.00 L 16325618.00 36207791.00 L 16362649.00 36200425.00 L 16394043.00 36179449.00 L 16396253.25 36176141.00 L 16460240.00 36176141.00 L 16641155.00 36357056.00 L 16641155.00 36755906.00 L 16557480.00 36755906.00 L 16557480.00 37110236.00 L 16833070.00 37110236.00 L 16833070.00 36755906.00  z"/>
<path id="N" d="M 9034248.29 37933073.29 m -210738.62 0 a 210738.62 210738.62 0 1 1 421477.24 0a 210738.62 210738.62 0 1 1 -421477.24 0M 9034248.38 37933065.09 m -140500.91 0 a 140500.91 140500.91 0 1 1 281001.82 0a 140500.91 140500.91 0 1 1 -281001.82 0"/>
<path id="N" d="M 20462114.00 37138325.00 L 20462114.00 36256755.00 L 20435433.00 36230074.37 L 20435433.00 36186221.00 L 20081103.00 36186221.00 L 20081103.00 36223192.00 L 20045970.00 36258325.00 L 20045970.00 37131004.00 L 20119437.00 37204468.00 L 20395970.00 37204469.00 L 20462114.00 37138325.00  z"/>
<path id="N" d="M 11012593.00 36530498.00 L 12120864.00 36530499.00 L 12159133.00 36514647.00 L 13054698.02 35619081.00 L 14140552.00 35619081.00 L 14140552.00 35666535.00 L 14494882.00 35666535.00 L 14494882.00 35563175.00 L 14748841.00 35563175.00 L 14932597.00 35746931.00 L 14970868.41 35762782.00 L 15046851.00 35762782.00 L 15046851.00 35846457.00 L 15401181.00 35846457.00 L 15401181.00 35762782.00 L 15499630.37 35762782.00 L 15526775.00 35789927.00 L 15565046.41 35805778.00 L 15720185.17 35805778.00 L 15796797.00 35882390.00 L 15835066.00 35898241.00 L 15916231.39 35898241.00 L 15933137.00 35923543.00 L 15964531.00 35944519.00 L 16001562.00 35951885.00 L 16325618.00 35951885.00 L 16362649.00 35944519.00 L 16394043.00 35923543.00 L 16410948.61 35898241.00 L 16509816.00 35898242.00 L 16548085.00 35882390.00 L 16733544.00 35696931.00 L 16749395.00 35658659.59 L 16749395.00 35210236.00 L 16833070.00 35210236.00 L 16833070.00 34855906.00 L 16557480.00 34855906.00 L 16557480.00 35210236.00 L 16641155.00 35210236.00 L 16641155.00 35636244.91 L 16487398.09 35790001.00 L 16396253.25 35790001.00 L 16394043.00 35786693.00 L 16362649.00 35765717.00 L 16325618.00 35758351.00 L 16001562.00 35758351.00 L 15964531.00 35765717.00 L 15933137.00 35786693.00 L 15930926.75 35790001.00 L 15857483.17 35790001.00 L 15780872.00 35713389.00 L 15742600.59 35697538.00 L 15587461.37 35697538.00 L 15560317.00 35670393.00 L 15522045.59 35654542.00 L 15401181.00 35654542.00 L 15401181.00 35570867.00 L 15046851.00 35570867.00 L 15046851.00 35654542.00 L 14993284.00 35654542.00 L 14809528.00 35470786.00 L 14771256.59 35454935.00 L 14494882.00 35454935.00 L 14494882.00 35351575.00 L 14140552.00 35351575.00 L 14140552.00 35510841.00 L 13032281.00 35510841.00 L 12994011.29 35526693.71 L 12098446.02 36422258.00 L 11012593.00 36422258.00 L 11012593.00 36269685.00 L 10599207.00 36269685.00 L 10599207.00 36683071.00 L 11012593.00 36683071.00 L 11012593.00 36530498.00  zM 10805902.38 36476372.09 m -140500.91 0 a 140500.91 140500.91 0 1 1 281001.82 0a 140500.91 140500.91 0 1 1 -281001.82 0"/>
<path id="N" d="M 21527932.00 34821814.00 L 21503495.45 34838141.31 L 21328414.00 34663059.07 L 21328414.00 34596457.00 L 21351181.00 34596457.00 L 21351181.00 34320867.00 L 20996851.00 34320867.00 L 20996851.00 34596457.00 L 21220174.00 34596457.00 L 21220173.00 34685477.00 L 21236025.00 34723746.00 L 21455638.36 34943358.36 L 21462759.00 34979155.00 A 120412.98 120412.98 0 1 0 21527932.00 34821814.00  z"/>
</g>
</svg>
