<svg width="35.90526474mm" height="21.80000212mm" viewBox="0 0 14135931 8582678"  version="1.1" xmlns="http://www.w3.org/2000/svg" xmlns:xlink="http://www.w3.org/1999/xlink">
<desc>
Origin 9055113 35433070 Bound 9055118 31141731 14135931 8582678
</desc>
<g fill-rule="evenodd" fill="rgb(128, 128, 0)" stroke="black" stroke-width="1" transform="translate(0, 8582678) scale(1, -1) translate(-9055118, -31141731)">
<path id="N" d="M 17660903.00 35452731.00 L 17656311.00 35410747.00 L 17647127.00 35380571.00 L 17632367.00 35359907.00 L 17617607.00 35347443.00 L 17600223.00 35338587.00 L 17565783.00 35330715.00 L 17533311.00 35329075.00 L 17499527.00 35333995.00 A 89819.23 89819.23 0 0 0 17429663.00 35399923.00 L 17423759.00 35440923.00 L 17422775.00 35636411.00 L 17462791.00 35636411.00 L 17462791.00 35461587.00 L 17465743.00 35425507.00 L 17472303.00 35401891.00 L 17481815.00 35384835.00 L 17494607.00 35375651.00 L 17520191.00 35367451.00 L 17544791.00 35364827.00 L 17570047.00 35368107.00 A 55150.33 55150.33 0 0 1 17614983.00 35407139.00 L 17619903.00 35439611.00 L 17620887.00 35636411.00 L 17660903.00 35636411.00 L 17660903.00 35452731.00  z"/>
<path id="N" d="M 17646062.95 36483070.95 m -101959.21 0 a 101959.21 101959.21 0 1 1 203918.42 0a 101959.21 101959.21 0 1 1 -203918.42 0"/>
<path id="N" d="M 17259431.00 35629851.00 L 17280423.00 35604267.00 L 17306663.00 35582619.00 L 17342743.00 35561299.00 L 17342743.00 35525547.00 L 17336183.00 35528171.00 L 17295839.00 35549491.00 L 17268287.00 35570155.00 L 17268287.00 35333667.00 L 17231223.00 35333667.00 L 17231223.00 35637395.00 L 17255167.00 35637395.00 L 17259431.00 35629851.00  z"/>
<path id="N" d="M 19867881.00 36276031.00 L 19877392.00 36253070.00 L 19877392.00 34613070.00 L 19867881.00 34590109.00 L 19844920.00 34580598.00 L 19821959.00 34590109.00 L 19812448.00 34613070.00 L 19812448.00 36253070.00 L 19821959.00 36276031.00 L 19844920.00 36285542.00 L 19867881.00 36276031.00  z"/>
<path id="N" d="M 17837881.00 36276031.00 L 17847392.00 36253070.00 L 17847392.00 34613070.00 L 17837881.00 34590109.00 L 17814920.00 34580598.00 L 17791959.00 34590109.00 L 17782448.00 34613070.00 L 17782448.00 36253070.00 L 17791959.00 36276031.00 L 17814920.00 36285542.00 L 17837881.00 36276031.00  z"/>
</g>
</svg>
