<svg width="35.90526474mm" height="21.80000212mm" viewBox="0 0 14135931 8582678"  version="1.1" xmlns="http://www.w3.org/2000/svg" xmlns:xlink="http://www.w3.org/1999/xlink">
<desc>
Origin 9055113 35433070 Bound 9055118 31141731 14135931 8582678
</desc>
<g fill-rule="evenodd" fill="rgb(128, 0, 128)" stroke="black" stroke-width="1" transform="translate(0, 8582678) scale(1, -1) translate(-9055118, -31141731)">
<path id="N" d="M 19085059.00 31141641.00 L 9055118.00 31141732.00 L 9055118.00 39724409.00 L 19085059.00 39724498.00 A 4295379.07 4295379.07 0 0 0 19085059.00 31141641.00  zM 10472435.13 32165355.48 m -241327.52 0 a 241327.52 241327.52 0 1 1 482655.04 0a 241327.52 241327.52 0 1 1 -482655.04 0M 11200783.52 31555121.25 m -251366.75 0 a 251366.75 251366.75 0 1 1 502733.51 0a 251366.75 251366.75 0 1 1 -502733.51 0M 11929128.13 32755907.48 m -241327.52 0 a 241327.52 241327.52 0 1 1 482655.04 0a 241327.52 241327.52 0 1 1 -482655.04 0M 10472435.13 33346458.48 m -241327.52 0 a 241327.52 241327.52 0 1 1 482655.04 0a 241327.52 241327.52 0 1 1 -482655.04 0M 12165822.00 34173700.00 L 11692436.00 34173700.00 L 11692436.00 33700314.00 L 12165822.00 33700314.00 L 12165822.00 34173700.00  zM 9608262.00 35669133.00 L 9351412.00 35669133.00 L 9351412.00 35197007.00 L 9608262.00 35197007.00 L 9608262.00 35669133.00  zM 10258814.00 35669133.00 L 10001964.00 35669133.00 L 10001964.00 35197007.00 L 10258814.00 35197007.00 L 10258814.00 35669133.00  zM 11200783.52 34547241.25 m -251366.75 0 a 251366.75 251366.75 0 1 1 502733.51 0a 251366.75 251366.75 0 1 1 -502733.51 0M 11130152.00 35748660.00 L 10538342.00 35748660.00 L 10538342.00 35117480.00 L 11130152.00 35117480.00 L 11130152.00 35748660.00  zM 13385821.88 32224441.22 m -652716.78 0 a 652716.78 652716.78 0 1 1 1305433.57 0a 652716.78 652716.78 0 1 1 -1305433.57 0M 15093543.00 33306536.00 L 14659213.00 33306536.00 L 14659213.00 32911576.00 L 15093543.00 32911576.00 L 15093543.00 33306536.00  zM 15257317.00 35250235.00 L 14901727.00 35250235.00 L 14901727.00 34815905.00 L 15257317.00 34815905.00 L 15257317.00 35250235.00  zM 12271884.00 35748660.00 L 11680074.00 35748660.00 L 11680074.00 35117480.00 L 12271884.00 35117480.00 L 12271884.00 35748660.00  zM 14172278.00 35385275.00 L 13737948.00 35385275.00 L 13737948.00 35029685.00 L 14172278.00 35029685.00 L 14172278.00 35385275.00  zM 13515979.00 36156534.00 L 13081649.00 36156534.00 L 13081649.00 35761574.00 L 13515979.00 35761574.00 L 13515979.00 36156534.00  zM 14172278.00 35936456.00 L 13737948.00 35936456.00 L 13737948.00 35580866.00 L 14172278.00 35580866.00 L 14172278.00 35936456.00  zM 14709078.00 35951885.00 L 14385022.00 35951885.00 A 96771.86 96771.86 0 0 1 14385022.00 35758351.00 L 14709078.00 35758351.00 A 96771.86 96771.86 0 0 1 14709078.00 35951885.00  zM 14709078.00 35695980.00 L 14385022.00 35695980.00 A 96771.86 96771.86 0 0 1 14385022.00 35502446.00 L 14709078.00 35502446.00 A 96771.86 96771.86 0 0 1 14709078.00 35695980.00  zM 10472435.13 36929005.48 m -241327.52 0 a 241327.52 241327.52 0 1 1 482655.04 0a 241327.52 241327.52 0 1 1 -482655.04 0M 11200783.52 36318771.25 m -251366.75 0 a 251366.75 251366.75 0 1 1 502733.51 0a 251366.75 251366.75 0 1 1 -502733.51 0M 10472435.13 38110108.48 m -241327.52 0 a 241327.52 241327.52 0 1 1 482655.04 0a 241327.52 241327.52 0 1 1 -482655.04 0M 11200783.52 39310891.25 m -251366.75 0 a 251366.75 251366.75 0 1 1 502733.51 0a 251366.75 251366.75 0 1 1 -502733.51 0M 12165822.00 38937350.00 L 11692436.00 38937350.00 L 11692436.00 38463964.00 L 12165822.00 38463964.00 L 12165822.00 38937350.00  zM 12728577.00 36530550.00 L 12294247.00 36530550.00 L 12294247.00 36135590.00 L 12728577.00 36135590.00 L 12728577.00 36530550.00  zM 13515979.00 36904565.00 L 13081649.00 36904565.00 L 13081649.00 36509605.00 L 13515979.00 36509605.00 L 13515979.00 36904565.00  zM 11929128.13 37519557.48 m -241327.52 0 a 241327.52 241327.52 0 1 1 482655.04 0a 241327.52 241327.52 0 1 1 -482655.04 0M 13385821.88 38641764.22 m -652716.78 0 a 652716.78 652716.78 0 1 1 1305433.57 0a 652716.78 652716.78 0 1 1 -1305433.57 0M 14172278.00 36435274.00 L 13737948.00 36435274.00 L 13737948.00 36079684.00 L 14172278.00 36079684.00 L 14172278.00 36435274.00  zM 14172278.00 36986455.00 L 13737948.00 36986455.00 L 13737948.00 36630865.00 L 14172278.00 36630865.00 L 14172278.00 36986455.00  zM 14803986.00 36461837.00 L 14290114.00 36461837.00 L 14290114.00 36272021.00 L 14803986.00 36272021.00 L 14803986.00 36461837.00  zM 14709078.00 36207791.00 L 14385022.00 36207791.00 A 96771.86 96771.86 0 1 1 14385022.00 36014257.00 L 14709078.00 36014257.00 A 96771.86 96771.86 0 1 1 14709078.00 36207791.00  zM 14712121.00 37114015.00 L 14338105.00 37114015.00 L 14338105.00 36739999.00 L 14712121.00 36739999.00 L 14712121.00 37114015.00  zM 15256530.00 37130235.00 L 14900940.00 37130235.00 L 14900940.00 36695905.00 L 15256530.00 36695905.00 L 15256530.00 37130235.00  zM 14712121.00 37606141.00 L 14338105.00 37606141.00 L 14338105.00 37232125.00 L 14712121.00 37232125.00 L 14712121.00 37606141.00  zM 15157318.00 39319920.00 L 14722988.00 39319920.00 L 14722988.00 38846220.00 L 15157318.00 38846220.00 L 15157318.00 39319920.00  zM 15880945.00 32932520.00 L 15446615.00 32932520.00 L 15446615.00 32537560.00 L 15880945.00 32537560.00 L 15880945.00 32932520.00  zM 15880945.00 33680551.00 L 15446615.00 33680551.00 L 15446615.00 33285591.00 L 15880945.00 33285591.00 L 15880945.00 33680551.00  zM 16901963.00 33837400.00 L 16508263.00 33837400.00 L 16508263.00 33128740.00 L 16901963.00 33128740.00 L 16901963.00 33837400.00  zM 16307317.00 34800235.00 L 15951727.00 34800235.00 L 15951727.00 34365905.00 L 16307317.00 34365905.00 L 16307317.00 34800235.00  zM 16858498.00 34800235.00 L 16502908.00 34800235.00 L 16502908.00 34365905.00 L 16858498.00 34365905.00 L 16858498.00 34800235.00  zM 15808498.00 35250235.00 L 15452908.00 35250235.00 L 15452908.00 34815905.00 L 15808498.00 34815905.00 L 15808498.00 35250235.00  zM 16323630.00 35695980.00 L 15999574.00 35695980.00 A 96771.86 96771.86 0 0 1 15999574.00 35502446.00 L 16323630.00 35502446.00 A 96771.86 96771.86 0 0 1 16323630.00 35695980.00  zM 16988813.00 35325275.00 L 16554483.00 35325275.00 L 16554483.00 34969685.00 L 16988813.00 34969685.00 L 16988813.00 35325275.00  zM 16988813.00 35876456.00 L 16554483.00 35876456.00 L 16554483.00 35520866.00 L 16988813.00 35520866.00 L 16988813.00 35876456.00  zM 17746063.00 33087401.00 L 17352363.00 33087401.00 L 17352363.00 32378741.00 L 17746063.00 32378741.00 L 17746063.00 33087401.00  zM 17722278.00 34235274.00 L 17287948.00 34235274.00 L 17287948.00 33879684.00 L 17722278.00 33879684.00 L 17722278.00 34235274.00  zM 17722278.00 34786455.00 L 17287948.00 34786455.00 L 17287948.00 34430865.00 L 17722278.00 34430865.00 L 17722278.00 34786455.00  zM 18297085.00 35156495.00 L 17862755.00 35156495.00 L 17862755.00 34800905.00 L 18297085.00 34800905.00 L 18297085.00 35156495.00  zM 18297085.00 34605314.00 L 17862755.00 34605314.00 L 17862755.00 34249724.00 L 18297085.00 34249724.00 L 18297085.00 34605314.00  zM 20707317.00 33850235.00 L 20351727.00 33850235.00 L 20351727.00 33415905.00 L 20707317.00 33415905.00 L 20707317.00 33850235.00  zM 21112593.00 32929920.00 L 20403933.00 32929920.00 L 20403933.00 32536220.00 L 21112593.00 32536220.00 L 21112593.00 32929920.00  zM 21258498.00 33850235.00 L 20902908.00 33850235.00 L 20902908.00 33415905.00 L 21258498.00 33415905.00 L 21258498.00 33850235.00  zM 16323630.00 35951885.00 L 15999574.00 35951885.00 A 96771.86 96771.86 0 0 1 15999574.00 35758351.00 L 16323630.00 35758351.00 A 96771.86 96771.86 0 0 1 16323630.00 35951885.00  zM 16323630.00 36207791.00 L 15999574.00 36207791.00 A 96771.86 96771.86 0 1 1 15999574.00 36014257.00 L 16323630.00 36014257.00 A 96771.86 96771.86 0 1 1 16323630.00 36207791.00  zM 16323630.00 36463696.00 L 15999574.00 36463696.00 A 96771.86 96771.86 0 1 1 15999574.00 36270162.00 L 16323630.00 36270162.00 A 96771.86 96771.86 0 1 1 16323630.00 36463696.00  zM 15807711.00 37130235.00 L 15452121.00 37130235.00 L 15452121.00 36695905.00 L 15807711.00 36695905.00 L 15807711.00 37130235.00  zM 16372121.00 37114015.00 L 15998105.00 37114015.00 L 15998105.00 36739999.00 L 16372121.00 36739999.00 L 16372121.00 37114015.00  zM 16372121.00 37606141.00 L 15998105.00 37606141.00 L 15998105.00 37232125.00 L 16372121.00 37232125.00 L 16372121.00 37606141.00  zM 16452593.00 38665588.00 L 16057633.00 38665588.00 L 16057633.00 38270628.00 L 16452593.00 38270628.00 L 16452593.00 38665588.00  zM 15787239.00 39319920.00 L 15352909.00 39319920.00 L 15352909.00 38846220.00 L 15787239.00 38846220.00 L 15787239.00 39319920.00  zM 16452593.00 39295510.00 L 16057633.00 39295510.00 L 16057633.00 38900550.00 L 16452593.00 38900550.00 L 16452593.00 39295510.00  zM 16988813.00 36445274.00 L 16554483.00 36445274.00 L 16554483.00 36089684.00 L 16988813.00 36089684.00 L 16988813.00 36445274.00  zM 18266928.00 36574173.00 L 17892912.00 36574173.00 L 17892912.00 36200157.00 L 18266928.00 36200157.00 L 18266928.00 36574173.00  zM 16988813.00 36996455.00 L 16554483.00 36996455.00 L 16554483.00 36640865.00 L 16988813.00 36640865.00 L 16988813.00 36996455.00  zM 17753543.00 38179921.00 L 17044883.00 38179921.00 L 17044883.00 37786221.00 L 17753543.00 37786221.00 L 17753543.00 38179921.00  zM 18266928.00 37066299.00 L 17892912.00 37066299.00 L 17892912.00 36692283.00 L 18266928.00 36692283.00 L 18266928.00 37066299.00  zM 18941963.00 36665983.00 L 18468263.00 36665983.00 L 18468263.00 36231653.00 L 18941963.00 36231653.00 L 18941963.00 36665983.00  zM 18941963.00 36134487.00 L 18468263.00 36134487.00 L 18468263.00 35700157.00 L 18941963.00 35700157.00 L 18941963.00 36134487.00  zM 21146063.00 36437401.00 L 20752363.00 36437401.00 L 20752363.00 35728741.00 L 21146063.00 35728741.00 L 21146063.00 36437401.00  z"/>
</g>
</svg>
