<svg width="35.90526474mm" height="21.80000212mm" viewBox="0 0 14135931 8582678"  version="1.1" xmlns="http://www.w3.org/2000/svg" xmlns:xlink="http://www.w3.org/1999/xlink">
<desc>
Origin 9055113 35433070 Bound 9055118 31141731 14135931 8582678
</desc>
<g fill-rule="evenodd" fill="rgb(255, 0, 0)" stroke="black" stroke-width="1" transform="translate(0, 8582678) scale(1, -1) translate(-9055118, -31141731)">
<path id="N" d="M 18257085.00 34289724.00 L 18134040.00 34289724.00 L 18134040.00 33964150.74 L 18165073.00 33943416.00 A 120431.73 120431.73 0 1 0 17974032.26 33804143.00 L 17731102.00 33804142.00 L 17692832.29 33819995.71 L 17593650.87 33919684.00 L 17327948.00 33919684.00 L 17327948.00 34195274.00 L 17682278.00 34195274.00 L 17682278.00 33983624.88 L 17753519.16 33912383.00 L 17974032.26 33912383.00 L 17994767.00 33943416.00 L 18025800.00 33964150.74 L 18025800.00 34289724.00 L 17902755.00 34289724.00 L 17902755.00 34565314.00 L 18257085.00 34565314.00 L 18257085.00 34289724.00  z"/>
<path id="N" d="M 16323630.00 35502446.00 L 16183642.00 35502446.00 L 16183642.00 34760235.00 L 16267317.00 34760235.00 L 16267317.00 34405905.00 L 15991727.00 34405905.00 L 15991727.00 34760235.00 L 16075402.00 34760235.00 L 16075402.00 35502446.00 L 15999574.00 35502446.00 A 96771.86 96771.86 0 0 0 15999574.00 35695980.00 L 16323630.00 35695980.00 A 96758.91 96758.91 0 0 0 16323630.00 35502446.00  z"/>
<path id="N" d="M 15747239.00 39152150.00 L 16097633.00 39152150.00 L 16097633.00 39255510.00 L 16412593.00 39255510.00 L 16412593.00 38940550.00 L 16097633.00 38940550.00 L 16097633.00 39043910.00 L 15747239.00 39043910.00 L 15747239.00 38886220.00 L 15392909.00 38886220.00 L 15392909.00 39279920.00 L 15747239.00 39279920.00 L 15747239.00 39152150.00  z"/>
<path id="N" d="M 12135822.00 33987190.00 L 14105114.00 33987191.00 L 14143383.00 33971339.00 L 14577530.04 33537191.00 L 15486615.00 33537191.00 L 15486615.00 33640551.00 L 15840945.00 33640551.00 L 15840945.00 33537191.00 L 16508263.00 33537191.00 L 16508263.00 33837400.00 L 16584689.00 33837402.00 A 120431.73 120431.73 0 1 0 16825536.60 33837400.00 L 16901963.00 33837400.00 L 16901963.00 33537191.00 L 18782696.00 33537191.00 L 18941970.37 33696465.37 L 18934689.00 33733070.00 A 120431.73 120431.73 0 1 0 19055113.00 33612646.00 L 19018508.37 33619927.37 L 18843383.00 33444802.00 L 18805111.59 33428951.00 L 16901963.00 33428951.00 L 16901963.00 33128740.00 L 16825537.00 33128740.00 A 120431.73 120431.73 0 0 0 16584689.00 33128740.00 L 16508263.00 33128740.00 L 16508263.00 33428951.00 L 15840945.00 33428951.00 L 15840945.00 33325591.00 L 15486615.00 33325591.00 L 15486615.00 33428951.00 L 14555113.00 33428950.00 L 14516843.29 33444803.71 L 14082696.04 33878950.00 L 12135822.00 33878950.00 L 12135822.00 33730314.00 L 11722436.00 33730314.00 L 11722436.00 34143700.00 L 12135822.00 34143700.00 L 12135822.00 33987190.00  zM 11929131.38 33937001.09 m -140500.91 0 a 140500.91 140500.91 0 1 1 281001.82 0a 140500.91 140500.91 0 1 1 -281001.82 0"/>
<path id="N" d="M 16392055.00 35923543.00 L 16408960.61 35898241.00 L 16586818.00 35898242.00 L 16625087.00 35882390.00 L 16671020.68 35836456.00 L 16948813.00 35836456.00 L 16948813.00 35755300.00 L 17337003.00 35755301.00 L 17375272.00 35739449.00 L 17677530.05 35437190.00 L 18653216.00 35437191.00 L 18691485.00 35421339.00 L 19016925.43 35095897.75 L 19055113.00 35103494.00 A 120431.73 120431.73 0 1 0 18934689.00 34983070.00 L 18941655.76 35018093.05 L 18630798.04 35328950.00 L 17655113.00 35328950.00 L 17616843.29 35344802.71 L 17314585.05 35647060.00 L 16948813.00 35647060.00 L 16948813.00 35560866.00 L 16594483.00 35560866.00 L 16594483.00 35759918.32 L 16564400.11 35790001.00 L 16394265.25 35790001.00 L 16392055.00 35786693.00 L 16360661.00 35765717.00 L 16323630.00 35758351.00 L 15999574.00 35758351.00 L 15962543.00 35765717.00 L 15931149.00 35786693.00 L 15921591.07 35800998.00 L 15849578.08 35800998.00 L 15684823.00 35636242.08 L 15684823.00 35210235.00 L 15768498.00 35210235.00 L 15768498.00 34855905.00 L 15492908.00 34855905.00 L 15492908.00 35210235.00 L 15576583.00 35210235.00 L 15576582.00 35658660.00 L 15592434.00 35696929.00 L 15788892.00 35893387.00 L 15827163.41 35909238.00 L 15921591.07 35909238.00 L 15931149.00 35923543.00 L 15962543.00 35944519.00 L 15999574.00 35951885.00 L 16323630.00 35951885.00 L 16360661.00 35944519.00 L 16392055.00 35923543.00  z"/>
<path id="N" d="M 18405113.00 38283070.00 L 18404967.00 36932924.00 L 18266928.00 36794885.00 L 18266928.00 36692283.00 L 17892912.00 36692283.00 L 17892912.00 36783069.00 L 16948813.00 36783069.00 L 16948813.00 36680865.00 L 16752908.00 36680865.00 L 16577317.00 36505274.00 L 16494483.00 36505274.00 L 16494483.00 36422440.00 L 16415784.71 36343741.71 L 16413031.00 36329898.00 A 96758.91 96758.91 0 0 0 16323630.00 36270162.00 L 15999574.00 36270162.00 A 96771.86 96771.86 0 0 0 15902807.00 36366929.00 L 15905113.00 36383070.00 L 15905113.00 37132125.00 L 16472121.00 37132125.00 L 16472121.00 37706141.00 L 15898105.00 37706141.00 L 15898105.00 37640077.00 L 15855112.00 37683070.00 L 14812121.00 37683070.00 L 14812121.00 37706141.00 L 14238105.00 37706141.00 L 14238105.00 37132125.00 L 14812121.00 37132125.00 L 14812121.00 36340078.00 L 14803986.00 36331943.00 L 14803986.00 36272021.00 L 14290114.00 36272021.00 L 14290114.00 36298067.96 L 14232278.00 36355903.82 L 14232278.00 36495274.00 L 14092907.47 36495274.00 L 13917316.03 36670865.00 L 13777948.00 36670865.00 L 13777948.00 36683069.09 L 13575979.00 36683069.24 L 13575979.00 36964565.00 L 13021649.00 36964565.00 L 13021649.00 36860024.00 L 12598384.80 36860024.00 L 12421261.00 37037147.00 L 12371644.00 37070300.00 L 12313117.00 37081942.00 L 12156236.33 37081942.00 L 12013522.40 37224656.40 L 12047508.00 37233763.00 A 309338.40 309338.40 0 1 1 11683714.00 37331241.00 L 11731885.00 37283070.00 L 11005113.00 37283070.00 L 10855113.00 37133070.00 L 10855113.03 37081942.00 L 10738274.77 37081942.00 L 10717851.00 37117317.00 A 309338.40 309338.40 0 1 1 10717851.00 36740689.00 L 10738274.77 36776064.00 L 10855113.20 36776064.00 L 10855113.79 35708660.00 L 11090152.00 35708660.00 L 11090152.00 35157480.00 L 10855114.00 35157480.00 L 10855114.00 33133070.00 L 10755114.00 33033070.00 L 10055114.00 33033070.00 L 9955114.00 33133070.00 L 9955114.00 34283069.00 L 9305113.00 34933070.00 L 9305113.00 34989369.00 L 9378617.00 34989369.00 L 9458781.00 35022574.00 L 9520137.00 35083930.00 L 9525553.67 35097007.00 L 9708262.00 35097007.00 L 9708262.00 35769133.00 L 9545774.74 35769133.00 L 9520137.00 35831028.00 L 9458781.00 35892384.00 L 9378617.00 35925589.00 L 9305113.00 35925589.00 L 9305113.00 37533069.00 L 10505114.00 38733070.00 L 11622436.00 38733070.00 L 11622436.00 38393964.00 L 12235822.00 38393964.00 L 12235822.00 38733070.00 L 12318345.30 38733070.00 L 12313345.00 38695087.00 A 1085057.05 1085057.05 0 0 1 13325059.00 37541448.00 L 13340550.51 37541448.00 L 13361728.00 37532676.00 L 13448498.00 37532676.00 L 13470929.43 37541967.40 L 13607695.00 37559972.00 A 1084995.40 1084995.40 0 0 1 13998815.00 37721980.00 L 14108256.56 37805956.77 L 14141117.00 37819568.00 L 14202473.00 37880924.00 L 14216601.46 37915033.14 L 14298166.00 38021331.00 A 1085033.34 1085033.34 0 0 1 14460174.00 38412451.00 L 14477662.81 38545291.41 L 14489365.00 38573543.00 L 14489365.00 38660313.00 L 14478699.00 38686063.01 L 14473698.43 38733070.00 L 17955113.00 38733070.00 L 18405113.00 38283070.00  zM 10472438.38 33346450.09 m -140500.91 0 a 140500.91 140500.91 0 1 1 281001.82 0a 140500.91 140500.91 0 1 1 -281001.82 0M 10472438.38 38110100.09 m -140500.91 0 a 140500.91 140500.91 0 1 1 281001.82 0a 140500.91 140500.91 0 1 1 -281001.82 0"/>
<path id="N" d="M 16948813.00 35187190.00 L 17228424.00 35187191.00 L 17266693.00 35171339.00 L 17299842.51 35138189.04 L 17309029.00 35144327.00 A 120419.38 120419.38 0 0 0 17475537.00 35033070.00 L 17468255.63 34996465.37 L 17543382.00 34921339.00 L 17559233.00 34883067.59 L 17559233.00 34746455.00 L 17682278.00 34746455.00 L 17682278.00 34470865.00 L 17327948.00 34470865.00 L 17327948.00 34746455.00 L 17450993.00 34746455.00 L 17450993.00 34860652.00 L 17391717.63 34919927.37 L 17355113.00 34912646.00 A 120431.73 120431.73 0 0 0 17234689.00 35033070.00 L 17237542.36 35047414.28 L 17206006.21 35078950.00 L 16948813.00 35078950.00 L 16948813.00 35009685.00 L 16734823.00 35009685.00 L 16734823.00 34760235.00 L 16818498.00 34760235.00 L 16818498.00 34405905.00 L 16542908.00 34405905.00 L 16542908.00 34760235.00 L 16626583.00 34760235.00 L 16626583.00 35009685.00 L 16594483.00 35009685.00 L 16594483.00 35285275.00 L 16948813.00 35285275.00 L 16948813.00 35187190.00  z"/>
<path id="N" d="M 13574717.45 35487190.00 L 13690153.00 35487191.00 L 13728422.00 35471339.00 L 13854485.44 35345275.00 L 14132278.00 35345275.00 L 14132278.00 35069685.00 L 13777948.00 35069685.00 L 13777948.00 35268737.56 L 13667735.07 35378950.00 L 13511878.71 35378950.00 L 13501197.00 35371813.00 A 120419.38 120419.38 0 1 0 13574717.45 35487190.00  z"/>
<path id="N" d="M 13893383.00 33521339.00 L 14625561.02 32789160.00 L 15486615.00 32789160.00 L 15486615.00 32892520.00 L 15840945.00 32892520.00 L 15840945.00 32789160.00 L 16274016.00 32789160.00 L 16278769.75 32787191.00 L 17352363.00 32787191.00 L 17352363.00 33087401.00 L 17428789.00 33087402.00 A 120431.73 120431.73 0 1 0 17669636.80 33087401.00 L 17746063.00 33087401.00 L 17746063.00 32787191.00 L 18282696.05 32787191.00 L 18491970.49 32996464.74 L 18484689.00 33033070.00 A 120431.73 120431.73 0 1 0 18605113.00 32912646.00 L 18568507.74 32919927.49 L 18343383.00 32694802.00 L 18305111.59 32678951.00 L 17746063.00 32678951.00 L 17746063.00 32378741.00 L 17669637.00 32378740.00 A 120431.73 120431.73 0 1 0 17428789.20 32378741.00 L 17352363.00 32378741.00 L 17352363.00 32678951.00 L 16274016.00 32678951.00 L 16269262.25 32680920.00 L 15840945.00 32680920.00 L 15840945.00 32577560.00 L 15486615.00 32577560.00 L 15486615.00 32680920.00 L 14603144.00 32680920.00 L 14564874.29 32696772.71 L 13832696.02 33428950.00 L 12174271.01 33428950.00 L 10872406.00 32127084.00 L 10834134.59 32111233.00 L 10672412.65 32111233.00 L 10667136.00 32084706.00 A 210738.62 210738.62 0 1 0 10667136.00 32246000.00 L 10672412.65 32219473.00 L 10811719.01 32219473.00 L 12113585.00 33521339.00 L 12151854.00 33537190.00 L 13855114.00 33537191.00 L 13893383.00 33521339.00  zM 10472438.38 32165347.09 m -140500.91 0 a 140500.91 140500.91 0 1 1 281001.82 0a 140500.91 140500.91 0 1 1 -281001.82 0"/>
<path id="N" d="M 15767711.00 36735905.00 L 15695033.00 36735905.00 L 15695033.00 36328123.00 L 15849578.00 36173578.00 L 15927226.27 36173578.00 L 15931149.00 36179449.00 L 15962543.00 36200425.00 L 15999574.00 36207791.00 L 16323630.00 36207791.00 L 16360661.00 36200425.00 L 16392055.00 36179449.00 L 16401612.93 36165144.00 L 16553405.10 36165144.00 L 16594483.00 36206221.64 L 16594483.00 36405274.00 L 16948813.00 36405274.00 L 16948813.00 36321599.00 L 17383843.00 36321600.00 L 17422112.00 36305748.00 L 17893744.48 35834114.63 L 17909029.00 35844327.00 A 120419.38 120419.38 0 1 0 17834689.00 35733070.00 L 17835854.71 35738930.21 L 17361425.03 36213359.00 L 16948813.00 36213359.00 L 16948813.00 36129684.00 L 16671020.64 36129684.00 L 16614092.00 36072755.00 L 16575820.59 36056904.00 L 16401612.93 36056904.00 L 16392055.00 36042599.00 L 16360661.00 36021623.00 L 16323630.00 36014257.00 L 15999574.00 36014257.00 L 15962543.00 36021623.00 L 15931149.00 36042599.00 L 15915955.87 36065338.00 L 15827160.00 36065337.00 L 15788891.00 36081189.00 L 15602644.00 36267436.00 L 15586793.00 36305707.41 L 15586793.00 36735905.00 L 15492121.00 36735905.00 L 15492121.00 37090235.00 L 15767711.00 37090235.00 L 15767711.00 36735905.00  z"/>
<path id="N" d="M 19085059.00 31141641.00 L 13673001.03 31141731.53 L 13666418.32 31191731.70 L 13734092.00 31209865.00 L 13865214.00 31264178.00 L 13988124.00 31335140.00 L 14054879.67 31386363.00 L 14060953.00 31386363.00 A 222383.27 222383.27 0 0 1 14235678.00 31561088.00 L 14235678.00 31566987.28 L 14287475.00 31634491.00 A 1085033.34 1085033.34 0 0 1 14449483.00 32025611.00 L 14459450.79 32101323.66 L 14489365.00 32173543.00 L 14489365.00 32260313.00 L 14467308.13 32313563.02 L 14449483.00 32448958.00 L 14412750.00 32586046.00 L 14375704.83 32675480.14 L 14418092.94 32703803.06 L 14495000.00 32626896.00 L 14544617.00 32593743.00 L 14603144.00 32582101.00 L 15386615.00 32582101.00 L 15386615.00 32477560.00 L 15940945.00 32477560.00 L 15940945.00 32582101.00 L 16264117.39 32582101.00 L 16274016.00 32580132.00 L 17252363.00 32580132.00 L 17252363.00 32278741.00 L 17354553.28 32278741.00 L 17364308.00 32255191.00 A 222383.27 222383.27 0 0 1 17734118.00 32255191.00 L 17743872.72 32278741.00 L 17846063.00 32278741.00 L 17846063.00 32580132.00 L 18305114.00 32580132.00 L 18363641.00 32591774.00 L 18413258.00 32624927.00 L 18603291.00 32814960.00 L 18648498.00 32814960.00 A 222383.27 222383.27 0 1 1 18387003.00 33076455.00 L 18387003.00 33031248.00 L 18241765.00 32886010.00 L 17846063.00 32886010.00 L 17846063.00 33187401.00 L 17743872.72 33187401.00 L 17734118.00 33210951.00 L 17672762.00 33272307.00 L 17653871.37 33280131.75 L 17663817.03 33330132.00 L 18805114.00 33330132.00 L 18863641.00 33341774.00 L 18913258.00 33374927.00 L 19053291.00 33514960.00 L 19098498.00 33514960.00 A 222383.27 222383.27 0 1 1 18837003.00 33776455.00 L 18837003.00 33731248.00 L 18741765.00 33636010.00 L 18234014.24 33636010.00 L 18216121.42 33686010.42 L 18264825.00 33734714.00 A 222382.84 222382.84 0 0 1 18264825.00 33981812.00 L 18232859.00 34013778.00 L 18232859.00 34189724.00 L 18357085.00 34189724.00 L 18357085.00 34665314.00 L 17816715.42 34665314.70 L 17795144.34 34703109.48 L 17816715.20 34740904.55 L 18029920.00 34740904.73 L 18029920.00 34840905.00 L 17902755.00 34840905.00 L 17902755.00 34928700.00 L 17802755.00 34928700.00 L 17802755.00 34887973.66 L 17782277.33 34846455.85 L 17658052.00 34846455.00 L 17658052.00 34883070.00 L 17646410.00 34941597.00 L 17613257.00 34991214.00 L 17573223.00 35031248.00 L 17573223.00 35076455.00 A 222383.27 222383.27 0 0 1 17398498.00 35251180.00 L 17321652.82 35251180.00 L 17286951.00 35274367.00 L 17228424.00 35286009.00 L 17048813.00 35286009.00 L 17048813.00 35385275.00 L 16494483.00 35385275.00 L 16494482.30 34909685.72 L 16493154.48 34860235.00 L 16442908.00 34860235.00 L 16442908.00 34305905.00 L 16918498.00 34305905.00 L 16918498.70 34860234.28 L 16919826.52 34909685.00 L 17048813.00 34909685.00 L 17048813.00 34980131.00 L 17140960.39 34980131.00 L 17170208.00 34909521.00 L 17196358.36 34883370.64 L 17227948.00 34846454.09 L 17227948.00 34370865.00 L 17768319.52 34370864.30 L 17789889.85 34333070.74 L 17768317.65 34295274.00 L 17227948.00 34295274.00 L 17227948.00 33819684.00 L 17553393.00 33819684.00 L 17622958.00 33750119.00 L 17672575.00 33716966.00 L 17731102.00 33705324.00 L 17898877.77 33705324.00 L 17913719.35 33686010.47 L 17889083.90 33636010.00 L 17001963.00 33636010.00 L 17001963.00 33937400.00 L 16899773.14 33937400.00 L 16890018.00 33960951.00 A 222383.27 222383.27 0 0 1 16520208.00 33960951.00 L 16510452.86 33937400.00 L 16408263.00 33937400.00 L 16408263.00 33636010.00 L 15940945.00 33636010.00 L 15940945.00 33740551.00 L 15386615.00 33740551.00 L 15386615.00 33636010.00 L 14618462.00 33636010.00 L 14213258.00 34041214.00 L 14163641.00 34074367.00 L 14105114.00 34086009.00 L 12235822.00 34086009.00 L 12235822.00 34243700.00 L 11622436.00 34243700.00 L 11622436.00 33630314.00 L 12014278.21 33630314.00 L 12019556.29 33623301.88 L 12032809.59 33580313.59 L 10783229.80 32330733.80 L 10728092.60 32335928.03 L 10717851.00 32353667.00 A 309338.40 309338.40 0 1 1 10717851.00 31977039.00 L 10738274.77 32012414.00 L 10834137.00 32012414.00 L 10892664.00 32024056.00 L 10942281.00 32057209.00 L 11576996.32 32691924.32 L 11632764.75 32676981.37 L 11643337.00 32637526.00 A 309338.40 309338.40 0 0 1 11810750.00 32470113.00 L 11879130.00 32451790.26 L 11879130.00 32555108.61 L 11848482.00 32561205.00 A 210738.62 210738.62 0 1 0 12123829.00 32836552.00 L 12129925.39 32805904.00 L 12233243.74 32805904.00 L 12214921.00 32874284.00 A 309338.40 309338.40 0 0 1 12047508.00 33041697.00 L 12008052.63 33052269.25 L 11993109.68 33108037.68 L 12215203.00 33330131.00 L 13087559.39 33330131.00 L 13094142.11 33280130.83 L 13036569.00 33264704.00 A 1085033.34 1085033.34 0 0 1 12569584.00 31521894.00 L 12605772.40 31485705.60 L 12607753.00 31480924.00 L 12669109.00 31419568.00 L 12676493.85 31416509.10 L 12782537.00 31335140.00 L 12905447.00 31264178.00 L 13036569.00 31209865.00 L 13104242.47 31191731.76 L 13097659.75 31141731.59 L 9055118.00 31141732.00 L 9055118.00 39724409.00 L 13126009.10 39724409.00 L 13132591.81 39674408.83 L 13047260.00 39651544.00 A 1085033.34 1085033.34 0 0 1 12331868.12 38835798.59 L 12235822.00 38835029.00 L 12235822.00 39007350.00 L 11622436.00 39007350.00 L 11622436.00 38835029.00 L 10505114.00 38835029.00 L 10466096.00 38827268.00 L 10433018.00 38805166.00 L 9233017.00 37605165.00 L 9210915.00 37572087.00 L 9203154.00 37533069.00 L 9203154.00 35925589.00 A 101958.15 101958.15 0 0 1 9305113.00 35823630.00 L 9313750.93 35823630.00 L 9335232.00 35827903.00 A 120431.73 120431.73 0 0 0 9446489.00 35753563.00 L 9450761.76 35732083.15 L 9473679.00 35697037.00 L 9506757.00 35674935.00 L 9535926.24 35669133.00 L 9608262.00 35669133.00 L 9608262.00 35197007.00 L 9515702.21 35197007.00 L 9486538.00 35191206.00 L 9453458.00 35169103.00 L 9438033.21 35146018.21 L 9432554.12 35140539.12 L 9420385.00 35122326.00 L 9381316.00 35096222.00 L 9335232.00 35087055.00 L 9313750.93 35091328.00 L 9305113.00 35091328.00 A 101958.15 101958.15 0 0 1 9203154.00 34989369.00 L 9203154.00 34933070.00 L 9210915.00 34894052.00 L 9233017.00 34860974.00 L 9853155.00 34240836.00 L 9853155.00 33133070.00 L 9860916.00 33094052.00 L 9883018.00 33060974.00 L 9983018.00 32960974.00 L 10016096.00 32938872.00 L 10055114.00 32931111.00 L 10755114.00 32931111.00 L 10794132.00 32938872.00 L 10827210.00 32960974.00 L 10927210.00 33060974.00 L 10949312.00 33094052.00 L 10957073.00 33133070.00 L 10957073.00 34277976.25 L 11003267.40 34297110.60 L 11006426.00 34293952.00 A 319282.99 319282.99 0 1 1 11006426.00 34800534.00 L 11003267.40 34797375.40 L 10957073.00 34816509.75 L 10957073.00 35057480.00 L 11190152.00 35057480.00 L 11190152.00 35808660.00 L 10957072.67 35808660.00 L 10957072.50 36049506.74 L 11003266.90 36068641.10 L 11006426.00 36065482.00 A 319282.99 319282.99 0 1 1 11006426.00 36572064.00 L 11003266.54 36568904.54 L 10957072.13 36588038.87 L 10957072.00 36776064.00 L 12249767.80 36776064.00 L 12385280.76 36640550.43 L 12370077.81 36603847.36 L 12380330.00 36601808.00 A 120412.98 120412.98 0 0 0 12454669.80 36490550.00 L 12688577.00 36490550.00 L 12688577.00 36175590.00 L 12334247.00 36175590.00 L 12334247.00 36283072.00 L 12234247.00 36283072.00 L 12234247.00 36075590.00 L 12473945.87 36075590.00 L 12507355.16 36025589.48 L 12487003.00 35976455.00 A 222382.84 222382.84 0 0 1 12828662.00 35748165.00 L 12860628.00 35780131.00 L 13021649.00 35780131.00 L 13021649.00 35701574.00 L 13294451.72 35701574.00 L 13315162.57 35651573.57 L 13270208.00 35606619.00 A 222382.84 222382.84 0 0 1 13498498.00 35264960.00 L 13535124.05 35280131.00 L 13626803.80 35280131.00 L 13677948.00 35228986.57 L 13677948.00 34969685.00 L 14232278.00 34969685.00 L 14232278.00 35406724.27 L 14282278.48 35433450.37 L 14308973.00 35415614.00 L 14385022.00 35400487.00 L 14497050.00 35400487.00 L 14497050.00 35502446.00 L 14385022.00 35502446.00 A 96771.86 96771.86 0 0 0 14385022.00 35695980.00 L 14709078.00 35695980.00 A 96771.86 96771.86 0 0 0 14709078.00 35502446.00 L 14597050.00 35502446.00 L 14597050.00 35400487.00 L 14709078.00 35400487.00 L 14785127.00 35415614.00 L 14849599.00 35458692.00 L 14876582.65 35499076.65 L 14926583.00 35483909.45 L 14926583.00 35310235.00 L 14841727.00 35310235.00 L 14841727.00 34755905.00 L 15317317.00 34755905.00 L 15317317.00 35310235.00 L 15232461.00 35310235.00 L 15232461.00 35608662.00 L 15220819.00 35667189.00 L 15187666.00 35716806.00 L 14960155.66 35944316.34 L 14957095.85 35978626.14 L 14962129.32 36005770.20 L 14974262.00 36013877.00 L 15186879.00 36226494.00 L 15220032.00 36276111.00 L 15231674.00 36334638.00 L 15231674.00 36635905.00 L 15316530.00 36635905.00 L 15316530.00 37190235.00 L 14893562.14 37190235.00 L 14884217.00 37204221.00 L 14851139.00 37226323.00 L 14831995.15 37230130.87 L 14836919.63 37280131.00 L 15880314.37 37280131.00 L 15885238.85 37230130.87 L 15866095.00 37226323.00 L 15833017.00 37204221.00 L 15823671.86 37190235.00 L 15392121.00 37190235.00 L 15392121.00 36635905.00 L 15487974.00 36635905.00 L 15487974.00 36305705.00 L 15499616.00 36247178.00 L 15532769.00 36197561.00 L 15711772.76 36018557.24 L 15715868.80 35987290.47 L 15711772.73 35956018.69 L 15522559.00 35766804.00 L 15489406.00 35717187.00 L 15477764.00 35658660.00 L 15477764.00 35310235.00 L 15392908.00 35310235.00 L 15392908.00 34755905.00 L 15868497.03 34755904.74 L 15891727.00 34715526.25 L 15891727.00 34305905.00 L 16367317.00 34305905.00 L 16367317.00 34860235.00 L 16282461.00 34860235.00 L 16282461.00 35400487.00 L 16323630.00 35400487.00 L 16399679.00 35415614.00 L 16449451.30 35448870.16 L 16494485.07 35460866.00 L 17048813.00 35460866.00 L 17048813.00 35548241.00 L 17273653.86 35548241.00 L 17546968.00 35274926.00 L 17596585.00 35241773.00 L 17655113.00 35230131.00 L 17758402.71 35230131.00 L 17802754.20 35216494.21 L 17802755.00 35028700.00 L 17902755.00 35028700.00 L 17902755.00 35116495.00 L 18257085.00 35116495.00 L 18257085.00 35028700.00 L 18357085.49 35028700.00 L 18357085.80 35216494.21 L 18401436.78 35230130.84 L 18589866.89 35230131.00 L 18837003.00 34982994.27 L 18837003.00 34939685.00 A 222383.27 222383.27 0 1 1 19098498.00 35201180.00 L 19051394.73 35201180.00 L 18761360.00 35491214.00 L 18711743.00 35524367.00 L 18653216.00 35536009.00 L 18137217.28 35536009.00 L 18116506.43 35586009.43 L 18140018.00 35609521.00 A 222382.84 222382.84 0 0 1 17916430.79 35951180.00 L 17817454.03 36050156.57 L 17838164.86 36100157.00 L 18029920.00 36100157.00 L 18029920.00 36200157.00 L 17892912.00 36200157.00 L 17892912.00 36337165.00 L 17792912.00 36337165.00 L 17792912.00 36145409.78 L 17742911.57 36124698.89 L 17491987.00 36375623.00 L 17442370.00 36408776.00 L 17383843.00 36420418.00 L 17048813.00 36420418.00 L 17048813.00 36505274.00 L 16802286.81 36505274.00 L 16781275.37 36552970.29 L 16803635.51 36580865.00 L 17048813.00 36580865.00 L 17048813.00 36681110.00 L 17792912.00 36681110.00 L 17792912.00 36437165.00 L 17892912.00 36437165.00 L 17892912.00 36574173.00 L 18266928.00 36574173.00 L 18266928.00 36200157.00 L 18129920.00 36200157.00 L 18129920.00 36100157.00 L 18366927.15 36100157.00 L 18408263.00 36079237.25 L 18408263.00 35967322.00 L 18508263.00 35967322.00 L 18508263.00 36094487.00 L 18901963.00 36094487.00 L 18901963.00 35967322.00 L 19001963.00 35967322.00 L 19001963.00 36290191.44 L 19017268.00 36313096.00 L 19025029.00 36352114.00 L 19025029.00 37065113.00 L 19017268.00 37104131.00 L 18995166.00 37137209.00 L 18927208.00 37205166.00 L 18894129.00 37227268.00 L 18855111.00 37235029.00 L 18554868.51 37235235.82 L 18507072.00 37276451.92 L 18507072.00 38283070.00 L 18499311.00 38322088.00 L 18477209.00 38355166.00 L 18027209.00 38805166.00 L 17994131.00 38827268.00 L 17955113.00 38835029.00 L 16560306.63 38835029.00 L 16512593.00 38840551.00 L 16512593.00 39355510.00 L 15997633.00 39355510.00 L 15997633.00 39250969.00 L 15847239.00 39250969.00 L 15847239.00 39379920.00 L 15292909.00 39379920.00 L 15292909.00 38835029.00 L 15217318.00 38835029.00 L 15217318.00 39033072.01 L 15117318.00 39033072.01 L 15117318.00 38886220.00 L 14762988.00 38886220.00 L 14762988.00 39033071.99 L 14662988.00 39033071.99 L 14662988.00 38835029.00 L 14460173.83 38835798.65 A 1084992.83 1084992.83 0 0 1 14211768.00 39339515.00 L 14205387.69 39345895.31 L 14202473.00 39352932.00 L 14141117.00 39414288.00 L 14134080.31 39417202.69 L 14111412.00 39439871.00 A 1085025.41 1085025.41 0 0 1 13744783.00 39651544.00 L 13659451.19 39674408.83 L 13666033.90 39724409.00 L 19085059.00 39724498.00 A 4295379.07 4295379.07 0 0 0 19085059.00 31141641.00  zM 11200783.00 31555132.51 m -319256.99 0 a 319256.99 319256.99 0 1 1 638513.99 0a 319256.99 319256.99 0 1 1 -638513.99 0M 12233243.21 32705904.00 L 12129924.99 32705904.00 L 12123829.00 32675258.00 L 12078146.00 32606888.00 L 12009776.00 32561205.00 L 11979130.00 32555109.01 L 11979130.00 32451790.80 L 12047508.00 32470113.00 A 309338.40 309338.40 0 0 1 12214921.00 32637526.00 L 12233243.21 32705904.00  zM 11929131.38 32755899.09 m -140500.91 0 a 140500.91 140500.91 0 1 1 281001.82 0a 140500.91 140500.91 0 1 1 -281001.82 0M 12234247.00 36427617.52 L 12234247.00 36383072.00 L 12282507.60 36383072.00 L 12249093.00 36405398.00 L 12234247.00 36427617.52  zM 18357085.32 34928700.00 L 18257085.00 34928700.00 L 18257085.00 34840905.00 L 18129920.00 34840905.00 L 18129920.00 34740904.81 L 18357085.00 34740905.00 L 18357085.32 34928700.00  zM 18508263.00 35867322.00 L 18408263.00 35867322.00 L 18408263.00 35640157.00 L 18655113.00 35640157.00 L 18655113.00 35740157.00 L 18508263.00 35740157.00 L 18508263.00 35867322.00  zM 12271312.52 36590550.00 L 12234247.00 36590550.00 L 12234247.00 36553484.48 L 12249093.00 36575704.00 L 12271312.52 36590550.00  zM 11200783.00 39310902.51 m -319256.99 0 a 319256.99 319256.99 0 1 1 638513.99 0a 319256.99 319256.99 0 1 1 -638513.99 0M 14890154.99 39379920.00 L 14662988.00 39379920.00 L 14662988.00 39133071.99 L 14762988.00 39133071.99 L 14762988.00 39279920.00 L 14890154.99 39279920.00 L 14890154.99 39379920.00  zM 15217318.00 39379920.00 L 14990154.99 39379920.00 L 14990154.99 39279920.00 L 15117318.00 39279920.00 L 15117318.00 39133072.01 L 15217318.00 39133072.01 L 15217318.00 39379920.00  zM 20303933.00 32670136.52 L 20303933.00 32436220.00 L 20708263.00 32436220.00 L 20708263.00 32536220.00 L 20403933.00 32536220.00 L 20403932.00 32612646.00 L 20357848.00 32621813.00 L 20318779.00 32647917.00 L 20303933.00 32670136.52  zM 21212593.00 32670136.52 L 21197747.00 32647917.00 L 21158678.00 32621813.00 L 21112593.00 32612646.20 L 21112593.00 32536220.00 L 20808263.00 32536220.00 L 20808263.00 32436220.00 L 21212593.00 32436220.00 L 21212593.00 32670136.52  zM 21212593.00 33029920.00 L 20808263.00 33029920.00 L 20808263.00 32929920.00 L 21112593.00 32929920.00 L 21112594.00 32853494.00 L 21158678.00 32844327.00 L 21197747.00 32818223.00 L 21212593.00 32796003.48 L 21212593.00 33029920.00  zM 20708263.00 33029920.00 L 20303933.00 33029920.00 L 20303933.00 32796003.48 L 20318779.00 32818223.00 L 20357848.00 32844327.00 L 20403933.00 32853493.80 L 20403933.00 32929920.00 L 20708263.00 32929920.00 L 20708263.00 33029920.00  zM 20942908.00 33583070.99 L 20842908.00 33583070.99 L 20842908.00 33355905.00 L 21030706.01 33355905.00 L 21030706.01 33455905.00 L 20942908.00 33455905.00 L 20942908.00 33583070.99  zM 20767317.00 33910235.00 L 20291727.00 33910235.00 L 20291727.00 33786009.00 L 19998554.94 33786009.00 L 19990018.00 33806619.00 A 222383.27 222383.27 0 1 1 19848498.00 33464960.00 L 19887346.37 33481051.51 L 20291727.00 33480131.00 L 20291727.00 33355905.00 L 20767317.00 33355905.00 L 20767317.00 33910235.00  zM 21030705.99 33910235.00 L 20842908.00 33910235.00 L 20842908.00 33683070.99 L 20942908.00 33683070.99 L 20942908.00 33810235.00 L 21030705.99 33810235.00 L 21030705.99 33910235.00  zM 21318498.00 33910235.00 L 21130705.99 33910235.00 L 21130705.99 33810235.00 L 21218498.00 33810235.00 L 21218498.00 33687190.00 L 21399225.26 33687190.00 L 21419960.00 33718223.00 A 120431.73 120431.73 0 1 0 21419960.00 33547917.00 L 21399225.26 33578950.00 L 21218498.00 33578950.00 L 21218498.00 33455905.00 L 21130706.01 33455905.00 L 21130706.01 33355905.00 L 21318498.00 33355905.00 L 21318498.00 33480131.00 L 21505113.00 33480131.00 A 152940.51 152940.51 0 0 1 21505113.00 33786009.00 L 21318498.00 33786009.00 L 21318498.00 33910235.00  zM 19001963.00 35867322.00 L 18901963.00 35867322.00 L 18901963.00 35740157.00 L 18755113.00 35740157.00 L 18755113.00 35640157.00 L 19001207.67 35640157.00 L 19001963.00 35641287.48 L 19001963.00 35867322.00  zM 20764308.00 36560951.00 L 20754553.28 36537401.00 L 20652363.00 36537401.00 L 20652363.00 35628741.00 L 20754553.28 35628741.00 L 20764308.00 35605191.00 A 222383.27 222383.27 0 0 1 21134118.00 35605191.00 L 21143872.72 35628741.00 L 21246063.00 35628741.00 L 21246063.00 36537401.00 L 21143872.72 36537401.00 L 21134118.00 36560951.00 A 222383.27 222383.27 0 0 1 20764308.00 36560951.00  z"/>
<path id="N" d="M 14446969.00 33374927.00 L 14496586.00 33341774.00 L 14555113.00 33330132.00 L 14599213.00 33330132.00 L 14599213.00 33210594.07 L 14613759.00 33220313.00 L 14659843.00 33229480.00 L 14699213.00 33221648.54 L 14699213.00 33266536.00 L 15053543.00 33266536.00 L 15053543.00 33159056.00 L 15153543.00 33159056.00 L 15153543.00 33330132.00 L 15386615.00 33330132.00 L 15386615.00 33225591.00 L 15940945.00 33225591.00 L 15940945.00 33330132.00 L 16408263.00 33330132.00 L 16408263.00 33028740.00 L 16510453.69 33028740.00 L 16520208.00 33005191.00 L 16581564.00 32943835.00 L 16600454.63 32936010.25 L 16590508.97 32886010.00 L 16283914.61 32886010.00 L 16274016.00 32887979.00 L 15940945.00 32887979.00 L 15940945.00 32992520.00 L 15386615.00 32992520.00 L 15386615.00 32887979.00 L 15153543.00 32887979.00 L 15153543.00 33059056.00 L 15053543.00 33059056.00 L 15053543.00 32951576.00 L 14699213.00 32951576.00 L 14699213.00 32996463.46 L 14659843.00 32988632.00 L 14613759.00 32997799.00 L 14587137.75 33015586.02 L 14553018.60 33001453.40 L 13963258.00 33591214.00 L 13913641.00 33624367.00 L 13855114.00 33636009.00 L 12235822.00 33636009.00 L 12235822.00 33780131.00 L 14041765.00 33780131.00 L 14446969.00 33374927.00  z"/>
<path id="N" d="M 11929131.29 37519557.29 m -210738.62 0 a 210738.62 210738.62 0 1 1 421477.24 0a 210738.62 210738.62 0 1 1 -421477.24 0M 11929131.38 37519549.09 m -140500.91 0 a 140500.91 140500.91 0 1 1 281001.82 0a 140500.91 140500.91 0 1 1 -281001.82 0"/>
<path id="N" d="M 16372121.00 37232125.00 L 15998105.00 37232125.00 L 15998105.00 37378950.00 L 15461000.74 37378950.00 L 15440266.00 37347917.00 A 120431.73 120431.73 0 0 0 15269960.00 37347917.00 L 15249225.26 37378950.00 L 14712121.00 37378950.00 L 14712121.00 37232125.00 L 14338105.00 37232125.00 L 14338105.00 37606141.00 L 14712121.00 37606141.00 L 14712121.00 37487190.00 L 15249225.26 37487190.00 L 15269960.00 37518223.00 A 120431.73 120431.73 0 0 0 15440266.00 37518223.00 L 15461000.74 37487190.00 L 15998105.00 37487190.00 L 15998105.00 37606141.00 L 16372121.00 37606141.00 L 16372121.00 37232125.00  z"/>
<path id="N" d="M 21069636.80 36437401.00 L 21146063.00 36437401.00 L 21146063.00 35728741.00 L 21069637.00 35728740.00 A 120431.73 120431.73 0 1 0 20828789.20 35728741.00 L 20752363.00 35728741.00 L 20752363.00 36437401.00 L 20828789.00 36437402.00 A 120431.73 120431.73 0 1 0 21069636.80 36437401.00  z"/>
<path id="N" d="M 12792666.16 38004481.16 m -120412.98 0 a 120412.98 120412.98 0 1 1 240825.96 0a 120412.98 120412.98 0 1 1 -240825.96 0"/>
<path id="N" d="M 14017576.16 39229391.16 m -120412.98 0 a 120412.98 120412.98 0 1 1 240825.96 0a 120412.98 120412.98 0 1 1 -240825.96 0"/>
<path id="N" d="M 13405121.16 39483078.16 m -120412.98 0 a 120412.98 120412.98 0 1 1 240825.96 0a 120412.98 120412.98 0 1 1 -240825.96 0"/>
<path id="N" d="M 14017576.16 38004481.16 m -120412.98 0 a 120412.98 120412.98 0 1 1 240825.96 0a 120412.98 120412.98 0 1 1 -240825.96 0"/>
<path id="N" d="M 12538979.16 38616936.16 m -120412.98 0 a 120412.98 120412.98 0 1 1 240825.96 0a 120412.98 120412.98 0 1 1 -240825.96 0"/>
<path id="N" d="M 13405121.16 37750794.16 m -120412.98 0 a 120412.98 120412.98 0 1 1 240825.96 0a 120412.98 120412.98 0 1 1 -240825.96 0"/>
<path id="N" d="M 14271263.16 38616936.16 m -120412.98 0 a 120412.98 120412.98 0 1 1 240825.96 0a 120412.98 120412.98 0 1 1 -240825.96 0"/>
<path id="N" d="M 13405121.16 33083078.16 m -120412.98 0 a 120412.98 120412.98 0 1 1 240825.96 0a 120412.98 120412.98 0 1 1 -240825.96 0"/>
<path id="N" d="M 14017576.16 32829391.16 m -120412.98 0 a 120412.98 120412.98 0 1 1 240825.96 0a 120412.98 120412.98 0 1 1 -240825.96 0"/>
<path id="N" d="M 12792666.16 32829391.16 m -120412.98 0 a 120412.98 120412.98 0 1 1 240825.96 0a 120412.98 120412.98 0 1 1 -240825.96 0"/>
<path id="N" d="M 14271263.16 32216936.16 m -120412.98 0 a 120412.98 120412.98 0 1 1 240825.96 0a 120412.98 120412.98 0 1 1 -240825.96 0"/>
<path id="N" d="M 12792666.16 31604481.16 m -120412.98 0 a 120412.98 120412.98 0 1 1 240825.96 0a 120412.98 120412.98 0 1 1 -240825.96 0"/>
<path id="N" d="M 12792666.16 39229391.16 m -120412.98 0 a 120412.98 120412.98 0 1 1 240825.96 0a 120412.98 120412.98 0 1 1 -240825.96 0"/>
<path id="N" d="M 14017576.16 31604481.16 m -120412.98 0 a 120412.98 120412.98 0 1 1 240825.96 0a 120412.98 120412.98 0 1 1 -240825.96 0"/>
<path id="N" d="M 13405121.16 31350794.16 m -120412.98 0 a 120412.98 120412.98 0 1 1 240825.96 0a 120412.98 120412.98 0 1 1 -240825.96 0"/>
<path id="N" d="M 12538979.16 32216936.16 m -120412.98 0 a 120412.98 120412.98 0 1 1 240825.96 0a 120412.98 120412.98 0 1 1 -240825.96 0"/>
<path id="N" d="M 10667136.00 37009650.00 L 10672412.65 36983123.00 L 12313117.00 36983124.00 L 12351386.00 36967272.00 L 12557452.07 36761205.00 L 13121649.00 36761205.00 L 13121649.00 36864565.00 L 13475979.00 36864565.00 L 13475979.00 36609553.31 L 13478166.92 36604271.03 L 13710637.06 36371800.00 L 13777948.00 36371800.00 L 13777948.00 36395274.00 L 14132278.00 36395274.00 L 14132278.00 36246221.53 L 14224353.08 36154146.00 L 14299690.72 36154146.00 L 14316597.00 36179449.00 L 14347991.00 36200425.00 L 14385022.00 36207791.00 L 14709078.00 36207791.00 L 14746109.00 36200425.00 L 14777503.00 36179449.00 L 14779713.25 36176141.00 L 14843700.00 36176141.00 L 15024615.00 36357056.00 L 15024615.00 36735905.00 L 14940940.00 36735905.00 L 14940940.00 37090235.00 L 15216530.00 37090235.00 L 15216530.00 36735905.00 L 15132855.00 36735905.00 L 15132856.00 36334638.00 L 15117004.00 36296369.00 L 14904387.00 36083752.00 L 14866115.59 36067901.00 L 14794408.61 36067901.00 L 14777503.00 36042599.00 L 14746109.00 36021623.00 L 14709078.00 36014257.00 L 14385022.00 36014257.00 L 14347991.00 36021623.00 L 14316597.00 36042599.00 L 14314387.42 36045906.00 L 14201936.00 36045906.00 L 14163666.29 36061758.71 L 14105740.71 36119684.00 L 13777948.00 36119684.00 L 13777948.00 36263560.00 L 13688220.00 36263560.00 L 13649950.29 36279412.71 L 13387711.00 36541651.00 L 13384416.25 36549605.00 L 13121649.00 36549605.00 L 13121649.00 36652965.00 L 12535035.00 36652965.00 L 12496765.29 36668817.71 L 12290699.07 36874883.00 L 10672412.65 36874883.00 L 10667136.00 36848356.00 A 210738.62 210738.62 0 1 0 10667136.00 37009650.00  zM 10472438.38 36928997.09 m -140500.91 0 a 140500.91 140500.91 0 1 1 281001.82 0a 140500.91 140500.91 0 1 1 -281001.82 0"/>
<path id="N" d="M 18923070.00 37065113.00 L 18923070.00 36352115.00 L 18901963.00 36331008.30 L 18901963.00 36271653.00 L 18508263.00 36271653.00 L 18508263.00 36352348.00 L 18506926.00 36353685.00 L 18506926.00 37084883.00 L 18555111.00 37133068.00 L 18855112.00 37133070.00 L 18923070.00 37065113.00  z"/>
<path id="N" d="M 13475979.00 35909238.00 L 14307039.07 35909238.00 L 14316597.00 35923543.00 L 14347991.00 35944519.00 L 14385022.00 35951885.00 L 14709078.00 35951885.00 L 14746109.00 35944519.00 L 14777503.00 35923543.00 L 14794408.61 35898241.00 L 14844063.00 35898242.00 L 14882332.00 35882390.00 L 15117791.00 35646931.00 L 15133642.00 35608662.00 L 15133642.00 35210235.00 L 15217317.00 35210235.00 L 15217317.00 34855905.00 L 14941727.00 34855905.00 L 14941727.00 35210235.00 L 15025402.00 35210235.00 L 15025402.00 35586244.93 L 14821645.07 35790001.00 L 14779713.25 35790001.00 L 14777503.00 35786693.00 L 14746109.00 35765717.00 L 14709078.00 35758351.00 L 14385022.00 35758351.00 L 14347991.00 35765717.00 L 14316597.00 35786693.00 L 14307039.07 35800998.00 L 14132278.00 35800998.00 L 14132278.00 35620866.00 L 13777948.00 35620866.00 L 13777948.00 35800998.00 L 13121649.00 35801574.00 L 13121649.00 35878950.00 L 12811000.74 35878950.00 L 12790266.00 35847917.00 A 120431.73 120431.73 0 1 0 12790266.00 36018223.00 L 12811000.74 35987190.00 L 13121649.00 35987190.00 L 13121649.00 36116534.00 L 13475979.00 36116534.00 L 13475979.00 35909238.00  z"/>
<path id="N" d="M 12135822.00 38493964.00 L 11722436.00 38493964.00 L 11722436.00 38907350.00 L 12135822.00 38907350.00 L 12135822.00 38493964.00  zM 11929131.38 38700651.09 m -140500.91 0 a 140500.91 140500.91 0 1 1 281001.82 0a 140500.91 140500.91 0 1 1 -281001.82 0"/>
<path id="N" d="M 20667317.00 33455905.00 L 20391727.00 33455905.00 L 20391727.00 33578950.00 L 19891974.00 33578949.00 L 19873395.44 33586644.92 L 19851197.00 33571813.00 A 120419.38 120419.38 0 1 0 19924717.45 33687190.00 L 20391727.00 33687190.00 L 20391727.00 33810235.00 L 20667317.00 33810235.00 L 20667317.00 33455905.00  z"/>
</g>
</svg>
