<svg width="45.00000144mm" height="20.00000064mm" viewBox="0 0 17716536 7874016"  version="1.1" xmlns="http://www.w3.org/2000/svg" xmlns:xlink="http://www.w3.org/1999/xlink">
<desc>
Origin 7874016 35433071 Bound 7874016 31496063 17716536 7874016
</desc>
<g fill-rule="evenodd" fill="rgb(255, 255, 0)" stroke="black" stroke-width="1" transform="translate(0, 7874016) scale(1, -1) translate(-7874016, -31496063)">
<path id="N" d="M 17140640.00 34634443.00 L 17166880.00 34624931.00 L 17182624.00 34613123.00 L 17193776.00 34598691.00 L 17203616.00 34575731.00 A 65001.25 65001.25 0 0 0 17194104.00 34520955.00 L 17181640.00 34509147.00 L 17161304.00 34497667.00 L 17177048.00 34490451.00 L 17197712.00 34475363.00 A 83247.72 83247.72 0 0 0 17213456.00 34392379.00 A 83623.09 83623.09 0 0 0 17166552.00 34339571.00 L 17141952.00 34331043.00 L 17118664.00 34328747.00 L 17087176.00 34333339.00 L 17063232.00 34342851.00 L 17044864.00 34356299.00 L 17030104.00 34377947.00 L 17021576.00 34400251.00 L 17018952.00 34424195.00 L 17025184.00 34454371.00 L 17034040.00 34470771.00 L 17050768.00 34485859.00 L 17075368.00 34497995.00 L 17063560.00 34503899.00 L 17046832.00 34516035.00 L 17038632.00 34527843.00 L 17031416.00 34551459.00 L 17032400.00 34570811.00 L 17040928.00 34596723.00 L 17055688.00 34615747.00 L 17075696.00 34628211.00 L 17103576.00 34636411.00 L 17140640.00 34634443.00  zM 17080616.00 34590819.00 L 17071432.00 34573763.00 L 17069136.00 34558675.00 L 17074712.00 34536699.00 L 17083240.00 34524891.00 L 17103576.00 34514067.00 L 17120632.00 34512099.00 L 17142608.00 34517675.00 L 17154744.00 34526203.00 L 17163600.00 34539323.00 L 17167864.00 34558675.00 L 17166224.00 34570483.00 L 17158352.00 34587211.00 L 17148184.00 34597379.00 A 54681.84 54681.84 0 0 1 17080616.00 34590819.00  zM 17095376.00 34477331.00 L 17080944.00 34470115.00 A 63826.60 63826.60 0 0 1 17081272.00 34370403.00 L 17096360.00 34363187.00 L 17118664.00 34359251.00 L 17141296.00 34363515.00 L 17156056.00 34370731.00 L 17168520.00 34383195.00 A 62826.50 62826.50 0 0 1 17095376.00 34477331.00  z"/>
<path id="N" d="M 18820406.00 32161919.00 L 18845416.00 32153719.00 L 18863456.00 32143879.00 L 18887646.00 32123379.00 L 18898716.00 32106979.00 L 18909786.00 32077869.00 L 18913476.00 32054499.00 L 18865506.00 32051219.00 L 18857306.00 32079509.00 L 18846646.00 32097139.00 L 18838036.00 32105339.00 L 18822456.00 32113949.00 L 18795396.00 32121329.00 L 18769156.00 32122969.00 L 18737176.00 32118869.00 L 18716266.00 32111899.00 L 18706426.00 32105339.00 L 18696996.00 32094679.00 L 18687566.00 32074589.00 L 18687566.00 32059009.00 L 18692896.00 32043429.00 L 18701096.00 32032769.00 L 18708886.00 32027849.00 L 18738816.00 32015549.00 L 18837626.00 31989719.00 L 18868376.00 31977419.00 L 18894616.00 31958969.00 L 18908966.00 31942979.00 L 18920036.00 31919609.00 L 18924956.00 31889269.00 L 18920856.00 31862209.00 L 18910606.00 31837609.00 L 18894616.00 31817519.00 L 18869196.00 31797429.00 L 18845416.00 31786769.00 L 18813436.00 31778979.00 L 18780226.00 31776519.00 L 18726926.00 31782669.00 L 18698226.00 31791279.00 L 18678956.00 31802349.00 L 18652306.00 31825309.00 L 18644516.00 31835969.00 L 18636316.00 31851549.00 L 18627706.00 31877789.00 L 18624016.00 31904439.00 L 18671166.00 31908539.00 L 18676496.00 31884349.00 L 18686746.00 31860569.00 L 18701096.00 31846219.00 L 18724466.00 31832279.00 L 18749886.00 31824899.00 L 18782686.00 31821209.00 L 18807286.00 31823259.00 L 18833526.00 31829819.00 L 18856076.00 31842939.00 A 56787.85 56787.85 0 0 1 18869606.00 31911409.00 L 18857716.00 31924119.00 L 18830246.00 31939289.00 L 18764236.00 31956919.00 L 18712166.00 31972499.00 L 18687566.00 31983159.00 L 18663376.00 32001199.00 L 18650256.00 32017599.00 L 18640416.00 32044659.00 L 18638366.00 32065979.00 L 18644926.00 32097549.00 L 18654356.00 32116409.00 L 18666656.00 32130759.00 L 18690846.00 32149209.00 L 18717906.00 32159869.00 L 18757266.00 32167249.00 L 18820406.00 32161919.00  z"/>
<path id="N" d="M 17070406.00 32811919.00 L 17095416.00 32803719.00 L 17113456.00 32793879.00 L 17137646.00 32773379.00 L 17148716.00 32756979.00 L 17159786.00 32727869.00 L 17163476.00 32704499.00 L 17115506.00 32701219.00 L 17107306.00 32729509.00 L 17096646.00 32747139.00 L 17088036.00 32755339.00 L 17072456.00 32763949.00 L 17045396.00 32771329.00 L 17019156.00 32772969.00 L 16987176.00 32768869.00 L 16966266.00 32761899.00 L 16956426.00 32755339.00 L 16946996.00 32744679.00 L 16937566.00 32724589.00 L 16937566.00 32709009.00 L 16942896.00 32693429.00 L 16951096.00 32682769.00 L 16958886.00 32677849.00 L 16988816.00 32665549.00 L 17087626.00 32639719.00 L 17118376.00 32627419.00 L 17144616.00 32608969.00 L 17158966.00 32592979.00 L 17170036.00 32569609.00 L 17174956.00 32539269.00 L 17170856.00 32512209.00 L 17160606.00 32487609.00 L 17144616.00 32467519.00 L 17119196.00 32447429.00 L 17095416.00 32436769.00 L 17063436.00 32428979.00 L 17030226.00 32426519.00 L 16976926.00 32432669.00 L 16948226.00 32441279.00 L 16928956.00 32452349.00 L 16902306.00 32475309.00 L 16894516.00 32485969.00 L 16886316.00 32501549.00 L 16877706.00 32527789.00 L 16874016.00 32554439.00 L 16921166.00 32558539.00 L 16926496.00 32534349.00 L 16936746.00 32510569.00 L 16951096.00 32496219.00 L 16974466.00 32482279.00 L 16999886.00 32474899.00 L 17032686.00 32471209.00 L 17057286.00 32473259.00 L 17083526.00 32479819.00 L 17106076.00 32492939.00 A 56787.85 56787.85 0 0 1 17119606.00 32561409.00 L 17107716.00 32574119.00 L 17080246.00 32589289.00 L 17014236.00 32606919.00 L 16962166.00 32622499.00 L 16937566.00 32633159.00 L 16913376.00 32651199.00 L 16900256.00 32667599.00 L 16890416.00 32694659.00 L 16888366.00 32715979.00 L 16894926.00 32747549.00 L 16904356.00 32766409.00 L 16916656.00 32780759.00 L 16940846.00 32799209.00 L 16967906.00 32809869.00 L 17007266.00 32817249.00 L 17070406.00 32811919.00  z"/>
<path id="N" d="M 18599434.98 34225791.99 L 18644698.98 34218904.00 L 18667002.98 34211032.00 L 18694882.98 34193648.00 L 18711282.98 34176264.00 L 18721122.98 34156584.00 L 18727682.98 34131000.00 L 18728010.98 34112960.00 L 18721778.98 34084424.00 L 18712266.99 34065072.00 L 18697506.99 34051296.00 L 18676842.99 34040144.00 L 18653226.99 34034240.00 L 18651258.99 34070320.00 L 18652570.99 34070320.00 L 18676186.99 34078848.00 L 18688322.98 34089344.00 L 18696194.98 34106400.00 L 18697834.98 34119848.00 L 18695866.98 34134608.00 L 18689962.98 34150352.00 L 18673890.98 34167736.00 L 18654866.98 34177904.00 L 18622722.98 34187088.00 L 18581394.98 34190367.99 L 18595826.98 34177903.99 A 81365.21 81365.21 0 0 0 18617474.98 34095904.00 L 18606322.99 34069991.99 L 18592546.99 34053591.99 A 107569.21 107569.21 0 0 0 18495458.99 34031943.99 L 18471514.99 34040143.99 L 18453474.99 34050967.99 L 18439042.99 34066383.99 L 18426250.98 34089671.99 A 95729.32 95729.32 0 0 0 18426578.98 34158551.99 L 18436418.98 34178231.99 L 18453802.98 34197255.99 L 18475778.98 34212015.99 L 18497426.98 34219887.99 L 18537442.98 34226119.99 L 18599434.98 34225791.99  zM 18508906.98 34185119.99 L 18485290.98 34178887.99 L 18473154.98 34171999.99 L 18460034.98 34157567.99 L 18452162.98 34140839.99 L 18450522.98 34125751.99 L 18455442.98 34106399.99 L 18467250.98 34088359.99 L 18481682.99 34077535.99 L 18501690.99 34069663.99 A 75429.42 75429.42 0 0 1 18566634.99 34080815.99 L 18575818.98 34090655.99 A 60352.10 60352.10 0 0 1 18573194.98 34166095.99 L 18562698.98 34174623.99 L 18541378.98 34183479.99 L 18508906.98 34185119.99  z"/>
<path id="N" d="M 17855011.00 33886494.00 L 17896339.00 33878622.00 L 17926843.00 33867470.00 L 17943899.00 33856318.00 L 17957675.00 33841230.00 L 17970139.00 33819254.00 L 17976699.00 33797278.00 L 17978011.00 33774318.00 L 17971779.01 33745454.00 L 17961611.01 33726102.00 L 17949803.01 33713966.00 L 17926187.01 33700190.00 L 17902899.01 33693958.00 L 17900275.01 33731022.00 L 17903555.01 33732006.00 L 17927499.01 33741846.00 L 17937011.01 33751030.00 L 17945211.00 33767430.00 L 17947835.00 33782518.00 L 17945211.00 33798262.00 L 17937667.00 33814334.00 L 17922907.00 33828438.00 L 17897651.00 33842542.00 L 17866819.00 33849430.00 L 17831080.67 33852040.34 L 17847139.00 33838278.00 L 17860915.00 33819254.00 L 17867803.00 33800886.00 L 17871083.00 33776942.00 L 17866163.01 33752014.00 A 83018.67 83018.67 0 0 0 17819587.01 33699862.00 L 17795643.01 33691334.00 L 17771699.01 33689038.00 L 17738571.01 33694286.00 L 17717579.01 33702814.00 L 17693963.01 33720854.00 L 17681827.01 33736270.00 L 17673627.01 33756606.00 L 17669691.00 33786126.00 L 17675923.00 33816958.00 L 17688059.00 33842214.00 L 17704131.00 33860254.00 L 17724139.00 33871734.00 L 17755299.00 33882230.00 L 17788755.00 33887806.00 L 17855011.00 33886494.00  zM 17760875.00 33845494.00 L 17735619.00 33838606.00 L 17721843.00 33829422.00 L 17709051.00 33815318.00 L 17703147.00 33801870.00 L 17700195.00 33784814.00 L 17704787.00 33764478.00 L 17715611.01 33747422.00 L 17726763.01 33738894.00 A 83206.01 83206.01 0 0 1 17812699.01 33738238.00 L 17825819.01 33750374.00 L 17835331.00 33768742.00 L 17838283.00 33786126.00 L 17835987.00 33800886.00 L 17826147.00 33822206.00 L 17814995.00 33833030.00 L 17792363.00 33843854.00 L 17760875.00 33845494.00  z"/>
<path id="N" d="M 20436376.00 35084935.00 A 82880.62 82880.62 0 0 0 20492464.00 35047215.00 L 20499680.00 35030159.00 L 20503288.00 35008511.00 L 20500664.00 34991455.00 L 20492136.00 34972431.00 L 20480328.00 34959639.00 L 20461304.00 34947503.00 L 20467864.00 34945535.00 L 20490168.00 34934055.00 L 20503288.00 34921263.00 L 20510504.00 34908143.00 L 20517392.00 34883543.00 L 20517720.00 34866487.00 L 20510832.00 34839263.00 L 20498368.00 34816631.00 L 20483608.00 34801543.00 A 111782.57 111782.57 0 0 0 20354704.00 34797935.00 A 102638.15 102638.15 0 0 0 20319936.00 34863863.00 L 20357000.00 34868783.00 L 20358312.00 34863535.00 L 20368480.00 34835983.00 L 20378976.00 34822535.00 L 20388816.00 34816303.00 L 20408168.00 34810071.00 L 20425552.00 34810399.00 A 61724.79 61724.79 0 1 1 20393080.00 34927167.00 L 20397672.00 34959639.00 L 20399312.00 34959311.00 L 20417352.00 34960623.00 L 20438672.00 34967183.00 L 20452120.00 34976695.00 L 20462288.00 34992767.00 L 20464912.00 35004903.00 L 20463600.00 35021631.00 L 20455728.00 35038359.00 L 20445560.00 35047871.00 A 52653.23 52653.23 0 0 1 20368152.00 35027535.00 L 20360608.00 35002607.00 L 20323544.00 35009495.00 L 20329776.00 35030159.00 L 20342568.00 35053775.00 L 20357000.00 35068863.00 A 99444.92 99444.92 0 0 0 20436376.00 35084935.00  z"/>
<path id="N" d="M 12942444.00 35032803.00 A 82880.62 82880.62 0 0 0 12998532.00 34995083.00 L 13005748.00 34978027.00 L 13009356.00 34956379.00 L 13006732.00 34939323.00 L 12998204.00 34920299.00 L 12986396.00 34907507.00 L 12967372.00 34895371.00 L 12973932.00 34893403.00 L 12996236.00 34881923.00 L 13009356.00 34869131.00 L 13016572.00 34856011.00 L 13023460.00 34831411.00 L 13023788.00 34814355.00 L 13016900.00 34787131.00 L 13004436.00 34764499.00 L 12989676.00 34749411.00 A 111782.57 111782.57 0 0 0 12860772.00 34745803.00 A 102638.15 102638.15 0 0 0 12826004.00 34811731.00 L 12863068.00 34816651.00 L 12864380.00 34811403.00 L 12874548.00 34783851.00 L 12885044.00 34770403.00 L 12894884.00 34764171.00 L 12914236.00 34757939.00 L 12931620.00 34758267.00 A 61724.79 61724.79 0 1 1 12899148.00 34875035.00 L 12903740.00 34907507.00 L 12905380.00 34907179.00 L 12923420.00 34908491.00 L 12944740.00 34915051.00 L 12958188.00 34924563.00 L 12968356.00 34940635.00 L 12970980.00 34952771.00 L 12969668.00 34969499.00 L 12961796.00 34986227.00 L 12951628.00 34995739.00 A 52653.23 52653.23 0 0 1 12874220.00 34975403.00 L 12866676.00 34950475.00 L 12829612.00 34957363.00 L 12835844.00 34978027.00 L 12848636.00 35001643.00 L 12863068.00 35016731.00 A 99444.92 99444.92 0 0 0 12942444.00 35032803.00  z"/>
<path id="N" d="M 14136704.00 36984935.00 A 82880.62 82880.62 0 0 0 14192792.00 36947215.00 L 14200008.00 36930159.00 L 14203616.00 36908511.00 L 14200992.00 36891455.00 L 14192464.00 36872431.00 L 14180656.00 36859639.00 L 14161632.00 36847503.00 L 14168192.00 36845535.00 L 14190496.00 36834055.00 L 14203616.00 36821263.00 L 14210832.00 36808143.00 L 14217720.00 36783543.00 L 14218048.00 36766487.00 L 14211160.00 36739263.00 L 14198696.00 36716631.00 L 14183936.00 36701543.00 A 111782.57 111782.57 0 0 0 14055032.00 36697935.00 A 102638.15 102638.15 0 0 0 14020264.00 36763863.00 L 14057328.00 36768783.00 L 14058640.00 36763535.00 L 14068808.00 36735983.00 L 14079304.00 36722535.00 L 14089144.00 36716303.00 L 14108496.00 36710071.00 L 14125880.00 36710399.00 A 61724.79 61724.79 0 1 1 14093408.00 36827167.00 L 14098000.00 36859639.00 L 14099640.00 36859311.00 L 14117680.00 36860623.00 L 14139000.00 36867183.00 L 14152448.00 36876695.00 L 14162616.00 36892767.00 L 14165240.00 36904903.00 L 14163928.00 36921631.00 L 14156056.00 36938359.00 L 14145888.00 36947871.00 A 52653.23 52653.23 0 0 1 14068480.00 36927535.00 L 14060936.00 36902607.00 L 14023872.00 36909495.00 L 14030104.00 36930159.00 L 14042896.00 36953775.00 L 14057328.00 36968863.00 A 99444.92 99444.92 0 0 0 14136704.00 36984935.00  z"/>
<path id="N" d="M 23121494.98 35891001.99 L 23155934.98 35882392.00 L 23182584.99 35871322.00 L 23208004.99 35854922.00 L 23230554.99 35834012.00 L 23251464.99 35805312.00 L 23264584.99 35771692.00 L 23273194.99 35731922.00 L 23274014.99 35713882.00 L 23271964.99 35688872.00 L 23263354.99 35651152.00 L 23248185.00 35617942.00 L 23230145.00 35594572.00 L 23201035.00 35568332.00 L 23177665.00 35553982.00 L 23155935.00 35545782.00 L 23119445.00 35536351.99 L 23082545.00 35533071.99 L 23030065.00 35539221.99 L 22993985.00 35549471.99 L 22957905.00 35566691.99 L 22935765.00 35583911.99 L 22914445.00 35610561.98 L 22895174.99 35648281.98 L 22885334.99 35685591.98 L 22882874.99 35714291.98 L 22886154.99 35745451.98 L 22896404.99 35784401.98 L 22909114.99 35810641.98 L 22930844.99 35837701.99 L 22954624.99 35858611.99 L 22982504.99 35875011.99 L 23022274.98 35888131.99 L 23058764.98 35894281.99 L 23121494.98 35891001.99  zM 23067374.99 35843031.99 L 23025554.99 35836881.99 L 22998084.99 35827451.99 L 22986604.99 35820891.99 L 22961594.99 35801621.99 L 22945194.99 35781941.99 L 22932074.99 35752421.99 L 22925924.99 35721261.99 L 22927154.99 35700761.99 L 22934944.99 35668781.99 L 22945605.00 35645821.99 L 22963235.00 35622451.99 L 22978815.00 35610971.99 L 23008745.00 35596621.99 L 23041545.00 35588421.99 L 23085415.00 35584731.99 L 23115755.00 35587601.99 L 23149785.00 35596621.99 L 23176435.00 35609332.00 L 23192835.00 35621632.00 L 23211695.00 35646642.00 L 23225224.99 35675752.00 L 23230964.99 35703222.00 L 23230144.99 35727822.00 L 23221944.99 35761032.00 L 23205134.99 35792192.00 L 23191604.99 35806952.00 L 23175614.99 35818432.00 L 23146914.99 35831961.99 L 23116574.99 35840161.99 L 23067374.99 35843031.99  z"/>
<path id="N" d="M 20461815.93 32161919.04 L 20490515.94 32152899.05 L 20523315.94 32133219.05 L 20539305.94 32117229.06 L 20554475.95 32091809.06 L 20568005.95 32055319.06 L 20522495.95 32043019.05 L 20516755.95 32059419.05 L 20500765.95 32088939.05 L 20486825.94 32102059.05 L 20460995.94 32116409.04 L 20433525.94 32123379.04 L 20401135.94 32124609.03 L 20363825.94 32118049.02 L 20345375.94 32110259.02 L 20319545.95 32092629.02 L 20301095.95 32070079.01 L 20290025.95 32048759.01 L 20280185.96 32015139.01 L 20275675.97 31972499.01 L 20277725.97 31943389.01 L 20287155.98 31901569.01 L 20293715.98 31886399.01 L 20312985.99 31860979.02 L 20331435.99 31844579.02 L 20356035.99 31832279.02 L 20387195.99 31823669.03 L 20414255.99 31821209.03 L 20443775.99 31824079.04 L 20477395.99 31833509.04 L 20502815.99 31845809.05 L 20524545.99 31860159.05 L 20524545.97 31931089.05 L 20413435.97 31931089.03 L 20413435.97 31975779.03 L 20573745.97 31975779.06 L 20573335.99 31834739.06 L 20570055.99 31832279.06 L 20526186.00 31804399.05 L 20497076.00 31791279.05 L 20460586.00 31781029.04 L 20417126.00 31776519.03 L 20390476.00 31778569.03 L 20350706.00 31786769.02 L 20315446.00 31800709.02 L 20295355.99 31813829.01 L 20267475.99 31839249.01 L 20246565.98 31869589.00 L 20235495.98 31898699.00 L 20226065.97 31940109.00 L 20224015.97 31970859.00 L 20226065.96 31996689.00 L 20233855.96 32036869.00 L 20247385.95 32073359.00 L 20263785.94 32100009.01 L 20290845.94 32129119.01 L 20313395.94 32144699.02 L 20348655.93 32158229.02 L 20392525.93 32166839.03 L 20461815.93 32161919.04  z"/>
<path id="N" d="M 19197606.00 32162329.00 L 19229586.00 32152079.00 L 19254186.00 32137319.00 A 165719.83 165719.83 0 0 0 19306666.00 32057369.00 L 19257466.00 32046299.00 L 19242296.00 32078689.00 L 19227946.00 32098369.00 L 19211956.00 32110669.00 L 19182026.00 32122149.00 L 19163166.00 32125019.00 L 19140616.00 32123789.00 L 19106586.00 32115999.00 L 19088546.00 32107389.00 L 19072966.00 32095089.00 L 19053286.00 32071309.00 L 19041396.00 32045889.00 L 19031966.00 32002019.00 L 19030736.00 31962659.00 L 19036066.00 31918789.00 A 125774.90 125774.90 0 0 1 19077476.00 31844169.00 L 19093056.00 31833919.00 L 19127496.00 31822029.00 L 19152096.00 31819159.00 L 19176696.00 31822029.00 L 19200066.00 31829409.00 L 19223436.00 31843349.00 L 19236146.00 31857289.00 L 19252546.00 31883939.00 L 19263206.00 31915509.00 L 19313226.00 31901979.00 L 19303386.00 31874919.00 L 19282476.00 31836789.00 L 19263616.00 31815059.00 L 19245166.00 31801119.00 L 19214006.00 31786769.00 L 19187356.00 31779389.00 L 19156196.00 31776519.00 L 19120936.00 31779799.00 L 19079936.00 31789639.00 L 19056156.00 31801529.00 L 19034836.00 31819569.00 L 19011056.00 31849089.00 L 18997936.00 31873689.00 L 18990556.00 31897059.00 L 18981946.00 31936009.00 L 18978666.00 31975369.00 L 18982766.00 32017599.00 L 18990966.00 32052039.00 L 19001626.00 32078279.00 L 19017616.00 32102879.00 L 19043856.00 32129939.00 L 19065586.00 32145109.00 L 19098796.00 32158229.00 L 19138566.00 32166839.00 L 19197606.00 32162329.00  z"/>
<path id="N" d="M 20598236.00 38706581.00 L 20617916.00 38692641.00 L 20636366.00 38670911.00 L 20648666.00 38647131.00 L 20659736.00 38614331.00 L 20665476.00 38578661.00 L 20668346.00 38514701.00 L 20662606.00 38452381.00 A 168390.48 168390.48 0 0 0 20623246.00 38364231.00 L 20606026.00 38350291.00 L 20579376.00 38338401.00 L 20552726.00 38333481.00 L 20531406.00 38334301.00 L 20500246.00 38342501.00 L 20478926.00 38353981.00 L 20458836.00 38372431.00 L 20450636.00 38386371.00 L 20437106.00 38419171.00 L 20427676.00 38456891.00 L 20422346.00 38506501.00 L 20423576.00 38564311.00 L 20430956.00 38617201.00 L 20437106.00 38637701.00 L 20451456.00 38667221.00 L 20467036.00 38687721.00 L 20481386.00 38700021.00 A 117849.62 117849.62 0 0 0 20598236.00 38706581.00  zM 20533456.00 38679111.00 L 20513776.00 38671731.00 L 20496966.00 38658201.00 L 20487946.00 38642211.00 L 20479336.00 38615971.00 L 20471546.00 38572101.00 L 20469906.00 38510601.00 L 20474826.00 38454431.00 L 20480976.00 38424501.00 L 20491226.00 38401541.00 L 20505986.00 38386371.00 L 20523206.00 38376121.00 L 20539196.00 38371611.00 L 20556416.00 38372841.00 A 70401.68 70401.68 0 0 1 20603976.00 38411791.00 L 20613816.00 38445821.00 L 20618736.00 38479851.00 L 20620376.00 38540941.00 L 20615456.00 38597111.00 L 20606026.00 38635651.00 L 20598646.00 38649591.00 L 20583886.00 38665171.00 L 20561746.00 38677471.00 L 20533456.00 38679111.00  z"/>
<path id="N" d="M 12687588.00 35037723.00 L 12718092.00 35029851.00 L 12743020.00 35016403.00 L 12760076.00 34999675.00 L 12774180.00 34979339.00 L 12786316.00 34951459.00 L 12746956.00 34942275.00 L 12734820.00 34968515.00 L 12719732.00 34987539.00 L 12702348.00 34998035.00 L 12676764.00 35004923.00 L 12649540.00 35004267.00 L 12621332.00 34996395.00 L 12603292.00 34985571.00 L 12583612.00 34962611.00 L 12574428.00 34943587.00 L 12568852.00 34921611.00 L 12565244.00 34883891.00 L 12569836.00 34840595.00 L 12579676.00 34810747.00 L 12595748.00 34787787.00 L 12612148.00 34774339.00 L 12634124.00 34765483.00 A 93925.88 93925.88 0 0 1 12705956.00 34771387.00 L 12723668.00 34783851.00 L 12740396.00 34807467.00 L 12751548.00 34837971.00 L 12791564.00 34827147.00 L 12787628.00 34815667.00 L 12771228.00 34781227.00 L 12751876.00 34757611.00 L 12737116.00 34746459.00 L 12712188.00 34734979.00 L 12682996.00 34727763.00 L 12657740.00 34727107.00 L 12618380.00 34733339.00 L 12592140.00 34742851.00 L 12575740.00 34754659.00 A 148091.53 148091.53 0 0 0 12527524.00 34847155.00 A 200681.46 200681.46 0 0 0 12536052.00 34954083.00 L 12547204.00 34976715.00 L 12566556.00 35000659.00 L 12587220.00 35017715.00 L 12614772.00 35030507.00 L 12651836.00 35039035.00 L 12687588.00 35037723.00  z"/>
<path id="N" d="M 18463558.99 37337664.00 L 18488158.99 37321920.00 L 18507182.99 37302240.00 L 18519974.99 37277640.00 L 18528174.99 37250416.00 L 18530470.99 37220896.00 L 18525551.00 37184488.00 L 18517351.00 37157920.00 L 18504887.00 37138240.00 A 140968.12 140968.12 0 0 0 18428791.00 37091336.00 L 18387791.00 37084119.99 L 18354991.00 37084447.99 L 18316943.00 37091007.99 L 18289063.00 37101831.99 L 18265447.00 37118231.99 L 18243471.00 37140863.99 L 18231663.00 37161527.99 L 18220510.99 37197935.99 L 18217558.99 37226143.99 L 18219526.99 37247135.99 L 18227398.99 37277639.99 L 18240846.99 37302567.99 L 18257574.99 37319623.99 L 18277910.99 37333727.99 L 18305790.99 37345863.99 L 18314974.99 37306503.99 L 18288734.99 37294367.99 L 18269710.99 37279279.99 L 18259214.99 37261895.99 L 18252326.99 37236311.99 L 18252982.99 37209087.99 L 18260855.00 37180879.99 L 18271679.00 37162839.99 L 18294639.00 37143159.99 L 18313663.00 37133975.99 L 18335639.00 37128399.99 L 18373359.00 37124791.99 L 18416655.00 37129384.00 L 18446503.00 37139224.00 L 18469463.00 37155296.00 L 18482911.00 37171696.00 L 18491767.00 37193672.00 A 93925.88 93925.88 0 0 1 18485862.99 37265504.00 L 18473398.99 37283216.00 L 18449782.99 37299944.00 L 18419278.99 37311096.00 L 18430102.99 37351112.00 L 18463558.99 37337664.00  z"/>
<path id="N" d="M 16036440.00 38137559.00 L 16066944.00 38129687.00 L 16091872.00 38116239.00 L 16108928.00 38099511.00 L 16123032.00 38079175.00 L 16135168.00 38051295.00 L 16095808.00 38042111.00 L 16083672.00 38068351.00 L 16068584.00 38087375.00 L 16051200.00 38097871.00 L 16025616.00 38104759.00 L 15998392.00 38104103.00 L 15970184.00 38096231.00 L 15952144.00 38085407.00 L 15932464.00 38062447.00 L 15923280.00 38043423.00 L 15917704.00 38021447.00 L 15914096.00 37983727.00 L 15918688.00 37940431.00 L 15928528.00 37910583.00 L 15944600.00 37887623.00 L 15961000.00 37874175.00 L 15982976.00 37865319.00 A 93925.88 93925.88 0 0 1 16054808.00 37871223.00 L 16072520.00 37883687.00 L 16089248.00 37907303.00 L 16100400.00 37937807.00 L 16140416.00 37926983.00 L 16136480.00 37915503.00 L 16120080.00 37881063.00 L 16100728.00 37857447.00 L 16085968.00 37846295.00 L 16061040.00 37834815.00 L 16031848.00 37827599.00 L 16006592.00 37826943.00 L 15967232.00 37833175.00 L 15940992.00 37842687.00 L 15924592.00 37854495.00 A 148091.53 148091.53 0 0 0 15876376.00 37946991.00 A 200681.46 200681.46 0 0 0 15884904.00 38053919.00 L 15896056.00 38076551.00 L 15915408.00 38100495.00 L 15936072.00 38117551.00 L 15963624.00 38130343.00 L 16000688.00 38138871.00 L 16036440.00 38137559.00  z"/>
<path id="N" d="M 19668498.00 35804934.99 L 19709498.00 35797719.00 L 19740658.00 35786567.00 L 19763946.00 35771807.00 L 19785594.00 35750815.00 L 19798058.00 35731135.00 L 19806258.00 35704567.00 L 19811178.01 35668159.00 L 19808882.01 35638639.00 L 19800682.01 35611415.00 L 19787890.01 35586815.00 L 19768866.01 35567135.00 L 19744266.01 35551391.00 L 19710154.01 35537943.00 L 19699986.01 35577959.00 L 19725242.01 35586487.00 L 19749514.01 35601903.00 L 19760994.01 35614367.00 L 19770834.01 35633391.00 L 19776738.01 35661271.00 L 19774770.01 35686527.00 L 19764274.00 35716047.00 L 19750170.00 35733759.00 L 19727210.00 35749831.00 L 19697362.00 35759671.00 L 19666202.00 35763606.99 L 19630778.00 35762950.99 L 19599290.00 35756390.99 L 19575346.00 35745894.99 L 19554026.00 35727854.99 L 19541562.00 35708174.99 L 19533690.01 35679966.99 L 19533034.01 35652742.99 L 19539922.01 35627158.99 L 19550418.01 35609774.99 L 19569442.01 35594686.99 L 19595682.01 35582550.99 L 19586498.01 35543190.99 L 19571738.01 35548766.99 L 19547466.01 35562214.99 L 19523850.01 35583534.99 L 19510730.01 35604854.99 L 19502530.01 35630438.99 L 19498266.01 35662910.99 L 19501218.01 35691118.99 L 19510730.00 35723590.99 L 19524178.00 35748190.99 L 19541562.00 35767214.99 L 19568458.00 35786566.99 L 19597650.00 35798046.99 L 19635698.00 35804606.99 L 19668498.00 35804934.99  z"/>
<path id="N" d="M 20692420.00 37036575.00 L 20724892.00 37027063.00 L 20749492.00 37013615.00 L 20768516.00 36996231.00 L 20787868.00 36969335.00 L 20799348.00 36940143.00 L 20805908.00 36902095.00 L 20806236.00 36869295.00 L 20799020.00 36828295.00 L 20787868.00 36797135.00 L 20773108.00 36773847.00 L 20752116.00 36752199.00 L 20732436.00 36739735.00 L 20705868.00 36731535.00 L 20669460.00 36726615.00 L 20639940.00 36728911.00 L 20612716.00 36737111.00 L 20588116.00 36749903.00 L 20568436.00 36768927.00 L 20552692.00 36793527.00 L 20539244.00 36827639.00 L 20579260.00 36837807.00 L 20587788.00 36812551.00 L 20603204.00 36788279.00 L 20615668.00 36776799.00 L 20634692.00 36766959.00 L 20662572.00 36761055.00 L 20687828.00 36763023.00 L 20717348.00 36773519.00 L 20735060.00 36787623.00 L 20751132.00 36810583.00 L 20760972.00 36840431.00 L 20764908.00 36871591.00 L 20764252.00 36907015.00 L 20757692.00 36938503.00 L 20747196.00 36962447.00 L 20729156.00 36983767.00 L 20709476.00 36996231.00 L 20681268.00 37004103.00 L 20654044.00 37004759.00 L 20628460.00 36997871.00 L 20611076.00 36987375.00 L 20595988.00 36968351.00 L 20583852.00 36942111.00 L 20544492.00 36951295.00 L 20547116.00 36958839.00 L 20559908.00 36985079.00 L 20574340.00 37003447.00 L 20593692.00 37020503.00 L 20619276.00 37031983.00 L 20652732.00 37038871.00 L 20692420.00 37036575.00  z"/>
<path id="N" d="M 19161570.97 37292232.00 L 19203882.97 37285016.00 L 19228810.97 37274848.00 L 19253410.97 37258120.00 L 19266202.97 37241720.00 A 91022.34 91022.34 0 0 0 19272762.97 37165296.00 L 19261610.98 37142664.00 L 19245538.98 37125608.00 L 19217658.98 37112160.00 L 19179282.98 37101664.00 L 19139594.98 37097399.99 L 19086458.98 37099039.99 L 19044146.98 37105927.99 L 19019218.98 37116095.99 L 18994618.98 37133151.99 L 18984778.97 37144631.99 L 18973626.97 37168247.99 L 18970018.97 37189567.99 L 18971002.97 37209903.99 L 18976250.97 37230895.99 L 18983466.97 37244671.99 L 19001506.97 37264023.99 L 19020530.97 37275503.99 L 19053002.97 37287311.99 L 19094002.97 37293215.99 L 19161570.97 37292232.00  zM 19067106.97 37251887.99 L 19036274.97 37244343.99 L 19022826.97 37236799.99 L 19008394.97 37220399.99 L 19001506.97 37204327.99 L 19001178.97 37188911.99 A 52550.84 52550.84 0 0 1 19039554.97 37146271.99 L 19076946.98 37138071.99 L 19124506.98 37135119.99 L 19164522.98 37137416.00 L 19205194.97 37144304.00 L 19224546.97 37153160.00 L 19235698.97 37164312.00 L 19245538.97 37182024.00 L 19247834.97 37196456.00 L 19244882.97 37210560.00 L 19237338.97 37224336.00 L 19223234.97 37238440.00 L 19206834.97 37245656.00 L 19171082.97 37253528.00 L 19120898.97 37256151.99 L 19067106.97 37251887.99  z"/>
<path id="N" d="M 20008246.00 38668451.00 L 19856956.00 38668451.00 L 19837276.00 38567181.00 L 19858596.00 38578661.00 L 19887706.00 38588501.00 L 19908206.00 38590551.00 L 19936906.00 38586451.00 L 19963966.00 38576201.00 A 104029.79 104029.79 0 0 0 20014806.00 38519211.00 L 20022596.00 38495841.00 L 20025876.00 38465091.00 L 20020546.00 38430651.00 L 20009886.00 38401131.00 L 19995536.00 38378581.00 L 19975856.00 38360131.00 A 134255.65 134255.65 0 0 0 19853266.00 38340041.00 L 19825386.00 38352341.00 L 19809396.00 38364641.00 L 19792176.00 38387191.00 L 19780286.00 38413431.00 L 19775366.00 38438441.00 L 19824156.00 38441721.00 L 19832356.00 38413431.00 L 19842196.00 38396211.00 L 19852446.00 38385961.00 L 19877456.00 38374071.00 L 19896726.00 38371201.00 L 19916406.00 38374481.00 L 19934856.00 38381861.00 L 19953306.00 38396211.00 L 19965196.00 38414251.00 L 19974626.00 38441721.00 L 19976676.00 38463861.00 L 19973806.00 38486411.00 L 19964786.00 38511831.00 L 19953306.00 38527001.00 L 19938546.00 38538071.00 A 83459.45 83459.45 0 0 1 19827026.00 38512241.00 L 19783566.00 38518391.00 L 19820056.00 38712731.00 L 20008246.00 38712731.00 L 20008246.00 38668451.00  z"/>
<path id="N" d="M 16361160.00 38094919.00 L 16240128.00 38094919.00 L 16224056.00 38013575.00 L 16237504.00 38021447.00 L 16264728.00 38030959.00 L 16287688.00 38032271.00 L 16314584.00 38026039.00 L 16336888.00 38014231.00 L 16354272.00 37997503.00 L 16369032.00 37969951.00 L 16373952.00 37949615.00 L 16374608.00 37923703.00 L 16367392.00 37892871.00 L 16355584.00 37868927.00 L 16343120.00 37854823.00 L 16319176.00 37838095.00 A 101719.40 101719.40 0 0 0 16242752.00 37830551.00 L 16220448.00 37839079.00 L 16203392.00 37850559.00 L 16193552.00 37862039.00 L 16181088.00 37884999.00 L 16174856.00 37910911.00 L 16213888.00 37913863.00 L 16220448.00 37890903.00 L 16230944.00 37874175.00 A 61085.91 61085.91 0 0 1 16328360.00 37895167.00 L 16335248.00 37919111.00 L 16334920.00 37942071.00 L 16328360.00 37965687.00 L 16321144.00 37977495.00 A 64833.67 64833.67 0 0 1 16216184.00 37969951.00 L 16181416.00 37974871.00 L 16210608.00 38130343.00 L 16361160.00 38130343.00 L 16361160.00 38094919.00  z"/>
<path id="N" d="M 15157431.00 34499266.00 L 15134471.00 34492706.00 L 15117743.00 34482210.00 A 61085.91 61085.91 0 0 1 15138735.01 34384794.00 L 15162679.01 34377906.00 L 15185639.01 34378234.00 L 15209255.01 34384794.00 L 15221063.01 34392010.00 A 64833.67 64833.67 0 0 1 15213519.00 34496970.00 L 15218439.00 34531738.00 L 15373911.00 34502546.00 L 15373911.01 34351994.00 L 15338487.01 34351994.00 L 15338487.00 34473026.00 L 15257143.00 34489098.00 L 15265015.00 34475650.00 L 15274527.00 34448426.00 L 15275839.00 34425466.00 L 15269607.01 34398570.00 L 15257799.01 34376266.00 L 15241071.01 34358882.00 L 15213519.01 34344122.00 L 15193183.01 34339202.00 L 15167271.01 34338546.00 L 15136439.01 34345762.00 L 15112495.01 34357570.00 L 15098391.01 34370034.00 L 15081663.01 34393978.00 A 101719.40 101719.40 0 0 0 15074119.00 34470402.00 L 15082647.00 34492706.00 L 15094127.00 34509762.00 L 15105607.00 34519602.00 L 15128567.00 34532066.00 L 15154479.00 34538298.00 L 15157431.00 34499266.00  z"/>
<path id="N" d="M 18574014.95 38955652.00 L 18493654.95 38904812.00 L 18442404.95 38868731.99 L 18425184.96 38852741.99 L 18414114.96 38837161.99 L 18407144.96 38817481.99 L 18405914.96 38735481.99 L 18574014.96 38735482.00 L 18574014.96 38685462.00 L 18195584.96 38685461.98 L 18196404.95 38875701.98 L 18202554.95 38919161.98 L 18210344.95 38939251.98 L 18225514.95 38958931.98 L 18241914.95 38972051.99 L 18267334.95 38983121.99 L 18299314.95 38988041.99 L 18322684.95 38984761.99 L 18350564.95 38974101.99 L 18366964.95 38961801.99 L 18378854.95 38946631.99 L 18393204.95 38916701.99 L 18402224.95 38881851.99 L 18410834.95 38897431.99 L 18424364.95 38915061.99 L 18460444.95 38945402.00 L 18574014.95 39018382.00 L 18574014.95 38955652.00  zM 18268974.95 38928181.99 L 18254214.95 38915881.99 L 18244374.95 38897431.99 L 18238224.95 38869961.99 L 18237404.96 38735481.99 L 18362454.96 38735481.99 L 18362454.96 38848641.99 L 18359584.95 38880211.99 L 18354254.95 38899891.99 L 18343184.95 38917111.99 L 18332114.95 38926541.99 L 18317764.95 38933101.99 L 18292344.95 38935971.99 L 18268974.95 38928181.99  z"/>
<path id="N" d="M 21875222.99 34225220.00 L 21867678.99 34225548.00 L 21846686.99 34230796.00 L 21817166.99 34247852.00 L 21796830.99 34266220.00 L 21745990.98 34324275.99 L 21704662.98 34365931.99 L 21685638.98 34378395.99 L 21663334.98 34386595.99 L 21649886.98 34386923.99 L 21630534.98 34380363.99 L 21618070.98 34370851.99 L 21607902.98 34353795.99 L 21602982.98 34334115.99 L 21604950.98 34314107.99 L 21613806.98 34292787.99 L 21625942.99 34281307.99 L 21644966.99 34272779.99 L 21663662.99 34270155.99 L 21659070.99 34232107.99 L 21630534.99 34238995.99 L 21608886.99 34249491.99 L 21594782.99 34261627.99 L 21583302.99 34279995.99 A 117191.29 117191.29 0 0 0 21588550.98 34389547.99 L 21600686.98 34403651.99 L 21621678.98 34417099.99 L 21643654.98 34424315.99 L 21663006.98 34424971.99 L 21692526.98 34417755.99 L 21715158.98 34403979.99 L 21739758.98 34382659.99 L 21815854.98 34297052.00 L 21840126.99 34276388.00 L 21840126.98 34425628.00 L 21875878.98 34425628.00 L 21875222.99 34225220.00  z"/>
<path id="N" d="M 20420180.00 37034279.00 L 20450684.00 37026079.00 L 20472332.00 37013615.00 L 20485780.00 36998527.00 L 20496276.00 36976879.00 L 20503164.00 36947687.00 L 20465116.00 36943751.00 L 20464788.00 36948999.00 L 20459868.00 36970319.00 L 20449044.00 36988031.00 L 20435268.00 36997543.00 L 20415260.00 37003447.00 L 20396564.00 37003775.00 L 20375244.00 36996887.00 L 20361140.00 36986063.00 L 20351956.00 36970647.00 L 20348020.00 36954247.00 L 20350644.00 36936207.00 L 20360156.00 36915871.00 L 20373604.00 36897831.00 L 20416244.00 36857159.00 L 20472004.00 36807631.00 L 20492340.00 36783031.00 L 20507428.00 36752527.00 L 20510052.00 36731535.00 L 20309644.00 36731535.00 L 20309644.00 36767287.00 L 20458884.00 36767287.00 L 20444452.00 36785327.00 L 20368684.00 36852567.00 L 20336212.00 36885695.00 L 20318828.00 36912263.00 L 20311940.00 36934239.00 L 20310300.00 36957527.00 L 20313908.00 36975567.00 L 20325060.00 36998199.00 L 20340476.00 37015255.00 L 20362780.00 37027391.00 L 20393940.00 37034607.00 L 20420180.00 37034279.00  z"/>
<path id="N" d="M 16307532.00 34981491.00 L 16330492.00 34970995.00 L 16344596.00 34958859.00 L 16358044.00 34937867.00 L 16365260.00 34915891.00 L 16365916.00 34896539.00 L 16358700.00 34867019.00 L 16344924.00 34844387.00 L 16323604.00 34819787.00 L 16237996.00 34743691.00 L 16217332.00 34719419.00 L 16366572.00 34719419.00 L 16366572.00 34683667.00 L 16166164.00 34684323.00 L 16166492.00 34691867.00 L 16171740.00 34712859.00 L 16188796.00 34742379.00 L 16207164.00 34762715.00 L 16265220.00 34813555.00 L 16306876.00 34854883.00 L 16319340.00 34873907.00 L 16327540.00 34896211.00 L 16327868.00 34909659.00 L 16321308.00 34929011.00 L 16311796.00 34941475.00 L 16294740.00 34951643.00 L 16275060.00 34956563.00 L 16255052.00 34954595.00 L 16233732.00 34945739.00 L 16222252.00 34933603.00 L 16213724.00 34914579.00 L 16211100.00 34895883.00 L 16173052.00 34900475.00 L 16179940.00 34929011.00 L 16190436.00 34950659.00 L 16202572.00 34964763.00 L 16225532.00 34978211.00 L 16256036.00 34986411.00 L 16307532.00 34981491.00  z"/>
<path id="N" d="M 12271124.00 37881491.00 L 12294084.00 37870995.00 L 12308188.00 37858859.00 L 12321636.00 37837867.00 L 12328852.00 37815891.00 L 12329508.00 37796539.00 L 12322292.00 37767019.00 L 12308516.00 37744387.00 L 12287196.00 37719787.00 L 12201588.00 37643691.00 L 12180924.00 37619419.00 L 12330164.00 37619419.00 L 12330164.00 37583667.00 L 12129756.00 37584323.00 L 12130084.00 37591867.00 L 12135332.00 37612859.00 L 12152388.00 37642379.00 L 12170756.00 37662715.00 L 12228812.00 37713555.00 L 12270468.00 37754883.00 L 12282932.00 37773907.00 L 12291132.00 37796211.00 L 12291460.00 37809659.00 L 12284900.00 37829011.00 L 12275388.00 37841475.00 L 12258332.00 37851643.00 L 12238652.00 37856563.00 L 12218644.00 37854595.00 L 12197324.00 37845739.00 L 12185844.00 37833603.00 L 12177316.00 37814579.00 L 12174692.00 37795883.00 L 12136644.00 37800475.00 L 12143532.00 37829011.00 L 12154028.00 37850659.00 L 12166164.00 37864763.00 L 12189124.00 37878211.00 L 12219628.00 37886411.00 L 12271124.00 37881491.00  z"/>
<path id="N" d="M 16057860.00 32279031.00 L 16080820.00 32268535.00 L 16094924.00 32256399.00 L 16108372.00 32235407.00 L 16115588.00 32213431.00 L 16116244.00 32194079.00 L 16109028.00 32164559.00 L 16095252.00 32141927.00 L 16073932.00 32117327.00 L 15988324.00 32041231.00 L 15967660.00 32016959.00 L 16116900.00 32016959.00 L 16116900.00 31981207.00 L 15916492.00 31981863.00 L 15916820.00 31989407.00 L 15922068.00 32010399.00 L 15939124.00 32039919.00 L 15957492.00 32060255.00 L 16015548.00 32111095.00 L 16057204.00 32152423.00 L 16069668.00 32171447.00 L 16077868.00 32193751.00 L 16078196.00 32207199.00 L 16071636.00 32226551.00 L 16062124.00 32239015.00 L 16045068.00 32249183.00 L 16025388.00 32254103.00 L 16005380.00 32252135.00 L 15984060.00 32243279.00 L 15972580.00 32231143.00 L 15964052.00 32212119.00 L 15961428.00 32193423.00 L 15923380.00 32198015.00 L 15930268.00 32226551.00 L 15940764.00 32248199.00 L 15952900.00 32262303.00 L 15975860.00 32275751.00 L 16006364.00 32283951.00 L 16057860.00 32279031.00  z"/>
<path id="N" d="M 15375386.99 37305684.00 L 15312410.99 37265668.00 L 15268458.99 37234836.00 L 15250418.99 37216139.99 L 15241891.00 37195147.99 L 15240907.00 37129547.99 L 15375387.00 37129548.00 L 15375387.00 37089532.00 L 15072643.00 37089531.99 L 15072970.99 37237459.99 L 15078218.99 37276491.99 L 15084450.99 37292563.99 L 15096586.99 37308307.99 L 15111674.99 37320115.99 L 15137586.99 37329627.99 L 15158578.99 37331595.99 L 15182850.99 37326347.99 L 15201218.99 37317491.99 L 15214994.99 37304371.99 L 15228442.99 37280427.99 L 15237954.99 37246643.99 L 15250090.99 37266979.99 L 15276658.99 37291580.00 L 15375386.99 37355868.00 L 15375386.99 37305684.00  zM 15150050.99 37289939.99 L 15131354.99 37283707.99 L 15119874.99 37274195.99 L 15112986.99 37262387.99 L 15106754.99 37237131.99 L 15106099.00 37129547.99 L 15206139.00 37129547.99 L 15206138.99 37220075.99 L 15204826.99 37238115.99 L 15199578.99 37261075.99 L 15186786.99 37278787.99 L 15170386.99 37287643.99 L 15150050.99 37289939.99  z"/>
<path id="N" d="M 18723418.99 33954864.00 L 18660442.99 33914848.00 L 18616490.99 33884016.00 L 18598450.99 33865319.99 L 18589923.00 33844327.99 L 18588939.00 33778727.99 L 18723419.00 33778728.00 L 18723419.00 33738712.00 L 18420675.00 33738711.99 L 18421002.99 33886639.99 L 18426250.99 33925671.99 L 18432482.99 33941743.99 L 18444618.99 33957487.99 L 18459706.99 33969295.99 L 18485618.99 33978807.99 L 18506610.99 33980775.99 L 18530882.99 33975527.99 L 18549250.99 33966671.99 L 18563026.99 33953551.99 L 18576474.99 33929607.99 L 18585986.99 33895823.99 L 18598122.99 33916159.99 L 18624690.99 33940760.00 L 18723418.99 34005048.00 L 18723418.99 33954864.00  zM 18498082.99 33939119.99 L 18479386.99 33932887.99 L 18467906.99 33923375.99 L 18461018.99 33911567.99 L 18454786.99 33886311.99 L 18454131.00 33778727.99 L 18554171.00 33778727.99 L 18554170.99 33869255.99 L 18552858.99 33887295.99 L 18547610.99 33910255.99 L 18534818.99 33927967.99 L 18518418.99 33936823.99 L 18498082.99 33939119.99  z"/>
<path id="N" d="M 16877584.00 34636083.00 L 16916616.00 34630835.00 L 16932688.00 34624603.00 L 16948432.00 34612467.00 L 16960240.00 34597379.00 L 16969752.00 34571467.00 L 16971720.00 34550475.00 L 16966472.00 34526203.00 L 16957616.00 34507835.00 L 16944496.00 34494059.00 L 16920552.00 34480611.00 L 16886768.00 34471099.00 L 16907104.00 34458963.00 L 16931704.00 34432395.00 L 16995992.00 34333667.00 L 16945808.00 34333667.00 L 16905792.00 34396643.00 L 16874960.00 34440595.00 L 16856264.00 34458635.00 L 16835272.00 34467163.00 L 16769672.00 34468147.00 L 16769672.00 34333667.00 L 16729656.00 34333667.00 L 16729656.00 34636411.00 L 16877584.00 34636083.00  zM 16769672.00 34602955.00 L 16769672.00 34502915.00 L 16871352.00 34503571.00 L 16899232.00 34508819.00 L 16911040.00 34515379.00 L 16922520.00 34527187.00 L 16929080.00 34543259.00 L 16930064.00 34559003.00 L 16923832.00 34577699.00 L 16914320.00 34589179.00 L 16902512.00 34596067.00 L 16877256.00 34602299.00 L 16769672.00 34602955.00  z"/>
<path id="N" d="M 21206375.93 32158639.17 L 21235075.94 32152899.18 L 21263775.94 32141009.18 L 21282225.94 32128299.19 A 172680.48 172680.48 0 0 0 21330605.95 32052859.19 L 21339625.96 32008989.20 L 21342085.97 31973319.20 L 21339625.97 31936009.20 L 21331835.98 31896649.19 L 21316665.99 31859749.19 L 21300265.99 31834739.19 L 21278535.99 31813009.18 L 21258856.00 31800709.18 L 21226056.00 31788819.18 L 21189566.00 31783489.17 L 21029256.00 31782669.14 L 21029255.93 32161099.14 L 21206375.93 32158639.17  zM 21079275.94 32116409.15 L 21079275.99 31827359.15 L 21166195.99 31827359.16 L 21190795.99 31828999.17 L 21222365.99 31835149.17 L 21247785.99 31849089.18 L 21258855.99 31860979.18 L 21271565.98 31881479.18 L 21281815.98 31906899.18 L 21288785.97 31945029.19 L 21290015.96 31989309.19 L 21282225.96 32038099.19 L 21270745.95 32065569.18 L 21250655.95 32090169.18 L 21233435.94 32103699.18 L 21221135.94 32109439.17 L 21187515.94 32115179.17 L 21079275.94 32116409.15  z"/>
<path id="N" d="M 17420136.00 32808639.00 L 17448836.00 32802899.00 L 17477536.00 32791009.00 L 17495986.00 32778299.00 A 172680.48 172680.48 0 0 0 17544366.00 32702859.00 L 17553386.00 32658989.00 L 17555846.00 32623319.00 L 17553386.00 32586009.00 L 17545596.00 32546649.00 L 17530426.00 32509749.00 L 17514026.00 32484739.00 L 17492296.00 32463009.00 L 17472616.00 32450709.00 L 17439816.00 32438819.00 L 17403326.00 32433489.00 L 17243016.00 32432669.00 L 17243016.00 32811099.00 L 17420136.00 32808639.00  zM 17293036.00 32766409.00 L 17293036.00 32477359.00 L 17379956.00 32477359.00 L 17404556.00 32478999.00 L 17436126.00 32485149.00 L 17461546.00 32499089.00 L 17472616.00 32510979.00 L 17485326.00 32531479.00 L 17495576.00 32556899.00 L 17502546.00 32595029.00 L 17503776.00 32639309.00 L 17495986.00 32688099.00 L 17484506.00 32715569.00 L 17464416.00 32740169.00 L 17447196.00 32753699.00 L 17434896.00 32759439.00 L 17401276.00 32765179.00 L 17293036.00 32766409.00  z"/>
<path id="N" d="M 15089516.00 38833623.00 L 15128548.00 38828375.00 L 15144620.00 38822143.00 L 15160364.00 38810007.00 L 15172172.00 38794919.00 L 15181684.00 38769007.00 L 15183652.00 38748015.00 L 15178404.00 38723743.00 L 15169548.00 38705375.00 L 15156428.00 38691599.00 L 15132484.00 38678151.00 L 15098700.00 38668639.00 L 15119036.00 38656503.00 L 15143636.00 38629935.00 L 15207924.00 38531207.00 L 15157740.00 38531207.00 L 15117724.00 38594183.00 L 15086892.00 38638135.00 L 15068196.00 38656175.00 L 15047204.00 38664703.00 L 14981604.00 38665687.00 L 14981604.00 38531207.00 L 14941588.00 38531207.00 L 14941588.00 38833951.00 L 15089516.00 38833623.00  zM 14981604.00 38800495.00 L 14981604.00 38700455.00 L 15083284.00 38701111.00 L 15111164.00 38706359.00 L 15122972.00 38712919.00 L 15134452.00 38724727.00 L 15141012.00 38740799.00 L 15141996.00 38756543.00 L 15135764.00 38775239.00 L 15126252.00 38786719.00 L 15114444.00 38793607.00 L 15089188.00 38799839.00 L 14981604.00 38800495.00  z"/>
<path id="N" d="M 15377519.00 34680322.00 L 15372271.00 34641290.00 L 15366039.00 34625218.00 L 15353903.00 34609474.00 L 15338815.00 34597666.00 L 15312903.00 34588154.00 L 15291911.00 34586186.00 L 15267639.00 34591434.00 L 15249271.00 34600290.00 L 15235495.00 34613410.00 L 15222047.00 34637354.00 L 15212535.00 34671138.00 L 15200399.00 34650802.00 L 15173831.00 34626202.00 L 15075103.00 34561914.00 L 15075103.00 34612098.00 L 15138079.00 34652114.00 L 15182031.00 34682946.00 L 15200071.00 34701642.00 L 15208599.00 34722634.00 L 15209583.00 34788234.00 L 15075103.00 34788234.00 L 15075103.00 34828250.00 L 15377847.00 34828250.00 L 15377519.00 34680322.00  zM 15344391.00 34788234.00 L 15244351.00 34788234.00 L 15245007.00 34686554.00 L 15250255.00 34658674.00 L 15256815.00 34646866.00 L 15268623.00 34635386.00 L 15284695.00 34628826.00 L 15300439.00 34627842.00 L 15319135.00 34634074.00 L 15330615.00 34643586.00 L 15338815.00 34658674.00 L 15344391.00 34686226.00 L 15344391.00 34788234.00  z"/>
<path id="N" d="M 20177912.00 35086247.00 L 20216944.00 35080999.00 L 20233016.00 35074767.00 L 20248760.00 35062631.00 L 20260568.00 35047543.00 L 20270080.00 35021631.00 L 20272048.00 35000639.00 L 20266800.00 34976367.00 L 20257944.00 34957999.00 L 20244824.00 34944223.00 L 20220880.00 34930775.00 L 20187096.00 34921263.00 L 20207432.00 34909127.00 L 20232032.00 34882559.00 L 20296320.00 34783831.00 L 20246136.00 34783831.00 L 20206120.00 34846807.00 L 20175288.00 34890759.00 L 20156592.00 34908799.00 L 20135600.00 34917327.00 L 20070000.00 34918311.00 L 20070000.00 34783831.00 L 20029984.00 34783831.00 L 20029984.00 35086575.00 L 20177912.00 35086247.00  zM 20070000.00 35053119.00 L 20070000.00 34953079.00 L 20171680.00 34953735.00 L 20199560.00 34958983.00 L 20211368.00 34965543.00 L 20222848.00 34977351.00 L 20229408.00 34993423.00 L 20230392.00 35009167.00 L 20224160.00 35027863.00 L 20214648.00 35039343.00 L 20202840.00 35046231.00 L 20177584.00 35052463.00 L 20070000.00 35053119.00  z"/>
<path id="N" d="M 19273418.99 36788096.00 L 19210442.99 36748080.00 L 19166490.99 36717248.00 L 19148450.99 36698551.99 L 19139923.00 36677559.99 L 19138939.00 36611959.99 L 19273419.00 36611960.00 L 19273419.00 36571944.00 L 18970675.00 36571943.99 L 18971002.99 36719871.99 L 18976250.99 36758903.99 L 18982482.99 36774975.99 L 18994618.99 36790719.99 L 19009706.99 36802527.99 L 19035618.99 36812039.99 L 19056610.99 36814007.99 L 19080882.99 36808759.99 L 19099250.99 36799903.99 L 19113026.99 36786783.99 L 19126474.99 36762839.99 L 19135986.99 36729055.99 L 19148122.99 36749391.99 L 19174690.99 36773992.00 L 19273418.99 36838280.00 L 19273418.99 36788096.00  zM 19048082.99 36772351.99 L 19029386.99 36766119.99 L 19017906.99 36756607.99 L 19011018.99 36744799.99 L 19004786.99 36719543.99 L 19004131.00 36611959.99 L 19104171.00 36611959.99 L 19104170.99 36702487.99 L 19102858.99 36720527.99 L 19097610.99 36743487.99 L 19084818.99 36761199.99 L 19068418.99 36770055.99 L 19048082.99 36772351.99  z"/>
<path id="N" d="M 17977027.00 34029174.00 L 17971779.00 33990142.00 L 17965547.00 33974070.00 L 17953411.00 33958326.00 L 17938323.00 33946518.00 L 17912411.00 33937006.00 L 17891419.00 33935038.00 L 17867147.00 33940286.00 L 17848779.00 33949142.00 L 17835003.00 33962262.00 L 17821555.00 33986206.00 L 17812043.00 34019990.00 L 17799907.00 33999654.00 L 17773339.00 33975054.00 L 17674611.00 33910766.00 L 17674611.00 33960950.00 L 17737587.00 34000966.00 L 17781539.00 34031798.00 L 17799579.00 34050494.00 L 17808107.00 34071486.00 L 17809091.00 34137086.00 L 17674611.00 34137086.00 L 17674611.00 34177102.00 L 17977355.00 34177102.00 L 17977027.00 34029174.00  zM 17943899.00 34137086.00 L 17843859.00 34137086.00 L 17844515.00 34035406.00 L 17849763.00 34007526.00 L 17856323.00 33995718.00 L 17868131.00 33984238.00 L 17884203.00 33977678.00 L 17899947.00 33976694.00 L 17918643.00 33982926.00 L 17930123.00 33992438.00 L 17938323.00 34007526.00 L 17943899.00 34035078.00 L 17943899.00 34137086.00  z"/>
<path id="N" d="M 20257104.00 34583623.00 L 20296136.00 34578375.00 L 20312208.00 34572143.00 L 20327952.00 34560007.00 L 20339760.00 34544919.00 L 20349272.00 34519007.00 L 20351240.00 34498015.00 L 20345992.00 34473743.00 L 20337136.00 34455375.00 L 20324016.00 34441599.00 L 20300072.00 34428151.00 L 20266288.00 34418639.00 L 20286624.00 34406503.00 L 20311224.00 34379935.00 L 20375512.00 34281207.00 L 20325328.00 34281207.00 L 20285312.00 34344183.00 L 20254480.00 34388135.00 L 20235784.00 34406175.00 L 20214792.00 34414703.00 L 20149192.00 34415687.00 L 20149192.00 34281207.00 L 20109176.00 34281207.00 L 20109176.00 34583951.00 L 20257104.00 34583623.00  zM 20149192.00 34550495.00 L 20149192.00 34450455.00 L 20250872.00 34451111.00 L 20278752.00 34456359.00 L 20290560.00 34462919.00 L 20302040.00 34474727.00 L 20308600.00 34490799.00 L 20309584.00 34506543.00 L 20303352.00 34525239.00 L 20293840.00 34536719.00 L 20282032.00 34543607.00 L 20256776.00 34549839.00 L 20149192.00 34550495.00  z"/>
<path id="N" d="M 21875878.99 34156668.00 L 21812902.99 34116652.00 L 21768950.99 34085820.00 L 21750910.99 34067123.99 L 21742383.00 34046131.99 L 21741399.00 33980531.99 L 21875879.00 33980532.00 L 21875879.00 33940516.00 L 21573135.00 33940515.99 L 21573462.99 34088443.99 L 21578710.99 34127475.99 L 21584942.99 34143547.99 L 21597078.99 34159291.99 L 21612166.99 34171099.99 L 21638078.99 34180611.99 L 21659070.99 34182579.99 L 21683342.99 34177331.99 L 21701710.99 34168475.99 L 21715486.99 34155355.99 L 21728934.99 34131411.99 L 21738446.99 34097627.99 L 21750582.99 34117963.99 L 21777150.99 34142564.00 L 21875878.99 34206852.00 L 21875878.99 34156668.00  zM 21650542.99 34140923.99 L 21631846.99 34134691.99 L 21620366.99 34125179.99 L 21613478.99 34113371.99 L 21607246.99 34088115.99 L 21606591.00 33980531.99 L 21706631.00 33980531.99 L 21706630.99 34071059.99 L 21705318.99 34089099.99 L 21700070.99 34112059.99 L 21687278.99 34129771.99 L 21670878.99 34138627.99 L 21650542.99 34140923.99  z"/>
<path id="N" d="M 23155114.97 36254672.00 L 23192014.97 36247292.00 L 23210464.97 36239092.00 L 23235884.97 36219822.00 L 23253514.97 36197682.00 L 23265404.97 36168572.00 L 23271964.97 36138232.00 L 23273604.98 36096412.00 L 23266224.98 36050492.00 L 23255154.98 36020972.00 L 23235064.98 35995962.00 L 23215384.98 35980792.00 L 23202674.98 35974642.00 L 23171514.98 35966032.00 L 23129284.98 35961111.99 L 22889434.98 35960291.98 L 22889434.98 36010311.98 L 23108374.98 36010311.99 L 23135434.98 36011541.99 L 23170694.98 36016462.00 A 72741.64 72741.64 0 0 1 23216614.98 36050492.00 L 23221534.98 36062382.00 L 23228504.98 36093952.00 L 23228504.97 36114452.00 L 23222764.97 36148892.00 L 23215384.97 36168162.00 L 23203904.97 36184152.00 L 23192424.97 36191532.00 L 23169464.97 36200552.00 L 23132564.97 36207111.99 L 22889434.97 36207931.98 L 22889434.97 36257951.98 L 23155114.97 36254672.00  z"/>
<path id="N" d="M 18333754.99 38118431.99 L 18359994.99 38109001.99 L 18380494.99 38096701.99 L 18392384.99 38085221.99 L 18406734.99 38058571.99 L 18414934.99 38031511.99 L 18419854.99 37994611.99 L 18420265.00 37883091.99 L 18574015.00 37883092.00 L 18574015.00 37833072.00 L 18195585.00 37833071.98 L 18195584.99 37988871.98 L 18197224.99 38015931.98 L 18201324.99 38042991.98 L 18212804.99 38072511.98 L 18222644.99 38086451.98 L 18245194.99 38105721.99 L 18268974.99 38116381.99 L 18295214.99 38121711.99 L 18333754.99 38118431.99  zM 18302594.99 38070461.99 L 18279634.99 38065131.99 L 18263234.99 38056111.99 L 18249704.99 38039711.99 L 18243964.99 38026181.99 L 18241094.99 38005681.99 L 18240275.00 37883091.99 L 18375575.00 37883091.99 L 18374754.99 37997071.99 L 18367784.99 38030691.99 L 18360814.99 38045861.99 L 18350154.99 38056521.99 L 18328424.99 38067181.99 L 18302594.99 38070461.99  z"/>
<path id="N" d="M 15751180.00 32283623.00 L 15790540.00 32279031.00 L 15818748.00 32267879.00 L 15839412.00 32252135.00 L 15858764.00 32227207.00 L 15871228.00 32200311.00 L 15879428.00 32162263.00 L 15881068.00 32121591.00 L 15875820.00 32083215.00 L 15867620.00 32057303.00 L 15852532.00 32028439.00 L 15835804.00 32009743.00 L 15814812.00 31995639.00 L 15788244.00 31986127.00 L 15759380.00 31981863.00 L 15631132.00 31981207.00 L 15631132.00 32283951.00 L 15751180.00 32283623.00  zM 15671148.00 32248199.00 L 15671148.00 32016959.00 L 15746260.00 32017287.00 L 15782996.00 32022207.00 L 15801364.00 32031063.00 L 15814812.00 32043855.00 L 15828588.00 32067799.00 L 15836132.00 32092727.00 L 15840068.00 32135367.00 L 15836132.00 32173415.00 L 15829572.00 32197031.00 L 15820060.00 32213759.00 L 15801692.00 32232783.00 L 15784636.00 32242623.00 L 15757740.00 32247215.00 L 15671148.00 32248199.00  z"/>
<path id="N" d="M 12028896.00 35033623.00 L 12068256.00 35029031.00 L 12096464.00 35017879.00 L 12117128.00 35002135.00 L 12136480.00 34977207.00 L 12148944.00 34950311.00 L 12157144.00 34912263.00 L 12158784.00 34871591.00 L 12153536.00 34833215.00 L 12145336.00 34807303.00 L 12130248.00 34778439.00 L 12113520.00 34759743.00 L 12092528.00 34745639.00 L 12065960.00 34736127.00 L 12037096.00 34731863.00 L 11908848.00 34731207.00 L 11908848.00 35033951.00 L 12028896.00 35033623.00  zM 11948864.00 34998199.00 L 11948864.00 34766959.00 L 12023976.00 34767287.00 L 12060712.00 34772207.00 L 12079080.00 34781063.00 L 12092528.00 34793855.00 L 12106304.00 34817799.00 L 12113848.00 34842727.00 L 12117784.00 34885367.00 L 12113848.00 34923415.00 L 12107288.00 34947031.00 L 12097776.00 34963759.00 L 12079408.00 34982783.00 L 12062352.00 34992623.00 L 12035456.00 34997215.00 L 11948864.00 34998199.00  z"/>
<path id="N" d="M 13849704.00 36986247.00 L 13889064.00 36981655.00 L 13917272.00 36970503.00 L 13937936.00 36954759.00 L 13957288.00 36929831.00 L 13969752.00 36902935.00 L 13977952.00 36864887.00 L 13979592.00 36824215.00 L 13974344.00 36785839.00 L 13966144.00 36759927.00 L 13951056.00 36731063.00 L 13934328.00 36712367.00 L 13913336.00 36698263.00 L 13886768.00 36688751.00 L 13857904.00 36684487.00 L 13729656.00 36683831.00 L 13729656.00 36986575.00 L 13849704.00 36986247.00  zM 13769672.00 36950823.00 L 13769672.00 36719583.00 L 13844784.00 36719911.00 L 13881520.00 36724831.00 L 13899888.00 36733687.00 L 13913336.00 36746479.00 L 13927112.00 36770423.00 L 13934656.00 36795351.00 L 13938592.00 36837991.00 L 13934656.00 36876039.00 L 13928096.00 36899655.00 L 13918584.00 36916383.00 L 13900216.00 36935407.00 L 13883160.00 36945247.00 L 13856264.00 36949839.00 L 13769672.00 36950823.00  z"/>
<path id="N" d="M 16119588.00 34810931.00 L 16115324.00 34761731.00 A 91476.99 91476.99 0 0 0 16060876.00 34690227.00 L 16030700.00 34681371.00 L 15996916.00 34678747.00 L 15953620.00 34684979.00 L 15931316.00 34693179.00 L 15909996.00 34709907.00 L 15897860.00 34725651.00 L 15889332.00 34746971.00 L 15882444.00 34786659.00 L 15881460.00 34986411.00 L 15921476.00 34986411.00 L 15921476.00 34811259.00 L 15923116.00 34780099.00 L 15928692.00 34753203.00 L 15942140.00 34733523.00 L 15958540.00 34722371.00 L 15988388.00 34715155.00 L 16008396.00 34715483.00 L 16037588.00 34721387.00 L 16056612.00 34731227.00 L 16064812.00 34741067.00 L 16073668.00 34762387.00 L 16078916.00 34791907.00 L 16079572.00 34986411.00 L 16119588.00 34986411.00 L 16119588.00 34810931.00  z"/>
<path id="N" d="M 12084492.00 37679771.00 L 12080556.00 37639099.00 L 12073996.00 37619091.00 L 12058908.00 37599083.00 L 12045460.00 37589571.00 L 12025780.00 37582027.00 A 103427.84 103427.84 0 0 0 11951324.00 37590883.00 L 11936892.00 37602363.00 L 11929348.00 37614499.00 L 11920492.00 37639755.00 L 11917868.00 37669275.00 L 11953948.00 37674195.00 L 11954932.00 37662715.00 L 11961164.00 37636147.00 L 11969036.00 37624995.00 L 11985436.00 37616467.00 L 12001508.00 37614499.00 L 12020532.00 37619091.00 L 12031028.00 37626307.00 L 12040540.00 37640739.00 L 12043820.00 37661075.00 L 12044476.00 37886411.00 L 12084492.00 37886411.00 L 12084492.00 37679771.00  z"/>
<path id="N" d="M 12112208.00 33479771.00 L 12108272.00 33439099.00 L 12101712.00 33419091.00 L 12086624.00 33399083.00 L 12073176.00 33389571.00 L 12053496.00 33382027.00 A 103427.84 103427.84 0 0 0 11979040.00 33390883.00 L 11964608.00 33402363.00 L 11957064.00 33414499.00 L 11948208.00 33439755.00 L 11945584.00 33469275.00 L 11981664.00 33474195.00 L 11982648.00 33462715.00 L 11988880.00 33436147.00 L 11996752.00 33424995.00 L 12013152.00 33416467.00 L 12029224.00 33414499.00 L 12048248.00 33419091.00 L 12058744.00 33426307.00 L 12068256.00 33440739.00 L 12071536.00 33461075.00 L 12072192.00 33686411.00 L 12112208.00 33686411.00 L 12112208.00 33479771.00  z"/>
<path id="N" d="M 11690391.00 33452864.00 L 11698317.00 33433730.00 L 11698317.00 31712599.00 L 11690391.00 31693465.00 L 11671257.00 31685539.00 L 8167327.00 31685539.00 L 8148193.00 31693465.00 L 8140267.00 31712599.00 L 8140267.00 33433724.00 L 8148193.00 33452858.00 L 8167327.00 33460784.00 L 8186461.00 33452858.00 L 8194387.00 33433724.00 L 8194387.00 31739659.00 L 11644197.00 31739659.00 L 11644197.00 33433730.00 L 11652123.00 33452864.00 L 11671257.00 33460790.00 L 11690391.00 33452864.00  z"/>
<path id="N" d="M 11691172.00 39172677.00 L 11699098.00 39153543.00 L 11699098.00 37432418.00 L 11691172.00 37413284.00 L 11672038.00 37405358.00 L 11652904.00 37413284.00 L 11644978.00 37432418.00 L 11644978.00 39126483.00 L 8195168.00 39126483.00 L 8195168.00 37432412.00 L 8187242.00 37413278.00 L 8168108.00 37405352.00 L 8148974.00 37413278.00 L 8141048.00 37432412.00 L 8141048.00 39153543.00 L 8148974.00 39172677.00 L 8168108.00 39180603.00 L 11672038.00 39180603.00 L 11691172.00 39172677.00  z"/>
<path id="N" d="M 17354489.00 36603755.00 L 17366970.00 36573622.00 L 17366970.00 35392520.00 L 17354489.00 35362387.00 L 17324356.00 35349906.00 L 16617376.00 35349906.00 L 16587243.00 35362387.00 L 16574762.00 35392520.00 L 16574762.00 36573622.00 L 16587243.00 36603755.00 L 16617376.00 36616236.00 L 17324356.00 36616236.00 L 17354489.00 36603755.00  zM 17281742.00 36531008.00 L 16659990.00 36531008.00 L 16659990.00 35435134.00 L 17281742.00 35435134.00 L 17281742.00 36531008.00  z"/>
<path id="N" d="M 14317715.47 35135037.47 m -100354.75 0 a 100354.75 100354.75 0 1 1 200709.51 0a 100354.75 100354.75 0 1 1 -200709.51 0"/>
<path id="N" d="M 15674014.47 36483069.47 m -100354.75 0 a 100354.75 100354.75 0 1 1 200709.51 0a 100354.75 100354.75 0 1 1 -200709.51 0"/>
<path id="N" d="M 16274014.47 32361022.47 m -100354.75 0 a 100354.75 100354.75 0 1 1 200709.51 0a 100354.75 100354.75 0 1 1 -200709.51 0"/>
<path id="N" d="M 18574014.97 38534582.00 L 18574014.97 38485792.00 L 18243144.98 38394771.99 L 18574014.98 38303342.00 L 18574014.98 38251272.00 L 18195584.99 38151641.98 L 18195584.98 38203301.98 L 18444454.98 38260291.99 L 18520304.98 38276282.00 L 18489964.98 38283662.00 L 18195584.98 38365661.98 L 18195584.97 38425931.98 L 18430924.97 38491121.99 L 18520714.97 38509572.00 L 18195584.97 38587881.98 L 18195584.96 38638311.98 L 18574014.97 38534582.00  z"/>
<path id="N" d="M 10774014.47 34933069.47 m -100354.75 0 a 100354.75 100354.75 0 1 1 200709.51 0a 100354.75 100354.75 0 1 1 -200709.51 0"/>
<path id="N" d="M 14019110.00 36488007.00 L 14031591.00 36457874.00 L 14019110.00 36427741.00 L 13988977.00 36415260.00 L 13710725.00 36415260.00 L 13710725.00 36198031.00 L 13698244.00 36167898.00 L 13668111.00 36155417.00 L 13637978.00 36167898.00 L 13625497.00 36198031.00 L 13625497.00 36457874.00 L 13637978.00 36488007.00 L 13668111.00 36500488.00 L 13988977.00 36500488.00 L 14019110.00 36488007.00  z"/>
<path id="N" d="M 15975409.00 33713992.00 L 15987890.00 33683859.00 L 15975409.00 33653726.00 L 15945276.00 33641245.00 L 15667024.00 33641245.00 L 15667024.00 33424016.00 L 15654543.00 33393883.00 L 15624410.00 33381402.00 L 15594277.00 33393883.00 L 15581796.00 33424016.00 L 15581796.00 33683859.00 L 15594277.00 33713992.00 L 15624410.00 33726473.00 L 15945276.00 33726473.00 L 15975409.00 33713992.00  z"/>
<path id="N" d="M 15654543.00 32824228.00 L 15667024.00 32794095.00 L 15667024.00 32576867.00 L 15945276.00 32576867.00 L 15975409.00 32564386.00 L 15987890.00 32534253.00 L 15975409.00 32504120.00 L 15945276.00 32491639.00 L 15624410.00 32491639.00 L 15594277.00 32504120.00 L 15581796.00 32534253.00 L 15581796.00 32794095.00 L 15594277.00 32824228.00 L 15624410.00 32836709.00 L 15654543.00 32824228.00  z"/>
<path id="N" d="M 13698244.00 35598243.00 L 13710725.00 35568110.00 L 13710725.00 35350882.00 L 13988977.00 35350882.00 L 14019110.00 35338401.00 L 14031591.00 35308268.00 L 14019110.00 35278135.00 L 13988977.00 35265654.00 L 13668111.00 35265654.00 L 13637978.00 35278135.00 L 13625497.00 35308268.00 L 13625497.00 35568110.00 L 13637978.00 35598243.00 L 13668111.00 35610724.00 L 13698244.00 35598243.00  z"/>
<path id="N" d="M 11690391.00 34586064.00 L 11698317.00 34566930.00 L 11698317.00 33889106.00 L 11690391.00 33869972.00 L 11671257.00 33862046.00 L 11652123.00 33869972.00 L 11644197.00 33889106.00 L 11644197.00 34539870.00 L 10496164.00 34539870.00 L 10477030.00 34547796.00 L 10469104.00 34566930.00 L 10477030.00 34586064.00 L 10496164.00 34593990.00 L 11671257.00 34593990.00 L 11690391.00 34586064.00  z"/>
<path id="N" d="M 11691172.00 36996164.00 L 11699098.00 36977030.00 L 11699098.00 36299212.00 L 11691172.00 36280078.00 L 11672038.00 36272152.00 L 11138593.00 36272152.00 L 11119459.00 36280078.00 L 11111533.00 36299212.00 L 11119459.00 36318346.00 L 11138593.00 36326272.00 L 11644978.00 36326272.00 L 11644978.00 36977030.00 L 11652904.00 36996164.00 L 11672038.00 37004090.00 L 11691172.00 36996164.00  z"/>
<path id="N" d="M 8719906.00 34586064.00 L 8727832.00 34566930.00 L 8719906.00 34547796.00 L 8700772.00 34539870.00 L 8194387.00 34539870.00 L 8194387.00 33889112.00 L 8186461.00 33869978.00 L 8167327.00 33862052.00 L 8148193.00 33869978.00 L 8140267.00 33889112.00 L 8140267.00 34566930.00 L 8148193.00 34586064.00 L 8167327.00 34593990.00 L 8700772.00 34593990.00 L 8719906.00 34586064.00  z"/>
<path id="N" d="M 8187242.00 36996170.00 L 8195168.00 36977036.00 L 8195168.00 36326272.00 L 9343201.00 36326272.00 L 9362335.00 36318346.00 L 9370261.00 36299212.00 L 9362335.00 36280078.00 L 9343201.00 36272152.00 L 8168108.00 36272152.00 L 8148974.00 36280078.00 L 8141048.00 36299212.00 L 8141048.00 36977036.00 L 8148974.00 36996170.00 L 8168108.00 37004096.00 L 8187242.00 36996170.00  z"/>
<path id="N" d="M 15302898.98 37535612.00 L 15375386.98 37535612.00 L 15375386.98 37498548.00 L 15302898.98 37498548.00 L 15302898.99 37366692.00 L 15268786.99 37366692.00 L 15072642.98 37505107.99 L 15072642.98 37535611.99 L 15268786.98 37535612.00 L 15268786.98 37576612.00 L 15302898.98 37576612.00 L 15302898.98 37535612.00  zM 15268786.98 37498548.00 L 15132338.98 37498547.99 L 15268786.99 37403100.00 L 15268786.98 37498548.00  z"/>
<path id="N" d="M 18453062.98 37541680.00 L 18525550.98 37541680.00 L 18525550.98 37504616.00 L 18453062.98 37504616.00 L 18453062.99 37372760.00 L 18418950.99 37372760.00 L 18222806.98 37511175.99 L 18222806.98 37541679.99 L 18418950.98 37541680.00 L 18418950.98 37582680.00 L 18453062.98 37582680.00 L 18453062.98 37541680.00  zM 18418950.98 37504616.00 L 18282502.98 37504615.99 L 18418950.99 37409168.00 L 18418950.98 37504616.00  z"/>
<path id="N" d="M 17937556.00 32432669.00 L 17880566.00 32432669.00 L 17836696.00 32547059.00 L 17677616.00 32547059.00 L 17636616.00 32432669.00 L 17583726.00 32432669.00 L 17728456.00 32811099.00 L 17782576.00 32811099.00 L 17937556.00 32432669.00  zM 17754286.00 32771329.00 L 17738296.00 32712289.00 L 17691966.00 32587649.00 L 17821116.00 32587649.00 L 17781346.00 32693019.00 L 17754286.00 32771329.00  z"/>
<path id="N" d="M 12302448.00 33383667.00 L 12265384.00 33383667.00 L 12264728.00 33619499.00 L 12263088.00 33617859.00 L 12229632.00 33594571.00 L 12190928.00 33575547.00 L 12190928.00 33611299.00 L 12196176.00 33613923.00 L 12236520.00 33639179.00 L 12263744.00 33665747.00 L 12278504.00 33687395.00 L 12302448.00 33687395.00 L 12302448.00 33383667.00  z"/>
<path id="N" d="M 12339184.00 34731207.00 L 12302120.00 34731207.00 L 12301464.00 34967039.00 L 12299824.00 34965399.00 L 12266368.00 34942111.00 L 12227664.00 34923087.00 L 12227664.00 34958839.00 L 12232912.00 34961463.00 L 12273256.00 34986719.00 L 12300480.00 35013287.00 L 12315240.00 35034935.00 L 12339184.00 35034935.00 L 12339184.00 34731207.00  z"/>
<path id="N" d="M 19620796.00 38547501.00 L 19723706.00 38547501.00 L 19723706.00 38504041.00 L 19620796.00 38504041.00 L 19620796.00 38400311.00 L 19576926.00 38400311.00 L 19576926.00 38504041.00 L 19474016.00 38504041.00 L 19474016.00 38547501.00 L 19576926.00 38547501.00 L 19576926.00 38650411.00 L 19620796.00 38650411.00 L 19620796.00 38547501.00  z"/>
<path id="N" d="M 15371268.00 38531207.00 L 15334204.00 38531207.00 L 15333548.00 38767039.00 L 15331908.00 38765399.00 L 15298452.00 38742111.00 L 15259748.00 38723087.00 L 15259748.00 38758839.00 L 15264996.00 38761463.00 L 15305340.00 38786719.00 L 15332564.00 38813287.00 L 15347324.00 38834935.00 L 15371268.00 38834935.00 L 15371268.00 38531207.00  z"/>
<path id="N" d="M 15606444.00 38531207.00 L 15569380.00 38531207.00 L 15568724.00 38767039.00 L 15567084.00 38765399.00 L 15533628.00 38742111.00 L 15494924.00 38723087.00 L 15494924.00 38758839.00 L 15500172.00 38761463.00 L 15540516.00 38786719.00 L 15567740.00 38813287.00 L 15582500.00 38834935.00 L 15606444.00 38834935.00 L 15606444.00 38531207.00  z"/>
<path id="N" d="M 19273418.98 36964560.00 L 19037586.98 36963903.99 L 19039226.98 36962263.99 L 19062514.98 36928807.99 L 19081538.99 36890103.99 L 19045786.99 36890103.99 L 19043162.99 36895351.99 L 19017906.98 36935695.99 L 18991338.98 36962919.99 L 18969690.98 36977679.99 L 18969690.98 37001623.99 L 19273418.98 37001624.00 L 19273418.98 36964560.00  z"/>
<path id="N" d="M 20538856.00 34281207.00 L 20501792.00 34281207.00 L 20501136.00 34517039.00 L 20499496.00 34515399.00 L 20466040.00 34492111.00 L 20427336.00 34473087.00 L 20427336.00 34508839.00 L 20432584.00 34511463.00 L 20472928.00 34536719.00 L 20500152.00 34563287.00 L 20514912.00 34584935.00 L 20538856.00 34584935.00 L 20538856.00 34281207.00  z"/>
<path id="N" d="M 19611754.01 35468734.99 L 19590434.02 35428390.99 L 19569770.02 35400838.99 L 19806258.02 35400839.00 L 19806258.02 35363775.00 L 19502530.02 35363774.99 L 19502530.02 35387718.99 L 19510074.02 35391982.99 L 19535658.02 35412974.99 L 19557306.02 35439214.99 L 19578626.01 35475294.99 L 19614378.01 35475294.99 L 19611754.01 35468734.99  z"/>
<path id="N" d="M 10259661.00 34888401.00 L 10272142.00 34858268.00 L 10259661.00 34828135.00 L 10229528.00 34815654.00 L 8418504.00 34815654.00 L 8388371.00 34828135.00 L 8375890.00 34858268.00 L 8388371.00 34888401.00 L 8418504.00 34900882.00 L 10229528.00 34900882.00 L 10259661.00 34888401.00  z"/>
<path id="N" d="M 11352652.00 35159969.00 L 11362163.00 35137008.00 L 11352652.00 35114047.00 L 11329691.00 35104536.00 L 11168893.00 35104536.00 L 11145932.00 35114047.00 L 11136421.00 35137008.00 L 11145932.00 35159969.00 L 11168893.00 35169480.00 L 11329691.00 35169480.00 L 11352652.00 35159969.00  z"/>
<path id="N" d="M 9952104.00 34586064.00 L 9960030.00 34566930.00 L 9952104.00 34547796.00 L 9932970.00 34539870.00 L 9366158.00 34539870.00 L 9347024.00 34547796.00 L 9339098.00 34566930.00 L 9347024.00 34586064.00 L 9366158.00 34593990.00 L 9932970.00 34593990.00 L 9952104.00 34586064.00  z"/>
<path id="N" d="M 10492341.00 36318346.00 L 10500267.00 36299212.00 L 10492341.00 36280078.00 L 10473207.00 36272152.00 L 9906395.00 36272152.00 L 9887261.00 36280078.00 L 9879335.00 36299212.00 L 9887261.00 36318346.00 L 9906395.00 36326272.00 L 10473207.00 36326272.00 L 10492341.00 36318346.00  z"/>
<path id="N" d="M 10259661.00 36038007.00 L 10272142.00 36007874.00 L 10259661.00 35977741.00 L 10229528.00 35965260.00 L 8418504.00 35965260.00 L 8388371.00 35977741.00 L 8375890.00 36007874.00 L 8388371.00 36038007.00 L 8418504.00 36050488.00 L 10229528.00 36050488.00 L 10259661.00 36038007.00  z"/>
<path id="N" d="M 20945206.00 31782669.13 L 20893546.00 31782669.12 L 20695105.95 32079509.08 L 20695106.00 31782669.08 L 20647136.00 31782669.07 L 20647135.93 32161099.07 L 20698385.93 32161099.08 L 20897235.99 31863849.12 L 20897235.93 32161099.12 L 20945205.93 32161099.13 L 20945206.00 31782669.13  z"/>
<path id="N" d="M 11352652.00 35752095.00 L 11362163.00 35729134.00 L 11352652.00 35706173.00 L 11329691.00 35696662.00 L 11168893.00 35696662.00 L 11145932.00 35706173.00 L 11136421.00 35729134.00 L 11145932.00 35752095.00 L 11168893.00 35761606.00 L 11329691.00 35761606.00 L 11352652.00 35752095.00  z"/>
<path id="N" d="M 20247686.00 38339221.00 L 20196026.00 38339221.00 L 20049246.00 38717651.00 L 20103776.00 38717651.00 L 20202176.00 38442131.00 L 20221856.00 38380631.00 L 20227596.00 38399901.00 L 20344446.00 38717651.00 L 20395286.00 38717651.00 L 20247686.00 38339221.00  z"/>
<path id="N" d="M 22934124.96 36487551.99 L 23267864.96 36487552.00 L 23267864.96 36437532.00 L 22934124.96 36437531.99 L 22934124.97 36312891.99 L 22889434.97 36312891.98 L 22889434.95 36612191.98 L 22934124.95 36612191.99 L 22934124.96 36487551.99  z"/>
<path id="N" d="M 11899293.66 35433071.00 m -64942.34 0 a 64942.34 64942.34 0 1 1 129884.69 0a 64942.34 64942.34 0 1 1 -129884.69 0"/>
<path id="N" d="M 19422696.00 31827359.00 L 19609246.00 31827359.00 L 19609246.00 31782669.00 L 19372676.00 31782669.00 L 19372676.00 32161099.00 L 19422696.00 32161099.00 L 19422696.00 31827359.00  z"/>
<path id="N" d="M 17974017.00 38933070.00 L 17659057.00 38933070.00 L 17659057.00 38992125.00 L 17974017.00 38992125.00 L 17974017.00 38933070.00  z"/>
</g>
</svg>
