<svg width="35.90526474mm" height="21.80000212mm" viewBox="0 0 14135931 8582678"  version="1.1" xmlns="http://www.w3.org/2000/svg" xmlns:xlink="http://www.w3.org/1999/xlink">
<desc>
Origin 9055113 35433070 Bound 9055118 31141731 14135931 8582678
</desc>
<g fill-rule="evenodd" fill="rgb(128, 0, 128)" stroke="black" stroke-width="1" transform="translate(0, 8582678) scale(1, -1) translate(-9055118, -31141731)">
<path id="N" d="M 19085059.00 31141641.00 L 9055118.00 31141732.00 L 9055118.00 39724409.00 L 19085059.00 39724498.00 A 4295379.07 4295379.07 0 0 0 19085059.00 31141641.00  zM 10472435.13 32125985.48 m -241327.52 0 a 241327.52 241327.52 0 1 1 482655.04 0a 241327.52 241327.52 0 1 1 -482655.04 0M 11200783.52 31515751.25 m -251366.75 0 a 251366.75 251366.75 0 1 1 502733.51 0a 251366.75 251366.75 0 1 1 -502733.51 0M 11929128.13 32716537.48 m -241327.52 0 a 241327.52 241327.52 0 1 1 482655.04 0a 241327.52 241327.52 0 1 1 -482655.04 0M 10472435.13 33307088.48 m -241327.52 0 a 241327.52 241327.52 0 1 1 482655.04 0a 241327.52 241327.52 0 1 1 -482655.04 0M 12165822.00 34134330.00 L 11692436.00 34134330.00 L 11692436.00 33660944.00 L 12165822.00 33660944.00 L 12165822.00 34134330.00  zM 10001412.00 35866771.00 L 9134010.00 35866771.00 L 9134010.00 34999369.00 L 10001412.00 34999369.00 L 10001412.00 35866771.00  zM 11576215.00 35866771.00 L 10708813.00 35866771.00 L 10708813.00 34999369.00 L 11576215.00 34999369.00 L 11576215.00 35866771.00  zM 11200783.52 34507871.25 m -251366.75 0 a 251366.75 251366.75 0 1 1 502733.51 0a 251366.75 251366.75 0 1 1 -502733.51 0M 12698263.00 35860865.00 L 12263933.00 35860865.00 L 12263933.00 35505275.00 L 12698263.00 35505275.00 L 12698263.00 35860865.00  zM 12952795.00 32267042.00 L 12953607.00 32180965.00 L 12972145.00 32096089.00 A 443176.21 443176.21 0 0 1 13525614.00 31810310.00 A 426888.08 426888.08 0 0 1 13819676.00 32182566.00 L 13818889.00 32267055.00 L 13802250.00 32350722.00 A 435131.44 435131.44 0 0 1 12952795.00 32267042.00  zM 15398262.00 33004960.00 L 14963932.00 33004960.00 L 14963932.00 32649370.00 L 15398262.00 32649370.00 L 15398262.00 33004960.00  zM 15398262.00 33516771.00 L 14963932.00 33516771.00 L 14963932.00 33161181.00 L 15398262.00 33161181.00 L 15398262.00 33516771.00  zM 14172278.00 34985275.00 L 13737948.00 34985275.00 L 13737948.00 34629685.00 L 14172278.00 34629685.00 L 14172278.00 34985275.00  zM 15218361.00 34812623.00 L 14880285.00 34812623.00 L 14880285.00 34453517.00 L 15218361.00 34453517.00 L 15218361.00 34812623.00  zM 13446294.00 35604959.00 L 13011964.00 35604959.00 L 13011964.00 35249369.00 L 13446294.00 35249369.00 L 13446294.00 35604959.00  zM 14172278.00 35536456.00 L 13737948.00 35536456.00 L 13737948.00 35180866.00 L 14172278.00 35180866.00 L 14172278.00 35536456.00  zM 14709078.00 35551885.00 L 14385022.00 35551885.00 A 96771.86 96771.86 0 0 1 14385022.00 35358351.00 L 14709078.00 35358351.00 A 96771.86 96771.86 0 0 1 14709078.00 35551885.00  zM 14709078.00 35295980.00 L 14385022.00 35295980.00 A 96771.86 96771.86 0 0 1 14385022.00 35102446.00 L 14709078.00 35102446.00 A 96771.86 96771.86 0 0 1 14709078.00 35295980.00  zM 10472435.13 36968505.48 m -241327.52 0 a 241327.52 241327.52 0 1 1 482655.04 0a 241327.52 241327.52 0 1 1 -482655.04 0M 11200783.52 36358271.25 m -251366.75 0 a 251366.75 251366.75 0 1 1 502733.51 0a 251366.75 251366.75 0 1 1 -502733.51 0M 12891176.00 36686219.00 L 12419050.00 36686219.00 L 12419050.00 36429369.00 L 12891176.00 36429369.00 L 12891176.00 36686219.00  zM 13446294.00 36116770.00 L 13011964.00 36116770.00 L 13011964.00 35761180.00 L 13446294.00 35761180.00 L 13446294.00 36116770.00  zM 12891176.00 37336771.00 L 12419050.00 37336771.00 L 12419050.00 37079921.00 L 12891176.00 37079921.00 L 12891176.00 37336771.00  zM 10472435.13 38149608.48 m -241327.52 0 a 241327.52 241327.52 0 1 1 482655.04 0a 241327.52 241327.52 0 1 1 -482655.04 0M 11929128.13 37559057.48 m -241327.52 0 a 241327.52 241327.52 0 1 1 482655.04 0a 241327.52 241327.52 0 1 1 -482655.04 0M 11200783.52 39350391.25 m -251366.75 0 a 251366.75 251366.75 0 1 1 502733.51 0a 251366.75 251366.75 0 1 1 -502733.51 0M 12165822.00 38976850.00 L 11692436.00 38976850.00 L 11692436.00 38503464.00 L 12165822.00 38503464.00 L 12165822.00 38976850.00  zM 14172278.00 36035274.00 L 13737948.00 36035274.00 L 13737948.00 35679684.00 L 14172278.00 35679684.00 L 14172278.00 36035274.00  zM 14172278.00 36586455.00 L 13737948.00 36586455.00 L 13737948.00 36230865.00 L 14172278.00 36230865.00 L 14172278.00 36586455.00  zM 14803986.00 36061837.00 L 14290114.00 36061837.00 L 14290114.00 35872021.00 L 14803986.00 35872021.00 L 14803986.00 36061837.00  zM 14709078.00 35807791.00 L 14385022.00 35807791.00 A 96771.86 96771.86 0 0 1 14385022.00 35614257.00 L 14709078.00 35614257.00 A 96771.86 96771.86 0 0 1 14709078.00 35807791.00  zM 14712121.00 36714015.00 L 14338105.00 36714015.00 L 14338105.00 36339999.00 L 14712121.00 36339999.00 L 14712121.00 36714015.00  zM 15217574.00 36692623.00 L 14879498.00 36692623.00 L 14879498.00 36333517.00 L 15217574.00 36333517.00 L 15217574.00 36692623.00  zM 14712121.00 37206141.00 L 14338105.00 37206141.00 L 14338105.00 36832125.00 L 14712121.00 36832125.00 L 14712121.00 37206141.00  zM 12952795.00 38684365.00 L 12953607.00 38598288.00 L 12972145.00 38513412.00 A 443176.21 443176.21 0 0 1 13525614.00 38227633.00 A 426888.08 426888.08 0 0 1 13819676.00 38599889.00 L 13818889.00 38684378.00 L 13802250.00 38768045.00 A 435131.44 435131.44 0 0 1 12952795.00 38684365.00  zM 16146293.00 33260865.00 L 15711963.00 33260865.00 L 15711963.00 32905275.00 L 16146293.00 32905275.00 L 16146293.00 33260865.00  zM 16858498.00 34400235.00 L 16502908.00 34400235.00 L 16502908.00 33965905.00 L 16858498.00 33965905.00 L 16858498.00 34400235.00  zM 17251963.00 33837400.00 L 16858263.00 33837400.00 L 16858263.00 33128740.00 L 17251963.00 33128740.00 L 17251963.00 33837400.00  zM 16307317.00 34400235.00 L 15951727.00 34400235.00 L 15951727.00 33965905.00 L 16307317.00 33965905.00 L 16307317.00 34400235.00  zM 15829941.00 34812623.00 L 15491865.00 34812623.00 L 15491865.00 34453517.00 L 15829941.00 34453517.00 L 15829941.00 34812623.00  zM 16323630.00 35295980.00 L 15999574.00 35295980.00 A 96771.86 96771.86 0 0 1 15999574.00 35102446.00 L 16323630.00 35102446.00 A 96771.86 96771.86 0 0 1 16323630.00 35295980.00  zM 16323630.00 35551885.00 L 15999574.00 35551885.00 A 96771.86 96771.86 0 0 1 15999574.00 35358351.00 L 16323630.00 35358351.00 A 96771.86 96771.86 0 0 1 16323630.00 35551885.00  zM 16988813.00 34925275.00 L 16554483.00 34925275.00 L 16554483.00 34569685.00 L 16988813.00 34569685.00 L 16988813.00 34925275.00  zM 16988813.00 35476456.00 L 16554483.00 35476456.00 L 16554483.00 35120866.00 L 16988813.00 35120866.00 L 16988813.00 35476456.00  zM 16323630.00 36063696.00 L 15999574.00 36063696.00 A 96771.86 96771.86 0 0 1 15999574.00 35870162.00 L 16323630.00 35870162.00 A 96771.86 96771.86 0 0 1 16323630.00 36063696.00  zM 16323630.00 35807791.00 L 15999574.00 35807791.00 A 96771.86 96771.86 0 0 1 15999574.00 35614257.00 L 16323630.00 35614257.00 A 96771.86 96771.86 0 0 1 16323630.00 35807791.00  zM 16988813.00 36045274.00 L 16554483.00 36045274.00 L 16554483.00 35689684.00 L 16988813.00 35689684.00 L 16988813.00 36045274.00  zM 16988813.00 36596455.00 L 16554483.00 36596455.00 L 16554483.00 36240865.00 L 16988813.00 36240865.00 L 16988813.00 36596455.00  zM 15829154.00 36692623.00 L 15491078.00 36692623.00 L 15491078.00 36333517.00 L 15829154.00 36333517.00 L 15829154.00 36692623.00  zM 16372121.00 36714015.00 L 15998105.00 36714015.00 L 15998105.00 36339999.00 L 16372121.00 36339999.00 L 16372121.00 36714015.00  zM 16372121.00 37206141.00 L 15998105.00 37206141.00 L 15998105.00 36832125.00 L 16372121.00 36832125.00 L 16372121.00 37206141.00  zM 16009443.00 38229920.00 L 15300783.00 38229920.00 L 15300783.00 37836220.00 L 16009443.00 37836220.00 L 16009443.00 38229920.00  zM 18146063.00 33087401.00 L 17752363.00 33087401.00 L 17752363.00 32378741.00 L 18146063.00 32378741.00 L 18146063.00 33087401.00  zM 17722278.00 34235274.00 L 17287948.00 34235274.00 L 17287948.00 33879684.00 L 17722278.00 33879684.00 L 17722278.00 34235274.00  zM 18297085.00 34605314.00 L 17862755.00 34605314.00 L 17862755.00 34249724.00 L 18297085.00 34249724.00 L 18297085.00 34605314.00  zM 17722278.00 34786455.00 L 17287948.00 34786455.00 L 17287948.00 34430865.00 L 17722278.00 34430865.00 L 17722278.00 34786455.00  zM 18297085.00 35156495.00 L 17862755.00 35156495.00 L 17862755.00 34800905.00 L 18297085.00 34800905.00 L 18297085.00 35156495.00  zM 20109443.00 33029920.00 L 19400783.00 33029920.00 L 19400783.00 32636220.00 L 20109443.00 32636220.00 L 20109443.00 33029920.00  zM 20707317.00 33850235.00 L 20351727.00 33850235.00 L 20351727.00 33415905.00 L 20707317.00 33415905.00 L 20707317.00 33850235.00  zM 18941963.00 36134487.00 L 18468263.00 36134487.00 L 18468263.00 35700157.00 L 18941963.00 35700157.00 L 18941963.00 36134487.00  zM 21258498.00 33850235.00 L 20902908.00 33850235.00 L 20902908.00 33415905.00 L 21258498.00 33415905.00 L 21258498.00 33850235.00  zM 18266928.00 36574173.00 L 17892912.00 36574173.00 L 17892912.00 36200157.00 L 18266928.00 36200157.00 L 18266928.00 36574173.00  zM 18266928.00 37066299.00 L 17892912.00 37066299.00 L 17892912.00 36692283.00 L 18266928.00 36692283.00 L 18266928.00 37066299.00  zM 18941963.00 36665983.00 L 18468263.00 36665983.00 L 18468263.00 36231653.00 L 18941963.00 36231653.00 L 18941963.00 36665983.00  zM 19787633.00 37630550.00 L 19392673.00 37630550.00 L 19392673.00 37235590.00 L 19787633.00 37235590.00 L 19787633.00 37630550.00  zM 20016770.00 36390825.00 L 19543070.00 36390825.00 L 19543070.00 35956495.00 L 20016770.00 35956495.00 L 20016770.00 36390825.00  zM 21146063.00 36437401.00 L 20752363.00 36437401.00 L 20752363.00 35728741.00 L 21146063.00 35728741.00 L 21146063.00 36437401.00  zM 20016770.00 37020746.00 L 19543070.00 37020746.00 L 19543070.00 36586416.00 L 20016770.00 36586416.00 L 20016770.00 37020746.00  zM 20417555.00 37630550.00 L 20022595.00 37630550.00 L 20022595.00 37235590.00 L 20417555.00 37235590.00 L 20417555.00 37630550.00  z"/>
</g>
</svg>
