**ABCDEFGHIJKLMNOPQRSTUVWXYZabcdefghijklmnopqrstuvwxyz**************************
**PARASOLID !"#$%&'()*+,-./:;<=>?@[\]^_`{|}~0123456789**************************
**PART1;
MC=AMD64;
MC_MODEL=AMD64 Family 25 Model 33 Stepping 0, AuthenticAMD;
MC_ID=unknown;
OS=Windows_NT;
OS_RELEASE=unknown;
FRU=CAD Exchanger 3.13.0 (cadexchanger.com);
APPL=unknown;
SITE=unknown;
USER=unknown;
FORMAT=text;
GUISE=transmit;
KEY=RESC0603(1608)_N_CMP-009-00178-1;
FILE=RESC0603(1608)_N_CMP-009-00178-1.x_t;
DATE=Sat Nov 18 19:42:44 2023;
**PART2;
SCH=SCH_1200000_12103;
USFLD_SIZE=0;
**PART3;
**END_OF_HEADER*****************************************************************
T51 : TRANSMIT FILE created by modeller version 120000017 SCH_1200000_121030 74
 3 1 3 0 2 105 206 12 2 68 0 3 0 0 0 0 1000.0 1.0e-08 0 0 0 1 0 1 1 12 14 20 18
 9 19 17 70 3 0 2 0 0 4 1 20 0 4 4 1 T74 20 4 1 0 5 0 0 0 0 0 0 0 0 0 0 0 0 0 0
 0 0 0 0 0 81 1 5 7 6 13 0 0 42 0 8 80 1 6 0 7 8001 0 0 0 0 3 5 0 0 0 FFFFTFTFFF
FFFF2 79 15 7 SDL/TYSA_COLOUR83 3 8 0.6509804129600526 0.5882353186607362 0.5529
412031173706 19 9 1 0 2 11 0 10 V13 10 2 0 2 0 0 0 0 9 13 19 11 3 0 2 0 9 12 S13
 12 4 0 2 0 13 0 0 11 0 14 13 5 5 1.0e-08 40 0 15 12 14 +0 0 40 0 10 50 14 6 0 1
3 41 0 0 +-5.8042556000000004e-04 -4.7440850000000002e-04 0.0 -1.0 0.0 0.0 0.0 1
.0 0.0 15 15 8 0 16 13 0 17 16 0 15 24 36 17 21 19 0 29 +18 17 9 0 16 0 22 18 ?2
 29 18 10 0 17 23 0 -5.8042556000000004e-04 -4.7440850000000002e-04 5.9999880000
00001e-04 16 19 11 0 ?16 0 27 20 0 0 2 30 20 12 0 19 28 0 0 +-5.8042556000000004
e-04 -4.7440850000000002e-04 0.0 0.0 0.0 1.0 17 21 0 86 91 87 22 16 19 0 36 -18
 22 13 0 21 17 25 23 ?2 29 23 14 0 22 26 18 -5.8042556000000004e-04 -4.744085000
0000002e-04 0.0 17 24 0 15 30 16 25 29 27 0 35 +18 25 15 0 24 22 31 26 ?2 29 26
 16 0 25 32 23 -5.8042556000000004e-04 4.7457360000000008e-04 5.999988000000001e
-04 16 27 17 0 ?24 19 33 28 0 0 2 30 28 18 0 27 34 20 0 +-5.8042556000000004e-04
 -4.7440850000000002e-04 5.999988000000001e-04 0.0 1.0 0.0 17 29 0 104 90 50 17
 24 27 0 87 -17 30 0 15 36 24 31 35 33 0 0 -18 31 19 0 57 25 46 32 ?2 29 32 20 0
 31 47 26 -5.8042556000000004e-04 4.7457360000000008e-04 0.0 16 33 21 0 ?35 27 3
7 34 0 0 2 30 34 22 0 33 38 28 0 +-5.8042556000000004e-04 4.7457360000000008e-04
 0.0 0.0 0.0 1.0 17 35 0 44 45 57 25 30 33 0 50 +17 36 0 15 16 30 22 39 37 0 94
 -16 37 23 0 ?39 33 48 38 0 0 2 30 38 24 0 37 49 34 0 +-5.8042556000000004e-04 -
4.7440850000000002e-04 0.0 0.0 1.0 0.0 17 39 0 99 60 94 31 36 37 0 30 +14 40 25
 42 1.0e-08 61 13 44 12 41 +0 0 61 13 10 50 41 26 0 40 62 14 0 +-5.8042556000000
004e-04 4.7457360000000008e-04 0.0 0.0 1.0 0.0 1.0 0.0 0.0 81 1 42 27 6 40 0 0 6
3 5 43 83 3 43 0.6509804129600526 0.5882353186607362 0.5529412031173706 15 44 28
 0 35 40 0 17 45 0 44 51 35 46 50 48 0 71 +18 46 29 0 45 31 52 47 ?2 29 47 30 0
 46 53 32 5.8058811999999992e-04 4.7457360000000008e-04 5.999988000000001e-04 16
 48 31 0 ?45 37 54 49 0 0 2 30 49 32 0 48 55 38 0 +-5.8042556000000004e-04 4.745
7360000000008e-04 5.999988000000001e-04 1.0 0.0 0.0 17 50 0 104 29 71 25 45 48 0
 0 -17 51 0 44 57 45 52 56 54 0 0 -18 52 33 0 60 46 67 53 ?2 29 53 34 0 52 68 47
 5.8058811999999992e-04 4.7457360000000008e-04 0.0 16 54 35 0 ?56 48 58 55 0 0 2
 30 55 36 0 54 59 49 0 +5.8058811999999992e-04 4.7457360000000008e-04 0.0 0.0 0.
0 1.0 17 56 0 65 66 78 46 51 54 0 0 +17 57 0 44 35 51 31 60 58 0 39 -16 58 37 0
 ?60 54 69 59 0 0 2 30 59 38 0 58 70 55 0 +-5.8042556000000004e-04 4.74573600000
00008e-04 0.0 1.0 0.0 0.0 17 60 0 99 81 39 52 57 58 0 78 +14 61 39 63 1.0e-08 82
 40 65 12 62 +0 0 82 40 10 50 62 40 0 61 83 41 0 +5.8058811999999992e-04 4.74573
60000000008e-04 0.0 1.0 0.0 0.0 0.0 -1.0 0.0 81 1 63 41 6 61 0 0 84 42 64 83 3 6
4 0.6509804129600526 0.5882353186607362 0.5529412031173706 15 65 42 0 56 61 0 17
 66 0 65 72 56 67 71 69 0 77 +18 67 43 0 90 52 73 68 ?2 29 68 44 0 67 74 53 5.80
58811999999992e-04 -4.7440850000000002e-04 5.999988000000001e-04 16 69 45 0 ?66
 58 75 70 0 0 2 30 70 46 0 69 76 59 0 +5.8058811999999992e-04 4.7457360000000008
e-04 5.999988000000001e-04 0.0 -1.0 0.0 17 71 0 104 50 90 46 66 69 0 56 -17 72 0
 65 78 66 73 77 75 0 91 -18 73 47 0 81 67 0 74 ?2 29 74 48 0 73 0 68 5.805881199
9999992e-04 -4.7440850000000002e-04 0.0 16 75 49 0 ?77 69 79 76 0 0 2 30 76 50 0
 75 80 70 0 +5.8058811999999992e-04 -4.7440850000000002e-04 0.0 0.0 0.0 1.0 17 7
7 0 86 87 91 67 72 75 0 0 +17 78 0 65 56 72 52 81 79 0 51 -16 79 51 0 ?81 75 88
 80 0 0 2 30 80 52 0 79 89 76 0 +5.8058811999999992e-04 4.7457360000000008e-04 0
.0 0.0 -1.0 0.0 17 81 0 99 94 60 73 78 79 0 72 +14 82 53 84 1.0e-08 95 61 86 12
 83 +0 0 95 61 10 50 83 54 0 82 96 62 0 +5.8058811999999992e-04 -4.7440850000000
002e-04 0.0 0.0 -1.0 0.0 -1.0 0.0 0.0 81 1 84 55 6 82 0 0 97 63 85 83 3 85 0.650
9804129600526 0.5882353186607362 0.5529412031173706 15 86 56 0 77 82 0 17 87 0 8
6 21 77 17 90 88 0 0 +16 88 57 0 ?87 79 92 89 0 0 2 30 89 58 0 88 93 80 0 +5.805
8811999999992e-04 -4.7440850000000002e-04 5.999988000000001e-04 -1.0 0.0 0.0 17
 90 0 104 71 29 67 87 88 0 66 -17 91 0 86 77 21 73 94 92 0 0 -16 92 59 0 ?94 88
 0 93 0 0 2 30 93 60 0 92 0 89 0 +5.8058811999999992e-04 -4.7440850000000002e-04
 0.0 -1.0 0.0 0.0 17 94 0 99 39 81 22 91 92 0 0 +14 95 61 97 1.0e-08 100 82 99 1
2 96 +0 0 100 82 10 50 96 62 0 95 101 83 0 +8.1280000000052599e-08 8.25499999999
60999e-08 0.0 0.0 0.0 -1.0 -1.0 0.0 0.0 81 1 97 63 6 95 0 0 102 84 98 83 3 98 0.
6509804129600526 0.5882353186607362 0.5529412031173706 15 99 64 0 39 95 0 14 100
 65 102 1.0e-08 0 95 104 12 101 -0 0 0 95 10 50 101 66 0 100 0 96 0 +8.128000000
0052599e-08 8.2549999999960999e-08 5.999988000000001e-04 0.0 0.0 -1.0 -1.0 0.0 0
.0 81 1 102 67 6 100 0 0 0 97 103 83 3 103 0.6509804129600526 0.5882353186607362
 0.5529412031173706 15 104 68 0 90 100 0 12 105 68 0 106 0 0 0 0 1000.0 1.0e-08
 0 0 0 1 0 1 1 113 115 121 119 110 120 118 70 106 0 105 0 0 4 1 20 0 107 107 1 T
74 20 107 1 0 108 0 0 0 0 0 0 0 0 0 0 0 0 0 0 0 0 0 0 0 81 1 108 7 6 114 0 0 143
 0 109 83 3 109 0.7529411911964418 0.7529411911964418 0.7529411911964418 19 110
 1 0 105 112 0 111 V13 111 2 0 105 0 0 0 0 110 114 19 112 3 0 105 0 110 113 S13
 113 4 0 105 0 114 0 0 112 0 14 114 5 108 1.0e-08 141 0 116 113 115 +0 0 141 0 1
11 50 115 6 0 114 142 0 0 +-8.4940902000000006e-04 -4.7440850000000002e-04 0.0 -
1.0 0.0 0.0 0.0 1.0 0.0 15 116 8 0 117 114 0 17 117 0 116 125 137 118 122 120 0
 130 +18 118 9 0 117 0 123 119 ?105 29 119 10 0 118 124 0 -8.4940902000000006e-0
4 -4.7440850000000002e-04 5.999988000000001e-04 16 120 11 0 ?117 0 128 121 0 0 1
05 30 121 12 0 120 129 0 0 +-8.4940902000000006e-04 -4.7440850000000002e-04 0.0
 0.0 0.0 1.0 17 122 0 187 192 188 123 117 120 0 195 -18 123 13 0 137 118 126 124
 ?105 29 124 14 0 123 127 119 -8.4940902000000006e-04 -4.7440850000000002e-04 0.
0 17 125 0 116 131 117 126 130 128 0 136 +18 126 15 0 125 123 132 127 ?105 29 12
7 16 0 126 133 124 -8.4940902000000006e-04 4.7457360000000008e-04 5.999988000000
001e-04 16 128 17 0 ?125 120 134 129 0 0 105 30 129 18 0 128 135 121 0 +-8.49409
02000000006e-04 -4.7440850000000002e-04 5.999988000000001e-04 0.0 1.0 0.0 17 130
 0 205 191 151 118 125 128 0 188 -17 131 0 116 137 125 132 136 134 0 0 -18 132 1
9 0 140 126 147 133 ?105 29 133 20 0 132 148 127 -8.4940902000000006e-04 4.74573
60000000008e-04 0.0 16 134 21 0 ?136 128 138 135 0 0 105 30 135 22 0 134 139 129
 0 +-8.4940902000000006e-04 4.7457360000000008e-04 0.0 0.0 0.0 1.0 17 136 0 145
 146 158 126 131 134 0 151 +17 137 0 116 117 131 123 140 138 0 122 -16 138 23 0
 ?140 134 149 139 0 0 105 30 139 24 0 138 150 135 0 +-8.4940902000000006e-04 -4.
7440850000000002e-04 0.0 0.0 1.0 0.0 17 140 0 200 161 195 132 137 138 0 158 +14
 141 25 143 1.0e-08 162 114 145 113 142 +0 0 162 114 111 50 142 26 0 141 163 115
 0 +-8.4940902000000006e-04 4.7457360000000008e-04 0.0 0.0 1.0 0.0 1.0 0.0 0.0 8
1 1 143 27 6 141 0 0 164 108 144 83 3 144 0.7529411911964418 0.7529411911964418
 0.7529411911964418 15 145 28 0 136 141 0 17 146 0 145 152 136 147 151 149 0 172
 +18 147 29 0 146 132 153 148 ?105 29 148 30 0 147 154 133 -5.8042302000000002e-
04 4.7457360000000008e-04 5.999988000000001e-04 16 149 31 0 ?146 138 155 150 0 0
 105 30 150 32 0 149 156 139 0 +-8.4940902000000006e-04 4.7457360000000008e-04 5
.999988000000001e-04 1.0 0.0 0.0 17 151 0 205 130 172 126 146 149 0 0 -17 152 0
 145 158 146 153 157 155 0 0 -18 153 33 0 161 147 168 154 ?105 29 154 34 0 153 1
69 148 -5.8042302000000002e-04 4.7457360000000008e-04 0.0 16 155 35 0 ?157 149 1
59 156 0 0 105 30 156 36 0 155 160 150 0 +-5.8042302000000002e-04 4.745736000000
0008e-04 0.0 0.0 0.0 1.0 17 157 0 166 167 179 147 152 155 0 0 +17 158 0 145 136
 152 132 161 159 0 131 -16 159 37 0 ?161 155 170 160 0 0 105 30 160 38 0 159 171
 156 0 +-8.4940902000000006e-04 4.7457360000000008e-04 0.0 1.0 0.0 0.0 17 161 0
 200 182 140 153 158 159 0 179 +14 162 39 164 1.0e-08 183 141 166 113 163 +0 0 1
83 141 111 50 163 40 0 162 184 142 0 +-5.8042302000000002e-04 4.7457360000000008
e-04 0.0 1.0 0.0 0.0 0.0 -1.0 0.0 81 1 164 41 6 162 0 0 185 143 165 83 3 165 0.7
529411911964418 0.7529411911964418 0.7529411911964418 15 166 42 0 157 162 0 17 1
67 0 166 173 157 168 172 170 0 178 +18 168 43 0 167 153 174 169 ?105 29 169 44 0
 168 175 154 -5.8042302000000002e-04 -4.7440850000000002e-04 5.999988000000001e-
04 16 170 45 0 ?167 159 176 171 0 0 105 30 171 46 0 170 177 160 0 +-5.8042302000
000002e-04 4.7457360000000008e-04 5.999988000000001e-04 0.0 -1.0 0.0 17 172 0 20
5 151 191 147 167 170 0 157 -17 173 0 166 179 167 174 178 176 0 192 -18 174 47 0
 182 168 0 175 ?105 29 175 48 0 174 0 169 -5.8042302000000002e-04 -4.74408500000
00002e-04 0.0 16 176 49 0 ?178 170 180 177 0 0 105 30 177 50 0 176 181 171 0 +-5
.8042302000000002e-04 -4.7440850000000002e-04 0.0 0.0 0.0 1.0 17 178 0 187 188 1
92 168 173 176 0 191 +17 179 0 166 157 173 153 182 180 0 152 -16 180 51 0 ?182 1
76 189 181 0 0 105 30 181 52 0 180 190 177 0 +-5.8042302000000002e-04 4.74573600
00000008e-04 0.0 0.0 -1.0 0.0 17 182 0 200 195 161 174 179 180 0 173 +14 183 53
 185 1.0e-08 196 162 187 113 184 +0 0 196 162 111 50 184 54 0 183 197 163 0 +-5.
8042302000000002e-04 -4.7440850000000002e-04 0.0 0.0 -1.0 0.0 -1.0 0.0 0.0 81 1
 185 55 6 183 0 0 198 164 186 83 3 186 0.7529411911964418 0.7529411911964418 0.7
529411911964418 15 187 56 0 178 183 0 17 188 0 187 122 178 118 191 189 0 0 +16 1
89 57 0 ?188 180 193 190 0 0 105 30 190 58 0 189 194 181 0 +-5.8042302000000002e
-04 -4.7440850000000002e-04 5.999988000000001e-04 -1.0 0.0 0.0 17 191 0 205 172
 130 168 188 189 0 0 -17 192 0 187 178 122 174 195 193 0 0 -16 193 59 0 ?195 189
 0 194 0 0 105 30 194 60 0 193 0 190 0 +-5.8042302000000002e-04 -4.7440850000000
002e-04 0.0 -1.0 0.0 0.0 17 195 0 200 140 182 123 192 193 0 0 +14 196 61 198 1.0
e-08 201 183 200 113 197 +0 0 201 183 111 50 197 62 0 196 202 184 0 +-7.14916020
00000016e-04 8.2549999999974997e-08 0.0 0.0 0.0 -1.0 -1.0 0.0 0.0 81 1 198 63 6
 196 0 0 203 185 199 83 3 199 0.7529411911964418 0.7529411911964418 0.7529411911
964418 15 200 64 0 140 196 0 14 201 65 203 1.0e-08 0 196 205 113 202 -0 0 0 196
 111 50 202 66 0 201 0 197 0 +-7.1491602000000016e-04 8.2549999999974997e-08 5.9
99988000000001e-04 0.0 0.0 -1.0 -1.0 0.0 0.0 81 1 203 67 6 201 0 0 0 198 204 83
 3 204 0.7529411911964418 0.7529411911964418 0.7529411911964418 15 205 68 0 191
 201 0 12 206 68 0 207 0 0 0 0 1000.0 1.0e-08 0 0 0 1 0 1 1 214 216 222 220 211
 221 219 70 207 0 206 0 0 4 1 20 0 208 208 1 T74 20 208 1 0 209 0 0 0 0 0 0 0 0
 0 0 0 0 0 0 0 0 0 0 0 81 1 209 7 6 215 0 0 244 0 210 83 3 210 0.752941191196441
8 0.7529411911964418 0.7529411911964418 19 211 1 0 206 213 0 212 V13 212 2 0 206
 0 0 0 0 211 215 19 213 3 0 206 0 211 214 S13 214 4 0 206 0 215 0 0 213 0 14 215
 5 209 1.0e-08 242 0 217 214 216 +0 0 242 0 212 50 216 6 0 215 243 0 0 +5.805881
2e-04 -4.7440850000000002e-04 0.0 -1.0 0.0 0.0 0.0 1.0 0.0 15 217 8 0 218 215 0
 17 218 0 217 226 238 219 223 221 0 231 +18 219 9 0 218 0 224 220 ?206 29 220 10
 0 219 225 0 5.8058812e-04 -4.7440850000000002e-04 5.999988000000001e-04 16 221
 11 0 ?218 0 229 222 0 0 206 30 222 12 0 221 230 0 0 +5.8058812e-04 -4.744085000
0000002e-04 0.0 0.0 0.0 1.0 17 223 0 288 293 289 224 218 221 0 238 -18 224 13 0
 223 219 227 225 ?206 29 225 14 0 224 228 220 5.8058812e-04 -4.7440850000000002e
-04 0.0 17 226 0 217 232 218 227 231 229 0 252 +18 227 15 0 226 224 233 228 ?206
 29 228 16 0 227 234 225 5.8058812e-04 4.7457360000000008e-04 5.999988000000001e
-04 16 229 17 0 ?226 221 235 230 0 0 206 30 230 18 0 229 236 222 0 +5.8058812e-0
4 -4.7440850000000002e-04 5.999988000000001e-04 0.0 1.0 0.0 17 231 0 306 292 252
 219 226 229 0 289 -17 232 0 217 238 226 233 237 235 0 0 -18 233 19 0 241 227 24
8 234 ?206 29 234 20 0 233 249 228 5.8058812e-04 4.7457360000000008e-04 0.0 16 2
35 21 0 ?237 229 239 236 0 0 206 30 236 22 0 235 240 230 0 +5.8058812e-04 4.7457
360000000008e-04 0.0 0.0 0.0 1.0 17 237 0 246 247 259 227 232 235 0 0 +17 238 0
 217 218 232 224 241 239 0 296 -16 239 23 0 ?241 235 250 240 0 0 206 30 240 24 0
 239 251 236 0 +5.8058812e-04 -4.7440850000000002e-04 0.0 0.0 1.0 0.0 17 241 0 3
01 262 296 233 238 239 0 259 +14 242 25 244 1.0e-08 263 215 246 214 243 +0 0 263
 215 212 50 243 26 0 242 264 216 0 +5.8058812e-04 4.7457360000000008e-04 0.0 0.0
 1.0 0.0 1.0 0.0 0.0 81 1 244 27 6 242 0 0 265 209 245 83 3 245 0.75294119119644
18 0.7529411911964418 0.7529411911964418 15 246 28 0 237 242 0 17 247 0 246 253
 237 248 252 250 0 258 +18 248 29 0 247 233 254 249 ?206 29 249 30 0 248 255 234
 8.4957411999999994e-04 4.7457360000000008e-04 5.999988000000001e-04 16 250 31 0
 ?247 239 256 251 0 0 206 30 251 32 0 250 257 240 0 +5.8058812e-04 4.74573600000
00008e-04 5.999988000000001e-04 1.0 0.0 0.0 17 252 0 306 231 273 227 247 250 0 2
37 -17 253 0 246 259 247 254 258 256 0 0 -18 254 33 0 262 248 269 255 ?206 29 25
5 34 0 254 270 249 8.4957411999999994e-04 4.7457360000000008e-04 0.0 16 256 35 0
 ?258 250 260 257 0 0 206 30 257 36 0 256 261 251 0 +8.4957411999999994e-04 4.74
57360000000008e-04 0.0 0.0 0.0 1.0 17 258 0 267 268 280 248 253 256 0 273 +17 25
9 0 246 237 253 233 262 260 0 232 -16 260 37 0 ?262 256 271 261 0 0 206 30 261 3
8 0 260 272 257 0 +5.8058812e-04 4.7457360000000008e-04 0.0 1.0 0.0 0.0 17 262 0
 301 283 241 254 259 260 0 280 +14 263 39 265 1.0e-08 284 242 267 214 264 +0 0 2
84 242 212 50 264 40 0 263 285 243 0 +8.4957411999999994e-04 4.7457360000000008e
-04 0.0 1.0 0.0 0.0 0.0 -1.0 0.0 81 1 265 41 6 263 0 0 286 244 266 83 3 266 0.75
29411911964418 0.7529411911964418 0.7529411911964418 15 267 42 0 258 263 0 17 26
8 0 267 274 258 269 273 271 0 279 +18 269 43 0 292 254 275 270 ?206 29 270 44 0
 269 276 255 8.4957411999999994e-04 -4.7440850000000002e-04 5.999988000000001e-0
4 16 271 45 0 ?268 260 277 272 0 0 206 30 272 46 0 271 278 261 0 +8.495741199999
9994e-04 4.7457360000000008e-04 5.999988000000001e-04 0.0 -1.0 0.0 17 273 0 306
 252 292 248 268 271 0 0 -17 274 0 267 280 268 275 279 277 0 0 -18 275 47 0 283
 269 0 276 ?206 29 276 48 0 275 0 270 8.4957411999999994e-04 -4.7440850000000002
e-04 0.0 16 277 49 0 ?279 271 281 278 0 0 206 30 278 50 0 277 282 272 0 +8.49574
11999999994e-04 -4.7440850000000002e-04 0.0 0.0 0.0 1.0 17 279 0 288 289 293 269
 274 277 0 0 +17 280 0 267 258 274 254 283 281 0 253 -16 281 51 0 ?283 277 290 2
82 0 0 206 30 282 52 0 281 291 278 0 +8.4957411999999994e-04 4.7457360000000008e
-04 0.0 0.0 -1.0 0.0 17 283 0 301 296 262 275 280 281 0 293 +14 284 53 286 1.0e-
08 297 263 288 214 285 +0 0 297 263 212 50 285 54 0 284 298 264 0 +8.49574119999
99994e-04 -4.7440850000000002e-04 0.0 0.0 -1.0 0.0 -1.0 0.0 0.0 81 1 286 55 6 28
4 0 0 299 265 287 83 3 287 0.7529411911964418 0.7529411911964418 0.7529411911964
418 15 288 56 0 279 284 0 17 289 0 288 223 279 219 292 290 0 0 +16 290 57 0 ?289
 281 294 291 0 0 206 30 291 58 0 290 295 282 0 +8.4957411999999994e-04 -4.744085
0000000002e-04 5.999988000000001e-04 -1.0 0.0 0.0 17 292 0 306 273 231 269 289 2
90 0 268 -17 293 0 288 279 223 275 296 294 0 274 -16 294 59 0 ?296 290 0 295 0 0
 206 30 295 60 0 294 0 291 0 +8.4957411999999994e-04 -4.7440850000000002e-04 0.0
 -1.0 0.0 0.0 17 296 0 301 241 283 224 293 294 0 0 +14 297 61 299 1.0e-08 302 28
4 301 214 298 +0 0 302 284 212 50 298 62 0 297 303 285 0 +7.1508111999999997e-04
 8.2549999999974997e-08 0.0 0.0 0.0 -1.0 -1.0 0.0 0.0 81 1 299 63 6 297 0 0 304
 286 300 83 3 300 0.7529411911964418 0.7529411911964418 0.7529411911964418 15 30
1 64 0 241 297 0 14 302 65 304 1.0e-08 0 297 306 214 303 -0 0 0 297 212 50 303 6
6 0 302 0 298 0 +7.1508111999999997e-04 8.2549999999974997e-08 5.999988000000001
e-04 0.0 0.0 -1.0 -1.0 0.0 0.0 81 1 304 67 6 302 0 0 0 299 305 83 3 305 0.752941
1911964418 0.7529411911964418 0.7529411911964418 15 306 68 0 292 302 0 1 0 
