**ABCDEFGHIJKLMNOPQRSTUVWXYZabcdefghijklmnopqrstuvwxyz**************************
**PARASOLID !"#$%&'()*+,-./:;<=>?@[\]^_`{|}~0123456789**************************
**PART1;
MC=AMD64;
MC_MODEL=Intel64 Family 6 Model 158 Stepping 10, GenuineIntel;
MC_ID=unknown;
OS=Windows_NT;
OS_RELEASE=unknown;
FRU=Parasolid Version 33.1, build 255,  1- 8-2022;
APPL=SOLIDWORKS 2022-2022167;
SITE=;
USER=unknown;
FORMAT=text;
GUISE=transmit;
KEY=FILEmakeProjectedPlanarWire.x_t;
DATE=Thu Oct 19 16:15:15 2023;
**PART2;
SCH=SCH_3301255_33103;
USFLD_SIZE=0;
**PART3;
**END_OF_HEADER*****************************************************************
T51 : TRANSMIT FILE created by modeller version 330125523 SCH_3301255_33103_1300
6230 0 12 35 CCCI7 lattice222 0 CCCI4 mesh1006 0 I8 polyline1008 0 CCCCCCCDI5 ow
ner1040 0 CCCCCCI13 boundary_mesh1006 0 I17 boundary_polyline1008 0 CCCA16 index
_map_offset0 0 1 dA9 index_map82 0 A17 node_id_index_map82 0 A20 schema_embeddin
g_map82 0 A5 child12 0 A14 lowest_node_id0 0 1 dA16 mesh_offset_data206 0 Z1 44
 0 0 0 0 0 0 0 0 0 1e3 1e-8 0 2 0 1 0 3 1 3 4 5 6 0 0 7 8 9 0 0 0 0 0 0 0 13 255
 3 29 0 1 0 10 0 0 7 10 50 255 4 11 0 10 0 0 11 +-.0055 0 0 1 0 0 0 0 -1 31 255
 5 15 0 12 13 0 0 +-.0055 0 0 1 0 0 0 0 -1 .00215 29 255 6 40 0 9 14 0 -.0055 -.
001245613718081444 .00175241161412703 19 8 CCCCCCCA5 owner12 0 Z7 28 0 1 0 0 3 V
0 16 255 8 16 0 555071970716488e-21 15 0 12 0 0 0 1 18 255 9 38 0 16 0 17 6 ?1 1
7 255 16 0 18 19 20 9 21 22 0 23 -18 17 35 0 21 9 24 14 ?1 17 21 0 0 0 0 17 16 2
2 0 20 +18 24 32 0 25 17 26 27 ?1 29 14 37 0 17 27 6 -.0055 -.00137428685817148
 -.00165343147165437 29 27 34 0 24 28 14 -.0055 .00137428685817148 -.00165343147
165437 29 28 31 0 26 0 27 -.0055 .001245613718081442 .00175241161412703 18 26 30
 0 29 24 0 28 ?1 17 29 0 0 0 0 26 30 31 0 19 +17 30 0 18 20 19 24 29 31 0 0 -16
 31 33 0 ?29 32 0 5 12 32 1 17 19 0 18 30 16 26 23 12 0 0 -15 255 18 6 0 19 10 3
3 17 23 0 0 0 0 9 19 12 0 0 +16 12 13 0 ?23 8 22 5 22 31 1 16 22 39 0 ?21 12 32
 5 32 12 1 16 32 36 0 ?25 22 31 5 31 22 1 17 25 0 0 0 0 24 20 32 0 30 +17 20 0 1
8 16 30 17 25 32 0 0 -14 255 10 1 0 ?0 0 18 3 4 +0 0 0 0 3 15 33 7 0 15 10 0 17
 15 0 33 15 15 0 34 8 35 0 +17 34 0 0 0 0 0 15 8 0 0 -133 255 35 12 0 15 0 13 0
 +13 -.0055 0 -.006 -.0055 0 -.006 0 1 137 255 13 10 0 1 35 5 36 +4 37 0 ?141 25
5 36 35 36 36 13 134 255 37 0 0 0 0 0 0 +38 39 136 255 38 2 65 2 35 5 TTF1 40 41
 42 135 255 39 2 0 45 255 130 40 .006 0 .006 .000590670624468772 .00588471168241
938 .00117054193209677 .00576958374544163 .00174960656553739 .00554327719506772
 .00229610059419054 .00531739150330998 .0028415783167745 .00498881767381527 .003
333421398117615 .00466085488773322 .003824349806872905 .004242640687119285 .0042
42640687119285 .003825204232660265 .00466015367861089 .003333421398117615 .00498
881767381527 .002842553124126095 .00531687045792509 .00229610059419054 .00554327
719506772 .001750664293153575 .00576926288727687 .00117054193209677 .00588471168
241938 .000591498415176858 .00599994577931182 0 .006 -.000590398415180134 .00600
005411985485 -.00117054193209677 .00588471168241938 -.00174960656553955 .0057695
8374544105 -.00229610059419054 .00554327719506772 -.00284157831677452 .005317391
50330966 -.003333421398117615 .00498881767381527 -.003824349806870555 .004660854
8877351 -.004242640687119285 .004242640687119285 -.00466015367861091 .0038252042
32660715 -.00498881767381527 .003333421398117615 -.00531687045792535 .0028425531
24125235 -.00554327719506772 .00229610059419054 -.00576926288727674 .00175066429
315413 -.00588471168241938 .001170541932096772 -.00599994577931182 .000591498415
176976 -.006 734788079488412e-33 -.00600005411985485 -.000590398415180135 -.0058
8471168241938 -.00117054193209677 -.00576958374544105 -.00174960656553955 -.0055
4327719506772 -.00229610059419054 -.00531739150330991 -.00284157831677391 -.0049
8881767381527 -.003333421398117615 -.00466085488773557 -.003824349806870085 -.00
4242640687119285 -.004242640687119285 -.003825204232660785 -.00466015367861084 -
.003333421398117615 -.00498881767381527 -.00284255312412465 -.00531687045792576
 -.002296100594190545 -.00554327719506772 -.001750664293150245 -.005769262887278
18 -.001170541932096772 -.00588471168241938 -.000591498415173626 -.0059999457793
1182 -867361737988404e-33 -.006 .000590398415179215 -.00600005411985485 .0011705
4193209677 -.00588471168241938 .00174960656553925 -.00576958374544129 .002296100
59419054 -.00554327719506772 .002841578316775055 -.00531739150330932 .0033334213
9811761 -.00498881767381527 .0038243498068706 -.00466085488773505 .0042426406871
19285 -.004242640687119285 .00466015367861177 -.00382520423265985 .0049888176738
1527 -.003333421398117615 .00531687045792626 -.002842553124123425 .0055432771950
6772 -.002296100594190545 .00576926288727818 -.001750664293150245 .0058847116824
1938 -.001170541932096772 .006 -.000591225959894998 .006 0 127 255 35 41 1 2 2 2
 2 2 2 2 2 2 2 2 2 2 2 2 2 2 2 2 2 2 2 2 2 2 2 2 2 2 2 2 2 2 1 128 255 35 42 -.0
3125 0 .03125 .0625 .09375 .125 .15625 .1875 .21875 .25 .28125 .3125 .34375 .375
 .40625 .4375 .46875 .5 .53125 .5625 .59375 .625 .65625 .6875 .71875 .75 .78125
 .8125 .84375 .875 .90625 .9375 .96875 1 1.03125 141 11 13 11 11 4 1 0 
